<svg width="73" height="73" viewBox="0 0 73 73" xmlns="http://www.w3.org/2000/svg" xmlns:xlink="http://www.w3.org/1999/xlink">
    <defs>
        <path id="a" d="M0 0h26.184v48.233H0z"/>
        <path id="c" d="M0 52.367h26.873V0H0z"/>
    </defs>
    <g transform="translate(.314)" fill="none" fill-rule="evenodd">
        <ellipse fill="#F8F5ED" cx="36.131" cy="36.175" rx="36.131" ry="36.175"/>
        <g transform="translate(23.427 8.269)">
            <g transform="translate(0 4.823)">
                <mask id="b" fill="#fff">
                    <use xlink:href="#a"/>
                </mask>
                <path d="M4.38 2.388c-1.124 0-2.04.934-2.04 2.08v39.296c0 1.148.916 2.081 2.04 2.081h17.424c1.125 0 2.04-.933 2.04-2.081V4.469c0-1.147-.915-2.081-2.04-2.081H4.38zm17.424 45.845H4.38c-2.415 0-4.38-2.005-4.38-4.47V4.47C0 2.005 1.965 0 4.38 0h17.424c2.415 0 4.38 2.005 4.38 4.469v39.295c0 2.464-1.965 4.47-4.38 4.47z" fill="#3A3E3F" mask="url(#b)"/>
            </g>
            <mask id="d" fill="#fff">
                <use xlink:href="#c"/>
            </mask>
            <path fill="#64A2A3" mask="url(#d)" d="M5.512 47.544H21.36V9.647H5.512z"/>
            <path d="M18.604 6.201H8.27v-5.08C8.269.502 8.735 0 9.312 0h8.248c.577 0 1.044.502 1.044 1.12v5.081z" fill="#3A3E3F" mask="url(#d)"/>
            <path d="M16.607 28.596h-2.236c-.144 0-.251-.142-.223-.293l1.88-9.955c.07-.38-.392-.596-.604-.281l-6.35 9.48c-.293.439 0 1.049.502 1.049h2.236c.145 0 .253.14.224.291l-1.88 9.955c-.072.381.392.597.604.282l6.35-9.48c.293-.438 0-1.048-.503-1.048" fill="#FFF" mask="url(#d)"/>
        </g>
    </g>
</svg>
