<svg width="60" height="60" viewBox="0 0 60 60" xmlns="http://www.w3.org/2000/svg" xmlns:xlink="http://www.w3.org/1999/xlink">
    <defs>
        <path id="a" d="M0 0h11.616v5.126H0z"/>
    </defs>
    <g fill="none" fill-rule="evenodd">
        <circle fill="#FFF" cx="30" cy="30" r="30"/>
        <path d="M29.356 17.826c-11.592 0-14.857 12.613-8.218 22.37 2.133 3.13.165 9.666.165 9.666h16.104s-1.967-6.535.163-9.665c6.64-9.758 3.374-22.37-8.214-22.37" fill="#FDBB45"/>
        <path fill="#FFAA90" d="M36.509 50.613H22.204l-.593-1.502h15.488z"/>
        <path fill="#FF8A5F" d="M36.509 50.394H22.204l-.593 1.5h15.488z"/>
        <path fill="#FFAA90" d="M36.509 53.176H22.204l-.593-1.502h15.488z"/>
        <path fill="#FF8A5F" d="M36.509 51.674H22.204l-.593 1.502h15.488z"/>
        <path fill="#FFAA90" d="M36.509 53.176H22.204l-.593-1.502h15.488z"/>
        <path fill="#FF8A5F" d="M36.509 52.956H22.204l-.593 1.502h15.488z"/>
        <path fill="#FFAA90" d="M34.527 57.551H24.185l-2.574-2.563h15.488z"/>
        <path d="M30.645 8.855c0-3.54-.579-6.406-1.291-6.406s-1.29 2.867-1.29 6.406c0 3.542.578 6.408 1.29 6.408.712 0 1.291-2.866 1.291-6.408M48.457 22.922c3.201-1.233 5.624-2.794 5.407-3.488-.213-.69-2.984-.249-6.183.983-3.2 1.236-5.622 2.796-5.406 3.489.213.69 2.983.254 6.182-.984M42.756 13.207c1.665-2.815 2.507-5.325 1.878-5.607-.628-.28-2.49 1.776-4.158 4.593-1.666 2.817-2.506 5.329-1.879 5.607.632.283 2.494-1.776 4.159-4.593M17.244 13.207c-1.664-2.815-2.509-5.325-1.877-5.607.629-.28 2.49 1.776 4.158 4.593 1.663 2.817 2.505 5.329 1.878 5.607-.63.283-2.491-1.776-4.159-4.593" fill="#FDBB45"/>
        <g transform="translate(6.122 19.108)">
            <mask id="b" fill="#fff">
                <use xlink:href="#a"/>
            </mask>
            <path d="M5.42 3.815C2.217 2.58-.2 1.02.012.325c.214-.689 2.986-.248 6.182.984 3.201 1.237 5.621 2.796 5.408 3.489-.214.691-2.982.255-6.184-.983" fill="#FDBB45" mask="url(#b)"/>
        </g>
    </g>
</svg>
