<svg width="130" height="148" viewBox="0 0 130 148" xmlns="http://www.w3.org/2000/svg" xmlns:xlink="http://www.w3.org/1999/xlink">
    <defs>
        <path id="a" d="M0 0h57.34v32.85H0z"/>
        <path id="c" d="M0 0h12.358v14.59H0z"/>
        <path id="e" d="M0 0h22.201v20.242H0z"/>
        <path id="g" d="M0 0h29.664v14.066H0z"/>
    </defs>
    <g fill="none" fill-rule="evenodd">
        <path fill="#431D59" d="M74.112 32.804H55.888l1.466-11.333 15.29-2.032z"/>
        <g transform="translate(37.333 114.159)">
            <mask id="b" fill="#fff">
                <use xlink:href="#a"/>
            </mask>
            <path d="M2.117 32.85H57.34C56.308 15.555 55.336 0 55.336 0H0l.517 22.469 1.6 10.381z" fill="#F78628" mask="url(#b)"/>
        </g>
        <g transform="translate(51.635 132.42)">
            <mask id="d" fill="#fff">
                <use xlink:href="#c"/>
            </mask>
            <path fill="#D66F22" mask="url(#d)" d="M12.358 14.59 8.422 6.047 0 .162 9.988 0z"/>
        </g>
        <path d="M80.759 30.102 65 31.762l-15.758-1.66s-12.63 4.643-15.163 9.173c0 0 20.77 80.06 30.921 80.103 10.15-.042 30.922-80.103 30.922-80.103-2.533-4.53-15.163-9.173-15.163-9.173" fill="#C0222C"/>
        <path d="M34.079 39.275c2.533-4.53 15.163-9.173 15.163-9.173S44.23 67.49 46.88 70.42C61.606 86.704 65 119.379 65 119.379c-10.15-.043-23.573-2.818-27.668-5.22.352-3.397.301-23.322.232-35.83-.714-.226-31.781-8.99-33.239-12.928C1.47 57.692 34.08 39.275 34.08 39.275M80.759 30.102S85.77 67.491 83.12 70.42c-14.727 16.284-18.12 48.959-18.12 48.959 10.149-.043 23.572-2.818 27.668-5.22-.352-3.397-.302-23.322-.232-35.83.713-.226 31.78-8.99 33.238-12.928 2.855-7.709-29.753-26.126-29.753-26.126-2.533-4.53-15.163-9.173-15.163-9.173z" fill="#C0222C"/>
        <path d="M43.717 100.47a3.386 3.386 0 0 1-3.395-3.376V54.079a3.386 3.386 0 0 1 3.395-3.378h43.216a3.386 3.386 0 0 1 3.395 3.378v43.015a3.386 3.386 0 0 1-3.395 3.377H43.717z" stroke="#6D2138" stroke-width="5" fill="#FCF9EB"/>
        <path d="m97.215 65.556-6.757-5.013-.78-2.333s-2.568.88-1.26 4.174c.208.526 1.602 2.161 1.602 2.161l-.903.809c.02-.164.022-.336-.01-.512-.14-.803-.792-1.36-1.449-1.245l-5.474.958c-.657.115-1.075.86-.934 1.66.126.709.647 1.224 1.22 1.257-.584.256-.895 1.007-.7 1.78.163.648.632 1.116 1.153 1.225-.652.21-.995 1.07-.77 1.966.234.929.988 1.54 1.682 1.365l.392-.099c-.254.3-.362.762-.242 1.232.133.53.51.918.936 1.02l5.296 2.295 5.056.053 4.438-9.198-2.496-3.555z" fill="#775093"/>
        <path d="m95.273 78.309 4.438-9.197c8.816-.447 11.707-2.693 11.707-2.693s19.105-9.39 18.571 10.139c-.907 2.206-28.617 4.87-34.716 1.75M32.785 65.556l6.757-5.013.78-2.333s2.568.88 1.26 4.174c-.208.526-1.602 2.161-1.602 2.161l.903.809a1.707 1.707 0 0 1 .01-.512c.14-.803.791-1.36 1.449-1.245l5.474.958c.657.115 1.075.86.934 1.66-.126.709-.647 1.224-1.22 1.257.584.256.896 1.007.7 1.78-.164.648-.632 1.116-1.153 1.225.652.21.995 1.07.77 1.966-.234.929-.987 1.54-1.682 1.365l-.391-.099c.253.3.36.762.241 1.232-.133.53-.51.918-.935 1.02l-5.296 2.295-5.057.053-4.438-9.198 2.496-3.555z" fill="#775093"/>
        <path d="m34.727 78.309-4.438-9.197c-8.815-.447-11.706-2.693-11.706-2.693S-.523 57.029.011 76.558c.907 2.206 28.617 4.87 34.716 1.75M71.848 15.305c1.78-3.15 2.543 1.824 2.353 3.245-.069.523-.258 1.567-.782 1.854l-1.57-5.099zM56.927 20.207c-3.316-1.477-.954 2.972.05 4.001.37.379 1.145 1.106 1.738 1.026l-1.788-5.027z" fill="#775093"/>
        <path d="M72.47 17.005c-1.201-2.847-2.065-7.734-3.978-9.254-2.223-1.77-5.1-1.056-7.512-.263-2.416.793-5.154 1.922-5.882 4.663-.625 2.353 1.607 6.791 2.345 9.79.944 3.83 2.834 6.054 6.464 7.425 1.072.404 3.165.174 4.278-.172 1.098-.38 2.918-1.436 3.537-2.394 2.096-3.254 2.284-6.159.748-9.795" fill="#775093"/>
        <g transform="translate(50.923)">
            <mask id="f" fill="#fff">
                <use xlink:href="#e"/>
            </mask>
            <path d="M20.25 4.093c-.297-.44-2.491-.945-3.374-1.294-.836-.328-.858-2.406-2.853-2.736-2.476-.41-1.719 1.317-6.396 1.107-2.686-.123-3.72 2.794-3.72 2.794S1.46 5.574 1.198 5.961C.338 7.246-.222 9.07.085 12.04c.186 1.79 3.61 6.89 4.51 7.94 0 0 1.105.378 1.409.228-.481-1.253-.498-3.21-.807-4.139-.013-.879.873-4.622 1.666-5.222.637-1.258 2.784-.702 3.7-.978.503-.152 3.286-1.394 4.456-1.472 2.537-.171 4.2 3.576 4.2 3.576s1.34 2.042 1.707 3.333c.692-1.23 1.275-.983 1.275-.983-.355-1.5-.461-8.025-1.95-10.23" fill="#261235" mask="url(#f)"/>
        </g>
        <path d="M56.789 83.301c-1.465.362-4.968 3.69-5.379 3.303-2.222-2.093-3.112-9.918-1.796-13.992 1.897-5.872 6.384-4.735 12.206-4.025 2.023.247 3.373.726 5.806 1.223.068.014.198.05.36.091.386.098.954.227 1.297.167 4.15-.724 6.729-.071 8.487.247 3.426.618 3.725 2.513 2.666 3.095-6.882 3.781-4.743 3.577-12.034 5.607-.263.073-1.035 1.414-2.242 2.225-2.788 1.873-5.747 1.165-9.371 2.06" fill="#D6725B"/>
        <path d="M80.298 74.52c.787-.844.867-2.053.456-2.693-.184.525-1.511 1.312-1.955 1.583-.867.53-2.053 1.195-5.767 2.465-3.427 1.171-4.503.482-4.503.482-2.672 1.4-4.68 1.408-6.468 1.587-1.788.179-3.498 1.758-7.668 3.424-2.49.994-4.25.04-5.15-.592a23.111 23.111 0 0 0 .07.468l.002.013a21.898 21.898 0 0 0 .08.453c0 .007.002.014.003.02l.04.212.004.02.043.209.004.02.045.207c0 .006.002.011.003.017l.048.208.002.01c.12.512.258 1 .412 1.451l.056.159.014.04.05.135.022.058.047.121.027.068.046.11.03.073a9.011 9.011 0 0 0 .37.755 6.161 6.161 0 0 0 .175.292l.048.071.043.065.05.07.043.06.053.068c.014.018.027.036.042.053.018.024.037.046.056.068l.04.047c.022.025.043.048.065.07l.034.038c.032.033.065.066.098.097l.002.002c.071.067.233.024.46-.095a3.12 3.12 0 0 0 .2-.114l.073-.045c1.208-.756 3.524-2.772 4.646-3.049 2.423-.598 4.55-.48 6.525-.895a10.115 10.115 0 0 0 .81-.206 7.486 7.486 0 0 0 2.036-.958c.902-.606 1.562-1.509 1.947-1.956a.237.237 0 0 1 .295-.27c7.034-1.574 9.897-2.352 11.896-4.495" fill="#BF6151"/>
        <g transform="translate(51.336 72.57)">
            <mask id="h" fill="#fff">
                <use xlink:href="#g"/>
            </mask>
            <path d="M17.072 5.486c-2.256.308-2.62.919-7.03 2.217-3.568 1.05-6.681 2.258-8.008 3.65 0 0-.863 1.049-1.554 2.192a1.19 1.19 0 0 1-.48.416l.075.074a.1.1 0 0 0 .026.018l.004.001.004.002a.133.133 0 0 0 .026.007h.004l.004.001a.362.362 0 0 0 .089-.005c.953-.199 3.857-2.99 5.183-3.318l.066-.016.03-.007.031-.007a2.628 2.628 0 0 0 .037-.01h.001a15.374 15.374 0 0 1 .263-.06h.004c.849-.186 1.66-.29 2.443-.369h.005a63.757 63.757 0 0 1 .761-.071l.34-.03a65.013 65.013 0 0 0 .38-.034l.04-.004.44-.043h.01l.223-.025h.007c.148-.017.295-.035.442-.054h.005l.006-.001c.146-.02.292-.04.436-.064h.005l.004-.002a12.9 12.9 0 0 0 .437-.077l.217-.045h.003l.002-.001c.142-.031.284-.065.424-.102l.012-.003h.001c.139-.038.425-.125.428-.126.07-.022.684-.174.993-.31.809-.356 1.14-.641 1.14-.641s1.184-.931 1.977-2.183l.026-.003.004-.002.009-.004c5.34-.239 6.851.937 11.37-3.309.207-.194 1.278-1.689 1.226-3.138 0 0-.804 1.17-1.797 1.792-5.362 3.364-8.185 3.337-10.794 3.694" fill="#AF574B" mask="url(#h)"/>
        </g>
        <path d="M68.084 69.925c.415.919.27 6.978-.094 9.634.187-.085.672-.468.77-.557 0 0-.234-3.192-.154-4.573.232-3.97.47-4.346.47-4.346-.547-.1-.992-.158-.992-.158" fill="#A55249"/>
        <path d="M49.938 75.334c-.26 2.072.128 4.186 2.38 4.36 3.61.277 6.657-2.411 8.83-3.028 1.79-.508 3.05-.71 4.557-.941 2.115-.324 2.532-4.092.702-5.143-2.564-1.471-6.923-1.844-9.33-1.939-4.032-.158-6.503 1.653-7.139 6.691M71.878 70.16c-.259 0-1.991-.062-2.38.422-.602.747-.646 3.87-.365 4.348.49.828 1.735.253 3.32-.12 1.594-.375 4.984-2.331 5.783-3.074.323-.3.832-.731-.903-1.083-2.434-.494-5.455-.494-5.455-.494" fill="#E57D61"/>
        <path d="M57.555 69.686c6.789.629 1.833 2.348-.378 3.693-1.428.87-3.749 1.505-4.668 1.213-2.605-.824-.614-5.431 5.046-4.906M69.62 71.583a.983.983 0 0 1 .57-.747c.632-.267 1.32-.384 2.127-.3 1.013.106 1.75.413.943 1.017-1.339 1.005-2.957 1.02-3.44.65-.212-.163-.238-.402-.2-.62" fill="#ED917C"/>
        <path d="M106.38 47.464a1.594 1.594 0 0 1-1.36 1.802l-2.823.376c-.866.115-1.68-.484-1.804-1.347a1.593 1.593 0 0 1 1.36-1.802l2.822-.375c.865-.115 1.68.484 1.804 1.346M107.637 38.034c.375.79.032 1.746-.76 2.118l-7.606 3.583a1.608 1.608 0 0 1-2.127-.758 1.593 1.593 0 0 1 .76-2.116l7.606-3.583a1.609 1.609 0 0 1 2.127.756M105.199 28.008c.575.66.498 1.663-.158 2.239l-9.672 8.51a1.606 1.606 0 0 1-2.259-.158 1.592 1.592 0 0 1 .158-2.24l9.672-8.509a1.604 1.604 0 0 1 2.259.158M23.888 99.295a1.594 1.594 0 0 1 1.36-1.802l2.822-.376c.866-.115 1.68.485 1.805 1.348a1.594 1.594 0 0 1-1.36 1.801l-2.822.375c-.865.115-1.68-.483-1.805-1.346M22.63 108.725a1.594 1.594 0 0 1 .76-2.117l7.606-3.583a1.609 1.609 0 0 1 2.128.757 1.593 1.593 0 0 1-.76 2.117l-7.606 3.582a1.61 1.61 0 0 1-2.128-.756M25.069 118.751a1.592 1.592 0 0 1 .158-2.239l9.672-8.51a1.605 1.605 0 0 1 2.258.159A1.592 1.592 0 0 1 37 110.4l-9.673 8.509a1.604 1.604 0 0 1-2.258-.158" fill="#FFBE4E"/>
    </g>
</svg>
