<?xml version="1.0" encoding="UTF-8"?>
<svg width="781px" height="411px" viewBox="0 0 781 411" version="1.1" xmlns="http://www.w3.org/2000/svg" xmlns:xlink="http://www.w3.org/1999/xlink">
    <title>what-illus-1</title>
    <defs>
        <polygon id="path-1" points="0 0 159.668533 0 159.668533 91.8412432 0 91.8412432"></polygon>
        <polygon id="path-3" points="0 0 34.4111173 0 34.4111173 40.7898213 0 40.7898213"></polygon>
        <polygon id="path-5" points="0 0 61.8214444 0 61.8214444 56.59179 0 56.59179"></polygon>
        <polygon id="path-7" points="0 0 84.3581735 0 84.3581735 40.0006508 0 40.0006508"></polygon>
    </defs>
    <g id="0.0---DEV" stroke="none" stroke-width="1" fill="none" fill-rule="evenodd">
        <g id="0.1-what-desk" transform="translate(-484.000000, -343.000000)">
            <g id="what-illus-1" transform="translate(484.000000, 343.000000)">
                <polygon id="Fill-1" fill="#431D59" points="265 93 214 93 218.101977 59.9290151 260.891928 54"></polygon>
                <g id="Group-51" transform="translate(57.000000, 0.000000)">
                    <g id="Group-4" transform="translate(103.956689, 319.158757)">
                        <mask id="mask-2" fill="white">
                            <use xlink:href="#path-1"></use>
                        </mask>
                        <g id="Clip-3"></g>
                        <path d="M5.89533461,91.841331 L159.668533,91.841331 C156.796402,43.4881834 154.089396,0 154.089396,0 L0,0 L1.43870055,62.8164598 L5.89533461,91.841331 Z" id="Fill-2" fill="#F78628" mask="url(#mask-2)"></path>
                    </g>
                    <g id="Group-7" transform="translate(143.783223, 370.210179)">
                        <mask id="mask-4" fill="white">
                            <use xlink:href="#path-3"></use>
                        </mask>
                        <g id="Clip-6"></g>
                        <polygon id="Fill-5" fill="#D66F22" mask="url(#mask-4)" points="34.4111173 40.789909 23.4513459 16.9054436 0 0.451759207 27.811364 0"></polygon>
                    </g>
                    <path d="M224.882105,84.1573893 L180.999982,88.8004213 L137.119615,84.1573893 C137.119615,84.1573893 101.949623,97.1373524 94.8957741,109.801523 C94.8957741,109.801523 152.735401,333.631981 180.999982,333.751281 C209.262806,333.631981 267.105946,109.801523 267.105946,109.801523 C260.052976,97.1373524 224.882105,84.1573893 224.882105,84.1573893" id="Fill-8" fill="#C0222C"></path>
                    <path d="M94.8955985,109.801873 C101.949447,97.1368261 137.119439,84.1577402 137.119439,84.1577402 C137.119439,84.1577402 123.162814,188.685171 130.541644,196.87561 C171.54988,242.401534 180.999806,333.751632 180.999806,333.751632 C152.736104,333.632332 115.357117,325.874355 103.954669,319.158494 C104.934883,309.662778 104.79435,253.956921 104.60024,218.986372 C102.613463,218.356541 16.1034677,193.851893 12.0438377,182.843004 C4.09409494,161.291897 94.8955985,109.801873 94.8955985,109.801873" id="Fill-10" fill="#C0222C"></path>
                    <path d="M224.882281,84.1577402 C224.882281,84.1577402 238.837149,188.686049 231.460076,196.876487 C190.450084,242.402411 181.000158,333.751632 181.000158,333.751632 C209.262982,333.632332 246.642846,325.874355 258.046173,319.158494 C257.066838,309.662778 257.206492,253.957798 257.401481,218.987249 C259.386501,218.356541 345.897374,193.85277 349.956126,182.843881 C357.905869,161.291897 267.106122,109.802751 267.106122,109.802751 C260.053152,97.1377033 224.882281,84.1577402 224.882281,84.1577402 Z" id="Fill-12" fill="#C0222C"></path>
                    <path d="M121.734917,280.890541 C116.514138,280.890541 112.282356,276.66418 112.282356,271.449213 L112.282356,151.190034 C112.282356,145.975067 116.514138,141.747828 121.734917,141.747828 L242.076333,141.747828 C247.297112,141.747828 251.529773,145.975067 251.529773,151.190034 L251.529773,271.449213 C251.529773,276.66418 247.297112,280.890541 242.076333,280.890541 L121.734917,280.890541 Z" id="Fill-14" stroke="#6D2138" stroke-width="5" fill="#FCF9EB"></path>
                    <path d="M270.706035,183.27871 L251.89138,169.262771 L249.71752,162.740772 C249.71752,162.740772 242.568812,165.202202 246.208601,174.410195 C246.789176,175.879508 250.672262,180.452364 250.672262,180.452364 L248.15761,182.712915 C248.214701,182.253261 248.217336,181.772554 248.130382,181.28132 C247.738648,179.037437 245.923145,177.479526 244.094467,177.800582 L228.85197,180.479558 C227.021536,180.801491 225.856873,182.882215 226.251242,185.121712 C226.600817,187.101558 228.052692,188.541047 229.646857,188.634031 C228.021951,189.350705 227.155041,191.450727 227.699604,193.612154 C228.152821,195.422699 229.458016,196.730608 230.908135,197.03412 C229.09351,197.622723 228.137012,200.024503 228.762381,202.532424 C229.416735,205.128066 231.515059,206.837734 233.448258,206.347377 L234.540019,206.071936 C233.831209,206.912296 233.532578,208.200906 233.865464,209.51671 C234.236996,210.997427 235.287476,212.083404 236.471462,212.367617 L251.218582,218.784352 L265.298172,218.931722 L277.656241,193.217413 L270.706035,183.27871 Z" id="Fill-16" fill="#775093"></path>
                    <path d="M265.297997,218.931284 L277.656066,193.217851 C302.206199,191.968715 310.255193,185.689701 310.255193,185.689701 C310.255193,185.689701 363.45725,159.436789 361.969363,214.035617 C359.444172,220.203227 282.282217,227.649798 265.297997,218.931284" id="Fill-18" fill="#775093"></path>
                    <path d="M91.2939285,183.27871 L110.108583,169.262771 L112.282444,162.740772 C112.282444,162.740772 119.431152,165.202202 115.791363,174.410195 C115.210788,175.879508 111.329459,180.452364 111.329459,180.452364 L113.843232,182.712915 C113.787019,182.253261 113.782627,181.772554 113.87046,181.28132 C114.259559,179.037437 116.075062,177.479526 117.905497,177.800582 L133.147994,180.479558 C134.978428,180.801491 136.143969,182.882215 135.748721,185.121712 C135.399147,187.101558 133.947272,188.541047 132.353107,188.634031 C133.978013,189.350705 134.846679,191.450727 134.300359,193.612154 C133.845386,195.422699 132.541947,196.730608 131.090072,197.03412 C132.906453,197.622723 133.862952,200.024503 133.237583,202.532424 C132.583229,205.128066 130.486661,206.837734 128.551705,206.347377 L127.461701,206.071936 C128.168755,206.912296 128.467386,208.200906 128.1345,209.51671 C127.763846,210.997427 126.714244,212.083404 125.530259,212.367617 L110.78226,218.784352 L96.7017913,218.931722 L84.3437224,193.217413 L91.2939285,183.27871 Z" id="Fill-20" fill="#775093"></path>
                    <path d="M96.7019669,218.931284 L84.3438981,193.217851 C59.795521,191.968715 51.7465272,185.689701 51.7465272,185.689701 C51.7465272,185.689701 -1.45640827,159.436789 0.0306002962,214.035617 C2.55667037,220.203227 79.7177468,227.649798 96.7019669,218.931284" id="Fill-22" fill="#775093"></path>
                    <path d="M200.070142,42.7901058 C205.024788,33.982117 207.150341,47.8884058 206.622466,51.8621324 C206.429234,53.3226743 205.903115,56.2411265 204.444213,57.0437666 L200.070142,42.7901058 Z" id="Fill-24" fill="#775093"></path>
                    <path d="M158.518573,56.4938485 C149.28735,52.3639799 155.864267,64.8027091 158.659984,67.6799328 C159.688505,68.7378388 161.846556,70.7703166 163.49869,70.5475072 L158.518573,56.4938485 Z" id="Fill-26" fill="#775093"></path>
                    <path d="M201.801062,47.5419108 C198.456391,39.5821768 196.049773,25.9188731 190.723595,21.6705821 C184.533142,16.7187749 176.523673,18.717919 169.804467,20.9346094 C163.078235,23.1521769 155.454352,26.3092281 153.427172,33.9715906 C151.687205,40.5488538 157.901372,52.9577581 159.956659,61.3429353 C162.585493,72.0500671 167.847554,78.2659229 177.957104,82.1001744 C180.940783,83.230011 186.770243,82.5861445 189.869861,81.6177131 C192.92644,80.5571755 197.995269,77.6053896 199.718548,74.9246592 C205.555034,65.8298253 206.077639,57.7069316 201.801062,47.5419108" id="Fill-28" fill="#775093"></path>
                    <g id="Group-32" transform="translate(141.801006, 0.000000)">
                        <mask id="mask-6" fill="white">
                            <use xlink:href="#path-5"></use>
                        </mask>
                        <g id="Clip-31"></g>
                        <path d="M56.3898667,11.4421396 C55.5624821,10.212302 49.4519573,8.80176059 46.9943968,7.82543439 C44.6659504,6.90700353 44.6035891,1.09816961 39.0499239,0.176229951 C32.1532959,-0.968519107 34.2621604,3.85784819 21.2383193,3.27187702 C13.7576034,2.9280137 10.8802023,11.0833639 10.8802023,11.0833639 C10.8802023,11.0833639 4.06262377,15.5825347 3.33624688,16.6667568 C0.94192594,20.2580232 -0.617105486,25.3572004 0.235750579,33.657289 C0.755720496,38.659974 10.2873312,52.9224069 12.7949564,55.8548943 C12.7949564,55.8548943 15.8734945,56.9128003 16.7175673,56.4934976 C15.3781178,52.9890742 15.3315664,47.5188404 14.4725621,44.9223215 C14.4356723,42.4644005 16.9028944,32.001131 19.1118882,30.3221657 C20.8843533,26.8054615 26.8640073,28.3589868 29.4155489,27.5888032 C30.8147247,27.16336 38.5642088,23.6922704 41.8219257,23.4720926 C48.8863143,22.9948945 53.5159789,33.4695677 53.5159789,33.4695677 C53.5159789,33.4695677 57.2479927,39.180155 58.2694877,42.7898426 C60.1991733,39.3520866 61.8214444,40.0406905 61.8214444,40.0406905 C60.8315692,35.8459088 60.5364511,17.6036089 56.3898667,11.4421396" id="Fill-30" fill="#261235" mask="url(#mask-6)"></path>
                    </g>
                    <g id="Group-18" transform="translate(135.000000, 191.000000)">
                        <path d="M22.1495384,43.5126837 C17.9834207,44.5407939 8.02207021,54.0060733 6.85481812,52.9062472 C0.535355749,46.9520736 -1.99548702,24.7001481 1.74726525,13.1144121 C7.14168143,-3.58448643 19.9000592,-0.349794602 36.457066,1.66902795 C42.2090714,2.37045715 46.048508,3.73492777 52.9682055,5.14812556 C53.1609143,5.18750327 53.5310427,5.28891737 53.9925759,5.40595056 C55.0896521,5.68412438 56.7035882,6.05018308 57.6805513,5.879693 C69.4820948,3.82072278 76.8147082,5.67895468 81.8143574,6.58200214 C91.5573706,8.34178977 92.4079511,13.7305963 89.3965463,15.38501 C69.8247249,26.1376545 75.9093509,25.5573283 55.1751171,31.3283625 C54.4277106,31.5363604 52.2311384,35.3498386 48.7981281,37.6567344 C40.8708892,42.9832845 32.4560488,40.9695217 22.1495384,43.5126837" id="Fill-1" fill="#D6725B"></path>
                        <path d="M89.0026592,18.5428493 C91.2417989,16.141359 91.4697057,12.703289 90.3006937,10.882235 C89.7760242,12.377268 86.0034637,14.6128879 84.7405171,15.3841631 C82.2753406,16.8896455 78.9030467,18.7829654 68.3411312,22.3939453 C58.5956981,25.7257615 55.5368861,23.7649055 55.5368861,23.7649055 C47.9378681,27.745464 42.2289802,27.7702125 37.1432061,28.2787129 C32.057542,28.7872134 27.1934049,33.2771522 15.3351048,38.0144666 C8.25789649,40.8417421 3.25164773,38.1299599 0.688356848,36.3303545 C0.719815018,36.5527616 0.752373124,36.7745087 0.785921172,36.9953759 C0.787131102,37.0029654 0.788231038,37.010555 0.789330974,37.0181445 C0.822109067,37.233402 0.855987096,37.4476695 0.890635081,37.6612771 C0.892834953,37.6744763 0.894924831,37.6876756 0.89701471,37.7007648 C0.93122272,37.9101926 0.966420672,38.1188505 1.00249857,38.3264084 C1.00535841,38.3432374 1.00821824,38.3599565 1.01118807,38.3765655 C1.04682599,38.5813736 1.08345386,38.7850817 1.12096168,38.9879099 C1.12459147,39.0073788 1.12822126,39.0267377 1.13174105,39.0459866 C1.16913888,39.2470549 1.20741665,39.4473532 1.24657437,39.6464416 C1.25042415,39.6660205 1.25438392,39.6857093 1.2582337,39.7051782 C1.29750141,39.9040466 1.33764908,40.1020351 1.37878668,40.2988137 C1.38263646,40.3177326 1.38670622,40.3366515 1.39066599,40.3555704 C1.43213358,40.5532289 1.47437112,40.7500074 1.5177086,40.9454661 C1.5211184,40.9609752 1.5246382,40.9763743 1.528048,40.9919934 C1.57226543,41.1909718 1.6173628,41.3889603 1.66334013,41.5854088 C1.66532001,41.5937683 1.6672999,41.6020179 1.66916979,41.6103774 C2.01135988,43.0681226 2.40315709,44.4543719 2.84203156,45.7393172 C2.84214155,45.7396472 2.84236154,45.7400871 2.84247153,45.7404171 C2.89416853,45.8919883 2.94707545,46.0411396 3.00009236,46.189851 C3.01362158,46.2276888 3.02682081,46.2661865 3.04046002,46.3039143 C3.0872073,46.4333768 3.13494452,46.5609694 3.18268174,46.688232 C3.20347053,46.7435588 3.22403934,46.7995455 3.24493812,46.8544323 C3.28915555,46.9701456 3.33403294,47.083879 3.37902032,47.1976123 C3.40453884,47.2618486 3.42972737,47.3266348 3.45535588,47.3902111 C3.49814339,47.496025 3.54159086,47.6000789 3.58503833,47.7040229 C3.61396665,47.7733189 3.64278498,47.8428348 3.67204327,47.9112508 C3.71395084,48.0092551 3.75640837,48.1057195 3.79897589,48.2019639 C3.83076404,48.2737897 3.86255219,48.3455056 3.89467032,48.4164514 C3.93613791,48.5079661 3.97804547,48.5981609 4.02017302,48.6880256 C4.05438103,48.7611714 4.08869903,48.8338772 4.12334702,48.905813 C4.16459462,48.991608 4.20628219,49.0763031 4.24807976,49.1604482 C4.28448764,49.2335939 4.32100552,49.3062997 4.35785338,49.3781255 C4.39910098,49.4587508 4.44056856,49.5386062 4.48236613,49.6176916 C4.5207539,49.6905073 4.55958164,49.7623331 4.59840938,49.833719 C4.63965698,49.9092846 4.68101458,49.9844102 4.72270215,50.0584359 C4.7631798,50.1303717 4.80409742,50.2010976 4.84501504,50.2714935 C4.88626264,50.3424394 4.92751024,50.4129453 4.96919781,50.4823513 C5.01165534,50.5528572 5.05455285,50.6220431 5.09756034,50.6908991 C5.13869795,50.7571153 5.17994555,50.8234414 5.22163313,50.8880077 C5.26618053,50.9573036 5.31127791,51.0247297 5.35637529,51.0921558 C5.3974029,51.1535322 5.43832052,51.2152386 5.47978811,51.2750751 C5.52664538,51.3427212 5.57405262,51.4083874 5.62145987,51.4741636 C5.66204751,51.5305903 5.70263514,51.5877869 5.74377275,51.6428937 C5.79326987,51.7093299 5.84353695,51.7732362 5.89369403,51.8375824 C5.93351171,51.8886194 5.97310941,51.9407564 6.01325707,51.9904735 C6.06671396,52.0565797 6.12094081,52.119826 6.17505766,52.1836223 C6.21278547,52.2280597 6.25029328,52.274037 6.28835107,52.3173745 C6.34917753,52.3864505 6.41077395,52.4521167 6.47226037,52.5181128 C6.50459849,52.5526508 6.53638664,52.5890587 6.56894475,52.6228267 C6.66122938,52.7187412 6.75450395,52.8112458 6.84854848,52.9000106 C6.85063836,52.9021005 6.85261824,52.9043004 6.85470812,52.9061703 C7.05533645,53.0952493 7.51576967,52.9722764 8.16198207,52.6336061 C8.22071866,52.6026979 8.28099515,52.5701398 8.34270156,52.5358218 C8.46622437,52.4672958 8.59557685,52.3918402 8.730539,52.3102249 C8.79796507,52.2694173 8.86682107,52.2269598 8.93688699,52.1831823 C12.3730871,50.0326974 18.9598339,44.2998309 22.1495384,43.5127167 C29.0409674,41.8122156 35.0865457,42.1486861 40.7062288,40.9662549 C41.1746916,40.8677006 41.6402945,40.758257 42.1031476,40.636494 C42.4066199,40.5566387 42.7088823,40.4713936 43.0101548,40.380099 C44.9800302,39.7831637 46.9030483,38.9300533 48.7981281,37.6566574 C51.3643888,35.9322877 53.2393397,33.366577 54.334986,32.093621 C54.3451054,32.0818517 54.3550048,32.0704124 54.3651242,32.058863 C54.4711581,31.9364402 54.5691624,31.8276565 54.6600171,31.732512 C54.7186437,31.6711356 54.7750704,31.6139389 54.8273173,31.5654317 C54.8618553,31.5332036 54.8950734,31.5039453 54.9268615,31.4777668 C55.022226,31.3990114 55.1041712,31.3442346 55.1751171,31.3282855 C75.1777835,26.850776 83.3195098,24.6378148 89.0026592,18.5428493" id="Fill-3" fill="#BF6151"></path>
                        <g id="Group-7" transform="translate(6.641827, 12.993441)">
                            <mask id="mask-8" fill="white">
                                <use xlink:href="#path-7"></use>
                            </mask>
                            <g id="Clip-6"></g>
                            <path d="M48.5485357,15.6005024 C42.1338189,16.4769315 41.0986691,18.2137304 28.5543389,21.9055557 C18.409519,24.891222 9.55778398,28.3265421 5.78302357,32.2838919 C5.78357354,32.2841119 3.33071624,35.2674683 1.36502059,38.5172293 C1.10499572,38.9469743 0.499590936,39.4973823 0,39.7015304 C0.0706158919,39.7733562 0.141231784,39.845292 0.212947612,39.9127181 C0.234396364,39.9331769 0.259804886,39.948686 0.287303286,39.9618852 C0.291153062,39.9637551 0.2956628,39.965075 0.29962257,39.9667249 C0.303362352,39.9680449 0.306992141,39.9696948 0.310731923,39.9710147 C0.333390605,39.9799242 0.357479204,39.9868538 0.383547687,39.9914735 C0.387177476,39.9922435 0.390807265,39.9927934 0.394437054,39.9933434 C0.398946791,39.9940034 0.403456529,39.9949933 0.40807626,39.9955433 C0.442394264,39.999833 0.478582159,40.0019229 0.518069861,39.999833 L0.51894981,39.999833 C0.562837257,39.9975232 0.609804525,39.9914735 0.659851613,39.9817941 C0.660071601,39.9817941 0.660071601,39.9817941 0.660291588,39.9816841 L0.660841556,39.9816841 C3.36855404,39.415107 11.6273136,31.474999 15.3986642,30.5442331 C15.4619105,30.528724 15.5243869,30.5147548 15.5871932,30.5001257 C15.6159016,30.4930861 15.6444999,30.4862665 15.6730982,30.4794469 C15.7023565,30.4722973 15.7315048,30.4654777 15.7607631,30.4583281 C15.7766022,30.4545883 15.7925513,30.4507385 15.8083904,30.4468888 C15.8190597,30.442159 15.8296191,30.4375393 15.8374287,30.4356694 C15.8465581,30.4347895 15.8554676,30.4340195 15.8645971,30.4333595 C15.8651471,30.4332496 15.865697,30.4331396 15.866137,30.4330296 C15.8669069,30.4329196 15.8675669,30.4326996 15.8683369,30.4325896 C16.1181323,30.3731931 16.3668279,30.3164364 16.6145335,30.2620995 C16.6149734,30.2619895 16.6154134,30.2618795 16.6159634,30.2617695 C16.6192632,30.2609996 16.622673,30.2603396 16.6260828,30.2595697 C16.6266328,30.2594597 16.6271827,30.2594597 16.6277327,30.2592397 C19.0407723,29.7309404 21.350308,29.4343977 23.5749285,29.2113306 C23.5797683,29.2107807 23.584608,29.2103407 23.5893377,29.2099007 C24.2865871,29.1401648 24.9755871,29.0772484 25.6567774,29.0169719 C25.6893355,29.0140021 25.7214537,29.0111423 25.7540118,29.0082825 C26.077173,28.9796841 26.3987943,28.9514158 26.7186557,28.9232574 C26.8467982,28.9120381 26.9748307,28.9005987 27.1024233,28.8891594 C27.142131,28.8857496 27.1820587,28.8822298 27.2216564,28.87871 C27.4146952,28.861441 27.606854,28.843952 27.7986828,28.826353 C27.8367406,28.8228332 27.8747984,28.8194234 27.9127462,28.8157937 C28.3333617,28.7769659 28.7512274,28.7367083 29.1663433,28.6940307 C29.1762427,28.6929308 29.1863621,28.6920509 29.1963715,28.6909509 C29.4081092,28.6691722 29.6190769,28.6465135 29.8293847,28.6231949 C29.8298247,28.6231949 29.8302646,28.6231949 29.8307046,28.6230849 C29.8360943,28.6225349 29.841484,28.6218749 29.8469837,28.621215 C30.2688091,28.5742477 30.6877747,28.5238706 31.1043205,28.4689838 C31.1096002,28.4682139 31.1148799,28.4674439 31.1201596,28.4668939 C31.1257693,28.466014 31.1312689,28.465354 31.1367686,28.4645841 C31.5525444,28.4093673 31.9656804,28.3495308 32.3763965,28.2836446 C32.3810162,28.2828747 32.385526,28.2821047 32.3901457,28.2814447 C32.3943255,28.2806748 32.3985052,28.2800148 32.402795,28.2794649 C32.8184608,28.2124787 33.2315968,28.139333 33.6423129,28.0585977 C33.6428628,28.0584877 33.6435228,28.0583777 33.6441828,28.0582677 C33.6446227,28.0581577 33.6450627,28.0581577 33.6453927,28.0579377 C33.8509707,28.0175701 34.0557788,27.9752226 34.2602569,27.9308951 C34.2631168,27.9302352 34.2660866,27.9294652 34.2690564,27.9289152 C34.2711463,27.9283653 34.2733462,27.9279253 34.275436,27.9273753 C34.6798825,27.8394904 35.0821291,27.7431361 35.4821758,27.6374322 C35.4932852,27.6345724 35.5041746,27.6316025 35.5152839,27.6287427 C35.5163838,27.6284127 35.5174838,27.6281927 35.5186937,27.6278628 C35.9133508,27.5230389 36.7275234,27.2746733 36.7362129,27.2718135 C36.9332114,27.2086771 38.6816697,26.7767323 39.5585387,26.3908747 C41.8598248,25.3780536 42.8010401,24.5667408 42.8010401,24.5667408 C42.8010401,24.5667408 46.1681642,21.9185349 48.4241329,18.3600219 C48.4487715,18.3565021 48.4727501,18.3528723 48.4972787,18.3493525 C48.5009085,18.3479226 48.5045383,18.3466027 48.508278,18.3449528 C48.5164176,18.341983 48.5251071,18.3352734 48.5332466,18.3348334 C63.7196231,17.6548529 68.0167431,20.9968985 80.8679555,8.92455082 C81.4560913,8.37194297 84.5026941,4.12157023 84.3528828,0 C84.3528828,0 82.0676557,3.32466659 79.2453299,5.0950136 C63.996257,14.6611571 55.9679341,14.5866914 48.5485357,15.6005024" id="Fill-5" fill="#AF574B" mask="url(#mask-8)"></path>
                        </g>
                        <path d="M54.2691218,5.47498254 C55.451663,8.08744056 55.039187,25.3167283 54.0033773,32.8710888 C54.5358563,32.6289929 55.9137461,31.5412661 56.19159,31.2880609 C56.19159,31.2880609 55.5265687,22.2084191 55.7554653,18.2826375 C56.413777,6.99168431 57.0896877,5.92309647 57.0896877,5.92309647 C55.5364681,5.64019293 54.2691218,5.47498254 54.2691218,5.47498254" id="Fill-8" fill="#A55249"></path>
                        <path d="M2.66847266,20.8566857 C1.92557587,26.748603 3.03024161,32.7603032 9.43417906,33.2526346 C19.7037316,34.0424986 28.3650678,26.3977234 34.5470381,24.6439854 C39.6352321,23.2005394 43.2198136,22.6234029 47.5062642,21.9672911 C53.5195044,21.0468647 54.7060054,10.331508 49.5012182,7.34386182 C42.2099623,3.15871529 29.8136835,2.09881695 22.9664718,1.82933263 C11.5039287,1.37802888 4.47533754,6.52814928 2.66847266,20.8566857" id="Fill-10" fill="#E57D61"></path>
                        <path d="M65.0598791,6.14075181 C64.3239119,6.14075181 59.3971885,5.96718191 58.2903229,7.34199193 C56.5788224,9.46761827 56.4528798,18.3498216 57.2544031,19.7063726 C58.6464822,22.0626556 62.1857463,20.4267207 66.6968038,19.3650625 C71.2268903,18.2987845 80.8670595,12.7369581 83.1395273,10.624421 C84.0589638,9.76955071 85.5046097,8.54466197 80.5715067,7.54449015 C73.6489494,6.14075181 65.0598791,6.14075181 65.0598791,6.14075181" id="Fill-12" fill="#E57D61"></path>
                        <path d="M24.3296995,4.7932202 C43.6337965,6.58204614 29.5398764,11.4703818 23.2535221,15.2976091 C19.1912384,17.7708152 12.5931623,19.5753703 9.97784444,18.7472284 C2.56933542,16.4013949 8.23213599,3.30159698 24.3296995,4.7932202" id="Fill-14" fill="#ED917C"></path>
                        <path d="M58.6357248,10.1881644 C58.803575,9.20196173 59.439448,8.41286763 60.2602203,8.06539785 C62.0554258,7.30545206 64.012762,6.97261142 66.3070085,7.21206749 C69.1874109,7.51289999 71.283119,8.38536923 68.9901924,10.1051192 C65.1824339,12.960993 60.5794217,13.0025706 59.2060416,11.9502618 C58.6052566,11.4898286 58.5301309,10.8087483 58.6357248,10.1881644" id="Fill-16" fill="#ED917C"></path>
                    </g>
                    <path d="M296.225579,132.697381 C296.574275,135.117582 294.874711,137.412344 292.439109,137.736031 L284.579834,138.786042 C282.167946,139.108853 279.90274,137.431642 279.5558,135.019336 C279.206226,132.600889 280.907546,130.306127 283.34227,129.983317 L291.199789,128.933306 C293.609041,128.61225 295.876883,130.285952 296.225579,132.697381" id="Fill-39" fill="#FFBE4E"></path>
                    <path d="M299.727735,106.334205 C300.772066,108.540369 299.817324,111.213204 297.611843,112.253566 L276.432731,122.271217 C274.22725,123.313333 271.548351,122.360692 270.507533,120.153651 C269.461445,117.950996 270.417944,115.280792 272.625181,114.236044 L293.803415,104.218393 C296.009774,103.176276 298.68516,104.130673 299.727735,106.334205" id="Fill-41" fill="#FFBE4E"></path>
                    <path d="M292.938702,78.3031163 C294.540771,80.14875 294.324703,82.9514115 292.49866,84.5628322 L265.565623,108.35256 C263.722892,109.978016 260.881502,109.759592 259.275919,107.912204 C257.672093,106.063939 257.887284,103.264786 259.714205,101.651611 L286.648998,77.8627607 C288.489973,76.2346732 291.331362,76.4530966 292.938702,78.3031163" id="Fill-43" fill="#FFBE4E"></path>
                    <path d="M66.5189429,277.602787 C66.1702468,275.182586 67.870689,272.887824 70.305413,272.564137 L78.164688,271.515003 C80.5765755,271.192192 82.8426606,272.868526 83.1896,275.28171 C83.5382961,277.699279 81.8369756,279.994041 79.4022516,280.317728 L71.5447332,281.366862 C69.1354807,281.688796 66.8676389,280.015093 66.5189429,277.602787" id="Fill-45" fill="#FFBE4E"></path>
                    <path d="M63.0166995,303.96684 C61.9723681,301.759799 62.9279885,299.087841 65.1325906,298.047479 L86.3117032,288.029828 C88.5171837,286.987712 91.1960828,287.939476 92.2377793,290.147395 C93.2829891,292.35005 92.3264903,295.020254 90.1192532,296.065002 L68.941019,306.081775 C66.7355384,307.123891 64.0592744,306.169495 63.0166995,303.96684" id="Fill-47" fill="#FFBE4E"></path>
                    <path d="M69.8066108,331.997929 C68.203663,330.152295 68.4197315,327.349634 70.2466529,325.738213 L97.1796893,301.947608 C99.0215422,300.322152 101.86381,300.540576 103.468515,302.388841 C105.072341,304.237106 104.857151,307.035382 103.030229,308.649434 L76.0954361,332.438284 C74.2544616,334.065495 71.4130719,333.847949 69.8066108,331.997929" id="Fill-49" fill="#FFBE4E"></path>
                </g>
                <circle id="Oval" fill="#6D2138" cx="6" cy="152" r="6"></circle>
                <line x1="6" y1="152" x2="164.5" y2="151.5" id="Line-2-Copy" stroke="#6D2138" stroke-width="4" stroke-linecap="square"></line>
                <line x1="312.5" y1="151.5" x2="778.5" y2="151.5" id="Line-2" stroke="#6D2138" stroke-width="5" stroke-linecap="square"></line>
            </g>
        </g>
    </g>
</svg>