<svg width="73" height="73" viewBox="0 0 73 73" xmlns="http://www.w3.org/2000/svg" xmlns:xlink="http://www.w3.org/1999/xlink">
    <defs>
        <path id="a" d="M0 0h49.611v44.099H0z"/>
    </defs>
    <g transform="translate(.738)" fill="none" fill-rule="evenodd">
        <ellipse fill="#F8F5ED" cx="36.131" cy="36.175" rx="36.131" ry="36.175"/>
        <g transform="translate(12.403 8.269)">
            <mask id="b" fill="#fff">
                <use xlink:href="#a"/>
            </mask>
            <path d="M21.368 2.145.59 37.652c-1.676 2.864.414 6.447 3.76 6.447H45.26c3.32 0 5.413-3.533 3.79-6.396L28.919 2.195c-1.647-2.904-5.865-2.932-7.551-.05" fill="#FFE317" mask="url(#b)"/>
        </g>
        <path d="M38.216 11.025c-.927 0-1.725.453-2.189 1.245L15.503 47.246a2.439 2.439 0 0 0-.002 2.495 2.51 2.51 0 0 0 2.192 1.248h40.41c.907 0 1.723-.46 2.182-1.233a2.44 2.44 0 0 0 .024-2.48L40.423 12.299a2.506 2.506 0 0 0-2.207-1.274m0 1.737c.29 0 .528.138.67.387l19.886 34.976a.722.722 0 0 1-.008.753.743.743 0 0 1-.662.374h-40.41a.742.742 0 0 1-.664-.379.721.721 0 0 1 0-.757L37.554 13.14a.715.715 0 0 1 .663-.378" fill="#1A1A1A"/>
        <path d="M39.845 37.208h7.699l-.001-.15-.001-.05-.002-.1-.002-.058-.004-.094-.002-.058-.008-.135-.005-.076-.004-.067a11.476 11.476 0 0 0-.012-.142l-.008-.086a10.506 10.506 0 0 0-.832-3.187l-.037-.083-.006-.014a10.515 10.515 0 0 0-.993-1.732l-.017-.024a14.196 14.196 0 0 0-.243-.327l-.035-.044a8.605 8.605 0 0 0-.128-.16l-.037-.045-.046-.055-.038-.046-.046-.054-.04-.045a11.511 11.511 0 0 0-.132-.15l-.042-.046a10.767 10.767 0 0 0-.226-.239l-.046-.047-.045-.045a8.373 8.373 0 0 0-.333-.319 16.528 16.528 0 0 0-.196-.174l-.043-.038a9.973 9.973 0 0 0-.056-.047l-.043-.037a13.047 13.047 0 0 0-.262-.212l-.043-.033a9.236 9.236 0 0 0-.244-.184 10.329 10.329 0 0 0-.85-.554L38.586 35a2.553 2.553 0 0 1 1.259 2.207M35.83 35.001l-3.85-6.75-.127.076-.042.025-.085.053-.049.03a12.29 12.29 0 0 0-.079.05l-.048.032-.111.073-.063.043-.055.038a8.94 8.94 0 0 0-.116.081l-.069.05a10.34 10.34 0 0 0-2.31 2.323l-.053.074a10.47 10.47 0 0 0-.994 1.748l-.012.028a10.017 10.017 0 0 0-.058.133l-.022.051a12.065 12.065 0 0 0-.125.314l-.02.054a8.086 8.086 0 0 0-.09.248l-.023.068-.02.057-.022.067-.018.058-.021.066a9.082 9.082 0 0 0-.075.25l-.018.063a9.066 9.066 0 0 0-.05.19l-.017.065a13.76 13.76 0 0 0-.116.515 7.364 7.364 0 0 0-.057.316 9.125 9.125 0 0 0-.083.597 7.653 7.653 0 0 0-.007.069l-.003.03c-.032.336-.05.677-.05 1.022h7.7c0-.88.451-1.735 1.258-2.207" fill="#1A1A1A"/>
        <path d="M35.418 35.486a2.066 2.066 0 1 0 3.58 2.067 2.066 2.066 0 1 0-3.58-2.067M36.709 39.275l-3.635 6.289.122.069.04.022a10.592 10.592 0 0 0 .208.112l.048.025.112.056.064.032a10.365 10.365 0 0 0 .127.06l.05.024.073.033.08.036a9.71 9.71 0 0 0 2.886.77l.086.008.013.001a9.777 9.777 0 0 0 1.868-.004c.01 0 .019-.002.028-.003a7.36 7.36 0 0 0 .135-.014l.052-.007.07-.009.052-.006a8.428 8.428 0 0 0 .311-.048l.054-.009a10.33 10.33 0 0 0 .187-.034l.055-.011.064-.014.056-.011a8.761 8.761 0 0 0 .12-.027l.063-.014.058-.014a9.417 9.417 0 0 0 .238-.06l.058-.016a9.651 9.651 0 0 0 .118-.033l.061-.018a7.484 7.484 0 0 0 .118-.036l.055-.017a9.78 9.78 0 0 0 .063-.02l.053-.017.064-.022a9.638 9.638 0 0 0 .232-.081l.05-.019a7.21 7.21 0 0 0 .114-.043l.066-.026.048-.019a8.041 8.041 0 0 0 .18-.074l.047-.02a9.143 9.143 0 0 0 .125-.055L41.87 46c.287-.13.57-.275.85-.436l-3.635-6.288a2.378 2.378 0 0 1-2.377 0" fill="#1A1A1A"/>
    </g>
</svg>
