<svg width="73" height="73" viewBox="0 0 73 73" xmlns="http://www.w3.org/2000/svg" xmlns:xlink="http://www.w3.org/1999/xlink">
    <defs>
        <path id="a" d="M0 0h39.964v53.056H0z"/>
        <path id="c" d="M0 0h19.982v42.72H0z"/>
        <path id="e" d="M0 0h13.78v13.78H0z"/>
        <path id="g" d="M0 0h11.714v11.714H0z"/>
    </defs>
    <g fill="none" fill-rule="evenodd">
        <ellipse fill="#F8F5ED" cx="36.131" cy="36.175" rx="36.131" ry="36.175"/>
        <g transform="translate(15.159 8.269)">
            <mask id="b" fill="#fff">
                <use xlink:href="#a"/>
            </mask>
            <path d="M39.663 16.36c-.165 1.961-.33 3.925-.491 5.889-.324 3.964-.485 8.35-1.686 12.15a38.183 38.183 0 0 1-1.706 4.42c-2.697 5.87-7.44 10.624-13.142 13.613-.871.458-1.686.67-2.518.616-.59-.039-1.185-.21-1.82-.518-7.213-3.522-12.733-10.063-15.636-17.512C1.176 31.201.344 27.146.087 23.063A46.155 46.155 0 0 1 .12 16.91a48.29 48.29 0 0 1 .32-3.064c.106-.784.09-1.767.31-2.514.074-.26.224-.484.426-.685.797-.797 2.399-1.17 3.283-1.46a40.602 40.602 0 0 0 14.059-7.994c.33-.287.617-.62.943-.913.217-.195.435-.277.659-.279.908-.009 1.838 1.337 2.54 1.899a44.522 44.522 0 0 0 4.691 3.28c3.264 1.982 6.497 3.312 10.163 4.403.474.14 1.527.325 1.832.813l.013.022c1.038 1.694.46 4.072.304 5.943" fill="#FAAF6E" mask="url(#b)"/>
        </g>
        <g transform="translate(35.141 17.915)">
            <mask id="d" fill="#fff">
                <use xlink:href="#c"/>
            </mask>
            <path d="M19.374 11.798c-.322 3.972-.884 8.422-2.08 12.23a38.396 38.396 0 0 1-1.699 4.427C12.91 34.338 8.186 39.1 2.508 42.095c-.868.46-1.68.672-2.508.617v-3.865l4.382-6.074 11.674-30.32L19.159 0c1.621 1.4.375 9.83.215 11.798" fill="#FAAF6E" mask="url(#d)"/>
        </g>
        <path d="M51.477 30.93a49.212 49.212 0 0 1-.496 4.4c-.45 2.82-1.196 5.75-2.388 8.494a23.32 23.32 0 0 1-5.518 7.804 24.644 24.644 0 0 1-5.592 3.919c-.415.211-.836.411-1.265.595-.377.161-.838.419-1.262.347-.34-.057-.65-.242-.965-.378a22.457 22.457 0 0 1-2.157-1.08 24.807 24.807 0 0 1-2.805-1.856 24.236 24.236 0 0 1-3.038-2.752 23.256 23.256 0 0 1-4.302-6.57c-1.42-3.268-2.22-6.784-2.661-10.305a55.244 55.244 0 0 1-.386-8.895c.032-.88.084-1.76.174-2.635.046-.443-.05-1.198.34-1.515.28-.226.834-.321 1.168-.438 1.306-.454 2.615-.899 3.907-1.393 1.524-.584 3.091-1.2 4.46-2.1 3.377-2.22 6.036-4.858 6.45-4.858.414 0 3.073 2.544 6.45 4.768 4.178 2.753 9.238 3.489 9.628 3.94.39.45.665 4.596.258 10.508" fill="#F29D52"/>
        <path d="M51.422 31.417a46.885 46.885 0 0 1-.476 4.203c-.432 2.696-1.146 5.495-2.289 8.118-3.494 8.027-10.397 11.209-12.362 11.974a1.467 1.467 0 0 1-1.066 0c-1.964-.763-8.867-3.938-12.361-11.948-1.903-4.362-2.667-9.165-2.85-13.887-.077-2-.02-4.01.082-6.007.025-.48.053-.958.094-1.435.021-.245-.02-.526.07-.767.13-.345.496-.373.809-.477.726-.242 1.454-.48 2.178-.731 1.89-.655 3.801-1.345 5.558-2.305.262-.144.52-.294.77-.458 1.539-1.008 2.96-2.037 4.352-3.228.503-.43 1.026-1.032 1.627-1.32.314-.15.481.02.724.2.272.202.531.42.79.637.59.499 1.169 1.005 1.792 1.465.213.211.512.384.757.56.243.174.488.346.733.517.525.369 1.055.73 1.592 1.083 4.005 2.63 8.626 3.273 9.229 3.764.602.49.637 4.392.247 10.042" fill="#FFCB87"/>
        <path d="M20.659 43.36c-4.55-1.878-7.924-4.149-7.537-5.073.388-.923 4.39-.15 8.94 1.727 4.55 1.878 7.924 4.149 7.537 5.073-.388.924-4.39.15-8.94-1.727" fill="#FC9C97"/>
        <path d="M19.343 40.64c1.878-4.55 4.149-7.923 5.072-7.536.924.388.151 4.39-1.726 8.94-1.878 4.55-4.149 7.924-5.073 7.537-.924-.388-.15-4.39 1.727-8.94" fill="#FC9C97"/>
        <path d="M22.056 43.372c-4.55 1.874-8.55 2.64-8.934 1.709-.385-.93 2.993-3.205 7.543-5.079 4.55-1.874 8.55-2.64 8.934-1.709.384.931-2.993 3.205-7.543 5.079" fill="#FC9C97"/>
        <path d="M19.33 42.038c-1.873-4.55-2.638-8.55-1.708-8.934.93-.384 3.204 2.993 5.079 7.543 1.874 4.55 2.639 8.55 1.708 8.934-.93.384-3.204-2.993-5.078-7.543" fill="#FC9C97"/>
        <path d="M20.659 43.36c-4.55-1.878-7.924-4.149-7.537-5.073.388-.923 4.39-.15 8.94 1.727 4.55 1.878 7.924 4.149 7.537 5.073-.388.924-4.39.15-8.94-1.727" fill="#2ECBC1"/>
        <path d="M19.343 40.64c1.878-4.55 4.149-7.923 5.072-7.536.924.388.151 4.39-1.726 8.94-1.878 4.55-4.149 7.924-5.073 7.537-.924-.388-.15-4.39 1.727-8.94" fill="#2ECBC1"/>
        <path d="M22.056 43.372c-4.55 1.874-8.55 2.64-8.934 1.709-.385-.93 2.993-3.205 7.543-5.079 4.55-1.874 8.55-2.64 8.934-1.709.384.931-2.993 3.205-7.543 5.079" fill="#2ECBC1"/>
        <path d="M19.33 42.038c-1.873-4.55-2.638-8.55-1.708-8.934.93-.384 3.204 2.993 5.079 7.543 1.874 4.55 2.639 8.55 1.708 8.934-.93.384-3.204-2.993-5.078-7.543" fill="#2ECBC1"/>
        <path d="m27.712 45.423-.072.11c1.012 1.553 1.435 2.711 1.03 3.118-.407.406-1.566-.017-3.118-1.03l-.127.084a7.466 7.466 0 0 1-2.588 1.042c-.381 1.813-.902 2.931-1.477 2.931-.573 0-1.094-1.118-1.475-2.932l-.157-.033a7.548 7.548 0 0 1-2.559-1.092c-1.552 1.013-2.711 1.436-3.117 1.03-.103-.104-.152-.256-.152-.45 0-.029 0-.057.003-.087 0-.008 0-.016.002-.025l.008-.077c.004-.025.007-.05.013-.077a2.11 2.11 0 0 1 .034-.16l.024-.09c.008-.027.015-.054.025-.083l.013-.04a4.538 4.538 0 0 1 .186-.476 7.77 7.77 0 0 1 .122-.26c.03-.06.06-.12.093-.182l.102-.19.053-.096.111-.193.035-.06c.11-.183.23-.374.358-.571a7.503 7.503 0 0 1-1.125-2.715c-1.814-.381-2.932-.902-2.932-1.476 0-.575 1.118-1.095 2.932-1.476a7.503 7.503 0 0 1 1.125-2.716c-1.013-1.552-1.436-2.71-1.03-3.117.406-.406 1.565.018 3.117 1.03a7.502 7.502 0 0 1 2.716-1.125c.38-1.814.902-2.932 1.475-2.932.575 0 1.096 1.118 1.477 2.932a7.473 7.473 0 0 1 2.491.982l.113.07.111.073c1.552-1.012 2.71-1.436 3.117-1.03.406.407-.017 1.565-1.03 3.117.026.039.052.078.076.117l.074.118a7.476 7.476 0 0 1 .976 2.48c1.814.382 2.931.902 2.931 1.477 0 .574-1.117 1.095-2.931 1.476l-.033.156a7.511 7.511 0 0 1-1.02 2.448" fill="#4CE9D2"/>
        <path d="M28.712 42.917c-.03.13-.063.26-.099.388l.003.002c.644.563.951 1.038.82 1.355-.133.317-.687.433-1.541.374h-.002a7.718 7.718 0 0 1-.208.345l-.072.112c1.018 1.562 1.445 2.729 1.036 3.137-.409.41-1.576-.016-3.138-1.036l-.128.084a8.87 8.87 0 0 1-.35.208v.003c.057.853-.061 1.408-.38 1.54-.316.13-.79-.18-1.353-.826v-.001a8.807 8.807 0 0 1-.522.125c-.384 1.826-.908 2.951-1.487 2.951-.577 0-1.102-1.125-1.485-2.951-.053-.01-.105-.022-.157-.034-.13-.03-.26-.063-.388-.097l-.002.001c-.564.644-1.04.952-1.355.82-.318-.132-.435-.686-.374-1.54v-.002a8.031 8.031 0 0 1-.457-.28c-1.563 1.019-2.73 1.444-3.138 1.035-.104-.104-.154-.256-.154-.453 0-.028 0-.057.003-.087l.002-.025a1.234 1.234 0 0 1 .021-.155c0-.01.003-.019.005-.028.008-.043.018-.088.03-.133l.024-.09c.007-.028.015-.055.025-.084l.013-.04a4.558 4.558 0 0 1 .187-.48l.038-.085a10.705 10.705 0 0 1 .179-.36l.102-.19c.017-.033.036-.065.054-.097l.112-.195.035-.06a7.857 7.857 0 0 0 9.865-11.695c.198.091.39.19.578.298v.002c.078.044.155.09.232.136l.113.072c.038.023.075.048.112.072 1.562-1.019 2.729-1.445 3.138-1.036.409.409-.018 1.575-1.036 3.138l.076.117c.025.04.05.078.074.119.048.08.095.16.141.242h.002c.855-.057 1.41.06 1.54.378.13.318-.178.792-.824 1.353l-.002.002a8.423 8.423 0 0 1 .125.522c1.826.383 2.951.908 2.951 1.486s-1.125 1.102-2.95 1.486l-.034.157" fill="#2ECBC1"/>
        <path d="M20.364 35.817c.742 1.192.093 3.553-1.45 5.273-1.543 1.72-3.395 2.147-4.137.955-.742-1.192-.093-3.553 1.45-5.273 1.543-1.72 3.396-2.148 4.137-.955" fill="#61F2D9"/>
        <path d="M19.982 44.443a1.034 1.034 0 1 1-2.067 0 1.034 1.034 0 0 1 2.067 0" fill="#2ECBC1"/>
        <path d="M26.873 44.099a.69.69 0 1 1-1.378 0 .69.69 0 0 1 1.378 0" fill="#4CE9D2"/>
        <path d="M22.738 37.553a.345.345 0 1 1-.689 0 .345.345 0 0 1 .69 0" fill="#2ECBC1"/>
        <path d="M47.765 47.575c-3.033-1.195-5.283-2.64-5.024-3.228.258-.588 2.927-.096 5.96 1.099s5.283 2.64 5.024 3.228c-.258.588-2.927.096-5.96-1.1" fill="#FC9C97"/>
        <path d="M47.513 45.698c1.195-3.033 2.64-5.283 3.228-5.024.588.258.096 2.927-1.099 5.96s-2.64 5.282-3.228 5.024c-.588-.258-.096-2.927 1.099-5.96" fill="#FC9C97"/>
        <path d="M48.697 47.583c-3.034 1.192-5.7 1.68-5.956 1.087-.257-.592 1.995-2.04 5.028-3.232 3.034-1.193 5.7-1.68 5.956-1.087.257.592-1.995 2.039-5.028 3.232" fill="#FC9C97"/>
        <path d="M47.505 46.63c-1.192-3.034-1.68-5.7-1.087-5.957.592-.256 2.04 1.996 3.232 5.03 1.192 3.033 1.68 5.7 1.087 5.955-.592.256-2.039-1.995-3.232-5.028" fill="#FC9C97"/>
        <path d="M47.765 47.575c-3.033-1.195-5.283-2.64-5.024-3.228.258-.588 2.927-.096 5.96 1.099s5.283 2.64 5.024 3.228c-.258.588-2.927.096-5.96-1.1" fill="#2ECBC1"/>
        <path d="M47.513 45.698c1.195-3.033 2.64-5.283 3.228-5.024.588.258.096 2.927-1.099 5.96s-2.64 5.282-3.228 5.024c-.588-.258-.096-2.927 1.099-5.96" fill="#2ECBC1"/>
        <path d="M48.697 47.583c-3.034 1.192-5.7 1.68-5.956 1.087-.257-.592 1.995-2.04 5.028-3.232 3.034-1.193 5.7-1.68 5.956-1.087.257.592-1.995 2.039-5.028 3.232" fill="#2ECBC1"/>
        <path d="M47.505 46.63c-1.192-3.034-1.68-5.7-1.087-5.957.592-.256 2.04 1.996 3.232 5.03 1.192 3.033 1.68 5.7 1.087 5.955-.592.256-2.039-1.995-3.232-5.028" fill="#2ECBC1"/>
        <g transform="translate(41.343 39.275)">
            <mask id="f" fill="#fff">
                <use xlink:href="#e"/>
            </mask>
            <path d="m11.125 9.61-.048.075c.674 1.034.957 1.807.686 2.077-.27.271-1.043-.01-2.078-.686l-.085.056a4.98 4.98 0 0 1-1.726.694c-.253 1.21-.6 1.955-.984 1.955-.382 0-.73-.745-.983-1.955l-.104-.022a5.032 5.032 0 0 1-1.706-.728c-1.035.675-1.808.957-2.079.686-.068-.068-.101-.17-.101-.3 0-.018 0-.037.002-.057l.001-.017.006-.051a.832.832 0 0 1 .011-.07 1.416 1.416 0 0 1 .053-.204l.008-.026a3 3 0 0 1 .15-.374 5.342 5.342 0 0 1 .221-.429l.074-.129.023-.04c.073-.122.153-.25.239-.38a5.002 5.002 0 0 1-.75-1.81C.745 7.62 0 7.272 0 6.89c0-.383.745-.73 1.955-.985.13-.659.39-1.27.75-1.81-.676-1.034-.957-1.807-.687-2.078.27-.27 1.044.012 2.079.687a5.001 5.001 0 0 1 1.81-.75C6.16.745 6.507 0 6.89 0s.73.745.985 1.955a4.98 4.98 0 0 1 1.66.654l.076.048c.025.015.05.031.074.048 1.035-.675 1.807-.957 2.078-.687.27.271-.012 1.044-.686 2.078l.05.078a3.732 3.732 0 0 1 .144.239 4.984 4.984 0 0 1 .556 1.493c1.21.254 1.954.602 1.954.985 0 .382-.745.73-1.954.983a6.235 6.235 0 0 1-.086.363 5.003 5.003 0 0 1-.616 1.373" fill="#4CE9D2" mask="url(#f)"/>
        </g>
        <g transform="translate(43.41 41.343)">
            <mask id="h" fill="#fff">
                <use xlink:href="#g"/>
            </mask>
            <path d="M9.763 5.985c-.02.085-.042.17-.065.254l.002.001c.42.368.622.679.536.886-.087.207-.45.283-1.008.245a5.086 5.086 0 0 1-.137.225l-.047.073c.666 1.022.945 1.785.677 2.052-.267.267-1.03-.01-2.051-.678l-.084.055a5.803 5.803 0 0 1-.229.136v.002c.037.558-.04.92-.248 1.007-.207.085-.517-.117-.885-.54a5.37 5.37 0 0 1-.341.08c-.251 1.195-.594 1.93-.972 1.93s-.72-.735-.972-1.93l-.102-.02a6.368 6.368 0 0 1-.254-.065l-.001.001c-.369.421-.68.622-.886.536-.208-.086-.284-.448-.245-1.006v-.002a5.222 5.222 0 0 1-.299-.184c-1.021.667-1.785.945-2.051.678C.033 9.653 0 9.553 0 9.424a.643.643 0 0 1 .003-.073l.006-.05.008-.05c0-.007.002-.013.004-.02a1.437 1.437 0 0 1 .051-.2l.009-.026a2.988 2.988 0 0 1 .147-.37A6.85 6.85 0 0 1 .345 8.4l.066-.124.036-.064.073-.127.023-.04A5.137 5.137 0 0 0 6.993.4c.13.06.255.124.378.195a7.933 7.933 0 0 1 .226.137l.073.047C8.69.112 9.454-.167 9.72.101c.268.267-.011 1.03-.677 2.051l.05.077a3.61 3.61 0 0 1 .14.236h.002c.559-.037.921.04 1.007.247.085.208-.117.518-.54.885v.001a5.519 5.519 0 0 1 .081.341c1.194.251 1.93.594 1.93.972s-.736.72-1.93.971l-.021.103" fill="#2ECBC1" mask="url(#h)"/>
        </g>
        <path d="M47.373 42.462c.413.758.052 2.26-.805 3.355-.858 1.095-1.887 1.367-2.299.608-.412-.759-.051-2.261.806-3.356.857-1.094 1.886-1.366 2.298-.607" fill="#61F2D9"/>
        <path d="M46.855 48.233a.69.69 0 1 1-1.378 0 .69.69 0 0 1 1.378 0" fill="#2ECBC1"/>
        <path d="M52.367 47.888a.345.345 0 1 1-.689 0 .345.345 0 0 1 .69 0" fill="#4CE9D2"/>
        <path d="M49.611 43.065a.345.345 0 1 1-.69 0 .345.345 0 0 1 .69 0" fill="#2ECBC1"/>
        <path d="M40.303 28.667c-2.275-.854-3.962-1.886-3.769-2.306.194-.42 2.196-.069 4.47.785 2.275.853 3.962 1.886 3.769 2.306-.194.42-2.195.068-4.47-.785" fill="#FC9C97"/>
        <path d="M40.238 27.21c.853-2.274 1.885-3.961 2.305-3.767.42.193.069 2.195-.785 4.47-.853 2.274-1.885 3.962-2.305 3.768-.42-.194-.069-2.195.785-4.47" fill="#FC9C97"/>
        <path d="M41.001 28.672c-2.275.852-4.275 1.2-4.467.777-.192-.423 1.497-1.457 3.772-2.309 2.275-.852 4.275-1.2 4.467-.776.192.423-1.497 1.456-3.772 2.308" fill="#FC9C97"/>
        <path d="M40.232 27.91c-.852-2.276-1.2-4.276-.777-4.468.423-.192 1.457 1.497 2.309 3.772.852 2.275 1.2 4.275.777 4.467-.423.192-1.457-1.496-2.309-3.772" fill="#FC9C97"/>
        <path d="M40.303 28.667c-2.275-.854-3.962-1.886-3.769-2.306.194-.42 2.196-.069 4.47.785 2.275.853 3.962 1.886 3.769 2.306-.194.42-2.195.068-4.47-.785" fill="#2ECBC1"/>
        <path d="M40.238 27.21c.853-2.274 1.885-3.961 2.305-3.767.42.193.069 2.195-.785 4.47-.853 2.274-1.885 3.962-2.305 3.768-.42-.194-.069-2.195.785-4.47" fill="#2ECBC1"/>
        <path d="M41.001 28.672c-2.275.852-4.275 1.2-4.467.777-.192-.423 1.497-1.457 3.772-2.309 2.275-.852 4.275-1.2 4.467-.776.192.423-1.497 1.456-3.772 2.308" fill="#2ECBC1"/>
        <path d="M40.232 27.91c-.852-2.276-1.2-4.276-.777-4.468.423-.192 1.457 1.497 2.309 3.772.852 2.275 1.2 4.275.777 4.467-.423.192-1.457-1.496-2.309-3.772" fill="#2ECBC1"/>
        <path d="m44.174 29.946-.036.056c.506.776.718 1.355.514 1.558-.203.203-.782-.008-1.558-.514l-.063.041a3.734 3.734 0 0 1-1.294.52c-.191.908-.452 1.467-.739 1.467s-.547-.559-.738-1.466a4.236 4.236 0 0 1-.271-.064 3.775 3.775 0 0 1-1.086-.498c-.776.506-1.356.717-1.559.514-.052-.051-.076-.127-.076-.225a.486.486 0 0 1 .002-.056l.005-.038c.001-.013.003-.025.006-.038l.002-.015a1.1 1.1 0 0 1 .015-.066c.004-.014.007-.03.012-.044a.9.9 0 0 1 .012-.042l.007-.02a2.257 2.257 0 0 1 .112-.28 3.793 3.793 0 0 1 .14-.274l.026-.048.056-.097a8.135 8.135 0 0 1 .196-.316 3.752 3.752 0 0 1-.563-1.357c-.907-.19-1.466-.45-1.466-.738 0-.287.56-.547 1.466-.738.098-.494.292-.953.563-1.357-.507-.776-.718-1.356-.515-1.559.203-.203.783.009 1.559.515.404-.27.863-.464 1.357-.563.19-.907.451-1.466.738-1.466s.548.56.738 1.466a3.74 3.74 0 0 1 1.246.491l.056.036.056.036c.776-.506 1.355-.718 1.558-.515.204.203-.008.783-.514 1.559l.037.058a2.71 2.71 0 0 1 .109.18 3.739 3.739 0 0 1 .416 1.12c.907.19 1.466.45 1.466.737s-.559.548-1.466.738a4.8 4.8 0 0 1-.064.272 3.756 3.756 0 0 1-.462 1.03" fill="#4CE9D2"/>
        <path d="M44.674 28.693c-.015.065-.032.13-.05.194l.002.001c.322.282.476.52.41.678-.066.158-.344.217-.77.187h-.002a3.93 3.93 0 0 1-.104.172c-.011.02-.024.038-.036.056.51.781.723 1.365.518 1.57-.204.204-.787-.01-1.569-.519l-.063.042c-.058.036-.117.07-.176.104v.001c.029.427-.03.705-.19.77-.158.065-.395-.09-.676-.412v-.001a4.318 4.318 0 0 1-.261.062c-.192.913-.454 1.476-.743 1.476-.29 0-.551-.563-.743-1.476a4.897 4.897 0 0 1-.273-.066v.002c-.283.322-.52.475-.678.41-.159-.067-.217-.344-.187-.77v-.002a3.927 3.927 0 0 1-.229-.14c-.781.51-1.365.723-1.569.518-.052-.052-.077-.128-.077-.227a.489.489 0 0 1 .007-.094.603.603 0 0 1 .009-.053 1.107 1.107 0 0 1 .04-.154l.006-.02a2.324 2.324 0 0 1 .093-.24l.02-.042a5.602 5.602 0 0 1 .089-.18l.05-.095a2.59 2.59 0 0 1 .028-.049l.056-.097.017-.03a3.928 3.928 0 0 0 4.933-5.847c.099.045.195.095.289.148v.001l.116.069.056.035c.02.012.038.024.056.037.782-.51 1.365-.723 1.57-.519.204.205-.01.788-.519 1.57l.038.058a2.679 2.679 0 0 1 .108.18h.001c.427-.028.705.03.77.19.065.158-.09.395-.412.676l-.001.001a4.212 4.212 0 0 1 .062.26c.914.193 1.476.455 1.476.744s-.562.55-1.476.743l-.016.078" fill="#2ECBC1"/>
        <path d="M40.517 25.113c.33.542.041 1.615-.645 2.397-.685.781-1.509.976-1.838.434-.33-.542-.041-1.616.644-2.397.686-.782 1.51-.976 1.84-.434" fill="#61F2D9"/>
        <path d="M39.964 28.595a.345.345 0 1 1-.689 0 .345.345 0 0 1 .69 0" fill="#2ECBC1"/>
        <path d="M44.099 28.595a.344.344 0 1 1-.69 0 .344.344 0 0 1 .69 0" fill="#4CE9D2"/>
        <path d="M42.032 25.15a.345.345 0 1 1-.69 0 .345.345 0 0 1 .69 0" fill="#2ECBC1"/>
    </g>
</svg>
