<svg width="280" height="280" viewBox="0 0 280 280" xmlns="http://www.w3.org/2000/svg" xmlns:xlink="http://www.w3.org/1999/xlink">
    <defs>
        <path id="a" d="M0 0h280v280H0z"/>
    </defs>
    <g fill="none" fill-rule="evenodd">
        <g>
            <mask id="b" fill="#fff">
                <use xlink:href="#a"/>
            </mask>
            <path d="M280 140c0 77.32-62.68 140-140 140S0 217.32 0 140 62.68 0 140 0s140 62.68 140 140" fill="#F9F0D9" mask="url(#b)"/>
        </g>
        <path d="M207.31 123.82c-22.688-4.858-34.087 1.118-39.246 5.807a161.5 161.5 0 0 1-3.699-1.366c-14.028-5.384-23.938-2.802-29.583.076-18.688-14.868-80.14 11.785-80.14 11.785-35.743 12.173 29.12 29.649 49.104 26.685 9.317-1.382 20.21-4.056 27.883-8.818 8.857 4.45 23.294 3.877 30.257 3.877 6.61 0 14.745-1.304 21.24-4.114 4.708 1.698 8.921 3.102 11.414 4.139 10.708 4.452 31.547-5.954 39.456-16.41 7.906-10.455 7.906-14.255-26.686-21.662" fill="#A27E00"/>
        <path d="M183.464 152.586c-1.964-4.964-9.129-9.078-9.129-9.078 5.274 4.664 4.79 12.764-5.74 14.98-10.537 2.213-31.573 1.49-29.468-9.355 2.104-10.845 0-6.652 0-6.652-28.998 37.31-87.65 13.558-87.65 13.558 13.187 7.173 40.502 12.513 52.268 10.768 9.319-1.381 20.21-4.056 27.884-8.818 8.857 4.45 23.295 3.878 30.256 3.878 6.613 0 14.745-1.305 21.241-4.115 4.707 1.697 8.922 3.102 11.415 4.14 9.709 4.035 27.752-4.146 36.926-13.504-22.248 16.561-46.04 9.163-48.003 4.198" fill="#876C00"/>
        <path d="M134.783 128.336c-7.445-5.92-21.673-5.252-36.104-2.308v.002s22.207-3.322 31.56 2.993c9.356 6.314 7.262 1.403 11.232 0 3.97-1.404 8.847-4.561 22.895-.762-14.028-5.383-23.94-2.802-29.583.075" fill="#A27E00"/>
        <path d="M197.673 124.404s-15.403-.736-13.93 7.78c1.472 8.516.668 18.307 19.912 17.554 19.248-.753 38.342-6.663 30.51-15.084-7.83-8.419-28.293-9.623-36.492-10.25" fill="#876C00"/>
        <path d="M207.31 123.82c-16.029-3.431-26.403-1.452-32.941 1.656.689-.05 16.912-5.087 40.991 2.143 14.03 4.212 26.18 4.977 21.28 14.061 4.657-7.713.713-11.428-29.33-17.86" fill="#A27E00"/>
        <path d="M115.039 132.571c0 1.25-2.301 2.265-5.14 2.265-2.84 0-5.142-1.015-5.142-2.265 0-1.25 2.301-2.265 5.143-2.265 2.838 0 5.139 1.016 5.139 2.265" fill="#BC9030"/>
    </g>
</svg>
