<svg width="445" height="257" viewBox="0 0 445 257" xmlns="http://www.w3.org/2000/svg" xmlns:xlink="http://www.w3.org/1999/xlink">
    <defs>
        <path id="a" d="M0 0h9.066v22.44H0z"/>
        <path id="c" d="M0 0h12.799v7.57H0z"/>
    </defs>
    <g fill="none" fill-rule="evenodd">
        <path d="M442.673 60.354c-3.126-10.4-13.28-21.15-23.913-23.364-4.015-.836-3.31.736-7.737-2.11-8.24-5.297-13.3-4.385-15.305-4.586-1.866-.188-6.053-1.114-7.916-1.335l-18.88-2.237c-9.36-1.515-19.531-2.673-30.455-3.052-6.89-.401-13.784-.498-20.672-.053-9.054.585-20.525 2.12-29.36 4.182-.569.133-1.106.266-1.614.398-2.509.535-5.036 1.108-7.595 1.752-4.615 1.16-8.268-.816-13.532-2.15a.272.272 0 0 0-.022-.005c-1.155-.75-2.4-1.514-3.964-2.158-9.035-3.72-19.09-6.178-29.037-8.094-11.632-2.838-25.284-5.145-42.422-7.003a1697.871 1697.871 0 0 0-54.016-7.457C113.576.328 89.593-.886 67.415 5.466c-5.116 1.466-9.709 3.677-14.547 5.81-4.477 1.974-10.665 1.623-14.021 5.512-2.356 2.73-3.643 6.247-5.968 9.003-3.246 3.848-8.393 6.082-10.612 10.6-1.093 2.225-1.339 4.766-2.208 7.086-1.918 5.12-6.745 8.87-8.095 14.167-.764 3.001-.316 6.17-.633 9.25-.372 3.611-1.786 7.019-2.986 10.445-5.105 14.575-6.507 30.144-7.87 45.526-.414 4.679-.826 9.425.012 14.046.812 4.478 2.766 8.657 4.127 13 4.696 14.99 2.179 31.165 3.18 46.842.129 2.004.33 4.062 1.25 5.847.779 1.515 2.023 2.734 2.981 4.141 2.538 3.725 2.908 8.45 3.858 12.855 1.71 7.928 5.572 14.82 10.737 20.99 2.6 3.105 8.238 14.013 12.056 15.036 2.306.618 5.234-.544 8.125-2.28 9.985-2.463 19.268-5.286 23.791-14.686.704-1.464 1.314-3.317 2.114-5.109 2.675-2.166 5.391-4.345 8.149-6.461 1.303-.02 2.805.205 4.548.743 4.53 1.4 8.155-4.81 12.512-6.685l7.46-3.211c2.045-.88 4.09-1.761 6.164-2.57a98.2 98.2 0 0 1 35.292-6.71c3.301-.012 6.733.12 9.752-1.217 2.265-1.004 4.12-2.766 6.348-3.85.975-.473 1.98-.793 3.005-1.013 1.402-.124 2.799-.248 4.188-.375 3.98.058 8.142 1.033 12.156 1.251 6.189.337 12.477-1.768 17.788-5.272 5.215-1.076 10.353-2.42 15.429-4.156 8.95.023 18.412-3.716 26.105-9.099 6.414-4.488 12.859-9.753 15.513-17.118a36.6 36.6 0 0 0 .824-2.664c6.031-6.955 10.125-12.764 12.102-13.314l.209-.058c.925.019 1.854.088 2.765.161 9.044.727 18.117 3.202 27.134 2.18 26.67-3.022 51.945 3.513 72.894-10.15 4.79-3.125 9.515-7.12 15.228-7.38 2.236-.103 4.537.387 6.683-.248 4.605-1.362 6.231-6.896 9.253-10.629 5.45-6.732 16.01-7.84 20.937-14.964 1.398-2.02 2.218-4.376 3.344-6.56 2.384-4.62 6.098-8.404 8.994-12.723 6.048-9.02 8.318-20.701 5.191-31.101" fill="#7C1919"/>
        <path d="M438.924 52.31c-4.487 9.204-13.731 8.911-21.82 15.397-2.42 1.94-4.295 4.514-6.825 6.31-3.473 2.466-7.95 3.299-11.24 6.005-2.182 1.795-3.73 4.331-6.136 5.81-3.254 2.001-7.402 1.687-11.02 2.915-5.387 1.828-9.282 6.957-14.815 8.279-3.196.763-6.572.151-9.818.667-7.831 1.245-13.606 8.741-21.463 9.814-3.24.443-6.53-.267-9.796-.105-5.634.28-8.668 3.174-12.91 6.26-3.847 2.8-8.415 3.28-13.37 3.85-5.429.624-10.66-1.684-16.274-1.517-6.297.187-12.514 1.788-18.446 3.822-10.766 3.69-21.359 8.758-32.732 9.165-3.549.127-7.236-.186-10.524 1.156-3.981 1.625-6.962 5.53-11.214 6.17-4.036.609-7.818-1.922-11.816-2.745-5.486-1.128-11.061 1.007-16.257 3.103l-31.241 12.603c-3.197 1.29-6.427 2.597-9.246 4.581-6.103 4.295-9.905 11.486-16.475 15.025-6.304 3.397-13.936 2.797-20.904 4.452-11.186 2.657-20.277 11.028-31.34 14.156-9.407 2.66-19.444 1.318-29.053-.477-13.52-2.528-24.861-6.77-36.592-12.795.04 7.506-.28 15.08.198 22.542.128 2.004.33 4.062 1.249 5.847.779 1.515 2.11 5.911 3.068 7.318 2.537 3.726 2.821 5.272 3.771 9.678 1.71 7.928 5.572 14.82 10.737 20.99 2.6 3.105 8.238 14.013 12.056 15.036 1.233.33 2.645.148 4.133-.354.573-.512 1.145-.946 1.695-1.235.282-.147.57-.303.867-.469.592-.328 1.213-.69 1.86-1.081.324-.197.654-.4.99-.61 6.362-3.982 14.977-10.524 24.035-17.273.144-.351.294-.703.45-1.053 2.675-2.166 5.391-4.345 8.149-6.461.475-.008.98.022 1.511.083 11.175-8.047 22.022-15.11 29.24-16.891 33.056-8.157 62.055-6.544 89.01-12.214.006 0 .011-.002.016-.003 1.106-.233 2.208-.479 3.307-.738l.09-.02a132.855 132.855 0 0 0 5.432-1.404l.092-.027c.71-.2 1.42-.407 2.127-.622h.002c.566-.172 1.13-.348 1.694-.528l.112-.036c.534-.171 1.068-.348 1.6-.528l.205-.069c8.194-2.782 16.226-6.576 24.155-11.904 7.39-4.965 13.582-11.383 18.49-17.043l.001-.003c.54-.621 1.066-1.235 1.574-1.835l.157-.187c.274-.324.544-.645.809-.962l.065-.078c1.387-1.66 2.642-3.2 3.77-4.563l.153-.185.396-.475.275-.328a86.28 86.28 0 0 1 1.76-2.038c.375-.415.728-.79 1.057-1.119.144-.144.284-.282.418-.406.082-.077.158-.14.238-.21.08-.07.164-.149.24-.212.457-.377.85-.64 1.19-.715l.207-.058h.047c61.674-13.793 105.564-19.615 137.03-29.026 5.711-4.309 13.717-6.072 17.82-12.004 1.397-2.02 2.217-4.376 3.343-6.56 2.384-4.621 6.098-8.404 8.994-12.722 6.048-9.02 8.318-20.702 5.191-31.103a31.42 31.42 0 0 0-3.75-8.044" fill="#6D1818"/>
        <path d="M444.975 73.2c-.141-1.063-.415-1.57-.642-2.6-.222-1.005.432-2.55.1-3.415-.47-1.224-1.122-4.361-1.122-4.361s-.619.956-.774 1.07c-4.305 3.138-7.795 9.408-11.595 13.303a148.507 148.507 0 0 1-12.46 11.403c-4.155 3.385-8.587 6.388-12.825 9.659-4.542 3.506-8.577 3.35-13.455 5.737-2.38 1.165-4.014 3.437-6.196 4.938-3.69 2.537-8.558 2.644-12.514 4.742-3.426 1.818-6.14 5.107-9.938 5.896-3.197.665-6.478-.607-9.743-.515-5.929.165-10.792 4.678-16.476 6.37-4.845 1.44-10.128.778-14.965 2.244-3.846 1.165-7.238 3.627-11.16 4.505-4.005.896-8.17.061-12.275.094-2.58.02-5.144.386-7.698.75-7.408 1.058-14.044 4.721-21.123 5.688-3.22.44-6.43.96-9.616 1.602-11.006 2.217-21.52 6.223-31.972 10.23-4.665 1.79-8.78 2.625-13.483 3.86-4.508 1.183-8.412 4.008-12.923 5.217-5.072 1.36-10.619.662-15.476 2.656-3.428 1.408-6.215 4.045-9.55 5.659-3.574 1.73-7.6 2.208-11.484 3.03-9.96 2.104-19.242 6.552-28.849 9.916-5.972 2.09-12.348 3.144-18.21 5.387-4.761 1.824-8.776 5.246-13.543 6.993-4.757 1.742-9.643 3.217-13.77 6.27-2.923 2.165-5.52 4.805-8.724 6.53-2.851 1.534-6.108 2.3-8.76 4.154-9.18 6.416-16.332 17.935-22.554 26.968l-.237.105c.01.07.015.137.023.206-2.41 3.508-4.89 7.292-7.226 11.155-1.247 2.062-4.706 4.759-7.103 5.738.456.566 1.718 1.568 2.762 1.755 2.927.527 8.333-.249 12.082-2.41 2.344-1.352 5.567-2.218 8.088-3.203.895-.35 3.675-2.485 4.572-2.827 1.932-.735 1.129-1.765 3.015-2.612 1.374-.617 2.07-1.83 3.242-2.778 1.022-.827 1.533-2.12 2.358-3.144 2.264-2.813 6.845-3.603 8-7.023.218-.648.287-1.344.556-1.972.691-1.614 3.84-1.93 6.325-2.103a6.079 6.079 0 0 0 3.636-1.543c1.255-1.126 2.504-2.16 4.118-2.538 3.364-.788 4.092-2.706 7.227-4.156 3.019-1.398 6.203-2.4 9.376-3.398l14.812-4.658c2.017-.635 4.064-1.275 6.178-1.35 1.538-.056 3.092.19 4.61-.067 1.146-.193 2.227-.666 3.36-.933 1.682-.397 3.434-.331 5.163-.344a55.01 55.01 0 0 0 9.697-.936c1.148-.214 2.308-.473 3.326-1.046.742-.42 1.386-.993 2.115-1.432 2.056-1.237 4.662-1.156 7.045-1.437 3.807-.448 7.645-.897 11.467-.593 2.964.237 6.03.913 8.847-.037 1.49-.502 2.818-1.438 4.346-1.81 1.89-.46 4.09-.076 5.612-1.286.8-.635 1.144-1.086 1.935-1.708a5.728 5.728 0 0 1 3.078-1.194c3.21-.262 6.435-.945 9.66-1.035 1.356-.038 2.725-.037 4.049-.334 3.023-.676 5.855-3.154 8.764-3.306 1.801-.095 3.591-.415 5.207-1.215 2.311-1.143 4.499-2.562 6.666-3.97l5.155-3.35c2.894-1.88 5.808-3.777 8.29-6.174 1.808-1.747 3.364-3.738 4.831-5.78 2.652-3.687 5.657-8.618 7.752-12.64 1.924-2.482 3.8-5.109 5.538-7.851l.35-.05.054-.022c.04-.015.08-.047.12-.048 1.204-.055 2.39-.102 3.567-.146.34.137.708.268 1.114.386 2.435.71 7.298.97 9.55 1.288l2.65.331c4.816.576 9.665 1.32 14.523 1.12 2.205-.09 4.466-.368 6.58.264 1.007.302 1.951.803 2.977 1.03 1.774.395 3.608-.059 5.409-.295 6.174-.811 12.542.946 18.628-.373.66-.144 1.463-.33 2.236-.68 1.443-.656 3.052-.915 4.613-.637 4.61.821 8.967.036 13.518-1.934 2.588-1.12 5.036-2.692 7.816-3.16 2.351-.395 4.85.022 7.075-.837 3.947-1.522 6.078-5.657 9.979-7.296 1.513-.635 2.8-1.52 4.433-1.674a39.084 39.084 0 0 0 11.419-2.864c2.785-1.169 5.597-2.83 6.895-5.556.593-1.247.497-3.048 1.586-3.608 2.072-1.065 3.955-2.43 5.478-4.191a20.154 20.154 0 0 1 7.044-5.214c2.079-.922 4.512-1.655 5.59-3.656.278-.515.446-1.09.778-1.571.735-1.065 2.128-1.488 2.972-2.47.612-.71.877-1.646 1.225-2.518 1.973-4.952 6.802-8.236 9.216-12.988.774-1.524 1.3-3.2 2.375-4.529.579-.718 1.307-1.317 1.797-2.1.706-1.127.845-2.504 1.04-3.82a35.129 35.129 0 0 1 2.165-7.956c.385-.955.821-1.952.686-2.972" fill="#5B1616"/>
        <path d="M265.694 27.8c5.673 12.532 3.695 95.186-1.275 131.427 2.555-1.162 8.97-5.946 10.303-7.16 0 0-2.995-43.992-1.897-62.826 3.158-54.166 6.4-59.292 6.4-59.292-7.45-1.358-13.53-2.15-13.53-2.15" fill="#490F0F"/>
        <path d="M232.625 34.241c-3.526-1.241-6.839-3.11-9.514-5.72-1.182-1.154-2.724-1.984-4.303-2.518-2.455-.831-5.065-1.071-7.604-1.596-4.01-.828-7.832-2.364-11.743-3.576-6.814-2.114-6.382-1.923-13.516-2.028-2.38-.035-8.555-2.487-10.906-2.857-2.173-.342-7.688-.09-9.707-.644-2.804-.77-5.814-.487-8.534-1.622-1.545-.645-2.917-1.713-4.543-2.107-.903-.22-1.844-.22-2.773-.219-11.276.015-22.74.576-33.89-1.48-7.644-1.408-14.922 2.676-22.653 3.026-5.132.232-10.123-.598-15.115.986a95.573 95.573 0 0 0-12.923 5.177c-7.181 3.515-13.325 8.228-19.06 13.75-3.013 2.899-5.751 4.759-8.014 8.406-2.864 4.62-5.392 9.44-7.926 14.245-1.389 2.633-2.79 5.296-3.524 8.18-.856 3.364-.775 6.912-1.641 10.274-.722 2.801-2.079 5.388-3.185 8.061-2.579 6.226-3.776 12.822-4.257 19.548-.502 7.002-.228 14.145.068 21.155.125 2.964.257 5.968 1.155 8.794.95 2.984 2.723 5.667 3.552 8.685 1.07 3.893 1.172 7.534 3.708 10.675 1.184 1.465 2.325 3.292 3.995 4.163 8.167 4.253 10.949 5.926 19.934 7.937 2.593.58 10.26 1.764 12.848 1.163 2.172-.505 5.073-.925 7.073-1.911 11.732-5.793 26.33-3.303 37.89-9.43 5.716-3.03 10.269-7.973 16.087-10.798 3.966-1.926 8.359-2.787 12.449-4.43 5.833-2.343 10.904-6.21 16.356-9.338 10.652-6.11 22.652-9.344 34.579-12.347 5.247-1.321 13.96-2.714 19.354-3.144 3.671-.292 6.65-.953 10.392-2.715 4.766-2.243 11.28-2.267 16.517-3.069 10.61-1.623 18.168-9.965 21.984-19.566 2.08-5.233 3.158-10.856 3.355-16.476.115-3.265-1.662-6.076-2.278-9.19-.663-3.353.536-5.952-.647-9.197a31.792 31.792 0 0 0-1.683-3.817c-3.212-6.159-8.985-10.513-15.654-12.452-1.447-.421-2.874-1.003-4.374-1.517-.447-.153-.89-.306-1.329-.46M317.418 29.676c-3.953.122-7.905.346-11.854.571-3.14.18-6.358.375-9.233 1.647-2.199.973-3.951 2.548-5.936 3.856-1.77 1.167-5.074 1.976-6.495 3.251-3.494 3.135-3.469 11.351-4.67 15.688-1.154 4.16-2.316 8.518-1.41 12.738.456 2.118 1.424 4.138 1.534 6.301.195 3.843-2.322 7.312-2.803 11.129-.864 6.853 4.768 12.62 9.927 17.21 1.951 1.737 4.155 3.576 6.767 3.576 1.433 0 2.798-.566 4.118-1.122l14.776-6.229c2.322-.978 4.76-1.977 7.271-1.77 1.623.132 3.2.767 4.824.662 3.496-.229 5.84-3.658 9.018-5.134 3.426-1.592 7.472-.77 11.161-1.587 5.9-1.306 10.028-6.506 15.25-9.545 8.28-4.819 19.278-4.164 26.588-10.355 3.682-3.117 5.937-7.61 9.389-10.98 2.853-2.785 6.478-4.755 9.009-7.835 2.531-3.08 3.602-8.02.832-10.887-1.514-1.567-3.771-2.115-5.905-2.554-9.915-2.04-19.98-3.256-30.029-4.47l-13.146-1.587c-10.63-1.284-21.285-2.569-31.992-2.662-2.33-.02-4.661.016-6.991.088" fill="#8C211C"/>
        <path d="M130.855 25.443c-1.474-.597-2.96-1.164-4.482-1.614-5.658-1.671-11.654-1.682-17.554-1.68-4.976 0-9.987.006-14.876.93-5.771 1.09-11.219 3.43-16.613 5.754-1.034.447-2.071.894-3.102 1.352a77.614 77.614 0 0 0-8.667 3.974 70.193 70.193 0 0 0-4.472 2.614c-2.707 1.72-5.494 3.32-8.444 4.58-1.944.83-3.781 1.814-5.3 3.282-3.292 3.184-5.694 12.291-6.386 13.76l-.247.281c-.91 2.238-3.318 9.714-2.861 11.35-.108 1.91.003 3.768.332 5.547-.062 1.518-.056 3.016.493 4.415.56 1.43 1.561 2.487 2.767 3.379 1.954 2.741 4.701 5.045 8.265 6.73a9.49 9.49 0 0 1 2.747 1.952l.098.097c.873.842 2.059 1.29 3.249 1.526 3.909.778 7.767-.488 11.661-1.62 2.956-.331 6.126-.87 9.413-1.58 2.968-.144 5.928-.274 8.547-1.595.153-.077.303-.158.45-.242a16.56 16.56 0 0 1 3.187-1.423 148.53 148.53 0 0 0 5.837-1.985c3.933-1.428 8.07-2.17 12.25-2.367a14.696 14.696 0 0 0 2.963-.42c6.013-1.54 9.777-7.391 14.95-10.823 2.939-1.95 6.318-3.1 9.552-4.505 8.877-3.856 16.737-9.674 24.509-15.442 1.63-1.21 3.327-2.542 4.728-4.049 10.62-9.256 7.585-17.452-32.994-22.178M299.57 38.35c1.24-.462 2.522-.826 3.771-1.265 1.194-.42 2.411-.845 3.676-.884.924-.028 3.352.146 4.275.075 5.118-.399 6.183-1.497 11.94-.782 2.184.271 7.506.692 11.867 2.44.657.263 1.807 1.04 2.371 1.468.837.634 2.613.904 3.244 3.443.465 1.87-.186 3.893-1.357 5.4a6.638 6.638 0 0 1-2.215 1.851c-1.054.535-7.065 3.695-7.71 4.277-4.738 4.281-7.777 3.714-8.198 4.01-.473.334-15.853 3.591-23.106 3.385-1.088-.032-2.19-.09-3.228-.42-1.092-.345-5.38-2.462-6.387-3.18-3.156-2.248-3.737-6.977-2.14-10.508 1.594-3.531 4.862-6.024 8.267-7.873-.014-.064-.023-.038.038-.06.726-.277 4.145-1.098 4.892-1.377" fill="#A33328"/>
        <path d="M29.912 83.405s-4.02 4.42-4.02 10.048c0 5.627 3.216 6.029 4.02 4.019.804-2.01 4.823-10.048 5.225-14.067.402-4.02-5.225 0-5.225 0M109.51 114.97c-2.706 2.597-7.665.578-9.938 3.454-4.036 5.109-2.726 8.757-1.098 9.956 5.282 3.888 24.26-7.932 22.026-14.123-1.19-3.302-8.15-2.014-10.99.713" fill="#BA583E"/>
        <g transform="translate(0 93.492)">
            <mask id="b" fill="#fff">
                <use xlink:href="#a"/>
            </mask>
            <path d="M4.3.535A9.037 9.037 0 0 0 0 8.218c-.014 5.87 1.165 10.647 4.3 13.469 4.019 3.617 5.2-6.607 4.632-13.623-.268-3.304-.613-9.997-4.633-7.53" fill="#B24C2D" mask="url(#b)"/>
        </g>
        <path d="M207.755 14.227c-.884-1.517-2.733-2.678-4.879-3.072-4.02-.74-7.397-.755-9.61.435-2.838 1.526 4.06 3.381 8.916 3.977 2.288.28 6.903.945 5.573-1.34M145.264 5.787c-.884-1.518-2.733-2.679-4.879-3.073-4.02-.74-7.398-.754-9.61.435-2.839 1.527 4.06 3.382 8.916 3.978 2.287.28 6.903.945 5.573-1.34M73.219 5.8c-1.394-1.068-3.545-1.44-5.68-.991-4 .842-7.131 2.109-8.727 4.05-2.047 2.489 5.04 1.588 9.759.296 2.223-.608 6.746-1.745 4.648-3.354" fill="#B24C2D"/>
        <path d="M88.396 69.545c-2.449-.377-5.033.582-6.83 2.522-3.367 3.636-5.433 7.214-5.274 10.6.206 4.341 11.171 2.661 14.864-1.987 1.74-2.19.926-10.569-2.76-11.135M64.943 77.282a9.386 9.386 0 0 0-9.373 1.051c-.833.62-1.761 1.35-2.866 2.18-4.606 3.464-5.577 5.505-3.418 6.962 4.23 2.858 20.897-5.69 15.716-10.147-.013-.011-.019-.028-.034-.035l-.025-.011z" fill="#CE7C5F"/>
        <path d="M143.8 16.24c2.791-.567 5.835.303 7.905 2.26.546.517 1.045 1.14 1.175 1.882.382 2.169-2.29 3.47-4.426 4.005-2.467.619-5.04 1.24-7.527.706-2.486-.534-4.843-2.6-4.81-5.144.036-2.682 3.187-4.805 5.686-3.83" fill="#BA583E"/>
        <path d="M191.885 46.368c2.792-.567 5.836.302 7.905 2.26.547.517 1.045 1.14 1.175 1.882.382 2.168-2.29 3.47-4.426 4.004-2.467.62-5.04 1.24-7.526.707-2.487-.534-4.843-2.6-4.81-5.144.035-2.683 3.186-4.806 5.685-3.831M168.107 111.43c-4.986-1.746-6.45-6.839-3.232-10.346 3.065-3.341 7.276-5.53 10.187-2.66 5.13 5.062 2.44 15.788-6.447 13.17a11.504 11.504 0 0 1-.508-.165" fill="#A84429"/>
        <path d="M148.245 94.752c-4.986-2.184-6.45-8.557-3.232-12.946 3.066-4.18 7.277-6.92 10.187-3.327 5.13 6.334 2.44 19.757-6.446 16.478a8.983 8.983 0 0 1-.51-.205M75.955 133.022c-4.93-2.065-6.52-8.345-3.375-12.666 3.3-4.53 8.039-7.787 10.334-3.616 3.014 5.478-.835 18.433-6.447 16.478a8.879 8.879 0 0 1-.512-.196M80.181 146.245c-.024-5.346 5.136-9.26 10.343-8.05 5.458 1.268 10.307 4.36 7.364 8.1-3.867 4.914-17.297 6.428-17.687.499a8.464 8.464 0 0 1-.02-.549" fill="#BA583E"/>
        <path d="M244.68 88.943c-2.837-3.559-1.551-8.287 2.47-9.612 4.217-1.39 9-1.311 9.062 2.392.081 4.866-7.845 11.378-11.23 7.579a9.623 9.623 0 0 1-.302-.359" fill="#A84429"/>
        <path d="M118.253 101.231c-4.53-1.85-5.992-7.48-3.1-11.355 3.03-4.061 7.386-6.982 9.495-3.242 2.77 4.912-.768 16.526-5.924 14.774a9.154 9.154 0 0 1-.47-.177M23.233 122.917c-4.931-2.064-6.521-8.343-3.375-12.665 3.299-4.53 8.038-7.787 10.333-3.617 3.014 5.48-.834 18.434-6.446 16.478a8.522 8.522 0 0 1-.512-.196" fill="#BA583E"/>
        <path d="M10.887 154.662c-4.53-1.85-5.992-7.48-3.1-11.355 3.03-4.062 7.386-6.982 9.495-3.243 2.77 4.913-.767 16.528-5.924 14.774a8.366 8.366 0 0 1-.47-.176" fill="#B24C2D"/>
        <path d="M24.385 211.755c-4.93-1.855-6.521-7.496-3.375-11.379 3.299-4.07 8.039-6.998 10.333-3.25 3.015 4.923-.835 16.563-6.446 14.806a9.714 9.714 0 0 1-.512-.177M36.433 239.95c-4.931-1.856-6.521-7.497-3.375-11.38 3.299-4.07 8.038-6.997 10.333-3.25 3.015 4.923-.835 16.564-6.446 14.806a9.714 9.714 0 0 1-.512-.176M101.127 183.29c-.316-4.457 4.011-8.308 8.662-7.887 4.875.44 9.315 2.47 6.93 5.925-3.135 4.538-14.874 7.32-15.545 2.417a7.185 7.185 0 0 1-.047-.455M277.808 132.436c-3.27-4.225-1.853-9.119 2.717-9.97 4.792-.891 10.244-.127 10.353 3.859.142 5.235-8.826 11.1-12.722 6.539a10.75 10.75 0 0 1-.348-.428" fill="#A54737"/>
        <path d="M416.833 78.92c-3.63-4.805-1.909-10.487 3.313-11.57 5.476-1.136 11.667-.374 11.702 4.225.047 6.042-10.294 13.012-14.63 7.832a12.542 12.542 0 0 1-.385-.486" fill="#912F1C"/>
        <path d="M176.145 196.777c-2.266-3.851-.104-9.224 4.247-10.917 4.563-1.775 9.443-1.932 8.843 2.223-.788 5.458-10.064 13.173-12.846 9.08a6.943 6.943 0 0 1-.244-.386M237.44 170.163c-2.265-3.85-.103-9.224 4.248-10.917 4.563-1.775 9.443-1.932 8.843 2.223-.788 5.458-10.064 13.174-12.846 9.08a6.943 6.943 0 0 1-.244-.386M408.792 109.991c-2.266-3.85-.104-9.224 4.248-10.917 4.562-1.775 9.442-1.931 8.842 2.224-.788 5.458-10.063 13.173-12.845 9.08a7.155 7.155 0 0 1-.245-.387" fill="#7C200E"/>
        <path d="M329.087 139.17c-.28-4.46 4.077-8.276 8.724-7.819 4.872.479 9.295 2.545 6.883 5.98-3.17 4.512-14.931 7.202-15.563 2.294a6.84 6.84 0 0 1-.044-.455" fill="#8E443C"/>
        <path d="M176.434 158.66c-3.197-4.284-1.375-10.5 3.531-12.622 5.144-2.225 10.881-2.621 10.738 2.137-.19 6.251-10.09 15.45-13.928 10.914a8.997 8.997 0 0 1-.341-.429M221.225 148.532c-3.197-4.284-1.375-10.5 3.531-12.623 5.144-2.224 10.881-2.62 10.738 2.138-.19 6.25-10.09 15.45-13.928 10.914a8.996 8.996 0 0 1-.341-.43" fill="#912F1C"/>
        <path d="M310.029 129.16c-2.98-3.442-1.938-7.946 1.976-9.159 4.103-1.272 8.838-1.133 9.08 2.41.316 4.653-7.208 10.774-10.74 7.096a9.036 9.036 0 0 1-.316-.347" fill="#A54737"/>
        <path d="M333.593 118.045c-1.287-4.366 1.526-8.035 5.59-7.52 4.262.542 8.515 2.628 7.268 5.953-1.638 4.368-11.022 6.824-12.714 2.014-.053-.15-.1-.3-.144-.447" fill="#912F1C"/>
        <path d="M232.111 49.544c-.54 2.73-4.267 4.292-8.322 3.488-4.056-.803-6.905-3.667-6.364-6.398.541-2.73 4.267-4.292 8.323-3.489 4.055.804 6.904 3.669 6.363 6.399M208.75 98.6c2.366 3.027.782 8.219-3.538 11.595-4.32 3.375-9.74 3.657-12.106.629-2.367-3.029-.783-8.22 3.537-11.596 4.32-3.375 9.741-3.657 12.107-.629M148.514 121.89c2.207 2.825.918 7.52-2.88 10.487-3.798 2.968-8.665 3.083-10.873.258-2.206-2.824-.917-7.52 2.88-10.487 3.798-2.967 8.665-3.083 10.873-.258" fill="#A84429"/>
        <path d="M154.394 40.991c.815 3.215-2.171 6.746-6.67 7.888-4.5 1.14-8.808-.54-9.623-3.754-.815-3.215 2.17-6.746 6.67-7.887 4.5-1.141 8.808.539 9.623 3.753M96.923 31.285c2.125 2.72 1.006 7.145-2.5 9.884-3.504 2.74-8.07 2.755-10.195.035-2.125-2.72-1.006-7.145 2.5-9.885 3.505-2.739 8.07-2.754 10.195-.034M74.935 60.21c1.899 2.43.635 6.59-2.823 9.291-3.458 2.702-7.8 2.922-9.699.492s-.635-6.59 2.823-9.291c3.457-2.703 7.8-2.923 9.699-.493M51.045 69.16c2.07 1.794 1.85 5.439-.493 8.14-2.342 2.701-5.918 3.436-7.988 1.641-2.07-1.794-1.85-5.44.493-8.14 2.342-2.701 5.919-3.436 7.988-1.641M120.15 26.26c2.069 1.793 1.848 5.439-.494 8.14-2.342 2.7-5.919 3.435-7.988 1.64-2.07-1.793-1.85-5.438.493-8.14 2.341-2.7 5.919-3.435 7.988-1.64M119.325 66.159c1.323 3.068-1.034 7.036-5.265 8.861-4.232 1.825-8.735.818-10.059-2.251-1.323-3.069 1.034-7.036 5.265-8.862 4.232-1.825 8.735-.816 10.059 2.252M126.839 43.243c1.558 3.612-1.18 8.266-6.116 10.395-4.936 2.129-10.2.927-11.759-2.685-1.557-3.612 1.181-8.266 6.117-10.395 4.936-2.129 10.2-.927 11.758 2.685" fill="#CE7C5F"/>
        <path d="M56.171 116.35c2.028 2.596.802 6.943-2.74 9.71-3.54 2.767-8.055 2.906-10.084.31-2.028-2.595-.801-6.942 2.74-9.709 3.541-2.766 8.056-2.906 10.084-.31M69.776 149.154c2.09 2.675.852 7.136-2.768 9.965-3.62 2.828-8.248 2.952-10.339.276-2.09-2.676-.851-7.137 2.768-9.965 3.62-2.828 8.248-2.952 10.339-.276" fill="#BA583E"/>
        <path d="M49.525 177.875c0 3.663-3.566 6.633-7.964 6.633-4.399 0-7.965-2.97-7.965-6.633s3.566-6.633 7.965-6.633c4.398 0 7.964 2.97 7.964 6.633M124.84 155.47c1.645 2.104.486 5.759-2.588 8.161-3.074 2.403-6.9 2.644-8.546.538-1.645-2.105-.486-5.76 2.588-8.162 3.075-2.402 6.9-2.643 8.546-.538M86.322 167.629a7.065 7.065 0 1 1-11.134 8.7 7.065 7.065 0 0 1 11.134-8.7M171.022 129.478c2.149 2.75.808 7.386-2.993 10.356-3.8 2.97-8.623 3.149-10.771.4-2.149-2.749-.808-7.385 2.993-10.355 3.8-2.97 8.623-3.15 10.771-.4M171.37 8.587c-.113 2.082-3.069 3.614-6.6 3.421-3.533-.192-6.305-2.035-6.192-4.117.114-2.082 3.07-3.614 6.602-3.422 3.532.194 6.304 2.037 6.19 4.118M317.639 25.812c-.114 2.082-3.07 3.614-6.602 3.42-3.532-.192-6.304-2.035-6.19-4.116.113-2.083 3.069-3.614 6.6-3.422 3.533.193 6.305 2.036 6.192 4.118M363.986 27.757c-.113 2.082-3.069 3.614-6.601 3.42-3.532-.191-6.304-2.035-6.19-4.116.113-2.082 3.068-3.614 6.6-3.422 3.533.193 6.304 2.037 6.191 4.118M406.402 33.24c-.114 2.08-3.07 3.613-6.601 3.42-3.533-.193-6.304-2.036-6.191-4.117.113-2.083 3.069-3.614 6.601-3.422 3.532.193 6.304 2.037 6.19 4.118" fill="#B24C2D"/>
        <g transform="translate(89.074)">
            <mask id="d" fill="#fff">
                <use xlink:href="#c"/>
            </mask>
            <path d="M12.795 4.134c-.113 2.082-3.069 3.614-6.601 3.42C2.661 7.362-.11 5.52.004 3.438.116 1.355 3.071-.176 6.603.016c3.533.193 6.305 2.036 6.191 4.118" fill="#B24C2D" mask="url(#d)"/>
        </g>
        <path d="M23.443 51.018c2.8 2.08 2.74 6.906-.136 10.779-2.877 3.872-7.478 5.325-10.28 3.245-2.8-2.08-2.739-6.905.137-10.779 2.876-3.872 7.478-5.325 10.279-3.245M43.07 19.227c2.333 1.347 2.81 4.889 1.065 7.91-1.745 3.023-5.05 4.381-7.384 3.034-2.332-1.347-2.809-4.888-1.064-7.91 1.745-3.023 5.05-4.38 7.383-3.034" fill="#B24C2D"/>
        <path d="M214.683 117.935c2.149 2.749.808 7.385-2.993 10.355-3.8 2.97-8.623 3.15-10.772.4-2.148-2.748-.807-7.385 2.993-10.355 3.802-2.97 8.624-3.15 10.772-.4" fill="#9E3A1B"/>
        <path d="M288.285 111.115c.187 2.369-2.7 4.53-6.45 4.826-3.75.296-6.94-1.385-7.128-3.753-.187-2.37 2.7-4.53 6.45-4.826 3.75-.297 6.94 1.384 7.128 3.753M262.862 32.354c.187 2.37-2.7 4.53-6.45 4.826-3.75.297-6.94-1.384-7.127-3.753-.188-2.369 2.7-4.53 6.45-4.825 3.748-.297 6.94 1.383 7.127 3.752M329.977 102.137c.187 2.369-2.7 4.53-6.45 4.826-3.75.296-6.94-1.384-7.128-3.753-.187-2.37 2.701-4.53 6.45-4.826 3.75-.297 6.94 1.384 7.128 3.753" fill="#B24C2D"/>
        <path d="M364.379 91.749c.187 2.369-2.7 4.53-6.45 4.826-3.75.296-6.94-1.384-7.128-3.753-.187-2.37 2.7-4.53 6.45-4.826 3.75-.297 6.94 1.384 7.128 3.753M247.85 111.535c3.031 3.878.855 7.435-3.023 10.465-3.879 3.03-7.99 4.387-11.02.509-3.031-3.879.308-8.51 4.187-11.54 3.878-3.03 6.826-3.313 9.857.566" fill="#9E3A1B"/>
        <path d="M241.309 25.9c-1.773 4.592-5.943 4.55-10.534 2.777-4.592-1.774-7.866-4.606-6.093-9.197 1.773-4.591 7.463-4.102 12.054-2.33 4.591 1.773 6.346 4.16 4.573 8.75" fill="#B24C2D"/>
        <path d="M304.347 93.802c1.182 2.74-1.261 6.43-5.458 8.24-4.196 1.81-8.556 1.055-9.738-1.686-1.182-2.74 1.261-6.43 5.457-8.239 4.197-1.81 8.557-1.056 9.739 1.685M340.964 83.768c.505 2.393-1.389 4.82-4.232 5.421s-5.558-.851-6.064-3.244c-.506-2.393 1.389-4.821 4.232-5.422s5.558.852 6.064 3.245M356.696 44.646c.952 2.837-1.427 6.194-5.315 7.5-3.887 1.305-7.81.063-8.763-2.774-.952-2.836 1.427-6.194 5.315-7.499 3.887-1.305 7.81-.063 8.763 2.773" fill="#BA583E"/>
        <path d="M98.925 207.539c1.843 2.358.717 6.316-2.515 8.841-3.23 2.525-7.343 2.66-9.186.302-1.842-2.358-.717-6.316 2.515-8.84 3.23-2.525 7.344-2.66 9.186-.303M70.482 226.46c1.33 1.704-.21 5.131-3.441 7.656-3.232 2.524-6.93 3.19-8.26 1.488-1.331-1.703.21-5.13 3.44-7.655 3.232-2.525 6.93-3.191 8.26-1.488M123.752 194.823c1.842 2.358.717 6.316-2.515 8.84-3.23 2.525-7.344 2.66-9.186.303-1.842-2.358-.716-6.316 2.515-8.84 3.231-2.525 7.344-2.66 9.186-.303" fill="#8E443C"/>
        <path d="M221.086 165.692c1.842 2.358.716 6.316-2.515 8.841-3.231 2.525-7.344 2.66-9.186.302-1.842-2.358-.717-6.316 2.515-8.84 3.23-2.525 7.344-2.66 9.186-.303" fill="#7C200E"/>
        <path d="M312.68 140.302c1.842 2.357.716 6.316-2.516 8.84-3.23 2.525-7.343 2.66-9.186.303-1.842-2.358-.717-6.316 2.515-8.841 3.23-2.525 7.344-2.66 9.186-.302" fill="#8E443C"/>
        <path d="M381.7 122.121c1.843 2.358.717 6.317-2.514 8.841-3.232 2.525-7.344 2.66-9.187.302-1.842-2.357-.717-6.315 2.515-8.84 3.23-2.525 7.344-2.66 9.186-.303M156.395 188.03c1.842 2.358.716 6.316-2.515 8.841-3.231 2.525-7.344 2.66-9.186.303-1.843-2.359-.717-6.317 2.514-8.841 3.231-2.525 7.345-2.66 9.187-.303" fill="#7C200E"/>
        <path d="M403.958 69.505c2.01 2.573.9 6.799-2.481 9.44-3.38 2.641-7.75 2.697-9.76.126-2.01-2.573-.899-6.799 2.482-9.44 3.38-2.642 7.75-2.697 9.759-.126M428.911 45.613c1.595 2.04.41 5.632-2.646 8.02-3.057 2.388-6.827 2.67-8.422.629-1.595-2.041-.41-5.632 2.647-8.02s6.827-2.67 8.421-.629" fill="#9E3A1B"/>
        <path d="M389.52 95.982c1.596 2.041.09 5.883-3.362 8.581-3.452 2.698-7.544 3.23-9.139 1.188-1.596-2.041-.09-5.884 3.362-8.581 3.452-2.698 7.545-3.23 9.14-1.188" fill="#912F1C"/>
        <path d="M67.583 201.875c2.409 3.082.913 8.275-3.34 11.598-4.252 3.322-9.652 3.518-12.06.436-2.409-3.082-.913-8.275 3.34-11.598 4.252-3.323 9.652-3.518 12.06-.436" fill="#A54737"/>
        <path d="M67.33 42.514c2.29 2.93.771 7.942-3.391 11.194-4.162 3.253-9.393 3.514-11.682.583-2.29-2.93-.772-7.942 3.39-11.194 4.163-3.253 9.393-3.514 11.683-.583M97.587 50.906c2.492 3.19 1.381 8.223-2.482 11.24-3.863 3.02-9.015 2.881-11.506-.308-2.493-3.19-1.381-8.222 2.481-11.24 3.863-3.02 9.015-2.88 11.507.308" fill="#CE7C5F"/>
        <path d="M191.962 30.544c.261 3.302-2.959 6.25-7.192 6.584-4.233.334-7.877-2.07-8.138-5.372-.26-3.302 2.96-6.25 7.193-6.584 4.233-.334 7.876 2.071 8.137 5.372M117.994 17.786c-.33 2.065-3.125 3.336-6.244 2.837-3.118-.497-5.378-2.576-5.047-4.641.33-2.065 3.125-3.336 6.243-2.838 3.118.498 5.378 2.577 5.048 4.642M67.514 27.963c.84 2.833-1.814 6.12-5.93 7.343-4.118 1.222-8.137-.083-8.978-2.916-.841-2.834 1.814-6.121 5.93-7.344 4.117-1.222 8.137.084 8.978 2.917" fill="#BA583E"/>
        <path d="M197.682 76.025c.261 3.302-2.96 6.25-7.192 6.584-4.234.334-7.877-2.07-8.138-5.372-.26-3.302 2.96-6.25 7.193-6.584 4.233-.334 7.876 2.07 8.137 5.372" fill="#A84429"/>
        <path d="M168.946 59.197c.202 2.562-2.402 4.857-5.816 5.128-3.414.27-6.347-1.589-6.55-4.15-.201-2.563 2.402-4.859 5.817-5.128 3.414-.27 6.346 1.588 6.549 4.15M147.391 105.154c.203 2.562-2.401 4.858-5.815 5.128-3.415.27-6.347-1.589-6.55-4.15-.202-2.563 2.402-4.858 5.816-5.128 3.415-.27 6.347 1.588 6.55 4.15" fill="#BA583E"/>
        <path d="M215.456 60.19c.202 2.561-2.402 4.857-5.816 5.127-3.415.27-6.347-1.589-6.55-4.15-.202-2.562 2.402-4.858 5.817-5.128 3.414-.27 6.346 1.588 6.549 4.15" fill="#A84429"/>
        <path d="M324.787 76.325c.202 2.562-2.402 4.858-5.816 5.128-3.414.27-6.347-1.588-6.55-4.15-.201-2.563 2.402-4.858 5.817-5.128 3.414-.27 6.346 1.589 6.549 4.15M98.128 98.632c.261 3.302-2.959 6.25-7.192 6.584-4.233.334-7.876-2.07-8.138-5.372-.26-3.302 2.96-6.25 7.193-6.584 4.233-.334 7.876 2.07 8.137 5.372M47.578 142.15c.261 3.301-2.96 6.249-7.192 6.583-4.234.334-7.877-2.07-8.138-5.372-.26-3.301 2.959-6.249 7.193-6.584 4.233-.334 7.876 2.071 8.137 5.373" fill="#BA583E"/>
        <path d="M236.556 95.469c.261 3.301-2.96 6.249-7.192 6.583-4.234.334-7.877-2.07-8.137-5.371-.262-3.302 2.959-6.25 7.192-6.584 4.233-.335 7.876 2.07 8.137 5.372M233.467 72.176c.26 3.301-2.96 6.249-7.193 6.583-4.233.335-7.877-2.07-8.137-5.371-.261-3.302 2.959-6.25 7.192-6.584 4.233-.334 7.876 2.07 8.138 5.372" fill="#A84429"/>
        <path d="M299.813 77.466c.227 2.87-2.46 5.422-6.003 5.702-3.54.28-6.595-1.82-6.822-4.688-.227-2.869 2.46-5.422 6.001-5.701 3.542-.28 6.597 1.818 6.824 4.687M345.5 62.248c.228 2.891-2.849 5.493-6.873 5.811-4.024.318-7.472-1.768-7.7-4.659-.228-2.891 2.848-5.493 6.873-5.811 4.024-.318 7.47 1.768 7.7 4.66" fill="#BA583E"/>
        <path d="M378.208 58.94c.261 3.301-2.96 6.249-7.192 6.583-4.234.334-7.877-2.07-8.138-5.372-.26-3.301 2.96-6.249 7.193-6.584 4.233-.334 7.876 2.07 8.137 5.373M405.503 47.361c.26 3.302-2.96 6.25-7.193 6.584-4.233.334-7.876-2.07-8.137-5.372-.261-3.301 2.96-6.249 7.192-6.584 4.234-.334 7.877 2.07 8.138 5.372" fill="#A84429"/>
        <path d="M376.677 42.595c.21 2.664-2.688 5.066-6.473 5.364-3.785.3-7.024-1.617-7.235-4.281-.21-2.664 2.687-5.066 6.473-5.365 3.785-.3 7.024 1.618 7.235 4.282" fill="#BA583E"/>
        <path d="M365.255 75.418c.261 3.301-2.96 6.249-7.192 6.583-4.234.334-7.877-2.07-8.138-5.371-.26-3.302 2.96-6.25 7.193-6.584 4.233-.335 7.876 2.07 8.137 5.372" fill="#A84429"/>
        <path d="M329.128 42.667c.179 2.253-2.337 4.29-5.617 4.548-3.28.26-6.085-1.356-6.263-3.61-.178-2.252 2.337-4.289 5.618-4.548 3.28-.26 6.084 1.357 6.262 3.61M309.144 50.093c.23 2.919-2.819 5.54-6.812 5.856-3.992.316-7.416-1.795-7.647-4.714-.23-2.918 2.819-5.54 6.812-5.856 3.992-.316 7.416 1.795 7.647 4.714" fill="#CE7C5F"/>
        <path d="M146.803 173.653c-2.266-3.85-.104-9.224 4.248-10.917 4.562-1.775 9.442-1.931 8.842 2.223-.788 5.459-10.063 13.174-12.845 9.081a7.156 7.156 0 0 1-.245-.387" fill="#912F1C"/>
    </g>
</svg>
