<svg width="445" height="260" viewBox="0 0 445 260" xmlns="http://www.w3.org/2000/svg" xmlns:xlink="http://www.w3.org/1999/xlink">
    <defs>
        <path id="a" d="M0 0h444.689v259.151H0z"/>
        <path id="c" d="M0 0h441.608v205.936H0z"/>
        <path id="e" d="M0 0h412.52v195.608H0z"/>
    </defs>
    <g fill="none" fill-rule="evenodd">
        <g>
            <mask id="b" fill="#fff">
                <use xlink:href="#a"/>
            </mask>
            <path d="M108.314 212.782c-20.373 5.028-69.085 51.314-74.793 45.935C2.618 229.601-9.76 120.787 8.544 64.131 34.924-17.53 97.314-1.711 178.28 8.16c28.128 3.43 46.903 10.103 80.741 17.014.943.192 2.753.688 5.01 1.261 5.364 1.36 13.257 3.15 18.034 2.316 57.712-10.068 93.568-.981 118.017 3.435 47.645 8.606 51.804 34.958 37.078 43.048-95.708 52.581-65.953 49.743-167.347 77.964-3.655 1.017-14.395 19.666-31.184 30.947-38.765 26.047-79.914 16.2-130.314 28.636" fill="#96130C" mask="url(#b)"/>
        </g>
        <g transform="translate(3.366 53.215)">
            <mask id="d" fill="#fff">
                <use xlink:href="#c"/>
            </mask>
            <path d="M431.867 37.461C442.817 25.718 443.93 8.905 438.214 0c-2.566 7.31-21.014 18.243-27.19 22.015-12.055 7.362-28.546 16.621-80.195 34.279-47.656 16.292-62.614 6.704-62.614 6.704-37.16 19.465-65.077 19.586-89.947 22.073-24.87 2.486-48.655 24.443-106.644 47.609-34.608 13.825-59.09.564-71.624-8.236.154 1.088.313 2.172.477 3.253l.017.11c.16 1.053.326 2.101.495 3.145l.031.194a307.248 307.248 0 0 0 1.095 6.294l.053.284c.183.983.37 1.963.562 2.936l.057.287c.192.973.388 1.941.59 2.903.018.093.038.185.057.278.203.966.41 1.929.622 2.884l.05.228a268.026 268.026 0 0 0 .69 3.024c1.674 7.129 3.59 13.907 5.736 20.19l.002.007c.253.741.511 1.47.77 2.198.067.184.131.373.198.557.229.634.462 1.257.696 1.88.101.27.202.544.304.813.216.565.436 1.121.656 1.677.124.314.248.631.373.942.21.517.422 1.026.634 1.535.142.338.282.678.426 1.013.205.48.412.95.62 1.422.156.35.311.702.468 1.048.203.448.408.889.614 1.328a98.33 98.33 0 0 0 1.651 3.376 103.55 103.55 0 0 0 1.177 2.227c.201.37.404.737.607 1.099a90.051 90.051 0 0 0 1.206 2.073c.207.345.417.683.627 1.02.202.324.403.648.607.964.218.338.439.669.66.998.2.3.4.602.603.894.229.332.46.652.692.974.199.276.397.556.599.825.242.325.487.637.733.952.194.25.388.505.584.748.262.323.527.633.792.944.184.218.367.442.554.654.297.338.598.66.899.982.158.17.314.347.473.513.451.469.907.921 1.367 1.355l.03.03c.981.925 3.233.323 6.393-1.333.287-.151.582-.31.884-.478a58.012 58.012 0 0 0 1.896-1.104c.33-.2.667-.406 1.01-.62 16.803-10.517 49.013-38.551 64.61-42.4 33.7-8.316 63.264-6.67 90.745-12.453 2.29-.482 4.567-1.017 6.83-1.612a123.97 123.97 0 0 0 4.436-1.254c9.633-2.92 19.037-7.091 28.304-13.318 12.55-8.432 21.718-20.98 27.076-27.204l.147-.17c.519-.599.998-1.13 1.442-1.596.287-.3.563-.58.818-.817.17-.157.332-.3.487-.429.467-.385.867-.653 1.214-.73 97.815-21.896 137.63-32.718 165.42-62.523" fill="#890A07" mask="url(#d)"/>
        </g>
        <g transform="translate(32.48 63.54)">
            <mask id="f" fill="#fff">
                <use xlink:href="#e"/>
            </mask>
            <path d="M237.408 76.289c-31.369 4.286-36.431 12.778-97.774 30.832-49.61 14.6-92.895 31.399-111.354 50.75.002.002-11.992 14.59-21.605 30.482-1.271 2.102-4.232 4.794-6.675 5.792.345.351.69.703 1.041 1.033.105.1.23.175.364.24.02.01.04.016.06.024l.055.02c.11.044.228.078.356.101l.053.01.067.01c.167.02.344.03.537.02h.005c.214-.01.444-.04.689-.088h.005c13.24-2.77 53.627-41.599 72.07-46.15.308-.076.614-.145.921-.216l.42-.101.429-.103.233-.056c.052-.023.104-.046.142-.055.045-.005.088-.008.133-.011l.007-.002.01-.002c1.222-.29 2.439-.568 3.65-.834l.007-.001.05-.011.007-.001c11.8-2.584 23.094-4.035 33.973-5.125l.07-.007a886.641 886.641 0 0 1 10.586-.986l4.717-.416 1.877-.166.583-.052a1249.197 1249.197 0 0 0 3.38-.307c2.056-.19 4.1-.387 6.13-.596l.146-.015a419.8 419.8 0 0 0 3.096-.33l.006-.002.08-.01c2.063-.229 4.112-.475 6.149-.744l.077-.01.081-.011a226.996 226.996 0 0 0 6.191-.905c2.033-.328 4.053-.686 6.062-1.08l.009-.002c.002 0 .004 0 .006-.002 1.005-.197 2.006-.404 3.006-.62l.043-.01.032-.008c1.977-.43 3.944-.901 5.9-1.417l.163-.043.016-.005c1.93-.512 5.912-1.727 5.954-1.74.963-.31 9.514-2.422 13.802-4.308 11.253-4.954 15.856-8.921 15.856-8.921s16.465-12.95 27.497-30.351l.358-.053.054-.021c.04-.015.082-.048.122-.05 74.263-3.325 95.276 13.019 158.12-46.017C398.33 40.94 413.227 20.155 412.495 0c0 0-11.175 16.258-24.977 24.916-74.57 46.779-113.829 46.415-150.11 51.373" fill="#6D130C" mask="url(#f)"/>
        </g>
        <path d="M265.382 26.773c5.783 12.775 3.766 97.029-1.3 133.97 2.604-1.184 9.342-6.503 10.701-7.74 0 0-3.252-44.401-2.133-63.598 3.22-55.215 6.525-60.44 6.525-60.44-7.596-1.384-13.793-2.192-13.793-2.192" fill="#C64230"/>
        <path d="M13.05 101.992c-3.634 28.812 1.768 58.21 33.084 60.618 50.22 3.862 92.575-33.522 122.805-42.098 24.882-7.059 42.41-9.881 63.372-13.09 29.405-4.5 35.207-56.9 9.755-71.51-35.655-20.466-96.274-25.649-129.757-26.966-56.053-2.207-90.424 22.977-99.26 93.046M318.15 30.029c-3.599 0-27.691-.849-33.104 5.874-8.369 10.395-8.985 53.83-5.066 60.463 6.808 11.523 24.115 3.523 46.175-1.669 22.152-5.214 69.294-32.412 80.406-42.742 4.497-4.18 11.566-10.17-12.558-15.062-33.852-6.864-75.853-6.864-75.853-6.864" fill="#A32319"/>
        <path d="M118.975 23.44c94.399 8.747 25.478 32.651-5.263 51.367-19.865 12.094-52.13 20.919-64.92 16.869-36.228-11.47-8.535-75.53 70.183-68.236M286.735 49.822c.82-4.823 3.93-8.682 7.944-10.381 8.779-3.717 18.35-5.344 29.57-4.173 14.086 1.471 24.333 5.737 13.12 14.148-18.62 13.965-41.129 14.168-47.845 9.022-2.938-2.252-3.305-5.582-2.789-8.616" fill="#C64230"/>
    </g>
</svg>
