<svg width="445" height="293" viewBox="0 0 445 293" xmlns="http://www.w3.org/2000/svg" xmlns:xlink="http://www.w3.org/1999/xlink">
    <defs>
        <path id="a" d="M0 0h9.065v25.567H0z"/>
        <path id="c" d="M0 0h12.799v8.626H0z"/>
    </defs>
    <g fill="none" fill-rule="evenodd">
        <path d="M442.673 68.766c-3.126-11.85-13.281-24.098-23.913-26.62-4.016-.953-3.31.838-7.737-2.405-8.24-6.035-13.3-4.996-15.305-5.226-1.866-.214-6.053-1.269-7.916-1.52l-18.88-2.55c-9.36-1.725-19.531-3.044-30.455-3.476-6.89-.458-13.783-.568-20.673-.06-9.052.666-20.524 2.415-29.358 4.764-.57.151-1.106.303-1.615.453-2.51.61-5.036 1.264-7.595 1.997-4.615 1.322-8.268-.93-13.531-2.45l-.023-.005c-1.155-.854-2.4-1.725-3.964-2.459-9.034-4.239-19.09-7.039-29.037-9.222-11.632-3.233-25.284-5.862-42.421-7.98a1503.162 1503.162 0 0 0-54.017-8.495C113.577.374 89.593-1.01 67.415 6.228c-5.116 1.67-9.71 4.189-14.547 6.62-4.477 2.249-10.665 1.848-14.021 6.28-2.356 3.11-3.643 7.117-5.968 10.258-3.246 4.384-8.393 6.93-10.613 12.078-1.092 2.534-1.338 5.43-2.207 8.073-1.918 5.832-6.746 10.105-8.095 16.142-.764 3.419-.316 7.03-.634 10.539-.372 4.115-1.785 7.996-2.985 11.9-5.105 16.607-6.508 34.345-7.87 51.873-.414 5.33-.826 10.737.012 16.003.813 5.102 2.766 9.863 4.127 14.812 4.696 17.08 2.179 35.51 3.18 53.37.128 2.284.331 4.63 1.25 6.663.779 1.726 2.023 3.114 2.982 4.719 2.537 4.244 2.907 9.626 3.857 14.646 1.71 9.033 5.572 16.885 10.737 23.915 2.6 3.539 8.24 15.967 12.056 17.133 2.306.704 5.234-.62 8.125-2.598 9.985-2.807 19.268-6.024 23.791-16.733.705-1.669 1.314-3.78 2.114-5.82 2.675-2.469 5.391-4.951 8.149-7.363 1.303-.023 2.805.234 4.548.847 4.53 1.594 8.156-5.482 12.512-7.618l7.46-3.658c2.045-1.003 4.09-2.006 6.164-2.93 11.218-4.99 23.25-7.596 35.292-7.642 3.302-.014 6.733.136 9.752-1.388 2.265-1.144 4.12-3.152 6.348-4.386.974-.54 1.98-.904 3.005-1.155 1.403-.14 2.798-.282 4.188-.428 3.979.067 8.142 1.177 12.156 1.427 6.19.384 12.477-2.015 17.788-6.007 5.214-1.227 10.353-2.758 15.429-4.735 8.95.027 18.412-4.234 26.105-10.368 6.414-5.114 12.859-11.113 15.513-19.505a45.9 45.9 0 0 0 .824-3.035c6.032-7.924 10.125-14.543 12.102-15.17l.209-.065c.925.022 1.855.1 2.764.184 9.045.827 18.119 3.648 27.134 2.484 26.671-3.444 51.946 4 72.895-11.566 4.79-3.56 9.516-8.113 15.229-8.41 2.235-.115 4.536.443 6.682-.28 4.605-1.552 6.232-7.858 9.253-12.11 5.45-7.672 16.01-8.933 20.938-17.05 1.397-2.304 2.217-4.986 3.344-7.475 2.383-5.266 6.097-9.575 8.993-14.497 6.048-10.277 8.319-23.587 5.191-35.436" fill="#7C1919"/>
        <path d="M438.924 59.6c-4.487 10.489-13.731 10.154-21.82 17.543-2.42 2.21-4.295 5.145-6.824 7.19-3.474 2.81-7.952 3.759-11.241 6.843-2.181 2.044-3.73 4.934-6.137 6.62-3.253 2.28-7.401 1.922-11.019 3.32-5.387 2.083-9.282 7.928-14.816 9.433-3.196.87-6.571.173-9.817.76-7.832 1.42-13.606 9.96-21.463 11.183-3.24.504-6.53-.305-9.795-.12-5.635.319-8.669 3.616-12.912 7.134-3.846 3.189-8.414 3.736-13.368 4.386-5.43.71-10.662-1.92-16.275-1.73-6.297.214-12.515 2.038-18.446 4.355-10.766 4.204-21.36 9.98-32.732 10.443-3.549.144-7.236-.212-10.524 1.317-3.981 1.852-6.962 6.301-11.214 7.03-4.036.693-7.819-2.19-11.815-3.128-5.487-1.286-11.062 1.148-16.258 3.536l-31.241 14.36c-3.197 1.469-6.427 2.959-9.246 5.219-6.103 4.893-9.905 13.087-16.475 17.12-6.305 3.87-13.937 3.186-20.904 5.071-11.186 3.028-20.278 12.566-31.341 16.13-9.406 3.031-19.443 1.502-29.052-.544-13.52-2.88-24.861-7.714-36.592-14.578.04 8.552-.28 17.183.198 25.684.127 2.283.33 4.628 1.248 6.662.78 1.726 2.11 6.734 3.069 8.339 2.537 4.245 2.821 6.006 3.77 11.026 1.71 9.033 5.573 16.885 10.738 23.915 2.6 3.539 8.239 15.967 12.056 17.133 1.233.376 2.645.168 4.133-.404.573-.583 1.145-1.078 1.695-1.407.282-.168.57-.346.867-.533a68.048 68.048 0 0 0 2.85-1.929c6.363-4.536 14.977-11.99 24.035-19.68.144-.4.293-.8.45-1.199 2.675-2.468 5.391-4.95 8.15-7.362.474-.009.98.026 1.51.095 11.175-9.169 22.022-17.216 29.24-19.245 33.056-9.294 62.055-7.457 89.01-13.917l.016-.004c1.106-.265 2.209-.544 3.307-.84l.09-.023a122.113 122.113 0 0 0 5.431-1.6l.093-.03c.71-.229 1.42-.465 2.127-.71h.002c.565-.195 1.13-.396 1.694-.601l.112-.041c.534-.195 1.068-.396 1.6-.6l.205-.08c8.194-3.17 16.226-7.493 24.156-13.564 7.388-5.657 13.58-12.97 18.49-19.417v-.004c.54-.708 1.066-1.407 1.574-2.091l.157-.213.809-1.096.065-.09c1.387-1.892 2.642-3.646 3.771-5.2l.152-.209.396-.54.275-.376.334-.451a80.173 80.173 0 0 1 1.41-1.85l.017-.02c.375-.473.727-.9 1.056-1.274a17.3 17.3 0 0 1 .417-.464c.083-.088.16-.16.24-.24.08-.08.163-.168.24-.24.456-.43.848-.728 1.188-.815l.208-.066.047.001c61.674-15.718 105.563-22.35 137.03-33.073 5.711-4.91 13.717-6.918 17.82-13.677 1.397-2.303 2.217-4.985 3.343-7.474 2.384-5.266 6.098-9.575 8.994-14.497 6.048-10.277 8.319-23.587 5.191-35.436a38.267 38.267 0 0 0-3.75-9.166" fill="#5B1616"/>
        <path d="M444.975 83.403c-.14-1.21-.415-1.789-.643-2.961-.221-1.148.433-2.908.101-3.894-.47-1.393-1.122-4.968-1.122-4.968s-.62 1.09-.774 1.22c-4.305 3.575-7.794 10.72-11.594 15.156a157.86 157.86 0 0 1-12.462 12.993c-4.154 3.857-8.586 7.28-12.824 11.005-4.542 3.995-8.577 3.816-13.455 6.538-2.379 1.327-4.014 3.915-6.196 5.625-3.69 2.89-8.557 3.013-12.513 5.404-3.427 2.07-6.142 5.818-9.939 6.717-3.197.758-6.478-.69-9.743-.587-5.929.189-10.792 5.33-16.476 7.257-4.845 1.642-10.128.888-14.965 2.557-3.846 1.328-7.239 4.134-11.16 5.133-4.006 1.022-8.171.07-12.275.108-2.58.023-5.144.44-7.698.855-7.408 1.205-14.045 5.379-21.123 6.48-3.22.501-6.43 1.094-9.616 1.826-11.006 2.526-21.52 7.09-31.972 11.657-4.665 2.039-8.78 2.99-13.483 4.396-4.508 1.348-8.412 4.567-12.923 5.946-5.071 1.548-10.62.753-15.476 3.025-3.428 1.604-6.214 4.608-9.55 6.448-3.574 1.97-7.6 2.515-11.484 3.45-9.96 2.4-19.242 7.468-28.849 11.3-5.971 2.382-12.348 3.582-18.21 6.138-4.761 2.078-8.775 5.978-13.544 7.968-4.755 1.986-9.642 3.665-13.768 7.145-2.924 2.465-5.522 5.474-8.725 7.438-2.85 1.75-6.108 2.62-8.761 4.734-9.18 7.31-16.331 20.434-22.553 30.727l-.237.12c.01.078.014.156.023.234-2.41 3.998-4.89 8.309-7.226 12.711-1.248 2.35-4.706 5.422-7.102 6.538.455.644 1.717 1.785 2.76 2 2.928.6 8.334-.284 12.083-2.748 2.344-1.54 5.567-2.527 8.088-3.649.895-.398 3.675-2.831 4.572-3.22 1.932-.838 1.128-2.012 3.015-2.977 1.374-.703 2.07-2.085 3.242-3.165 1.022-.943 1.533-2.416 2.358-3.583 2.263-3.204 6.845-4.104 8-8.002.218-.737.287-1.53.556-2.247.691-1.838 3.84-2.197 6.325-2.396 1.35-.108 2.628-.727 3.635-1.757 1.256-1.283 2.506-2.462 4.12-2.892 3.362-.897 4.09-3.083 7.225-4.736 3.02-1.592 6.204-2.734 9.377-3.87l14.812-5.309c2.017-.723 4.064-1.452 6.177-1.538 1.538-.063 3.093.216 4.61-.076 1.148-.22 2.228-.759 3.36-1.062 1.683-.453 3.435-.377 5.164-.393 3.252-.027 6.5-.384 9.697-1.066 1.148-.244 2.31-.539 3.326-1.192.742-.477 1.385-1.132 2.116-1.632 2.055-1.41 4.661-1.317 7.043-1.636 3.809-.51 7.646-1.023 11.468-.675 2.964.268 6.03 1.04 8.847-.043 1.489-.573 2.818-1.639 4.346-2.063 1.89-.524 4.09-.087 5.612-1.465.8-.724 1.144-1.238 1.935-1.947a5.353 5.353 0 0 1 3.077-1.36c3.211-.3 6.436-1.077 9.661-1.179 1.356-.043 2.725-.043 4.048-.38 3.024-.771 5.856-3.595 8.765-3.768 1.801-.107 3.59-.471 5.207-1.383 2.311-1.303 4.498-2.92 6.666-4.524l5.155-3.817c2.894-2.142 5.808-4.303 8.29-7.036 1.809-1.99 3.364-4.258 4.83-6.584 2.653-4.201 5.658-9.82 7.753-14.402a117.59 117.59 0 0 0 5.538-8.946l.35-.058c.018-.007.036-.014.053-.024.04-.016.082-.053.12-.055 1.205-.061 2.392-.116 3.568-.166.34.157.707.306 1.114.441 2.435.809 7.298 1.104 9.55 1.467l2.651.377c4.814.657 9.664 1.504 14.522 1.276 2.205-.102 4.466-.42 6.58.302 1.006.343 1.951.915 2.977 1.173 1.774.45 3.607-.068 5.41-.337 6.172-.925 12.542 1.078 18.627-.426.66-.162 1.463-.374 2.236-.774 1.444-.747 3.051-1.042 4.613-.725 4.611.936 8.967.041 13.518-2.204 2.588-1.276 5.035-3.068 7.816-3.6 2.351-.45 4.851.024 7.075-.954 3.947-1.734 6.078-6.445 9.979-8.312 1.513-.724 2.8-1.733 4.433-1.909a35.253 35.253 0 0 0 11.419-3.262c2.785-1.332 5.596-3.224 6.895-6.331.593-1.42.497-3.472 1.586-4.11 2.072-1.214 3.955-2.77 5.478-4.776 1.927-2.538 4.352-4.58 7.044-5.941 2.078-1.05 4.511-1.885 5.59-4.166.278-.586.446-1.24.778-1.79.736-1.213 2.128-1.694 2.971-2.813.613-.81.879-1.876 1.226-2.87 1.972-5.641 6.802-9.383 9.216-14.797.774-1.737 1.3-3.646 2.375-5.16.58-.819 1.308-1.502 1.797-2.393.706-1.284.844-2.853 1.04-4.352a44.46 44.46 0 0 1 2.165-9.066c.385-1.087.821-2.224.686-3.386" fill="#491212"/>
        <path d="M265.695 31.673c5.673 14.28 3.693 108.455-1.276 149.748 2.555-1.324 8.97-6.775 10.303-8.16 0 0-2.995-50.123-1.897-71.581 3.158-61.717 6.4-67.557 6.4-67.557a267.572 267.572 0 0 0-13.53-2.45" fill="#912F1C"/>
        <path d="M232.625 39.014c-3.526-1.415-6.838-3.544-9.514-6.518-1.182-1.314-2.724-2.26-4.302-2.87-2.456-.947-5.066-1.22-7.605-1.817-4.01-.944-7.832-2.694-11.742-4.075-6.815-2.408-6.384-2.19-13.517-2.31-2.38-.04-8.555-2.833-10.906-3.255-2.173-.39-7.688-.103-9.707-.734-2.804-.877-5.813-.555-8.534-1.849-1.544-.734-2.917-1.951-4.543-2.4-.904-.25-1.844-.25-2.773-.25-11.275.018-22.74.656-33.89-1.685-7.644-1.606-14.923 3.048-22.653 3.446-5.132.265-10.123-.681-15.115 1.123a89.193 89.193 0 0 0-12.923 5.9c-7.181 4.005-13.325 9.375-19.06 15.665-3.013 3.304-5.751 5.423-8.014 9.58-2.864 5.262-5.392 10.756-7.927 16.23-1.388 2.999-2.788 6.033-3.522 9.32-.857 3.832-.776 7.876-1.642 11.706-.721 3.191-2.079 6.14-3.185 9.184-2.579 7.093-3.776 14.609-4.257 22.272-.502 7.98-.229 16.118.067 24.106.125 3.376.257 6.798 1.156 10.018.95 3.4 2.723 6.457 3.552 9.897 1.07 4.435 1.172 8.583 3.708 12.162 1.184 1.67 2.325 3.751 3.996 4.743 8.166 4.846 10.948 6.752 19.934 9.044 2.592.66 10.259 2.01 12.847 1.324 2.172-.574 5.072-1.053 7.072-2.178 11.733-6.599 26.33-3.762 37.892-10.743 5.714-3.452 10.268-9.085 16.086-12.304 3.966-2.193 8.359-3.175 12.45-5.047 5.832-2.67 10.903-7.075 16.355-10.64 10.652-6.961 22.652-10.646 34.579-14.068 5.247-1.505 13.959-3.092 19.353-3.582 3.673-.333 6.652-1.085 10.393-3.093 4.766-2.556 11.281-2.583 16.517-3.497 10.61-1.85 18.167-11.354 21.983-22.293 2.08-5.963 3.16-12.37 3.356-18.773.114-3.719-1.662-6.922-2.278-10.472-.663-3.82.536-6.78-.647-10.477a38.977 38.977 0 0 0-1.683-4.35c-3.212-7.017-8.985-11.977-15.654-14.187-1.448-.48-2.874-1.143-4.375-1.729-.446-.174-.889-.349-1.328-.524" fill="#8C211C"/>
        <path d="M317.418 33.812c-3.953.14-7.905.395-11.854.651-3.14.204-6.357.428-9.232 1.876-2.2 1.108-3.952 2.903-5.937 4.393-1.77 1.33-5.074 2.252-6.495 3.705-3.494 3.572-3.469 12.933-4.671 17.874-1.154 4.74-2.315 9.706-1.408 14.514.455 2.414 1.424 4.714 1.533 7.18.195 4.378-2.322 8.33-2.804 12.68-.863 7.808 4.769 14.377 9.928 19.61 1.952 1.978 4.156 4.072 6.767 4.072 1.433 0 2.798-.644 4.118-1.278l14.776-7.096c2.323-1.116 4.76-2.253 7.272-2.019 1.622.152 3.2.876 4.824.755 3.495-.26 5.84-4.167 9.017-5.85 3.426-1.813 7.473-.876 11.16-1.807 5.9-1.488 10.03-7.414 15.251-10.876 8.28-5.49 19.277-4.744 26.589-11.797 3.681-3.553 5.935-8.672 9.388-12.512 2.853-3.172 6.477-5.417 9.009-8.927 2.531-3.509 3.602-9.137.832-12.404-1.514-1.785-3.771-2.41-5.905-2.91-9.916-2.325-19.98-3.71-30.029-5.092l-13.146-1.81c-10.63-1.462-21.285-2.926-31.992-3.033-2.331-.023-4.661.019-6.99.101" fill="#912F1C"/>
        <path d="M387.066 64.498s-4.77 4.1-5.816 10.399c-1.044 6.3 2.04 7.43 3.203 5.35 1.163-2.08 6.605-10.228 7.747-14.643 1.14-4.415-5.134-1.106-5.134-1.106M79.057 126.035c-.278 1.326-.703 2.604-1.329 3.766-1.027 1.904-2.43 5.705-1.901 11.712.804 9.159 9.445 8.93 11.454 0 2.01-8.93.974-21.743-3.353-21.89-3-.1-4.322 3.8-4.87 6.412" fill="#C1624F"/>
        <path d="M230.87 156.21c-.872-.166-2.13.094-2.984.356-3.322 1.021-10.426 4.05-9.198 8.11 1.434 4.743 14.912-4.357 14.605-6.631-.189-1.395-1.365-1.635-2.423-1.836M110.867 198.728c-.872-.166-2.13.094-2.984.357-3.322 1.02-10.426 4.05-9.198 8.11 1.434 4.742 14.912-4.358 14.605-6.632-.189-1.394-1.365-1.634-2.423-1.835M404.953 99.03c-.871-.166-2.13.094-2.983.357-3.323 1.02-10.426 4.05-9.198 8.11 1.434 4.743 14.912-4.358 14.604-6.632-.189-1.394-1.364-1.634-2.423-1.835" fill="#7C1919"/>
        <path d="M92.3 19.787c1.278-1.071.92-3.245-.667-3.215-4.648.084-13.385 4.678-17.338 9.067-1.003 1.114-.355 2.986 1.024 2.71 2.012-.404 4.43-1.16 6.697-2.577 3.589-2.241 7.084-3.3 10.284-5.985M317.904 79.53c.334-.994-.271-2.538-.956-2.265-2.006.8-4.856 5.574-5.667 9.436-.206.98.464 2.258 1.007 1.835.792-.617 1.688-1.559 2.38-2.962 1.098-2.222 2.4-3.557 3.236-6.044M335.79 39.032c.913-.217 1.726-1.632 1.155-2.14-1.675-1.491-6.74-1.645-10.031-.334-.835.332-1.416 1.664-.81 1.956a6.894 6.894 0 0 0 3.473.682c2.234-.149 3.924.378 6.212-.164M386.038 51.936c.639-1.072.46-3.244-.333-3.216-2.325.085-6.693 4.679-8.67 9.068-.502 1.113-.177 2.986.512 2.71 1.006-.404 2.216-1.16 3.349-2.576 1.794-2.242 3.542-3.3 5.142-5.986" fill="#C1624F"/>
        <path d="m81.186 185.584-5.146 5.968c-.24.596-3.194.734-3.94 1.201-2.27 1.42-3.993 1.92-4.522 2.576-4.522 5.61-.32 8.105 3.086 7.66 12.71-1.662 15.008-7.587 14.067-13.738-.416-2.724.004-4.05-.802-4.612-.746-.52-1.728-.215-2.26.573l-.483.372zM196.085 144.324a15.128 15.128 0 0 1 4.975-4.07c2.366-1.2 5.299-3.425 5.874-4.028 4.917-5.16 2.134-6.638-1.115-5.392-10.754 4.124-14.323 8.281-15.027 12.35-.468 2.712-.3 4.034.462 4.671.704.589 1.705.38 2.294-.356l2.537-3.175zM22.535 174.986c-2.67 1.868-4.292 5.185-4.3 8.754-.014 6.69 1.165 12.132 4.3 15.347 4.019 4.121 5.2-7.528 4.632-15.522-.267-3.765-.613-11.39-4.632-8.579" fill="#912F1C"/>
        <g transform="translate(0 106.523)">
            <mask id="b" fill="#fff">
                <use xlink:href="#a"/>
            </mask>
            <path d="M4.3.609C1.63 2.477.007 5.794 0 9.363c-.014 6.69 1.165 12.132 4.3 15.347 4.019 4.121 5.2-7.528 4.632-15.522C8.664 5.423 8.319-2.202 4.299.61" fill="#912F1C" mask="url(#b)"/>
        </g>
        <path d="M131.367 165.114c-1.723.385-3.427 1.94-4.503 4.102-2.018 4.052-3.14 7.681-2.742 10.509.51 3.624 6.324-1.108 8.48-6.113 1.016-2.357 1.36-9.075-1.235-8.498M207.755 16.21c-.884-1.73-2.733-3.052-4.879-3.501-4.02-.843-7.397-.86-9.61.496-2.839 1.739 4.06 3.853 8.916 4.532 2.288.32 6.903 1.076 5.573-1.527M145.264 6.593c-.884-1.729-2.733-3.052-4.879-3.501-4.02-.842-7.398-.86-9.611.496-2.838 1.739 4.06 3.853 8.917 4.532 2.288.32 6.903 1.077 5.573-1.527M73.219 6.609c-1.394-1.218-3.545-1.642-5.68-1.13-4 .959-7.13 2.403-8.727 4.614-2.047 2.836 5.04 1.81 9.76.338 2.222-.694 6.744-1.989 4.647-3.822M313.072 112.757c-1.724.384-3.427 1.94-4.504 4.102-2.017 4.051-3.14 7.681-2.741 10.508.51 3.625 4.526-3.106 6.682-8.11 1.016-2.358 3.157-7.078.563-6.5" fill="#912F1C"/>
        <path d="M328.7 46.23c-1.079-1.269-2.631-1.794-4.1-1.396-2.75.745-4.85 2.01-5.804 4.108-1.225 2.69 3.701 2.034 6.92.82 1.517-.572 4.61-1.622 2.985-3.531M299.142 47.488c-1.555.043-2.958.994-3.711 2.503-1.411 2.83-1.94 5.469-1.352 7.706.876 3.333 3.825-.484 5.277-5.277.53-1.75 2.125-4.997-.214-4.932" fill="#A84429"/>
        <path d="M379.04 92.81c-1.557.049-2.964 1.008-3.721 2.528-1.421 2.848-5.493 6.795-4.808 9.044.878 2.884 7.29-3.05 8.732-6.616.68-1.68 2.142-5.028-.202-4.956" fill="#912F1C"/>
        <path d="M204.127 39.715c-2.54-.48-5.278.068-7.88 1.442-18.349 9.69-23.156 14.979-15.97 20.345 5.719 4.27 29.686-15.587 26.698-20.263-.54-.846-1.642-1.296-2.848-1.524" fill="#C1624F"/>
        <path d="M356.429 135.053c-2.914 2.748-6.075.531-5.27-1.759.803-2.29 7.836-5.925 9.343-5.48 1.508.443 5.428 1.855 2.714 3.667-2.714 1.813-6.787 3.572-6.787 3.572" fill="#7C1919"/>
        <path d="M409.671 70.846c-2.913 2.748-6.074.531-5.27-1.759.804-2.29 7.836-5.925 9.344-5.48 1.508.443 5.427 1.855 2.713 3.668-2.713 1.812-6.787 3.571-6.787 3.571M255.352 119.985c-2.913 2.748-6.074.531-5.27-1.758.804-2.29 7.836-5.925 9.344-5.482 1.508.444 5.428 1.856 2.713 3.669-2.713 1.813-6.787 3.571-6.787 3.571" fill="#912F1C"/>
        <path d="M147.723 185.693c-.833-1.268-.588-3.253.506-4.083 4.457-3.38 16.169-10.294 14.831-4.324-.729 3.254-10.45 8.736-13.793 9.214-.581.084-1.156-.216-1.544-.807M326.992 138.017c-1.188-1.523-.837-3.908.722-4.905 6.353-4.061 23.052-12.37 21.144-5.196-1.04 3.91-14.9 10.496-19.664 11.072-.83.1-1.648-.26-2.202-.97" fill="#7C1919"/>
        <path d="M143.8 18.504c2.791-.647 5.835.345 7.905 2.574.547.59 1.045 1.3 1.176 2.145.381 2.47-2.291 3.952-4.427 4.563-2.467.705-5.04 1.414-7.527.805-2.486-.609-4.842-2.963-4.809-5.861.034-3.057 3.186-5.476 5.685-4.366M199.35 91.306c2.791-.646 5.835.345 7.905 2.575.546.59 1.045 1.3 1.176 2.144.381 2.47-2.291 3.953-4.427 4.563-2.467.705-5.04 1.414-7.527.806-2.487-.61-4.843-2.964-4.81-5.861.035-3.057 3.187-5.477 5.686-4.366M160.866 90.9c-4.985-2.489-6.45-9.75-3.23-14.752 3.064-4.763 7.275-7.884 10.185-3.79 5.13 7.216 2.44 22.51-6.446 18.775a8.94 8.94 0 0 1-.509-.234M87.46 174.396c-4.93-2.352-6.521-9.506-3.374-14.43 3.298-5.162 8.038-8.873 10.333-4.121 3.015 6.243-.835 21.003-6.447 18.775a8.411 8.411 0 0 1-.512-.224M245.826 107.554c-4.93-2.353-6.521-9.506-3.374-14.43 3.298-5.162 8.038-8.873 10.333-4.121 3.014 6.243-.835 21.003-6.447 18.775a8.411 8.411 0 0 1-.512-.224M120.696 95.541c-4.931-2.352-6.521-9.506-3.375-14.43 3.3-5.162 8.04-8.873 10.333-4.122 3.015 6.244-.834 21.004-6.446 18.776a8.412 8.412 0 0 1-.512-.224M23.233 140.05c-4.931-2.353-6.521-9.507-3.375-14.43 3.3-5.162 8.039-8.873 10.333-4.122 3.015 6.243-.835 21.003-6.446 18.775a8.277 8.277 0 0 1-.512-.223" fill="#C1624F"/>
        <path d="M11.292 176.173c-4.93-2.352-6.52-9.506-3.374-14.43 3.299-5.162 8.039-8.873 10.333-4.122 3.014 6.244-.835 21.004-6.446 18.776a8.279 8.279 0 0 1-.513-.224" fill="#912F1C"/>
        <path d="M24.385 241.27c-4.931-2.113-6.521-8.542-3.375-12.965 3.3-4.639 8.04-7.973 10.333-3.703 3.015 5.61-.835 18.872-6.446 16.87a8.51 8.51 0 0 1-.512-.201M36.433 273.395c-4.931-2.113-6.521-8.542-3.375-12.966 3.299-4.638 8.039-7.972 10.333-3.703 3.014 5.61-.835 18.872-6.446 16.87a8.901 8.901 0 0 1-.512-.2M83.857 228.564c-4.065-2.113-5.376-8.542-2.782-12.965 2.72-4.639 6.627-7.973 8.519-3.704 2.485 5.61-.689 18.872-5.315 16.87a6.46 6.46 0 0 1-.422-.2M126.995 205.627c-2.266-4.388-.104-10.51 4.248-12.439 4.562-2.022 9.441-2.2 8.842 2.533-.788 6.219-10.064 15.01-12.845 10.346a8.108 8.108 0 0 1-.245-.44M274.964 151.605c-3.63-5.476-1.909-11.95 3.315-13.185 5.475-1.293 11.666-.425 11.7 4.816.047 6.884-10.293 14.825-14.628 8.923-.136-.185-.264-.37-.387-.554" fill="#7C1919"/>
        <path d="M176.145 224.204c-2.266-4.388-.105-10.51 4.248-12.439 4.562-2.022 9.442-2.2 8.842 2.533-.788 6.22-10.064 15.01-12.845 10.347a8.11 8.11 0 0 1-.245-.44M237.441 193.881c-2.266-4.388-.105-10.51 4.248-12.439 4.562-2.022 9.442-2.2 8.842 2.533-.788 6.219-10.064 15.01-12.845 10.347a7.946 7.946 0 0 1-.245-.44" fill="#350D0D"/>
        <path d="M391.723 134.25c-2.265-4.389-.104-10.511 4.248-12.44 4.563-2.022 9.442-2.2 8.843 2.534-.789 6.218-10.064 15.009-12.845 10.346a7.758 7.758 0 0 1-.246-.44M323.345 158.567c-.28-5.08 4.076-9.429 8.724-8.909 4.872.547 9.295 2.9 6.882 6.814-3.17 5.142-14.931 8.207-15.563 2.615a9.227 9.227 0 0 1-.043-.52M176.434 180.774c-3.197-4.881-1.375-11.963 3.531-14.38 5.144-2.536 10.881-2.987 10.737 2.434-.189 7.122-10.088 17.605-13.927 12.435a10.48 10.48 0 0 1-.34-.489" fill="#912F1C"/>
        <path d="M245.152 161.264c-3.197-4.882-1.375-11.964 3.53-14.381 5.145-2.535 10.882-2.987 10.738 2.434-.19 7.123-10.088 17.605-13.927 12.436a10.48 10.48 0 0 1-.341-.49M296.418 148.578c-3.198-4.882-1.375-11.964 3.53-14.381 5.145-2.535 10.882-2.987 10.738 2.434-.19 7.122-10.088 17.605-13.927 12.436a10.48 10.48 0 0 1-.341-.49" fill="#7C1919"/>
        <path d="M239.676 49.231c.848 5.416-3.294 10.787-9.25 11.997-5.957 1.21-11.473-2.2-12.32-7.615-.847-5.416 3.295-10.787 9.251-11.997 5.956-1.21 11.472 2.2 12.32 7.615" fill="#912F1C"/>
        <path d="M208.75 112.342c2.367 3.45.783 9.365-3.537 13.212-4.32 3.846-9.741 4.167-12.108.716-2.366-3.45-.782-9.365 3.538-13.212 4.32-3.845 9.74-4.167 12.107-.716" fill="#C1624F"/>
        <path d="M156.678 43.175c3.388 4.94 1.24 13.3-4.795 18.675-6.037 5.374-13.676 5.726-17.064.787-3.388-4.94-1.24-13.301 4.796-18.676 6.036-5.373 13.676-5.726 17.063-.786" fill="#A84429"/>
        <path d="M72.337 165.898c2.973 4.334 1.518 11.289-3.25 15.533-4.767 4.245-11.042 4.172-14.014-.162-2.974-4.335-1.518-11.29 3.25-15.534 4.767-4.245 11.041-4.172 14.014.163" fill="#C1624F"/>
        <path d="M51.251 190.99c2.973 4.335 1.518 11.29-3.25 15.534-4.767 4.245-11.041 4.172-14.014-.163-2.973-4.335-1.518-11.29 3.25-15.534 4.767-4.244 11.042-4.171 14.014.163M112.903 179.475c2.972 4.335 1.518 11.29-3.25 15.534-4.768 4.245-11.042 4.171-14.015-.163-2.972-4.335-1.517-11.29 3.25-15.534 4.768-4.245 11.043-4.172 14.015.163" fill="#912F1C"/>
        <path d="M171.022 147.525c2.148 3.133.809 8.415-2.992 11.8-3.801 3.383-8.624 3.588-10.772.455-2.148-3.132-.808-8.415 2.993-11.798 3.8-3.384 8.624-3.589 10.771-.457" fill="#C1624F"/>
        <path d="M171.37 9.784c-.113 2.372-3.068 4.117-6.6 3.898-3.534-.22-6.305-2.32-6.191-4.692.113-2.372 3.069-4.117 6.601-3.898 3.532.22 6.304 2.32 6.19 4.692M317.549 29.948c.366 2.338-2.162 4.808-5.644 5.515-3.483.708-6.603-.615-6.969-2.953-.365-2.339 2.161-4.808 5.644-5.515 3.483-.708 6.603.615 6.969 2.953M363.986 31.626c-.113 2.372-3.069 4.116-6.601 3.898-3.533-.22-6.304-2.32-6.19-4.692.112-2.372 3.068-4.117 6.6-3.898 3.532.22 6.304 2.32 6.191 4.692M406.402 37.872c-.114 2.372-3.069 4.116-6.601 3.898-3.533-.22-6.304-2.32-6.19-4.692.112-2.372 3.068-4.117 6.6-3.898 3.532.22 6.304 2.32 6.191 4.692" fill="#912F1C"/>
        <g transform="translate(89.075)">
            <mask id="d" fill="#fff">
                <use xlink:href="#c"/>
            </mask>
            <path d="M12.795 4.71c-.113 2.372-3.069 4.117-6.601 3.898-3.532-.22-6.304-2.32-6.19-4.692.112-2.372 3.068-4.117 6.6-3.898 3.532.22 6.304 2.32 6.191 4.692" fill="#912F1C" mask="url(#d)"/>
        </g>
        <path d="M23.443 58.129c2.8 2.37 2.74 7.868-.136 12.28-2.877 4.413-7.479 6.069-10.28 3.699-2.8-2.37-2.739-7.869.137-12.28 2.876-4.414 7.478-6.069 10.279-3.7M44.644 18.757c2.576 2.179 2.545 7.196-.068 11.204-2.613 4.01-6.82 5.493-9.395 3.313-2.575-2.179-2.544-7.195.068-11.204 2.613-4.01 6.82-5.492 9.395-3.313M246.817 71.106c2.147 3.132.808 8.415-2.993 11.799-3.801 3.384-8.624 3.589-10.772.456-2.148-3.132-.808-8.415 2.993-11.798 3.8-3.385 8.624-3.589 10.772-.457M288.285 126.602c.187 2.7-2.701 5.161-6.45 5.499-3.75.337-6.94-1.577-7.128-4.276-.187-2.7 2.7-5.161 6.45-5.5 3.75-.337 6.94 1.578 7.128 4.277M262.862 36.863c.187 2.7-2.7 5.161-6.45 5.499-3.75.338-6.94-1.576-7.127-4.276-.188-2.7 2.7-5.161 6.45-5.499 3.749-.337 6.94 1.577 7.127 4.276M329.977 116.373c.187 2.7-2.7 5.161-6.45 5.498-3.75.338-6.94-1.576-7.128-4.275-.187-2.7 2.7-5.162 6.45-5.5 3.75-.337 6.94 1.577 7.128 4.277M364.379 104.537c.187 2.7-2.7 5.161-6.45 5.499-3.75.337-6.94-1.577-7.128-4.277-.187-2.699 2.7-5.16 6.45-5.499 3.75-.337 6.94 1.578 7.128 4.277M247.85 127.08c3.031 4.42.855 8.472-3.024 11.924-3.878 3.453-7.99 4.999-11.02.58-3.03-4.419.31-9.696 4.188-13.149 3.878-3.453 6.826-3.773 9.857.646M241.309 29.51c-1.773 5.232-5.943 5.183-10.535 3.163-4.59-2.02-7.865-5.247-6.092-10.478 1.773-5.232 7.462-4.674 12.054-2.655 4.591 2.021 6.346 4.74 4.573 9.97" fill="#912F1C"/>
        <path d="M347.873 64.002c2.325 3.39 1.059 8.942-2.827 12.403-3.887 3.46-8.921 3.516-11.246.126-2.325-3.39-1.06-8.942 2.827-12.402 3.886-3.46 8.921-3.517 11.246-.127" fill="#C1624F"/>
        <path d="M357.275 46.896c.952 3.232-1.427 7.058-5.315 8.545-3.887 1.487-7.81.072-8.763-3.16-.952-3.232 1.428-7.058 5.315-8.545 3.887-1.486 7.811-.072 8.763 3.16M98.925 236.467c1.843 2.686.716 7.196-2.515 10.073-3.23 2.877-7.343 3.03-9.186.345-1.842-2.687-.716-7.197 2.515-10.074 3.23-2.876 7.344-3.03 9.186-.344" fill="#912F1C"/>
        <path d="M70.482 258.025c1.33 1.94-.21 5.846-3.442 8.723-3.23 2.876-6.929 3.636-8.26 1.695-1.33-1.94.21-5.845 3.442-8.721 3.23-2.878 6.93-3.636 8.26-1.697M123.752 221.978c1.843 2.686.717 7.196-2.515 10.073-3.23 2.877-7.343 3.031-9.186.345-1.842-2.687-.716-7.197 2.515-10.074 3.231-2.876 7.344-3.03 9.186-.344M221.086 188.787c1.842 2.687.716 7.196-2.515 10.073-3.231 2.877-7.343 3.031-9.186.345-1.842-2.687-.717-7.196 2.515-10.073 3.23-2.877 7.344-3.031 9.186-.345M312.68 159.857c1.842 2.686.716 7.196-2.516 10.073-3.23 2.877-7.343 3.03-9.186.345-1.842-2.687-.716-7.196 2.515-10.073 3.231-2.877 7.344-3.03 9.186-.345M371.617 148.12c1.842 2.687.716 7.197-2.515 10.074s-7.344 3.03-9.186.345c-1.843-2.687-.717-7.197 2.514-10.074 3.231-2.876 7.344-3.03 9.187-.344" fill="#350D0D"/>
        <path d="M156.395 214.239c1.842 2.686.716 7.196-2.515 10.072-3.23 2.878-7.344 3.031-9.186.346-1.842-2.687-.716-7.197 2.514-10.074 3.231-2.876 7.345-3.03 9.187-.344M403.958 79.193c2.01 2.931.9 7.747-2.48 10.755-3.381 3.01-7.75 3.074-9.76.143-2.01-2.93-.9-7.745 2.48-10.755 3.38-3.01 7.75-3.074 9.76-.143M428.912 51.97c1.595 2.326.41 6.417-2.647 9.138s-6.827 3.042-8.422.717c-1.594-2.325-.41-6.417 2.647-9.138 3.056-2.72 6.827-3.042 8.422-.716" fill="#912F1C"/>
        <path d="M386.172 110.162c2.108 3.074.386 8.62-3.847 12.388-4.231 3.767-9.371 4.33-11.478 1.256-2.108-3.074-.387-8.62 3.845-12.388 4.232-3.767 9.372-4.33 11.48-1.256M68.426 226.863c2.972 4.334 1.517 11.29-3.25 15.534-4.768 4.244-11.043 4.172-14.015-.163-2.973-4.335-1.518-11.29 3.25-15.534 4.768-4.244 11.042-4.171 14.015.163" fill="#7C1919"/>
        <path d="M58.015 72.54c2.447 3.568 1.205 9.334-2.776 12.878-3.98 3.543-9.19 3.522-11.638-.046-2.447-3.57-1.205-9.335 2.775-12.879 3.98-3.544 9.19-3.523 11.639.046" fill="#A84429"/>
        <path d="M163.573 110.603c2.212 3.226 1.11 8.418-2.462 11.598-3.572 3.18-8.26 3.143-10.472-.082-2.212-3.226-1.11-8.418 2.462-11.598 3.571-3.18 8.26-3.143 10.472.082" fill="#BA583E"/>
        <path d="M168.389 102.247c2.212 3.225 1.11 8.418-2.462 11.598-3.572 3.18-8.26 3.143-10.472-.083-2.213-3.225-1.11-8.417 2.462-11.598 3.57-3.18 8.26-3.142 10.472.083M71.442 124.104c2.212 3.225 1.11 8.418-2.462 11.598-3.572 3.18-8.26 3.143-10.472-.083-2.213-3.225-1.11-8.417 2.461-11.597 3.572-3.18 8.26-3.143 10.473.082M206.764 63.585c2.212 3.225 1.11 8.418-2.462 11.597-3.572 3.18-8.26 3.143-10.472-.082-2.212-3.226-1.11-8.418 2.462-11.597 3.57-3.18 8.26-3.144 10.472.082" fill="#BA583E"/>
        <path d="M224.7 96.897c2.213 3.225 1.11 8.418-2.462 11.598-3.572 3.18-8.26 3.143-10.472-.082-2.212-3.226-1.11-8.419 2.462-11.599 3.571-3.18 8.26-3.142 10.472.083" fill="#912F1C"/>
        <path d="M114.569 154.232c2.212 3.225 1.11 8.418-2.462 11.598-3.572 3.18-8.26 3.143-10.472-.082-2.212-3.226-1.11-8.418 2.462-11.598 3.57-3.18 8.26-3.143 10.472.082M52.137 221.43c2.212 3.225 1.11 8.417-2.462 11.597-3.572 3.18-8.26 3.143-10.473-.082-2.212-3.226-1.11-8.418 2.462-11.598 3.572-3.18 8.26-3.143 10.473.082M37.902 93.28c2.212 3.225 1.11 8.418-2.462 11.598-3.571 3.18-8.26 3.143-10.472-.082-2.212-3.226-1.11-8.419 2.462-11.598 3.572-3.18 8.26-3.143 10.472.082M121.063 111.263c2.212 3.225 1.11 8.418-2.461 11.597-3.573 3.18-8.261 3.143-10.473-.082-2.212-3.226-1.11-8.418 2.462-11.598 3.571-3.18 8.26-3.143 10.472.083M155.995 101.994c2.212 3.225 1.11 8.418-2.462 11.597-3.571 3.18-8.26 3.143-10.472-.082-2.212-3.226-1.11-8.418 2.462-11.597 3.571-3.18 8.26-3.143 10.472.082M82.69 62.277c2.8 2.37 2.74 7.868-.137 12.28-2.876 4.414-7.479 6.069-10.28 3.699-2.8-2.37-2.739-7.868.138-12.281 2.876-4.412 7.477-6.068 10.278-3.698" fill="#BA583E"/>
        <path d="M78.57 54.488c2.07 2.045 1.85 6.197-.492 9.275-2.343 3.077-5.92 3.915-7.989 1.87-2.07-2.044-1.85-6.197.493-9.275 2.342-3.077 5.919-3.915 7.988-1.87" fill="#BA583E"/>
        <path d="M84.86 43.026c2.07 2.045 1.85 6.197-.492 9.275-2.342 3.077-5.919 3.915-7.989 1.87-2.07-2.044-1.85-6.197.493-9.275 2.342-3.077 5.919-3.915 7.988-1.87M122.507 50.997c1.2 2.805-.432 6.527-3.645 8.312-3.214 1.785-6.792.958-7.993-1.848-1.2-2.806.432-6.527 3.646-8.313 3.213-1.785 6.792-.956 7.992 1.849" fill="#BA583E"/>
        <path d="M111.234 47.794c2.07 2.045 1.85 6.198-.493 9.275-2.342 3.078-5.918 3.915-7.988 1.87-2.07-2.045-1.849-6.197.493-9.275 2.342-3.078 5.919-3.915 7.988-1.87M105.317 41.394c1.2 2.805-.432 6.527-3.645 8.311-3.214 1.785-6.792.958-7.993-1.848-1.2-2.805.432-6.527 3.646-8.312 3.214-1.784 6.792-.957 7.992 1.849M101.59 69.631c1.557 4.115-1.181 9.418-6.117 11.844s-10.2 1.056-11.758-3.06c-1.558-4.115 1.18-9.417 6.117-11.843 4.935-2.426 10.2-1.056 11.757 3.06" fill="#BA583E"/>
        <path d="M115.162 60.677c1.558 4.115-1.18 9.417-6.116 11.844-4.936 2.425-10.2 1.056-11.758-3.06-1.558-4.115 1.18-9.418 6.117-11.843 4.935-2.426 10.199-1.056 11.757 3.059" fill="#BA583E"/>
        <path d="M103.138 44.677c3.981 5.805 1.6 15.505-5.32 21.666-6.92 6.16-15.756 6.448-19.737.643C74.1 61.18 76.48 51.48 83.4 45.32c6.92-6.16 15.756-6.448 19.737-.643M124.043 127.473c2.8 2.37 2.74 7.869-.136 12.281-2.876 4.413-7.479 6.068-10.28 3.698-2.8-2.37-2.74-7.868.137-12.28 2.876-4.413 7.478-6.069 10.279-3.699M112.342 122.228c2.07 2.045 1.85 6.198-.492 9.275-2.342 3.078-5.919 3.916-7.99 1.871-2.069-2.045-1.848-6.198.494-9.276 2.342-3.077 5.919-3.915 7.988-1.87" fill="#BA583E"/>
        <path d="M116.856 121.707c2.07 2.045 1.849 6.197-.493 9.275-2.342 3.078-5.92 3.915-7.989 1.87-2.07-2.045-1.849-6.197.493-9.275 2.342-3.077 5.918-3.915 7.989-1.87M125.835 108.222c2.07 2.045 1.849 6.198-.493 9.275-2.342 3.078-5.918 3.915-7.989 1.871-2.07-2.045-1.848-6.198.494-9.276 2.342-3.077 5.918-3.915 7.988-1.87" fill="#BA583E"/>
        <path d="M137.046 102.528c1.2 2.806-.431 6.528-3.645 8.312-3.213 1.785-6.792.958-7.993-1.848-1.2-2.805.432-6.527 3.646-8.312 3.214-1.785 6.792-.957 7.992 1.848M152.209 112.99c2.07 2.045 1.85 6.198-.493 9.275-2.342 3.078-5.918 3.915-7.988 1.87-2.07-2.044-1.85-6.197.492-9.275 2.342-3.077 5.919-3.915 7.989-1.87" fill="#BA583E"/>
        <path d="M146.291 106.59c1.201 2.806-.431 6.528-3.645 8.312-3.213 1.785-6.792.958-7.993-1.849-1.2-2.805.432-6.527 3.646-8.312 3.214-1.784 6.792-.957 7.992 1.849M142.564 134.828c1.558 4.115-1.181 9.417-6.117 11.843s-10.2 1.057-11.757-3.06c-1.558-4.115 1.18-9.417 6.116-11.842 4.935-2.426 10.2-1.057 11.758 3.059" fill="#BA583E"/>
        <path d="M156.137 125.873c1.558 4.115-1.18 9.418-6.116 11.844-4.936 2.425-10.2 1.056-11.758-3.06-1.558-4.115 1.18-9.417 6.116-11.843 4.936-2.425 10.2-1.056 11.758 3.06" fill="#BA583E"/>
        <path d="M144.113 109.873c3.98 5.805 1.599 15.505-5.32 21.666-6.92 6.16-15.757 6.448-19.738.643-3.981-5.805-1.599-15.504 5.32-21.665 6.92-6.161 15.757-6.448 19.738-.644M327.173 75.442c2.213 3.225 1.11 8.418-2.462 11.598-3.572 3.18-8.26 3.143-10.472-.082-2.212-3.226-1.11-8.418 2.462-11.598 3.572-3.18 8.26-3.143 10.472.082" fill="#BA583E"/>
        <path d="M316.494 68.57c2.213 3.225 1.11 8.417-2.462 11.597-3.572 3.18-8.26 3.143-10.472-.082-2.212-3.226-1.11-8.419 2.462-11.598 3.571-3.18 8.26-3.143 10.472.082M289.446 92.382c2.801 2.37 2.74 7.868-.136 12.28-2.876 4.413-7.478 6.069-10.28 3.699-2.8-2.37-2.739-7.869.138-12.281 2.876-4.413 7.478-6.068 10.278-3.698" fill="#BA583E"/>
        <path d="M284.949 84.592c2.07 2.045 1.848 6.198-.494 9.276-2.342 3.077-5.918 3.915-7.988 1.87-2.07-2.045-1.85-6.197.493-9.275 2.342-3.078 5.918-3.916 7.989-1.87" fill="#BA583E"/>
        <path d="M292.86 73.13c2.069 2.045 1.848 6.198-.494 9.276-2.342 3.078-5.918 3.915-7.988 1.87-2.07-2.045-1.85-6.197.493-9.275 2.342-3.078 5.918-3.915 7.988-1.87" fill="#BA583E"/>
        <path d="M304.85 68.349c1.2 2.805-.433 6.527-3.646 8.312-3.214 1.785-6.792.957-7.993-1.849-1.2-2.806.432-6.526 3.646-8.312 3.214-1.785 6.792-.957 7.992 1.849M317.613 77.899c2.07 2.045 1.848 6.197-.494 9.274-2.342 3.078-5.918 3.915-7.988 1.871-2.07-2.045-1.849-6.198.493-9.275 2.342-3.078 5.918-3.915 7.989-1.87M307.967 99.736c1.558 4.115-1.18 9.418-6.116 11.844-4.936 2.425-10.2 1.056-11.758-3.06-1.557-4.115 1.18-9.418 6.117-11.843 4.935-2.426 10.2-1.056 11.757 3.059" fill="#BA583E"/>
        <path d="M321.54 90.782c1.559 4.114-1.18 9.417-6.116 11.843-4.936 2.425-10.2 1.056-11.757-3.06-1.559-4.114 1.18-9.417 6.116-11.842 4.935-2.426 10.2-1.056 11.757 3.059" fill="#BA583E"/>
        <path d="M309.516 74.782c3.981 5.805 1.6 15.505-5.32 21.665-6.92 6.16-15.756 6.45-19.737.643-3.981-5.804-1.6-15.504 5.32-21.665 6.92-6.16 15.756-6.448 19.737-.643M41.818 148.88c2.801 2.37 2.74 7.868-.137 12.28-2.876 4.413-7.477 6.068-10.279 3.698-2.8-2.37-2.74-7.867.137-12.28 2.876-4.413 7.478-6.068 10.279-3.698" fill="#BA583E"/>
        <path d="M37.32 141.09c2.07 2.046 1.85 6.198-.493 9.275-2.342 3.078-5.919 3.916-7.989 1.871-2.07-2.044-1.849-6.197.493-9.275 2.342-3.078 5.92-3.915 7.989-1.87" fill="#BA583E"/>
        <path d="M43.61 129.629c2.07 2.045 1.85 6.197-.493 9.274-2.342 3.078-5.919 3.916-7.988 1.872-2.07-2.045-1.85-6.198.493-9.276 2.342-3.078 5.918-3.915 7.988-1.87" fill="#BA583E"/>
        <path d="M54.822 123.935c1.2 2.805-.432 6.527-3.646 8.312-3.213 1.785-6.792.958-7.992-1.848-1.2-2.806.432-6.527 3.645-8.312 3.214-1.785 6.792-.958 7.993 1.848M69.984 134.396c2.07 2.045 1.85 6.198-.493 9.276-2.342 3.077-5.918 3.915-7.988 1.87-2.07-2.045-1.85-6.197.492-9.275 2.342-3.078 5.92-3.915 7.989-1.87" fill="#BA583E"/>
        <path d="M64.067 127.996c1.2 2.806-.432 6.528-3.646 8.312-3.213 1.785-6.792.958-7.992-1.848-1.2-2.806.432-6.527 3.645-8.312 3.214-1.785 6.792-.957 7.993 1.848M60.339 156.234c1.558 4.115-1.18 9.418-6.116 11.844-4.937 2.425-10.2 1.056-11.758-3.06-1.558-4.115 1.18-9.417 6.116-11.843s10.2-1.056 11.758 3.06" fill="#BA583E"/>
        <path d="M73.912 147.28c1.558 4.115-1.18 9.417-6.116 11.844-4.936 2.425-10.2 1.055-11.758-3.06-1.558-4.115 1.18-9.418 6.116-11.843 4.936-2.426 10.2-1.056 11.758 3.059" fill="#BA583E"/>
        <path d="M61.888 131.28c3.98 5.805 1.599 15.505-5.32 21.666-6.92 6.16-15.756 6.448-19.738.643-3.981-5.806-1.599-15.505 5.32-21.666 6.92-6.16 15.757-6.448 19.738-.643" fill="#BA583E"/>
        <path d="M191.962 34.802c.261 3.761-2.959 7.119-7.192 7.5-4.234.382-7.876-2.358-8.137-6.12-.261-3.762 2.959-7.12 7.192-7.501 4.234-.382 7.876 2.359 8.137 6.12" fill="#C1624F"/>
        <path d="M122.261 15.881c.261 3.762-2.96 7.12-7.192 7.5-4.234.382-7.877-2.358-8.138-6.12-.26-3.76 2.96-7.12 7.192-7.5 4.234-.382 7.877 2.358 8.138 6.12" fill="#BA583E"/>
        <path d="M67.458 33.015c.261 3.762-2.959 7.12-7.192 7.501-4.234.382-7.877-2.359-8.138-6.12-.26-3.762 2.96-7.12 7.193-7.502 4.233-.38 7.876 2.359 8.137 6.12M229.702 78.418c.261 3.761-2.96 7.12-7.192 7.5-4.234.382-7.877-2.358-8.138-6.12-.261-3.761 2.96-7.12 7.193-7.501 4.233-.381 7.876 2.359 8.137 6.12M192.12 81.801c.262 3.762-2.959 7.12-7.192 7.502-4.233.381-7.876-2.359-8.137-6.12-.261-3.762 2.96-7.12 7.192-7.502 4.234-.381 7.877 2.359 8.138 6.12M98.128 112.38c.262 3.761-2.96 7.12-7.192 7.5-4.233.382-7.877-2.358-8.138-6.12-.26-3.761 2.96-7.12 7.193-7.501 4.233-.381 7.876 2.359 8.137 6.12" fill="#C1624F"/>
        <path d="M141.175 115.006c1.054 3.576-1.355 7.724-5.38 9.265-4.026 1.539-8.144-.112-9.198-3.69-1.054-3.577 1.355-7.724 5.38-9.265 4.027-1.539 8.144.113 9.198 3.69" fill="#E0A865"/>
        <path d="M136.53 124.918c1.603 2.337.858 6.052-1.663 8.296-2.521 2.245-5.864 2.17-7.467-.168-1.603-2.337-.859-6.052 1.663-8.296 2.52-2.245 5.863-2.17 7.467.168" fill="#E0A865"/>
        <path d="M145.68 122.886c1.14 2.666-.266 6.123-3.141 7.72-2.876 1.597-6.133.731-7.274-1.936-1.14-2.666.266-6.123 3.142-7.72 2.876-1.597 6.133-.73 7.274 1.936M91.622 59.207c1.14 2.666-.267 6.123-3.142 7.721-2.876 1.597-6.133.73-7.273-1.936-1.141-2.666.265-6.123 3.142-7.72 2.875-1.598 6.132-.73 7.273 1.935M130.2 119.84c1.27 2.967-.458 6.904-3.859 8.793-3.4 1.888-7.186 1.015-8.456-1.952-1.27-2.967.459-6.903 3.86-8.792 3.4-1.889 7.186-1.015 8.455 1.952" fill="#E0A865"/>
        <path d="M160.346 110.636c1.01 2.363-.657 5.66-3.724 7.363-3.068 1.704-6.374 1.17-7.385-1.192-1.011-2.363.657-5.66 3.724-7.363 3.068-1.704 6.374-1.17 7.385 1.192" fill="#C1624F"/>
        <path d="M61.144 144.379c.26 3.762-2.96 7.12-7.193 7.5-4.233.382-7.876-2.358-8.137-6.12-.261-3.761 2.96-7.12 7.193-7.501 4.233-.381 7.876 2.359 8.137 6.12" fill="#E0A865"/>
        <path d="M53.334 147.758c.261 3.762-2.959 7.12-7.192 7.501-4.234.381-7.876-2.359-8.137-6.12-.261-3.762 2.959-7.12 7.192-7.502 4.234-.381 7.877 2.36 8.137 6.121" fill="#E0A865"/>
        <path d="M59.314 138.368c.26 3.762-2.96 7.12-7.193 7.5-4.233.382-7.877-2.358-8.138-6.12-.26-3.76 2.96-7.12 7.193-7.5 4.233-.382 7.877 2.358 8.138 6.12M101.592 65.428c.26 3.762-2.96 7.12-7.193 7.501-4.233.382-7.876-2.359-8.137-6.12-.26-3.762 2.96-7.12 7.192-7.502 4.234-.38 7.877 2.36 8.138 6.121" fill="#E0A865"/>
        <path d="M108.182 58.91c.26 3.761-2.96 7.12-7.193 7.5-4.233.382-7.876-2.358-8.137-6.12-.261-3.761 2.96-7.12 7.192-7.501 4.234-.382 7.877 2.358 8.138 6.12" fill="#E0A865"/>
        <path d="M96.633 53.962c.261 3.762-2.96 7.12-7.192 7.502-4.233.38-7.877-2.36-8.138-6.121-.26-3.762 2.96-7.12 7.193-7.502 4.233-.381 7.876 2.36 8.137 6.121M309.954 82.86c1.162 3.533-1.118 7.774-5.094 9.473-3.976 1.699-8.142.212-9.305-3.32-1.162-3.534 1.118-7.775 5.094-9.474 3.976-1.699 8.142-.212 9.305 3.321" fill="#E0A865"/>
        <path d="M299.144 87.717c1.055 3.577-1.354 7.725-5.38 9.265-4.026 1.54-8.144-.112-9.198-3.689-1.053-3.577 1.355-7.725 5.38-9.265 4.027-1.54 8.145.112 9.198 3.69" fill="#E0A865"/>
        <path d="M307.041 89.233c1.162 3.533-1.118 7.774-5.094 9.473-3.976 1.699-8.142.212-9.304-3.32-1.163-3.534 1.117-7.775 5.093-9.474 3.976-1.699 8.142-.212 9.305 3.321" fill="#E0A865"/>
        <path d="M373.43 65.428c.262 3.762-2.958 7.12-7.191 7.501-4.234.382-7.877-2.359-8.138-6.12-.26-3.762 2.96-7.12 7.193-7.502 4.233-.38 7.876 2.36 8.137 6.121" fill="#912F1C"/>
        <path d="M378.208 47.07c.26 3.762-2.96 7.12-7.192 7.5-4.234.382-7.877-2.358-8.138-6.12-.261-3.76 2.96-7.12 7.193-7.5 4.233-.382 7.876 2.358 8.137 6.12M365.255 85.93c.26 3.761-2.96 7.119-7.192 7.5-4.234.382-7.877-2.358-8.138-6.12-.261-3.761 2.96-7.12 7.193-7.501 4.233-.382 7.876 2.359 8.137 6.12" fill="#C1624F"/>
    </g>
</svg>
