<svg width="445" height="260" viewBox="0 0 445 260" xmlns="http://www.w3.org/2000/svg" xmlns:xlink="http://www.w3.org/1999/xlink">
    <defs>
        <path id="a" d="M0 0h412.52v195.608H0z"/>
    </defs>
    <g fill="none" fill-rule="evenodd">
        <path d="M108.314 212.782c-20.373 5.027-69.085 51.314-74.793 45.935C2.618 229.601-9.76 120.787 8.544 64.131 34.924-17.53 97.314-1.711 178.28 8.16c28.128 3.43 46.903 10.103 80.741 17.014.943.192 2.753.688 5.01 1.26 5.364 1.361 13.257 3.151 18.034 2.317 57.711-10.068 93.568-.981 118.017 3.435 47.645 8.605 51.804 34.957 37.078 43.047-95.708 52.582-65.954 49.744-167.347 77.965-3.655 1.017-14.396 19.666-31.184 30.947-38.765 26.047-79.914 16.2-130.314 28.636" fill="#D6725B"/>
        <path d="M435.233 90.677c10.95-11.744 12.064-28.557 6.347-37.462-2.565 7.311-21.014 18.244-27.19 22.015-12.055 7.362-28.545 16.62-80.194 34.279-47.657 16.293-62.615 6.704-62.615 6.704-37.16 19.465-65.077 19.586-89.947 22.073-24.87 2.487-48.655 24.443-106.644 47.609-34.608 13.826-59.09.565-71.624-8.236.154 1.088.313 2.172.477 3.252l.017.112c.16 1.052.326 2.1.495 3.145l.032.193a304.53 304.53 0 0 0 1.095 6.294l.052.284c.183.983.37 1.963.562 2.936l.057.288c.192.972.388 1.94.59 2.903a259.056 259.056 0 0 0 .68 3.162c.015.076.033.151.05.227.216.973.436 1.942.66 2.902l.03.122c1.673 7.129 3.589 13.908 5.735 20.191l.002.006c.253.74.512 1.47.77 2.197.067.185.131.374.198.558.229.633.462 1.257.696 1.88.101.27.202.544.304.812.216.566.436 1.122.656 1.679.125.314.248.63.373.941.21.518.422 1.027.634 1.535.142.339.283.679.426 1.013a136.244 136.244 0 0 0 1.089 2.47c.202.448.407.89.613 1.329a103.4 103.4 0 0 0 2.828 5.602 85.68 85.68 0 0 0 1.206 2.14c.201.348.403.693.607 1.032.208.345.417.683.628 1.02.2.324.403.648.606.964.218.339.439.669.66.998.2.3.4.602.603.895.229.33.46.652.693.973.198.276.397.556.598.825.242.325.488.638.733.952.195.25.388.505.584.748.262.323.527.633.792.945.184.217.368.442.554.654.297.338.598.659.9.981.157.17.313.347.472.512.451.47.907.922 1.367 1.356l.03.03c.981.925 3.233.323 6.393-1.333.287-.151.582-.31.884-.478a58.951 58.951 0 0 0 1.896-1.103c.33-.2.667-.407 1.01-.622 16.803-10.516 49.013-38.55 64.61-42.399 33.7-8.316 63.264-6.67 90.745-12.453 2.29-.481 4.568-1.017 6.831-1.612a124.78 124.78 0 0 0 4.435-1.254c9.633-2.919 19.037-7.09 28.304-13.318 12.55-8.432 21.718-20.979 27.076-27.204l.147-.17a44.77 44.77 0 0 1 1.442-1.596c.287-.3.563-.58.819-.817.169-.157.33-.3.486-.428.467-.385.867-.653 1.214-.731 97.816-21.896 137.63-32.717 165.42-62.522" fill="#BF6151"/>
        <g transform="translate(32.48 63.54)">
            <mask id="b" fill="#fff">
                <use xlink:href="#a"/>
            </mask>
            <path d="M237.408 76.288c-31.369 4.286-36.431 12.78-97.774 30.833-49.61 14.6-92.895 31.399-111.354 50.75.002.002-11.992 14.59-21.605 30.482-1.271 2.102-4.232 4.794-6.675 5.792.345.351.69.703 1.041 1.033.105.1.23.175.364.24.019.01.04.016.06.024l.055.02a1.85 1.85 0 0 0 .409.11c.022.003.044.008.067.01.167.022.344.032.537.022h.005c.214-.012.444-.041.689-.089h.005c13.24-2.77 53.627-41.599 72.07-46.15.308-.076.614-.144.921-.216l.42-.101.429-.103.233-.056a.959.959 0 0 1 .142-.055c.044-.005.088-.008.133-.012l.007-.001.01-.002c1.222-.29 2.439-.568 3.65-.834l.007-.002.05-.01c.002 0 .005 0 .007-.002 11.8-2.583 23.094-4.034 33.973-5.124l.07-.007a886.616 886.616 0 0 1 10.586-.986l4.717-.416a903.33 903.33 0 0 0 2.46-.218c.944-.084 1.884-.17 2.822-.256l.557-.052c2.057-.19 4.1-.386 6.13-.595l.147-.015c1.036-.107 2.068-.217 3.096-.331l.006-.001.08-.01a307.73 307.73 0 0 0 6.149-.744l.077-.01.081-.011c2.033-.27 4.054-.563 6.062-.885l.067-.01a179.398 179.398 0 0 0 6.123-1.09l.01-.002c.002 0 .004 0 .006-.002 1.005-.197 2.007-.404 3.006-.62.014-.004.029-.008.043-.01l.032-.008c1.977-.43 3.944-.901 5.9-1.418l.163-.042.016-.005c1.93-.512 5.912-1.727 5.954-1.74.963-.31 9.514-2.422 13.802-4.309 11.253-4.953 15.856-8.92 15.856-8.92s16.465-12.95 27.497-30.351l.358-.053.054-.021c.04-.015.082-.047.122-.05 74.263-3.325 95.276 13.018 158.12-46.017C398.33 40.94 413.227 20.155 412.495 0c0 0-11.175 16.258-24.977 24.915-74.57 46.78-113.829 46.416-150.11 51.373" fill="#AF574B" mask="url(#b)"/>
        </g>
        <path d="M265.382 26.773c5.783 12.775 3.766 97.029-1.3 133.97 2.604-1.184 9.342-6.503 10.701-7.74 0 0-3.252-44.401-2.133-63.599 3.22-55.214 6.525-60.44 6.525-60.44-7.596-1.383-13.793-2.19-13.793-2.19" fill="#A55249"/>
        <path d="M13.05 101.991c-3.634 28.813 1.768 58.21 33.084 60.618 50.22 3.863 92.574-33.521 122.805-42.097 24.882-7.059 42.41-9.881 63.372-13.09 29.405-4.5 35.207-56.9 9.755-71.51-35.655-20.466-96.274-25.649-129.757-26.966-56.054-2.207-90.424 22.977-99.26 93.045M318.15 30.029c-3.599 0-27.691-.849-33.104 5.874-8.37 10.395-8.985 53.83-5.066 60.463 6.808 11.523 24.115 3.523 46.175-1.669 22.152-5.214 69.294-32.412 80.406-42.742 4.497-4.18 11.566-10.17-12.557-15.062-33.853-6.864-75.854-6.864-75.854-6.864" fill="#E57D61"/>
        <path d="M118.975 23.44c94.4 8.747 25.478 32.651-5.263 51.367-19.865 12.094-52.13 20.919-64.92 16.869-36.228-11.471-8.536-75.53 70.183-68.237M286.735 49.821c.82-4.822 3.93-8.681 7.944-10.38 8.779-3.717 18.35-5.344 29.57-4.173 14.085 1.47 24.333 5.737 13.12 14.147-18.62 13.966-41.129 14.169-47.845 9.023-2.938-2.251-3.305-5.582-2.789-8.617" fill="#ED917C"/>
    </g>
</svg>
