<svg width="280" height="280" viewBox="0 0 280 280" xmlns="http://www.w3.org/2000/svg" xmlns:xlink="http://www.w3.org/1999/xlink">
    <defs>
        <path d="M0 140.001c0 77.322 62.68 140.002 139.999 140.002C217.32 280.003 280 217.323 280 140 280 62.681 217.32 0 139.999 0 62.679 0 0 62.681 0 140.001z" id="a"/>
    </defs>
    <g fill="none" fill-rule="evenodd">
        <mask id="b" fill="#fff">
            <use xlink:href="#a"/>
        </mask>
        <path fill="#FFF" mask="url(#b)" d="M21.235 202.977h223.58V84.116H21.236z"/>
        <path d="M16.105 203.536c-3.079-17.05-1.868-38.152 1.59-60.015-5.892-2.896-11.699-6-17.451-9.206-.063 1.72-.106 3.446-.106 5.18 0 23.543 5.822 45.723 16.094 65.192l-.002-1.114a22.874 22.874 0 0 1-.125-.037" fill="#F2ECDD" mask="url(#b)"/>
        <path d="M113.363 276.871a140.595 140.595 0 0 0 26.707 2.557c7.764 0 15.376-.643 22.796-1.86-6.67-4.115-13.449-9.275-19.252-9.652-10.372-.673-20.521 5.274-30.251 8.955" fill="#F6963D" mask="url(#b)"/>
        <path d="M47.322 34.728C27.67 52.14 12.945 74.991 5.524 100.928c2.757 1.968 9.847 6.521 18.33 11.613 7.139-30.425 16.792-59.323 23.468-77.813M270.816 89.56c-8.794-23.01-23.48-43.103-42.22-58.43 6.158 16.792 15.566 44.275 22.97 73.948 8.95-6.833 16.59-13.092 19.25-15.519M261.132 203.482l.257-.067c0 1.711.193 3.807.25 5.414 11.682-20.44 18.362-44.105 18.362-69.332 0-5.65-.345-11.22-.996-16.695-6.738 4.843-13.583 9.53-20.627 13.848 4.311 24.26 6.14 48.01 2.754 66.832" fill="#F2ECDD" mask="url(#b)"/>
        <path d="M145.645 231.146c-6.039-.251-12.09-.553-18.144-.915.857.692 2.018 1.12 3.295 1.12h25.634a5.53 5.53 0 0 0 1.308-.157c-4.024.085-8.055.076-12.093-.048" fill="#57ACB5" mask="url(#b)"/>
        <path d="M259.95 211.706c-30.606 9.65-61.601 17.282-92.989 19.12v.359c0 2.204-2.146 4.007-4.768 4.007h-37.159c-2.623 0-4.77-1.803-4.77-4.007v-1.42c-33.345-2.294-66.745-6.762-99.028-16.366 20.204 32.421 53.303 55.969 92.127 63.472 9.73-3.682 19.88-9.629 30.25-8.955 5.804.377 12.583 5.538 19.253 9.654 41.188-6.751 76.325-31.476 97.084-65.864" fill="#F6963D" mask="url(#b)"/>
        <path d="M239.16 147.987c-3.488 4.392-6.45 9.215-9.318 14.053-.711 1.202-1.42 2.406-2.126 3.604-.423.8-.953 1.537-1.466 2.268-3.821 7.256-9.81 12.645-16.37 17.287-.547.386-1.097.768-1.651 1.145a505.04 505.04 0 0 1-2.273 1.488 216.343 216.343 0 0 1-1.814 1.173c-.508.325-1.016.647-1.524.967l-.23.146c-.074.047-.149.095-.223.14l46.253 16.323c4.25-.961 8.489-1.991 12.713-3.1 3.388-18.821 1.559-42.572-2.754-66.83-5.861 3.593-11.86 6.931-18.05 9.886-.399.475-.781.964-1.167 1.45M183.665 183.671l.036-.023c.222-.145.445-.283.668-.406 1.22-.759 2.516-1.434 3.827-2.097.898-.453 1.796-.907 2.69-1.37l-.04.027c1.732-.897 3.425-1.854 4.95-3.04.588-.42 1.18-.844 1.786-1.262.604-.419 1.22-.83 1.852-1.234-.727.216-1.444.472-2.151.76a37.39 37.39 0 0 0-2.105.933 456.735 456.735 0 0 0-7.024 3.362 206.833 206.833 0 0 0-3.53 1.778c-1.065.608-2.134 1.232-3.215 1.835l2.197.775.059-.038M55.13 129.547c-.013-.007.24.108.376.17 1.01.077 2.02.119 3.02.08 2.195-.083 4.328-.48 6.218-1.351 5.414-2.496 10.667-5.338 16.184-7.607 4.722-1.941 11.492-4.73 16.042-.933 2.274 2.951 1.96 7.427-.606 10.813-3.676 3.773-8.852 6.82-13.822 9.113-.684.278-1.373.537-2.068.78.934.298 1.849.585 2.753.863.904.277 1.798.542 2.692.794 1.2.372 2.346.714 3.467 1.025.23.064.458.121.687.183a58.816 58.816 0 0 0 1.578.402c.302.071.605.142.907.208.21.046.418.094.626.137.492.102.982.198 1.476.284.115.02.233.036.35.055a37.735 37.735 0 0 0 1.768.252c.375.045.754.086 1.136.12.17.016.34.033.512.047.548.042 1.1.079 1.669.1.809.126 1.611.254 2.408.386 5.578.919 10.885 1.977 16.269 3.375 1.013.3 2.024.618 3.03.933.88.304 1.817.64 2.757 1.017 3.755 1.51 7.52 3.706 7.472 7.552-.036 3.02-1.356 5.036-3.363 6.339-.67.435-1.414.79-2.214 1.077-4.762 1.668-10.043 2.046-15.182 1.084a33.968 33.968 0 0 1-3.081-.726c-1.946-.487-7.021-2.134-11.722-3.66 4.065 1.473 8.127 3.072 12.49 4.35.852.261 1.703.515 2.55.77 3.39 1.02 6.73 2.07 9.442 3.972.602.422 1.174.888 1.707 1.402 1.838.99 2.612 3.215 2.635 5.078.034 2.483-1.43 4.655-3.61 6.109-.545.363-1.135.682-1.76.948-6.433 2.037-12.431-.865-18.262-3.35a198.516 198.516 0 0 0-3.713-1.353 464.481 464.481 0 0 0-7.367-2.523 38.194 38.194 0 0 0-2.198-.683 24.06 24.06 0 0 0-2.226-.503 57.51 57.51 0 0 1 1.984 1.01c.65.345 1.287.697 1.918 1.045 1.655 1.002 3.448 1.755 5.273 2.445l-.043-.023c.941.357 1.887.702 2.83 1.048 1.38.507 2.745 1.026 4.045 1.638.237.097.475.207.712.326l.037.018c.183.094.367.192.55.298 3.173 1.811 6.14 5.373 5.012 8.44l52.777-10.843a6.13 6.13 0 0 1-.531-1.915c-.192-1.853.317-4.152 2.028-5.348.47-.574.983-1.103 1.532-1.593 2.471-2.204 5.668-3.634 8.916-5.043.813-.352 1.628-.703 2.442-1.06 4.186-1.778 8.034-3.838 11.9-5.773-4.492 2.062-9.342 4.287-11.217 4.999-.986.408-1.976.769-2.975 1.077-4.993 1.555-10.283 1.792-15.205.69a10.645 10.645 0 0 1-2.325-.813c-2.145-1.06-3.69-2.909-4.078-5.903-.494-3.815 2.99-6.435 6.544-8.371.89-.484 1.783-.925 2.62-1.331.963-.429 1.93-.863 2.9-1.278 5.185-2.015 10.333-3.684 15.767-5.245.776-.224 1.559-.444 2.347-.664a40.611 40.611 0 0 0 1.646-.293c.169-.033.335-.07.502-.105.375-.08.747-.164 1.114-.252.177-.042.355-.085.53-.13a43.1 43.1 0 0 0 1.197-.326c.114-.032.229-.063.343-.096a44.183 44.183 0 0 0 2.037-.663 51.687 51.687 0 0 0 2.398-.894c.22-.087.44-.172.66-.261 1.078-.44 2.176-.913 3.324-1.422.86-.355 1.718-.722 2.583-1.102.865-.38 1.74-.773 2.635-1.177-.72-.16-1.435-.337-2.146-.534-5.203-1.7-10.699-4.123-14.79-7.444-2.806-2.926-3.686-7.074-2.095-10.224.074-.15.15-.3.238-.444 4.077-4.302 11.125-2.32 16.041-.94 5.743 1.613 11.292 3.825 16.958 5.672 1.98.646 4.144.792 6.334.62.998-.079 1.996-.237 2.99-.432.127-.075.262-.16.391-.236-.013.007-.024.016-.037.024 7.851-4.724 17.96-12.025 26.797-18.77-7.406-29.673-16.814-57.155-22.972-73.948C204.478 11.405 173.658-.434 140.07-.434c-35.582 0-68.056 13.287-92.747 35.162-6.677 18.49-16.329 47.388-23.468 77.813 10.112 6.069 22.197 12.896 31.276 17.006M39.26 207.142l53.437-10.98c-.2-.068-.4-.136-.6-.207a211.788 211.788 0 0 1-5.076-2.276l.036.02c-.051-.025-.102-.05-.154-.073-.62-.288-1.233-.576-1.841-.864l-.223-.108a240.777 240.777 0 0 1-3.586-1.747c-.164-.082-.329-.162-.494-.245-.632-.315-1.272-.635-1.932-.968-.593-.31-1.184-.624-1.773-.946-7.055-3.845-13.63-8.501-18.27-15.263-.594-.668-1.206-1.338-1.718-2.084-.932-1.226-1.865-2.458-2.804-3.687-.283-.37-.567-.74-.852-1.108-.693-.9-1.394-1.797-2.1-2.686-2.417-3.038-4.927-5.998-7.666-8.724-.44-.438-.876-.88-1.327-1.304-8.425-2.875-16.603-6.431-24.621-10.371-3.46 21.863-4.67 42.965-1.591 60.015l.125.037v-.596a913.197 913.197 0 0 0 23.03 4.165" fill="#FFF" mask="url(#b)"/>
        <path d="M251.567 105.078c-7.406-29.673-16.814-57.156-22.972-73.948C204.478 11.405 173.658-.434 140.07-.434c-26.162 0-50.64 7.19-71.584 19.69-1.043 14.273-3.19 28.445-5.907 42.492-4.179 21.61-9.857 42.962-14.148 64.562 2.351 1.193 4.607 2.29 6.7 3.236-.013-.006-.027-.012-.04-.02.137.063.28.13.416.19 1.008.077 2.02.12 3.02.081 2.195-.083 4.328-.48 6.218-1.351 5.414-2.494 10.667-5.338 16.184-7.607 4.722-1.941 11.492-4.73 16.042-.933 2.274 2.951 1.96 7.426-.605 10.813-3.677 3.772-8.852 6.82-13.823 9.113a41.98 41.98 0 0 1-2.068.78c.934.299 1.85.587 2.753.863.904.276 1.798.541 2.692.793 1.2.373 2.346.715 3.467 1.026.23.064.458.122.687.183a58.804 58.804 0 0 0 1.578.401c.302.072.606.142.906.209.21.046.419.093.627.137.492.102.982.198 1.476.284.115.02.233.036.35.055.406.068.816.13 1.227.186.18.024.36.044.541.066.375.045.754.086 1.136.12l.512.047c.548.042 1.1.079 1.67.1.807.126 1.609.254 2.406.386 5.579.919 10.886 1.977 16.27 3.375 1.013.3 2.023.618 3.03.933.88.305 1.818.64 2.757 1.017 3.755 1.51 7.52 3.706 7.472 7.553-.037 3.019-1.356 5.035-3.363 6.337-.67.436-1.414.791-2.214 1.078-4.762 1.667-10.043 2.046-15.182 1.084a33.968 33.968 0 0 1-3.081-.726c-1.945-.487-7.02-2.134-11.721-3.66 4.063 1.473 8.126 3.072 12.49 4.35.85.261 1.7.515 2.55.77 3.39 1.02 6.73 2.07 9.441 3.972.602.422 1.174.888 1.707 1.403 1.838.99 2.612 3.214 2.635 5.077.032 2.483-1.429 4.655-3.61 6.108-.545.364-1.135.683-1.76.95-6.433 2.036-12.432-.866-18.261-3.35a208.05 208.05 0 0 0-3.714-1.354 464.481 464.481 0 0 0-7.367-2.523 38.194 38.194 0 0 0-2.198-.683 24.06 24.06 0 0 0-2.226-.503 57.51 57.51 0 0 1 1.984 1.01c.65.345 1.287.697 1.918 1.045 1.655 1.002 3.448 1.755 5.273 2.445l-.042-.023c.94.357 1.886.702 2.83 1.048 1.379.506 2.744 1.026 4.044 1.638.236.097.474.207.712.326l.037.018c.183.093.366.192.55.298 3.172 1.811 6.14 5.373 5.01 8.44l52.779-10.843a6.13 6.13 0 0 1-.531-1.915c-.192-1.852.317-4.153 2.028-5.348.47-.574.983-1.103 1.532-1.592 2.471-2.205 5.668-3.636 8.916-5.045.812-.352 1.628-.702 2.442-1.06 4.186-1.777 8.034-3.837 11.9-5.772-4.492 2.061-9.342 4.287-11.217 4.999a33.88 33.88 0 0 1-2.976 1.077c-4.991 1.555-10.282 1.792-15.204.69a10.71 10.71 0 0 1-2.325-.812c-2.145-1.06-3.69-2.91-4.077-5.904-.494-3.815 2.99-6.435 6.543-8.371.89-.484 1.781-.925 2.62-1.331.963-.429 1.93-.863 2.9-1.279 5.185-2.013 10.334-3.683 15.767-5.244a226.53 226.53 0 0 1 2.347-.663 42.952 42.952 0 0 0 1.646-.294c.17-.034.336-.07.502-.105.375-.08.747-.163 1.115-.252.176-.043.354-.085.53-.13.402-.102.8-.212 1.196-.326.113-.032.229-.063.343-.096a44.183 44.183 0 0 0 2.036-.662c.293-.102.586-.206.88-.313.224-.083.45-.166.676-.252.28-.108.562-.218.844-.33.22-.087.438-.172.66-.261 1.076-.44 2.175-.913 3.323-1.422.86-.355 1.718-.722 2.583-1.1.865-.382-10.21-5.837-14.3-9.157-2.807-2.926-3.687-7.074-2.096-10.224.073-.15 27.57 2.441 33.238 4.29 1.978.644 4.143.79 6.333.619.998-.08 1.996-.238 2.99-.433.128-.075.262-.16.391-.237l-.037.025c7.851-4.724 17.96-12.025 26.797-18.77" fill="#FFF" mask="url(#b)"/>
        <path d="M258.377 136.65c-5.861 3.594-11.86 6.933-18.05 9.888-.4.475-.781.964-1.167 1.449-3.488 4.392-6.45 9.215-9.317 14.053-.713 1.203-1.42 2.406-2.127 3.604a15.526 15.526 0 0 1-.973 1.56c.81 10.778 1.793 21.625 1.903 32.4l19.772 6.978a382.97 382.97 0 0 0 12.713-3.1c3.388-18.821 1.559-42.572-2.754-66.831M212.19 26.715c3.147 8.116 5.68 16.263 7.317 24.82 2.964 15.501 4.579 31.514 5.641 47.252.55 8.153.61 16.316.572 24.48 7.707-4.728 17.361-11.712 25.847-18.19-7.406-29.672-16.813-57.154-22.971-73.947a140.23 140.23 0 0 0-20.01-13.657c1.177 3.089 2.408 6.16 3.603 9.242M48.066 97.515c5.526-24.392 11.163-48.866 13.423-73.8a140.689 140.689 0 0 0-14.167 11.013c-6.676 18.49-16.33 47.39-23.468 77.813 5.852 3.513 10.974 15.188 17.183 18.535 1.765-8.575 5.095-25.027 7.029-33.56" fill="#EFEFEF" mask="url(#b)"/>
        <path d="M58.784 173.484c-.594-.666-1.206-1.337-1.719-2.082-.932-1.226-1.863-2.458-2.803-3.688-.282-.37-.568-.738-.852-1.108a222.88 222.88 0 0 0-2.101-2.686c-2.354-2.96-4.802-5.844-7.459-8.51-1.795 17.048-2.095 34.225-2.813 51.367l51.66-10.614c-.2-.07-.4-.137-.599-.209a217.362 217.362 0 0 1-5.078-2.274l.037.018-.155-.073c-.62-.288-1.233-.574-1.84-.864l-.224-.107a240.819 240.819 0 0 1-4.08-1.993c-.632-.313-1.272-.635-1.93-.966a130.6 130.6 0 0 1-1.775-.946c-7.054-3.847-13.63-8.502-18.27-15.265" fill="#FFF" mask="url(#b)"/>
        <path d="M34.432 206.317c.366-8.68.63-17.364 1.03-26.043.431-9.372 1.039-18.76 2.106-28.09-6.76-2.532-13.37-5.468-19.872-8.663-3.46 21.863-4.67 42.965-1.59 60.015l.125.037-.001-.596a920.51 920.51 0 0 0 18.202 3.34" fill="#EFEFEF" mask="url(#b)"/>
        <path d="M158.615 216.95a5.455 5.455 0 0 0-2.185-.453h-25.633c-.468 0-.917.06-1.344.167 9.72.348 19.446.454 29.162.285" fill="#FFF" mask="url(#b)"/>
        <path d="M105.983 195.651a9.954 9.954 0 0 1-3.624 1.573c-1.278.28-2.617.334-3.986.22-1.858-.158-3.774-.632-5.676-1.282l-53.437 10.98c26.683 4.47 53.81 7.72 81.029 9.121.241-2.017 2.283-3.604 4.745-3.604h37.159c2.622 0 4.768 1.802 4.768 4.006v.07c27.387-.927 54.659-4.096 81.458-10.153l-46.254-16.323a212.724 212.724 0 0 1-6.389 3.846c-1.995.995-4.039 1.796-6.06 2.208-1.346.274-2.682.376-3.985.246a9.93 9.93 0 0 1-3.781-1.14c-6.087-2.761-2.424-8.983 1.656-11.709l-2.196-.776c-4.501 2.513-9.19 4.642-14.533 3.615a10.905 10.905 0 0 1-1.86-.738c-1.694-.863-3.047-2.15-3.765-3.733l-52.778 10.844c-.362.986-1.15 1.92-2.49 2.73" fill="#FFF" mask="url(#b)"/>
        <path d="m261.132 203.482-.01.053s-4.489 1.324-11.842 3.35l11.185 3.948c.397-.666.791-1.331 1.175-2.004-.058-1.607-.251-3.703-.251-5.414l-.257.067M33.345 208.357c-9.721-2.625-16.198-4.515-17.114-4.784v1.114a139.61 139.61 0 0 0 3.619 6.443l13.495-2.773z" fill="#421B59" mask="url(#b)"/>
        <path d="M33.345 208.357 19.85 211.13c.454.762.916 1.517 1.386 2.27 32.283 9.604 65.683 14.071 99.029 16.366v-2.925c-27.83-3.23-65.338-12.656-86.92-18.484M138.613 227.955c-3.752.07-7.996-.126-12.58-.527.026 1.1.584 2.091 1.467 2.803 6.056.363 12.106.664 18.146.915 4.036.124 8.067.134 12.092.048 1.991-.48 3.46-2.026 3.46-3.848v-1.034c-8.478 1.129-16.227 1.76-22.585 1.643M166.962 230.826c31.387-1.839 62.383-9.471 92.988-19.12.174-.29.343-.583.516-.874l-11.187-3.947c-18.038 4.97-53.36 14.186-82.317 18.601v5.34zM16.23 202.977v.596c.918.269 7.393 2.16 17.116 4.784l5.913-1.215a913.197 913.197 0 0 1-23.029-4.165M249.28 206.885a761.033 761.033 0 0 0 11.842-3.35l.01-.053a382.97 382.97 0 0 1-12.714 3.1l.862.303z" fill="#421B59" mask="url(#b)"/>
        <path d="M120.264 216.665c0-.136.01-.269.025-.402-27.22-1.401-54.346-4.652-81.03-9.12l-5.914 1.214c21.582 5.828 59.09 15.253 86.92 18.483v-10.175zM158.615 216.95c-9.716.168-19.442.062-29.162-.286-1.974.49-3.426 2.028-3.426 3.84v6.843c0 .027.005.054.005.08 4.587.401 8.829.597 12.581.528 6.358.118 14.107-.514 22.587-1.643v-5.809c0-1.542-1.055-2.886-2.585-3.554M166.962 216.734v8.751c28.957-4.414 64.28-13.63 82.317-18.6l-.86-.304c-26.8 6.058-54.072 9.227-81.457 10.153" fill="#421B59" mask="url(#b)"/>
        <path d="M156.43 231.352h-25.633c-1.278 0-2.438-.429-3.296-1.121a807.456 807.456 0 0 1-7.237-.465v1.42c0 2.202 2.146 4.005 4.77 4.005h37.159c2.622 0 4.768-1.803 4.768-4.005v-.36c-3.07.18-6.145.303-9.223.369a5.538 5.538 0 0 1-1.308.157M162.193 212.66h-37.16c-2.46 0-4.503 1.586-4.745 3.603 3.055.158 6.11.29 9.165.4a5.568 5.568 0 0 1 1.343-.164h25.634c.787 0 1.528.163 2.184.45 2.784-.049 5.566-.12 8.348-.215v-.069c0-2.204-2.147-4.006-4.77-4.006" fill="#C2CBCE" mask="url(#b)"/>
        <path d="M161.2 226.312v1.035c0 1.821-1.47 3.366-3.463 3.847a248.86 248.86 0 0 0 9.225-.367v-5.342c-1.952.298-3.877.576-5.763.827M126.032 227.428a202.53 202.53 0 0 1-5.768-.587v2.925c2.413.167 4.825.32 7.236.465-.883-.713-1.441-1.705-1.468-2.803" fill="#C2CBCE" mask="url(#b)"/>
        <path d="M161.2 220.503v5.81c1.885-.253 3.81-.53 5.762-.827v-8.751c-2.781.093-5.565.166-8.348.215 1.532.668 2.585 2.011 2.585 3.553M126.027 220.503c0-1.812 1.453-3.35 3.426-3.839-3.055-.11-6.11-.243-9.164-.4a3.47 3.47 0 0 0-.025.4v10.177c1.976.229 3.899.425 5.768.587-.001-.027-.005-.054-.005-.082v-6.843z" fill="#C2CBCE" mask="url(#b)"/>
        <path fill="#C0222C" mask="url(#b)" d="m131.354 63.143 14.316 9.951 10.52-40.944-2.398 56.748-10.336-5.234-3.211 24.926zM77.002 93.231l17.305-2.12-19.443-37.538 36.031 43.907-11.195 2.985 14.218 20.724zM205.747 93.231l-17.305-2.12 19.443-37.538-36.031 43.907 11.195 2.985-14.218 20.724z"/>
        <path d="m207.674 140.136 16.516 31.372s123.218-46.544 153.5-91.727c2.483-38.401-48.007-39.515-48.007-39.515l-122.01 99.87z" fill="#CEA3B2" mask="url(#b)"/>
        <path d="m168.092 132.578-7.526-4.863s-5.25 8.565 5.947 14.955c1.798 1.015 9.465 2.434 9.465 2.434s-26.605 14.04-34.236 19c-12.393 8.066-4.78 12.129-4.78 12.129l10.67-3.749-11.794 6.353c-4.06 2.187-5.643 6.213-3.553 9.016 1.574 2.113 10.061 1.168 13.298.486-3.71 2.249-6.775 6.9-4.574 9.842 2.288 3.071 23.108-4.971 23.108-4.971-2.704 1.545-3.595 4.744-1.99 7.142 1.614 2.402 30.34-11.277 30.34-11.277.5-.281.931-.623 1.3-1l14.032-4.068 16.391-12.5-16.516-31.371-9.035-9.05-30.547 1.492zM52.42 134.599 35.905 165.97s-123.216-46.544-153.499-91.728c-2.484-38.4 48.006-39.515 48.006-39.515l122.01 99.87z" fill="#CEA3B2" mask="url(#b)"/>
        <path d="m92.003 127.04 7.525-4.863s5.252 8.566-5.947 14.955c-1.797 1.015-9.464 2.434-9.464 2.434s26.605 14.04 34.235 19c12.394 8.066 4.781 12.13 4.781 12.13l-10.67-3.75 11.792 6.353c4.061 2.188 5.645 6.214 3.556 9.018-1.575 2.111-10.062 1.167-13.298.485 3.708 2.248 6.775 6.9 4.574 9.84-2.289 3.072-23.11-4.97-23.11-4.97 2.705 1.545 3.596 4.744 1.99 7.143-1.613 2.402-30.34-11.278-30.34-11.278a5.8 5.8 0 0 1-1.298-.999l-14.033-4.067-16.391-12.5 16.515-31.373 9.037-9.049 30.546 1.491z" fill="#CEA3B2" mask="url(#b)"/>
    </g>
</svg>
