<svg width="280" height="280" viewBox="0 0 280 280" xmlns="http://www.w3.org/2000/svg" xmlns:xlink="http://www.w3.org/1999/xlink">
    <defs>
        <path d="M0 48.815c18.541 27.254 52.14 45.464 90.509 45.464 39.923 0 74.674-19.715 92.682-48.816C164.648 18.21 131.05 0 92.68 0 52.758 0 18.007 19.715 0 48.815" id="a"/>
        <path d="M8.719 6.173A44.23 44.23 0 0 0 .069 30.17c-1.35 24.5 17.415 45.46 41.915 46.81 24.503 1.352 45.46-17.415 46.812-41.916.637-11.53-3.182-22.273-9.956-30.56C68.632 1.581 57.743 0 46.443 0 33.154 0 20.435 2.186 8.72 6.173z" id="c"/>
        <path d="M10.01 4.602A41.47 41.47 0 0 0 .218 27.46c-2.335 22.886 14.322 43.333 37.21 45.667 22.883 2.337 43.329-14.32 45.666-37.206C84.338 23.737 80.2 12.245 72.601 3.809 63.13 1.329 53.11 0 42.742 0 31.316 0 20.318 1.614 10.01 4.602z" id="e"/>
        <path d="M.126 21.623C-1.223 34.846 8.402 46.66 21.625 48.008c13.221 1.35 25.035-8.273 26.384-21.497C49.36 13.29 39.734 1.475 26.513.126A24.035 24.035 0 0 0 24.04 0C11.846-.001 1.39 9.23.126 21.623z" id="g"/>
        <path d="M1.891 2.722c-2.527 2.915-2.52 6.96.013 9.036 2.534 2.075 6.638 1.396 9.164-1.52 2.526-2.914 2.52-6.96-.015-9.036C10.063.39 8.831 0 7.55 0c-2 0-4.12.947-5.659 2.722z" id="i"/>
    </defs>
    <g fill="none" fill-rule="evenodd">
        <path d="M280 140c0 77.32-62.68 140-139.999 140C62.681 280 0 217.32 0 140S62.68 0 140.001 0C217.321 0 280 62.68 280 140" fill="#F9F0D9"/>
        <g transform="translate(48.405 92.86)">
            <mask id="b" fill="#fff">
                <use xlink:href="#a"/>
            </mask>
            <path d="M0 48.055C18.541 78.63 52.137 99.062 90.51 99.062c39.922 0 74.673-22.12 92.68-54.77-18.542-30.575-52.139-51.007-90.51-51.007-39.923 0-74.674 22.121-92.68 54.77" fill="#FCEF4B" mask="url(#b)"/>
        </g>
        <g transform="translate(94.642 92.86)">
            <mask id="d" fill="#fff">
                <use xlink:href="#c"/>
            </mask>
            <path fill="#495937" mask="url(#d)" d="M-3.134 80.184H92V-14.95H-3.134z"/>
        </g>
        <g transform="translate(98.343 92.86)">
            <mask id="f" fill="#fff">
                <use xlink:href="#e"/>
            </mask>
            <path fill="#6B7A57" mask="url(#f)" d="M-3.968 77.316h91.251v-91.25h-91.25z"/>
        </g>
        <g transform="translate(116.857 101.41)">
            <mask id="h" fill="#fff">
                <use xlink:href="#g"/>
            </mask>
            <path fill="#442519" mask="url(#h)" d="M-3.074 51.21h54.286V-3.075H-3.074z"/>
        </g>
        <g transform="translate(127.967 105.112)">
            <mask id="j" fill="#fff">
                <use xlink:href="#i"/>
            </mask>
            <path fill="#FFF" mask="url(#j)" d="M-2.488 15.684h17.933v-18.41H-2.488z"/>
        </g>
        <path d="M231.596 138.323c-18.543-27.253-52.14-45.463-90.51-45.463-39.923 0-74.674 19.716-92.681 48.816" stroke="#F6963D" stroke-width="6"/>
    </g>
</svg>
