<svg width="280" height="280" viewBox="0 0 280 280" xmlns="http://www.w3.org/2000/svg" xmlns:xlink="http://www.w3.org/1999/xlink">
    <defs>
        <path id="a" d="M0 0h280v280H0z"/>
    </defs>
    <g fill="none" fill-rule="evenodd">
        <g>
            <mask id="b" fill="#fff">
                <use xlink:href="#a"/>
            </mask>
            <path d="M280 140c0 77.32-62.68 140-140 140S0 217.32 0 140 62.68 0 140 0s140 62.68 140 140" fill="#F9F0D9" mask="url(#b)"/>
        </g>
        <path d="M53.828 214.746h-.078c-2.233.004-4.188-2.663-4.755-6.488l-1.295-8.736a85.877 85.877 0 0 1-.83-16.175l4.095-64.44 5.004-.01 4.603 64.338a85.767 85.767 0 0 1-.762 16.352l-1.25 8.654c-.552 3.825-2.499 6.501-4.732 6.505" fill="#BCE"/>
        <path d="m51.481 119.456-4.061 63.926a85.001 85.001 0 0 0 .824 16.059l1.295 8.736c.285 1.922.943 3.589 1.855 4.695.498.605 1.31 1.326 2.356 1.324h.076c1.922-.003 3.684-2.541 4.189-6.034l1.25-8.653a84.985 84.985 0 0 0 .757-16.248l-4.566-63.811-3.975.006zm-.938 94.116c-1.035-1.259-1.778-3.117-2.092-5.233l-1.295-8.737a86.125 86.125 0 0 1-.836-16.279l4.128-64.965 6.033-.011 4.64 64.849c.27 5.55.012 11.087-.766 16.47l-1.25 8.654c-.594 4.103-2.763 6.972-5.277 6.976l-.076.001c-1.168.002-2.277-.594-3.209-1.725z" fill="#BCE"/>
        <path d="M69.771 98.754c.025 13.997-7.215 21.177-16.161 21.194-8.947.015-16.213-7.138-16.239-21.136-.025-13.998 7.2-29.539 16.147-29.555 8.946-.016 16.227 15.498 16.253 29.497" fill="#BCE"/>
        <path d="M61.52 74.426c-2.492-3.027-5.26-4.624-8.002-4.619-3.92.008-7.912 3.375-10.95 9.238-2.921 5.638-4.66 13.028-4.647 19.766.012 6.445 1.604 11.778 4.604 15.42 2.79 3.388 6.622 5.174 11.084 5.167 9.506-.02 15.634-8.122 15.611-20.644-.016-8.978-3.11-18.755-7.7-24.328m-19.845 40.505c-3.163-3.842-4.842-9.415-4.855-16.117-.012-6.908 1.771-14.487 4.77-20.276 3.282-6.332 7.518-9.824 11.927-9.832 3.082-.005 6.144 1.73 8.853 5.02 4.74 5.756 7.935 15.812 7.951 25.027.013 6.736-1.662 12.335-4.84 16.19-2.948 3.574-7.163 5.547-11.87 5.554-4.733.01-8.972-1.968-11.936-5.566" fill="#BCE"/>
        <path d="M67.68 98.752c.025 12.94-6.281 19.003-14.074 19.018-7.792.014-14.121-6.026-14.145-18.966-.023-12.94 6.267-27.879 14.06-27.892 7.792-.014 14.136 14.9 14.16 27.84" fill="#BCE"/>
        <path d="M59.915 75.211c-2.024-2.456-4.235-3.753-6.393-3.749-3.366.006-6.816 3.208-9.465 8.785-2.545 5.355-4.056 12.292-4.045 18.557.011 5.962 1.414 10.81 4.059 14.021 2.372 2.882 5.67 4.401 9.534 4.395 3.878-.008 7.178-1.55 9.542-4.458 2.616-3.22 3.994-8.064 3.983-14.009-.015-8.722-2.982-18.403-7.215-23.542M43.22 113.525c-2.807-3.41-4.298-8.5-4.309-14.72-.024-13.14 6.352-28.429 14.608-28.444 2.5-.004 5.005 1.431 7.245 4.15 4.45 5.403 7.45 15.145 7.468 24.24.01 6.2-1.451 11.286-4.23 14.705-2.58 3.175-6.175 4.857-10.396 4.865-4.204.007-7.796-1.65-10.386-4.796M230.269 217.167h-.081c-2.354-.02-4.385-2.853-4.94-6.888l-1.27-9.218a90.402 90.402 0 0 1-.698-17.05l5.012-67.848 5.272.046 4.152 67.832a90.424 90.424 0 0 1-.98 17.22l-1.411 9.104c-.625 4.025-2.704 6.822-5.056 6.802" fill="#BCE"/>
        <path d="m228.873 116.794-4.969 67.263a89.578 89.578 0 0 0 .694 16.918l1.27 9.219c.507 3.688 2.296 6.326 4.326 6.346l.08.001c2.001.017 3.866-2.621 4.432-6.273l1.412-9.103a89.49 89.49 0 0 0 .972-17.1l-4.114-67.235-4.103-.036zm1.122 100.991c-2.621-.16-4.778-3.142-5.367-7.42l-1.27-9.22a90.806 90.806 0 0 1-.703-17.168l5.056-68.444 6.443.054 4.187 68.415a90.822 90.822 0 0 1-.987 17.354l-1.41 9.104c-.673 4.34-3.01 7.355-5.68 7.333l-.082-.002c-.062 0-.125-.002-.187-.006z" fill="#BCE"/>
        <path d="m242.288 103.618.266-31.432a2.324 2.324 0 0 0-2.305-2.344h-.047a2.324 2.324 0 0 0-2.344 2.304l-.266 31.433-4.512-.04.265-31.43a2.324 2.324 0 0 0-2.304-2.346h-.047a2.326 2.326 0 0 0-2.345 2.306l-.265 31.432-4.512-.04.266-31.431a2.327 2.327 0 0 0-2.305-2.345h-.047a2.326 2.326 0 0 0-2.345 2.306l-.266 31.431-.007.747-.052 6.228a6.24 6.24 0 0 0 6.186 6.292l10.646.091a6.24 6.24 0 0 0 6.292-6.187l.06-6.975h-.012z" fill="#BCE"/>
        <path d="m221.918 70.315-.09-.004h-.046a1.7 1.7 0 0 0-1.714 1.685l-.326 38.405a5.609 5.609 0 0 0 5.566 5.662l10.646.09a5.622 5.622 0 0 0 5.661-5.566l.053-6.35-.006-.623.267-31.433a1.697 1.697 0 0 0-1.685-1.713h-.048a1.7 1.7 0 0 0-1.713 1.683l-.27 32.06-5.764-.05.27-32.058a1.696 1.696 0 0 0-1.683-1.714h-.047a1.699 1.699 0 0 0-1.713 1.684l-.272 32.059-5.764-.05.272-32.057a1.698 1.698 0 0 0-1.594-1.71m3.014 46.988a6.863 6.863 0 0 1-6.442-6.912l.325-38.406a2.954 2.954 0 0 1 2.976-2.925h.046a2.95 2.95 0 0 1 2.926 2.976l-.261 30.805 3.261.028.26-30.806A2.955 2.955 0 0 1 231 69.137l.048.001c.052 0 .104.003.157.005a2.95 2.95 0 0 1 2.768 2.97l-.26 30.807 3.26.027.26-30.807a2.954 2.954 0 0 1 2.975-2.925h.048a2.949 2.949 0 0 1 2.925 2.975l-.262 30.808.008.626-.06 6.974c-.032 3.786-3.138 6.84-6.924 6.807l-10.644-.09a7.052 7.052 0 0 1-.366-.012" fill="#BCE"/>
        <path d="M211.857 142.045c0 38.52-31.226 69.744-69.745 69.744-38.517 0-69.743-31.225-69.743-69.744s31.226-69.744 69.743-69.744c38.52 0 69.745 31.225 69.745 69.744" fill="#AABAD6"/>
        <path d="M189.203 142.045c0 26.217-21.253 47.47-47.47 47.47s-47.47-21.253-47.47-47.47c0-26.216 21.253-47.469 47.47-47.469s47.47 21.253 47.47 47.47z" stroke="#8FA1BC"/>
        <path d="M187.842 142.045c0 24.935-20.643 45.148-46.109 45.148s-46.11-20.213-46.11-45.148c0-24.935 20.644-45.147 46.11-45.147s46.11 20.212 46.11 45.147" fill="#BFCDE2"/>
    </g>
</svg>
