<svg width="280" height="280" viewBox="0 0 280 280" xmlns="http://www.w3.org/2000/svg" xmlns:xlink="http://www.w3.org/1999/xlink">
    <defs>
        <path id="a" d="M0 0h280v279.58H0z"/>
    </defs>
    <g fill="none" fill-rule="evenodd">
        <g>
            <mask id="b" fill="#fff">
                <use xlink:href="#a"/>
            </mask>
            <path d="M280 139.79c0 77.204-62.68 139.79-140 139.79S0 216.994 0 139.79 62.68 0 140 0s140 62.586 140 139.79" fill="#F9F0D9" mask="url(#b)"/>
        </g>
        <path d="m168.882 130.892 3.498 2.305c-.056-.136-.112-.274-.172-.412-12.19-9.176-34.21-12.586-48.491-22.977a30.06 30.06 0 0 0-3.7-2.295c-12.816 7.686-32.88 12.412-59.973 10.497 4.012 5.437 9.065 10.977 11.846 13.718 5.284 5.206.72 12.284 3.236 20.01.813 2.497 5.895-.465 8.178-.049 3.134.57 7.009 5.536 9.126 7.433.93.831 2.442-3.003 7.32-1.154 4.255 1.613 2.503 4.929 4.195 5.332 1.446.344 1.416-.745 2.018-.406 1.587.896 2.57 1.513 3.38 1.915 2.262 1.12 5.748 3.4 10.274 3.298 5.851-.132 11.78-14.825 19.131-9.85 1.442.976 2.829 1.79 4.205 2.425-3.075-9.106-7.354-13.761-7.354-13.761l33.283-16.029z" fill="#DD7F88"/>
        <path d="M52.513 106.508c.088.393.18.786.276 1.177.881 3.59 2.691 10.004 7.254 10.325 27.093 1.915 47.158-2.81 59.974-10.497-11.574-30.99-69.591 9.426-69.833-13.845-.154-14.77 34.58-34.439 42.914-45.672-21.015 3.188-4.032-.307-13.138 9.427-3.162 5.945-15.16 14.492-17.45 20.908-.162.458-3.532 1.61-4.139 2.002-1.184.76-2.28 1.657-3.207 2.72-1.729 1.981-2.748 4.403-3.262 6.964-1.092 5.442-.602 11.098.61 16.49" fill="#6D2138"/>
        <path d="M230.42 113.517c-30.994-2.82-20.882-23.296-27.807-40.653-7.277-18.24-29.089-34.756-49.889-40.115-44.359-11.43-74.629-.097-90.218 20.915C54.173 64.9 50.031 78.898 50.184 93.668c.241 23.27 44.01.285 69.833 13.845a30.154 30.154 0 0 1 3.7 2.295c14.28 10.39 36.302 13.8 48.491 22.977a29.949 29.949 0 0 1 1.896 1.549l2.244 1.478c5.808-2.358 57.5-21.025 97.91 42.594a139.517 139.517 0 0 0 5.236-37.967c0-.968-.017-1.93-.037-2.893a39.061 39.061 0 0 0-1.506-2.966c-10.265-17.984-25.32-19.041-47.53-21.063" fill="#6D2138"/>
        <path d="M176.312 135.694s.2-.087.569-.23l-2.308-1.524-1.775-1.173-3.599-2.377-34.575 16.017s4.385 4.777 7.487 14.075c.025.076.052.145.077.22 1.522 4.631 1.581 12.355 1.57 14.377 4.91-.553 27.444-4.955 32.554-39.385" fill="#DD7F88"/>
        <path d="M151.709 234.369c.433-15.128 4.187-26.817-5.316-52.542-1.46 13.698-6.357 63.246-4.752 98.173a140.29 140.29 0 0 0 30.223-3.694 40.994 40.994 0 0 1-2.85-1.916c-8.757-6.488-17.723-25.497-17.305-40.021" fill="#CC717E"/>
        <path d="M176.348 135.812c-.354.144-.547.23-.547.23-4.65 33.863-26.39 38.377-31.133 38.963-.588.072-.93.088-.93.088a163.448 163.448 0 0 1 2.655 6.734c9.504 25.725 5.749 37.415 5.315 52.542-.416 14.524 8.55 33.533 17.305 40.021a41.605 41.605 0 0 0 2.85 1.916c24.936-5.864 47.29-18.394 65.083-35.603-20.486-16.459-53.317-33.362-50.49-64.18.639-6.973 3.456-13.393 9.079-17.725 20.772-16.003 49.724 4.112 75.177 30.42a138.413 138.413 0 0 0 3.545-10.812c-40.41-63.62-92.1-44.952-97.909-42.594" fill="#FFBE4E"/>
        <path d="M195.534 158.798c-5.622 4.332-8.44 10.752-9.08 17.724-2.824 30.82 30.007 47.722 50.491 64.181 14.794-14.308 26.43-31.849 33.768-51.484-25.455-26.309-54.406-46.424-75.179-30.42" fill="#DD7F88"/>
        <path d="M75.55 203.69c1.21.698 2.78-.01 4.148-.253.308-.056.88-.51.92-.197.536 4.128-6.207 16.462-5.972 23.489.329 9.805 7.74 4.599 9.391 14.34.917 5.414-6.277 23.642 7.024 27.792 6.904 2.153 6.162-11.592 7.399-15.366 2.32-7.083 8.751-9.573 9.531-16.773 1.001-9.236-5.212-15.497.22-23.343 2.332-3.366 4.356-12.012 2.369-16.344-1.977-4.31-4.476-10.21-5.717-14.65-3.203-11.464-4.763-19.774-8.087-20.485-3.491-.749-15.536 11.957-21.755 23.399-2.774 5.105-6.426 14.375.53 18.391" fill="#CAC76D"/>
    </g>
</svg>
