<svg width="445" height="260" viewBox="0 0 445 260" xmlns="http://www.w3.org/2000/svg" xmlns:xlink="http://www.w3.org/1999/xlink">
    <defs>
        <path id="a" d="M0 0h444.689v259.151H0z"/>
        <path id="c" d="M0 0h441.608v205.936H0z"/>
        <path id="e" d="M0 0h412.521v195.608H0z"/>
    </defs>
    <g fill="none" fill-rule="evenodd">
        <g>
            <mask id="b" fill="#fff">
                <use xlink:href="#a"/>
            </mask>
            <path d="M108.314 212.782c-20.373 5.028-69.086 51.314-74.794 45.935C2.618 229.601-9.758 120.787 8.544 64.131 34.924-17.53 97.314-1.711 178.28 8.16c28.128 3.43 46.903 10.103 80.741 17.014.942.192 2.752.688 5.01 1.261 5.365 1.36 13.257 3.15 18.034 2.316 57.711-10.068 93.569-.981 118.017 3.435 47.645 8.606 51.804 34.958 37.078 43.048-95.709 52.581-65.954 49.743-167.347 77.964-3.654 1.017-14.396 19.666-31.184 30.947-38.765 26.048-79.914 16.2-130.314 28.636" fill="#96130C" mask="url(#b)"/>
        </g>
        <g transform="translate(3.366 53.215)">
            <mask id="d" fill="#fff">
                <use xlink:href="#c"/>
            </mask>
            <path d="M431.867 37.461C442.817 25.718 443.93 8.905 438.214 0c-2.565 7.31-21.013 18.243-27.19 22.015-12.055 7.362-28.545 16.621-80.194 34.279-47.657 16.292-62.615 6.704-62.615 6.704-37.16 19.465-65.077 19.586-89.946 22.073-24.87 2.486-48.656 24.443-106.645 47.609-34.608 13.825-59.09.564-71.624-8.236.154 1.088.313 2.172.477 3.253l.017.11c.16 1.053.326 2.101.495 3.146l.032.193c.167 1.024.339 2.044.515 3.06l.043.245c.174 1 .353 1.997.536 2.99l.053.283c.184.983.37 1.963.562 2.936l.057.287c.192.973.388 1.941.59 2.903l.057.278c.203.966.41 1.929.622 2.885l.05.227c.216.973.437 1.941.662 2.902l.029.122c1.673 7.129 3.59 13.907 5.735 20.191a168.68 168.68 0 0 0 .773 2.204c.066.184.13.373.197.557.229.634.462 1.257.696 1.88.101.27.202.544.304.813.216.565.436 1.121.656 1.677.124.314.248.631.373.942.21.518.422 1.026.634 1.535.142.339.283.678.426 1.013.205.48.413.951.62 1.422.156.35.311.702.468 1.049.203.447.408.888.614 1.328a98.339 98.339 0 0 0 1.651 3.375 103.55 103.55 0 0 0 1.177 2.227c.201.37.404.737.607 1.099a98.67 98.67 0 0 0 1.206 2.073c.207.345.417.683.627 1.02.202.324.403.648.607.964.218.339.439.669.66.998.2.3.4.602.603.894.229.332.46.652.692.974.2.276.397.556.599.825.242.325.487.638.733.952.194.25.388.505.584.748.262.323.527.633.792.944.184.218.367.443.554.654.297.338.598.66.899.982.158.17.314.347.473.513.451.469.907.921 1.367 1.355l.03.03c.981.925 3.233.323 6.393-1.333.287-.151.582-.31.884-.478a58.013 58.013 0 0 0 1.896-1.104c.33-.2.667-.406 1.01-.62 16.803-10.517 49.013-38.551 64.61-42.4 33.7-8.316 63.264-6.67 90.745-12.453a140.517 140.517 0 0 0 6.83-1.612c1.484-.39 2.964-.808 4.436-1.254 9.633-2.92 19.037-7.091 28.304-13.318 12.55-8.432 21.719-20.98 27.076-27.204l.147-.17c.519-.599.998-1.13 1.442-1.596.287-.3.563-.58.819-.817.169-.157.331-.3.486-.429.467-.385.867-.653 1.214-.73 97.816-21.896 137.63-32.718 165.42-62.523" fill="#890A07" mask="url(#d)"/>
        </g>
        <g transform="translate(32.479 63.54)">
            <mask id="f" fill="#fff">
                <use xlink:href="#e"/>
            </mask>
            <path d="M237.408 76.289c-31.369 4.286-36.43 12.778-97.774 30.832-49.61 14.6-92.895 31.399-111.354 50.75.002.002-11.992 14.59-21.605 30.483-1.271 2.102-4.231 4.793-6.675 5.79.345.352.69.704 1.041 1.034.106.1.23.176.364.24.02.01.04.016.06.024l.055.02c.11.044.229.078.356.101l.053.01.067.01c.167.02.344.03.537.02h.005c.214-.01.444-.04.69-.088h.004c13.24-2.77 53.627-41.599 72.07-46.15.308-.076.615-.144.921-.216l.42-.101.429-.103.233-.056c.052-.023.104-.046.142-.055.045-.004.088-.008.133-.01.002-.002.005-.002.008-.003l.01-.002c1.222-.29 2.438-.568 3.65-.834l.006-.001.05-.011.007-.001c11.8-2.584 23.094-4.035 33.973-5.125l.07-.007a886.617 886.617 0 0 1 10.586-.986l4.717-.416 1.877-.166.583-.052a1278.802 1278.802 0 0 0 3.38-.307c2.056-.19 4.1-.387 6.13-.596l.147-.015a422.732 422.732 0 0 0 3.101-.332l.08-.01a307.253 307.253 0 0 0 6.226-.754l.081-.011a226.992 226.992 0 0 0 6.13-.895l.061-.01a179.4 179.4 0 0 0 6.062-1.08l.009-.002c.002 0 .004 0 .006-.002 1.005-.197 2.007-.404 3.006-.62l.044-.01.03-.008c1.978-.43 3.946-.901 5.902-1.417l.162-.043.016-.005c1.93-.512 5.912-1.727 5.954-1.74.964-.31 9.514-2.422 13.802-4.308 11.253-4.953 15.856-8.92 15.856-8.92s16.465-12.95 27.498-30.352l.357-.053.054-.021c.04-.015.082-.047.123-.05 74.262-3.325 95.275 13.019 158.12-46.017C398.329 40.94 413.228 20.155 412.495 0c0 0-11.174 16.258-24.976 24.916-74.57 46.779-113.83 46.415-150.111 51.373" fill="#6D130C" mask="url(#f)"/>
        </g>
        <path d="M265.382 26.773c5.783 12.775 3.765 97.029-1.3 133.97 2.604-1.184 9.342-6.503 10.7-7.74 0 0-3.251-44.401-2.132-63.598 3.22-55.215 6.525-60.44 6.525-60.44a308.564 308.564 0 0 0-13.793-2.192" fill="#560E0A"/>
        <path d="M13.05 101.992c-3.634 28.812 1.768 58.21 33.084 60.618 50.22 3.862 92.574-33.522 122.805-42.098 24.882-7.059 42.41-9.881 63.371-13.09 29.406-4.5 35.208-56.9 9.756-71.51-35.655-20.466-96.274-25.649-129.757-26.966-56.053-2.207-90.424 22.977-99.26 93.046M318.15 30.029c-3.599 0-27.692-.849-33.104 5.874-8.37 10.395-8.985 53.83-5.066 60.463 6.808 11.523 24.115 3.523 46.175-1.669 22.152-5.214 69.294-32.412 80.407-42.742 4.496-4.18 11.565-10.17-12.558-15.062-33.853-6.864-75.854-6.864-75.854-6.864" fill="#A32319"/>
        <path d="M118.975 23.44c94.399 8.747 25.478 32.651-5.263 51.367-19.865 12.094-52.13 20.919-64.92 16.869-36.227-11.47-8.536-75.53 70.183-68.236M286.735 49.822c.82-4.823 3.93-8.682 7.944-10.381 8.779-3.717 18.35-5.344 29.57-4.173 14.085 1.471 24.333 5.737 13.12 14.148-18.62 13.965-41.13 14.168-47.845 9.022-2.938-2.251-3.305-5.582-2.789-8.616" fill="#C64230"/>
        <path d="M25.035 85.85s-4.097 4.508-4.097 10.243c0 5.736 3.278 6.146 4.097 4.097.82-2.048 4.917-10.242 5.326-14.34.41-4.096-5.326 0-5.326 0M285.914 65.177s-4.097 4.507-4.097 10.242c0 5.736 3.278 6.146 4.097 4.098.82-2.049 4.916-10.243 5.326-14.34.41-4.097-5.326 0-5.326 0M28.846 137.326c-1.584 10.128 6.774 14.287 7.353 6.145 1.226-17.207 9.424-30.012 5.328-32.776-5.906-3.984-10.12 10.242-12.681 26.63" fill="#BA583E"/>
        <path d="M68.82 117.804s-6.556 15.979-5.737 24.173c.82 8.194 7.785-4.097 9.833-12.086 2.049-7.99 5.64-19.74 1.23-19.87-4.586-.137-5.327 7.783-5.327 7.783" fill="#A84429"/>
        <path d="M34.858 204.728c-1.458 3.278-6.83 19.29-1.616 22.123 5.28 2.868 8.762-24.991 6.713-25.81-3.073-1.23-5.097 3.687-5.097 3.687" fill="#A84126"/>
        <path d="M227.673 140.585c-.888-.148-2.172.084-3.04.32-3.387.913-10.629 3.623-9.377 7.255 1.462 4.243 15.201-3.899 14.887-5.933-.192-1.247-1.39-1.462-2.47-1.642" fill="#912F1C"/>
        <path d="M105.349 178.624c-.888-.148-2.172.084-3.04.319-3.388.914-10.63 3.623-9.377 7.256 1.462 4.243 15.201-3.899 14.887-5.934-.193-1.247-1.391-1.462-2.47-1.641" fill="#A84126"/>
        <path d="M405.124 89.43c-.888-.148-2.172.084-3.04.319-3.387.913-10.629 3.624-9.377 7.256 1.462 4.243 15.201-3.899 14.887-5.933-.192-1.248-1.39-1.462-2.47-1.642" fill="#912F1C"/>
        <path d="M86.423 18.536c1.302-.96.938-2.902-.679-2.877-4.739.075-13.644 4.185-17.675 8.112-1.022.996-.36 2.671 1.045 2.424 2.05-.36 4.515-1.037 6.827-2.304 3.658-2.006 7.22-2.952 10.482-5.355" fill="#BA583E"/>
        <path d="M320.08 75.234c.948-1.31.008-3.05-1.523-2.533-4.49 1.517-11.72 8.147-14.36 13.116-.669 1.26.472 2.654 1.734 1.99 1.844-.969 3.985-2.365 5.799-4.277 2.872-3.025 5.977-5.013 8.35-8.296M390.753 46.438c.65-.959.469-2.902-.34-2.877-2.369.076-6.822 4.186-8.837 8.113-.51.996-.18 2.671.522 2.424 1.026-.361 2.258-1.038 3.413-2.304 1.83-2.006 3.611-2.953 5.242-5.356M165.112 84.184c-.857-1.875-2.9-1.513-4.559-.287-12.505 9.24-14.759 25.02-14.759 28.027 0 3.278 4.047 7.25 11.676-12.086 3.073-7.787 8.597-13.564 7.642-15.654M120.732 117.373c-2.692 5.995-7.029 11.033-12.252 15.021-1.942 1.482-5.09 5.167-3.246 9.777 4.097 10.242 34.005-28.712 26.426-37.355-4.044-4.61-8.102 6.263-10.928 12.557" fill="#A84429"/>
        <path d="M73.247 169.579a15.184 15.184 0 0 1-4.75 4.054c-2.312 1.27-5.125 3.504-5.665 4.091-4.609 5.02-1.671 6.1 1.536 4.712 10.615-4.593 13.93-8.604 14.34-12.291.273-2.459.005-3.623-.818-4.126-.76-.464-1.761-.193-2.304.514l-2.34 3.046z" fill="#B24C2D"/>
        <path d="M192.8 126.39a15.18 15.18 0 0 1 5.072-3.643c2.41-1.072 5.4-3.063 5.987-3.603 5.013-4.616 2.175-5.939-1.137-4.824-10.962 3.69-14.6 7.41-15.317 11.05-.478 2.426-.307 3.608.47 4.179.718.527 1.739.34 2.338-.319l2.587-2.84z" fill="#9E3A1B"/>
        <path d="M17.32 154.897a9.211 9.211 0 0 0-4.383 7.832c-.014 5.985 1.187 10.854 4.382 13.73 4.097 3.686 5.3-6.735 4.722-13.886-.272-3.37-.625-10.192-4.722-7.676M126.246 148.552c-1.757.344-3.493 1.736-4.59 3.67-2.056 3.625-3.2 6.872-2.795 9.4.52 3.243 4.614-2.778 6.812-7.256 1.035-2.109 3.218-6.331.573-5.814M311.466 101.71c-1.758.344-3.494 1.737-4.59 3.67-2.057 3.626-3.201 6.872-2.795 9.402.52 3.242 4.614-2.78 6.811-7.257 1.035-2.109 3.218-6.331.574-5.815" fill="#B24C2D"/>
        <path d="M98.267 30.862c-2.165-.156-4.638.922-6.534 2.837-3.555 3.59-5.923 7.026-6.248 10.114-.418 3.96 6.28-1.787 10.27-6.33 1.88-2.139 5.771-6.387 2.512-6.621M80.007 64.154c-2.13.416-4.236 2.104-5.565 4.448-2.493 4.394-3.88 8.33-3.387 11.395.633 3.932 5.595-3.367 8.258-8.794 1.255-2.557 3.901-7.675.694-7.049" fill="#CE7C5F"/>
        <path d="M326.138 41.396c-1.727-.47-3.9.01-5.74 1.259-3.448 2.34-5.912 4.745-6.667 7.192-.97 3.139 5.367-.45 9.32-3.49 1.862-1.434 5.688-4.254 3.087-4.961" fill="#C96645"/>
        <path d="M302.74 41.09c-1.757.344-3.493 1.737-4.59 3.67-2.056 3.625-3.087 6.856-2.795 9.401.436 3.792 4.386-1.294 6.812-7.256.886-2.176 3.218-6.332.573-5.814" fill="#CE7C5F"/>
        <path d="M381.524 75.904c-1.757.343-3.493 1.736-4.59 3.67-2.056 3.624-7.269 9.036-6.863 11.564.52 3.244 8.682-4.942 10.88-9.42 1.035-2.11 3.218-6.332.573-5.814" fill="#B24C2D"/>
        <path d="M63.74 49.884c-6.176 3.91-12.391 11.722-14.906 18.587-2.782 7.592-2.438 11.652 3.427 6.828 8.628-7.097 21.253-31.606 11.761-25.485-.082.053-.199.017-.282.07" fill="#CE7C5F"/>
        <path d="M128.008 44.4c-7.306.247-16.621 3.838-22.264 8.485-6.242 5.142-8 8.816-.5 7.624 11.033-1.754 34.326-16.501 23.042-16.027-.098.004-.18-.085-.278-.082" fill="#C96645"/>
        <path d="M122.066 86.278c-7.043 1.96-15.25 7.64-19.642 13.485-4.858 6.464-5.702 10.45 1.307 7.527 10.311-4.3 29.482-24.113 18.626-20.998-.095.028-.196-.04-.29-.014M202.62 36.364c-2.588-.429-5.38.061-8.032 1.29-18.705 8.67-31.154 20.573-24.553 20.051 6.948-.55 38.534-15.795 35.488-19.978-.55-.757-1.674-1.159-2.903-1.363" fill="#BA583E"/>
        <path d="M229.807 80.28c1.38-2.052 2.414-4.332 2.856-6.767 1.095-6.036-1.158-11.16-2.903-7.388-6.643 14.36-18.192 24.763-18.021 27.189.284 4.013 7.575 3.531 12.133-4.96 3.003-5.595 4.707-6.247 5.935-8.073" fill="#A84429"/>
        <path d="M357.166 61.53c1.38-2.053 5.045-4.696 6.376-6.783 3.764-5.905.288-11.185-2.903-7.388-10.18 12.114-18.193 24.763-18.021 27.189.283 4.013 7.575 3.532 12.133-4.96 3.003-5.594 1.187-6.231 2.415-8.058" fill="#BA583E"/>
        <path d="M174.746 148.241c-4.916 6.094-8.826 11.097-7.69 13.102 1.135 2.005 4.003 4.17 7.69-.6 3.688-4.77 2.043-3.54 7.373-9.686 5.328-6.145 4.509-9.833 2.87-9.833-1.639 0-10.243 7.017-10.243 7.017" fill="#9E3A1B"/>
        <path d="M336.516 100.308c-2.97 2.458-6.192.475-5.373-1.573.82-2.049 7.988-5.3 9.525-4.904 1.537.397 5.532 1.66 2.767 3.282-2.767 1.622-6.92 3.195-6.92 3.195" fill="#B24C2D"/>
        <path d="M409.934 64.215c-2.97 2.458-6.192.476-5.373-1.573.82-2.048 7.988-5.3 9.525-4.904 1.537.397 5.532 1.66 2.766 3.282s-6.918 3.195-6.918 3.195M252.63 108.178c-2.97 2.457-6.192.475-5.373-1.574.82-2.048 7.988-5.3 9.525-4.904 1.537.397 5.532 1.66 2.766 3.283-2.766 1.62-6.918 3.195-6.918 3.195" fill="#9E3A1B"/>
        <path d="M143.134 165.22a2.856 2.856 0 0 1 .736-4.388c6.476-3.633 23.497-11.067 21.553-4.649-1.06 3.499-15.188 9.39-20.044 9.906a2.627 2.627 0 0 1-2.245-.869" fill="#912F1C"/>
        <path d="M153.523 187.891a2.856 2.856 0 0 1 1.585-4.157c7.065-2.286 25.217-6.221 22.047-.312-1.728 3.221-16.74 6.215-21.603 5.762a2.628 2.628 0 0 1-2.03-1.293M93.815 209.8a2.856 2.856 0 0 1 .736-4.388c6.476-3.633 23.497-11.066 21.553-4.648-1.06 3.498-15.188 9.39-20.044 9.905a2.629 2.629 0 0 1-2.245-.868M204.252 182.563a2.856 2.856 0 0 1 .736-4.388c6.476-3.634 23.497-11.067 21.553-4.65-1.06 3.5-15.188 9.392-20.044 9.906a2.627 2.627 0 0 1-2.245-.868M287.713 146.753a2.856 2.856 0 0 1 1.939-4.005c7.237-1.667 25.66-4.02 21.991 1.595-2 3.058-17.215 4.744-22.02 3.874a2.629 2.629 0 0 1-1.91-1.464M343.037 145.876a2.857 2.857 0 0 1 .736-4.389c6.476-3.632 23.497-11.066 21.552-4.648-1.06 3.499-15.188 9.39-20.044 9.905a2.629 2.629 0 0 1-2.244-.868M381.703 121.04a2.856 2.856 0 0 1 .736-4.39c6.476-3.632 23.497-11.065 21.553-4.647-1.06 3.497-15.188 9.39-20.044 9.904a2.627 2.627 0 0 1-2.245-.867" fill="#7C200E"/>
        <path d="M325.656 124.31a2.856 2.856 0 0 1 .736-4.389c6.476-3.633 23.496-11.066 21.552-4.648-1.06 3.498-15.188 9.39-20.044 9.905a2.629 2.629 0 0 1-2.244-.868" fill="#A84126"/>
        <path d="M179.843 97.545c-1.652-.552-2.24-2.456-1.207-3.917 4.206-5.95 18.288-19.98 17.153-13.732-.896 4.931-11.456 16.829-13.586 17.321-.824.19-1.589.586-2.36.328" fill="#A84429"/>
    </g>
</svg>
