<svg width="280" height="280" viewBox="0 0 280 280" xmlns="http://www.w3.org/2000/svg" xmlns:xlink="http://www.w3.org/1999/xlink">
    <defs>
        <path id="a" d="M0 0h280v280H0z"/>
    </defs>
    <g fill="none" fill-rule="evenodd">
        <g>
            <mask id="b" fill="#fff">
                <use xlink:href="#a"/>
            </mask>
            <path d="M280 140c0 77.32-62.68 140-140 140S0 217.32 0 140 62.68 0 140 0s140 62.68 140 140" fill="#F9F0D9" mask="url(#b)"/>
        </g>
        <path d="M258.524 207.262c-5.169 7.148-16.006 7.477-26.109 7.08-14.04-.55-25.18-2.662-34.988-4.7 0 0-12.129-2.522-26.603-6.148-5.693 5.18-12.006 4.215-42.185 4.567-24.157.281-16.233.855-31.542.743-46.849-.341-70.273-.512-79.155-10.47-3.114-3.492-5.43-7.828-6.933-12.508a322.643 322.643 0 0 1-3.632-.355c11.766 33.923 36.2 61.924 67.643 78.344 4.867-5.92 10.975-11.896 18.708-17.09 8.106-5.446 26.546-17.835 50.537-14.333 5.395.787 29.424 4.296 40.498 25.259 2.353 4.452 3.7 8.901 4.42 13.044 31.738-11.959 57.99-35.105 73.949-64.632-1.193.06-2.466.115-3.894.16-.248.39-.49.731-.714 1.04" fill="#EFEFEF"/>
        <path d="M34.937 139.699c1.39-.285 2.468-.382 4.621-.576 7.124-.644 17.482-1.578 27.54 2.52 5.244 2.136 6.261 3.951 12.875 5.938 1.75.525 2.805.688 3.7.785-4.167-3.992-6.156-8.097-6.715-9.345-1.513-3.368-4.014-8.94-2.291-15.333 1.59-5.901 6.468-11.347 9.163-10.573 1.886.54 1.072 3.657 4.053 9.516l.008.016a27.979 27.979 0 0 0 1.964-2.193 40.989 40.989 0 0 0 2.503-3.471 40.574 40.574 0 0 0 1.613-2.714c.87-1.6 1.396-2.799 1.534-3.096 1.222-2.647 5.259-6.185 9.94-7.713 3.412-1.115 6.475-.933 10.322-.326 1.12.176 2.283.36 3.479.563.085-.491.237-.966.46-1.42 1.748-3.542 7.193-4.388 12.162-1.889 4.165 2.096 6.671 5.875 6.345 9.13a43.665 43.665 0 0 1 10.483 7.597c3.99 3.909 6.196 7.517 6.991 8.885.848 1.46 1.9 3.274 2.85 5.35 2.118 1.15 4.329 1.797 6.965 1.193.523-.12 1.72-.362 2.955-.98.255-5.083-.465-9.207-.838-11.25-.56-3.07-1.727-5.972-2.889-8.852-1.255-3.108-2.146-6.572-4.599-9.105-2.699-2.785-6.343-4.338-9.707-6.136a127.675 127.675 0 0 0-11.58-5.485c-7.93-3.265-16.224-5.65-24.71-6.923-14.29-2.15-30.69-.687-40.316 10.094-3.534 3.953-5.956 8.973-10.245 12.093-9.075 6.61-23.59 2.728-31.285 10.901-3.885 4.121-4.986 10.462-9.367 14.05-4.994 4.087-13.452 3.945-16.254 9.759-2.277 4.725.821 10.096 2.82 14.945a38.112 38.112 0 0 1 1.473 4.307c.966-2.755 2.28-5.279 3.947-7.44 7.983-10.352 20.03-12.822 20.03-12.822" fill="#C0222C"/>
        <path d="M111.393 157.811c.592.426.772.633.342.608.68.059 1.333.092 1.963.102l-.176-.052c-.706-.21-1.416-.429-2.129-.658" fill="#1B2037"/>
        <path d="M249.17 100.058c-7.847-3.587-11.769-5.38-15.67-6.66-9.442-3.097-16.376-5.372-25.382-4.17-12.855 1.718-21.248 9.282-23.422 11.468-7.065 7.097-9.615 12.1-10.914 16.313-.86 2.795-1.551 6.213-2.438 11.902 1.193-2.176.32-4.106 1.003-4.446 2.042-1.018 16.802 12.77 16.17 30.283-.093 2.6-.451 12.553-7.764 18.266-.586.458-1.816 1.416-3.38 2.217.435 1.55.746 3.141.935 4.751 16.442 2.157 28.526 4.636 28.526 4.636 4.502.923 11.344 2.423 13.525-.686 2.214-3.156-1.558-9.346-2.94-11.466 0 0-1.26-2.582-3.235-6.775a56.956 56.956 0 0 1-6.923-.882 81.525 81.525 0 0 1-11.708-17.137c-3.766-7.387-9.434-15.521-7.689-29.276.622-4.905 1.788-14.086 9.037-19.152 5.155-3.603 10.993-3.491 13.398-3.445 7.941.152 13.635.833 17.105 3.13 11.582 7.668 16.79 18.705 21.244 28.139a107.212 107.212 0 0 1 7.116 20.052 44.63 44.63 0 0 1-4.976 5.92c2.036 6.06 4.258 13.16 6.77 21.857 6.154 21.294 3.745 28.073 1.68 31.327 1.429-.046 2.702-.1 3.894-.161 10.697-19.793 16.77-42.45 16.77-66.525 0-8.922-.834-17.648-2.428-26.105-.862-.415-1.604-.77-2.225-1.023-10.505-4.293-12.543-6.165-26.08-12.352" fill="#421B59"/>
        <path d="M158.537 131.35c1.85 4.05 3.302 9.101 2.05 14.48-1.074 4.609-3.8 7.981-6.033 10.111 8.092 1.85 16.017 5.573 20.347 13.257 1.061 1.883 1.88 3.919 2.473 6.033 1.563-.801 2.793-1.759 3.38-2.217 7.312-5.711 7.67-15.667 7.763-18.266.632-17.514-14.128-31.3-16.17-30.283-.683.341.19 2.27-1.003 4.446-.063.114-.13.228-.203.343-.704 1.093-1.705 1.82-2.684 2.31-1.234.617-2.433.86-2.955.979-2.637.604-4.847-.043-6.965-1.193" fill="#9E83B5"/>
        <path d="M160.587 145.83c1.253-5.378-.2-10.429-2.05-14.48-.95-2.076-2.002-3.89-2.85-5.35-.796-1.368-3-4.977-6.991-8.885a43.643 43.643 0 0 0-10.482-7.598 5.26 5.26 0 0 1-.515 1.811c-1.748 3.543-7.192 4.388-12.161 1.89-4.334-2.18-6.873-6.183-6.292-9.52-1.196-.204-2.36-.388-3.479-.565-3.846-.607-6.91-.787-10.323.327-4.68 1.528-8.717 5.065-9.94 7.713-.136.298-.663 1.496-1.533 3.096-.437.805-.97 1.72-1.613 2.714a40.678 40.678 0 0 1-2.502 3.47 28.26 28.26 0 0 1-1.964 2.194c2.434 4.778 3.852 4.412 6.512 9.5 2.4 4.591 1.444 5.266 3.877 9.693.717 1.305.845 5.854 4.566 9.43 3.439 3.304 7.148 5.536 8.546 6.54.713.23 1.423.45 2.13.659l.175.052c9.653.159 13.692-4.964 26.428-4.36 4.33.204 9.411.632 14.429 1.78 2.233-2.13 4.959-5.502 6.032-10.111" fill="#C4ABD6"/>
        <path d="M125.537 113.217c4.97 2.5 10.415 1.654 12.163-1.889.283-.572.45-1.182.513-1.811.326-3.254-2.18-7.034-6.345-9.128-4.969-2.5-10.414-1.654-12.161 1.89a5.193 5.193 0 0 0-.461 1.418c-.58 3.338 1.959 7.34 6.291 9.52" fill="#C4ABD6"/>
        <path d="M97.097 208.804c15.31.112 7.384-.462 31.541-.743 30.18-.352 36.493.613 42.186-4.566-10.83-2.714-22.972-6.045-32.33-9.403-2.406-.864-4.847-1.636-7.238-2.543-7.807-2.958-10.73-4.781-16.018-5.174-2.275-.168-3.61.024-5.192.127-9.685.63-26.408-3.39-32.183-14.755-2.485-4.893-3.398-12.044-.26-14.765 2.387-2.071 6.71-1.002 11.629.195 6.757 1.645 7.21 3.82 12.217 3.855 2.271.017 4.238-.415 6.665.785.986.487 1.248.848 3.658 3.201 5.12 4.995 7.09 6.441 9.485 7.376.711.278 1.303.45 1.64.54 0 0 1.824.551 3.707.904 10.384 1.949 36.424 4.41 36.424 4.41a427.607 427.607 0 0 1 15.28 1.734c-.19-1.61-.5-3.202-.934-4.751-.593-2.113-1.412-4.15-2.473-6.033-4.33-7.685-12.255-11.407-20.347-13.257-5.017-1.147-10.099-1.575-14.428-1.782-12.736-.603-16.776 4.52-26.429 4.362a28.808 28.808 0 0 1-1.962-.102h-.003c-1.805-.107-9.998-.597-17.579-3.454a30.705 30.705 0 0 1-10.48-6.6c-.895-.097-1.95-.26-3.7-.784-6.614-1.987-7.63-3.803-12.875-5.939-10.057-4.097-20.416-3.163-27.54-2.52-2.153.195-3.23.292-4.621.576 0 0-12.047 2.47-20.03 12.822-1.668 2.162-2.98 4.686-3.946 7.44-2.727 7.776-2.675 17.387.049 25.865 1.503 4.681 3.818 9.018 6.932 12.51 8.881 9.957 32.306 10.128 79.155 10.47" fill="#FFF"/>
        <path d="M111.393 157.811c-1.398-1.006-5.107-3.237-8.546-6.541-3.72-3.575-3.849-8.125-4.566-9.43-2.433-4.427-1.478-5.103-3.877-9.692-2.66-5.089-4.077-4.722-6.512-9.502a.064.064 0 0 1-.008-.015c-2.982-5.86-2.168-8.974-4.053-9.516-2.695-.773-7.574 4.671-9.164 10.573-1.722 6.393.779 11.965 2.29 15.332.56 1.25 2.55 5.355 6.716 9.346a30.682 30.682 0 0 0 10.481 6.6c7.58 2.856 15.773 3.346 17.578 3.453h.003c.43.025.25-.182-.342-.608" fill="#C0222C"/>
        <path d="M163.027 178.248s-26.04-2.462-36.424-4.41a40.71 40.71 0 0 1-3.705-.904c-.338-.091-.93-.263-1.642-.54-2.394-.935-4.364-2.38-9.483-7.377-2.411-2.351-2.673-2.713-3.66-3.2-2.426-1.2-4.392-.768-6.663-.785-5.008-.037-5.461-2.21-12.218-3.855-4.92-1.197-9.241-2.266-11.63-.195-3.136 2.721-2.224 9.872.262 14.766 5.774 11.364 22.498 15.385 32.182 14.754 1.582-.103 2.917-.295 5.193-.126 5.287.392 8.21 2.215 16.018 5.174 2.39.906 4.83 1.678 7.238 2.542 9.358 3.358 21.5 6.689 32.33 9.402a754.342 754.342 0 0 0 26.602 6.147c9.807 2.039 20.948 4.151 34.988 4.701 10.103.397 20.94.068 26.11-7.08.222-.308.465-.648.713-1.038 2.066-3.254 4.473-10.033-1.68-31.327-2.512-8.697-4.735-15.797-6.769-21.856a42.574 42.574 0 0 1-5.154 4.384c-11.081 7.993-23.527 8.79-31.451 8.265 1.976 4.194 3.235 6.776 3.235 6.776 1.383 2.12 5.153 8.31 2.94 11.465-2.18 3.11-9.024 1.61-13.524.688 0 0-12.086-2.48-28.528-4.637a427.294 427.294 0 0 0-15.28-1.734" fill="#C4ABD6"/>
        <path d="M245.635 157.425a42.574 42.574 0 0 0 5.154-4.384 44.721 44.721 0 0 0 4.976-5.92 107.297 107.297 0 0 0-7.117-20.053c-4.453-9.434-9.663-20.47-21.244-28.139-3.471-2.297-9.163-2.978-17.106-3.13-2.404-.046-8.241-.158-13.398 3.446-7.248 5.065-8.413 14.247-9.035 19.151-1.745 13.755 3.923 21.89 7.688 29.276a81.57 81.57 0 0 0 11.707 17.137 56.99 56.99 0 0 0 6.924.882c7.924.525 20.37-.273 31.451-8.266" fill="#421B59"/>
        <path d="M144.265 232.392c-23.991-3.503-42.431 8.888-50.537 14.333-7.733 5.195-13.84 11.17-18.708 17.09 19.37 10.116 41.4 15.838 64.767 15.838 17.387 0 34.035-3.17 49.397-8.958-.72-4.143-2.068-8.593-4.42-13.045-11.075-20.962-35.104-24.47-40.5-25.258" fill="#EFEFEF"/>
    </g>
</svg>
