<svg id="res-2" xmlns="http://www.w3.org/2000/svg" xmlns:xlink="http://www.w3.org/1999/xlink" width="170" height="236.489" viewBox="0 0 170 236.489">
  <defs>
    <clipPath id="clip-path">
      <path id="Clip_17" data-name="Clip 17" d="M0,0H8.919V10.349H0Z" fill="none"/>
    </clipPath>
  </defs>
  <path id="Fill_1" data-name="Fill 1" d="M0,75.556H118.622V0H0Z" transform="translate(51.378 2.267)" fill="#fcf9eb"/>
  <path id="Fill_2" data-name="Fill 2" d="M0,3.778H118.622V0H0Z" transform="translate(51.378)" fill="#fcf9eb"/>
  <path id="Fill_3" data-name="Fill 3" d="M0,1.511H118.622V0H0Z" transform="translate(51.378 3.778)" fill="#999388"/>
  <g id="Group_51" data-name="Group 51" transform="translate(0 31.733)">
    <path id="Fill_4" data-name="Fill 4" d="M0,13s6.774,2.873,9.209,2.506a3.658,3.658,0,0,0,2.929-2.6l.921-10.951L.81,0Z" transform="translate(30.216 15.677)" fill="#ff9a83"/>
    <path id="Fill_6" data-name="Fill 6" d="M.719,11.526C.586,8.913-.554,4.862.338,3,1.377.831,3.827.325,5.954.049s3.089.634,4.138,2.8a5.922,5.922,0,0,1,.986,5.233c.56,1.7,1.959,2.064,2.279,2.746.172.365-.467.841-1.2,1.237-.382.206.394.877.276,1.213-1.884,1.406.233,4.722-.981,6-.666.7-8.814-1.252-9.636-1.762C-.978,15.8.893,14.867.719,11.526" transform="translate(32.963 3.657)" fill="#ffaa90"/>
    <path id="Fill_8" data-name="Fill 8" d="M1.738.245C-1.086-1.105.225,3.526.892,4.541a3.368,3.368,0,0,0,1.673,1.21Z" transform="translate(31.649 12.376)" fill="#ffaa90"/>
    <path id="Fill_10" data-name="Fill 10" d="M2.924,2.409C-1.794,4.642.132,12.2,2.223,15.637A16.214,16.214,0,0,1,5.68,21.552l.314-.422c1.2-2.147,1.328-2.451,1.964-3.764-.685-.9-2.3-5.3.446-4.744.551-.634,4-4.215,4-4.215s-3.847,1.831-1-2.088c2-.641,4.925.171,6.543-.075,2.02-.308,1.646-3.16,1.31-2.824a28.712,28.712,0,0,0-7.641-2.8C9.064.26,3.783-1.266,2.924,2.409" transform="translate(24.982)" fill="#5e2637"/>
    <path id="Fill_12" data-name="Fill 12" d="M.866,1.39c-.947,2.647-1.3,6.35-.108,8.685a22.865,22.865,0,0,0,4.521,6.218l.314-.423c1.2-2.147,1.328-2.45,1.964-3.763-.685-.906-2.3-5.3.446-4.745.552-.634,4-4.215,4-4.215a2.659,2.659,0,0,1-1-2.088C8.653.086,2.6-.872.866,1.39" transform="translate(25.383 5.26)" fill="#5e2637"/>
    <path id="Fill_14" data-name="Fill 14" d="M2.889,4.583c1.784.287,3.394-.492,3.6-1.743S5.4.346,3.616.059.221.554.021,1.8,1.1,4.3,2.889,4.583" transform="translate(22.173 13.419)" fill="#5e2637"/>
    <g id="Group_18" data-name="Group 18" transform="translate(0 194.406)">
      <path id="Clip_17-2" data-name="Clip 17" d="M0,0H8.919V10.349H0Z" fill="none"/>
      <g id="Group_18-2" data-name="Group 18" clip-path="url(#clip-path)">
        <path id="Fill_16" data-name="Fill 16" d="M8.19.535s1.09,5.373.6,7.406c-.433,1.812-2.253,2.595-5.723,2.372A4.183,4.183,0,0,1,.025,7.806C-.368,5.973,3.947,0,3.947,0L3.435,2.639,7.024,3.715Z" fill="#fe764a"/>
      </g>
    </g>
    <path id="Fill_19" data-name="Fill 19" d="M8.583,3.529,4.926,15.558,3.76,18.739.171,17.663s-.876-5,1.335-14.027c1.99-8.118,7.076-.107,7.076-.107" transform="translate(3.264 179.383)" fill="#ffaa90"/>
    <path id="Fill_21" data-name="Fill 21" d="M7.574,0,5.957,14.512l-1.447,2.35-4.3-1.729L0,4.189Z" transform="translate(38.104 183)" fill="#ffaa90"/>
    <path id="Fill_23" data-name="Fill 23" d="M12.795,3.2c1.736.983,3.023.341,3.445,1.4C16.891,6.239,12.9,7.331.274,4.835-.28,3.852.177.621.177.621l4.3,1.729L5.923,0s4.864,2.064,6.872,3.2" transform="translate(38.138 197.512)" fill="#fe764a"/>
    <path id="Fill_25" data-name="Fill 25" d="M9.048,55.418C4.377,61.379-2.2,90.443.722,99.415c1.668,5.123,8.669,2.442,9.179.34C12.144,90.517,30.45,50.762,30.45,50.762l8.563-33.324L39.389.979,14.908,0S8.917,51.681,9.048,55.418" transform="translate(1.821 86.089)" fill="#58182b"/>
    <path id="Fill_27" data-name="Fill 27" d="M3.284,65.628c-4.672,5.962-2.772,31.887.147,40.858,1.667,5.123,8.668,2.443,9.178.341,2.243-9.239,7.369-48.993,7.369-48.993s6.268-34.112,4.646-45.386c-.476-3.309-3-12.448-3-12.448L0,13.239S3.153,61.888,3.284,65.628" transform="translate(32.988 79.018)" fill="#58182b"/>
    <path id="Fill_29" data-name="Fill 29" d="M0,21.511,6.826,6.324,11.6,1.314,4.321,0Z" transform="translate(35.442 102.47)" fill="#441624"/>
    <path id="Fill_31" data-name="Fill 31" d="M43.231,3.576C42.7,6.739,36.08,15.924,33.137,16.467c-.435.081-.868-13.589-1.3-13.521-.858.135-1.708,13.989-2.552,14.08A27.528,27.528,0,0,1,13.4,14.178C15.209,7.243,0,5.943,0,5.943S33.982-5.674,43.231,3.576" transform="translate(14.068 84.127)" fill="#fcf9eb"/>
    <path id="Fill_33" data-name="Fill 33" d="M35.775,8.995l-4.81-6.338L13.8,10.724C9.222,8.587,2.216,1.166,0,0,.254,4-.269,18.822,4.706,20.849c3.456,1.41,6.678,2.443,8.318,2.345l0,0c7.888.363,22.747-14.2,22.747-14.2" transform="translate(51.185 29.895)" fill="#da7119"/>
    <path id="Fill_35" data-name="Fill 35" d="M3.6,0S5.514.023,5.375,2.527a11.685,11.685,0,0,1-.594,1.81s5.006-2.92,6.588-3.66c2.573-1.2,2.436.472,2.436.472L8.04,5.765l2.7,5.12L7.7,13.6,3.762,14.611,0,9.776.195,6.608,3.6,1.741Z" transform="translate(82.149 22.775)" fill="#ffaa90"/>
    <path id="Fill_37" data-name="Fill 37" d="M5.7,3.275c.32,2.038-.681,3.89-2.24,4.133S.378,6.2.059,4.159.743.271,2.3.026s3.078,1.21,3.4,3.248" transform="translate(86.598 27.341)" fill="#ff9a83"/>
    <path id="Fill_39" data-name="Fill 39" d="M6.007,1.05a1.032,1.032,0,0,1-.829,1.185L1,2.541A1.033,1.033,0,0,1,0,1.49,1.035,1.035,0,0,1,.832.307L5.015,0A1.032,1.032,0,0,1,6.007,1.05" transform="translate(87.493 27.401)" fill="#ffaa90"/>
    <path id="Fill_41" data-name="Fill 41" d="M6.008,1.158a1.1,1.1,0,0,1-.821,1.289L1,2.754C.5,2.788.054,2.271,0,1.6A1.109,1.109,0,0,1,.825.306L5.007,0c.5-.036.951.481,1,1.156" transform="translate(87.946 29.526)" fill="#ffaa90"/>
    <path id="Fill_43" data-name="Fill 43" d="M5.028.881a.86.86,0,0,1-.692.991l-3.5.258A.869.869,0,0,1,0,1.248.865.865,0,0,1,.7.258L4.2,0a.863.863,0,0,1,.829.879" transform="translate(88.255 31.887)" fill="#ffaa90"/>
    <path id="Fill_45" data-name="Fill 45" d="M6.255,27.829S.006,12.655,0,10.172C1.846,5.691,14.5,0,14.5,0L26.3,1.216s8.833.467,11.483,1.609c4.069,1.755,7.641,8.442,8.589,12.118.621,2.4-.029,12.885-.029,12.885s.016,31.163.394,34.839c-2.984,1.76-10.257,3.64-17.653,3.673-7.4-.032-19.963-3.005-22.947-4.766.38-3.673.118-33.746.118-33.746" transform="translate(10.561 25.035)" fill="#f78628"/>
    <path id="Fill_47" data-name="Fill 47" d="M6.868,0l6.9,19.23.149,18.517,8.134,22.242L17.26,66.362S4.483,48.257,1.9,39.379C-4.362,17.884,6.868,0,6.868,0" transform="translate(3.694 35.207)" fill="#da7119"/>
    <path id="Fill_49" data-name="Fill 49" d="M9.158,12.241,0,0,12.663,1.214Z" transform="translate(30.911 25.639)" fill="#fcf9eb"/>
  </g>
</svg>
