<svg id="res-4" xmlns="http://www.w3.org/2000/svg" xmlns:xlink="http://www.w3.org/1999/xlink" width="150" height="222.28" viewBox="0 0 150 222.28">
  <defs>
    <clipPath id="clip-path">
      <path id="Clip_9" data-name="Clip 9" d="M0,0H10.738V8.428H0Z" fill="none"/>
    </clipPath>
    <clipPath id="clip-path-2">
      <path id="Clip_46" data-name="Clip 46" d="M0,0H13.35V5.658H0Z" fill="none"/>
    </clipPath>
    <clipPath id="clip-path-3">
      <path id="Clip_49" data-name="Clip 49" d="M0,0H7.6V8.463H0Z" fill="none"/>
    </clipPath>
  </defs>
  <path id="Fill_1" data-name="Fill 1" d="M7.772.644,6.052,9.356l-1.711,2.3L0,9.511.047,0Z" transform="translate(30.311 202.85)" fill="#b83f4a"/>
  <g id="Group_81" data-name="Group 81">
    <path id="Fill_2" data-name="Fill 2" d="M12.87,3.772c1.663,1.129,3.006.592,3.344,1.69C16.733,7.156,12.633,7.927.162,4.387-.314,3.355.409.151.409.151L4.584,2.238,6.229,0s4.715,2.468,6.641,3.772" transform="translate(30.025 212.527)" fill="#ffac27"/>
    <path id="Fill_4" data-name="Fill 4" d="M9.172,102.193l-7.587,1.238L.695,92.144S-2.123,72,3.592,60.105C.255,48.755,4.96,13.557,4.96,13.557S19.593-1.674,25.978.152C32.774,26.84,9.172,102.193,9.172,102.193" transform="translate(32.019 101.326)" fill="#92659b"/>
    <path id="Fill_6" data-name="Fill 6" d="M7.333,3.523,5.821,11.275,4.174,13.511,0,11.425.836,0Z" transform="translate(25.678 203.618)" fill="#c95560"/>
    <g id="Group_10" data-name="Group 10" transform="translate(25.389 213.852)">
      <path id="Clip_9-2" data-name="Clip 9" d="M0,0H10.738V8.428H0Z" fill="none"/>
      <g id="Group_10-2" data-name="Group 10" clip-path="url(#clip-path)">
        <path id="Fill_8" data-name="Fill 8" d="M0,2.169c.2,1.01.331,1.145,1.362,3.34.844,1.8.969,2.141,3.122,2.679,2.495.622,3.272-.1,6.1-.649.879-1.613-2.163-4.169-2.915-5.5A10.569,10.569,0,0,0,6.319,0,9.055,9.055,0,0,0,1.391,1.821L.378.211Z" fill="#fbc37a"/>
      </g>
    </g>
    <path id="Fill_11" data-name="Fill 11" d="M37.715,16.518c-.714-.713-.714-4.1-5.031-15C26.06-2.4,4.81,2.351,3.909,3.729-.621,10.638-.68,24.651,1.05,27.929L15.208,70.613s-1.727,5.515-3,9.123c-2.182,6.18-2.987,35.416-2.987,35.416s8.424,7.159,9.572,4.853c1.028-2.059,11.78-42.82,11.78-48.906,0-3.728.722-25.705-2.351-44.428,5.817-3.825,9.617-10.032,9.5-10.152" transform="translate(15.049 86.683)" fill="#a075a7"/>
    <path id="Fill_13" data-name="Fill 13" d="M.451,13.1s7.072,2.22,9.48,1.616a3.682,3.682,0,0,0,2.683-2.89L12.473.771,0,0Z" transform="translate(24.646 31.884)" fill="#c95560"/>
    <path id="Fill_15" data-name="Fill 15" d="M1.4,12.142C1.01,9.535-.528,5.588.187,3.636,1.017,1.364,3.426.619,5.531.136s3.159.338,4.421,2.4a5.951,5.951,0,0,1,1.5,5.146c.727,1.652,2.163,1.873,2.551,2.528.208.35-.388.887-1.085,1.356-.365.243.477.839.392,1.187-1.751,1.592.692,4.706-.4,6.109-.6.768-8.96-.4-9.833-.826C.112,16.587,1.9,15.47,1.4,12.142" transform="translate(25.863 18.988)" fill="#e06f79"/>
    <path id="Fill_17" data-name="Fill 17" d="M1.657.165C-1.308-.913.457,3.6,1.225,4.552A3.4,3.4,0,0,0,3.02,5.6Z" transform="translate(25.059 28.427)" fill="#e06f79"/>
    <path id="Fill_19" data-name="Fill 19" d="M2.444,2.844C-2.069,5.54.6,12.925,3.03,16.162a16.361,16.361,0,0,1,4.041,5.59l.273-.456c1-2.265,1.095-2.583,1.605-3.957-.777-.841-2.818-5.081-.014-4.8.491-.689,3.6-4.611,3.6-4.611s-3.681,2.205-1.209-2c1.946-.835,4.955-.3,6.555-.709,1.995-.5.5-3.651-1.173-4.154A15.713,15.713,0,0,0,10.984.208C8.4.1,2.949-.922,2.444,2.844" transform="translate(17.78 16.051)" fill="#fcf9eb"/>
    <path id="Fill_21" data-name="Fill 21" d="M.654,1.877c-.69,2.745-1.3,7.03.738,8.711a24.777,24.777,0,0,1,5.138,5.787l.273-.455c1-2.267,1.094-2.584,1.605-3.957-.778-.841-2.818-5.082-.014-4.8.491-.689,3.6-4.612,3.6-4.612A2.676,2.676,0,0,1,10.784.56C8.338-.183,2.179-.556.654,1.877" transform="translate(18.321 21.426)" fill="#fcf9eb"/>
    <path id="Fill_23" data-name="Fill 23" d="M27.777,1.3c.133-.589.467-2.177-2.336-.654C24.563-1.771,17.474,6.769,13.8,4.6c-.621-.369,1.7-1.789,1.853-2.213C16.781-.8,14.917.127,14.917.127L12.435,1.588l-1.963,2.43s-1.149,6.852-1.146,6.853c-.1.481-3.388,8.46-4.61,11.64-.586-1.4-2.56-5.769-4.373-9.918-1.529-3.5,2.491,26.689,3.6,26.447C6.054,38.583,9.35,32.37,10.3,30.2c1.944-4.432,2.921-11.087,4.022-15.738a3.61,3.61,0,0,0,.083-.546h0l4.455-2.255L23.1,8.739S29,4.925,27.388,3.315c.332-.325,2.217-1.553.39-2.019" transform="translate(51.682 44.321)" fill="#b83f4a"/>
    <path id="Fill_25" data-name="Fill 25" d="M7.991,28.693S.247,14.1,0,11.611C1.415,6.946,13.553.014,13.553.014L25.5.086s8.9-.392,11.673.5c4.251,1.361,8.485,7.713,9.794,11.3.854,2.35,1.223,12.91,1.223,12.91s3.049,31.219,3.785,34.863c-2.822,2.053-9.932,4.645-17.346,5.395-7.422.686-20.313-1.072-23.477-2.544.021-3.717-3.163-33.815-3.163-33.815" transform="translate(6.021 41.821)" fill="#ff8a5f"/>
    <path id="Fill_27" data-name="Fill 27" d="M.412,0C-.737,5.213.621,12.073,3.221,18.565,6.444,27.3,21.251,44.1,21.251,44.1l4.19-6.851L15.121,15.762,12.944,3.621S1.749.373.412,0" transform="translate(1.87 74.404)" fill="#e06f79"/>
    <path id="Fill_29" data-name="Fill 29" d="M14.815,18.593v6S2.5,26.709.627,23.381C-2.31,18.176,6.021,0,6.021,0Z" transform="translate(0 53.432)" fill="#fe764a"/>
    <path id="Fill_31" data-name="Fill 31" d="M8.844,2.131C8.233,1.387,7.422.086,5.947,0,4.472.018,1.326,3.639.678,4.354,2.453,9.311,0,12.049,0,12.049s2.514,3.921,5.673,4S12.992,10.5,12.992,10.5,7.558,7.174,8.844,2.131" transform="translate(106.935 37.915)" fill="#e29525"/>
    <path id="Fill_33" data-name="Fill 33" d="M1.55,6.381l-1.2,3.737L0,12.463S18.373,11.3,22.135,6.293C22.845,1.493,15.523,0,15.523,0Z" transform="translate(92.588 82.598)" fill="#ffac27"/>
    <path id="Fill_35" data-name="Fill 35" d="M.67,0S-.862,1.131.707,3.071A11.248,11.248,0,0,0,2.239,4.189L.433,7.231l.8,5.7,4.033.434,3.395-1.026,1.55-6.083-2.94-2.9L1.684,1.4Z" transform="translate(83.93 82.721)" fill="#ffaa90"/>
    <path id="Fill_37" data-name="Fill 37" d="M.505,4.837C1.432,6.665,3.317,7.58,4.717,6.871S6.5,4.108,5.574,2.278,2.764-.467,1.363.239-.421,3,.505,4.837" transform="translate(83.981 87.707)" fill="#ff9a83"/>
    <path id="Fill_39" data-name="Fill 39" d="M11.739,24.641,6.424,11.591,12.723,0s9.394,18.871,9.394,27.922c0,8.933-13.959,12.3-15.5,13.553-5,4.067-7.869-4.589-6.09-4.911,1.312-1.154,11.209-11.923,11.209-11.923" transform="translate(123.337 60.017)" fill="#e5d2b3"/>
    <path id="Fill_41" data-name="Fill 41" d="M4.9,7.511c-.3,2.228-.5,3.553-.5,3.553s-1.544,2.009-2.8,2.2C.611,13.418-.2,11.955.043,10.877A15.9,15.9,0,0,0,.3,7.6c0-10.491,5.891-9.733,4.6-.086" transform="translate(104.766 205.683)" fill="#fc8b59"/>
    <path id="Fill_43" data-name="Fill 43" d="M17.56,114.85s-4.594.889-4.354-.188c1.536-6.843-4.245-38.025-5.563-48.472C7.528,65.276-6.275,29.212,3.495.091c.523-1.558,12.08,17.336,13.731,17.593,1.806.28.454,47.592.858,48.434,5.313,11.037-.523,48.732-.523,48.732" transform="translate(91.602 101.898)" fill="#746860"/>
    <g id="Group_47" data-name="Group 47" transform="translate(96.15 216.622)">
      <path id="Clip_46-2" data-name="Clip 46" d="M0,0H13.35V5.658H0Z" fill="none"/>
      <g id="Group_47-2" data-name="Group 47" clip-path="url(#clip-path-2)">
        <path id="Fill_45" data-name="Fill 45" d="M2.782,3.1C1.415,4.029.311,3.585.036,4.487-.391,5.879,2.974,6.509,13.218,3.6c.39-.846-.206-3.477-.206-3.477L9.584,1.84,8.233,0S4.359,2.028,2.782,3.1" fill="#a075a7"/>
      </g>
    </g>
    <g id="Group_50" data-name="Group 50" transform="translate(142.397 213.754)">
      <path id="Clip_49-2" data-name="Clip 49" d="M0,0H7.6V8.463H0Z" fill="none"/>
      <g id="Group_50-2" data-name="Group 50" clip-path="url(#clip-path-3)">
        <path id="Fill_48" data-name="Fill 48" d="M0,1.042s-.1,4.46.59,6.019c.61,1.386,2.181,1.75,4.93,1.067A3.4,3.4,0,0,0,7.6,5.684C7.652,4.16,3.327,0,3.327,0l.792,2.039L1.4,3.422Z" fill="#a075a7"/>
      </g>
    </g>
    <path id="Fill_51" data-name="Fill 51" d="M9.649,15.157c.385,2.766.587,4.45.587,4.45l.772,1.872L8.288,22.863,6.94,20.624S4.761,14.183,1.034,6.111c-4.513-13.64,7.122-1.689,8.615,9.046" transform="translate(135.508 194.313)" fill="#ffaa90"/>
    <path id="Fill_53" data-name="Fill 53" d="M11.88,60.667C5.855,47.1,0,19.414,0,19.414S5.088.12,11.731,0c10.005,25.9,7.9,44.44,9.29,59.409-.888,6.728-7.338,6.323-9.141,1.257" transform="translate(112.243 106.308)" fill="#746860"/>
    <path id="Fill_55" data-name="Fill 55" d="M21.256,55.27l-3.3,1.017s-2.179-6.44-5.906-14.512C7.541,28.135-.181,16.03.183,7.066c-1.494-9.26,6.56-8.783,8.951-2.252,7.3,10.36,12.122,50.456,12.122,50.456" transform="translate(124.488 158.65)" fill="#746860"/>
    <path id="Fill_57" data-name="Fill 57" d="M10.265,8.541C10.554,6.342,7.606.363,5.8.126s-2.51-.3-3.772,1.3C.676,3.142,1.581,4.543,1.442,5.53A8.054,8.054,0,0,1,0,8.089c.131.473.917,1.074.917,1.074a1.91,1.91,0,0,1-.173,1.015,1.928,1.928,0,0,1,.873,1.5c.129.861.045,1.984.491,2.356,1.15.964,4.135-.27,4.833-.7,2.367-1.453,2.953-2,3.324-4.8" transform="translate(103.206 30.234)" fill="#ffa92c"/>
    <path id="Fill_59" data-name="Fill 59" d="M8.98,22.6c.418.22,1.047.22,1.454.456,7.144,0,13.182-12.9,6.942-16.084,6.264-8.6-9.653-8.732-6.6-3.178C5.65,3.792-.794,5.621.08,10.734a2.938,2.938,0,0,1,1.338-.978c1.164.154.495.5,2.887,2.582C8.679,16.144,7.833,22,8.98,22.6" transform="translate(105.345 20.698)" fill="#f78628"/>
    <path id="Fill_61" data-name="Fill 61" d="M0,.339c2.128-1.41,1.933,1.986,1.369,2.8-.21.3-.656.887-1.083.909Z" transform="translate(112.348 36.806)" fill="#ffa92c"/>
    <path id="Fill_63" data-name="Fill 63" d="M47.944,12.761C41.213-.753,31.848.008,31.848.008s-3.882,5.158-6.464,5.257S18.545.5,18.545.5,6.537,5.955,6.841,21.046c.094,4.487,1.706,14.786,3.1,20.81a.252.252,0,0,1,.032.017C3.609,53.141-1.074,74.178.214,78.631c.123.434,43.813,4.6,43.813,4.6,7.255-12.49,2.36-66.256,3.917-70.468" transform="translate(88.115 47.256)" fill="#fcf9eb"/>
    <path id="Fill_65" data-name="Fill 65" d="M43.228,11.516,3.663,8.651,0,0,43.8,4.579Z" transform="translate(88.346 125.905)" fill="#e5d2b3"/>
    <path id="Fill_67" data-name="Fill 67" d="M25.864,36.242,6.792,38.411,0,5.294,17.4,0Z" transform="translate(82.215 72.484)" fill="#d8d6d9"/>
    <path id="Fill_69" data-name="Fill 69" d="M10.067,36.242l-1.6.371L0,.371,1.6,0Z" transform="translate(99.613 72.112)" fill="#bdb2c2"/>
    <path id="Fill_71" data-name="Fill 71" d="M.195,3.716a1.032,1.032,0,0,0,1.359.474L5.11,2.009A1.022,1.022,0,0,0,5.3.587,1.024,1.024,0,0,0,3.945.114L.386,2.293A1.025,1.025,0,0,0,.195,3.716" transform="translate(81.441 88.089)" fill="#ffa92c"/>
    <path id="Fill_73" data-name="Fill 73" d="M.141,3.185a.958.958,0,0,0,1.233.531l3.462-1.79A.958.958,0,0,0,5.11.612.96.96,0,0,0,3.876.08L.415,1.874A.953.953,0,0,0,.141,3.185" transform="translate(80.508 86.686)" fill="#ffa92c"/>
    <path id="Fill_75" data-name="Fill 75" d="M.228,3.8a1.1,1.1,0,0,0,1.414.565L5.2,2.182A1.1,1.1,0,0,0,5.336.67,1.1,1.1,0,0,0,3.922.1L.364,2.282A1.1,1.1,0,0,0,.228,3.8" transform="translate(82.337 90.071)" fill="#ffa92c"/>
    <path id="Fill_77" data-name="Fill 77" d="M.163,3.11a.861.861,0,0,0,1.138.4L4.28,1.682A.862.862,0,0,0,4.44.49.862.862,0,0,0,3.3.094L.324,1.917A.859.859,0,0,0,.163,3.11" transform="translate(84.156 92.054)" fill="#ffa92c"/>
    <path id="Fill_79" data-name="Fill 79" d="M35.213,0H8.383A2.823,2.823,0,0,0,5.558,2.821V8.585L0,15.872l5.558-2.688v4.461a2.825,2.825,0,0,0,2.826,2.824h26.83a2.825,2.825,0,0,0,2.827-2.824V2.821A2.824,2.824,0,0,0,35.213,0" transform="translate(47.27)" fill="#e6d2f5"/>
  </g>
</svg>
