<svg xmlns="http://www.w3.org/2000/svg" xmlns:xlink="http://www.w3.org/1999/xlink" width="150.374" height="252" viewBox="0 0 150.374 252">
  <defs>
    <clipPath id="clip-path">
      <path id="Clip_4" data-name="Clip 4" d="M0,0H4.794V4.795H0Z" fill="none"/>
    </clipPath>
    <clipPath id="clip-path-2">
      <path id="Clip_5" data-name="Clip 5" d="M0,0H21.98V27.984H0Z" fill="none"/>
    </clipPath>
    <clipPath id="clip-path-3">
      <path id="Clip_42" data-name="Clip 42" d="M0,0H35.113V16.575H0Z" fill="none"/>
    </clipPath>
  </defs>
  <g id="res-1" transform="translate(0 0)">
    <g id="Group_41" data-name="Group 41" transform="translate(0 29.174)">
      <path id="Fill_1" data-name="Fill 1" d="M8.624,4.008,6.847,12.816,4.911,15.361,0,12.989.983,0Z" transform="translate(35.456 198.733)" fill="#f1b2b6"/>
      <g id="Group_40" data-name="Group 40">
        <path id="Fill_2" data-name="Fill 2" d="M13.827,4.044c1.788,1.211,3.232.634,3.594,1.811C17.979,7.671,13.575,8.495.174,4.7-.337,3.6.441.162.441.162L4.927,2.4,6.7,0s5.066,2.646,7.132,4.044" transform="translate(35.446 211.845)" fill="#43200c"/>
        <path id="Fill_4" data-name="Fill 4" d="M7.664,4.635l-.183,9.187-4.467,1.9-1.09-1.728S1.557,11.611.179,3.725c-1.552-8.882,7.485.91,7.485.91" transform="translate(16.391 198.015)" fill="#f1b2b6"/>
        <path id="Fill_6" data-name="Fill 6" d="M0,2.326C.217,3.408.359,3.551,1.465,5.9,2.37,7.832,2.508,8.2,4.82,8.776c2.681.666,3.513-.109,6.548-.7.948-1.73-2.322-4.467-3.131-5.9A11.363,11.363,0,0,0,6.79,0,9.73,9.73,0,0,0,1.5,1.953L.407.225Z" transform="translate(17.908 211.782)" fill="#43200c"/>
        <path id="Fill_8" data-name="Fill 8" d="M1.757,76.647c.227,6.429,2.24,20.907,5.4,30.584,1.806,5.525,8.825,2.7,8.917.367.4-9.966,4.241-52.846,4.241-52.846L26.758,4.785,0,0S1.615,72.614,1.757,76.647" transform="translate(9.116 93.383)" fill="#a075a7"/>
        <path id="Fill_10" data-name="Fill 10" d="M15.213,58.975s-1.856,5.909-3.226,9.775c-2.345,6.623-3.208,37.956-3.208,37.956s9.05,7.673,10.285,5.2c1.1-2.206,12.655-45.893,12.655-52.413,0-4.662,1.059-35.944-4.542-57.256C25.024-5.949,0,10.962,0,10.962Z" transform="translate(25.595 91.145)" fill="#a075a7"/>
        <path id="Fill_12" data-name="Fill 12" d="M0,16.142,5.227,4.778,11.871.128,2.368,0Z" transform="translate(32.219 108.152)" fill="#92659b"/>
        <path id="Fill_14" data-name="Fill 14" d="M2.842,4.267,0,7.453,10.085,9.864l5.968-2.277L14.8,2.826,3.708,0Z" transform="translate(20.858 18.415)" fill="#dd9398"/>
        <path id="Fill_16" data-name="Fill 16" d="M.07,11.363C.279,8.594-.343,4.172.812,2.335,2.153.2,4.705,0,6.9,0s4.746.2,6.087,2.335c1.152,1.837.532,6.26.743,9.029a11.305,11.305,0,0,1-2.666,8.345,3.927,3.927,0,0,1-2.64.855c-1,.185-4.825-1.223-5.595-1.869C.225,16.5-.2,14.9.07,11.363" transform="translate(24.914 4.643)" fill="#f1b2b6"/>
        <path id="Fill_18" data-name="Fill 18" d="M.65,6.738C.3,3.895,3.991,2.829,4.893,2.039c3.272-2.863,6.8-.65,8.093-1.218,5.445-2.388,6.591,1.113,6.291,1.913a8.323,8.323,0,0,1-.6,1.122c2.163.76,3.071,1.945,2.34,2.331-.362.19,1.116,3.927-2.025,4.743,0,0-1.29-4.113-2.137-4.4-.9-.9-2.523.2-2.523.2s-3.079.02-3.31.12c-.42.184-1.408-.544-1.408-.544-3.881,1.586-4.139,7.835-4.139,7.835a58,58,0,0,1-1.4,8.539c-.3-1.308-2.957-4.906-3.648-6.962-1.224-3.658.6-5.922.221-8.981" transform="translate(19.622)" fill="#c0222c"/>
        <path id="Fill_20" data-name="Fill 20" d="M2.129.667C-.527-1.772-.163,3.178.4,4.339A3.131,3.131,0,0,0,2.086,5.485Z" transform="translate(22.971 13.475)" fill="#f1b2b6"/>
        <path id="Fill_22" data-name="Fill 22" d="M19.3,27.855c-6.928-8.614-7.509-10.318-7.509-10.318A63.862,63.862,0,0,1,1.863,0L0,26.419,12.717,38.336S19.74,31,19.3,27.855" transform="translate(51.096 34.215)" fill="#fbc37a"/>
        <path id="Fill_24" data-name="Fill 24" d="M6.771,31.132S.006,11.042,0,8.365C2,3.532,18.31,0,18.31,0L28.471,2.429,34.439.151S48.488,4.785,50.487,8.365c-.007,2.677-7.763,49.32-7.763,49.32s6.594,15.71-11.238,14.988c-20.7-.839-24.715-41.54-24.715-41.54" transform="translate(2.473 25.85)" fill="#f7f7ec"/>
        <path id="Fill_26" data-name="Fill 26" d="M21.793,79.77h0c-2.814,0-6.654-1.111-11.413-3.3a91.61,91.61,0,0,1-8.193-4.346l-.011-.007-.206-.121c2.469-16.345,4.779-40.618,4.8-40.861C6.495,30.312.006,10.988,0,8.365c.456-1.1,1.7-2.228,3.7-3.345A38.977,38.977,0,0,1,9.9,2.37,84.544,84.544,0,0,1,18.31,0L31.523,27.938c.007.107.657,10.757.29,22.128a120.975,120.975,0,0,1-1.551,16.957c-1.015,5.66-2.49,9.486-4.382,11.372A5.581,5.581,0,0,1,21.793,79.77Zm25.433-2.637h0c-2.253,0-3.791-1.26-4.571-3.744-1.823-5.809-2.55-19.174-2.838-29.362C39.5,32.979,39.623,23.2,39.624,23.1L34.438.152h0a.308.308,0,0,1,.044.013c.876.3,3.986,1.366,7.23,2.751,3.433,1.465,7.741,3.6,8.774,5.448-.006,2.643-.314,22.568-.317,22.768.033.266,3.367,26.821,6.762,41.927-.255.15-.548.328-.859.517C53.887,74.908,50.229,77.133,47.225,77.133Z" transform="translate(2.548 25.867)" fill="#fead5b"/>
        <path id="Fill_28" data-name="Fill 28" d="M.72,12.311C2.974,19.564,5.83,25.578,8.3,27.239c4.843,3.256,39.009-6.832,39.009-6.832l-9.156-2.043-19.3-6.335s-.931-2.484-2.386-6.09C12.537-3.795-3.57-1.49.72,12.311" transform="translate(6.302 53.373)" fill="#fbc37a"/>
        <path id="Fill_30" data-name="Fill 30" d="M11.759,6.946c1.276-.153,1.586.225,2.486,1.21,1.379-.206-.217-2.7-1.282-3.158-.853-.365.5.714,1.974,1.4.482-.236.918-1.133-.543-2.066,1.842-.239-1.086-2.456-1.532-2.872A1.263,1.263,0,0,0,13.5.482C12.327-.17,9.83-.011,8.467.109c-1.5.131-1.1.356-2.386,1.117C4.868,1.945,3.361,2.366,2.655,3.6,2,4.732.472,6.175.008,7.415c-.353.943,10.479-.315,11.751-.469" transform="translate(45.067 57.919)" fill="#dd9398"/>
        <path id="Fill_32" data-name="Fill 32" d="M0,2.131,1.529,6.077l13.611,4.89L15.921,2.8,6.722,0Z" transform="translate(23.624 59.326)" fill="#f1b2b6"/>
        <path id="Fill_34" data-name="Fill 34" d="M0,10.174S24.906,16.88,27.6,14.58c2.525-2.156,5.828-9.839,4.034-12.63C30.7.5,26.644.471,24.932.211,18.452-.774.782,2.007.782,2.007Z" transform="translate(38.763 60.119)" fill="#fbc37a"/>
        <path id="Fill_36" data-name="Fill 36" d="M0,2.069l6.5-.18L34.272,8.3,5.9,0Z" transform="translate(18.968 65.402)" fill="#fbc37a"/>
        <path id="Fill_38" data-name="Fill 38" d="M.419,18S7.232,35.631,7.757,37.228c1.326,4.028,15.736-7.378,15.736-7.378L18.424,15.077S10.6-.874,6.454.038C-2.372,1.977.419,18,.419,18" transform="translate(0 30.713)" fill="#fbc37a"/>
      </g>
    </g>
    <g id="Group_6" data-name="Group 6" transform="translate(54.123 0) rotate(9)">
      <path id="Fill_1-2" data-name="Fill 1" d="M1.92,20.265C-3.938,12.033,4.571-.775,14.49.037c16.274,1.332,9.978,15.894,4.677,24.547-3.408,5.564-7.089,10.021-1.136,15.694C4.563,36.85,16.887,24.2,18.645,17.56c3.471-13.121-10.707-12.53-14.29-1.9-.128.381,1.293,3.179,1.487,3.475Z" fill="#f8f5ed"/>
      <g id="Group_5" data-name="Group 5" transform="translate(18.155 41.22)">
        <path id="Clip_4-2" data-name="Clip 4" d="M0,0H4.794V4.795H0Z" fill="none"/>
        <g id="Group_5-2" data-name="Group 5" clip-path="url(#clip-path)">
          <path id="Fill_3" data-name="Fill 3" d="M0,1.734c2.1,8.676,9.03-4.14,1.041-1.32Z" fill="#f8f5ed"/>
        </g>
      </g>
    </g>
    <g id="Group_47" data-name="Group 47" transform="translate(72.924 22.635)">
      <path id="Fill_1-3" data-name="Fill 1" d="M14.9,11.213,3.285,16.882,0,11.913.613,3.088,14.826,0Z" transform="translate(37.016 21.611)" fill="#efbf6e"/>
      <g id="Group_46" data-name="Group 46">
        <path id="Fill_2-2" data-name="Fill 2" d="M15.082,14.952c.752-2.941,2.934-7.3,2.389-9.608C16.838,2.661,14.285,1.568,12.031.8s-4.945-1.454-7.07.293c-1.825,1.5-2.731,6.3-3.914,9.09a12.431,12.431,0,0,0-.174,9.572,4.259,4.259,0,0,0,2.414,1.807c.967.541,5.385.418,6.4.017,3.44-1.363,4.434-2.868,5.392-6.628" transform="translate(36.872 5.671)" fill="#ffd388"/>
        <g id="Group_6-2" data-name="Group 6" transform="translate(38.363)">
          <path id="Clip_5-2" data-name="Clip 5" d="M0,0H21.98V27.984H0Z" fill="none"/>
          <g id="Group_6-3" data-name="Group 6" clip-path="url(#clip-path-2)">
            <path id="Fill_4-2" data-name="Fill 4" d="M21.667,12.671c1.35-2.823-2.069-5.214-2.72-6.346-2.363-4.107-6.756-3.045-7.891-4.087C6.3-2.136,3.9,1.088,3.924,2.022a9.173,9.173,0,0,0,.221,1.37C1.658,3.425.31,4.334.927,4.988c.3.323-2.518,3.676.426,5.619,0,0,2.761-3.809,3.732-3.813,1.238-.615,2.522,1.091,2.522,1.091s3.156,1.1,3.359,1.28c.368.337,1.637-.072,1.637-.072,3.435,3,1.519,9.558,1.519,9.558s-1.638,5-.6,9.332c.766-1.249,3.81-4.048,5.237-5.936,2.536-3.36,1.453-6.342,2.909-9.377" transform="translate(0 0)" fill="#421b59"/>
          </g>
        </g>
        <path id="Fill_7" data-name="Fill 7" d="M1.638.313c3.579-1.6,1.478,3.4.492,4.406a3.388,3.388,0,0,1-2.13.6Z" transform="translate(50.847 18.339)" fill="#ffd388"/>
        <path id="Fill_9" data-name="Fill 9" d="M0,4.34,1.436,14.665l4.794,2.053L7.4,14.85s.129-2,.129-10.521C7.526-5.418,0,4.34,0,4.34" transform="translate(61.866 204.994)" fill="#efbf6e"/>
        <path id="Fill_11" data-name="Fill 11" d="M12.378,2.514c-.231,1.171-.384,1.325-1.571,3.869-.972,2.083-1.119,2.483-3.6,3.1-2.876.72-3.77-.118-7.025-.754C-.833,6.864,2.674,3.905,3.543,2.359A12.266,12.266,0,0,1,5.094,0a10.39,10.39,0,0,1,5.679,2.112L11.941.244Z" transform="translate(57.322 219.6)" fill="#421b59"/>
        <path id="Fill_13" data-name="Fill 13" d="M0,0,1.433,12.91l1.68,2.74,4.993-2.016.1-11.961Z" transform="translate(33.101 208.618)" fill="#efbf6e"/>
        <path id="Fill_15" data-name="Fill 15" d="M4.079,3.732c-2.017,1.148-3.512.4-4,1.636C-.678,7.276,3.959,8.55,18.62,5.639c.644-1.148.113-4.915.113-4.915L13.74,2.74,12.06,0S6.411,2.407,4.079,3.732" transform="translate(22.474 221.528)" fill="#421b59"/>
        <path id="Fill_17" data-name="Fill 17" d="M29.771,68.283C35.2,75.232,37,105.464,33.61,115.926c-1.937,5.973-10.068,2.846-10.661.4-2.605-10.774-12.568-57.13-12.568-57.13L.437,20.335,0,1.143,28.433,0s1.49,63.922,1.338,68.283" transform="translate(37.844 91.601)" fill="#43200c"/>
        <path id="Fill_19" data-name="Fill 19" d="M24.745,68.116c5.426,6.949,3.221,37.182-.17,47.643-1.937,5.973-10.068,2.846-10.66.4-2.606-10.774-8.559-57.13-8.559-57.13S-1.558,14.252.325,1.105C.878-2.753,28.56,4.732,28.56,4.732S24.9,63.755,24.745,68.116" transform="translate(18.835 91.768)" fill="#43200c"/>
        <path id="Fill_21" data-name="Fill 21" d="M.021,30.638c7.566-9.482,8.2-11.356,8.2-11.356A68.871,68.871,0,0,0,18.988,0l2.117,29.058L7.216,42.173S-.454,34.1.021,30.638" transform="translate(0.538 38.349)" fill="#fff"/>
        <path id="Fill_23" data-name="Fill 23" d="M47.745,34.264s7.389-22.112,7.4-25.058C52.959,3.887,35.143,0,35.143,0L20.91,7.992,17.526.166S2.183,5.267,0,9.206c.007,2.946,8.478,54.281,8.478,54.281s-7.2,17.29,12.274,16.5C43.36,79.06,47.745,34.264,47.745,34.264" transform="translate(19.608 29.124)" fill="#f6f7f9"/>
        <path id="Fill_25" data-name="Fill 25" d="M9.253,2.2,5.171,9.6,2.056,9.173,0,0,3.9,3.425Z" transform="translate(36.618 33.691)" fill="#c0222c"/>
        <path id="Fill_27" data-name="Fill 27" d="M12,3.374,7.116,47.531l-4.083,3.58L0,46.549,6.914,2.671,8.338,0l3.115.431Z" transform="translate(30.336 42.864)" fill="#c0222c"/>
        <path id="Fill_29" data-name="Fill 29" d="M5.964,9.468,3.769,8.732,0,11.611.988,1.729,2.87,0Z" transform="translate(34.554 27.648)" fill="#f6f7f9"/>
        <path id="Fill_31" data-name="Fill 31" d="M1.347,9.888,0,11.986l2.193-.736L5.965,14.13,16.056,5.192,11.348,0Z" transform="translate(40.517 25.13)" fill="#f6f7f9"/>
        <path id="Fill_33" data-name="Fill 33" d="M42.647,116.14h0c-4.79,0-8.109-.895-9.866-2.659-2.121-2.13-3.881-7.252-5.23-15.224a208.375,208.375,0,0,1-2.366-25.7c-.346-8.991-.314-18.467.091-26.681.408-8.266,1.168-14.721,2.141-18.177C29.466,20.422,41.724.2,41.847,0l.016,0c.474.126,4.756,1.278,9.165,2.979A45.1,45.1,0,0,1,57.8,6.155c2.187,1.308,3.548,2.586,4.046,3.8-.008,2.911-7.322,24.838-7.4,25.059.029.6,2.939,59.954,5.647,78.017C58.538,113.954,50.111,116.14,42.647,116.14ZM9.99,115.3h0c-3.648,0-7.931-2.538-9.99-3.758,1.068-4.791,2.791-16.411,4.931-44.567,1.279-16.836,2.112-31.811,2.12-31.96-.014-.9-.338-22.181-.345-25.059a10.637,10.637,0,0,1,3.5-3.132,52.464,52.464,0,0,1,5.565-3.049c3.8-1.834,7.39-3.212,7.425-3.226L18.569,26.169c0,.181.218,18.382-.038,37.685-.151,11.389-.433,20.985-.839,28.52-.507,9.419-1.21,15.626-2.089,18.449C14.679,113.792,12.79,115.3,9.99,115.3Z" transform="translate(12.821 28.395)" fill="#fff"/>
        <path id="Fill_35" data-name="Fill 35" d="M10,45.152l21.082-6.973s.764-2.052,2-5.179l-.186-.147,5.537-16.26S46.975-.961,51.505.041C61.145,2.176,58.1,19.813,58.1,19.813S50.978,38.376,50.13,40.83c-.014.044-.03.087-.044.13l0,.012h0c-2.315,6.844-5.063,12.311-7.476,13.946C37.317,58.5,0,47.4,0,47.4Z" transform="translate(18.895 34.476)" fill="#fff"/>
        <path id="Fill_37" data-name="Fill 37" d="M3.969,7.644c-1.393-.167-1.731.25-2.714,1.333-1.507-.227.237-2.971,1.4-3.476.932-.4-.55.786-2.155,1.538-.527-.26-1-1.247.593-2.273C-.92,4.5,2.278,2.063,2.766,1.6A1.393,1.393,0,0,1,2.064.53C3.35-.187,6.077-.012,7.566.12c1.633.144,1.2.391,2.606,1.229C11.5,2.14,13.143,2.6,13.913,3.96,14.624,5.209,16.3,6.8,16.8,8.16,17.191,9.2,5.36,7.813,3.969,7.644" transform="translate(11.415 64.419)" fill="#efbf6e"/>
        <path id="Fill_39" data-name="Fill 39" d="M17.388,2.346,15.719,6.688.854,12.07,0,3.081,10.048,0Z" transform="translate(34.259 65.967)" fill="#ffd388"/>
        <g id="Group_43" data-name="Group 43" transform="translate(0 66.84)">
          <path id="Clip_42-2" data-name="Clip 42" d="M0,0H35.113V16.575H0Z" fill="none"/>
          <g id="Group_43-2" data-name="Group 43" clip-path="url(#clip-path-3)">
            <path id="Fill_41" data-name="Fill 41" d="M35.113,11.2s-27.2,7.381-30.147,4.849C2.207,13.674-1.4,5.217.559,2.147,1.578.547,6.011.519,7.882.232,14.96-.851,34.259,2.208,34.259,2.208Z" transform="translate(0)" fill="#fff"/>
          </g>
        </g>
        <path id="Fill_44" data-name="Fill 44" d="M37.432,2.277l-7.1-.2L0,9.14,30.988,0Z" transform="translate(19.3 72.655)" fill="#f6f7f9"/>
      </g>
    </g>
  </g>
</svg>
