<svg width="150" height="150" viewBox="0 0 150 150" xmlns="http://www.w3.org/2000/svg" xmlns:xlink="http://www.w3.org/1999/xlink">
    <defs>
        <path d="M0 75c0 41.421 33.579 75 75 75 41.422 0 75-33.579 75-75S116.422 0 75 0C33.579 0 0 33.579 0 75z" id="a"/>
        <path d="M0 75c0 41.421 33.579 75 75 75 41.422 0 75-33.579 75-75S116.422 0 75 0C33.579 0 0 33.579 0 75" id="c"/>
        <path d="M0 75c0 41.421 33.579 75 75 75 41.422 0 75-33.579 75-75S116.422 0 75 0C33.579 0 0 33.579 0 75" id="e"/>
        <path d="M0 75c0 41.421 33.579 75 75 75 41.422 0 75-33.579 75-75S116.422 0 75 0C33.579 0 0 33.579 0 75" id="g"/>
        <path d="M0 75c0 41.421 33.579 75 75 75 41.422 0 75-33.579 75-75S116.422 0 75 0C33.579 0 0 33.579 0 75" id="i"/>
        <path d="M0 75c0 41.421 33.579 75 75 75 41.422 0 75-33.579 75-75S116.422 0 75 0C33.579 0 0 33.579 0 75" id="k"/>
        <path d="M0 75c0 41.421 33.579 75 75 75 41.422 0 75-33.579 75-75S116.422 0 75 0C33.579 0 0 33.579 0 75z" id="m"/>
        <path d="M0 75c0 41.421 33.579 75 75 75 41.422 0 75-33.579 75-75S116.422 0 75 0C33.579 0 0 33.579 0 75" id="o"/>
        <path d="M0 75c0 41.421 33.579 75 75 75 41.422 0 75-33.579 75-75S116.422 0 75 0C33.579 0 0 33.579 0 75" id="q"/>
        <path d="M0 75c0 41.421 33.579 75 75 75 41.422 0 75-33.579 75-75S116.422 0 75 0C33.579 0 0 33.579 0 75" id="s"/>
        <path d="M0 75c0 41.421 33.579 75 75 75 41.422 0 75-33.579 75-75S116.422 0 75 0C33.579 0 0 33.579 0 75" id="u"/>
        <path d="M0 75c0 41.421 33.579 75 75 75 41.422 0 75-33.579 75-75S116.422 0 75 0C33.579 0 0 33.579 0 75" id="w"/>
        <path d="M0 75c0 41.421 33.579 75 75 75 41.422 0 75-33.579 75-75S116.422 0 75 0C33.579 0 0 33.579 0 75" id="y"/>
        <path d="M0 75c0 41.421 33.579 75 75 75 41.422 0 75-33.579 75-75S116.422 0 75 0C33.579 0 0 33.579 0 75" id="A"/>
        <path d="M0 75c0 41.421 33.579 75 75 75 41.422 0 75-33.579 75-75S116.422 0 75 0C33.579 0 0 33.579 0 75" id="C"/>
        <path d="M0 75c0 41.421 33.579 75 75 75 41.422 0 75-33.579 75-75S116.422 0 75 0C33.579 0 0 33.579 0 75" id="E"/>
        <path d="M0 75c0 41.421 33.579 75 75 75 41.422 0 75-33.579 75-75S116.422 0 75 0C33.579 0 0 33.579 0 75" id="G"/>
        <path d="M0 75c0 41.421 33.579 75 75 75 41.422 0 75-33.579 75-75S116.422 0 75 0C33.579 0 0 33.579 0 75" id="I"/>
        <path d="M0 75c0 41.421 33.579 75 75 75 41.422 0 75-33.579 75-75S116.422 0 75 0C33.579 0 0 33.579 0 75" id="K"/>
        <path d="M0 75c0 41.421 33.579 75 75 75 41.422 0 75-33.579 75-75S116.422 0 75 0C33.579 0 0 33.579 0 75" id="M"/>
    </defs>
    <g fill="none" fill-rule="evenodd">
        <g>
            <mask id="b" fill="#fff">
                <use xlink:href="#a"/>
            </mask>
            <path d="M-4.894-1.332v152.887c4.615 1.851 11.56 3.929 20.324 5.655h78.968c18.379-3.547 39.824-10.105 59.25-20.064V-1.332H-4.894z" fill="#BCE" mask="url(#b)"/>
        </g>
        <g>
            <mask id="d" fill="#fff">
                <use xlink:href="#c"/>
            </mask>
            <path d="M137.923 49.917c-1.336-6.544-5.183-27.937-5.183-27.937.998-.662 5.064-7.028 3.513-7.028-6.324 0-9.852 1.967-11.712 1.406-6.554-1.978-50.364-9.136-75.666-5.12-5.413.858-19.914 3.593-21.83 4.505-3.246 1.545-7-.777-10.448.675 0 0 .097 2.044.49 3.013.418 1.033 2.335 3.755 2.335 3.755.14.827-2.268 9.327-3.102 12.118-3.501 11.716-3.626 26.625-2.409 36.724-1.886 1.905-3.972 5.929-4.13 8.194-.167 2.365 5.015 1.31 6.974.29 0 0 4.691 2.703 7.372 3.181 5.327.95 9.405.943 14.7.3 8.07-.98 16.006-2.905 24.198-2.36 8.829.586 19.075 4.095 27.935 4.09 9.477-.004 33.897-1.773 37.755-1.973 3.596-.187 7.629 1.736 11.258 1.549.187-1.44-.443-6.072-1.209-6.943.842-4.125.276-22.969-.84-28.44" fill="#E7F6FA" mask="url(#d)"/>
        </g>
        <g>
            <mask id="f" fill="#fff">
                <use xlink:href="#e"/>
            </mask>
            <path d="M107.756 28.22c14.53 1.841 23.056 8.734 23.056 31.047 0 17.629-8.021 31.168-19.945 36.18-11.925 5.012-30.99-70.758-3.111-67.226" fill="#5E332F" mask="url(#f)"/>
        </g>
        <g>
            <mask id="h" fill="#fff">
                <use xlink:href="#g"/>
            </mask>
            <path d="M91.35 80.089c-2.102-.597-15.074-3.657-16.63-5.523-1.201-1.442-1.705-15.932-1.77-19.997-2.883-.961-11.535.16-19.538.393 0 2.524-2.346 20.902-2.935 21.374-3.435 2.748-14.772 4.047-19.112 4.6-3.612.461-10.09 3.95-11.149 5.663-3.716 6.017-4.524 15.251-.708 23.536 2.022 4.388 3.702 9.722 5.814 14.065 1.879 3.863 13.82 13.301 19.865 16.583 5.436 2.951 6.032 2.143 7.587 2.489 11.891 2.643 22.492-4.935 31.208-10.978 19.966-13.846 17.943-49.2 7.368-52.205" fill="#5D4577" mask="url(#h)"/>
        </g>
        <g>
            <mask id="j" fill="#fff">
                <use xlink:href="#i"/>
            </mask>
            <path d="M118.79 92.153c-1.983-7.474-5.502-10.063-9.72-17.487-1.816-3.199-.65-9.757-.82-13.14-.187-3.667-11.016 4.092-13.177 4.658l-.884 3.218c-1.19 3.695-1.648 8.06-4.134 11.09-1.986 2.422-6.227 5.887-8.079 8.408-1.785 2.428-3.46 6.502-4.247 9.379-.483 1.764-.029.2.053 2.012.08 1.764-.312 3.843-.012 5.56.369 2.104 2.244 2.358 4.136 2.8 4.734 1.108 9.54 1.878 14.267 3.031 6.244 1.522 20.963 11.713 21.674 8.075.994-5.094 2.814-20.555.943-27.604" fill="#DD6879" mask="url(#j)"/>
        </g>
        <g>
            <mask id="l" fill="#fff">
                <use xlink:href="#k"/>
            </mask>
            <path d="M100.077 28.714c-14.428 4.121-17.348 13.36-18.79 22.992-3.225 21.558 4.848 24.274 2.55 35.145-.754 3.57-1.934 9.432-1.934 9.432s8.957-2.392 12.092-25.031c.424-3.059.43-6.17 2.474-10.528 7.837-16.71 17.542-35.99 3.608-32.01" fill="#5E332F" mask="url(#l)"/>
        </g>
        <g>
            <mask id="n" fill="#fff">
                <use xlink:href="#m"/>
            </mask>
            <path d="M153.648 157.21v-51.898c-14.556 3.371-31.11 6.503-36.442 5.196-8.978-2.201-20.508-7.6-27.23-13.95-7.369-6.965-18.887-5.742-27.008-4.388-11.278 1.88-19.793 3.705-30.128 12.09-4.198 3.406-22.785 4.848-37.734 5.596v47.354h158.542z" fill="#E7F6FA" mask="url(#n)"/>
        </g>
        <g>
            <mask id="p" fill="#fff">
                <use xlink:href="#o"/>
            </mask>
            <path d="M85.19 69.583c2.66 5.8 8.011 3.834 12.87 2.457 5.643-1.599 8.092-5.657 10.138-8.633.465.372 1.32.3 3.02-.419 1.321-.558 3.05-4.47 2.942-6.666-.099-1.994-3.186-1.166-4.493.26-.675.736 3.92-18.018-1.126-22.31-4.833-4.113-9.39-1.522-15.525.967-4.467 1.812-6.695 6.665-7.364 10.878-.474 2.989-.03 4.52-1.157 7.456-.759 1.976-1.15 3.947-1.292 6.003-.245 3.523 1.411 8.75 1.987 10.007" fill="#F27581" mask="url(#p)"/>
        </g>
        <g>
            <mask id="r" fill="#fff">
                <use xlink:href="#q"/>
            </mask>
            <path d="M114.23 85.92c-1.307-.716-5.969-.855-10.168 4.138-8.042 9.564-8.43 17.266-21.858 29.03-3.296-3.184-5.434-5.706-11.094-9-3.023-1.759-8.582-4.425-12.122-9.381-1.337-1.871-7.524-8.702-8.568-2.147-.898 5.644 6.248 10.102 9.349 14.535 8.907 12.732 21.752 16.966 21.752 16.966s10.39-4.762 13.742-7.115c8.957-6.289 15.042-15.196 19.041-22.423 2.763-4.992 3.543-12.616-.075-14.602" fill="#DD6879" mask="url(#r)"/>
        </g>
        <g>
            <mask id="t" fill="#fff">
                <use xlink:href="#s"/>
            </mask>
            <path d="M57.275 88.135c-.996-1.205-1.963-3.233-2.165-3.183-2.05.502.59 3.785.97 4.562.524 1.07-.609 2.483-.883 3.319-1.323-.99-2.62-2.72-3.204-4.257-.49-1.29-2.75-6.164-3.865-6.76-1.566-.839-.38 1.851-.022 2.83.764 2.09 1.893 4.245 2.35 6.218-.579.064-2.21-2.188-3.05-3.437-.896-1.331-3.13-4.716-3.98-4.134-.737.507 1.252 4.038 2.238 5.403.715.99 2.176 3.212 1.846 4.056-.698-.385-1.742-2.086-3.072-3.572-.786-.878-2.228-4.25-3.35-3.226-.806.734.656 2.465 2.843 5.797.371.565 2.066 2.742 1.416 3.21-.675.487-4.23-5.075-5.057-4.279-1.06 1.02 2.298 4.48 3.377 6.182 1.683 2.654 3.132 4.196 5.646 6.163 2.665 2.084 4.274 2.488 6.468 1.289 1.177-.644 1.438-3.062 2.327-5.014.695-1.526 1.285-5.002 1.015-6.575-.169-.98-.684-3.185-1.848-4.592" fill="#DD6879" mask="url(#t)"/>
        </g>
        <g>
            <mask id="v" fill="#fff">
                <use xlink:href="#u"/>
            </mask>
            <path d="M90.84 115.782c-11.402 7.6-30.336 10.627-30.963 10.868-.956.368-6.546 2.4-6.546 2.4s-4.227-5.322-5.724-9.304c-2.066-5.497-12.74-22.234-15.983-25.477-3.965-3.965-16.281-8.996-14.554 7.587.506 4.856 4.037 12.25 6.699 16.413 4.363 6.82 8.927 11.376 15.24 16.412 3.153 2.516 10.159 8.353 12.059 9.044 2.42.88 15.073-3.517 15.073-3.517 16.41-10.71 28.675-15.32 29.66-17.478.955-2.092-3.515-7.913-4.962-6.948" fill="#5D4577" mask="url(#v)"/>
        </g>
        <g>
            <mask id="x" fill="#fff">
                <use xlink:href="#w"/>
            </mask>
            <path d="M110.476 114.032c-1.48 1.037-2.412 1.592-3.21 2.173 0 0-.394-.33-.402-.7 1.176-1.29 3.587-3.47 3.706-3.874.266-.9.685-4.286.687-5.3-2.175-.4-2.288 3.285-2.438 3.574-.321.622-2.747 2.992-3.257 3.522 0 0-.21-.2-.34-.434.882-1.011 2.762-3.653 3.147-4.52.213-.479.78-3.111.97-5.379-1.879-.231-2.952 4.217-2.952 4.217-1.456 2.146-3.162 4.084-3.162 4.084l-.287-.238c.497-1.029 1.96-3.874 2.236-4.823.064-.22 1.146-2.298 1.024-4.001-1.565-.03-2.474 1.164-3.144 3.661-.069.257-1.256 2.077-2.52 3.71-.114.147-.705.742-1.002.952-1.69 1.195-.984.817-3.846 2.006-.206-1.28.174-1.971.403-2.842 1.55-.974 2.222-1.689 2.835-2.632.389-.598.412-2.166-.392-2.38-.518.485-2.303 2.138-5.402 2.95-.431.112-3.139 5.191-3.023 5.65.104.41-.012 4.832.12 5.237.366 1.125-.32.27.014 1.402.128.433 2.495 4.696 3.244 4.568 7.728-1.32 13.09-4.72 13.545-5.418.476-.73.973-1.023 1.248-1.188 1.061-.637 3.308-2.164 3.612-2.955.266-.693 1.18-2.846 1.254-3.984-1.394-.251-2.314 1.442-2.668 2.962" fill="#5D4577" mask="url(#x)"/>
        </g>
        <g>
            <mask id="z" fill="#fff">
                <use xlink:href="#y"/>
            </mask>
            <path d="M85.51 30.011s1.853-1.297 3.243-3.05c1.33-1.675 2.38-3.595 1.277-4.445-1.838-1.418-3.357 2.235-3.357 2.235s-.18-4.016-2.044-3.394c-1.587.528-1.567 2.839-.827 4.895a28.874 28.874 0 0 0 1.707 3.759" fill="#BA1929" mask="url(#z)"/>
        </g>
        <g>
            <mask id="B" fill="#fff">
                <use xlink:href="#A"/>
            </mask>
            <path d="m120.446 56.378.003.027.063-.056-.066.029" fill="#6B5C53" mask="url(#B)"/>
        </g>
        <g>
            <mask id="D" fill="#fff">
                <use xlink:href="#C"/>
            </mask>
            <path d="M97.571 28.416s-13.837 4.125-9.69 14.321c2.157 5.302 10.55 7.848 10.55 7.848l7.942 2.694s3.29 3.649 7.873 4.771c4.582 1.122 3.533-5.116 4.052-8.227.518-3.11 4.477-26.942-20.727-21.407" fill="#5E332F" mask="url(#D)"/>
        </g>
        <g>
            <mask id="F" fill="#fff">
                <use xlink:href="#E"/>
            </mask>
            <path d="M42.58 52.459c.277 1.333 1.524 3.05 2.676 4.356.697.791 1.502 1.123 2.183 1.194a337.43 337.43 0 0 1-2.172-7.52 2.21 2.21 0 0 0-.689-.174 16.654 16.654 0 0 1-1.997 2.144" fill="#5D4577" mask="url(#F)"/>
        </g>
        <g>
            <mask id="H" fill="#fff">
                <use xlink:href="#G"/>
            </mask>
            <path d="M64.608 58.582c-.303.684-.887 1.496-1.987 2.248 1.58-.259 3.183-.706 4.572-1.329a8.302 8.302 0 0 1-2.585-.92" fill="#F3BA96" mask="url(#H)"/>
        </g>
        <g>
            <mask id="J" fill="#fff">
                <use xlink:href="#I"/>
            </mask>
            <path d="M78.077 47.495c-.168 1.068-.679 1.805-1.2 2.236-.11-2.554-.278-5.354-.554-7.874.199-.055.422-.085.673-.076 1.581.054 1.463 3.284 1.081 5.714M74.915 37.29c-.193-.105-.139-.172.028.017l-.028-.017m1.18 3.923a24.497 24.497 0 0 0-.065-.983c-.052-.568-.105-1.12-.294-1.659-.16-.46-.335-.986-.777-1.254a10 10 0 0 0-.155-.204c-.322-.411-.999-.452-1.427-.218a1.16 1.16 0 0 0-.12.076c-.424-.6-.852-1.16-1.25-1.642-.786-.95-1.585-2.395-2.062-3.954-1.582-.244-3.994.194-5.577.859-3.375 1.416-6.875 3.175-9.888 5.43-1.662-.47-3.017.828-3.811 2.125-.11.178-.21.362-.304.549-.575.126-1.058.495-1.51.845-.373.288-.663.714-.903 1.113a5.356 5.356 0 0 0-.541 1.245 3.624 3.624 0 0 0-1.033 1.216 4.404 4.404 0 0 0-.465 1.563c-.033.09-.06.18-.077.272-.04.21-.07.42-.093.633l.07.63c.042.17.1.332.175.486-.444.685-.906 1.35-1.399 1.973.222.018 3.314 9.322 3.294 9.335.372 1.203.606 1.934.606 1.934.408 1.207 1.353 4.567 1.925 5.081.59.531 11.914 5.486 13.565 5.486 1.405 0 6.57-1.811 6.96-2.124.295-.236 5.898-8.67 5.957-9.2.054-.484.235-3.149.192-4.584l-.095-3.372c-.057-.008-.65-11.897-.898-11.657" fill="#775093" mask="url(#J)"/>
        </g>
        <g>
            <mask id="L" fill="#fff">
                <use xlink:href="#K"/>
            </mask>
            <path d="M78.873 49.304c.609-3.868.796-9.01-1.72-9.095-.4-.014-.755.034-1.072.122.44 4.011.708 8.468.883 12.532.828-.686 1.642-1.86 1.91-3.56" fill="#5D4577" mask="url(#L)"/>
        </g>
        <g>
            <mask id="N" fill="#fff">
                <use xlink:href="#M"/>
            </mask>
            <path d="M44.59 50.315c2.46-3.112 4.131-7.228 6.816-9.977 3.516-3.599 8.356-6.17 12.962-8.103 1.583-.665 3.995-1.103 5.577-.86.477 1.56 1.276 3.005 2.061 3.954 1.356 1.642 3.056 4.174 3.733 6.137.391-.176.733-.646 1.042-1.31.185-.397.358-.865.522-1.38.381-1.2.39-4.085.25-5.443-.456-4.419-1.136-9.035-4.43-8.668-1.042-1.606-2.598-2.976-4.019-3.95-6.807-4.666-15.72-3.496-22.453.669-5.577 3.45-7.373 8.263-7.86 14.584-.391 5.052-.124 16.629-1.55 18.636 1.67-.14 5.188-2.049 5.612-2.426a14.47 14.47 0 0 0 1.736-1.863" fill="#261235" mask="url(#N)"/>
        </g>
    </g>
</svg>
