<?xml version="1.0" encoding="utf-8"?>
<!-- Generator: Adobe Illustrator 26.0.2, SVG Export Plug-In . SVG Version: 6.00 Build 0)  -->
<svg version="1.1" id="Layer_1" xmlns="http://www.w3.org/2000/svg" xmlns:xlink="http://www.w3.org/1999/xlink" x="0px" y="0px"
	 viewBox="0 0 451 226" style="enable-background:new 0 0 451 226;" xml:space="preserve">
<style type="text/css">
	.st0{fill-rule:evenodd;clip-rule:evenodd;fill:#C0222C;}
	.st1{fill-rule:evenodd;clip-rule:evenodd;fill:#F6963D;}
	.st2{fill-rule:evenodd;clip-rule:evenodd;fill:#421B59;}
	.st3{fill-rule:evenodd;clip-rule:evenodd;fill:#FFFFFF;}
	.st4{enable-background:new    ;}
	.st5{fill:#FFFFFF;}
</style>
<g id="_x30_.0---DEV">
	<g id="_x30_.2.1-who-desk" transform="translate(-825.000000, -358.000000)">
		<g id="who-2" transform="translate(825.729423, 358.000000)">
			<g id="Group-8">
				<polygon id="Fill-1" class="st0" points="225.1,225.2 450.3,225.2 450.3,0 225.1,0 				"/>
				<polygon id="Fill-2" class="st1" points="0,225.2 225.1,225.2 225.1,0 0,0 				"/>
				<g id="Group-7" transform="translate(194.626301, 85.243712)">
					<path id="Fill-3" class="st2" d="M61,28.9c0,16-13.7,28.9-30.5,28.9C13.7,57.9,0,44.9,0,28.9S13.7,0,30.5,0
						C47.4,0,61,13,61,28.9"/>
					<path id="Fill-5" class="st3" d="M23.8,23.5V22c0-3.3,2.6-5.9,5.8-5.9h0.6c3.2,0,5.8,2.7,5.8,5.9v1.4c0,0,0,0,0,0L23.8,23.5
						C23.8,23.5,23.8,23.5,23.8,23.5 M28.6,33.1c-0.4-0.4-0.6-0.9-0.6-1.4c0-0.5,0.2-1.1,0.6-1.4c0.4-0.4,0.8-0.6,1.4-0.6
						c0,0,0.1,0,0.1,0c1,0,1.9,0.9,1.9,2c0,0.6-0.2,1.1-0.6,1.4c-0.1,0.1-0.2,0.4-0.2,0.5l0.9,3.6c0,0.1,0,0.1,0,0.2
						c0,0.1-0.1,0.1-0.2,0.1h-3.8c-0.1,0-0.1,0-0.2-0.1c0-0.1-0.1-0.1,0-0.2l0.9-3.6C28.8,33.4,28.8,33.2,28.6,33.1 M40.7,23.5H40
						c0,0,0,0,0,0v-1.9c0-2.6-1-5.1-2.8-6.9c-1.8-1.8-4.2-2.9-6.8-2.9h-0.8c-2.6,0-5,1-6.8,2.9C21,16.6,20,19,20,21.6v1.9
						c0,0,0,0,0,0h-0.8c-0.9,0-1.6,0.7-1.6,1.6v7.8c0,3.3,1.3,6.3,3.5,8.7c2.3,2.3,5.3,3.6,8.5,3.6h0.5c3.2,0,6.3-1.3,8.5-3.6
						c2.3-2.3,3.5-5.4,3.5-8.7v-7.8C42.3,24.2,41.6,23.5,40.7,23.5"/>
				</g>
			</g>
			<g class="st4">
				<path class="st5" d="M65.6,97.9c0-0.7,0.1-1.4,0.1-2.2c0.6-0.6,5.9-0.5,5.7,0.5c0,7.1-0.3,11.9-0.3,18.9c0,0.1,0.1,0.1,0.1,0.2
					h5.4l0.2-0.1l0.7-18.9c0-0.8,0.9-0.7,1.5-0.7c1.2,0,3.7,0,3.7,1c0-0.3-0.1,22.1-0.1,35.1c-0.1,0.4-0.2,1.3-0.9,1.3h-4.3
					c-0.6,0-0.8-0.4-0.9-0.9c0-3.8,0.1-7.3,0.1-11.1l-5.4-0.2c-0.1,0.1-0.1,0.1-0.1,0.2v11.3c-0.1,0.7-1.3,0.8-2.5,0.8
					c-2.4,0-3.1-0.1-3.1-0.7l-0.2-5.2c0-0.5-0.1-6.1-0.1-8C65.3,109.9,65.4,104.9,65.6,97.9z"/>
				<path class="st5" d="M85.4,130.9c-0.2-3.1-0.3-6.5-0.4-35.1c0.1-0.2,0.3-0.2,0.5-0.2c0.7,0,9.8,0.2,11.4,0.1
					c0.1,0,0.8,0.1,1,0.2c0.2,0.1,1.2,0.2,1.2,0.5v4.6c0,0.7-0.8,0.7-1.3,0.7h-0.5l-6.2,0.1V112c0.8-0.3,1.5-0.2,2.2-0.2h1.9
					c0.5,0.1,1.2,0.4,1.2,1v4c0,0.4-0.5,0.8-0.8,0.8s-1.4,0.1-1.6,0.1c-1,0-1.8,0.2-2.8,0.2c0,0.3-0.1,1.9-0.1,2.3
					c0.1,1,0.5,6.2,0.7,7.1h0.3c2,0,3.8-0.4,5.8-0.4h1.2c0.3,0,0.8,0.3,0.8,0.6v3.7c0,0.8-0.9,1.2-1.5,1.4c-3,0.2-5.9,0.6-8.9,0.6
					c-1,0-1.6,0-2.9-0.1C85.6,132.8,85.5,131.7,85.4,130.9z"/>
				<path class="st5" d="M101.9,130.7c0-5,0-9.9,0.2-35.2c2.1-0.1,3.8-0.1,5.4-0.1c6.8,0,8.5,0.9,9.9,5.4l0.3,3.5
					c0.1,5.1-0.2,7.7-1.2,11.3c-0.8,3.3-4.5,4.9-7.9,4.9H108c0,0.9,0.2,5.4,0.2,8.7c0,1.5,0.2,4-0.6,4.1l-1.3,0.2h-3.5
					c-0.4,0-0.8-0.7-0.9-1C102,132.3,101.9,131,101.9,130.7z M108,115.4c3.9,0,3.8-5.1,3.8-8.9v-0.9c0-2.4-0.6-5.1-3.4-5.1
					c-0.6,0-0.6,6.7-0.6,8.6C107.9,110.2,108,113.3,108,115.4z"/>
				<path class="st5" d="M132.2,114.8v-6.7c0-3.7,0.1-7.9-0.2-12.2c0-0.6,0.5-0.8,1-0.9c0.3-0.1,2-0.4,2.4-0.5h2.3
					c8.6,0,12.4,2.4,11.7,10.8c-0.4,4.8-3.4,7.6-7,9.7v0.1c2.5,0.3,5.6,2.6,5.7,6.7c0.2,10.4-6.5,11.9-15.1,11.9
					c-0.6,0-0.8-0.7-0.7-1.2C132.3,129.9,132.2,117.5,132.2,114.8z M138.2,99.3l-0.2,0.1c-0.1,0.1-0.4,7.1-0.5,10.1
					c0,0.4-0.1,2.2-0.1,2.6h0.2c4.3,0.1,6-4.7,5.7-8.1v-1.4c-0.5-2.2-2.6-3.4-4.8-3.4C138.4,99.2,138.2,99.2,138.2,99.3z
					 M137.8,128.8h0.1c4.3-0.1,4.7-3.5,4.6-6.2c-0.2-5.5-3.1-5.5-4.9-5.5C137.5,120.1,137.7,125.7,137.8,128.8z"/>
			</g>
			<g class="st4">
				<path class="st5" d="M271.8,97.9c0-0.7,0.1-1.4,0.1-2.2c0.6-0.6,5.9-0.5,5.7,0.5c0,7.1-0.3,11.9-0.3,18.9c0,0.1,0.1,0.1,0.1,0.2
					h5.4l0.2-0.1l0.7-18.9c0-0.8,0.9-0.7,1.5-0.7c1.2,0,3.7,0,3.7,1c0-0.3-0.1,22.1-0.1,35.1c-0.1,0.4-0.2,1.3-0.9,1.3h-4.3
					c-0.6,0-0.8-0.4-0.9-0.9c0-3.8,0.1-7.3,0.1-11.1l-5.4-0.2c-0.1,0.1-0.1,0.1-0.1,0.2v11.3c-0.1,0.7-1.3,0.8-2.5,0.8
					c-2.4,0-3.1-0.1-3.1-0.7l-0.2-5.2c0-0.5-0.1-6.1-0.1-8C271.5,109.9,271.6,104.9,271.8,97.9z"/>
				<path class="st5" d="M291.6,130.9c-0.2-3.1-0.3-6.5-0.4-35.1c0.1-0.2,0.3-0.2,0.5-0.2c0.7,0,9.8,0.2,11.4,0.1
					c0.1,0,0.8,0.1,1,0.2c0.2,0.1,1.2,0.2,1.2,0.5v4.6c0,0.7-0.8,0.7-1.3,0.7h-0.5l-6.2,0.1V112c0.8-0.3,1.5-0.2,2.2-0.2h1.9
					c0.5,0.1,1.2,0.4,1.2,1v4c0,0.4-0.5,0.8-0.8,0.8c-0.3,0-1.4,0.1-1.6,0.1c-1,0-1.8,0.2-2.8,0.2c0,0.3-0.1,1.9-0.1,2.3
					c0.1,1,0.5,6.2,0.7,7.1h0.3c2,0,3.8-0.4,5.8-0.4h1.2c0.3,0,0.8,0.3,0.8,0.6v3.7c0,0.8-0.9,1.2-1.5,1.4c-3,0.2-5.9,0.6-8.9,0.6
					c-1,0-1.6,0-2.9-0.1C291.8,132.8,291.7,131.7,291.6,130.9z"/>
				<path class="st5" d="M308.1,130.7c0-5,0-9.9,0.2-35.2c2.1-0.1,3.8-0.1,5.4-0.1c6.8,0,8.5,0.9,9.9,5.4l0.3,3.5
					c0.1,5.1-0.2,7.7-1.2,11.3c-0.8,3.3-4.5,4.9-7.9,4.9h-0.6c0,0.9,0.2,5.4,0.2,8.7c0,1.5,0.2,4-0.5,4.1l-1.3,0.2H309
					c-0.4,0-0.8-0.7-0.9-1C308.2,132.3,308.1,131,308.1,130.7z M314.2,115.4c3.9,0,3.8-5.1,3.8-8.9v-0.9c0-2.4-0.6-5.1-3.4-5.1
					c-0.6,0-0.6,6.7-0.6,8.6C314.1,110.2,314.2,113.3,314.2,115.4z"/>
				<path class="st5" d="M338.7,99.5V96c0.3-1,2.3-0.8,4.2-0.8c4.7,0,11.2,1.2,13,11.7c0.5,6.4-0.5,23.1-12.4,26.1
					c-0.8,0.2-3.6,0.1-4.5,0.1c-1.2-0.8-0.8-6.8-0.8-10.2C338.4,115.2,338.7,107.3,338.7,99.5z M344.3,127h0.2c0.1,0,0.8-0.8,1-1
					c3.6-4.2,4.6-9.6,4.6-15c0-3.8-1.6-10-5-10c-0.2,0-0.5,0.1-0.5,0.1l-0.2,0.7c0,0.7-0.2,10.6-0.2,11.7
					C344.1,113.3,344.1,122.5,344.3,127z"/>
				<path class="st5" d="M358.6,130.9c-0.2-3.1-0.3-6.5-0.4-35.1c0.1-0.2,0.3-0.2,0.5-0.2c0.7,0,9.8,0.2,11.4,0.1
					c0.1,0,0.8,0.1,1,0.2c0.2,0.1,1.2,0.2,1.2,0.5v4.6c0,0.7-0.8,0.7-1.3,0.7h-0.5l-6.2,0.1V112c0.8-0.3,1.5-0.2,2.2-0.2h1.9
					c0.5,0.1,1.2,0.4,1.2,1v4c0,0.4-0.6,0.8-0.8,0.8c-0.3,0-1.4,0.1-1.7,0.1c-1,0-1.8,0.2-2.8,0.2c0,0.3-0.1,1.9-0.1,2.3
					c0.1,1,0.5,6.2,0.7,7.1h0.3c2,0,3.8-0.4,5.8-0.4h1.2c0.3,0,0.8,0.3,0.8,0.6v3.7c0,0.8-0.9,1.2-1.5,1.4c-3,0.2-5.9,0.6-8.9,0.6
					c-1,0-1.6,0-2.9-0.1C358.9,132.8,358.7,131.7,358.6,130.9z"/>
				<path class="st5" d="M375.1,122.5c0-5.9,0.3-12.8,0.3-19.1c0-2.9-0.2-5.9-0.2-7.1c0-0.9,0.1-1.2,0.8-1.2c0.3,0,0.5,0,0.9,0.2
					c0.2,0,0.5-0.1,0.8-0.1c1.8,0,3.3,0.1,3.3,2c0,2-0.2,13-0.5,30l0.1,1.4c0,0.1,0.3,0.1,0.4,0.1c1.2,0,2.3-0.3,3.5-0.3
					c0.6,0.3,0.4,2.4,0.4,3.8c0,1.7-2.8,1.6-3.8,1.6c-0.1,0-1.3,0-1.8-0.3h-0.8c-2.5,0-3.3,0.1-3.3-2.5
					C375.3,129.7,375.1,123.7,375.1,122.5z"/>
				<path class="st5" d="M392.1,101.4c0,0-0.5-0.1-0.8-0.1c-1.2,0-4.2,0.5-4.2,0.1v-5.3c0-0.3,0.8-0.5,1-0.5c0.1,0,0.3,0.1,0.3,0.1
					l14.4,0.1c0.1,0.1,0.4,0.3,0.4,0.5v4.2c0,0.3-0.1,0.8-0.4,1c-2,0-3.4,0.1-5,0.1c0,0.2,0.1,0.5,0.1,0.7
					c0.4,10.7,0.5,22.4,0.5,29.9c-0.2,0.7-1.1,0.7-1.8,0.7H396c-2,0-3.1,0.1-3.2-2.1l-0.6-28.5L392.1,101.4z"/>
				<path class="st5" d="M401.6,133.5v-0.2c0.1-0.5,0.2-2,0.2-2l5.6-32.3c0-0.2,0.4-1.9,0.6-2.5c0.1-0.3,0.5-1,0.9-1h4.8
					c1,0,1.6,1.4,1.8,2.1l4.6,35.4v0.3c0,0.2,0.1,0.4-0.3,0.5c-0.1,0.1-0.8,0.1-1,0.1c-0.2,0-0.9,0-1-0.1c-0.1,0-1.8-0.3-2.4-0.5
					c-0.5-0.1-0.9-0.6-1-1.1c-0.5-1.9-0.7-2.7-0.9-4.7l-0.2-0.1c-0.1,0-1-0.1-1.4-0.1c-0.5,0-2,0.1-2.3,0.1c-0.3,0-1.2,0.1-1.2,0.1
					l-0.2,0.2l-0.6,5.6c-0.1,0.3-0.2,0.5-0.4,0.7h-0.7c-1.4,0-3.3-0.2-4.7-0.2C401.6,133.8,401.6,133.7,401.6,133.5z M408.9,124
					c1.3,0,3.1-0.3,4.1-0.3V123l-1.6-16.9l-2.5,17.2V124z"/>
			</g>
		</g>
	</g>
</g>
</svg>
