<svg width="150" height="150" viewBox="0 0 150 150" xmlns="http://www.w3.org/2000/svg" xmlns:xlink="http://www.w3.org/1999/xlink">
    <defs>
        <path id="a" d="M0 0h22.81v139.452H0z"/>
        <path d="m0 .435 4.103 28.242c.402 2.77 2.501 12.852 3.607 17.272.821 3.284 4.25 14.654 4.394 25.626.244 18.863.886 44.87 7.012 62.208 1.241 3.51 3.667 3.808 4.336-1.507 1.318-10.454 1.44-29.772-1.34-42.602-1.735-8.014-6.017-31.979-4.672-38.47-2.283-1.86-8.832-14.965-10.533-26.674C5.4 14.157 2.921 1.018 2.778.034A9.215 9.215 0 0 0 2.024 0C1.214 0 .595.137 0 .435" id="c"/>
        <path d="m0 .435 4.103 28.242c.402 2.77 2.501 12.852 3.607 17.272.821 3.284 4.25 14.654 4.394 25.626.244 18.863.886 44.87 7.012 62.208 1.241 3.51 3.667 3.808 4.336-1.507 1.318-10.454 1.44-29.772-1.34-42.602-1.735-8.014-6.017-31.979-4.672-38.47-2.283-1.86-8.832-14.965-10.533-26.674C5.4 14.157 2.921 1.018 2.778.034A9.215 9.215 0 0 0 2.024 0C1.214 0 .595.137 0 .435" id="e"/>
        <path d="M0 4.39c.277 3.792 2.06 18.59 3.544 24.398 2.859 1.412 8.786 1.2 10.935.89C13.476 27.814 9.34 1.852 10.168 0 8.183.196 3.438 2.25 0 4.39" id="g"/>
        <path d="M0 4.39c.277 3.792 2.06 18.59 3.544 24.398 2.859 1.412 8.786 1.2 10.935.89C13.476 27.814 9.34 1.852 10.168 0 8.183.196 3.438 2.25 0 4.39" id="i"/>
        <path d="M0 4.39c.277 3.792 2.06 18.59 3.544 24.398 2.859 1.412 8.786 1.2 10.935.89C13.476 27.814 9.34 1.852 10.168 0 8.183.196 3.438 2.25 0 4.39" id="k"/>
        <path d="M0 4.39c.277 3.792 2.06 18.59 3.544 24.398 2.859 1.412 8.786 1.2 10.935.89C13.476 27.814 9.34 1.852 10.168 0 8.183.196 3.438 2.25 0 4.39" id="m"/>
        <path d="M0 4.39c.277 3.792 2.06 18.59 3.544 24.398 2.859 1.412 8.786 1.2 10.935.89C13.476 27.814 9.34 1.852 10.168 0 8.183.196 3.438 2.25 0 4.39" id="o"/>
        <path d="M0 4.39c.277 3.792 2.06 18.59 3.544 24.398 2.859 1.412 8.786 1.2 10.935.89C13.476 27.814 9.34 1.852 10.168 0 8.183.196 3.438 2.25 0 4.39" id="q"/>
        <path d="M.086 7.462a4.367 4.367 0 0 0-.042 1.483l.034.23c.011.087.023.172.037.255l2.46 16.932c.335 2.31 2.423 3.922 4.658 3.6 2.239-.324 3.782-2.46 3.446-4.772L8.149 7.774C7.54 3.59 8.947.854 13.48.196A13.908 13.908 0 0 0 11.136 0C5.995 0 .689 2.718.086 7.462z" id="s"/>
        <path d="M.086 7.462a4.367 4.367 0 0 0-.042 1.483l.034.23c.011.087.023.172.037.255l2.46 16.932c.335 2.31 2.423 3.922 4.658 3.6 2.239-.324 3.782-2.46 3.446-4.772L8.149 7.774C7.54 3.59 8.947.854 13.48.196A13.908 13.908 0 0 0 11.136 0C5.995 0 .689 2.718.086 7.462z" id="u"/>
        <path id="w" d="M0 0h20v75.652H0z"/>
        <path id="y" d="M0 0h16.686v4.361H0z"/>
        <path id="A" d="M0 0h5.072v17.45H0z"/>
        <path id="C" d="M0 0h5.072v17.45H0z"/>
    </defs>
    <g fill="none" fill-rule="evenodd">
        <circle fill="#E7F6FA" cx="75" cy="75" r="75"/>
        <g transform="translate(28.696 10.548)">
            <mask id="b" fill="#fff">
                <use xlink:href="#a"/>
            </mask>
            <path d="M2.832 6.632C2.532 4.402 1.728 2.717.205 0c-.504.248-.011 6.672.75 11.904.532 3.67 1.812 11.368 2.504 16.13.588 4.053 2.217 16.217 3.198 20.941 1.767 8.5 3.252 22.094 3.406 26.188.36 9.57 2.716 30.89 4.962 43.486.65 3.653 2.088 13.88 3.253 18.656.797 3.265 2.788 2.892 2.878-1.708.054-2.797 1.653-22.13 1.653-22.13s-4.144-21.372-3.89-26.789c.248-5.418-5.311-36.05-6.722-39.582-1.41-3.534-9.365-40.464-9.365-40.464" fill="#03737C" mask="url(#b)"/>
        </g>
        <path d="M38.09 60.299a.512.512 0 1 0 .147 1.014l.528-.076a.512.512 0 1 0-.148-1.014l-.528.076zM38.426 62.615a.512.512 0 1 0 .147 1.014l.528-.076a.513.513 0 1 0-.147-1.014l-.528.076zM38.762 64.931a.511.511 0 1 0 .147 1.013l.528-.076a.512.512 0 1 0-.147-1.013l-.528.076zM39.099 67.248a.512.512 0 1 0 .147 1.012l.528-.076a.512.512 0 1 0-.147-1.013l-.528.077zM39.435 69.563a.511.511 0 1 0 .147 1.012l.528-.076a.512.512 0 1 0-.147-1.012l-.528.076zM39.772 71.879a.511.511 0 1 0 .147 1.012l.528-.076a.512.512 0 1 0-.147-1.013l-.528.077zM40.108 74.193a.512.512 0 1 0 .147 1.014l.528-.076a.512.512 0 1 0-.147-1.014l-.528.076zM40.444 76.51a.511.511 0 1 0 .148 1.013l.528-.076a.512.512 0 1 0-.148-1.013l-.528.076zM40.78 78.825a.512.512 0 1 0 .148 1.014l.528-.076a.512.512 0 1 0-.147-1.015l-.528.077z" fill="#7EB4CB"/>
        <path d="m28.828 10.495 4.103 28.242c.402 2.771 2.501 12.852 3.606 17.272.822 3.285 4.25 14.654 4.395 25.627.244 18.862.885 44.87 7.012 62.207 1.24 3.51 3.667 3.808 4.336-1.507 1.318-10.454 1.44-29.772-1.34-42.602-1.735-8.014-6.017-31.979-4.673-38.47-2.282-1.859-8.83-14.965-10.532-26.674-1.507-10.373-3.986-23.512-4.13-24.496-1.203-.1-2.01.017-2.777.401" fill="#9AD4E8"/>
        <g>
            <g transform="translate(28.828 10.06)">
                <mask id="d" fill="#fff">
                    <use xlink:href="#c"/>
                </mask>
                <path d="M2.111 10.148c.319 2.003 2.827 19.643 3.222 22.126.395 2.484 1.541 12.847 3.495 18.546.985 2.873 4.45 13.284 4.852 23.117.687 16.907 1.877 40.216 7.247 55.773.756 2.189 1.931 2.987 2.712 1.675-.037.322-.075.638-.113.943-.67 5.315-3.096 5.019-4.336 1.507-6.125-17.34-6.768-43.345-7.013-62.207-.143-10.973-6.44-21.064-7.261-24.347-1.105-4.424-.338-15.781-.74-18.552L.073.488c.964-.912 1.248 4.222 2.038 9.66" fill="#7EB4CB" mask="url(#d)"/>
            </g>
            <g transform="translate(28.828 10.06)">
                <mask id="f" fill="#fff">
                    <use xlink:href="#e"/>
                </mask>
                <path d="M7.136 25.958C9.572 36.3 15.523 49.634 17.512 51.257c-.212 1.027-.283 2.496-.246 4.269-2.03-2.177-7.357-13.565-8.982-23.763-.137-.867-.998-4.908-1.148-5.805" fill="#7EB4CB" mask="url(#f)"/>
            </g>
        </g>
        <path d="M41.763 6.892c-1.984.196-6.73 2.251-10.168 4.39.277 3.792 2.06 18.59 3.545 24.399 2.858 1.411 8.785 1.2 10.935.888-1.004-1.861-5.14-27.823-4.312-29.677" fill="#FFF"/>
        <g>
            <g transform="translate(31.595 6.892)">
                <mask id="h" fill="#fff">
                    <use xlink:href="#g"/>
                </mask>
                <path d="M11.633 25.48c-4.701.721-8.608 1.42-8.405 2.817-.23-1.561-.544-3.643-.544-3.643.155 1.014 1.988 1.637 8.949.827" fill="#7EB4CB" mask="url(#h)"/>
            </g>
            <g transform="translate(31.595 6.892)">
                <mask id="j" fill="#fff">
                    <use xlink:href="#i"/>
                </mask>
                <path d="M10.762 21.335c-4.7.72-8.603 1.42-8.4 2.818-.23-1.562-.545-3.645-.545-3.645.156 1.014 1.989 1.637 8.945.827" fill="#7EB4CB" mask="url(#j)"/>
            </g>
            <g transform="translate(31.595 6.892)">
                <mask id="l" fill="#fff">
                    <use xlink:href="#k"/>
                </mask>
                <path d="M10.155 17.153c-4.7.721-8.604 1.42-8.4 2.817-.23-1.56-.545-3.644-.545-3.644.155 1.015 1.988 1.638 8.945.827" fill="#7EB4CB" mask="url(#l)"/>
            </g>
            <g transform="translate(31.595 6.892)">
                <mask id="n" fill="#fff">
                    <use xlink:href="#m"/>
                </mask>
                <path d="M9.547 12.972c-4.7.72-8.603 1.418-8.4 2.816-.23-1.561-.545-3.644-.545-3.644.156 1.016 1.988 1.636 8.945.828" fill="#7EB4CB" mask="url(#n)"/>
            </g>
            <g transform="translate(31.595 6.892)">
                <mask id="p" fill="#fff">
                    <use xlink:href="#o"/>
                </mask>
                <path d="M9.202 8.75c-4.7.72-8.607 1.42-8.405 2.818C.568 10.007.254 7.925.254 7.925c.155 1.013 1.988 1.636 8.948.825" fill="#7EB4CB" mask="url(#p)"/>
            </g>
            <g transform="translate(31.595 6.892)">
                <mask id="r" fill="#fff">
                    <use xlink:href="#q"/>
                </mask>
                <path d="M8.594 4.568c-4.7.721-8.607 1.42-8.404 2.818-.23-1.561-.544-3.644-.544-3.644.155 1.014 1.988 1.638 8.948.826" fill="#7EB4CB" mask="url(#r)"/>
            </g>
        </g>
        <g>
            <path d="M41.763 6.89c.406-.06 1.694 6.474 2.874 14.595 1.18 8.122 1.844 15.026 1.438 15.085-.41.059-1.737-6.75-2.916-14.871-1.18-8.121-1.806-14.75-1.396-14.81" fill="#DAEDF2"/>
            <path d="M49.974 94.955c-2.969-2.486-5.947-10.075-7.291-19.325-1.137-7.824-.852-15.098.57-19.027 1.213 2.257 2.584 4.063 3.273 4.624-1.134 5.48 1.602 22.826 3.448 33.728" fill="#FFF"/>
            <path d="M45.862 65.768a.512.512 0 1 0 .147 1.015l.53-.077a.513.513 0 0 0-.147-1.015l-.53.077zM46.198 68.084a.512.512 0 1 0 .147 1.013l.531-.076a.512.512 0 1 0-.147-1.014l-.531.077zM46.534 70.4a.512.512 0 1 0 .148 1.013l.53-.077a.512.512 0 1 0-.147-1.013l-.53.076zM46.87 72.715a.512.512 0 1 0 .148 1.014l.53-.077a.513.513 0 1 0-.146-1.013l-.531.076zM47.207 75.032a.512.512 0 1 0 .147 1.012l.531-.076a.512.512 0 1 0-.147-1.013l-.53.077zM47.544 77.348a.511.511 0 1 0 .147 1.013l.53-.077a.512.512 0 1 0-.147-1.013l-.53.077zM47.88 79.663a.513.513 0 0 0 .147 1.013l.531-.076a.512.512 0 1 0-.147-1.013l-.531.076zM48.217 81.98a.512.512 0 1 0 .147 1.012l.53-.077a.511.511 0 1 0-.146-1.013l-.531.077zM48.553 84.295a.512.512 0 1 0 .147 1.013l.53-.077a.512.512 0 1 0-.146-1.013l-.53.077z" fill="#FFF"/>
            <path d="M56.087 4.543c-4.534.66-5.94 3.395-5.332 7.578l2.53 17.417c.336 2.312-1.207 4.448-3.445 4.771-2.236.323-4.324-1.288-4.66-3.6l-2.459-16.931a7.406 7.406 0 0 1-.037-.254l-.034-.231a4.377 4.377 0 0 1 .042-1.483c.696-5.474 7.654-8.25 13.395-7.267" fill="#9DD9ED"/>
        </g>
        <g>
            <g transform="translate(42.606 4.348)">
                <mask id="t" fill="#fff">
                    <use xlink:href="#s"/>
                </mask>
                <path fill="#DC4358" mask="url(#t)" d="m1.222 27.725 4.1 1.44 2.473-2.627-3.948-15.552 1.428-5.973 2.494-3.207L11.243.269 15.31-.32l-1.54-2.108-8.267 1.131L-.922 4.6l.293 13.062z"/>
            </g>
            <g transform="translate(42.606 4.348)">
                <mask id="v" fill="#fff">
                    <use xlink:href="#u"/>
                </mask>
                <path d="m2.641 27.368.068.112a3.452 3.452 0 0 0 1.29 1.17c.26.139.574.249.908.29.331.046.688-.01.948-.196.532-.363.646-1.256.535-2.208-.107-.963-.392-2.025-.71-3.153-.33-1.164-.703-2.417-1.036-3.723a50.869 50.869 0 0 1-.907-4.085 31.998 31.998 0 0 1-.48-4.35c-.06-1.479.023-2.985.34-4.45.083-.365.177-.727.29-1.083.066-.185.108-.339.193-.547.069-.163.124-.31.223-.502.346-.72.8-1.305 1.318-1.82C6.67 1.809 7.896 1.174 9.065.709c.146-.062.295-.112.441-.163l.11-.039.116-.038.214-.067.425-.13.438-.11c.288-.08.576-.114.855-.169.283-.03.558-.078.832-.088a9.707 9.707 0 0 1 2.945.273c.856.204 1.575.464 2.167.671.59.216 1.047.399 1.36.519l.48.183-.093.229-.472-.204a42.676 42.676 0 0 0-1.345-.538A15.332 15.332 0 0 0 15.393.39a10.305 10.305 0 0 0-1.357-.197 8.578 8.578 0 0 0-1.51.04c-.263.023-.526.08-.795.128-.264.071-.54.122-.805.216l-.404.128-.415.16-.21.08-.052.02-.044.021-.1.047c-.134.062-.27.122-.401.194a7.795 7.795 0 0 0-2.758 2.39 9.043 9.043 0 0 0-.49.783c-.072.136-.146.27-.205.411a3.98 3.98 0 0 0-.177.405c-.054.117-.108.299-.162.46-.04.114-.083.298-.125.444-.08.313-.142.632-.195.956-.205 1.299-.186 2.668-.07 4.034.115 1.37.366 2.738.632 4.086.273 1.347.59 2.672.902 3.96l.93 3.736c.294 1.243.42 2.484.293 3.663-.066.588-.197 1.166-.453 1.694-.244.526-.679 1.003-1.203 1.212-.525.21-1.036.15-1.433.034a3.69 3.69 0 0 1-1-.495 6.23 6.23 0 0 1-1.12-1.005c-.117-.126-.2-.234-.257-.304a22.662 22.662 0 0 1-.083-.102l.315-.221z" fill="#FFF" mask="url(#v)"/>
            </g>
        </g>
        <g>
            <g transform="translate(65.217 39.13)">
                <mask id="x" fill="#fff">
                    <use xlink:href="#w"/>
                </mask>
                <path d="m0 1.573 10.722 74.08 1.224-.117 6.83-.648L20 74.772 16.583 0C14.31 1.21 11.511 2.055 8.44 2.347c-3.07.29-5.978-.014-8.44-.774" fill="#B1B1B1" mask="url(#x)"/>
            </g>
            <g transform="translate(65.218 39.13)">
                <mask id="z" fill="#fff">
                    <use xlink:href="#y"/>
                </mask>
                <path d="M16.686 2.245 16.583 0C14.31 1.21 11.511 2.055 8.44 2.347c-3.071.29-5.978-.014-8.44-.774l.322 2.224c2.53.54 5.351.711 8.297.432 2.945-.28 5.684-.978 8.067-1.984" fill="#D9D9D9" mask="url(#z)"/>
            </g>
            <path fill="#706F6F" d="m79.056 50.538-9.217.874-.267-2.818 9.217-.874z"/>
            <path d="M77.1 49.444a2.673 2.673 0 0 1-2.41 2.913 2.673 2.673 0 1 1-.505-5.32 2.673 2.673 0 0 1 2.915 2.407" fill="#868686"/>
            <path d="m77.805 46.635.722 7.599-7.07.67-.721-7.599-2.008.19c.265 4.353.621 8.948 1.072 13.696 2.555 26.905 7.17 48.474 10.306 48.176 3.136-.297 3.607-22.348 1.051-49.253a407.15 407.15 0 0 0-1.525-13.653l-1.827.174z" fill="#868686"/>
            <path d="m72.834 85.235 9.87-.936c-.009-.327-.018-.656-.03-.987l-9.997.948.157.975M73.11 86.9l9.637-.913-.024-.988-9.776.927.163.975M73.397 88.565l9.381-.89c-.005-.327-.01-.656-.017-.989l-9.533.905c.056.327.112.652.169.974M72.568 83.569l10.084-.956-.035-.987-10.2.967.151.976M73.696 90.228l9.102-.863-.01-.99-9.269.88.177.973M71.161 73.554l10.988-1.042-.065-.985-11.045 1.048.122.979M71.375 75.225l10.878-1.032-.06-.984-10.944 1.038.126.978M74.008 91.89l8.796-.834c0-.327 0-.657-.002-.99l-8.978.851c.061.328.123.652.184.973M71.597 76.895l10.752-1.02-.055-.984-10.828 1.026.131.978M71.827 78.565l10.61-1.007-.05-.985-10.696 1.015.136.977M72.065 80.234l10.453-.992-.046-.985-10.547 1 .14.977M72.312 81.902l10.277-.975-.04-.986-10.383.984.146.977M75.83 100.174l6.744-.64c.02-.324.04-.656.057-.995l-7.043.668c.08.33.162.652.243.967M77.923 106.715l3.827-.364c.047-.21.092-.43.136-.66l-4.22.401c.086.218.172.425.257.623M77.408 105.416l4.605-.437c.034-.212.067-.43.1-.656l-4.928.467c.075.216.149.424.223.626M76.552 102.801l5.808-.55c.021-.214.041-.431.06-.653l-6.05.574c.06.214.122.424.182.63M76.958 104.11l5.25-.497c.027-.213.053-.431.078-.654l-5.527.524c.066.215.133.423.199.627M74.335 93.55l8.461-.802c.003-.327.005-.657.006-.991l-8.66.821c.064.328.129.652.193.972M78.56 108.002l2.807-.267c.07-.203.14-.426.205-.665l-3.339.317c.11.222.219.428.327.615M80.106 109.367c.353-.033.671-.342.957-.901l-2.066.195c.385.497.756.74 1.109.706M74.677 95.21l8.095-.768c.006-.327.012-.657.016-.992l-8.314.788.203.971M75.039 96.866l7.69-.729c.01-.326.02-.657.028-.993l-7.932.752c.071.329.142.652.214.97M75.422 98.521l7.242-.686c.015-.326.029-.657.041-.995l-7.51.713c.075.329.151.652.227.968M70.954 71.882l11.082-1.051-.068-.984-11.131 1.056c.038.327.078.654.117.979M76.18 101.489l6.3-.598.048-.65-6.519.617c.057.214.113.424.17.63M69.703 60.16l11.355-1.077-.097-.98-11.347 1.075.09.982M70.199 65.188l11.32-1.074-.086-.982-11.336 1.075.102.98M70.563 68.536 81.79 67.47c-.025-.327-.05-.654-.077-.983l-11.26 1.068.109.98M70.377 66.862l11.281-1.07-.08-.983-11.306 1.073.105.98M79.632 46.462l-1.827.173.722 7.599-7.07.67-.721-7.599-2.008.19c.182 2.998.408 6.112.678 9.31l11.312-1.072a398.952 398.952 0 0 0-1.086-9.271M70.027 63.512l11.345-1.076-.09-.981L69.93 62.53l.098.981M69.8 61.191c.02.216.04.43.062.646l11.356-1.077-.06-.646-.033-.336-11.357 1.077.032.336M69.466 57.5l.086.983 11.34-1.075-.1-.981L69.465 57.5zM70.755 70.21l11.163-1.06-.073-.983L70.64 69.23l.114.98" fill="#9C9C9B"/>
        </g>
        <g>
            <path d="M115.23 69.909s1.196-10.432 5.631-15.476c4.435-5.043 5.61-13.642 5.61-13.642l-4.574-.627c-.902 5.387-4.18 9.6-7.098 9.2-2.92-.4-4.855-5.187-4.372-10.773l-4.462-.612s-1.174 8.6 1.746 14.651c2.92 6.052 1.278 16.423 1.278 16.423l-12.54 65.25s-3.288 14.102 4.736 15.202c8.024 1.101 8.636-13.368 8.636-13.368l5.408-66.228z" fill="#FF92C7"/>
            <path d="M121.917 40.066c-1.167 5.701-4.125 9.277-7.06 8.875-2.936-.403-4.827-4.644-4.423-10.45l-.77-.105c-.864 7.208 1.195 13.539 4.719 14.022 3.524.483 7.204-5.06 8.303-12.236l-.77-.106z" fill="#B2246B"/>
            <path d="M102.406 140.556c-.864-.119-1.654-.556-2.283-1.264-1.606-1.809-2.292-4.626-1.79-7.352l11.12-60.45c.282-1.53 1.474-2.595 2.713-2.425 1.239.17 2.101 1.517 1.962 3.067l-5.488 61.221c-.248 2.761-1.663 5.29-3.695 6.6-.796.513-1.674.722-2.539.603" fill="#CB769F"/>
            <path d="M113.791 72.11c.12-1.33-.618-2.483-1.682-2.629-1.063-.146-2.083.767-2.325 2.08l-11.12 60.448c-.48 2.6.164 5.241 1.695 6.966 1.181 1.33 2.949 1.573 4.443.61 1.937-1.25 3.265-3.62 3.5-6.254l5.49-61.221z" fill="#E5A0C1"/>
            <path d="m113.235 78.438.572-6.446c.12-1.33-.626-2.424-1.69-2.57-1.063-.145-2.071.678-2.313 1.991l-1.18 6.393 4.611.632zM109.778 116.794l.859-9.406-7.269-.997-1.694 9.292zM108.885 126.93l-9.067-1.244-1.143 6.235c-.478 2.6.159 5.285 1.69 7.01 1.181 1.33 2.946 1.595 4.44.631 1.938-1.249 3.275-3.696 3.511-6.33l.569-6.303zM111.615 96.532l.827-9.41-5.381-.739-1.726 9.288z" fill="#FFE5F0"/>
            <g transform="translate(93.043 19.13)">
                <mask id="B" fill="#fff">
                    <use xlink:href="#A"/>
                </mask>
                <path d="m2.724 17.45-1.783-.244c-.615-.084-1.03-.774-.925-1.54l1.97-14.423C2.09.477 2.673-.076 3.288.008l1.783.245L2.724 17.45z" fill="#FF92C7" mask="url(#B)"/>
            </g>
            <path d="M94.08 35.643c-.308-.042-.515-.388-.463-.77l1.969-14.424c.052-.382.344-.659.652-.616l1.226.168-2.159 15.81-1.226-.168z" fill="#FFB2D7"/>
            <g transform="translate(136.667 24.992)">
                <mask id="D" fill="#fff">
                    <use xlink:href="#C"/>
                </mask>
                <path d="m2.347 0 1.784.245c.615.084 1.03.773.925 1.54l-1.97 14.423c-.104.766-.688 1.319-1.303 1.234L0 17.198 2.347 0z" fill="#FF92C7" mask="url(#D)"/>
            </g>
            <path fill="#FFB2D7" d="m138.542 28.46-40.9-5.61.473-3.467 40.9 5.609zM96.317 32.559l40.9 5.609-.55 4.022-40.9-5.609z"/>
            <path fill="#662947" d="m96.847 28.676 40.9 5.608-.209 1.526-40.9-5.609zM96.43 31.727l40.9 5.609-.114.832-40.899-5.609z"/>
            <path fill="#AEBBCB" d="m138.014 30.551-40.452-5.547.295-2.157 40.451 5.547z"/>
            <path fill="#2A2D33" d="m138.21 29.113-40.452-5.547.098-.72 40.453 5.548z"/>
            <path fill="#DAEAFF" d="m137.916 31.27-40.452-5.547.098-.72 40.452 5.548z"/>
            <path fill="#AEBBCB" d="M137.621 33.428 97.17 27.881l.295-2.158 40.452 5.548z"/>
            <path fill="#2A2D33" d="m137.818 31.99-40.452-5.548.098-.719 40.452 5.547z"/>
            <path fill="#DAEAFF" d="M137.523 34.147 97.071 28.6l.098-.72 40.452 5.548z"/>
            <path fill="#FF92C7" d="m101.543 32.428-5.113-.701.209-1.526 5.112.701z"/>
            <path fill="#FFCBE4" d="m106.655 33.129-5.112-.701.208-1.526 5.112.701z"/>
            <path fill="#FF92C7" d="m111.768 33.83-5.113-.701.209-1.526 5.112.701z"/>
            <path fill="#FFCBE4" d="m116.88 34.531-5.112-.701.208-1.526 5.112.701z"/>
            <path fill="#FF92C7" d="m121.993 35.232-5.113-.7.209-1.527 5.112.702z"/>
            <path fill="#FFCBE4" d="m127.105 35.933-5.112-.7.208-1.526 5.112.7z"/>
            <path fill="#FF92C7" d="m132.217 36.634-5.112-.7.208-1.526 5.113.7z"/>
            <path fill="#FFCBE4" d="m137.33 37.335-5.112-.7.208-1.526 5.112.7z"/>
            <path d="M140.703 25.93c.308.042.515.388.463.77l-1.97 14.424c-.051.382-.344.659-.65.617l-1.227-.168 2.158-15.81 1.226.167z" fill="#FFB2D7"/>
        </g>
    </g>
</svg>
