<?xml version="1.0" encoding="utf-8"?>
<!-- Generator: Adobe Illustrator 26.0.2, SVG Export Plug-In . SVG Version: 6.00 Build 0)  -->
<svg version="1.1" id="Layer_1" xmlns="http://www.w3.org/2000/svg" xmlns:xlink="http://www.w3.org/1999/xlink" x="0px" y="0px"
	 viewBox="0 0 486 205" style="enable-background:new 0 0 486 205;" xml:space="preserve">
<style type="text/css">
	.st0{fill-rule:evenodd;clip-rule:evenodd;fill:#F6963D;}
	.st1{fill-rule:evenodd;clip-rule:evenodd;fill:#C0222C;}
	.st2{fill:#FFFFFF;}
	.st3{fill:none;stroke:#421B59;stroke-width:7;stroke-linecap:square;}
	.st4{fill-rule:evenodd;clip-rule:evenodd;fill:#421B59;}
</style>
<rect id="Rectangle" class="st0" width="202.9" height="202.9"/>
<rect id="Rectangle_00000168836944658097728940000011019344551182159748_" x="283.1" y="0.9" class="st1" width="202.9" height="101.9"/>
<rect id="Rectangle-Copy" x="283.1" y="102.9" class="st0" width="202.9" height="101.9"/>
<g id="HEP-DELTA" transform="translate(312.455638, 35.333737)">
	<path id="Path" class="st2" d="M0,23c0,1.8,0.1,7,0.1,7.5l0.2,4.9c0,0.6,0.6,0.7,2.9,0.7c1.1,0,2.3-0.2,2.3-0.8V24.7
		c0-0.1,0-0.1,0.1-0.2l5.1,0.2c0,3.6-0.1,6.9-0.1,10.5c0.1,0.5,0.3,0.8,0.8,0.8h4.1c0.7,0,0.8-0.8,0.8-1.2c0-12.3,0.1-33.4,0.1-33.1
		c0-1-2.4-1-3.5-1c-0.6,0-1.4-0.1-1.4,0.6l-0.7,17.8l-0.2,0.1H5.6c0-0.1-0.1-0.1-0.1-0.2c0-6.6,0.3-11.2,0.3-17.9
		c0.2-0.9-4.8-1-5.4-0.5c0,0.7-0.1,1.4-0.1,2.1C0.2,9.4,0,14.1,0,23z"/>
	<path id="Path_00000017493004995830976590000005196894660315817888_" class="st2" d="M19.9,36.1c1.2,0.1,1.7,0.1,2.7,0.1
		c2.8,0,5.6-0.4,8.4-0.6c0.6-0.2,1.5-0.6,1.5-1.3v-3.5c0-0.3-0.5-0.6-0.8-0.6h-1.1c-1.9,0-3.5,0.4-5.5,0.4h-0.3
		c-0.2-0.9-0.6-5.8-0.6-6.7c0-0.4,0.1-1.9,0.1-2.1c0.9,0,1.7-0.2,2.6-0.2c0.3,0,1.3-0.1,1.6-0.1s0.8-0.4,0.8-0.7v-3.8
		c0-0.6-0.7-0.9-1.1-1h-1.8c-0.6,0-1.3-0.1-2.1,0.2V6.3l5.8-0.1h0.5c0.5,0,1.2,0,1.2-0.6V1.3c0-0.3-0.9-0.5-1.1-0.5
		c-0.2-0.1-0.8-0.2-0.9-0.2c-1.5,0.1-10.1-0.1-10.7-0.1c-0.2,0-0.4,0-0.5,0.2c0.1,27,0.2,30.3,0.4,33.2
		C19.1,34.6,19.2,35.7,19.9,36.1z"/>
	<path id="Shape" class="st2" d="M34.6,35.5c0.1,0.3,0.4,0.9,0.8,0.9h3.3l1.2-0.2c0.7-0.1,0.5-2.4,0.5-3.8c0-3.2-0.2-7.4-0.2-8.3
		h0.6c3.2,0,6.7-1.6,7.5-4.7c0.9-3.4,1.1-5.9,1.1-10.6l-0.3-3.3c-1.3-4.3-2.9-5.1-9.3-5.1c-1.5,0-3.1,0.1-5.1,0.1
		c-0.2,23.9-0.2,28.5-0.2,33.3C34.6,34,34.6,35.2,34.6,35.5z M40.2,13.5c0-1.8,0-8.1,0.6-8.1c2.6,0,3.2,2.5,3.2,4.8V11
		c0,3.5,0.1,8.4-3.6,8.4C40.3,17.3,40.2,14.3,40.2,13.5z"/>
	<path id="Shape_00000150788626663991952080000016642229374823232148_" class="st2" d="M63.1,26.5c0,3.2-0.4,8.9,0.7,9.6
		c0.8,0,3.4,0.1,4.2-0.1c11.2-2.9,12.2-18.6,11.7-24.7C78,1.4,71.8,0.3,67.4,0.3c-1.8,0-3.7-0.2-3.9,0.7v3.3
		C63.5,11.7,63.1,19.1,63.1,26.5z M68.5,17.5c0-1.1,0.2-10.4,0.2-11.1l0.2-0.6c0,0,0.4-0.1,0.5-0.1c3.2,0,4.7,5.8,4.7,9.4
		c0,5.1-0.9,10.1-4.3,14.1c-0.2,0.3-0.9,1-0.9,1h-0.2C68.6,26,68.5,17.3,68.5,17.5z"/>
	<path id="Path_00000173878786521270482330000018225395371616605879_" class="st2" d="M83.2,36.1c1.2,0.1,1.7,0.1,2.7,0.1
		c2.8,0,5.6-0.4,8.4-0.6c0.6-0.2,1.5-0.6,1.5-1.3v-3.5c0-0.3-0.5-0.6-0.8-0.6h-1.1c-1.9,0-3.5,0.4-5.5,0.4h-0.3
		c-0.2-0.9-0.6-5.8-0.6-6.7c0-0.4,0.1-1.9,0.1-2.1c0.9,0,1.7-0.2,2.6-0.2c0.3,0,1.3-0.1,1.6-0.1c0.3,0,0.8-0.4,0.8-0.7v-3.8
		c0-0.6-0.7-0.9-1.1-1h-1.8c-0.6,0-1.3-0.1-2.1,0.2V6.3l5.8-0.1h0.5c0.5,0,1.2,0,1.2-0.6V1.3c0-0.3-0.9-0.5-1.1-0.5
		c-0.2-0.1-0.8-0.2-0.9-0.2C91.6,0.7,83,0.6,82.4,0.6c-0.2,0-0.4,0-0.5,0.2c0.1,27,0.2,30.3,0.4,33.2C82.3,34.6,82.5,35.7,83.2,36.1
		z"/>
	<path id="Path_00000178892597581000262070000018329065724903718289_" class="st2" d="M98,34c0,2.4,0.7,2.4,3.1,2.4h0.7
		c0.5,0.3,1.6,0.3,1.7,0.3c1,0,3.6,0.1,3.6-1.6c0-1.3,0.2-3.3-0.4-3.6c-1.1,0-2.2,0.3-3.3,0.3c-0.1,0-0.4,0-0.4-0.1l-0.1-1.3
		c0.3-16.1,0.5-26.5,0.5-28.3s-1.5-1.9-3.1-1.9c-0.3,0-0.6,0.1-0.8,0.1C99.2,0,98.9,0,98.7,0C98,0,98,0.3,98,1.1
		c0,1.2,0.2,4,0.2,6.7c0,6-0.3,12.5-0.3,18.1C97.8,27.1,98,32.8,98,34z"/>
	<path id="Path_00000024693940261955328400000014148079879708102538_" class="st2" d="M114,6.9l0.6,26.9c0.1,2,1.1,2,3,2h0.6
		c0.7,0,1.5-0.1,1.7-0.7c0-7-0.2-18.1-0.5-28.2c0-0.2-0.1-0.5-0.1-0.7c1.6,0,2.9-0.1,4.7-0.1c0.3-0.2,0.4-0.7,0.4-0.9V1.2
		c0-0.2-0.3-0.4-0.4-0.5l-13.5-0.1c-0.1-0.1-0.3-0.1-0.3-0.1c-0.2,0-0.9,0.2-0.9,0.5v5c0,0.4,2.8-0.1,3.9-0.1c0.2,0,0.7,0.1,0.7,0.1
		L114,6.9z"/>
	<path id="Shape_00000098201786250423246240000000275835875469028787_" class="st2" d="M126.7,36.8c1.3-0.1,3.2,0.2,4.5,0.2h0.6
		c0.2-0.2,0.3-0.4,0.4-0.6l0.6-5.3l0.2-0.2c0,0,0.8-0.1,1.1-0.1c0.2,0,1.7-0.1,2.1-0.1c0.4,0,1.3,0.1,1.3,0.1l0.2,0.1
		c0.2,1.9,0.4,2.6,0.8,4.4c0.1,0.5,0.4,0.9,0.9,1c0.6,0.2,2.1,0.5,2.2,0.5c0.1,0.1,0.7,0.1,0.9,0.1c0.2,0,0.8,0,0.9-0.1
		c0.4-0.1,0.3-0.3,0.3-0.5V36l-4.3-33.4c-0.2-0.7-0.7-2-1.7-2h-4.5c-0.4,0-0.8,0.7-0.8,0.9c-0.2,0.6-0.6,2.2-0.6,2.3l-5.2,30.5
		c0,0-0.1,1.4-0.2,1.9v0.2C126.4,36.6,126.4,36.6,126.7,36.8z M133.3,26.7l2.4-16.2l1.5,15.9v0.7c-1,0-2.7,0.3-3.9,0.3V26.7z"/>
</g>
<g id="HEP-B" transform="translate(61.434279, 83.943334)">
	<path id="Path_00000029725695684093268000000011975013380334054581_" class="st2" d="M0,23.5c0,1.8,0.1,7,0.1,7.5l0.2,4.9
		c0,0.6,0.6,0.7,2.9,0.7c1.1,0,2.3-0.2,2.3-0.8V25.2c0-0.1,0-0.1,0.1-0.2l5.1,0.2c0,3.6-0.1,6.9-0.1,10.5c0.1,0.5,0.3,0.8,0.8,0.8
		h4.1c0.7,0,0.8-0.8,0.8-1.2c0-12.3,0.1-33.4,0.1-33.1c0-1-2.4-1-3.5-1c-0.6,0-1.4-0.1-1.4,0.6l-0.7,17.8l-0.2,0.1H5.6
		c0-0.1-0.1-0.1-0.1-0.2c0-6.6,0.3-11.2,0.3-17.9c0.2-0.9-4.8-1-5.4-0.5c0,0.7-0.1,1.4-0.1,2.1C0.2,9.9,0,14.6,0,23.5z"/>
	<path id="Path_00000040563248952232352940000012509441314379068861_" class="st2" d="M19.9,36.5c1.2,0.1,1.7,0.1,2.7,0.1
		c2.8,0,5.6-0.4,8.4-0.6c0.6-0.2,1.5-0.6,1.5-1.3v-3.5c0-0.3-0.5-0.6-0.8-0.6h-1.1c-1.9,0-3.5,0.4-5.5,0.4h-0.3
		c-0.2-0.9-0.6-5.8-0.6-6.7c0-0.4,0.1-1.9,0.1-2.1c0.9,0,1.7-0.2,2.6-0.2c0.3,0,1.3-0.1,1.6-0.1s0.8-0.4,0.8-0.7v-3.8
		c0-0.6-0.7-0.9-1.1-1h-1.8c-0.6,0-1.3-0.1-2.1,0.2V6.7l5.8-0.1h0.5c0.5,0,1.2,0,1.2-0.6V1.8c0-0.3-0.9-0.5-1.1-0.5
		c-0.2-0.1-0.8-0.2-0.9-0.2C28.3,1.2,19.7,1,19.1,1c-0.2,0-0.4,0-0.5,0.2c0.1,27,0.2,30.3,0.4,33.2C19.1,35.1,19.2,36.2,19.9,36.5z"
		/>
	<path id="Shape_00000080173618523695571380000012718816345462904217_" class="st2" d="M34.6,35.9c0.1,0.3,0.4,0.9,0.8,0.9h3.3
		l1.2-0.2c0.7-0.1,0.5-2.4,0.5-3.8c0-3.2-0.2-7.4-0.2-8.3h0.6c3.2,0,6.7-1.6,7.5-4.7c0.9-3.4,1.1-5.9,1.1-10.6l-0.3-3.3
		c-1.3-4.3-2.9-5.1-9.3-5.1c-1.5,0-3.1,0.1-5.1,0.1c-0.2,23.9-0.2,28.5-0.2,33.3C34.6,34.5,34.6,35.7,34.6,35.9z M40.2,14
		c0-1.8,0-8.1,0.6-8.1c2.6,0,3.2,2.5,3.2,4.8v0.8c0,3.5,0.1,8.4-3.6,8.4C40.3,17.8,40.2,14.8,40.2,14z"/>
	<path id="Shape_00000114049232862294666040000000536032775903241882_" class="st2" d="M63.3,36c-0.1,0.5,0.1,1.1,0.7,1.1
		c8,0,14.4-1.5,14.2-11.3c-0.1-3.8-3.1-6-5.4-6.3v-0.1c3.5-2,6.2-4.7,6.6-9.2c0.7-8-2.9-10.2-11-10.2h-2.2c-0.3,0.1-1.9,0.4-2.2,0.5
		c-0.5,0.1-1,0.4-1,0.9c0.3,4,0.2,8,0.2,11.5v6.3C63.2,21.7,63.3,33.4,63.3,36z M69.1,4.5c2.1,0,4.1,1.1,4.6,3.2V9
		c0.3,3.3-1.3,7.7-5.4,7.7h-0.2c0-0.4,0.1-2.1,0.1-2.5c0.1-2.8,0.4-9.5,0.5-9.6l0.2-0.1C68.8,4.5,69,4.5,69.1,4.5z M68.2,21.4
		c1.7,0,4.5,0,4.7,5.2c0.1,2.5-0.2,5.7-4.3,5.8h-0.1C68.3,29.5,68.2,24.2,68.2,21.4z"/>
</g>
<g id="HEP-B-Copy" transform="translate(344.541075, 136.795240)">
	<path id="Path_00000096775337655018631950000003165296997218883236_" class="st2" d="M0,23.5c0,1.8,0.1,7,0.1,7.5l0.2,4.9
		c0,0.6,0.6,0.7,2.9,0.7c1.1,0,2.3-0.2,2.3-0.8V25.2c0-0.1,0-0.1,0.1-0.2l5.1,0.2c0,3.6-0.1,6.9-0.1,10.5c0.1,0.5,0.3,0.8,0.8,0.8
		h4.1c0.7,0,0.8-0.8,0.8-1.2c0-12.3,0.1-33.4,0.1-33.1c0-1-2.4-1-3.5-1c-0.6,0-1.4-0.1-1.4,0.6l-0.7,17.8l-0.2,0.1H5.6
		c0-0.1-0.1-0.1-0.1-0.2c0-6.6,0.3-11.2,0.3-17.9c0.2-0.9-4.8-1-5.4-0.5c0,0.7-0.1,1.4-0.1,2.1C0.2,9.9,0,14.6,0,23.5z"/>
	<path id="Path_00000041991464178222511080000003946835177058975379_" class="st2" d="M19.9,36.5c1.2,0.1,1.7,0.1,2.7,0.1
		c2.8,0,5.6-0.4,8.4-0.6c0.6-0.2,1.5-0.6,1.5-1.3v-3.5c0-0.3-0.5-0.6-0.8-0.6h-1.1c-1.9,0-3.5,0.4-5.5,0.4h-0.3
		c-0.2-0.9-0.6-5.8-0.6-6.7c0-0.4,0.1-1.9,0.1-2.1c0.9,0,1.7-0.2,2.6-0.2c0.3,0,1.3-0.1,1.6-0.1s0.8-0.4,0.8-0.7v-3.8
		c0-0.6-0.7-0.9-1.1-1h-1.8c-0.6,0-1.3-0.1-2.1,0.2V6.7l5.8-0.1h0.5c0.5,0,1.2,0,1.2-0.6V1.8c0-0.3-0.9-0.5-1.1-0.5
		c-0.2-0.1-0.8-0.2-0.9-0.2C28.3,1.2,19.7,1,19.1,1c-0.2,0-0.4,0-0.5,0.2c0.1,27,0.2,30.3,0.4,33.2C19.1,35.1,19.2,36.2,19.9,36.5z"
		/>
	<path id="Shape_00000023978107291828125140000007850341357822684303_" class="st2" d="M34.6,35.9c0.1,0.3,0.4,0.9,0.8,0.9h3.3
		l1.2-0.2c0.7-0.1,0.5-2.4,0.5-3.8c0-3.2-0.2-7.4-0.2-8.3h0.6c3.2,0,6.7-1.6,7.5-4.7c0.9-3.4,1.1-5.9,1.1-10.6l-0.3-3.3
		c-1.3-4.3-2.9-5.1-9.3-5.1c-1.5,0-3.1,0.1-5.1,0.1c-0.2,23.9-0.2,28.5-0.2,33.3C34.6,34.5,34.6,35.7,34.6,35.9z M40.2,14
		c0-1.8,0-8.1,0.6-8.1c2.6,0,3.2,2.5,3.2,4.8v0.8c0,3.5,0.1,8.4-3.6,8.4C40.3,17.8,40.2,14.8,40.2,14z"/>
	<path id="Shape_00000163771928995346508480000008217639178567686845_" class="st2" d="M63.3,36c-0.1,0.5,0.1,1.1,0.7,1.1
		c8,0,14.4-1.5,14.2-11.3c-0.1-3.8-3.1-6-5.4-6.3v-0.1c3.5-2,6.2-4.7,6.6-9.2c0.7-8-2.9-10.2-11-10.2h-2.2c-0.3,0.1-1.9,0.4-2.2,0.5
		c-0.5,0.1-1,0.4-1,0.9c0.3,4,0.2,8,0.2,11.5v6.3C63.2,21.7,63.3,33.4,63.3,36z M69.1,4.5c2.1,0,4.1,1.1,4.6,3.2V9
		c0.3,3.3-1.3,7.7-5.4,7.7h-0.2c0-0.4,0.1-2.1,0.1-2.5c0.1-2.8,0.4-9.5,0.5-9.6l0.2-0.1C68.8,4.5,69,4.5,69.1,4.5z M68.2,21.4
		c1.7,0,4.5,0,4.7,5.2c0.1,2.5-0.2,5.7-4.3,5.8h-0.1C68.3,29.5,68.2,24.2,68.2,21.4z"/>
</g>
<g id="Group-15" transform="translate(248.190291, 102.872460) rotate(-180.000000) translate(-248.190291, -102.872460) translate(204.780583, 94.378404)">
	<line id="Line-2-Copy" class="st3" x1="10.9" y1="9" x2="86.3" y2="9"/>
	<ellipse id="Oval" class="st4" cx="8.5" cy="8.5" rx="8.5" ry="8.5"/>
</g>
</svg>
