<svg width="150" height="150" viewBox="0 0 150 150" xmlns="http://www.w3.org/2000/svg" xmlns:xlink="http://www.w3.org/1999/xlink">
    <defs>
        <path d="M0 75c0 41.421 33.579 75 75 75s75-33.579 75-75S116.421 0 75 0 0 33.579 0 75z" id="a"/>
        <path d="M0 75c0 41.421 33.579 75 75 75s75-33.579 75-75S116.421 0 75 0 0 33.579 0 75z" id="c"/>
        <path d="M0 75c0 41.421 33.579 75 75 75s75-33.579 75-75S116.421 0 75 0 0 33.579 0 75" id="e"/>
        <path d="M0 75c0 41.421 33.579 75 75 75s75-33.579 75-75S116.421 0 75 0 0 33.579 0 75" id="g"/>
        <path d="M0 75c0 41.421 33.579 75 75 75s75-33.579 75-75S116.421 0 75 0 0 33.579 0 75" id="i"/>
        <path d="M0 75c0 41.421 33.579 75 75 75s75-33.579 75-75S116.421 0 75 0 0 33.579 0 75" id="k"/>
        <path d="M0 75c0 41.421 33.579 75 75 75s75-33.579 75-75S116.421 0 75 0 0 33.579 0 75" id="m"/>
        <path d="M0 75c0 41.421 33.579 75 75 75s75-33.579 75-75S116.421 0 75 0 0 33.579 0 75" id="o"/>
        <path d="M0 75c0 41.421 33.579 75 75 75s75-33.579 75-75S116.421 0 75 0 0 33.579 0 75" id="q"/>
        <path d="M0 75c0 41.421 33.579 75 75 75s75-33.579 75-75S116.421 0 75 0 0 33.579 0 75" id="s"/>
        <path d="M0 75c0 41.421 33.579 75 75 75s75-33.579 75-75S116.421 0 75 0 0 33.579 0 75" id="u"/>
        <path d="M0 75c0 41.421 33.579 75 75 75s75-33.579 75-75S116.421 0 75 0 0 33.579 0 75" id="w"/>
        <path d="M0 75c0 41.421 33.579 75 75 75s75-33.579 75-75S116.421 0 75 0 0 33.579 0 75z" id="y"/>
        <path d="M0 75c0 41.421 33.579 75 75 75s75-33.579 75-75S116.421 0 75 0 0 33.579 0 75" id="A"/>
        <path d="M0 75c0 41.421 33.579 75 75 75s75-33.579 75-75S116.421 0 75 0 0 33.579 0 75" id="C"/>
        <path d="M0 75c0 41.421 33.579 75 75 75s75-33.579 75-75S116.421 0 75 0 0 33.579 0 75" id="E"/>
        <path d="M0 75c0 41.421 33.579 75 75 75s75-33.579 75-75S116.421 0 75 0 0 33.579 0 75" id="G"/>
        <path d="M0 75c0 41.421 33.579 75 75 75s75-33.579 75-75S116.421 0 75 0 0 33.579 0 75" id="I"/>
        <path d="M0 75c0 41.421 33.579 75 75 75s75-33.579 75-75S116.421 0 75 0 0 33.579 0 75" id="K"/>
        <path d="M0 75c0 41.421 33.579 75 75 75s75-33.579 75-75S116.421 0 75 0 0 33.579 0 75" id="M"/>
        <path d="M0 75c0 41.421 33.579 75 75 75s75-33.579 75-75S116.421 0 75 0 0 33.579 0 75" id="O"/>
        <path d="M0 75c0 41.421 33.579 75 75 75s75-33.579 75-75S116.421 0 75 0 0 33.579 0 75" id="Q"/>
        <path d="M0 75c0 41.421 33.579 75 75 75s75-33.579 75-75S116.421 0 75 0 0 33.579 0 75z" id="S"/>
        <path d="M0 75c0 41.421 33.579 75 75 75s75-33.579 75-75S116.421 0 75 0 0 33.579 0 75" id="U"/>
        <path d="M0 75c0 41.421 33.579 75 75 75s75-33.579 75-75S116.421 0 75 0 0 33.579 0 75" id="W"/>
        <path d="M0 75c0 41.421 33.579 75 75 75s75-33.579 75-75S116.421 0 75 0 0 33.579 0 75" id="Y"/>
        <path d="M0 75c0 41.421 33.579 75 75 75s75-33.579 75-75S116.421 0 75 0 0 33.579 0 75l80.703 59.749" id="aa"/>
    </defs>
    <g fill="none" fill-rule="evenodd">
        <g>
            <mask id="b" fill="#fff">
                <use xlink:href="#a"/>
            </mask>
            <path d="M-4.271 154.271h20.324c-8.765-1.726-15.71-3.804-20.324-5.655v5.655z" fill="#BCE" mask="url(#b)"/>
        </g>
        <g>
            <mask id="d" fill="#fff">
                <use xlink:href="#c"/>
            </mask>
            <path d="M-4.271-4.271v152.887c4.614 1.851 11.56 3.929 20.324 5.655H95.02c18.38-3.547 39.824-10.105 59.251-20.064V-4.27H-4.27z" fill="#BCE" mask="url(#d)"/>
        </g>
        <g>
            <mask id="f" fill="#fff">
                <use xlink:href="#e"/>
            </mask>
            <path d="M126.963 95.349s9.909 10.616 10.38 21.94c.472 11.325-16.043 13.92-16.043 13.92s-4.246-46.005 5.663-35.86" fill="#D87D61" mask="url(#f)"/>
        </g>
        <g>
            <mask id="h" fill="#fff">
                <use xlink:href="#g"/>
            </mask>
            <path d="M138.988 47.155c-1.336-6.543-5.183-27.937-5.183-27.937.998-.662 5.065-7.028 3.514-7.028-6.325 0-9.853 1.967-11.713 1.406-6.553-1.978-50.364-9.136-75.666-5.12-5.413.858-19.914 3.593-21.83 4.505-3.246 1.545-7-.777-10.448.675 0 0 .097 2.044.49 3.013.418 1.033 2.335 3.755 2.335 3.755.14.828-2.267 9.327-3.102 12.118-3.501 11.716-3.626 26.625-2.409 36.724-1.886 1.905-3.972 5.929-4.13 8.194-.167 2.365 5.015 1.31 6.974.29 0 0 4.691 2.703 7.372 3.181 5.327.95 9.405.943 14.7.3 8.07-.98 16.006-2.905 24.198-2.36 8.829.586 19.075 4.095 27.935 4.09 9.477-.003 33.897-1.773 37.755-1.973 3.596-.187 7.63 1.736 11.258 1.55.187-1.441-.443-6.073-1.209-6.944.842-4.125.276-22.969-.84-28.44" fill="#E7F6FA" mask="url(#h)"/>
        </g>
        <g>
            <mask id="j" fill="#fff">
                <use xlink:href="#i"/>
            </mask>
            <path d="M76.015 45.002c-.168-1.4 2.897-6.391 4.465-5.776 3.627 1.423.127 10.734-2.204 11.508-.362.12-.749.023-1.054-.181-.678-1.773-.962-3.718-1.207-5.551" fill="#D87D61" mask="url(#j)"/>
        </g>
        <g>
            <mask id="l" fill="#fff">
                <use xlink:href="#k"/>
            </mask>
            <path d="M110.448 81.193c-1.57-1.8-14.054-7.828-21.233-8.022-2.145-.057-9.612.667-11.56-.707-3.343-2.356-2.062-12.997-2.124-16.987-.022-.04-16.21-1.291-24.065-1.062 0 2.478.252 7.329-.013 11.195-.245 3.592-1.167 6.371-3.997 8.623-3.38 2.689-11.518 3.876-15.779 4.419-3.545.452-8.554 2.434-9.665 4.07-6.104 8.986-5.442 19.166-1.696 27.3 1.984 4.307 4.37 8.792 6.444 13.056 1.844 3.792 13.565 13.056 19.5 16.278 5.336 2.896 5.92 2.104 7.447 2.443 11.673 2.594 22.079-4.844 30.634-10.777 19.6-13.59 43.338-30.065 26.107-49.829" fill="#D87D61" mask="url(#l)"/>
        </g>
        <g>
            <mask id="n" fill="#fff">
                <use xlink:href="#m"/>
            </mask>
            <path d="M48.382 48.018c-.205-1.394-4.473-5.406-5.824-4.401-3.127 2.325 2.695 10.391 5.147 10.526.381.021.729-.175.97-.452.189-1.889-.048-3.84-.293-5.673" fill="#D87D61" mask="url(#n)"/>
        </g>
        <g>
            <mask id="p" fill="#fff">
                <use xlink:href="#o"/>
            </mask>
            <path d="M89.158 33.66c-2.247 4.163.33 12.678.33 12.678s1.384-.959 1.686-3.721c.302-2.763 2.53-9.187 2.53-9.187l.242-.355s-3.252-2.26-4.788.586" fill="#9B511F" mask="url(#p)"/>
        </g>
        <g>
            <mask id="r" fill="#fff">
                <use xlink:href="#q"/>
            </mask>
            <path d="M123.828 51.456c.074-.26 4.056-12.642 2.686-16.273-1.37-3.63-8.88-2.49-8.88-2.49l2.483 16.529s2.126 3.252 2.383 3.24c.257-.011 1.328-1.006 1.328-1.006" fill="#9B511F" mask="url(#r)"/>
        </g>
        <g>
            <mask id="t" fill="#fff">
                <use xlink:href="#s"/>
            </mask>
            <path d="M71.633 23.094c-1.61-1.348-22.36 1.266-22.36 1.266-2.989 3.936-5.383 8.03-4.926 13.154.067.75 3.958 15.192 5.799 21.656.002-.004 10.192 8.54 11.792 11.039.957 1.496 10.85-.743 11.26-1.952 1.458-4.284 5.523-13.245 5.523-13.245.179-.784.796-8.405.118-19.09-.376-5.918-3.985-10.12-7.206-12.828" fill="#F9916B" mask="url(#t)"/>
        </g>
        <g>
            <mask id="v" fill="#fff">
                <use xlink:href="#u"/>
            </mask>
            <path d="M71.697 65.917c-2.174.79-4.365-.177-4.365-.177s-2.005.826-4.66.649c-.705-.047-1.415-3.598-1.297-4.778.118-1.18-.118-2.3.708-3.008.389-.333 1.316-.087 2.241-.236 1.04-.167 2.537-1.12 2.537-1.12s1.083.455 1.887.412c1.394-.073 2.768-.276 3.067.472.472 1.18.53 7.55-.118 7.786m.944-9.378c-.472-.826-5.132-2.006-6.43-1.18 0 0-2.24.177-4.128.885-1.887.708-1.946 2.123-2.064 4.954-.118 2.831-.472 6.134-.236 6.842.236.708 3.775 4.07 4.364 4.07.59 0 7.02-.53 7.609-1.475.59-.943 2.36-3.656 2.36-4.6 0-.944-1.003-8.67-1.475-9.496" fill="#6D2138" mask="url(#v)"/>
        </g>
        <g>
            <mask id="x" fill="#fff">
                <use xlink:href="#w"/>
            </mask>
            <path d="M127.906 94.877c-3.065-8.321-8.205-14.697-11.92-20.536-2.266-3.56.792-14.512.596-18.392-.213-4.204-16.57 6.741-19.047 7.39L97 65.858c-.067 4.53-.736 10.262-4.845 11.963-4.504 1.864-8.664 6.81-10.441 10.617-3.228 6.913-1.451 14.842-1.229 16.112.423 2.412 53.684 35.786 54.5 31.614 1.14-5.84-3.776-32.322-7.079-41.287" fill="#EA942D" mask="url(#x)"/>
        </g>
        <g>
            <mask id="z" fill="#fff">
                <use xlink:href="#y"/>
            </mask>
            <path d="M154.271 154.271v-51.898c-14.556 3.371-31.11 6.503-36.443 5.196-8.978-2.201-20.508-7.599-27.228-13.95-7.37-6.965-18.888-5.741-27.009-4.388-11.279 1.88-19.793 3.706-30.129 12.09-4.197 3.406-22.784 4.848-37.733 5.596v47.354H154.27z" fill="#E7F6FA" mask="url(#z)"/>
        </g>
        <g>
            <mask id="B" fill="#fff">
                <use xlink:href="#A"/>
            </mask>
            <path d="M93.58 70.105c.299.867 6.286 2.145 6.631 2.106 2.308-.262 12.83-4.944 12.83-4.944s3.317-6.09 4.555-8.056c.522.339 1.287.006 2.93-1.051.537-.346 3.954-5.561 3.683-7.752-.246-1.99-3.01-1.667-4.302-.146-.667.786 3.9-17.898-1.782-21.83-5.442-3.768-14.512-3.54-20.874-.604-4.632 2.137-5.668 3.774-7.355 13.165-.164.916-.113 3.75-.423 5.819-1.01 6.752-1.336 14.264-1.332 14.5.013.843 4.98 7.466 5.438 8.793" fill="#FFA82C" mask="url(#B)"/>
        </g>
        <g>
            <mask id="D" fill="#fff">
                <use xlink:href="#C"/>
            </mask>
            <path d="M113.515 83.17c-1.502-.65-5.725.086-11.46 4.916-3.065 2.58-4.632 17.42-19.446 30.147a646.83 646.83 0 0 0-3.303-4.718s-4.958-1.96-7.55-3.893c-3.086-2.301-8.279-7.16-11.55-13.05-1.235-2.223-7.976-7.445-9.678-.287-1.067 4.49 5.615 11.89 8.47 17.15 8.2 15.108 21.696 21.314 21.696 21.314s11.882-4.012 15.811-6.207c10.5-5.866 15.89-18.775 21.101-26.269 3.6-5.176 3.179-15.96-4.091-19.104" fill="#EA942D" mask="url(#D)"/>
        </g>
        <g>
            <mask id="F" fill="#fff">
                <use xlink:href="#E"/>
            </mask>
            <path d="M60.581 84.212c-.938-1.626-1.72-4.231-1.954-4.21-2.373.22-.177 5.31.094 6.322.157.587-.511 2.826-.944 3.775-1.335-1.43-2.267-3.666-2.692-5.611-.357-1.634-2.787-9.38-3.94-10.312-1.094-.886-1.271 1.178-.329 4.158.814 2.57 1.491 5.428 1.71 7.872-.66-.03-2.154-3.027-2.91-4.678-.806-1.758-2.777-6.16-3.846-5.683-1.146.512.801 5.062 1.703 6.876.654 1.318 1.962 4.247 1.466 5.195-.726-.59-1.511-2.87-2.781-4.895-.751-1.196-1.998-5.444-3.41-4.43-1.011.728.37 3.07 2.326 7.462.332.745 1.908 3.663 1.11 4.102-.83.456-3.988-6.856-5.036-6.057-1.34 1.023 1.91 5.784 2.867 8.02 1.491 3.486 2.887 5.6 5.414 8.42 2.678 2.988 4.422 3.77 7.062 2.744 1.416-.55 2.87-3.343 4.157-5.513.374-.63.8-.562 1.907-6.608l-.708-4.954s-.965-1.474-1.266-1.995" fill="#EA942D" mask="url(#F)"/>
        </g>
        <g>
            <mask id="H" fill="#fff">
                <use xlink:href="#G"/>
            </mask>
            <path d="M90.968 116.295c-11.191 7.461-31.884 8.945-32.436 9.306-.46.3-2.097 1.546-4.279 2.237 0 0-5.709-8.038-6.863-12.051-1.233-4.29-5.007-13.071-5.007-14.894 0-.904-8.968-8.892-9.873-13.301-1.36-6.627-16.375-.744-14.68 15.534.497 4.767 4.009 12.524 6.622 16.61 4.283 6.696 9.554 12.207 15.751 17.15 3.095 2.47 10.075 5.648 11.94 6.326 2.376.864 14.917-2.5 14.917-2.5 16.108-10.512 26.637-13.307 27.978-17.295.72-2.139-2.649-8.069-4.07-7.122" fill="#D87D61" mask="url(#H)"/>
        </g>
        <g>
            <mask id="J" fill="#fff">
                <use xlink:href="#I"/>
            </mask>
            <path d="M110.86 116.051c-1.356.944-2.122 1.727-3.064 2.267 0 0-.39-.409-.355-.814 1.44-1.27 4.339-3.363 4.517-3.79.399-.953.902-4.872 1.026-5.98-2.33-.698-2.535 3.584-2.733 3.882-.426.642-3.363 2.941-3.984 3.46 0 0-.207-.244-.32-.516 1.086-1 3.459-3.662 3.984-4.564.29-.498 1.227-3.308 1.707-5.765-2.027-.478-3.735 4.257-3.735 4.257-1.85 2.171-3.948 4.085-3.948 4.085l-.285-.295c.666-1.064 2.607-4 3.024-5.005.096-.232 1.53-2.374 1.6-4.251-1.707-.221-2.845.975-3.877 3.625-.106.273-1.623 2.12-3.201 3.754-.143.148-.86.727-1.21.92-1.992 1.105-1.174.775-4.447 1.732-.07-1.423.427-2.134.783-3.06 1.811-.878 2.632-1.579 3.415-2.536.497-.608.711-2.319-.142-2.65-.625.468-2.775 2.061-6.261 2.576-.485.072-4.055 5.3-3.984 5.816.064.461-.593 5.282-.498 5.74.265 1.275-.382.258-.153 1.535.088.49 2.164 5.435 2.999 5.385 8.608-.515 14.767-3.696 15.46-4.298.753-.654 1.187-1.002 1.508-1.149 1.236-.569 3.705-2.643 4.121-3.476.118-.236-.394-3.6-.177-4.837-2.025-.196-1.986 2.084-1.77 3.952" fill="#D87D61" mask="url(#J)"/>
        </g>
        <g>
            <mask id="L" fill="#fff">
                <use xlink:href="#K"/>
            </mask>
            <path d="M84.362 24.145s1.996-1.397 3.493-3.284c1.431-1.805 2.563-3.873 1.375-4.788-1.98-1.527-3.616 2.407-3.616 2.407s-.193-4.325-2.2-3.656c-1.71.57-1.687 3.058-.891 5.272.76 2.114 1.839 4.049 1.839 4.049" fill="#BA1929" mask="url(#L)"/>
        </g>
        <g>
            <mask id="N" fill="#fff">
                <use xlink:href="#M"/>
            </mask>
            <path d="M52.24 35.868s-.203 1.979 2.135 1.617c2.338-.362 4.224-3.322 4.224-3.322s2.494 2.614 4.957 2.07c2.463-.542.636-2.988.636-2.988s2.912 2.756 6.029 2.505c2.436-.196 2.057-2.39 2.057-2.39s3.602 2.374 5.342.635c1.739-1.74-.757-3.755-.757-3.755s4.084-.264 3.542-2.727c-.543-2.463-3.522-3.434-3.522-3.434s2.21-2.252.609-3.574c-1.6-1.322-5.174-.656-5.174-.656s.501-2.811-2.421-3.229c-1.949-.278-3.48.697-3.48.697s-.001-1.683-1.977-1.766c-1.976-.083-4.451 2.24-4.451 2.24s.38-2.342-2.017-2.19c-2.407.154-4.551 3.637-4.551 3.637s-3.265-1.616-5.268-.113c-1.113.835-.925 2.41-.925 2.41s-2.055-.24-3.933 1.081c-1.988 1.4-1.006 3.581-1.006 3.581s-1.42.195-1.99 2.797c-.424 1.935 1.336 3.173 1.336 3.173s-1.377 1.99.279 4.314c1.373 1.926 3.785.64 3.785.64s.348 2.435 3.549 1.6c3.2-.836 2.991-2.853 2.991-2.853" fill="#6D2138" mask="url(#N)"/>
        </g>
        <g>
            <mask id="P" fill="#fff">
                <use xlink:href="#O"/>
            </mask>
            <path d="M48.376 42.803c-.016-3.388.07-6.397.089-6.724 0 0-5.623-7.24-5.308-2.83.298 4.17.789 11.439 2.742 13.977 0 0 3.046 3.822 3.362 3.274 0 0-.865-3.832-.885-7.697" fill="#6D2138" mask="url(#P)"/>
        </g>
        <g>
            <mask id="R" fill="#fff">
                <use xlink:href="#Q"/>
            </mask>
            <path d="M74.651 28.117s1.504 3.628 2.743 6.812c1.17 3.01 1.504 8.05 1.504 8.05s.97-1.488 1.504-4.953c.534-3.465-.12-8.358-2.654-11.678-2.534-3.32-4.19-1.901-3.097 1.77" fill="#6D2138" mask="url(#R)"/>
        </g>
        <g>
            <mask id="T" fill="#fff">
                <use xlink:href="#S"/>
            </mask>
            <path d="M144.428 40.775v.001-.001z" fill="#513117" mask="url(#T)"/>
        </g>
        <g>
            <mask id="V" fill="#fff">
                <use xlink:href="#U"/>
            </mask>
            <path d="M111.146 33.564c4.963 3.322 4.779 6.767 4.779 6.767s2.889.554 2.974 4.903c.044 2.206-.848 6.453-.848 6.453l2.031-.666s1.58-2.278 2.216-4.11c.636-1.834 2.132-9.663 2.132-9.663s.938-3.598-1.19-4.7c-4.323-2.235-13.394.146-12.094 1.016" fill="#9B511F" mask="url(#V)"/>
        </g>
        <g>
            <mask id="X" fill="#fff">
                <use xlink:href="#W"/>
            </mask>
            <path d="M119.165 29.566c.846 3.045 2.412 5.73 4.414 8.13.73-.179 1.425-.407 2.083-.684-2.68-1.939-4.752-4.607-6.497-7.446" fill="#C16521" mask="url(#X)"/>
        </g>
        <g>
            <mask id="Z" fill="#fff">
                <use xlink:href="#Y"/>
            </mask>
            <path d="M119.165 29.566c-.248-.893-.248-.893 0 0 1.745 2.839 3.818 5.507 6.497 7.446 1.837-.77 3.403-1.903 4.734-3.304-10.996-2.471-5.628-9.363-18.718-13.533-10.466-3.335-29.16 3.597-21.091 16.322 0 0 1.307-2.59 3.457-3.169 7.208-1.943 11.56 4.271 24.872 4.804 1.7.068 3.25-.09 4.663-.436-2.002-2.4-3.568-5.085-4.414-8.13-.229-.372-.229-.372 0 0" fill="#C16521" mask="url(#Z)"/>
        </g>
        <g>
            <mask id="ab" fill="#fff">
                <use xlink:href="#aa"/>
            </mask>
            <path d="M103.27 61.002c-.878-.603-2.309-1.975-3.77-3.055-.844-.624-6.468-.867-6.533-.878-1.747-.298-2.36.654-3.83.972-.46.1-1.134.26-1.57.068-.953-.419-1.516-1.518-1.516-1.518s.144 2.638 4.786 3.917c.042.012.084.021.126.032.906.227 1.755.2 2.485.061 1.062-.202 1.533-.708 1.905-.938.288.39 1.089.919 1.824 1.387.453.288 1.01.58 1.697.858.348.141.728.28 1.146.412 1.77.563 3.62.668 5.165.321 1.544-.346 2.476-1.896 2.476-1.896s-.812.698-1.77.903c-.852.183-1.806-.084-2.622-.646" fill="#82451C" mask="url(#ab)"/>
        </g>
    </g>
</svg>
