<svg width="215" height="150" viewBox="0 0 215 150" xmlns="http://www.w3.org/2000/svg">
    <g fill="none" fill-rule="evenodd">
        <path d="m206.266 120.044-34.374 1.374.526 23.115.94 5.144c12.084-.517 24.163.938 36.22 0-1.49-13.225-3.312-29.633-3.312-29.633" fill="#6D2138"/>
        <path d="m183.438 128.705-30.363-18.589s-3.546 12.833-4.216 17.476c-.637 4.427-.308 14.393.353 22.085 11.092-.288 21.997.565 33.07 0 .623-9.685 1.156-20.972 1.156-20.972" fill="#6D2138"/>
        <path d="m173.926 146.199-10.222 1.844 1.2 1.26c3.19-.116 6.379-.246 9.567-.387l-.545-2.717z" fill="#4C192A"/>
        <path fill="#F26A3B" d="m158.419 38.965 21.007-3.067-4.771-14.178-17.041 4.22z"/>
        <path d="M173.537 19.612c-.795-3.55-.828-9.399-2.666-11.562-2.136-2.52-5.466-2.29-8.3-1.88-2.834.416-6.093 1.15-7.419 4.175-1.14 2.6.498 8.21.748 11.84.323 4.639 2.503 8.142 5.02 10.312 1.115.696 2.269.782 3.57.611 1.33.05 5.999-2.495 6.873-3.477 2.946-3.334 3.192-5.483 2.174-10.02" fill="#FC8B59"/>
        <path d="M178.348 7.824c.554-2.552-4.584-4.742-6.412-3.946-2.387-5.63-12.338-4.825-18.399.452-1.47 1.28-2.712 2.823-3.564 4.602-.22 4.033 3.704 7.469 5.288 8.65 0 0-.46-4.877.144-5.543 2.081-2.3 13.823-2.96 13.823-2.96-.724 3.335 3.806 8.138 3.806 8.138s.64 2.822 2.76 7.888c.142-1.753 2.712-3.878 3.217-6.672.844-4.732-1.578-6.391-.663-10.609" fill="#CC5902"/>
        <path d="M172.826 17.247c2.967-3.663 3.642 2.794 3.133 4.404-.187.592-1.292 1.574-1.96 1.803l-1.173-6.207z" fill="#FC8B59"/>
        <path d="M200.017 70.9s5.102-28.227 4.585-31.814c-3.61-6.08-26.068-7.637-26.068-7.637l-13.084 5.233-8.409-1.89s-17.84 8.944-19.808 14.125c.532 3.586 19.999 64.547 19.999 64.547s-5.731 22.326 17.924 17.885c27.458-5.154 24.861-60.45 24.861-60.45" fill="#F3E7D0"/>
        <path d="M141.182 136.862c4.682 1.914 17.415 8.32 19.114-2.337 2.512-15.753-5.786-67.949-5.786-67.949l2.436-31.745s-13.403 1.928-20.72 7.891c.532 3.586 5.782 36.67 5.782 36.67s.766 36.346-.826 57.47m37.256-105.374L166.266 71.48s4.702 57.024 17.392 66.478c7.645 5.7 27.886-10.993 30.658-13.23-6.563-21.658-14.395-53.79-14.395-53.79s5.1-28.225 4.586-31.813c-3.61-6.082-26.069-7.637-26.069-7.637" fill="#C0222C"/>
        <path d="m162.19 80.59-1.845-2.083s-2.299 2.17.52 5.01c.452.453 2.63 1.503 2.63 1.503s-9.16 2.103-11.861 2.99c-4.398 1.44-2.458 3.288-2.458 3.288l3.514-.274-4.069.97c-1.402.333-2.218 1.424-1.828 2.442.295.772 2.916 1.172 3.943 1.223-1.299.383-2.61 1.543-2.2 2.613.427 1.115 7.346.36 7.346.36-.943.25-1.477 1.145-1.2 2.003.28.858 10.043-.965 10.043-.965.174-.044.33-.113.473-.197l4.549-.097 4.179-1.727 2.177-9.65-4.635-5.396-9.278-2.013z" fill="#FC8B59"/>
        <path d="m207.819 98.618-16.213-14.613c-6.435-10.961-3.171-24.857-3.171-24.857s6.493-20.67 16.072-20.023c6.49 4.28 12.405 36.421 3.312 59.493" fill="#FFAC27"/>
        <path d="m173.041 101.564 3.7-16.401c10.544-.185 14.042-1.473 14.042-1.473s18.453-8.492 17.036 14.928c-1.172 2.611-27.619 6.931-34.778 2.946" fill="#FFAC27"/>
        <path d="M100.636 104.014 95.9 91.932l24.886-14.087c6.292-8.443 12.543-33.21 15.44-35.123 3.565 3.714 10.268 41.76 5.875 42.568-6.679 10.705-38.461 23.034-38.461 23.034l-3.005-4.31z" fill="#FDBB45"/>
        <path d="m82.64 95.864-2.642-.984s-1.024 3.036 2.853 4.235c.619.191 3.072.094 3.072.094s-7.2 6.247-9.2 8.327c-3.248 3.383-.631 4.114-.631 4.114l3.014-1.92-3.18 2.807c-1.096.968-1.307 2.332-.472 3.06.631.548 3.167-.343 4.11-.784-.979.96-1.6 2.624-.722 3.384.912.794 6.748-3.173 6.748-3.173-.728.668-.778 1.727-.122 2.366.66.634 8.532-5.652 8.532-5.652.135-.123.243-.257.33-.4l4.024-2.257 3.324-3.446-4.446-10.308-5.324-2.08-9.268 2.617z" fill="#F26A3B"/>
        <path fill="#ADD1EA" d="m95.724 111.487-10.739-1.463.163-22.583 16.46 2.243z"/>
        <path d="M54.444 104.953c-8.97-5.317-37.378 1.417-38.956 2.995-9.117 9.117-9.672 26.135-6.954 41.729 19.53-.418 38.746.068 58.266 0 .184-17.68-3.636-36.005-12.356-44.724" fill="#0A1A3D"/>
        <path d="M67.037 147.477c-19.518.069-39.05.176-58.58.594" fill="#0A1A3D"/>
        <path d="M26.806 39.624c.827-1.013 1.923-2.774 3.92-2.89 1.998.024 6.257 4.931 7.132 5.899-2.402 6.724.92 10.431.92 10.431s.168 5.097-4.103 5.197c-4.27.1-13.485-5.334-13.485-5.334s7.358-6.472 5.616-13.303" fill="#DD6C7D"/>
        <path d="M.453 69.804C7.873 50.742 20.59 50.621 20.59 50.621s10.967 6.487 14.46 6.301c3.498-.187 2.183-7.264 2.183-7.264s10.153 3.01 19.563 21.17c3.637 8.041.03 22.155-1.545 33.59-7.487 5.655-43.166 8.067-42.058.515C11.17 96.803-2.655 85.454.453 69.804" fill="#FFBE4E"/>
        <path d="M29.005 37.616c-.439-3.333 4.02-12.392 6.753-12.753 2.728-.359 3.798-.45 5.707 1.973 2.05 2.599.681 4.719.892 6.215.176 1.278 1.515 2.846 2.181 3.877-.197.716-1.384 1.63-1.384 1.63s-.084 1.129.256 1.538c-.943.695-1.164 1.287-1.316 2.275-.2 1.307-.069 3.01-.744 3.573-1.742 1.46-6.26-.407-7.317-1.057-3.584-2.205-4.469-3.028-5.028-7.271" fill="#F78DA2"/>
        <path d="M5.259 56.098c2.878-3.16 4.514-6.884 5.288-11.135 1.577-8.681-.416-18.726 12.324-24.291 1.195-.857 2.465-1.481 3.667-1.64 2.73-.36 6.264.104 9.57 1.08 2.488.738 6.395-1.374 5.074 6.374-.635-.685-1.441-1.417-2.027-1.482-1.76.231-.751.758-4.37 3.912-1.892 1.652-3.136 3.555-3.993 5.452 1.522 5.892 2.756 15.864-2.142 20.555-2.542 2.435-9.762-.167-12.237 2.353-2.396 2.439-.814 5.124-2.487 7.97-3.621 6.158-16.03-1.058-8.667-9.148" fill="#4C152A"/>
        <path d="m45.589 93.326 33.53 11.751s4.326-5.263 6.333-5.651c.96-.184 3.608 1.416 3.608 1.416l8.784 1.627c.709.278 1.006 1.28.66 2.243-.307.843-1.005 1.374-1.647 1.31.582.438.748 1.424.352 2.333-.334.759-.957 1.241-1.566 1.278.672.398.844 1.525.391 2.58-.485 1.094-1.472 1.696-2.215 1.335l-.405-.192c.21.42.222 1.01-.028 1.565-.268.622-.787 1.028-1.284 1.063v.002l-6.48 1.742-5.68-.98-1.287-.353c-11.41 1.62-41.134-9-40.91-13.413-2.41-9.688 1.173-10.976 7.844-9.656" fill="#F78DA2"/>
    </g>
</svg>
