<svg width="105" height="150" viewBox="0 0 105 150" xmlns="http://www.w3.org/2000/svg">
    <g fill="none" fill-rule="evenodd">
        <path d="M53.884 67.156c-.221 2.859-3.777 5.32-4.178 8.101-.433 2.962 2.258 6.386 1.66 9.035-.647 2.895-4.544 4.748-5.428 7.381-1 2.97.858 7.073-.377 9.45-1.456 2.823-5.67 3.078-7.56 4.925-2.214 2.151-3.294 6.713-6.005 7.115-2.733.405-5.009-3.82-7.631-5.57-2.255-1.498-6.445-.823-8.45-3.707-1.712-2.471-.522-7.448-1.788-10.731-1.13-2.922-5.15-4.873-5.878-8.417-.665-3.265 2.104-7.353 1.913-10.88-.185-3.315-3.415-6.756-3.134-10.353.28-3.596 4.003-6.496 4.7-9.743.735-3.453-1.368-7.92-.205-11.044 1.268-3.39 5.541-4.694 7.11-7.405 1.761-3.048 1.357-8.149 3.43-10.326 2.428-2.539 6.462-1.223 8.921-2.353 2.864-1.323 5.766-5.144 8.403-4.32 2.615.818 2.977 5.492 4.83 7.958 1.58 2.117 5.706 3.022 6.706 6.036.852 2.54-1.62 6.306-1.09 9.395.464 2.738 4.026 5.17 4.22 8.13.176 2.71-3.01 5.677-3.044 8.67-.033 2.81 3.1 5.793 2.875 8.653" fill="#261235"/>
        <path d="M62.425 37.763c-2.153 11.459 4.061 11.599 4.061 11.599 0 15.022-26.342 5.173-26.615.356 6.144-.77 8.676-4.639 10.128-10.921-1.613-2.827-2.422-5.265-1.294-10.193l13.72 9.16z" fill="#421B59"/>
        <path d="M48.153 35.014c-2.165-2.828-5.747-7.206-6.055-9.937-.363-3.175 1.968-5.274 4.105-6.91 2.136-1.634 4.772-3.338 7.743-2.161 2.554 1.012 5.325 5.14 7.31 8.097 2.531 3.773 4.17 6.265 3.188 11.616-.224 1.233.244 3.775-6.23 3.733-4.253-.028-7.302-.836-10.06-4.438" fill="#775093"/>
        <path d="M47.7 33.56c-4.088-.256.012 3.462 1.454 4.143.53.252 1.807.568 2.419.256L47.7 33.56z" fill="#775093"/>
        <path d="M47.514 33.702c-.746.137 5.445 3.396 2.462 7.917-5.295-.703-7.236-2.17-8.611-3.384-5.192-4.583-6.088-12.55-6.088-12.55s-.234-4.322 4.866-8.226c2.315-1.775 7.737-4.041 10.98-3.61 2.725.36 5.838 2.39 5.386 4.025-1.052-.426-5.152-.169-5.362 1.397-7.676 2.283.705 9.24-3.633 14.431" fill="#261235"/>
        <path d="M59.025 51.946c3.862.035 21.413-1.606 25.12-2.02-3.598-2.738-6.747-7.716-11.061-9.294-10.259-3.755-.244-8.56 4.37-5.943 5.523 3.135 13.645 6.863 18.573 10.986 2.417 2.024 9.11 8.536 8.909 11.399-.104 1.5-4.054 3.173-5.461 4.112-2.123 1.417-2.143.702-5.33 1.03-5.155.536-10.186.52-15.24.454-.568-.007-26.965-10.787-19.88-10.724" fill="#421B59"/>
        <path d="M60.844 34.424s.258-2.412 3.348-1.781c.493.1 1.818-3.033 1.818-3.033l2.516.251 5.81-3.498 3.873 5.336 2.156 4.726-4.68 5.203-7.048-1.711-5.634-5.176-2.159-.317z" fill="#421B59"/>
        <path d="M68.975 25.622c.746.188 1.25.852 1.123 1.482l-1.07 5.226c-.127.628-.838.981-1.586.791-.748-.19-1.25-.854-1.121-1.483l1.066-5.227c.129-.625.84-.981 1.588-.79" fill="#582D77"/>
        <path d="M66.237 27.212c.81-.501 1.446-.803 1.298-.288l-1.576 5.583c-.147.515-.818.899-1.496.855-.675-.043-1.107-.495-.957-1.009l1.234-4.284c.15-.517.819-.899 1.497-.857" fill="#582D77"/>
        <path d="m64.955 28.119-1.402 3.053c-.147.451-.76.775-1.372.724-.613-.05-.989-.46-.844-.91 0 0 .076-1.725 1.249-2.453.954-.593 2.516-.868 2.369-.414M71.43 25.799c.622.172 3.025.04 2.906.564l-2.987 5.053c-.12.523-.72.806-1.344.632-.621-.172-1.03-.738-.911-1.261l.64-4.736c.118-.525 1.073-.428 1.696-.252" fill="#582D77"/>
        <path d="M81.543 107.665c-9.453-6.302-43.286-.143-44.145 2.132-2.203 5.832-2.844 24.418-3.03 40.163 17.283-.671 58.812.04 58.812.04-.494-4.368-1.099-9.374-2.154-13.314-1.585-9.973-4.61-20.565-9.483-29.021" fill="#F78628"/>
        <path d="M22.134 68.615C30.219 47.84 44.079 47.71 44.079 47.71s11.95 7.07 15.76 6.867c3.809-.205 3.85-7.916 3.85-7.916s11.208-1.562 23.316 10.544c-2.193 6.257 4.375 65.499 3.128 74.546-3.546 2.678-2.716-29.926-30.524-19.98 1.484 23.273-26.82 34.52-26.138 29.867 2.893-24.219-14.726-65.089-11.337-73.022" fill="#F3E7D0"/>
        <path d="M39.738 121.722c-.378-3.523.414-6.822-2.133-9.05-4.498-1.51-18.267-11.94-21.545-14.506 6.218-7.208 10.864-16.472 18.225-18.464 4.98-1.347-5.1-20.987-9.74-15.984C19.884 68.744 3.98 90.09 1.776 97.23c-.694 2.248-2.763 6.353-1.211 8.443.672.906 16.6 8.077 22.965 9.222 4.568.821 8.537 1.88 8.489 6.87-.047 4.796-1.647 7.63 1.627 12.054-.062-.387-.12-.785-.174-1.191.222-1.99.57-9.172 1.441-11.003 1.834 2.734 4.246 9.776 8.676 9.67.302-3.59-3.461-5.931-3.85-9.574" fill="#775093"/>
        <g fill="#C0222C">
            <path d="M78.512 16.533c.368.66-.033 1.606-.9 2.088l-2.799 1.555c-.859.478-1.86.342-2.227-.316-.368-.659.034-1.606.9-2.088l2.798-1.555c.858-.477 1.86-.341 2.228.316M74.476 9.659c.583.567.626 1.505.096 2.078l-5.088 5.506c-.53.574-1.446.58-2.028.011-.583-.566-.624-1.503-.095-2.078L72.45 9.67c.53-.572 1.445-.578 2.026-.011M70.048.727c.73.39 1.007 1.303.63 2.034l-5.543 10.793a1.494 1.494 0 0 1-2.03.623 1.522 1.522 0 0 1-.63-2.033l5.543-10.792a1.493 1.493 0 0 1 2.03-.625"/>
        </g>
    </g>
</svg>
