<svg width="150" height="150" viewBox="0 0 150 150" xmlns="http://www.w3.org/2000/svg" xmlns:xlink="http://www.w3.org/1999/xlink">
    <defs>
        <path id="a" d="M0 0h4.004v33.478H0z"/>
    </defs>
    <g fill="none" fill-rule="evenodd">
        <circle fill="#E7F6FA" cx="75" cy="75" r="75"/>
        <path fill="#515151" d="m53.891 40.831 1.008-.589-12.778-21.691 1.688 5.2z"/>
        <path fill="#515151" d="m54.649 40.388.25-.146-12.778-21.691.42 1.29z"/>
        <path d="m100.1 102.934-13.76 8.045-29.454-50.39a.581.581 0 0 1 .206-.796l12.759-7.46a.581.581 0 0 1 .795.212l29.455 50.39zm-30.986-51.86-12.758 7.459a2.039 2.039 0 0 0-.72 2.788L85.09 111.71l.736 1.26 1.251-.732 13.76-8.044 1.251-.731-.736-1.26-29.455-50.39a2.038 2.038 0 0 0-2.783-.74z" fill="#989898"/>
        <path fill="#989898" d="m66.35 54.38-5.759 3.367-2.902-4.966 5.76-3.367z"/>
        <path d="m64.635 48.72-8.133 4.755-3.47-9.836a2.445 2.445 0 0 1 1.065-2.928l.597-.35a2.446 2.446 0 0 1 3.073.51l6.868 7.85z" fill="#1C75BB"/>
        <g transform="rotate(-120 74.617 36.064)">
            <mask id="b" fill="#fff">
                <use xlink:href="#a"/>
            </mask>
            <path d="M.17 32.247 0 1.252A1.242 1.242 0 0 1 1.24.007L2.582 0a1.242 1.242 0 0 1 1.254 1.231l.168 30.995a1.241 1.241 0 0 1-1.24 1.245l-1.342.007a1.243 1.243 0 0 1-1.253-1.23" fill="#515151" mask="url(#b)"/>
        </g>
        <path d="m115.973 126.4-17.218 10.066a.371.371 0 0 1-.507-.134l-.983-1.68a.37.37 0 0 1 .132-.509l17.218-10.066a.37.37 0 0 1 .507.134l.982 1.681a.371.371 0 0 1-.13.508" fill="#989898"/>
        <path fill="#707070" d="m100.444 107.177 2.261 5.016 8.711 13.754-5.289 3.092-10.972-18.77z"/>
        <path fill="#989898" d="m95.155 110.269 10.972 18.77-5.286 3.09-7.747-14.401-2.44-3.307-.785-1.062z"/>
        <path d="m60.569 51.098 4.066-2.378-6.868-7.849a2.445 2.445 0 0 0-3.073-.509l-.299.175 6.174 10.56z" fill="#085898"/>
        <path fill="#515151" d="m100.321 107.248-5.288 3.093-5.287 3.09.786 1.062 5.164-3.019 5.168-3.022z"/>
        <path d="M73.742 89.426 56.85 60.528a.51.51 0 0 1 .181-.7l12.88-7.53a.512.512 0 0 1 .7.186L87.501 81.38l-13.76 8.045z" fill="#54BDEA"/>
        <path d="m89.708 97.01-7.093 4.146a.436.436 0 0 1-.597-.158.437.437 0 0 1 .155-.597l7.093-4.148a.436.436 0 0 1 .597.159.436.436 0 0 1-.155.597M77.23 75.664l-7.093 4.147a.437.437 0 0 1-.442-.756l7.094-4.147a.437.437 0 0 1 .442.756M84.375 94.4l-4.101 2.397a.436.436 0 0 1-.596-.158.436.436 0 0 1 .154-.598l4.1-2.398a.437.437 0 0 1 .597.16.436.436 0 0 1-.154.596M81.732 89.92l-4.1 2.398a.436.436 0 0 1-.597-.159.436.436 0 0 1 .154-.597l4.101-2.397a.436.436 0 0 1 .596.158.436.436 0 0 1-.154.597M79.384 85.861l-4.101 2.398a.436.436 0 0 1-.596-.159.435.435 0 0 1 .154-.597l4.1-2.398a.437.437 0 0 1 .442.756M76.888 81.592l-4.1 2.398a.436.436 0 0 1-.596-.159.436.436 0 0 1 .154-.597l4.1-2.398a.437.437 0 0 1 .597.159.437.437 0 0 1-.155.597M71.897 73.054l-4.1 2.398a.436.436 0 0 1-.597-.16.436.436 0 0 1 .155-.596l4.1-2.398a.437.437 0 0 1 .442.756M69.402 68.785 65.3 71.182a.436.436 0 0 1-.596-.158.436.436 0 0 1 .154-.598l4.1-2.397a.436.436 0 0 1 .597.158.436.436 0 0 1-.154.598M66.906 64.516l-4.1 2.397a.436.436 0 0 1-.597-.158.436.436 0 0 1 .155-.598l4.1-2.397a.436.436 0 0 1 .597.158.436.436 0 0 1-.155.598M64.41 60.247l-4.1 2.397a.436.436 0 0 1-.596-.158.436.436 0 0 1 .154-.598l4.1-2.397a.436.436 0 0 1 .597.158.437.437 0 0 1-.154.598" fill="#000"/>
    </g>
</svg>
