<svg width="144" height="150" viewBox="0 0 144 150" xmlns="http://www.w3.org/2000/svg">
    <g fill="none" fill-rule="evenodd">
        <path d="M114.662 149.83c-14.902-.059-29.803-.115-44.705-.15" fill="#96C4EA"/>
        <path d="M74.595 106.655c-.745.74-5.967 9.91-14.007 15.942 3.042 9.726 6.653 22.455 7.777 23.523.416.96.954 2.166 1.592 3.56 14.902.035 29.803.091 44.705.15-5.783-23.111-19.388-43.37-40.067-43.175" fill="#5E0B13"/>
        <path d="M108.83 149.807c-15.537-.061-31.075-.116-46.611-.143" fill="#C0E0FF"/>
        <path d="M89.756 104.004c-2.878.38-10.98 4.875-26.707 4.763-3.345 3.144-2.938 20.957-.83 40.897 15.536.027 31.074.082 46.61.143 2.789-18.396-.153-37.185-19.073-45.803" fill="#6D2138"/>
        <path d="M84.863 46.039c-.519-1.325-1.067-3.526-3.1-4.317-2.082-.645-8.147 3.02-9.374 3.734.234 7.786-4.455 10.521-4.455 10.521s2.59 4.076 6.989 5.61c4.397 1.539 11.305.145 11.305.145s-5.462-9.184-1.365-15.693" fill="#CE6824"/>
        <path d="M81.335 42.025c1.078-3.086-1.373-12.598-3.903-13.484-2.527-.882-3.527-1.179-5.824.749-2.465 2.068-1.585 4.358-2.078 5.744-.424 1.182-2.008 2.41-2.844 3.26.047.72.993 1.827.993 1.827s-.143 1.09-.552 1.413c.764.849.859 1.458.807 2.427-.07 1.285-.529 2.88-.003 3.552 1.373 1.738 6.043.851 7.179.442 3.849-1.387 4.852-1.999 6.225-5.93" fill="#FFB278"/>
        <path d="M80.207 39.334c3.491-1.394 2.191 3.448 1.132 4.456-.39.37-1.213 1.081-1.833.981l.701-5.437z" fill="#FFAA90"/>
        <path d="M97.697 108.71c-12.294 1.312-36.244 7.386-39.666-5.514-1.299-4.915 2.206-13.394 2.206-13.394s-7.883-11.58-8.077-14.109c-.482-6.408 14.146-21.18 14.43-21.205 6.468 4.834 17.626-8.818 29.172 17.706 0 0 17.22 34.887 1.935 36.516" fill="#6D2138"/>
        <path d="M64.915 87.362c2.983-.595 11.272-.797 11.272-.797s11.582-15.92 8.551-19.83c-4.84-6.24-29.967 10.02-29.967 10.02s6.773 11.275 10.144 10.607" fill="#6D2138"/>
        <path d="M138.732 97.802c1.07-2.492 4.952-4.216 5.058-7.732.084-3.007-3.633-6.53-4.371-9.976-.646-3.068 1.658-6.904.329-10.272-1.228-3.104-5.78-5.017-7.544-8.08-1.662-2.88-.836-7.531-3.035-10.396-2.201-2.86-6.909-3.26-9.263-5.601-2.505-2.492-3.185-7.39-5.865-9.37-2.917-2.153-7.211-.908-10.008-2.325-3.14-1.593-5.587-6.092-8.516-6.784-2.49-3.8-26.224-7.185-23.566 1.748.738-.528 1.647-1.067 2.22-1.01 1.505.522.723.827 2.801 3.79-.957 2.235.865 5.872.679 8.665-.168 2.642-3.13 5.655-2.319 8.73.672 2.595 4.802 4.4 6.05 7.281 1.107 2.55-.55 6.54.906 9.128 1.33 2.37 5.623 3.114 7.285 5.606 1.563 2.335.573 6.553 2.322 8.826 1.75 2.28 6.072 2.399 7.931 4.51 1.98 2.246 1.596 6.59 3.542 8.484 2.125 2.076 6.405 1.499 8.585 3.223 2.46 1.944 3.144 6.4 5.48 7.717 2.761 1.573 6.435-.517 9.027-.002 3.03.59 6.43 3.824 8.92 2.684 2.513-1.157 2.11-5.943 3.352-8.844" fill="#F78628"/>
        <path d="M60.882 149.662c-11.377-.018-22.754-.02-34.13.003" fill="#92659B"/>
        <path d="M26.752 149.665c11.376-.023 22.753-.02 34.13-.003.422-13.152.473-24.482.473-26.877-9.61-6.156-30.872-25.783-34.603 26.88" fill="#A11B24"/>
        <path d="M61.362 123.407c-9.662-4.476-54.133-4.54-55.068-5.142-2.274 10.746-3.403 21.23-3.926 31.492 13.839-.078 27.677-.11 41.515-.11.173-.804.325-1.531.452-2.161.931-1.353 16.026-13.325 17.027-24.078" fill="#C0222C"/>
        <path d="M43.883 149.647c-13.839 0-27.676.032-41.515.11" fill="#122A42"/>
        <path fill="#421B59" d="m35.031 50.496 16.677 4.728.131-7.552-12.324-11.667z"/>
        <path d="M65.273 69.392c.657 9.843-2.345 52.132-4.229 54.016-3.038 3.04-58.463-2.628-60.84-5.82-1.786-2.403 8.077-63.11 33.235-68.272 2.089-.43 30.424-.953 31.834 20.076" fill="#FFBE4E"/>
        <path fill="#E8A42E" d="m30.62 91.475 14.486 17.652 15.865-.431-32.534-48.987z"/>
        <path d="M68.303 94.798s-6.5 13.141-9.837 12.047c-6.97-2.283-29.66-36.293-24.556-47.391 1.268-2.759 9.903-5.947 16.837 5.261 4.524 7.304 17.556 30.083 17.556 30.083" fill="#775093"/>
        <path d="M56.378 72.64c1.369 6.592-13.244 9.946-19.035 11.022-4.375-9.39-10.75-21.525-8.402-26.636 1.782-3.871 16.216-7.034 22.745 3.52 1.197 1.933 2.931 8.638 4.692 12.094" fill="#FFBE4E"/>
        <path d="m68.303 94.798 27.748 14.782s3.929-3.838 5.652-3.983c.822-.073 2.983 1.413 2.983 1.413l7.362 1.99c.587.277.788 1.102.445 1.839-.3.643-.916 1.012-1.46.906.47.398.562 1.196.179 1.888-.318.576-.873.907-1.388.889.548.37.639 1.282.193 2.083-.46.834-1.329 1.23-1.935.887l-.336-.184c.157.354.136.818-.102 1.239-.263.476-.716.756-1.143.747l-5.575.873-4.766-1.233-1.077-.386c-9.746.38-37.435-9.14-37.022-12.636-1.56-7.896 4.652-12.692 10.242-11.114" fill="#775093"/>
        <path d="M68.128 77.07c-9.793-3.772-43.146-15.192-43.817-23-.42-4.863 11.476-11.26 12.09-8.006 11.334 7.257 36.222 6.289 39.278 9.56C88.49 69.37 68.13 77.07 68.13 77.07" fill="#5E0B13"/>
        <path d="M68.33 2.695C71.777-2.546 76.2.551 76.2 6.06c0 5.505-7.87 9.97-7.87 9.97s-7.862-4.465-7.862-9.97c0-5.508 4.419-8.605 7.862-3.364" fill="#C0222C"/>
        <path d="M43.247 35.914c.64-3.577.369-9.418 2.154-11.658 2.085-2.608 5.558-2.522 8.519-2.23 2.965.288 3.98 1.827 4.718 5.082.157.678 1.778 3.603-.303 7.392.222 2.48 2 3.405 2.22 4.43.12.546-.895.989-2.012 1.294-.584.159.256 1.312-.011 1.728-2.983 1.314-1.16 6.462-3.206 7.817-1.117.74-11.524-4.455-12.48-5.402-3.232-3.2-.41-3.878.401-8.453" fill="#775093"/>
        <path d="M43.649 32.356c-3.397-2.71-3.075 3.966-2.49 5.55.215.58 1.212 1.966 1.884 2.159l.606-7.71z" fill="#775093"/>
        <path d="M39.438 16.82c-7.08 1.543-6.846 12.377-5.09 17.68 2.41 3.714 2.82 9.085 2.82 9.085l.558-.473c2.3-2.528 2.563-2.899 3.834-4.474-.642-1.441-1.446-7.888 2.089-6.282.945-.687 6.73-4.451 6.73-4.451s-5.777 1.272-.702-3.142c2.907-.238 6.602 1.778 8.87 1.95 2.826.218 6.503-5.44 1.11-8.38-2.965-1.62-3.58.46-7.913-1.21-3.33-1.286-9.994-5.008-12.306-.303" fill="#261235"/>
        <path d="M35.871 22.039c-2.11 3.286-4.79 8.626-2.87 11.718 3.159 5.08 4.166 9.828 4.166 9.828l.559-.473c2.3-2.528 2.563-2.899 3.834-4.474-.643-1.442-1.446-7.889 2.089-6.282.945-.688 6.73-4.451 6.73-4.451s-1.191-1.403-.702-3.142c-2.87-2.046-10.75-5.238-13.806-2.724" fill="#261235"/>
    </g>
</svg>
