<svg width="150" height="150" viewBox="0 0 150 150" xmlns="http://www.w3.org/2000/svg" xmlns:xlink="http://www.w3.org/1999/xlink">
    <defs>
        <path id="a" d="M0 0h28.696v54.783H0z"/>
        <path id="c" d="M0 0h28.696v54.783H0z"/>
        <path id="e" d="M0 0h25.652v118.696H0z"/>
    </defs>
    <g fill="none" fill-rule="evenodd">
        <circle fill="#E7F6FA" cx="75" cy="75" r="75"/>
        <g transform="translate(88.696 26.087)">
            <mask id="b" fill="#fff">
                <use xlink:href="#a"/>
            </mask>
            <path d="M9.783 53.014c2.989-7.645 16.792-42.96 17.911-45.826C28.951 3.973 28.668 0 28.668 0s-9.702-.093-12.723 7.636c-3.506 8.97-6.623 19.632-4.957 20.297 0 0-4.77 11.796-6.839 17.09-2.07 5.295-2.965 3.898-3.756 5.923-.792 2.026-.141 3.837-.141 3.837l9.531-1.769z" fill="#BCE" mask="url(#b)"/>
        </g>
        <g transform="translate(88.696 26.087)">
            <mask id="d" fill="#fff">
                <use xlink:href="#c"/>
            </mask>
            <path d="M1.177 51.308c.782-2 1.682-.614 3.726-5.844 2.044-5.229 6.756-16.877 6.756-16.877-1.666-.665 1.401-11.2 4.864-20.058C19.1 1.934 26.68 1.136 28.696 1.04c0-.644-.028-1.041-.028-1.041s-9.702-.093-12.723 7.636c-3.506 8.97-6.623 19.632-4.957 20.297 0 0-4.77 11.796-6.839 17.09-2.07 5.295-2.965 3.898-3.756 5.923-.792 2.026-.141 3.837-.141 3.837l.68-.127c-.145-.654-.3-1.95.245-3.348" fill="#E4EAF6" mask="url(#d)"/>
        </g>
        <path d="M93.94 61.728s-16.233 38.916-19.361 46.88c-2.985 7.597.91 13.416 2.17 13.916 1.26.5 8.058-1.071 11.042-8.67 3.128-7.963 17.722-47.53 17.722-47.53 2.11-5.37.256-6.324.256-6.324s-11.304.39-11.83 1.728" fill="#59528E"/>
        <path d="M77.167 122.609c2.077.026 7.845-1.942 10.534-8.754 3.143-7.963 17.807-47.528 17.807-47.528 1.423-3.605 1.051-5.22.653-5.892-2.395.105-10.8.555-11.254 1.703 0 0-16.31 38.913-19.453 46.877-2.689 6.812.178 12.193 1.713 13.594" fill="#7C7EC0"/>
        <path d="M99.885 70.475a1.612 1.612 0 0 0-.924-2.1 1.649 1.649 0 0 0-2.129.91L81.599 105.23c-.295.737-2.23 9.649-1.388 9.977.843.329 5.603-7.482 5.898-8.22l13.776-36.512z" fill="#9BA5D7"/>
        <path d="M80.435 113.913c1.58-1.678 4.82-7.129 5.06-7.74l13.522-36.506a1.624 1.624 0 0 0-.467-1.838 1.61 1.61 0 0 0-1.592 1.021l-14.954 35.939c-.24.61-1.581 6.814-1.57 9.124" fill="#BCE"/>
        <path d="M82.07 21.092c5.312.563 9.027 6.727 8.298 13.766-.73 7.04-5.627 12.29-10.938 11.727-5.312-.563-9.027-6.727-8.298-13.767.729-7.039 5.626-12.29 10.938-11.726m-25.556 86.734s1.428-6.398 3.166-15.05c3.469-17.272 8.407-43.462 8.89-45.41 1.097-4.42 4.419-1.385 6.423-.379.138.07.26.124.368.164a9.114 9.114 0 0 0 3.87 1.345c6.253.664 12.002-5.362 12.84-13.457.839-8.096-3.55-15.196-9.803-15.859-5.907-.626-11.364 4.716-12.656 12.134-.026.136-10.396 54.587-10.936 57.39-.54 2.806-1.445 3.225-3.607 4.246-.523.247-.917.32-1.143 1.368-.226 1.049 2.588 13.508 2.588 13.508" fill="#E4EAF6"/>
        <path d="M81.57 21.016c.114.012.227.027.34.044.113.007.227.016.34.028 5.346.562 9.085 6.713 8.351 13.738-.734 7.025-5.662 12.264-11.008 11.702a8.127 8.127 0 0 1-.339-.043 7.697 7.697 0 0 1-.34-.028c-5.346-.562-9.085-6.713-8.352-13.738.734-7.025 5.663-12.265 11.009-11.703M59.037 92.553c3.491-17.236 8.46-43.372 8.948-45.317.53-2.12 1.578-2.521 2.747-2.255 1.414-.051 3.156 1.331 4.396 1.95.139.069.262.122.37.162a9.26 9.26 0 0 0 3.556 1.3c6.16.416 11.753-5.525 12.582-13.458.828-7.933-3.416-14.908-9.527-15.784-5.813-.391-11.12 4.877-12.397 12.138-.025.135-10.462 54.475-11.005 57.272-.544 2.8-1.454 3.218-3.631 4.238-.526.246-.922.319-1.15 1.365-.177.815 1.505 8.552 2.255 11.923a835.207 835.207 0 0 0 2.856-13.534" fill="#BCE"/>
        <path d="M54.125 94.517c-.224 1.047-5.33 39.358-4.977 39.396.353.038 7.54-25.903 7.54-25.903s1.275-5.764 2.877-13.746l-1.96-2.525c-.555.558-1.304.913-2.349 1.411-.517.247-.907.32-1.13 1.367" fill="#7C7EC0"/>
        <g transform="translate(33.043 15.652)">
            <mask id="f" fill="#fff">
                <use xlink:href="#e"/>
            </mask>
            <path d="M12.935 1.954c5.392.562 9.162 6.702 8.422 13.716-.74 7.013-5.71 12.244-11.102 11.683-5.391-.561-9.162-6.702-8.422-13.715.74-7.014 5.71-12.245 11.102-11.684m-2.88 27.304a9.383 9.383 0 0 0 4.122-.503c.116-.017.248-.044.4-.082 2.199-.563 6.128-2.827 6.299 1.71.074 2-.469 28.56-.616 46.118-.075 8.796.014 15.33.014 15.33s1.806 26.827 2.168 26.865c.362.037 3.217-38.42 3.21-39.489-.006-1.069-.382-1.222-.85-1.572-1.935-1.448-2.746-2.045-2.699-4.893.047-2.848 1.076-58.221 1.076-58.221C23.44 7.02 19.131.674 13.136.05 6.79-.61.956 5.392.104 13.457c-.85 8.066 3.604 15.14 9.95 15.8" fill="#E4EAF6" mask="url(#f)"/>
        </g>
        <path d="M49.276 41.24c-1.86 1.577-4.098 2.403-6.415 2.162-5.392-.56-9.163-6.692-8.423-13.696.447-4.229 2.435-7.807 5.128-9.857 1.859-1.577 4.098-2.404 6.415-2.163 5.392.56 9.163 6.692 8.423 13.696-.447 4.228-2.436 7.808-5.128 9.858m8.135 52.376c-1.936-1.446-2.747-2.043-2.7-4.887.047-2.843 1.076-58.14 1.076-58.14.26-7.49-4.048-13.83-10.045-14.452-2.575-.268-5.065.56-7.173 2.175-2.863 2.407-4.94 6.304-5.421 10.861-.852 8.055 3.604 15.119 9.952 15.779a9.398 9.398 0 0 0 4.123-.502c.115-.017.248-.044.4-.082 2.2-.562 6.13-2.823 6.3 1.708.075 1.997-.469 28.52-.616 46.054-.075 8.785.014 15.31.014 15.31s1.372 20.354 1.964 25.603c.784-7.231 2.982-36.92 2.976-37.857-.007-1.068-.383-1.221-.85-1.57" fill="#BCE"/>
        <path d="M55.399 100.01a1.739 1.739 0 1 0-.363 3.459 1.739 1.739 0 0 0 .363-3.46" fill="#E4EAF6"/>
        <path d="m56.957 102.37-2.86-1.935c-.069.074-.13.154-.184.24l2.86 1.934c.068-.074.13-.155.184-.24" fill="#BCE"/>
        <path d="m53.478 106.522.009.795s1.398 21.84 1.925 26.161c.39-3.458 1.287-15.299 1.98-24.959-.766-.975-1.994-1.727-3.914-1.997" fill="#9BA5D7"/>
        <path d="m53.478 106.522.009.88.048.83 3.856.464c-.772-1.062-2.003-1.878-3.913-2.174" fill="#E4EAF6"/>
    </g>
</svg>
