<svg width="150" height="150" viewBox="0 0 150 150" xmlns="http://www.w3.org/2000/svg" xmlns:xlink="http://www.w3.org/1999/xlink">
    <defs>
        <circle id="a" cx="75" cy="75" r="75"/>
        <path id="c" d="M0 0h67.826v56.087H0z"/>
    </defs>
    <g fill="none" fill-rule="evenodd">
        <mask id="b" fill="#fff">
            <use xlink:href="#a"/>
        </mask>
        <use fill="#E7F6FA" xlink:href="#a"/>
        <g mask="url(#b)">
            <g transform="translate(23.478 93.913)">
                <mask id="d" fill="#fff">
                    <use xlink:href="#c"/>
                </mask>
                <path d="m42.433 0 25.38 4.436s1.29 38.885-22.441 77.02c-.386.622-13.935-.446-25.322-5.543C8.698 70.831-.466 61.856.018 61.401 28.224 34.978 42.433 0 42.433 0" fill="#FFBA61" mask="url(#d)"/>
            </g>
            <path d="M62.667 43.597s8.218-3.098 11.793 7.878c.567 1.752.484 8.75.484 8.75S91.457 39.33 96.987 33.51c8.994-9.462 11.195-2.056 11.195-2.056l-16.94 29.442 20.062 17.457-8.435 16.73-13.548 11.875-22.513-10.313-7.678-18.991 6.428-26.584-2.891-7.472z" fill="#FFBA61"/>
            <path d="M104.013 66.63c4.809 8.23 3.598 17.863-2.7 21.524-6.3 3.659-15.3-.043-20.11-8.265-4.806-8.226-3.598-17.862 2.703-21.519 6.292-3.662 15.302.037 20.107 8.26" fill="#E9A657"/>
            <path d="M105.484 55.35c1.228 2.567.519 5.454-1.565 6.447l-17.34 8.298c-2.084.998-4.766-.276-5.981-2.839-1.218-2.563-.516-5.451 1.564-6.445l17.345-8.295c2.087-1.002 4.769.273 5.977 2.834" fill="#FBC582"/>
            <path d="M111.026 64.038c1.345 2.813.73 5.903-1.369 6.907L92.18 79.253c-2.107.998-4.9-.475-6.246-3.29-1.348-2.812-.738-5.907 1.362-6.905l17.484-8.31c2.1-1 4.898.475 6.246 3.29" fill="#FBC582"/>
            <path d="M111.675 73.951c1.016 2.138.43 4.543-1.307 5.376L95.921 86.24c-1.74.828-3.973-.23-4.988-2.366-1.014-2.138-.432-4.542 1.304-5.372l14.456-6.914c1.73-.832 3.97.23 4.982 2.363" fill="#FBC582"/>
            <path d="M105.094 41.253c1.542-.287 2.547-1.7 2.243-3.159-.303-1.458-5.89-.419-5.586 1.039.303 1.458 1.8 2.407 3.343 2.12" fill="#BF222C"/>
            <path d="m107.064 38.813.327-.575s-2.81-4.924-3.698-4.756c-.943.179-1.954 5.827-1.954 5.827l1.743 1.126 3.582-1.622z" fill="#BF222C"/>
        </g>
    </g>
</svg>
