<?xml version="1.0" encoding="UTF-8"?>
<svg width="57px" height="49px" viewBox="0 0 57 49" version="1.1" xmlns="http://www.w3.org/2000/svg" xmlns:xlink="http://www.w3.org/1999/xlink">
    <title>Group 9</title>
    <defs>
        <polygon id="path-1" points="0 0 45.5674606 0 45.5674606 36.707121 0 36.707121"></polygon>
    </defs>
    <g id="0.0---DEV" stroke="none" stroke-width="1" fill="none" fill-rule="evenodd">
        <g id="0.6.2-survery_1-mobi" transform="translate(-53.000000, -846.000000)">
            <g id="Group-9" transform="translate(53.000000, 846.000000)">
                <g id="Group-7-Copy" transform="translate(0.000000, -0.000000)" fill="#FFBE4E">
                    <path d="M0.802961284,20.3674792 C0.812884325,21.2691662 1.53017842,22.0095998 2.39773571,21.9896281 L5.19603323,21.9274938 C6.05508505,21.9082617 6.75395064,21.1693075 6.7440276,20.2705793 C6.73481335,19.3688924 6.01681046,18.6291985 5.14996196,18.6484305 L2.35166445,18.7105648 C1.4940302,18.7297968 0.793747032,19.4687511 0.802961284,20.3674792" id="Fill-1" transform="translate(3.773502, 20.319043) rotate(20.000000) translate(-3.773502, -20.319043) "></path>
                    <path d="M0.690034801,11.9809646 C0.452187843,12.8199961 0.917540587,13.7143879 1.72070495,13.9617117 L9.43521933,16.3457979 C10.2390731,16.5938406 11.0973904,16.1092586 11.3338585,15.2695081 C11.5723949,14.4319144 11.1063527,13.5389606 10.3031884,13.2894799 L2.58798459,10.9053937 C1.78482022,10.6580699 0.927192347,11.1433709 0.690034801,11.9809646" id="Fill-3" transform="translate(6.012071, 13.625779) rotate(20.000000) translate(-6.012071, -13.625779) "></path>
                    <path d="M4.13914785,2.78840589 C3.68341575,3.52228639 3.90952085,4.49226024 4.62939443,4.95733567 L15.2492907,11.8289319 C15.976208,12.2989852 16.9496574,12.0671586 17.4060939,11.332567 C17.861826,10.5972642 17.6364253,9.62871264 16.9165517,9.16221495 L6.29595108,2.29204097 C5.5697381,1.82127654 4.5962887,2.05239201 4.13914785,2.78840589" id="Fill-5" transform="translate(10.772721, 7.060157) rotate(20.000000) translate(-10.772721, -7.060157) "></path>
                </g>
                <g id="Group-14-Copy" transform="translate(10.134713, 12.039638)">
                    <path d="M19.4748736,3.11787159 L19.3793463,3.21787159 L19.3748736,3.21617038 C19.3878209,3.20327214 19.3996853,3.19133277 19.4104198,3.18063063 C19.4156457,3.17527957 19.4208247,3.1704234 19.4256269,3.16556723 C19.4304292,3.16092757 19.4348548,3.15631885 19.4393275,3.15217409 C19.4474725,3.14391551 19.4544876,3.13711068 19.4607964,3.13126472 C19.4641392,3.12832627 19.4667286,3.12566621 19.4689414,3.1234701 C19.4700714,3.12226379 19.4711542,3.121274 19.4722842,3.12031514 C19.4729904,3.11932535 19.4737908,3.11861393 19.4748736,3.11787159" id="Fill-1" fill="#EC6A5A"></path>
                    <path d="M19.4477236,3.13407159 C19.4351236,3.15217159 19.4202236,3.17497159 19.4020236,3.20167159 C19.4194236,3.17497159 19.4343236,3.15297159 19.4477236,3.13407159" id="Fill-3" fill="#EC6A5A"></path>
                    <g id="Group-7" transform="translate(0.420076, -0.014891)">
                        <mask id="mask-2" fill="white">
                            <use xlink:href="#path-1"></use>
                        </mask>
                        <g id="Clip-6"></g>
                        <path d="M33.9706956,12.4467058 C33.5106631,13.4408052 32.5361789,14.0694486 31.0744883,14.3149724 L31.0486694,14.1590282 L31.0228862,14.003084 C31.0475639,13.9990827 31.0711004,13.9939999 31.0955285,13.9894938 C32.4077265,13.7541356 33.2798267,13.19128 33.6859747,12.3137243 C34.5019439,10.5514753 33.2500851,7.99872671 32.9229984,7.38569216 C32.8781007,7.30151977 32.8500708,7.25299898 32.8481094,7.24932207 L32.9830523,7.16907893 L33.1182448,7.0885474 C33.1942749,7.21839278 34.9681814,10.2905949 33.9706956,12.4467058 L33.9706956,12.4467058 Z M25.3129565,20.9303816 C25.1014486,20.9303816 24.9093048,20.9133669 24.7410185,20.8886739 C22.9962831,20.6312542 21.7466353,19.3433626 21.4565652,18.262207 C21.2826445,17.6145662 21.4425503,17.0529002 21.9059706,16.6803067 L22.0038612,16.8039518 L22.1017518,16.9272725 C21.6406139,17.2981717 21.6610479,17.8130833 21.7592238,18.1796928 C22.0271124,19.1775051 23.2324687,20.3468344 24.7864512,20.5759564 C26.542099,20.8342773 28.2178652,19.8268041 29.503638,17.7368054 C30.6792527,15.8257136 30.9942501,14.1669949 30.4400001,12.807079 C29.5687201,10.668884 26.8049594,9.97506561 26.7771791,9.96821646 L26.8136608,9.81483166 L26.850392,9.66087008 C26.9701431,9.68978068 29.7959547,10.3972253 30.7294639,12.6851642 C31.3252594,14.1448253 31.0024165,15.9002972 29.7704211,17.9032397 C28.2223585,20.4194354 26.4756261,20.9303816 25.3129565,20.9303816 L25.3129565,20.9303816 Z M16.5746939,12.1668281 C16.5716271,12.1532019 16.5612496,12.1073127 16.547199,12.0361176 C16.4195667,11.3896664 15.9640276,8.55249813 17.3516852,6.68477226 C17.5536715,6.41257281 17.7867546,6.17552029 18.0479032,5.97137971 L18.086061,5.97137971 C18.7696192,5.4385883 19.6496006,5.13491883 20.7208343,5.07309628 C21.8683478,5.00676772 22.7968287,5.31101396 23.4899443,5.97137971 L23.4604879,5.97137971 C23.5381942,6.04592725 23.613939,6.12335864 23.6860465,6.20670192 C23.8852155,6.43809489 24.0526459,6.69666815 24.1954343,6.97258056 C24.2016037,6.97030952 24.2077375,6.96803849 24.2139069,6.96576746 C24.9609425,6.69216213 25.5620159,6.35983439 26.0144881,5.97137971 L26.0433739,5.97137971 C26.4792992,5.5979571 26.7816725,5.17431944 26.939296,4.69967367 C27.3898068,3.34008229 26.5166011,2.01423195 26.5076144,2.00089414 L26.7673722,1.82368152 C26.807206,1.88265627 27.7362219,3.28788459 27.2377465,4.79664315 C27.0952434,5.22792301 26.8481097,5.6192255 26.5050824,5.97137971 L26.4750911,5.97137971 C25.9724076,6.48827389 25.2560052,6.9186886 24.331447,7.25894693 C25.1525157,9.1400106 24.9143331,11.7012305 24.7558893,12.8048441 L24.4215278,13.2905205 L24.3595125,13.2780479 C24.3687845,13.2310051 25.2773307,8.53548341 23.4487196,6.41372635 C23.3040056,6.24556181 23.1440997,6.0989901 22.9715697,5.97137971 L23.0004555,5.97137971 C22.4055159,5.53357513 21.6495649,5.3353825 20.738772,5.38869769 C19.919415,5.4357405 19.222662,5.6336808 18.6484774,5.97137971 L18.6086435,5.97137971 C18.2136576,6.20443089 17.8773703,6.50474789 17.6035975,6.87305166 C16.150002,8.82808611 16.8728592,12.0627932 16.8801697,12.0953807 L16.7275745,12.1311044 L16.5746939,12.1668281 Z M7.97055402,10.4655726 C5.82523378,11.2886956 4.65357753,12.3363986 4.49060481,13.5808883 C4.23002674,15.5739174 6.633928,17.5139198 7.07320548,17.8499605 C7.1144301,17.8817189 7.13967839,17.9001035 7.14221035,17.9018338 L7.05102407,18.0305617 L6.95987346,18.1592895 C6.85385203,18.0830117 4.74447852,16.5456309 4.25723641,14.6507248 C4.17393132,14.6308622 4.09312252,14.614965 4.01402547,14.6010865 C2.56663506,14.3495786 1.81093372,15.0816802 1.54671819,15.4202442 C1.47881883,15.5072644 1.44294343,15.5687986 1.43648871,15.5801538 L1.16328651,15.4247503 C1.17223753,15.4089251 2.05582075,13.878033 4.19019293,14.3127375 C4.15317637,14.0594993 4.14558048,13.8011784 4.17953016,13.5403341 C4.36044059,12.155509 5.6246739,11.011125 7.93713926,10.1394811 L8.04708344,10.4355084 C8.02072965,10.4454216 7.99662252,10.4556593 7.97055402,10.4655726 L7.97055402,10.4655726 Z M42.666307,11.7846098 C42.6517215,11.7758501 42.6219799,11.7582226 42.5812902,11.7350076 C42.0887345,11.4534356 39.7829735,10.2350087 38.1386964,11.0621692 C37.1633563,11.5526761 36.5821463,12.6862817 36.4079759,14.429245 C36.4051943,14.4584801 36.4015212,14.4862371 36.3987396,14.5160129 L36.0865238,14.4871023 C36.259874,12.5779931 36.9033488,11.3303673 37.99844,10.7794436 C39.7067294,9.92030849 41.9532568,11.0230209 42.6379562,11.4037973 C42.9086621,9.4779979 42.58047,8.05997249 41.6576235,7.19005894 C40.0200151,5.64644184 37.0222797,6.32551657 36.9920031,6.33290644 L36.8483589,6.3663591 L36.8063141,6.22400503 C36.7807805,6.13781394 36.7538561,6.05475904 36.727217,5.97137971 L36.7552469,5.97137971 C36.1681528,4.14110785 35.2921655,3.00887204 34.142334,2.62070574 C32.4094025,2.03575269 30.6175584,3.34318243 30.5996207,3.35623185 L30.4441725,3.47191031 L30.36397,3.29498607 C30.3502403,3.26495798 28.9810911,0.303027078 26.7867007,0.0214551106 C25.5356621,-0.138742793 24.240867,0.598765961 22.9379053,2.21383047 L22.8327398,2.34425261 L22.7101715,2.2305568 C21.3326061,0.955750623 19.9699116,0.3991314 18.6585695,0.576632408 C16.6555027,0.847425983 15.437237,2.7673135 15.4252191,2.78659925 L15.4212607,2.79283558 C15.4209754,2.7933763 15.4195846,2.795395 15.4173379,2.79878352 C15.4164821,2.79964868 15.4159471,2.80047778 15.4153766,2.80163132 L15.3449809,2.91532714 L15.3415931,2.91334449 C15.0709228,3.33186331 14.1948998,4.76686739 14.0653062,5.97137971 L14.0319271,5.97137971 C14.0069641,6.20504371 14.0108868,6.42901076 14.0518618,6.63599914 C14.0672676,6.71368287 14.0863464,6.78941999 14.1129855,6.86144416 L13.8187431,6.97113863 C13.7074081,6.6686227 13.6841212,6.32692245 13.7186058,5.97137971 L13.7519849,5.97137971 C13.8770852,4.68918367 14.7626298,3.22750397 15.0647534,2.76107717 C14.1517138,2.2719761 13.2411706,2.14861939 12.3559112,2.40380413 C10.6022248,2.90995596 9.43277959,4.74278724 9.16407072,5.20041829 L9.94669644,5.97137971 L9.91385226,5.97137971 C11.5693984,7.65929749 14.8936498,11.3987145 13.9564675,13.3529199 C13.9203068,13.4289093 13.8765502,13.5000683 13.8291205,13.568704 L13.1045873,13.9772735 C14.4103305,15.9504402 15.6167923,16.8371161 16.6936248,16.6111304 C18.0599568,16.3244396 19.0173235,14.3271567 19.6060937,12.566638 L19.9267256,12.6151227 C19.3146328,14.4601383 18.2877263,16.5994868 16.7578867,16.9204594 C16.6274372,16.9479641 16.4955969,16.9615903 16.3626511,16.9615903 C15.2810043,16.9615903 14.1230777,16.0519878 12.9132994,14.2548802 C12.4033409,14.4579033 11.7315153,14.5593788 10.8931151,14.5593788 C10.1405163,14.5591264 9.25325995,14.4777298 8.22913504,14.3149724 L8.25356312,14.1590282 L8.27795553,14.003084 C11.3727613,14.4941677 13.1881777,14.2290337 13.6742786,13.2156846 C14.559003,11.3703807 10.9750294,7.4872037 9.46701456,5.97137971 L9.49953778,5.97137971 C9.2145673,5.68530173 9.00559133,5.48451363 8.91387013,5.39803415 C8.03756184,5.50012247 7.27515615,5.69406142 6.62073327,5.97137971 L6.56970177,5.97137971 C5.72930454,6.32977025 5.07459636,6.83166841 4.61402901,7.47501944 C3.54925007,8.96164444 3.90686288,10.7105557 3.91050034,10.7281111 L3.94223901,10.8758724 L3.79720398,10.9144079 C1.76635693,11.4543007 0.536073297,12.3800529 0.140837681,13.6656374 C-0.622994464,16.1506515 1.96773702,19.2135172 1.99384119,19.2441221 L2.08556238,19.3512932 L1.98991843,19.4550757 C1.50296162,19.9836135 1.27547736,20.5731086 1.3144553,21.2068348 C1.40310962,22.6600071 2.85021474,23.9021897 2.86508555,23.91441 L2.92089569,23.9617773 L2.92089569,24.0354597 C2.92089569,24.0913343 2.92314236,24.1454786 2.92399824,24.2005241 C2.99157664,20.9848143 7.53266733,19.5183402 11.7564783,19.5183402 C11.9985481,19.5183402 12.2341988,19.5239998 12.4661407,19.5327595 L12.5444176,19.5773149 C12.4184971,18.6875389 12.0978651,18.0949436 11.5859453,17.821843 C10.8538519,17.4311173 9.91945111,17.7850018 9.62410315,17.9154239 C9.56604635,17.9412344 9.53013529,17.9591143 9.5284592,17.9602317 L9.38370946,17.6798133 C9.43727293,17.6517679 10.7085315,16.997314 11.7312657,17.5417129 C12.3413257,17.8666868 12.7186236,18.5451848 12.8577389,19.5523336 C17.0030234,19.8075183 19.4420155,21.5303307 19.4420155,24.2725482 C19.4420155,27.2653363 13.6636515,29.8297284 8.93323429,29.8297284 C7.10940183,29.8297284 5.69788682,29.4375968 4.70154216,28.6612282 C4.74194656,28.6963751 4.78120979,28.7326756 4.82300498,28.766705 C7.37868128,30.8476556 11.6804838,29.9479663 11.7236698,29.9385938 L12.847932,29.6953049 L11.8291563,30.2329268 C11.6757052,30.313999 11.6546649,30.4005146 11.6524182,30.4583358 C11.63391,30.9094781 12.663919,31.7521754 13.3744373,32.2202964 C13.3893081,32.2211616 13.4047139,32.2219907 13.4218314,32.2231082 C13.9853889,32.2520548 15.7909627,32.2577144 16.8504281,31.2474654 C17.4148059,30.7095552 17.6835148,29.9536259 17.6563407,29.0037575 C17.6551996,28.9665919 17.6568757,28.931481 17.6549143,28.8937386 L17.9682356,28.8773007 C18.0257218,29.9768769 17.7222431,30.8516209 17.0661441,31.4771281 C16.0872022,32.4105945 14.5836807,32.5497763 13.773881,32.5497763 C13.6611195,32.5497763 13.562908,32.5469646 13.4804587,32.5432516 L11.1124685,36.4198679 L12.2117321,36.7071354 C13.0181796,35.5233147 13.8658518,34.4858134 14.7323532,33.6221362 C16.2072386,32.1522736 18.2364095,31.2264854 20.4462056,31.0154957 C22.4349722,30.8255581 24.2879757,29.630959 24.4189601,29.5450563 C24.438039,29.5285823 24.5092905,29.4656423 24.6111396,29.3615713 C25.0764856,28.8860964 26.1665128,27.5573983 25.6879721,25.9471643 C25.6697491,25.8864592 25.6492438,25.8255018 25.6265631,25.7639676 C25.2265489,25.8224017 24.7850247,25.8524298 24.2992091,25.8524298 C23.0178583,25.8524298 21.4378073,25.6494067 19.565725,25.2433605 L19.5988188,25.0888582 L19.6319126,24.9346082 C19.7166085,24.9530288 19.7982375,24.9695028 19.8815426,24.9870583 C25.1140371,26.085517 27.0015608,25.3210803 27.6593715,24.4755353 C28.4111145,23.509229 27.7771612,22.1694641 27.7707422,22.155874 L27.9109629,22.0869499 L28.0523248,22.0169084 C28.0761823,22.0656815 28.5143186,22.9880812 28.2708581,23.9268827 C28.2414017,24.0400017 28.2018175,24.1534452 28.1508217,24.2654107 C33.1934191,23.5888954 34.509825,22.3396113 34.7171249,21.402468 C35.0859711,19.7346651 32.3518807,17.9712985 32.3241361,17.9534547 L32.4080117,17.8198964 L32.4918518,17.686338 C32.6124944,17.7631566 35.4394115,19.5866514 35.0234209,21.4708152 C35.0175011,21.4974548 35.009406,21.523842 35.0023807,21.5501932 L35.0219945,21.5071157 L35.0882178,21.3638965 C35.7919961,21.6928357 36.3011343,22.1045414 36.6711216,22.5414808 C36.6770057,21.0823606 37.044996,16.8107649 41.0335129,15.3536273 L41.1403545,15.6507721 C41.0789099,15.6731579 41.0219586,15.6989684 40.9622613,15.7230846 C37.0994154,17.2667017 36.9597295,21.6837516 36.9863686,22.7674666 C36.9889006,22.8706724 36.9928233,22.9435257 36.9951057,22.9806913 C37.6402209,24.0039896 37.6388301,25.0650304 37.6045952,25.496851 C39.4623773,25.3576331 40.8497495,24.7213835 41.726878,23.6011157 C42.9885794,21.9896921 42.8247864,19.8290751 42.7543908,19.2571715 C42.2870478,19.2563063 41.2949111,18.9670922 40.4632153,18.6946043 L40.5117505,18.5440673 L40.5602857,18.3937826 C42.2104827,18.934757 42.6906995,18.9509786 42.8001087,18.943012 L42.8511402,18.9305393 C44.3922132,18.5534038 45.2867445,17.9001035 45.5100564,16.9893834 C46.0298217,14.8698974 42.8550987,11.9555861 42.666307,11.7846098 L42.666307,11.7846098 Z" id="Fill-5" fill="#421B59" mask="url(#mask-2)"></path>
                    </g>
                    <path d="M35.5873029,21.6000259 C35.5228075,21.5670286 35.4574088,21.5346404 35.389228,21.5030762 C34.8975456,22.9222475 32.5076758,23.9097307 28.2761287,24.4389776 C28.261965,24.4578588 28.2488491,24.4770266 28.2337821,24.4959078 C27.8273709,25.0096413 27.1600876,25.3543038 26.2398452,25.5315435 C26.8912304,27.3667103 25.6214122,28.8789262 25.1024503,29.3971739 C29.4951093,30.702234 30.6367317,27.7632155 30.684209,27.6349882 L30.7609531,27.4256469 L30.9345667,27.5673813 C31.807115,28.2795286 32.7370047,28.5666519 33.7001718,28.4195791 C35.855582,28.091254 37.543482,25.7003637 37.72761,25.4303661 C37.7330659,25.3979778 37.7404368,25.3421941 37.7472296,25.2663827 C37.8021139,24.6483547 37.7787727,22.7218989 35.5873029,21.6000259" id="Fill-8" fill="#421B59"></path>
                    <path d="M19.4065177,24.5903013 C19.4065177,21.8646944 16.663023,20.2373134 12.0679062,20.2373134 C7.85228719,20.2373134 3.58448277,21.7326089 3.58448277,24.5903013 C3.58448277,28.001084 5.49333115,29.7305343 9.25742254,29.7305343 C13.7310574,29.7305343 19.4065177,27.3103221 19.4065177,24.5903013" id="Fill-10" fill="#421B59"></path>
                    <polygon id="Fill-12" fill="#EC6A5A" points="43.4743167 18.9899565 43.4745167 18.9899565 43.4742167 18.9898565"></polygon>
                </g>
            </g>
        </g>
    </g>
</svg>