<?xml version="1.0" encoding="UTF-8"?>
<svg width="58px" height="37px" viewBox="0 0 58 37" version="1.1" xmlns="http://www.w3.org/2000/svg" xmlns:xlink="http://www.w3.org/1999/xlink">
    <title>cancer</title>
    <defs>
        <polygon id="path-1" points="0 0 51.2859188 0 51.2859188 27.5681065 0 27.5681065"></polygon>
        <polygon id="path-3" points="0 0 0.924070609 0 0.924070609 3.08023536 0 3.08023536"></polygon>
        <polygon id="path-5" points="0 0 1.84814122 0 1.84814122 0.924070609 0 0.924070609"></polygon>
    </defs>
    <g id="0.0---DEV" stroke="none" stroke-width="1" fill="none" fill-rule="evenodd">
        <g id="0.6.2-survery_1-mobi" transform="translate(-52.000000, -722.000000)">
            <g id="cancer" transform="translate(53.000000, 722.000000)">
                <path d="M55.5397751,8.55585551 C55.1471431,7.06059791 53.872343,5.51507955 52.5375074,5.1967614 C52.0333507,5.07650473 52.1219207,5.30260716 51.5661336,4.89335111 C50.5316872,4.13170183 49.8963707,4.26289093 49.6446455,4.2339271 C49.4103659,4.20695099 48.8847378,4.07377418 48.650882,4.04204175 C47.4168353,3.87457687 47.293798,3.85782328 46.2806112,3.72038708 C45.1053287,3.50251947 43.8284096,3.33619043 42.4569171,3.28167028 C41.5919826,3.2239556 40.7264831,3.20997061 39.8615486,3.27407438 C38.7249713,3.35819726 37.2848265,3.57883347 36.1756536,3.87528677 C36.1041761,3.89438302 36.0367951,3.91347927 35.9729456,3.93243354 C35.657936,4.00945744 35.3406662,4.09187657 35.0193705,4.18444723 C34.4400636,4.35120221 33.9813926,4.06717213 33.3205787,3.87528677 C33.3195193,3.87500281 33.3187424,3.87486083 33.3176829,3.87457687 C33.1726796,3.76681439 33.0163755,3.65685123 32.8200242,3.56435156 C31.6858483,3.02944362 30.4233378,2.67612751 29.1746001,2.40068719 C27.7141845,1.99263797 26.0002779,1.66090276 23.8486774,1.39369725 C21.5932509,0.995160663 19.332386,0.637088245 17.0670006,0.32168068 C14.2225909,-0.0743712666 11.2114945,-0.24886413 8.42712027,0.664490297 C7.78481142,0.875187945 7.20818843,1.19300916 6.60077078,1.49968498 C6.03869757,1.78357309 5.26183865,1.73302837 4.84046031,2.29228581 C4.54466204,2.68471727 4.38313133,3.19037743 4.0912177,3.58664235 C3.68375347,4.13986565 3.03748934,4.46109438 2.75885416,5.11079279 C2.62169077,5.43053073 2.59089611,5.79591509 2.4817022,6.12942505 C2.24092467,6.86544702 1.63484899,7.40461435 1.46540771,8.16626363 C1.3694216,8.59781047 1.42578431,9.05335185 1.38587838,9.49625704 C1.33912135,10.0154762 1.16176952,10.5053057 1.01111582,10.9979037 C0.370148938,13.0933799 0.194068449,15.3318294 0.0230733184,17.5434448 C-0.0290515915,18.2161439 -0.0806820916,18.8984266 0.0245565475,19.5629619 C0.126475579,20.2067681 0.371773427,20.8075546 0.542627298,21.4319807 C1.1322462,23.5871592 0.8161065,25.9127842 0.941898457,28.1667095 C0.958002087,28.454857 0.983428873,28.7507424 1.0987676,29.0074414 C1.19659009,29.225238 1.35282356,29.4003698 1.47317701,29.6028326 C1.79171813,30.1383795 1.83819264,30.8175386 1.95741601,31.4510514 C2.17206046,32.5908632 2.65700575,33.5816674 3.30538878,34.4687556 C3.63176982,34.9152813 4.33983516,36.4835164 4.81905943,36.6306782 C5.10850101,36.7194864 5.47612994,36.5525185 5.8390973,36.3028474 C7.09270845,35.9486795 8.25810277,35.5427599 8.82596765,34.1913986 C8.91446698,33.9808429 8.99095923,33.7144183 9.0913244,33.4568674 C9.42724049,33.1453643 9.7681713,32.8322284 10.11447,32.5278242 C10.278049,32.5249137 10.466631,32.557427 10.6853719,32.6346639 C11.2542963,32.8358489 11.7094357,31.9430105 12.2563235,31.6733913 C12.5685079,31.5195565 12.8806923,31.3657217 13.1928061,31.2118868 C13.4496167,31.085312 13.7064978,30.9587373 13.9668399,30.8422431 C15.3752012,30.2124218 16.8856935,29.8835972 18.3975984,29.877705 C18.812055,29.8760722 19.2428978,29.8949555 19.6218982,29.7026442 C19.9062544,29.558322 20.1391214,29.3049595 20.4188866,29.149208 C20.5412177,29.0810578 20.6674334,29.0351274 20.7961212,29.0035369 C20.9722723,28.9857185 21.1474346,28.9677581 21.3219613,28.9495137 C21.8214563,28.9579615 22.3441887,29.0979533 22.8481334,29.1294728 C23.6252042,29.1779588 24.4145647,28.8752584 25.0813821,28.371586 C25.7359806,28.2167573 26.3811146,28.0233811 27.0183381,27.7739941 C28.1419195,27.7774016 29.3300567,27.239725 30.2958507,26.4657235 C31.1010323,25.8204265 31.9102397,25.0633915 32.2434012,24.0045081 C32.2821771,23.8813408 32.3154438,23.7523524 32.3469447,23.6215182 C33.1041685,22.6216273 33.6180721,21.7863616 33.8662658,21.707279 C33.8750945,21.7044394 33.8836408,21.7018128 33.8924695,21.6989732 C34.0086558,21.7017418 34.1252659,21.7116094 34.2395451,21.7221159 C35.375063,21.8266128 36.5142536,22.1825555 37.6461693,22.0356777 C40.9945944,21.6010783 44.167716,22.540557 46.7978344,20.5761989 C47.3992485,20.1269756 47.9925401,19.5524554 48.7097168,19.5150438 C48.9904708,19.5004199 49.2792767,19.5708418 49.5488007,19.4795489 C50.1269069,19.2837591 50.3310981,18.4880347 50.710381,17.951423 C51.394644,16.9834065 52.720439,16.8242474 53.3390868,15.799936 C53.5145316,15.5093748 53.6174395,15.1708246 53.7588406,14.8568368 C54.0580998,14.1923016 54.5244694,13.6484489 54.8880018,13.0275014 C55.6472739,11.7306602 55.9323364,10.0511131 55.5397751,8.55585551" id="Fill-1" fill="#A56825"></path>
                <path d="M54.9165113,7.54657664 C54.3546026,8.85655487 53.1968944,8.8147508 52.1838381,9.73760218 C51.8807245,10.0136496 51.6458854,10.3800501 51.3291027,10.6355116 C50.8939493,10.9864551 50.3332384,11.1049117 49.9211955,11.4900011 C49.6480268,11.7453924 49.4540538,12.1063126 49.1527016,12.3168787 C48.7452385,12.6014978 48.2257459,12.5568833 47.772696,12.7314768 C47.0979828,12.9915755 46.6101262,13.7214958 45.9170937,13.909579 C45.5168174,14.0181993 45.0940647,13.9311485 44.6875176,14.0045691 C43.7066609,14.1816919 42.9834721,15.2483634 41.9994448,15.4011064 C41.5936727,15.4640584 41.1816298,15.363026 40.7726166,15.3861412 C40.0669719,15.4259078 39.6869877,15.8376955 39.1555877,16.2770248 C38.673861,16.6752525 38.1018062,16.7436848 37.4812758,16.8246933 C36.8012781,16.9134304 36.1460115,16.5851103 35.4429738,16.6087876 C34.6542583,16.6354157 33.8756183,16.8631953 33.132701,17.1525919 C31.7843314,17.6776371 30.4576631,18.3989155 29.033198,18.4567386 C28.5888145,18.4748654 28.1269572,18.4303213 27.7151962,18.6212851 C27.2165594,18.8525073 26.8432688,19.4082557 26.3106709,19.4993815 C25.8053406,19.5858703 25.3315053,19.2257229 24.8309662,19.1086715 C24.1437112,18.9480595 23.4455352,19.2519998 22.7948484,19.5501788 C21.4906565,20.147942 20.1863236,20.7457754 18.8820612,21.3435386 C18.4817144,21.527055 18.0772106,21.7131007 17.7241417,21.9954012 C16.9597344,22.6065136 16.483574,23.6297651 15.6607564,24.1334515 C14.8711249,24.6167629 13.9152812,24.531328 13.0426492,24.766836 C11.6416469,25.1448994 10.5030331,26.3360698 9.11739079,26.7813008 C7.93939051,27.1597858 6.68226502,26.9687517 5.47889958,26.7132901 C3.78549335,26.3536345 2.36511488,25.7498291 0.896049399,24.8926698 C0.900981513,25.9606762 0.860960929,27.0385188 0.920639512,28.1002722 C0.936704113,28.3854533 0.962069272,28.6782926 1.07712845,28.932349 C1.17471386,29.1479035 1.34127841,29.7733487 1.46141062,29.973657 C1.7791797,30.5037608 1.81476138,30.7238118 1.9336958,31.3508028 C2.14782002,32.4788806 2.63158998,33.4594848 3.27840154,34.3374407 C3.60399155,34.7793696 4.31034078,36.3314602 4.78840358,36.477107 C4.94277875,36.52404 5.11963028,36.4981144 5.30599375,36.4266611 C5.37779124,36.3538025 5.44937736,36.2920449 5.51821558,36.2510137 C5.55351543,36.2300062 5.58973124,36.2078044 5.62686301,36.1843379 C5.7010561,36.1375455 5.77884259,36.0860456 5.85987019,36.0303303 C5.90038398,36.0025077 5.94174328,35.973561 5.98387763,35.9435605 C6.78069593,35.3769923 7.85956072,34.4461313 8.99408793,33.4856914 C9.01205492,33.4357373 9.03079695,33.3857832 9.05031403,33.3359696 C9.38541597,33.0276733 9.72552049,32.717761 10.0709799,32.4164906 C10.1305175,32.4153665 10.19386,32.4197225 10.2602321,32.4284346 C11.6598253,31.2833542 13.0183409,30.2782998 13.922468,30.0248758 C18.0623438,28.8641275 21.6942823,29.0935933 25.0703146,28.28688 C25.0709487,28.2866692 25.0716533,28.2865287 25.0722875,28.2863881 C25.2108094,28.2532962 25.3487677,28.2183072 25.4864441,28.1814915 C25.490108,28.1805079 25.4938423,28.1795243 25.4976471,28.1784704 C25.6358872,28.1414439 25.7737046,28.1024502 25.9110992,28.0613487 C26.0002295,28.0347206 26.0891485,28.0071791 26.1779266,27.9787242 L26.1894818,27.9750707 C26.2784713,27.9464753 26.3673198,27.9169666 26.4559569,27.8864742 C26.4560274,27.8864039 26.4560274,27.8864039 26.4560978,27.8864039 C26.5269794,27.8619538 26.59772,27.8368713 26.6683197,27.8112971 C26.6729699,27.8095406 26.6776907,27.8078544 26.682341,27.8061682 C26.7492063,27.7817883 26.8160717,27.7567059 26.8827257,27.7311316 C26.8913217,27.7278294 26.8998472,27.7245975 26.9083727,27.7212954 C27.9346752,27.3253159 28.9405447,26.7854461 29.9337316,26.0272817 C30.8591372,25.3207576 31.634677,24.4075317 32.2494298,23.6022235 C32.2495002,23.6021533 32.2495002,23.6020128 32.2495707,23.6018722 C32.3170702,23.5134162 32.3829492,23.4260843 32.4466439,23.3406494 C32.453267,23.3317266 32.4597492,23.3229442 32.4663724,23.3140213 C32.5006153,23.2679314 32.534506,23.2221928 32.5676216,23.1771569 C32.5702991,23.1734331 32.5731174,23.1697094 32.5757948,23.1660559 C32.7495462,22.9297048 32.9066693,22.7106374 33.0480096,22.5166524 C33.0544213,22.5080106 33.0609035,22.4990877 33.0671039,22.4905161 C33.0838731,22.4676117 33.1003604,22.4451288 33.1166364,22.422927 C33.1283326,22.4071187 33.1397469,22.3915212 33.1511612,22.3760642 C33.1651825,22.3571646 33.1792743,22.3379839 33.1929433,22.3197166 C33.214715,22.2904186 33.236064,22.2618934 33.2569198,22.2344222 C33.2962358,22.1824306 33.3336494,22.1341627 33.3695834,22.0887754 C33.370288,22.0879323 33.3709926,22.0870892 33.3716972,22.0861758 C33.4186227,22.0271583 33.4628004,21.9736912 33.5039483,21.926969 C33.5219857,21.9063831 33.5394595,21.8867809 33.5562287,21.8691459 C33.5665861,21.8581152 33.5761685,21.8491923 33.5861737,21.8392156 C33.5961084,21.8291685 33.6066067,21.8181379 33.6161891,21.8091447 C33.6734017,21.7555371 33.7225114,21.7181594 33.765139,21.7073395 L33.7652094,21.7073395 C33.7739463,21.7045994 33.7824014,21.7019296 33.7911383,21.6991192 C33.7930407,21.6991895 33.7950135,21.6992597 33.7969863,21.69933 C41.5213115,19.736365 47.0180825,18.9080822 50.9590532,17.5688762 C51.6743507,16.9557263 52.6770496,16.7049018 53.190835,15.8608107 C53.3658546,15.5732408 53.468513,15.2381759 53.6095715,14.9274205 C53.9081053,14.2697264 54.3733446,13.7314725 54.7359959,13.1169175 C55.4934278,11.8334268 55.7777994,10.1711702 55.3861895,8.69130581 C55.2792331,8.28724655 55.1192917,7.90117359 54.9165113,7.54657664" id="Fill-3" fill="#9E6123"></path>
                <g id="Group-7" transform="translate(4.737741, 9.086694)">
                    <mask id="mask-2" fill="white">
                        <use xlink:href="#path-1"></use>
                    </mask>
                    <g id="Clip-6"></g>
                    <path d="M51.282765,1.4784388 C51.2651008,1.32710531 51.2306202,1.25485079 51.2020747,1.10809037 C51.1742359,0.964706996 51.2563393,0.744566375 51.2147223,0.621304513 C51.1557944,0.447035316 51.073691,0 51.073691,0 C51.073691,0 50.996039,0.136277527 50.976467,0.152388809 C50.4358705,0.599564835 49.9976559,1.49314298 49.520368,2.04796207 C49.0261931,2.62248055 48.503826,3.16562072 47.9553159,3.67273916 C47.4335141,4.15516301 46.8769491,4.58313213 46.34469,5.04909293 C45.7741349,5.54868339 45.2673831,5.52631052 44.6546457,5.86661738 C44.3559787,6.0325847 44.1506495,6.35628779 43.8765711,6.57009647 C43.413132,6.93165053 42.8018078,6.94698791 42.3048772,7.24599642 C41.8746469,7.50490261 41.5336563,7.97346654 41.0567217,8.0859641 C40.6551781,8.18073221 40.2430359,7.99956823 39.8330135,8.01258389 C39.0884302,8.0361528 38.4776713,8.67919699 37.7636825,8.92009232 C37.1552553,9.1254584 36.4917156,9.03118278 35.8841362,9.23992589 C35.4011251,9.40596356 34.9750635,9.75675332 34.4825137,9.88184441 C33.979436,10.009609 33.4562917,9.89056842 32.9408491,9.8952822 C32.6167455,9.89823711 32.2948323,9.95029977 31.973979,10.0022217 C31.0436385,10.1529924 30.2100981,10.6748853 29.321092,10.8127107 C28.9166515,10.8753266 28.5134827,10.9494807 28.1133523,11.0409421 C26.7310191,11.3568358 25.4104402,11.9276255 24.0978455,12.4987669 C23.5118165,12.7537332 22.9949607,12.8726331 22.4044096,13.0485204 C21.8382353,13.2171612 21.3479465,13.6197322 20.7812775,13.7920315 C20.1444461,13.9857187 19.447627,13.8863071 18.8376453,14.1704004 C18.4071323,14.3709823 18.0571683,14.7467481 17.6381724,14.9767384 C17.1892886,15.2232621 16.683738,15.2913657 16.1957809,15.408366 C14.945011,15.7082891 13.7792415,16.3422575 12.5726323,16.8213747 C11.8226084,17.1192575 11.0217116,17.2693246 10.2855365,17.5890878 C9.68749582,17.8489086 9.18328762,18.3366091 8.58446972,18.5854546 C7.98713561,18.8337372 7.37340909,19.0438874 6.85528146,19.4790327 C6.48793582,19.7873281 6.16164189,20.1635863 5.75939171,20.4092658 C5.40137279,20.6279993 4.99233954,20.7369791 4.65905057,21.0012323 C3.50614063,21.9153541 2.60794911,23.5567349 1.82655358,24.8438786 L1.79680699,24.8588642 C1.79800816,24.8687139 1.79857341,24.8784933 1.79963327,24.8882022 C1.49708008,25.3880741 1.18555346,25.9272744 0.892044365,26.4777315 C0.735397842,26.7716041 0.301069389,27.1558125 0,27.2953967 C0.0572321533,27.3759531 0.215786415,27.5187033 0.346855112,27.5454381 C0.714483376,27.6205069 1.39349695,27.5099792 1.8642844,27.2018949 C2.15878269,27.0092631 2.56350587,26.8858605 2.88019045,26.7455024 C2.99253505,26.6957615 3.34172184,26.3914763 3.45441972,26.3428611 C3.69698513,26.2380322 3.59615763,26.0912014 3.83299982,25.9706131 C4.00561482,25.8826694 4.09308816,25.7098776 4.24019599,25.5747961 C4.36857972,25.4568813 4.43273626,25.2726217 4.53631939,25.1266351 C4.82064308,24.7259637 5.39600286,24.6133958 5.54106164,24.1259768 C5.56854721,24.0336711 5.57716736,23.9346113 5.61094139,23.8449791 C5.69777882,23.6151295 6.09324594,23.5702431 6.40533781,23.5453374 C6.57498522,23.5318293 6.73537656,23.4542981 6.86192321,23.3255486 C7.01962959,23.1651393 7.17655874,23.0176753 7.37920296,22.9639242 C7.80166104,22.8516377 7.89302052,22.5783087 8.28679186,22.3716762 C8.66607853,22.1725717 9.06592637,22.0297512 9.46450239,21.8875639 C10.0846587,21.6662272 10.7047444,21.4450313 11.32483,21.2236946 C11.5781353,21.1333589 11.835256,21.0421789 12.1006436,21.0314146 C12.2938198,21.0235348 12.4890451,21.0584309 12.6796776,21.0219166 C12.8236765,20.9944079 12.9594086,20.9270078 13.1016411,20.8889458 C13.3129761,20.8323804 13.5330019,20.8418783 13.7502015,20.8399787 C14.1585988,20.8365314 14.5666429,20.791856 14.9681158,20.7066561 C15.1122561,20.6760517 15.2580214,20.6391857 15.3856986,20.5575036 C15.4788951,20.4978427 15.5597974,20.4160199 15.6515101,20.353404 C15.9096201,20.1772352 16.2369739,20.1887734 16.5361355,20.1488118 C17.0144833,20.0849295 17.4964345,20.0209768 17.976478,20.0643858 C18.3487697,20.0979452 18.7337089,20.1943314 19.0875591,20.0590389 C19.2745881,19.9874175 19.4415505,19.8540949 19.6333842,19.8010473 C19.870721,19.7354765 20.1471311,19.7902126 20.3382582,19.617843 C20.4386618,19.5272962 20.4819039,19.4630621 20.5812476,19.3744149 C20.6921791,19.2754959 20.8272045,19.217453 20.9678119,19.204367 C21.3710513,19.1668678 21.7761278,19.0696373 22.1810629,19.0568327 C22.3513462,19.0514154 22.523396,19.0514857 22.6895812,19.0092727 C23.0693625,18.9128865 23.424979,18.559775 23.7904169,18.5381057 C24.0165899,18.5246679 24.2413498,18.4791482 24.4443473,18.3651029 C24.7346062,18.2020905 25.0093205,18.0000311 25.2814912,17.7993788 C25.4973483,17.6403062 25.7131347,17.4811634 25.9289917,17.3220908 C26.2924512,17.0541088 26.6584544,16.7839459 26.970193,16.4421615 C27.1972845,16.1933161 27.3926511,15.909645 27.5769245,15.6187976 C27.9100015,15.0933165 28.2874511,14.3906817 28.5504363,13.8176407 C28.7921539,13.4639664 29.0277949,13.0896077 29.246125,12.6989267 C29.2609629,12.6964643 29.2753769,12.6940722 29.2901443,12.6916802 C29.2923346,12.6906952 29.2945956,12.6897806 29.296786,12.6886549 C29.301732,12.6866146 29.3069606,12.6820415 29.3119066,12.6817601 C29.4630419,12.6740914 29.6121988,12.667267 29.7598719,12.6610054 C29.8026193,12.6806344 29.8487583,12.6992081 29.8997727,12.7160933 C30.2056467,12.8172637 30.8164763,12.8542001 31.0993162,12.8996494 C31.210389,12.9154089 31.3211085,12.9310277 31.4322519,12.9467872 C32.0368637,13.0288914 32.6459975,13.1347756 33.2561205,13.1063522 C33.5330252,13.0935476 33.8169956,13.0538674 34.0824539,13.1439921 C34.2089299,13.1869086 34.3275629,13.2584596 34.4564413,13.2908229 C34.6792227,13.3469661 34.9094938,13.2823099 35.1357375,13.2486099 C35.9111272,13.1330167 36.7110348,13.38341 37.4753314,13.1954216 C37.5581414,13.175089 37.6590395,13.1485652 37.7561222,13.0985428 C37.9374987,13.0051114 38.1394363,12.9683158 38.3355801,13.0079256 C38.9146847,13.1248556 39.4617817,13.0129912 40.033326,12.732275 C40.3583481,12.5726396 40.665706,12.3486295 41.0150341,12.2820737 C41.3103096,12.2257897 41.6242386,12.2850989 41.9036163,12.1627517 C42.399275,11.9458474 42.6669943,11.3566951 43.1568591,11.1232574 C43.3469264,11.0327106 43.5084482,10.9065642 43.7137067,10.8845431 C44.2062566,10.8317065 44.6915993,10.6935998 45.1478315,10.4765548 C45.4975835,10.3100246 45.8507271,10.0733506 46.0138034,9.68485056 C46.0882759,9.50727468 46.0761935,9.25061985 46.2130561,9.17076698 C46.4732151,9.01908172 46.709704,8.82440959 46.9010431,8.57352386 C47.1431139,8.25615271 47.4476455,8.00062355 47.7857391,7.83057565 C48.046746,7.69929333 48.3523374,7.59488659 48.4878575,7.30966764 C48.5226914,7.23628744 48.5438179,7.15446464 48.5855055,7.08586857 C48.6778542,6.93397224 48.8527302,6.87388912 48.9587156,6.73402349 C49.0355904,6.63264202 49.0690112,6.49938975 49.1126065,6.37514292 C49.3603299,5.66955318 49.9669201,5.20162245 50.2701092,4.52452647 C50.3673332,4.30734075 50.4333975,4.06855607 50.5683523,3.87916056 C50.641129,3.77686447 50.7325591,3.69131286 50.7941013,3.57994098 C50.8827759,3.41932065 50.9001575,3.22310071 50.9248168,3.03567514 C50.9756898,2.6473862 51.0671906,2.26592169 51.1966342,1.90197556 C51.2450342,1.76597946 51.2997227,1.62379211 51.282765,1.4784388" id="Fill-5" fill="#754116" mask="url(#mask-2)"></path>
                </g>
                <path d="M33.2350971,4.15831774 C33.9432036,5.93532035 33.6961668,17.6549823 33.0759065,22.7937417 C33.3947089,22.6290073 34.1955069,21.9506071 34.36186,21.7783816 C34.36186,21.7783816 33.9880045,15.5407398 34.1250755,12.8703352 C34.5192248,5.1899902 34.9240477,4.46314279 34.9240477,4.46314279 C33.9939732,4.27061433 33.2350971,4.15831774 33.2350971,4.15831774" id="Fill-8" fill="#BC8346"></path>
                <path d="M29.1981971,4.7432694 C28.7553328,4.56653589 28.3393173,4.30045142 28.0032831,3.92877677 C27.8547667,3.76462691 27.6612432,3.64638277 27.4629152,3.57024817 C27.1545777,3.45193373 26.82681,3.41783836 26.5079449,3.34318005 C26.0043175,3.22528741 25.5242888,3.00651466 25.0331673,2.83392883 C24.177255,2.5331163 24.2314472,2.56025199 23.3354737,2.54520785 C23.0366746,2.54021657 22.2610968,2.19117843 21.9659011,2.13845364 C21.6929616,2.08980623 21.0003326,2.12565909 20.7468231,2.04685309 C20.394609,1.93732612 20.0166764,1.97739696 19.6749898,1.81577789 C19.4809717,1.72410705 19.308574,1.57197844 19.1043816,1.51573866 C18.99091,1.48452558 18.8728459,1.48452558 18.7561241,1.48466618 C17.33999,1.48684547 15.9001864,1.56663566 14.4999496,1.2740482 C13.5398215,1.07341278 12.6256897,1.65486182 11.6548221,1.70470432 C11.010309,1.73781549 10.3834596,1.61957135 9.75653957,1.84509288 C9.20924749,2.04200241 8.65093326,2.29515173 8.13338684,2.58239641 C7.23161962,3.08278986 6.45999855,3.75387105 5.7396022,4.53982199 C5.3613164,4.95269229 5.01743949,5.21744106 4.73326588,5.73681544 C4.37349163,6.39446938 4.05603961,7.08094621 3.73773974,7.76496254 C3.56336369,8.13973039 3.38743324,8.51892711 3.29529938,8.92954781 C3.18769212,9.40849985 3.19793706,9.91388458 3.08912867,10.3924148 C2.99854922,10.7912252 2.82805918,11.1595957 2.68908119,11.5401282 C2.36527024,12.4264671 2.21491682,13.3656012 2.15443631,14.3231537 C2.09148289,15.320285 2.12582112,16.3373112 2.16291489,17.3353564 C2.17860026,17.7572251 2.19520413,18.1849989 2.3081105,18.5873945 C2.42730515,19.0122861 2.65007974,19.3940839 2.75422492,19.824037 C2.88853969,20.3782098 2.90139886,20.8966 3.21984005,21.3437765 C3.36856841,21.5523558 3.51185634,21.8126054 3.7217011,21.9364032 C4.74732618,22.5420353 5.09671417,22.7802811 6.22514199,23.0665416 C6.55086062,23.1491438 7.51367359,23.3177928 7.83861501,23.2321678 C8.11148385,23.1603214 8.47578001,23.1004964 8.72695782,22.9599672 C10.2004637,22.1352811 12.0337438,22.489873 13.4856999,21.6174533 C14.2034821,21.1861645 14.775362,20.4822534 15.5061446,20.0799983 C16.0041903,19.80597 16.555863,19.683297 17.069594,19.4493395 C17.802143,19.115697 18.4390254,18.5651798 19.1237411,18.1198311 C20.4615897,17.2498719 21.9686566,16.7894087 23.4665384,16.3617755 C24.1256064,16.1737237 25.2196959,15.9754785 25.8972048,15.9142474 C26.3583687,15.8725597 26.7325565,15.7784987 27.202411,15.5276692 C27.8009278,15.2082273 28.619181,15.2048529 29.2767652,15.0907564 C30.6092441,14.8596109 31.5584914,13.6718268 32.0377429,12.3049189 C32.2990243,11.5598824 32.4344696,10.7592388 32.4591988,9.95908731 C32.4735417,9.49440612 32.2504138,9.09404917 32.1730468,8.6505282 C32.0898155,8.17326336 32.2403808,7.8032056 32.0918645,7.34126609 C32.0322318,7.15588571 31.9615063,6.97402032 31.8804653,6.79770861 C31.4770264,5.92086012 30.7520375,5.30102743 29.9144248,5.02481981 C29.73263,4.96492444 29.5534494,4.88197076 29.3650131,4.80885905 C29.3089838,4.78706613 29.2533785,4.76527322 29.1981971,4.7432694" id="Fill-10" fill="#B27539"></path>
                <path d="M40.1955637,4.32564208 C39.7016029,4.34292844 39.2077828,4.37477173 38.714314,4.40654503 C38.32214,4.43194968 37.919984,4.45980381 37.5607079,4.64001584 C37.2859259,4.77788679 37.066958,5.00113975 36.8190286,5.18653068 C36.5977409,5.35183585 36.1849002,5.46661167 36.0074061,5.64738358 C35.5708761,6.09178994 35.5740394,7.25627457 35.4237493,7.87095505 C35.2796452,8.46051083 35.134557,9.07834065 35.2478017,9.67650461 C35.3047404,9.97674135 35.4257879,10.262981 35.439425,10.5696564 C35.463747,11.1142817 35.1492486,11.605998 35.0890763,12.147054 C34.9812442,13.1183794 35.6848941,13.9356672 36.3295667,14.58653 C36.5733487,14.8327381 36.8488336,15.0931533 37.1751415,15.0931533 C37.3541821,15.0931533 37.524717,15.0130202 37.6896283,14.9341468 C38.3050583,14.6398588 38.9204884,14.3456408 39.5359184,14.0514228 C39.8260948,13.912572 40.1306114,13.7710619 40.4444772,13.8003157 C40.6471368,13.8191417 40.8443837,13.9092127 41.0472542,13.8941659 C41.4840654,13.8618327 41.7769834,13.3757851 42.1740078,13.1665292 C42.6021024,12.9409668 43.1077321,13.0574222 43.5685841,12.9415966 C44.3056942,12.7564856 44.8216573,12.0194009 45.4741326,11.5886417 C46.5087298,10.9057256 47.8828504,10.998526 48.7964002,10.1210509 C49.2563383,9.67916405 49.5380795,9.04229824 49.969478,8.56464889 C50.3259423,8.17000204 50.778851,7.89062091 51.0951068,7.45412288 C51.4114329,7.01755487 51.5452037,6.3174224 51.1990727,5.91101803 C51.0099097,5.68888483 50.7278874,5.61127119 50.4611893,5.54898431 C49.2223157,5.25980524 47.9648843,5.08750155 46.70914,4.9154778 C46.1616146,4.84038362 45.614019,4.76542941 45.0664937,4.69040522 C43.7382755,4.50844356 42.4068238,4.32627195 41.0691158,4.31311472 C40.7778146,4.31024532 40.486654,4.31542423 40.1955637,4.32564208" id="Fill-12" fill="#B27539"></path>
                <path d="M37.6472699,5.35944017 C37.80604,5.29495505 37.9699945,5.2442341 38.1299167,5.18305238 C38.2827104,5.12448585 38.4384563,5.06536876 38.6003226,5.05986309 C38.7186982,5.05587148 39.02947,5.08023406 39.1474855,5.07025504 C39.8026552,5.01471662 39.9388879,4.86172792 40.6757109,4.96124284 C40.9553047,4.9990943 41.6364681,5.05779847 42.1945756,5.30135539 C42.278749,5.33810571 42.4259264,5.44629206 42.498147,5.50595972 C42.6052898,5.59446331 42.8325363,5.63197066 42.9133254,5.9859162 C42.9728012,6.24660951 42.8894919,6.52849963 42.7396504,6.73860963 C42.6634695,6.84535074 42.5669114,6.93516193 42.4560963,6.99648129 C42.3213037,7.07108307 41.5518627,7.51153639 41.4692734,7.59274497 C40.8629228,8.18935276 40.473954,8.11034645 40.4201666,8.15157012 C40.3594667,8.19809301 38.3909333,8.65224167 37.4627222,8.62333692 C37.3233933,8.61900121 37.1824083,8.61081153 37.0495598,8.56497686 C36.9097989,8.51673346 36.36098,8.22176737 36.2320918,8.12170188 C35.828146,7.80829182 35.7537653,7.14912589 35.9580423,6.65698813 C36.1622473,6.16485036 36.580522,5.81737398 37.0162217,5.55963997 C37.0144936,5.55076208 37.0133415,5.55440959 37.021118,5.55117501 C37.1140039,5.51270416 37.5516478,5.39825512 37.6472699,5.35944017" id="Fill-14" fill="#E0A865"></path>
                <path d="M39.6372911,11.3322015 C39.6372911,11.3322015 39.2363772,11.9345704 39.2363772,12.7011361 C39.2363772,13.4677019 39.5570522,13.5225238 39.6372911,13.2486831 C39.7174739,12.9749096 40.1183317,11.8798157 40.158395,11.3322015 C40.1985144,10.7846546 39.6372911,11.3322015 39.6372911,11.3322015" id="Fill-16" fill="#E0A865"></path>
                <path d="M48.8364936,8.16233876 C48.8364936,8.16233876 48.186399,8.69164511 48.0440207,9.50503507 C47.9016424,10.3184977 48.3220303,10.4643529 48.4805095,10.1958136 C48.6390654,9.92734702 49.3807053,8.87512636 49.536271,8.30514324 C49.69176,7.73508749 48.8364936,8.16233876 48.8364936,8.16233876" id="Fill-18" fill="#E0A865"></path>
                <path d="M36.2489762,9.17603675 C36.2489762,9.17603675 35.8481183,9.77840566 35.8481183,10.5449714 C35.8481183,11.3115371 36.1687934,11.3663591 36.2489762,11.0925183 C36.3292151,10.8187449 36.7300168,9.72365097 36.7701363,9.17603675 C36.8102557,8.6284898 36.2489762,9.17603675 36.2489762,9.17603675" id="Fill-20" fill="#E0A865"></path>
                <path d="M9.92252759,15.7658121 C9.88836801,15.9366652 9.83626603,16.1015719 9.75945873,16.2512497 C9.63351685,16.4967241 9.4614768,16.9866579 9.52620747,17.7610084 C9.62482169,18.9416066 10.6848038,18.9120916 10.9313048,17.7610084 C11.1778058,16.6099252 11.0506908,14.9582481 10.5199407,14.9393934 C10.1519833,14.9262675 9.98981161,15.4291095 9.92252759,15.7658121" id="Fill-22" fill="#E0A865"></path>
                <path d="M29.07532,19.565976 C28.9662076,19.545327 28.8083893,19.5777754 28.7016029,19.6105048 C28.2853122,19.7379808 27.3952846,20.1161949 27.5491557,20.6230789 C27.7288247,21.2151577 29.4175299,20.0789705 29.378974,19.7950817 C29.3552907,19.62104 29.2079748,19.5910498 29.07532,19.565976" id="Fill-24" fill="#754116"></path>
                <path d="M13.9822373,24.8023676 C13.8730543,24.7817185 13.7153065,24.8142372 13.6084496,24.8469667 C13.1921589,24.9744429 12.3021313,25.3525872 12.4560024,25.859472 C12.6356714,26.4515516 14.3243766,25.315433 14.2858208,25.0314736 C14.2621374,24.8575019 14.114892,24.8275116 13.9822373,24.8023676" id="Fill-26" fill="#754116"></path>
                <path d="M51.0990052,12.3274229 C50.9898936,12.3067739 50.8320765,12.3392223 50.7252909,12.3719517 C50.3090034,12.4994277 49.4189121,12.8776418 49.5728525,13.3845258 C49.7525201,13.9766046 51.4412125,12.8404174 51.4026569,12.5565286 C51.3789737,12.3824869 51.231659,12.3524967 51.0990052,12.3274229" id="Fill-28" fill="#754116"></path>
                <path d="M11.5753731,2.57574145 C11.7285632,2.43584634 11.6856618,2.15238626 11.495439,2.15620291 C10.9380591,2.16721249 9.89041705,2.76650084 9.41641145,3.33914599 C9.29620681,3.48439909 9.37391486,3.72873845 9.53931428,3.69270042 C9.78053301,3.64007461 10.0704542,3.54135534 10.3422974,3.35661452 C10.7725923,3.06412658 11.1916896,2.9260664 11.5753731,2.57574145" id="Fill-30" fill="#E0A865"></path>
                <path d="M39.8438145,10.0132921 C39.8742333,9.87897366 39.8190384,9.67007614 39.7566107,9.70706127 C39.573739,9.81527704 39.3138202,10.4609949 39.2398508,10.9835051 C39.2210763,11.1159971 39.2822216,11.2888227 39.3317227,11.2315946 C39.4038967,11.1481878 39.4855605,11.0207946 39.5487577,10.8309223 C39.648837,10.5303991 39.7675368,10.3498112 39.8438145,10.0132921" id="Fill-32" fill="#E0A865"></path>
                <path d="M42.286939,4.88549234 C42.4116637,4.84859975 42.5226411,4.6076001 42.4446881,4.52097438 C42.2160517,4.2671342 41.524536,4.24097399 41.0753272,4.46415021 C40.9612778,4.52059108 40.8820193,4.74769612 40.9646571,4.79742925 C41.0853114,4.8699687 41.2462093,4.9295718 41.4389029,4.91356904 C41.7438795,4.88817544 41.9745127,4.97796338 42.286939,4.88549234" id="Fill-34" fill="#E0A865"></path>
                <path d="M48.5815422,6.27200284 C48.6632801,6.13218766 48.6403273,5.84874081 48.5389463,5.8524839 C48.2416389,5.86356636 47.6829284,6.46282671 47.4300876,7.0354451 C47.365978,7.18069143 47.4074945,7.42501937 47.4956363,7.38898302 C47.6242872,7.33635967 47.7789849,7.23757162 47.9238971,7.05291283 C48.1534253,6.76043855 48.3769095,6.62231143 48.5815422,6.27200284" id="Fill-36" fill="#E0A865"></path>
                <path d="M15.6681312,15.2546586 C15.4464884,15.8216425 14.6814465,15.815319 14.53212,16.3987156 C14.2669847,17.4349179 14.6339202,17.9169253 14.9135041,18.0016176 C15.8201715,18.2762993 17.7129368,15.2859919 17.0889337,14.4686255 C16.7561027,14.0325879 15.9007755,14.6593965 15.6681312,15.2546586" id="Fill-38" fill="#E0A865"></path>
                <path d="M10.143689,23.4047337 L9.52820916,24.1436487 C9.49967921,24.2174148 9.14628465,24.2344807 9.05699398,24.2923651 C8.78555573,24.4681082 8.57945376,24.5299631 8.51613611,24.6113217 C7.97527824,25.3059353 8.47778217,25.6148614 8.88520869,25.5596936 C10.4055051,25.3539286 10.680375,24.6203771 10.5678029,23.8586844 C10.5179427,23.5214082 10.5682739,23.3572977 10.4717834,23.2876413 C10.3826946,23.2233484 10.2651431,23.2610326 10.2014891,23.3586908 L10.143689,23.4047337 Z" id="Fill-40" fill="#B27539"></path>
                <path d="M24.6619536,18.1323716 C24.8304132,17.9063413 25.036013,17.7275347 25.2646465,17.6033351 C25.5511368,17.4476286 25.9064557,17.1584385 25.9761021,17.0800005 C26.5717758,16.4095123 26.2346521,16.2174743 25.8410345,16.3793944 C24.5384029,16.9152294 24.1060097,17.4554505 24.0208258,17.9841946 C23.9640593,18.3366175 23.9843671,18.5084064 24.0767064,18.5911574 C24.1620266,18.6676217 24.2833284,18.6404279 24.3545421,18.5448841 L24.6619536,18.1323716 Z" id="Fill-42" fill="#B27539"></path>
                <path d="M3.01981922,21.9430429 C2.74771742,22.1679947 2.58233457,22.5676754 2.58158908,22.9977202 C2.58015546,23.803656 2.70035048,24.4593303 3.01981922,24.8466078 C3.42954892,25.3431418 3.54985863,23.9396843 3.49199757,22.9766416 C3.46481606,22.5230104 3.42954892,21.6042937 3.01981922,21.9430429" id="Fill-44" fill="#B27539"></path>
                <g id="Group-48" transform="translate(0.271400, 13.399024)">
                    <mask id="mask-4" fill="white">
                        <use xlink:href="#path-3"></use>
                    </mask>
                    <g id="Clip-47"></g>
                    <path d="M0.43823011,0.0733736253 C0.1661212,0.29833002 0.000791381026,0.698019042 -1.14692902e-05,1.12807277 C-0.00144513057,1.93402532 0.118753031,2.58971322 0.43823011,2.97693103 C0.847970504,3.47347533 0.968283358,2.07005649 0.910420789,1.10692592 C0.883238571,0.653353099 0.847970504,-0.265382645 0.43823011,0.0733736253" id="Fill-46" fill="#B27539" mask="url(#mask-4)"></path>
                </g>
                <path d="M16.5530532,20.9496715 C16.38209,20.9942686 16.2131355,21.1748774 16.1063951,21.4257447 C15.9063057,21.8960066 15.7949899,22.3172312 15.8344944,22.6454089 C15.8851027,23.0660458 16.4617129,22.5169064 16.6755285,21.9359677 C16.7762427,21.6623774 16.8103907,20.8826124 16.5530532,20.9496715" id="Fill-49" fill="#B27539"></path>
                <path d="M26.2709872,1.96213282 C26.1648455,1.78358414 25.9428332,1.64697176 25.6851476,1.60062112 C25.2022741,1.51367013 24.7966928,1.51186954 24.5308321,1.65185077 C24.1900438,1.83138686 25.0184349,2.04966465 25.6017747,2.11971335 C25.8764862,2.15270477 26.4307739,2.23088516 26.2709872,1.96213282" id="Fill-51" fill="#B27539"></path>
                <path d="M18.416387,0.884013758 C18.3102454,0.705538683 18.0881655,0.56893817 17.8305474,0.522533489 C17.3476739,0.43559005 16.9420251,0.433789618 16.6762319,0.573758681 C16.3354436,0.753279168 17.1638348,0.971537982 17.7471745,1.04163867 C18.0218861,1.07462723 18.5761737,1.15280082 18.416387,0.884013758" id="Fill-53" fill="#B27539"></path>
                <path d="M9.44675592,1.04905016 C9.27847175,0.935739622 9.01877898,0.896277197 8.76112356,0.943851924 C8.27820639,1.03313958 7.90034798,1.16748977 7.70768366,1.37317589 C7.46062239,1.63700888 8.31603297,1.54154541 8.88574077,1.40457835 C9.15405827,1.34009863 9.69999711,1.21961786 9.44675592,1.04905016" id="Fill-55" fill="#B27539"></path>
                <path d="M38.9489829,14.174807 C38.7629521,14.220074 38.579047,14.4033954 38.4628613,14.6580968 C38.2450661,15.1353555 38.1239001,15.5629729 38.1669004,15.8960134 C38.2219869,16.3230343 38.6555729,15.5300334 38.8883088,14.9404357 C38.9979352,14.6626699 39.2291527,14.1067408 38.9489829,14.174807" id="Fill-57" fill="#B27539"></path>
                <path d="M41.3389311,6.16026699 C41.2129167,6.03241861 41.0316767,5.97952169 40.8603524,6.01960542 C40.5391767,6.09467028 40.29424,6.2221785 40.1828037,6.43359608 C40.0398473,6.70471403 40.614759,6.63855036 40.9905037,6.51614475 C41.1675411,6.4585421 41.5286421,6.35280497 41.3389311,6.16026699" id="Fill-59" fill="#A56825"></path>
                <path d="M37.5795021,5.85257289 C37.433041,5.85839014 37.300839,5.98606754 37.2299143,6.18876487 C37.0969172,6.56877512 37.0470897,6.92317435 37.1025361,7.22355622 C37.1851225,7.67118261 37.4629375,7.15858428 37.5997511,6.51498441 C37.6496316,6.28002777 37.8000153,5.84396033 37.5795021,5.85257289" id="Fill-61" fill="#A56825"></path>
                <path d="M47.8555178,11.3970158 C47.6614618,11.4030547 47.4860542,11.5227798 47.3916902,11.7124441 C47.2146,12.0680383 46.7071659,12.560702 46.7925562,12.8413715 C46.9019931,13.2013194 47.7010021,12.4607789 47.8807563,12.0156542 C47.9654455,11.8058368 48.1476535,11.3879574 47.8555178,11.3970158" id="Fill-63" fill="#B27539"></path>
                <path d="M25.6106945,5.10339713 C25.299293,5.04434741 24.9634705,5.11176365 24.6444115,5.2806154 C22.3943042,6.47163564 21.8049592,7.12159733 22.6861138,7.78117016 C23.3873537,8.30597966 26.3262144,5.86530435 25.9599003,5.29064141 C25.893743,5.18664754 25.7585309,5.13133165 25.6106945,5.10339713" id="Fill-65" fill="#E0A865"></path>
                <path d="M44.7711417,16.9576182 C44.3607365,17.2545399 43.915378,17.0150084 44.0286397,16.7675737 C44.1419014,16.5201389 45.1327231,16.1272831 45.345059,16.1752502 C45.5575534,16.2232172 46.1097536,16.3758121 45.7274063,16.5716321 C45.345059,16.7675737 44.7711417,16.9576182 44.7711417,16.9576182" id="Fill-67" fill="#754116"></path>
                <path d="M51.5477387,8.94900621 C51.1372543,9.24592791 50.6918957,9.00639648 50.8051574,8.75896174 C50.9184191,8.51152699 51.9092408,8.11867114 52.1215768,8.16663822 C52.3340712,8.2146053 52.8862715,8.36720019 52.5039241,8.56302017 C52.1215768,8.75896174 51.5477387,8.94900621 51.5477387,8.94900621" id="Fill-69" fill="#B27539"></path>
                <path d="M31.9882105,14.9554651 C31.5777138,15.252387 31.132342,15.0128554 31.2456863,14.7654205 C31.3589513,14.5180464 32.3497234,14.1251295 32.562145,14.1730966 C32.7745665,14.2210637 33.3267832,14.3736587 32.9444245,14.5695396 C32.562145,14.7654205 31.9882105,14.9554651 31.9882105,14.9554651" id="Fill-71" fill="#B27539"></path>
                <path d="M18.5024041,23.4544712 C18.4058005,23.2857984 18.4342402,23.0215967 18.5610446,22.9111696 C19.0777205,22.4614504 20.4357804,21.5411992 20.2806667,22.3358254 C20.1961304,22.7688496 19.0689147,23.4982677 18.6814567,23.5619785 C18.6140103,23.5730587 18.5474119,23.5331552 18.5024041,23.4544712" id="Fill-73" fill="#754116"></path>
                <path d="M41.170955,17.2721635 C41.0260122,17.0697661 41.068699,16.7527491 41.259005,16.6201851 C42.0340235,16.0805085 44.0710462,14.9762575 43.8383279,15.9297011 C43.7115716,16.4493399 42.0207096,17.3246508 41.4395659,17.4011386 C41.3383392,17.4144474 41.2385538,17.3665957 41.170955,17.2721635" id="Fill-75" fill="#754116"></path>
                <path d="M18.1151128,2.66567032 C18.4989073,2.59152442 18.9175148,2.70532675 19.2021308,2.96128509 C19.2772496,3.02897229 19.34587,3.1104811 19.363818,3.2074908 C19.4162697,3.49109239 19.0487987,3.66127918 18.7550539,3.73135609 C18.4158201,3.81228362 18.0619649,3.89366327 17.7201008,3.82378011 C17.378082,3.75383237 17.0541659,3.48353571 17.0587303,3.15091257 C17.0634494,2.80001131 17.4968331,2.52222255 17.8404766,2.64971732" id="Fill-77" fill="#E0A865"></path>
                <path d="M25.0456848,11.5984112 C25.4294666,11.5242674 25.8480602,11.6380666 26.1325894,11.8940178 C26.2077831,11.9616385 26.2763239,12.0432097 26.2943487,12.1401521 C26.3467986,12.4238104 25.9792624,12.5939924 25.6855274,12.6640674 C25.3463822,12.7449927 24.9925386,12.8263701 24.6506085,12.7564243 C24.3086783,12.6865431 23.9846956,12.4162539 23.9892599,12.08364 C23.9940562,11.7327485 24.4274256,11.4549029 24.7710576,11.5823941" id="Fill-79" fill="#E0A865"></path>
                <path d="M20.9235717,15.769047 C20.2871786,15.4805075 20.1003463,14.6385047 20.5111333,14.0584902 C20.9023179,13.5061358 21.439766,13.1442057 21.8112047,13.6189944 C22.4659795,14.4557783 22.1226159,16.2292227 20.9884819,15.79612 C20.9662947,15.7876393 20.9446101,15.7785715 20.9235717,15.769047" id="Fill-81" fill="#E0A865"></path>
                <path d="M19.9994689,11.1486311 C19.3631431,10.8601583 19.1762376,10.0180943 19.5870993,9.43814788 C19.9782868,8.88573095 20.5156669,8.52386784 20.8871801,8.99865415 C21.5418877,9.8353688 21.1985217,11.6088698 20.0644514,11.1757692 C20.0421922,11.1672886 20.0205793,11.1582208 19.9994689,11.1486311" id="Fill-83" fill="#E0A865"></path>
                <path d="M12.224133,18.121027 C11.5237237,17.8474792 11.2978187,17.0157159 11.7448341,16.4432409 C12.2133452,15.8430972 12.8865851,15.4115824 13.2125371,15.9640417 C13.6407737,16.6899049 13.093951,18.4060871 12.2968509,18.146995 C12.2719989,18.1388841 12.2477064,18.1302499 12.224133,18.121027" id="Fill-85" fill="#E0A865"></path>
                <path d="M11.3000752,21.663363 C10.5996532,21.3898149 10.3737442,20.5580509 10.8207676,19.9855754 C11.2892871,19.3853657 11.9625392,18.9538506 12.2884971,19.5063104 C12.7166615,20.2321742 12.1699089,21.9483579 11.3727944,21.6892657 C11.347942,21.6812202 11.323649,21.6725859 11.3000752,21.663363" id="Fill-87" fill="#E0A865"></path>
                <path d="M30.7055966,13.3467267 C30.0050971,13.0731787 29.7792687,12.241415 30.2262107,11.6689397 C30.6948086,11.0687302 31.3680585,10.6372152 31.6939354,11.1896748 C32.1221783,11.9156038 31.5754275,13.6317215 30.7783156,13.3726293 C30.7534633,13.3645838 30.7291704,13.3559496 30.7055966,13.3467267" id="Fill-89" fill="#E0A865"></path>
                <path d="M17.306495,12.2685807 C16.6060767,11.9950377 16.3802487,11.1632889 16.8271899,10.5908239 C17.295707,9.99062526 17.9690356,9.55911799 18.2949119,10.1116331 C18.7231539,10.8374836 18.1764041,12.5536358 17.3792937,12.2945483 C17.3543616,12.2864375 17.3301486,12.2778035 17.306495,12.2685807" id="Fill-91" fill="#E0A865"></path>
                <path d="M2.98342689,17.3509687 C2.28301759,17.0774242 2.05711262,16.2456707 2.50412798,15.6732025 C2.97263907,15.0730658 3.64587903,14.6414907 3.97183106,15.1940089 C4.40006762,15.9198636 3.85324493,17.6360255 3.05614479,17.3769365 C3.03129285,17.3688257 3.00700027,17.3601916 2.98342689,17.3509687" id="Fill-93" fill="#E0A865"></path>
                <path d="M1.44328288,21.9713865 C0.742864583,21.6978385 0.51703662,20.8660745 0.963977808,20.293599 C1.43257483,19.6933893 2.10582344,19.2618741 2.43169975,19.8143339 C2.8599418,20.5401978 2.31319201,22.2563815 1.51608163,21.9972892 C1.49122937,21.9892437 1.46693648,21.9806095 1.44328288,21.9713865" id="Fill-95" fill="#B27539"></path>
                <path d="M3.29145042,30.4452237 C2.59104113,30.1888209 2.36513616,29.4089662 2.81215151,28.8722743 C3.2806626,28.3096488 3.95390257,27.9051507 4.2798546,28.4230747 C4.70809115,29.1035623 4.16126847,30.7124776 3.36416833,30.4695877 C3.33931639,30.4620123 3.31502381,30.453891 3.29145042,30.4452237" id="Fill-97" fill="#754116"></path>
                <path d="M4.52351824,33.9875488 C3.82309995,33.7310751 3.59727198,32.9512803 4.04421317,32.4145827 C4.51281019,31.8519511 5.18605881,31.4473805 5.51193511,31.9653783 C5.94017717,32.6458731 5.39342737,34.2548057 4.59631699,34.0118449 C4.57138482,34.0042695 4.54717184,33.996148 4.52351824,33.9875488" id="Fill-99" fill="#754116"></path>
                <path d="M10.7554187,28.5971363 C10.2884598,28.3407275 10.1378905,27.5608541 10.4358627,27.0241495 C10.7483103,26.4615105 11.1971103,26.0570029 11.4143696,26.5749392 C11.6998051,27.255443 11.3353369,28.8643967 10.8039498,28.6214327 C10.787342,28.6139254 10.7711218,28.6058039 10.7554187,28.5971363" id="Fill-101" fill="#754116"></path>
                <path d="M16.408465,25.5114997 C16.1105015,24.989613 16.3947765,24.261287 16.9671741,24.0318951 C17.5672444,23.7913949 18.2089719,23.7701822 18.1301711,24.3332898 C18.0264351,25.0729248 16.8065387,26.1185718 16.4407252,25.5638958 C16.4291826,25.5465642 16.4185278,25.5291658 16.408465,25.5114997" id="Fill-103" fill="#754116"></path>
                <path d="M34.7246761,19.1892096 C34.2296604,18.4147234 34.4643959,17.4991683 35.176657,17.324523 C35.9232079,17.141603 36.7674119,17.2643718 36.772189,18.0054407 C36.7784583,18.9791578 35.3685111,20.1022981 34.7773765,19.2675016 C34.7589659,19.2414043 34.7413991,19.2153069 34.7246761,19.1892096" id="Fill-105" fill="#754116"></path>
                <path d="M22.4149239,28.1297039 C22.1169605,27.6077596 22.4012355,26.8795134 22.9736331,26.6501256 C23.5737034,26.4095628 24.2154309,26.3884173 24.13663,26.9514481 C24.0329681,27.6911368 22.8129977,28.7367653 22.4471842,28.1820991 C22.4357155,28.1647009 22.4249867,28.1473028 22.4149239,28.1297039" id="Fill-107" fill="#663510"></path>
                <path d="M30.1155123,24.4334523 C29.8175489,23.9114982 30.1018239,23.1832383 30.6742215,22.9538462 C31.2742918,22.7132788 31.9160193,22.692133 31.8372184,23.2551743 C31.7335565,23.994877 30.5135861,25.0405251 30.1477726,24.4857816 C30.1363039,24.46845 30.1255752,24.4510515 30.1155123,24.4334523" id="Fill-109" fill="#663510"></path>
                <path d="M49.3670174,16.8868448 C49.0689751,16.3649005 49.3533288,15.6366543 49.9257358,15.4072665 C50.5257422,15.1667037 51.1675543,15.1455583 51.0886782,15.708589 C50.9850145,16.4482778 49.7650978,17.4939062 49.3992042,16.93924 C49.3877354,16.9219088 49.3770804,16.9044437 49.3670174,16.8868448" id="Fill-111" fill="#BC8346"></path>
                <path d="M40.624307,20.0501853 C40.5845149,19.4220188 41.2021299,18.8843456 41.8608927,18.9486856 C42.5514731,19.0162251 43.1784182,19.3071807 42.8363974,19.7910866 C42.3871214,20.4268348 40.7199995,20.8057796 40.6304473,20.1143861 C40.6276563,20.092754 40.6256627,20.0714001 40.624307,20.0501853" id="Fill-113" fill="#BC8346"></path>
                <path d="M22.3269981,22.8624934 C21.9546203,22.2382662 22.1669208,21.3326079 22.7382976,21.0234798 C23.3373914,20.6993162 24.0056139,20.64162 23.9889051,21.3348381 C23.9668888,22.2456041 22.8139133,23.5859985 22.3667717,22.9250097 C22.3528149,22.9043627 22.3395133,22.8835 22.3269981,22.8624934" id="Fill-115" fill="#BC8346"></path>
                <path d="M30.7976451,20.2443012 C30.4252678,19.6200786 30.6375681,18.714427 31.2089441,18.4053012 C31.8081026,18.0811399 32.4763243,18.0233722 32.45955,18.7166571 C32.4375336,19.6273445 31.2845597,20.9678009 30.8374186,20.306817 C30.8235274,20.2861702 30.8102258,20.2653077 30.7976451,20.2443012" id="Fill-117" fill="#754116"></path>
                <path d="M37.4201513,18.3961644 C37.0477736,17.7718814 37.2600741,16.8663186 37.8314509,16.5571266 C38.4305447,16.2329714 39.0987672,16.1752766 39.0820584,16.8685487 C39.060042,17.7792192 37.9070666,19.1196507 37.4599249,18.458679 C37.4459681,18.4380327 37.4326666,18.4171705 37.4201513,18.3961644" id="Fill-119" fill="#754116"></path>
                <path d="M30.2897084,6.19991647 C30.3974941,6.86391195 29.8705896,7.52238967 29.1127975,7.67067992 C28.3550054,7.81903915 27.6533248,7.40099857 27.5454676,6.73707206 C27.4376819,6.07307657 27.964658,5.41459886 28.7224501,5.2663086 C29.4801706,5.11794937 30.1819227,5.53598995 30.2897084,6.19991647" id="Fill-121" fill="#BC8346"></path>
                <path d="M26.1571844,13.8482885 C26.463576,14.2743288 26.2585136,15.0045845 25.6991269,15.4793826 C25.1396673,15.9542502 24.4377932,15.9939787 24.1314016,15.5679384 C23.8250101,15.1419675 24.0301453,14.4116425 24.5894592,13.9367749 C25.1489188,13.4619767 25.8507929,13.4223176 26.1571844,13.8482885" id="Fill-123" fill="#E0A865"></path>
                <path d="M19.6336203,5.37520887 C20.0497894,6.00834461 19.786029,7.08013237 19.0444449,7.76893791 C18.3027916,8.45781555 17.3642167,8.50295712 16.9479785,7.86974927 C16.5317403,7.23654142 16.7955006,6.16482577 17.5371539,5.47602024 C18.278738,4.7872147 19.2174512,4.74207313 19.6336203,5.37520887" id="Fill-125" fill="#A56825"></path>
                <path d="M9.01734658,20.8998454 C9.377331,21.446821 9.20115391,22.3243955 8.62384354,22.8600127 C8.04646504,23.3956299 7.28664174,23.3864013 6.92665731,22.8394967 C6.56660476,22.2925212 6.74284997,21.4149466 7.32022847,20.8793294 C7.89753885,20.3437122 8.65743028,20.3529409 9.01734658,20.8998454" id="Fill-127" fill="#E0A865"></path>
                <path d="M6.09112298,23.9801352 C6.45110741,24.5271001 6.27493032,25.4046575 5.69761994,25.9402643 C5.12024144,26.4758711 4.36041814,26.4666426 4.00043372,25.9196777 C3.64038116,25.3727128 3.81662638,24.4951553 4.39400488,23.9595486 C4.97131526,23.4239418 5.73120668,23.4331703 6.09112298,23.9801352" id="Fill-129" fill="#B27539"></path>
                <path d="M14.2537467,22.4400175 C14.6137311,22.9869824 14.437554,23.8645398 13.8602437,24.4001466 C13.2828652,24.9357534 12.5230419,24.9265249 12.1630574,24.37956 C11.8030049,23.8325951 11.9792501,22.9550377 12.5566286,22.4194309 C13.133939,21.8838241 13.8938304,21.8930526 14.2537467,22.4400175" id="Fill-131" fill="#B27539"></path>
                <path d="M21.0972779,18.4807347 C21.3483121,18.9140185 21.1917609,19.6448493 20.7474868,20.1130791 C20.3032784,20.5812311 19.7396677,20.6095615 19.4885677,20.176122 C19.2375335,19.7428382 19.3941504,19.0120074 19.8383588,18.5438554 C20.2825671,18.0757034 20.8462436,18.0474508 21.0972779,18.4807347" id="Fill-133" fill="#E0A865"></path>
                <path d="M21.6785533,1.4286518 C21.6621434,1.68272192 21.2353231,1.86959845 20.7253159,1.84615602 C20.2151462,1.82265333 19.8149717,1.59769039 19.8313816,1.34362027 C19.8477103,1.08948989 20.2745306,0.90261337 20.7845378,0.926055797 C21.2946263,0.949558488 21.694882,1.17458169 21.6785533,1.4286518" id="Fill-135" fill="#B27539"></path>
                <path d="M40.0021637,3.71651897 C40.046571,3.96071176 39.7397509,4.21853282 39.3168569,4.29243096 C38.8938946,4.36627034 38.514998,4.22822534 38.4705907,3.98403255 C38.4261835,3.73978102 38.7330036,3.4820187 39.1558976,3.40817931 C39.5789282,3.33428118 39.9577565,3.47238492 40.0021637,3.71651897" id="Fill-137" fill="#B27539"></path>
                <path d="M45.8584009,3.892784 C45.841991,4.14691186 45.4152519,4.33378653 44.9051635,4.31034434 C44.3949938,4.28684188 43.9948193,4.06182091 44.0112292,3.80775331 C44.0275579,3.55368571 44.4543782,3.36675077 44.9643854,3.39025323 C45.4744739,3.41375569 45.8747296,3.6387164 45.8584009,3.892784" id="Fill-139" fill="#B27539"></path>
                <path d="M51.4028246,4.8168546 C51.3864147,5.07098247 50.9596756,5.25785714 50.4495871,5.23441495 C49.9394175,5.21091249 49.539243,4.98589152 49.5556529,4.73182392 C49.5719816,4.47775631 49.9988019,4.29082138 50.5088091,4.31432384 C51.0188975,4.33782629 51.4191532,4.562787 51.4028246,4.8168546" id="Fill-141" fill="#B27539"></path>
                <g id="Group-145" transform="translate(11.206235, 0.154012)">
                    <mask id="mask-6" fill="white">
                        <use xlink:href="#path-5"></use>
                    </mask>
                    <g id="Clip-144"></g>
                    <path d="M1.84765886,0.504520092 C1.83124895,0.758591057 1.40450988,0.94552847 0.894421438,0.922085964 C0.384251758,0.898583195 -0.0159227388,0.673559242 0.000487177677,0.419488278 C0.0168158569,0.165417313 0.443636159,-0.0215201 0.953643364,0.00198266953 C1.46373181,0.025485439 1.86398754,0.250449128 1.84765886,0.504520092" id="Fill-143" fill="#B27539" mask="url(#mask-6)"></path>
                </g>
                <path d="M3.24358629,7.22224809 C3.59967376,7.52406359 3.59187831,8.22419243 3.22627896,8.78605783 C2.86067962,9.34799487 2.27559193,9.55882872 1.91950446,9.25701322 C1.56348851,8.95519773 1.57128396,8.25506888 1.93688331,7.69313184 C2.30255417,7.13126645 2.88757034,6.9204326 3.24358629,7.22224809" id="Fill-146" fill="#B27539"></path>
                <path d="M5.85792693,2.29661346 C6.21618451,2.6012491 6.21188041,3.30244579 5.84845792,3.86280551 C5.48495716,4.42316522 4.89991268,4.6305282 4.5416551,4.32589256 C4.18339752,4.02125693 4.18762337,3.32006024 4.55112412,2.75970052 C4.91454662,2.19934081 5.49966936,1.99197783 5.85792693,2.29661346" id="Fill-148" fill="#B27539"></path>
                <path d="M31.1080406,8.46996973 C31.3590748,8.90325355 31.2025236,9.63408434 30.7583152,10.1023142 C30.3140411,10.5704662 29.7504304,10.5987966 29.4993304,10.1653571 C29.2482962,9.73207326 29.4049131,9.00124247 29.8491872,8.53309047 C30.2933298,8.06493848 30.8570063,8.03668591 31.1080406,8.46996973" id="Fill-150" fill="#BC8346"></path>
                <path d="M36.6170049,15.7868259 C36.6424731,16.1243956 36.2498952,16.432275 35.7402247,16.4744185 C35.2304777,16.5167026 34.7966,16.27728 34.7712083,15.9397102 C34.7457401,15.6021404 35.1383179,15.2942611 35.6479884,15.2519769 C36.1577354,15.2098334 36.5916131,15.4491857 36.6170049,15.7868259" id="Fill-152" fill="#B27539"></path>
                <path d="M33.0747342,5.0059456 C33.1002024,5.34351537 32.7076246,5.65139475 32.1979541,5.69360856 C31.6882071,5.73582237 31.2543294,5.49647007 31.2289376,5.15882995 C31.2034694,4.82126018 31.5960472,4.51338079 32.1057178,4.47116698 C32.6154648,4.42895317 33.0493424,4.66837583 33.0747342,5.0059456" id="Fill-154" fill="#B27539"></path>
                <path d="M41.853405,14.5546691 C41.8788732,14.8923055 41.4862954,15.2001814 40.9766248,15.2423244 C40.4668778,15.2846081 40.0330002,15.0451881 40.0076084,14.7076221 C39.9821402,14.3700562 40.374718,14.0621099 40.884465,14.0198966 C41.3941355,13.9776832 41.8280132,14.2171032 41.853405,14.5546691" id="Fill-156" fill="#B27539"></path>
                <path d="M45.8577178,13.1686258 C45.8831086,13.5061956 45.4905456,13.814075 44.9808943,13.8562184 C44.4711665,13.8985026 44.0373816,13.6590799 44.0119143,13.3215102 C43.9864471,12.9839404 44.3790101,12.676061 44.8887379,12.6337768 C45.3983892,12.5916334 45.8322506,12.8309857 45.8577178,13.1686258" id="Fill-158" fill="#BC8346"></path>
                <path d="M31.3380013,15.8103279 C31.7585892,16.3623301 31.4565186,16.8685839 30.9182723,17.2997851 C30.380026,17.7311268 29.8094568,17.9242398 29.3888689,17.3723078 C28.968281,16.8203057 29.4318099,16.1610654 29.9700562,15.7297939 C30.5083025,15.2984521 30.9174134,15.258396 31.3380013,15.8103279" id="Fill-160" fill="#B27539"></path>
                <path d="M30.2154718,3.48772963 C29.9853556,4.09767563 29.4440604,4.09203466 28.8479929,3.85649148 C28.2519985,3.62094829 27.8268933,3.24470888 28.0570826,2.63476288 C28.2872718,2.02481688 29.0258199,2.08981919 29.6218144,2.32529679 C30.2178818,2.56083997 30.445588,2.87778363 30.2154718,3.48772963" id="Fill-162" fill="#B27539"></path>
                <path d="M37.8033349,13.1652925 C37.9827313,13.7038842 37.6321361,14.4175931 37.0201018,14.7592836 C36.4080676,15.100974 35.766563,14.9414056 35.5870312,14.402814 C35.4076348,13.8642223 35.7582301,13.1505904 36.3702643,12.8088229 C36.9822985,12.4671325 37.6238708,12.6267009 37.8033349,13.1652925" id="Fill-164" fill="#E0A865"></path>
                <path d="M43.5387002,10.8028356 C43.8662008,11.2492481 43.6879099,11.9806236 43.1405963,12.4362978 C42.5931241,12.8918978 41.8840016,12.8994553 41.5565009,12.4529688 C41.2290794,12.0064822 41.4073704,11.2751808 41.9547633,10.8195066 C42.5020769,10.3638325 43.2112787,10.3563491 43.5387002,10.8028356" id="Fill-166" fill="#E0A865"></path>
                <path d="M45.2161074,5.77437058 C45.3374566,6.23789306 45.0341555,6.78653586 44.5385749,6.99978041 C44.0429942,7.21302495 43.5428236,7.01002712 43.4214745,6.54650464 C43.2999819,6.08298215 43.6033547,5.53433936 44.0989353,5.32117549 C44.594516,5.10793095 45.0946866,5.3108481 45.2161074,5.77437058" id="Fill-168" fill="#BC8346"></path>
                <path d="M12.4709172,29.6649427 C12.7236032,30.0132457 12.5691668,30.5979571 12.1259244,30.9709878 C11.6826819,31.3440186 11.1184218,31.364005 10.8656586,31.0157019 C10.6128954,30.667326 10.767409,30.0826145 11.2106514,29.7095838 C11.6538939,29.336626 12.2182312,29.3166396 12.4709172,29.6649427" id="Fill-170" fill="#BC8346"></path>
                <path d="M8.83786011,32.3201736 C8.99974772,32.557962 8.81232774,33.0365722 8.41921124,33.3890836 C8.02602629,33.741595 7.57602666,33.8346696 7.41413905,33.5968813 C7.25225145,33.359024 7.43967143,32.8805516 7.83285638,32.5279713 C8.22604133,32.1753909 8.67597251,32.0823853 8.83786011,32.3201736" id="Fill-172" fill="#663510"></path>
                <path d="M15.5511183,27.8168014 C15.8038815,28.1651045 15.6493679,28.7498159 15.2061254,29.1228466 C14.762883,29.4958773 14.1986229,29.5158637 13.9458597,29.1675607 C13.6931736,28.8191847 13.84761,28.2344733 14.2908525,27.8614426 C14.7341721,27.4884848 15.2984322,27.4684984 15.5511183,27.8168014" id="Fill-174" fill="#663510"></path>
                <path d="M28.026056,23.5044768 C28.2788169,23.8527138 28.1243819,24.4375097 27.6810663,24.8104749 C27.2378278,25.1835859 26.6736499,25.2034997 26.4208118,24.8552628 C26.168128,24.5068799 26.322563,23.922157 26.7658015,23.5491189 C27.2091172,23.1761537 27.7733722,23.1561669 28.026056,23.5044768" id="Fill-176" fill="#663510"></path>
                <path d="M39.5769541,20.2701932 C39.8297173,20.6185031 39.6752037,21.2032991 39.2319613,21.5762642 C38.7887188,21.9493023 38.2244587,21.9692891 37.9716955,21.6209792 C37.7190095,21.2726693 37.8734459,20.6879463 38.3166883,20.3149082 C38.7599308,19.9418701 39.3242681,19.9219563 39.5769541,20.2701932" id="Fill-178" fill="#663510"></path>
                <path d="M46.9695035,18.4220885 C47.2222644,18.7703984 47.0678294,19.3551214 46.6245137,19.7280865 C46.1812752,20.1011975 45.6170974,20.1211114 45.3642593,19.7728744 C45.1115755,19.4244916 45.2660105,18.8397686 45.709249,18.4667305 C46.1525647,18.0937654 46.7168197,18.0737786 46.9695035,18.4220885" id="Fill-180" fill="#663510"></path>
                <path d="M20.0174938,26.8926993 C20.2701799,27.2410092 20.1157435,27.8258051 19.672501,28.1987702 C19.2292585,28.5718083 18.6649984,28.5917951 18.4122352,28.2434852 C18.159472,27.8951753 18.3139856,27.3104523 18.7572281,26.9374142 C19.2004705,26.5643762 19.7647306,26.5444623 20.0174938,26.8926993" id="Fill-182" fill="#BC8346"></path>
                <path d="M50.9653799,10.272804 C51.2261262,10.628904 51.0820296,11.2139058 50.6433889,11.5795064 C50.2048212,11.9451752 49.6378512,11.9528987 49.3770319,11.5968671 C49.1162856,11.2407671 49.2604553,10.6558336 49.69895,10.2901647 C50.1375907,9.92449583 50.7045606,9.91677236 50.9653799,10.272804" id="Fill-184" fill="#B27539"></path>
                <path d="M54.0880505,6.69009994 C54.284694,7.02161861 54.1386338,7.60484442 53.7615834,7.99283275 C53.3846024,8.38082109 52.919569,8.42662249 52.7228561,8.09510382 C52.5262126,7.76358515 52.6723421,7.18019892 53.0493232,6.79221058 C53.4263042,6.40430246 53.8913376,6.35850106 54.0880505,6.69009994" id="Fill-186" fill="#B27539"></path>
                <path d="M48.5097119,13.8130831 C48.7940738,14.216357 48.5617728,14.9439328 47.9908483,15.4382829 C47.4199996,15.9325591 46.7266636,16.0063648 46.4423017,15.6031646 C46.1579399,15.1998907 46.3902408,14.4723149 46.9611654,13.9779648 C47.5320141,13.4836886 48.2253501,13.409883 48.5097119,13.8130831" id="Fill-188" fill="#754116"></path>
                <path d="M8.70934376,28.6004339 C9.06932547,29.1474094 8.89308158,30.0249839 8.31577556,30.5606011 C7.73840142,31.0962183 6.97858386,31.0869897 6.61860215,30.5400851 C6.25862044,29.9931096 6.4347962,29.115535 7.01217034,28.5799178 C7.58954449,28.0443006 8.34936205,28.0535293 8.70934376,28.6004339" id="Fill-190" fill="#754116"></path>
                <path d="M7.3386373,9.2739408 C7.67278152,9.7266464 7.50321351,10.4580114 6.95979717,10.9075058 C6.41645763,11.3569289 5.70516282,11.3542886 5.3710954,10.9016543 C5.03695119,10.4489487 5.2065192,9.71758372 5.74985874,9.26808931 C6.29319828,8.81859489 7.00449309,8.8212352 7.3386373,9.2739408" id="Fill-192" fill="#A56825"></path>
                <path d="M20.6163582,13.8971718 C20.8851037,14.3514381 20.7511751,15.0827965 20.3173422,15.5306445 C19.8835093,15.9785718 19.3140395,15.9733422 19.0454307,15.5190759 C18.7766853,15.0647304 18.9106138,14.3334513 19.3444467,13.8856032 C19.7782113,13.4376759 20.3476811,13.4429055 20.6163582,13.8971718" id="Fill-194" fill="#EFBD7B"></path>
                <path d="M21.0784244,12.6650408 C21.3471004,13.1192973 21.2132407,13.8507191 20.7794096,14.2985575 C20.3455785,14.7464752 19.7761111,14.7412456 19.5074351,14.2869892 C19.2387591,13.8326535 19.3726188,13.1013109 19.8064499,12.6534724 C20.2402127,12.2055548 20.8097484,12.2108636 21.0784244,12.6650408" id="Fill-196" fill="#EFBD7B"></path>
                <path d="M9.37353003,15.5913013 C9.64220603,16.0455675 9.50834634,16.7769259 9.07451524,17.224774 C8.64068413,17.6727013 8.07121674,17.6674716 7.80254074,17.2132054 C7.53386474,16.7588599 7.66772442,16.0275807 8.10155553,15.5797326 C8.53531831,15.1318053 9.10485403,15.137035 9.37353003,15.5913013" id="Fill-198" fill="#EFBD7B"></path>
                <path d="M26.1608128,8.04475014 C26.4294888,8.49901051 26.2956291,9.2303594 25.861798,9.67820165 C25.4279669,10.1261231 24.8584311,10.1208935 24.5898235,9.66663318 C24.3211475,9.21229358 24.4550072,8.48094469 24.8888383,8.03318168 C25.322601,7.58518096 25.8920684,7.59048978 26.1608128,8.04475014" id="Fill-200" fill="#EFBD7B"></path>
                <path d="M28.3169759,12.0490188 C28.585655,12.5032695 28.4517938,13.234682 28.0179576,13.6825147 C27.5841214,14.1304266 27.0146473,14.1251972 26.7460364,13.6709465 C26.477289,13.2166166 26.6111502,12.4852833 27.0450548,12.0374506 C27.4788226,11.5895386 28.0482967,11.5947681 28.3169759,12.0490188" id="Fill-202" fill="#BC8346"></path>
                <path d="M14.4558875,19.1335719 C14.7246329,19.5878382 14.5907044,20.3191966 14.1568714,20.7670446 C13.7230385,21.2149719 13.1535688,21.2097423 12.88496,20.755476 C12.6162145,20.3011305 12.7501431,19.5698514 13.183976,19.1220033 C13.6177406,18.674076 14.1872104,18.6793057 14.4558875,19.1335719" id="Fill-204" fill="#EFBD7B"></path>
                <path d="M6.6013182,27.9122769 C6.8699942,28.3665353 6.73613452,29.0978809 6.30230341,29.5457212 C5.8684723,29.9936407 5.29893658,29.9884112 5.03032891,29.5341528 C4.76165291,29.0798152 4.8955126,28.3484695 5.32934371,27.9006292 C5.76310648,27.4527097 6.33257387,27.4580185 6.6013182,27.9122769" id="Fill-206" fill="#EFBD7B"></path>
                <path d="M4.75314731,11.4329775 C5.02189039,11.8872359 4.887963,12.6186608 4.45413391,13.0665011 C4.02030481,13.5144206 3.45084006,13.5091118 3.18223364,13.0548534 C2.91349056,12.6005951 3.04734962,11.8692494 3.48124705,11.4214091 C3.91500781,10.9734896 4.48447256,10.9787192 4.75314731,11.4329775" id="Fill-208" fill="#EFBD7B"></path>
                <path d="M15.2259463,13.8971718 C15.4946918,14.3514381 15.3607632,15.0827965 14.9269303,15.5306445 C14.4930974,15.9785718 13.9236276,15.9733422 13.6550188,15.5190759 C13.3862734,15.0647304 13.5202019,14.3334513 13.9540349,13.8856032 C14.3877994,13.4376759 14.9572692,13.4429055 15.2259463,13.8971718" id="Fill-210" fill="#EFBD7B"></path>
                <path d="M19.5383067,12.6651119 C19.8069827,13.1193702 19.673123,13.8507159 19.2392919,14.2985562 C18.8053925,14.7464757 18.2359251,14.7412461 17.9673174,14.2869877 C17.6986414,13.8326501 17.8325011,13.1013045 18.2663322,12.6534642 C18.700095,12.2055447 19.2695624,12.2108535 19.5383067,12.6651119" id="Fill-212" fill="#EFBD7B"></path>
                <path d="M10.63619,7.83829846 C10.992272,8.14012118 10.9844052,8.84026679 10.6188114,9.40214564 C10.2532176,9.96409613 9.66813889,10.1748634 9.31205686,9.87304066 C8.95604634,9.57121794 8.96384167,8.87107233 9.32950695,8.30919349 C9.69510071,7.74731464 10.2801079,7.53647574 10.63619,7.83829846" id="Fill-214" fill="#EFBD7B"></path>
                <path d="M10.0891161,6.93100018 C10.3707338,7.21342132 10.3407273,7.78688773 10.0220607,8.21187909 C9.70339409,8.63694815 9.21678263,8.75255823 8.93508841,8.47021479 C8.65347073,8.18787135 8.68347729,7.61432725 9.00222043,7.18925819 C9.32088702,6.76426683 9.80749847,6.64857905 10.0891161,6.93100018" id="Fill-216" fill="#EFBD7B"></path>
                <path d="M10.7051974,5.39088088 C10.9868143,5.67329904 10.9567313,6.24675942 10.6380656,6.67174632 C10.3194,7.09681091 9.83278999,7.21241977 9.55117316,6.930157 C9.26947978,6.64773883 9.29956279,6.07420076 9.61822843,5.64913617 C9.93689406,5.22414927 10.4235041,5.10846271 10.7051974,5.39088088" id="Fill-218" fill="#EFBD7B"></path>
                <path d="M15.3156651,6.2091991 C15.4644589,6.5679663 15.2621858,7.04392453 14.8639148,7.27211975 C14.4656439,7.5003869 14.0220515,7.39463439 13.8732577,7.03579526 C13.7246033,6.67702807 13.9268067,6.20114177 14.3251474,5.97287462 C14.7234183,5.74460746 15.166941,5.85043191 15.3156651,6.2091991" id="Fill-220" fill="#EFBD7B"></path>
                <path d="M13.9393801,5.69889955 C14.2210735,5.98130881 14.1909905,6.5548288 13.8723248,6.9798023 C13.5536592,7.40485349 13.0670492,7.52045871 12.7853558,7.23812714 C12.503739,6.95571788 12.533822,6.38219788 12.8524876,5.95714669 C13.1711533,5.5321732 13.6577633,5.41649028 13.9393801,5.69889955" id="Fill-222" fill="#EFBD7B"></path>
                <path d="M13.1595101,5.28518433 C13.3083012,5.6439564 13.105962,6.11984918 12.7076983,6.3480475 C12.3094347,6.57631776 11.8659201,6.47056381 11.717129,6.11171979 C11.5684077,5.75294772 11.7706074,5.27705494 12.1689408,5.04878468 C12.5672044,4.82051442 13.010719,4.92641225 13.1595101,5.28518433" id="Fill-224" fill="#EFBD7B"></path>
                <path d="M12.6924696,8.73127417 C12.8844892,9.28067933 12.5470338,9.98873143 11.9388098,10.3126356 C11.3305859,10.6365398 10.6819477,10.4536301 10.4900667,9.90414978 C10.2980471,9.3546695 10.6354332,8.64669251 11.2436571,8.32278835 C11.8518811,7.99888418 12.5004499,8.18179389 12.6924696,8.73127417" id="Fill-226" fill="#EFBD7B"></path>
                <path d="M14.5406429,7.653171 C14.7325928,8.20265253 14.3951381,8.91063113 13.7869847,9.23453603 C13.1787621,9.55844093 12.5301252,9.37560593 12.3381753,8.82604928 C12.1462254,8.27656775 12.4836108,7.56858916 13.0918335,7.24475937 C13.6999869,6.92077935 14.3486237,7.10368947 14.5406429,7.653171" id="Fill-228" fill="#EFBD7B"></path>
                <path d="M13.1158872,5.89349461 C13.6248605,6.59344687 13.3203539,7.76317711 12.4357458,8.50600297 C11.5512096,9.24882882 10.4215002,9.2836297 9.91259883,8.58360961 C9.40369743,7.88358952 9.70813209,6.71392711 10.5927402,5.97110126 C11.4772764,5.22820757 12.6069858,5.19354236 13.1158872,5.89349461" id="Fill-230" fill="#EFBD7B"></path>
                <path d="M15.872555,16.0009222 C16.2286374,16.3027449 16.2208421,17.0028905 15.8552479,17.5647693 C15.4896538,18.1267198 14.9045745,18.3374871 14.5484921,18.0356644 C14.1924812,17.7338417 14.200205,17.0337677 14.5658707,16.4718172 C14.9314648,15.9099383 15.5164726,15.6990995 15.872555,16.0009222" id="Fill-232" fill="#EFBD7B"></path>
                <path d="M13.9394113,15.4016474 C14.2210276,15.6840686 14.1910212,16.257535 13.8723561,16.6825263 C13.5536145,17.1075954 13.0670054,17.2232055 12.7853891,16.940862 C12.5037728,16.6585186 12.5337792,16.0849745 12.8524443,15.6599054 C13.1711093,15.2349141 13.6577184,15.1192263 13.9394113,15.4016474" id="Fill-234" fill="#EFBD7B"></path>
                <path d="M15.0175269,15.401606 C15.2991438,15.6840211 15.2690608,16.2575529 14.9503951,16.6825352 C14.6317295,17.1075951 14.1451195,17.2232027 13.8635027,16.9408653 C13.5818093,16.6584502 13.6118923,16.0849961 13.9305579,15.6599361 C14.2492236,15.2348762 14.7358336,15.1192686 15.0175269,15.401606" id="Fill-236" fill="#EFBD7B"></path>
                <path d="M15.9415331,13.5535017 C16.2232265,13.8359147 16.1931435,14.4093644 15.8744778,14.8343434 C15.5558122,15.2594002 15.0692022,15.3750846 14.7875088,15.0927493 C14.505892,14.8103364 14.535975,14.236809 14.8546406,13.8117522 C15.1733063,13.3867732 15.6599163,13.2710888 15.9415331,13.5535017" id="Fill-238" fill="#EFBD7B"></path>
                <path d="M17.163815,12.8317051 C17.3126068,13.1904723 17.1102667,13.6664306 16.7120709,13.8946258 C16.3137356,14.1228929 15.8702189,14.0171404 15.7214272,13.6583013 C15.5727051,13.2995341 15.7749755,12.8236478 16.173241,12.5953806 C16.5715763,12.3671135 17.0150233,12.4729379 17.163815,12.8317051" id="Fill-240" fill="#EFBD7B"></path>
                <path d="M19.1758447,14.0155314 C19.4574615,14.2979413 19.4273785,14.8714625 19.1087129,15.2964369 C18.7900472,15.721489 18.3034372,15.8370945 18.0218204,15.5547623 C17.740127,15.2723524 17.77021,14.6989089 18.0888757,14.2738568 C18.4075413,13.8488047 18.8941513,13.7331216 19.1758447,14.0155314" id="Fill-242" fill="#EFBD7B"></path>
                <path d="M18.3959099,13.2937963 C18.5447018,13.6525683 18.3423616,14.1284611 17.9440958,14.3566594 C17.5458301,14.5849297 17.1023132,14.4791758 16.9535213,14.1203317 C16.8047992,13.7615597 17.0070697,13.2856669 17.4053354,13.0573966 C17.8036709,12.8291264 18.2471181,12.9350242 18.3959099,13.2937963" id="Fill-244" fill="#EFBD7B"></path>
                <path d="M17.9289024,16.8938937 C18.1208502,17.4432949 17.7833992,18.1513418 17.1752527,18.4752436 C16.5670369,18.7991455 15.9184073,18.6163122 15.7264596,18.0667608 C15.5344425,17.5172845 15.8718934,16.8093127 16.4801093,16.4854109 C17.0882558,16.1615091 17.7368853,16.3444175 17.9289024,16.8938937" id="Fill-246" fill="#EFBD7B"></path>
                <path d="M19.3149756,15.8157893 C19.5069953,16.3652656 19.1695398,17.0732374 18.5613157,17.3972143 C17.9530916,17.721041 17.3044533,17.5382077 17.1125723,16.9886563 C16.9205526,16.4392552 17.2579388,15.7312082 17.8662322,15.4073816 C18.4743869,15.0834046 19.1229559,15.266313 19.3149756,15.8157893" id="Fill-248" fill="#EFBD7B"></path>
                <path d="M18.1983076,13.9021032 C18.7072087,14.6021187 18.4027742,15.7717734 17.5181667,16.5145943 C16.6335592,17.2574831 15.5039226,17.2922159 14.9950215,16.5922005 C14.4860485,15.892185 14.7905549,14.7225982 15.6750905,13.9797094 C16.5596981,13.2368206 17.6893347,13.2021556 18.1983076,13.9021032" id="Fill-250" fill="#EFBD7B"></path>
                <path d="M41.4079764,9.27682743 C41.6766551,9.7310917 41.5427941,10.4624469 41.1089585,10.9102929 C40.675123,11.3582183 40.1056498,11.3529886 39.8370394,10.8987244 C39.5682924,10.4443809 39.7021534,9.71310495 40.1359889,9.26517963 C40.5698245,8.81733355 41.1392977,8.82256317 41.4079764,9.27682743" id="Fill-252" fill="#EFBD7B"></path>
                <path d="M39.8678601,8.50674812 C40.1365361,8.96099881 40.0026764,9.69241134 39.5688453,10.140244 C39.1350142,10.588156 38.5655468,10.5829265 38.2968708,10.1286758 C38.0281948,9.6743459 38.1620545,8.9430126 38.5958856,8.4951799 C39.0297167,8.04726797 39.5991841,8.05249744 39.8678601,8.50674812" id="Fill-254" fill="#EFBD7B"></path>
                <path d="M36.3561202,11.6885872 C36.7122026,11.9904027 36.7044072,12.6905316 36.3388131,13.2524686 C35.9731474,13.814334 35.3881396,14.0251679 35.0320572,13.7233524 C34.6760463,13.4215369 34.6837702,12.721408 35.0494358,12.1595426 C35.41503,11.5976056 36.0000378,11.3867718 36.3561202,11.6885872" id="Fill-256" fill="#EFBD7B"></path>
                <path d="M36.1170732,10.6272725 C36.3987688,10.9096824 36.3686855,11.4832036 36.0500174,11.908178 C35.7313493,12.3332301 35.2447355,12.4488356 34.9631164,12.1665034 C34.6814208,11.8840935 34.7115041,11.31065 35.0301722,10.8855979 C35.3488403,10.4605458 35.8354542,10.3448627 36.1170732,10.6272725" id="Fill-258" fill="#EFBD7B"></path>
                <path d="M36.887132,9.24116661 C37.1688276,9.52357647 37.1387444,10.0970977 36.8200762,10.5220721 C36.5014081,10.9471242 36.0147943,11.0627297 35.7331753,10.7803975 C35.4514797,10.4979876 35.4815629,9.92454409 35.8002311,9.499492 C36.1188992,9.0744399 36.605513,8.95875674 36.887132,9.24116661" id="Fill-260" fill="#EFBD7B"></path>
                <path d="M38.4174398,8.51938048 C38.5662317,8.87815256 38.3638915,9.35411728 37.9656257,9.5823156 C37.5673599,9.81058586 37.123843,9.70475997 36.9750512,9.34591595 C36.826329,8.98714388 37.0285995,8.5112511 37.4268653,8.28305278 C37.8252008,8.05478251 38.2686479,8.16060841 38.4174398,8.51938048" id="Fill-262" fill="#EFBD7B"></path>
                <path d="M40.1214452,9.85722378 C40.403062,10.1396449 40.372979,10.7131113 40.0543133,11.1381027 C39.7356477,11.5631717 39.2490377,11.6787818 38.9674209,11.3964384 C38.6857275,11.1140949 38.7158105,10.5405508 39.0344761,10.1154818 C39.3531418,9.69049042 39.8397518,9.57480264 40.1214452,9.85722378" id="Fill-264" fill="#EFBD7B"></path>
                <path d="M39.0284813,12.5815295 C39.2205015,13.1310097 38.8830451,13.8389867 38.2748889,14.162966 C37.6666634,14.4867951 37.0180235,14.3039605 36.8260726,13.7544051 C36.6340525,13.2049999 36.9715088,12.4969478 37.5797344,12.1731188 C38.1878906,11.8491395 38.8365305,12.0321243 39.0284813,12.5815295" id="Fill-266" fill="#EFBD7B"></path>
                <path d="M40.260582,11.3494095 C40.4526022,11.898897 40.1150765,12.6069585 39.5069203,12.9308669 C38.8986947,13.2547003 38.2500549,13.0718632 38.0581734,12.5223757 C37.8661532,11.9728882 38.2035402,11.2648267 38.8117658,10.9409934 C39.419922,10.6170849 40.0685619,10.799997 40.260582,11.3494095" id="Fill-268" fill="#EFBD7B"></path>
                <path d="M38.8359006,9.58980473 C39.3448008,10.2897588 39.0402949,11.459492 38.1557608,12.2023198 C37.2711548,12.9451476 36.14152,12.9798807 35.6325479,12.2798588 C35.1236477,11.5799048 35.4281536,10.4102393 36.3126877,9.66741158 C37.1972938,8.92451597 38.3269285,8.88978284 38.8359006,9.58980473" id="Fill-270" fill="#EFBD7B"></path>
                <path d="M5.24575029,18.773134 C5.60183431,19.0749567 5.59403894,19.7751023 5.22837161,20.3369812 C4.8627758,20.8989317 4.27776529,21.1096989 3.92168126,20.8078762 C3.56566875,20.5060535 3.57339261,19.8059795 3.93905994,19.244029 C4.30465575,18.6821502 4.88966626,18.4713113 5.24575029,18.773134" id="Fill-272" fill="#EFBD7B"></path>
                <path d="M4.85268579,17.5578122 C5.13437916,17.8402333 5.10429615,18.4136997 4.78563051,18.8386911 C4.46696488,19.2637602 3.98035488,19.3793702 3.6986615,19.0970268 C3.41704467,18.8146834 3.44712769,18.2411393 3.76579332,17.8160702 C4.08445895,17.3910788 4.57106895,17.2753911 4.85268579,17.5578122" id="Fill-274" fill="#EFBD7B"></path>
                <path d="M5.6227823,15.8636811 C5.90439998,16.1460993 5.87439342,16.7195597 5.55565028,17.1445466 C5.2369837,17.5696111 4.75037224,17.68522 4.46875457,17.4029572 C4.18713689,17.1205391 4.21714345,16.547001 4.53581004,16.1219364 C4.85447662,15.6969495 5.34108808,15.5812629 5.6227823,15.8636811" id="Fill-276" fill="#EFBD7B"></path>
                <path d="M7.15305011,15.6039218 C7.3018419,15.9626939 7.0995018,16.4386586 6.70130597,16.6668569 C6.30297068,16.8951272 5.85945401,16.7893013 5.71066222,16.4304573 C5.56194016,16.0717572 5.76421054,15.5958644 6.16247609,15.3675941 C6.56081138,15.1393238 7.00425832,15.2451497 7.15305011,15.6039218" id="Fill-278" fill="#EFBD7B"></path>
                <path d="M9.16501378,16.7877432 C9.44670937,17.0701531 9.41662611,17.6436743 9.09795798,18.0686487 C8.77928985,18.4937008 8.29267603,18.6093063 8.01105699,18.3269741 C7.7293614,18.0445643 7.75944465,17.4711207 8.07811279,17.0460686 C8.39678092,16.6210165 8.88339474,16.5053334 9.16501378,16.7877432" id="Fill-280" fill="#EFBD7B"></path>
                <path d="M7.92310895,16.0660081 C8.07190074,16.4247802 7.86956064,16.9006729 7.47136481,17.1288713 C7.07302953,17.3571415 6.62951286,17.2513876 6.48072107,16.8925436 C6.331999,16.5337715 6.53426938,16.0578787 6.93253493,15.8296084 C7.33087022,15.6013382 7.77431716,15.707236 7.92310895,16.0660081" id="Fill-282" fill="#EFBD7B"></path>
                <path d="M7.45606884,19.3580862 C7.64808898,19.9074913 7.31063264,20.6155434 6.70247643,20.9394476 C6.09425089,21.2633518 5.445611,21.0804421 5.25366018,20.5309618 C5.06164003,19.9814815 5.39909637,19.2735045 6.00732191,18.9496003 C6.61547813,18.6256962 7.26411802,18.8086059 7.45606884,19.3580862" id="Fill-284" fill="#EFBD7B"></path>
                <path d="M9.45822839,18.4339948 C9.65024854,18.9834763 9.31272287,19.6914549 8.70456666,20.0153598 C8.09634112,20.3392647 7.44770123,20.1564297 7.25581973,19.6068731 C7.06379959,19.0574666 7.4011866,18.3494129 8.00941214,18.0255831 C8.61756836,17.7016031 9.26620825,17.8845132 9.45822839,18.4339948" id="Fill-286" fill="#EFBD7B"></path>
                <path d="M7.87948468,16.2122798 C8.38845764,16.9122952 8.08395128,18.0819499 7.19941567,18.8247709 C6.31480814,19.5676596 5.18517151,19.6023925 4.67619854,18.902377 C4.1672975,18.2023615 4.47173194,17.0327068 5.35633947,16.2898859 C6.240947,15.5469971 7.37058363,15.5123321 7.87948468,16.2122798" id="Fill-288" fill="#EFBD7B"></path>
                <path d="M24.1414419,4.52717942 C24.1728516,5.03492798 23.785307,5.48815831 23.2759821,5.53963932 C22.7665895,5.59112033 22.3282749,5.22126191 22.2968651,4.71351335 C22.2654554,4.20584071 22.6529323,3.75253446 23.1622572,3.70105345 C23.6717175,3.64964837 24.1100321,4.01950679 24.1414419,4.52717942" id="Fill-290" fill="#E0A865"></path>
                <path d="M15.3627711,2.0630326 C15.3941797,2.57072243 15.0066493,3.02396811 14.4973429,3.07545087 C13.9879689,3.12693363 13.5496026,2.75706267 13.518194,2.24929691 C13.4867854,1.74168301 13.8743159,1.28836139 14.3836222,1.23687864 C14.8929963,1.18539588 15.3313626,1.55526683 15.3627711,2.0630326" id="Fill-292" fill="#EFBD7B"></path>
                <path d="M8.27822981,4.37318097 C8.30963839,4.88092954 7.92210796,5.33415986 7.4128016,5.38564087 C6.90342755,5.43704595 6.46506125,5.06718753 6.43365267,4.5595149 C6.40224409,4.05184227 6.78977452,3.59853601 7.29908088,3.547055 C7.80845493,3.49557399 8.24682123,3.86543241 8.27822981,4.37318097" id="Fill-294" fill="#E0A865"></path>
                <path d="M28.9158064,9.91763277 C28.9472161,10.4253226 28.5597393,10.8785683 28.0504144,10.930051 C27.5409542,10.9815338 27.1026397,10.6116628 27.0712299,10.1038971 C27.0398202,9.59620725 27.427297,9.14296157 27.9366896,9.09147881 C28.4460821,9.03999606 28.8843967,9.40986701 28.9158064,9.91763277" id="Fill-296" fill="#E0A865"></path>
                <path d="M24.1414416,10.2256563 C24.1728513,10.7334221 23.7853745,11.1866677 23.2759819,11.2380746 C22.7665894,11.2895573 22.3282749,10.9196864 22.2968651,10.4119965 C22.2654554,9.90430671 22.6529322,9.45098511 23.1622571,9.39950235 C23.6717173,9.34801959 24.1100319,9.71789054 24.1414416,10.2256563" id="Fill-298" fill="#E0A865"></path>
                <path d="M12.4365472,13.9219387 C12.4679569,14.4297045 12.0804801,14.8829502 11.5711552,14.934357 C11.061695,14.9858398 10.6233805,14.6159688 10.5919708,14.108279 C10.560561,13.6005891 10.9480378,13.1472675 11.4574304,13.0957848 C11.966823,13.044302 12.4051375,13.414173 12.4365472,13.9219387" id="Fill-300" fill="#E0A865"></path>
                <path d="M18.1064278,14.4198807 C18.2356265,14.8884953 17.9402561,15.4319201 17.4467075,15.6337236 C16.9530209,15.8353796 16.4481597,15.6190563 16.318961,15.1503681 C16.1897623,14.6817536 16.4851327,14.1383288 16.9786813,13.9365253 C17.4723679,13.7348692 17.9772291,13.9512662 18.1064278,14.4198807" id="Fill-302" fill="#E0A865"></path>
                <path d="M17.2704726,15.7918406 C17.4529768,16.098612 17.3682267,16.5861238 17.0811781,16.8806392 C16.7940655,17.1752283 16.4133626,17.1654087 16.2308584,16.8586373 C16.0483542,16.5518659 16.1330403,16.064354 16.4202169,15.7697649 C16.7072015,15.4752496 17.0879043,15.4851431 17.2704726,15.7918406" id="Fill-304" fill="#E0A865"></path>
                <path d="M18.3903402,15.3135176 C18.5471229,15.6782579 18.3537731,16.1511349 17.9585696,16.3697174 C17.5633661,16.588223 17.1159018,16.4696189 16.9591192,16.1048786 C16.8023366,15.7401383 16.9956863,15.2671842 17.3908898,15.0487557 C17.7861706,14.8301732 18.233635,14.9487003 18.3903402,15.3135176" id="Fill-306" fill="#E0A865"></path>
                <path d="M11.7678666,7.15087626 C11.9245705,7.51561656 11.7312998,7.9885706 11.3360998,8.20707613 C10.9408997,8.42558167 10.4934393,8.30705454 10.3365807,7.94223727 C10.1798768,7.57749696 10.3731476,7.10454293 10.7683476,6.88611436 C11.1636249,6.66753186 11.6110854,6.78613596 11.7678666,7.15087626" id="Fill-308" fill="#E0A865"></path>
                <path d="M16.5380697,14.9876725 C16.7164675,15.346344 16.473701,15.8223507 15.9956804,16.0506951 C15.5176598,16.2790396 14.9855505,16.1734039 14.8070737,15.8146644 C14.6286759,15.4559249 14.8715215,14.9800542 15.3495421,14.7516417 C15.8275627,14.5232973 16.359672,14.629001 16.5380697,14.9876725" id="Fill-310" fill="#E0A865"></path>
                <path d="M20.2540787,13.9627578 C20.3870829,14.2386776 20.1675815,14.623743 19.7637553,14.8227154 C19.3600031,15.0216877 18.9247773,14.9593939 18.791699,14.6834741 C18.6586208,14.4075544 18.8781221,14.0224889 19.2819483,13.8234508 C19.6857746,13.6244785 20.1210004,13.686838 20.2540787,13.9627578" id="Fill-312" fill="#E0A865"></path>
                <path d="M7.66218238,18.2342683 C7.69359211,18.742034 7.30611524,19.1952038 6.7967903,19.2466865 C6.28732998,19.2981693 5.84901539,18.9282983 5.81760566,18.4205326 C5.78619594,17.9129187 6.1737405,17.459597 6.68306544,17.4081143 C7.19245807,17.3566315 7.63084035,17.7265025 7.66218238,18.2342683" id="Fill-314" fill="#E0A865"></path>
                <path d="M6.73811178,18.5422918 C6.7695215,19.0499816 6.38204469,19.5032273 5.87265214,19.5547101 C5.36325958,19.6061928 4.92494506,19.2363219 4.89353534,18.7285561 C4.86212562,18.2208663 5.24960243,17.7676206 5.75892729,17.7161378 C6.26838754,17.6646551 6.70670206,18.034526 6.73811178,18.5422918" id="Fill-316" fill="#E0A865"></path>
                <path d="M7.50817062,17.3101976 C7.53958034,17.8178875 7.15210353,18.2711332 6.64271098,18.3226159 C6.13331842,18.3740987 5.6950039,18.0042277 5.66359418,17.496462 C5.63218446,16.9888481 6.01966127,16.5355264 6.52905382,16.4840437 C7.03844638,16.4325609 7.4767609,16.8024319 7.50817062,17.3101976" id="Fill-318" fill="#E0A865"></path>
                <path d="M12.590559,8.22346793 C12.6219687,8.7312197 12.2344918,9.18445288 11.7251669,9.23593422 C11.2157066,9.28733962 10.777392,8.9175548 10.7459822,8.40980303 C10.7145725,7.90212719 11.1021171,7.44881808 11.611442,7.39733674 C12.1208346,7.34593134 12.5592169,7.71571616 12.590559,8.22346793" id="Fill-320" fill="#E0A865"></path>
                <path d="M13.3606178,7.60745624 C13.3920275,8.11522201 13.0045507,8.56846768 12.4952259,8.6198745 C11.9857656,8.67135726 11.5474511,8.30148631 11.5160414,7.79379648 C11.4846316,7.28610666 11.8721085,6.83278505 12.381501,6.78130229 C12.8908936,6.72981954 13.3292081,7.09969048 13.3606178,7.60745624" id="Fill-322" fill="#E0A865"></path>
                <path d="M12.4365472,6.68338564 C12.4679569,7.1911514 12.0804801,7.64432114 11.5710876,7.69580389 C11.061695,7.74728665 10.6233805,7.3774157 10.5919708,6.86972587 C10.560561,6.36203605 10.9480378,5.90871444 11.4574304,5.85723168 C11.966823,5.80574893 12.4051375,6.17561987 12.4365472,6.68338564" id="Fill-324" fill="#E0A865"></path>
                <path d="M39.0450085,10.5344738 C39.188158,10.9943077 38.9073328,11.5463282 38.4176034,11.7674585 C37.9279434,11.9885156 37.414864,11.7950632 37.2715759,11.3352292 C37.1284264,10.875322 37.4093209,10.3233016 37.8989809,10.1022445 C38.388641,9.88111412 38.9017897,10.0746398 39.0450085,10.5344738" id="Fill-326" fill="#E0A865"></path>
                <path d="M37.6658995,11.0316218 C37.7951655,11.5002364 37.4997299,12.0436612 37.0061875,12.2454647 C36.5125071,12.4471207 36.0076522,12.2307974 35.8784552,11.7621092 C35.7492581,11.2934947 36.0446248,10.7500699 36.5381672,10.5482664 C37.0318475,10.3466103 37.5367024,10.5630073 37.6658995,11.0316218" id="Fill-328" fill="#E0A865"></path>
                <path d="M38.7369842,10.9965355 C38.8801367,11.4562914 38.5993056,12.008306 38.109566,12.2295072 C37.6198957,12.450562 37.1068056,12.2570384 36.9635838,11.7972825 C36.820362,11.3373801 37.1012624,10.7853655 37.5909326,10.5643107 C38.0806029,10.3431095 38.5937624,10.5367063 38.7369842,10.9965355" id="Fill-330" fill="#E0A865"></path>
                <path d="M42.9308773,8.99348624 C42.962287,9.501252 42.5748102,9.95449768 42.0654853,10.0059804 C41.5560251,10.0574632 41.1177106,9.68759224 41.0863008,9.17982648 C41.0548911,8.67213665 41.4423679,8.21881505 41.9517605,8.16740822 C42.461153,8.11592547 42.8994676,8.48579641 42.9308773,8.99348624" id="Fill-332" fill="#E0A865"></path>
                <path d="M47.089195,8.22346793 C47.1206048,8.7312197 46.7331279,9.18445288 46.2237354,9.23593422 C45.7143428,9.28733962 45.2760283,8.9175548 45.2446186,8.40980303 C45.2132089,7.90212719 45.6006857,7.44881808 46.1100105,7.39733674 C46.6194708,7.34593134 47.0577853,7.71571616 47.089195,8.22346793" id="Fill-334" fill="#BC8346"></path>
                <path d="M47.7052421,6.06733857 C47.7366518,6.5750284 47.349175,7.02827408 46.8398502,7.07975684 C46.3303899,7.1312396 45.8920754,6.76136865 45.8606657,6.25360288 C45.8292559,5.74591305 46.2167327,5.29266737 46.7261253,5.24118461 C47.2355179,5.18970185 47.6738324,5.5595728 47.7052421,6.06733857" id="Fill-336" fill="#E0A865"></path>
                <path d="M45.8571009,10.8416275 C45.8885106,11.3493932 45.5010338,11.8026389 44.9917089,11.8541217 C44.4822487,11.9056044 44.0439342,11.5357335 44.0125244,11.0279677 C43.9811147,10.5202779 44.3685915,10.0670322 44.8779841,10.0155494 C45.3873766,9.96406668 45.8256912,10.3339376 45.8571009,10.8416275" id="Fill-338" fill="#E0A865"></path>
                <path d="M40.0046537,7.60745625 C40.0360634,8.11522202 39.6485866,8.56839177 39.1392617,8.61987452 C38.6298015,8.67135728 38.191487,8.30148633 38.1600773,7.79372056 C38.1286675,7.28610666 38.5161443,6.83278505 39.0255369,6.78130229 C39.5349294,6.72981954 39.973244,7.09969049 40.0046537,7.60745625" id="Fill-340" fill="#EFBD7B"></path>
            </g>
        </g>
    </g>
</svg>