<?xml version="1.0" encoding="UTF-8"?>
<svg width="56px" height="77px" viewBox="0 0 56 77" version="1.1" xmlns="http://www.w3.org/2000/svg" xmlns:xlink="http://www.w3.org/1999/xlink">
    <title>Group 30</title>
    <defs>
        <polygon id="path-1" points="0 0 26 0 26 15 0 15"></polygon>
    </defs>
    <g id="0.0---DEV" stroke="none" stroke-width="1" fill="none" fill-rule="evenodd">
        <g id="0.6.2-survery_1-mobi" transform="translate(-53.000000, -312.000000)">
            <g id="Group-30" transform="translate(53.000000, 312.000000)">
                <path d="M5.45843641,77 C2.44857083,77 0,74.5359187 0,71.5072547 L0,15.4927453 C0,12.4640813 2.44857083,10 5.45843641,10 L50.5415636,10 C53.5513099,10 56,12.4640813 56,15.4927453 L56,71.5072547 C56,74.5359187 53.5513099,77 50.5415636,77 L5.45843641,77 Z" id="Fill-1" fill="#061A3F"></path>
                <path d="M50.3000259,74 L5.69997405,74 C4.20880806,74 3,72.7805568 3,71.2762715 L3,15.7237285 C3,14.2194432 4.20880806,13 5.69997405,13 L50.3000259,13 C51.7911919,13 53,14.2194432 53,15.7237285 L53,71.2762715 C53,72.7805568 51.7911919,74 50.3000259,74" id="Fill-3" fill="#F8F5ED"></path>
                <g id="Group-7" transform="translate(15.000000, 0.000000)">
                    <mask id="mask-2" fill="white">
                        <use xlink:href="#path-1"></use>
                    </mask>
                    <g id="Clip-6"></g>
                    <path d="M14.9736256,6.07850222 C14.9736256,6.68090851 14.4837291,7.16931385 13.8796031,7.16931385 L12.1205164,7.16931385 C11.5161514,7.16931385 11.0263744,6.68090851 11.0263744,6.07850222 L11.0263744,4.3247697 C11.0263744,3.72236341 11.5161514,3.23407719 12.1205164,3.23407719 L13.8796031,3.23407719 C14.4837291,3.23407719 14.9736256,3.72236341 14.9736256,4.3247697 L14.9736256,6.07850222 Z M22.5808812,5.11455686 L19.7407961,5.11455686 C19.3630978,5.11455686 19.0569723,4.80936309 19.0569723,4.43293361 L19.0569723,3.408831 C19.0569723,1.52620712 17.5262251,0 15.6378535,0 L10.3621465,0 C8.4738944,0 6.94302771,1.52620712 6.94302771,3.408831 L6.94302771,4.43293361 C6.94302771,4.80936309 6.63690216,5.11455686 6.25920394,5.11455686 L3.41911883,5.11455686 C1.53074721,5.11455686 0,6.64076398 0,8.52326874 L0,15 L26,15 L26,8.52326874 C26,6.64076398 24.4692528,5.11455686 22.5808812,5.11455686 L22.5808812,5.11455686 Z" id="Fill-5" fill="#FFBB2A" mask="url(#mask-2)"></path>
                </g>
                <path d="M37.3049743,12 L35.6949043,12 C35.3110859,12 35,11.552158 35,11 C35,10.4476673 35.3110859,10 35.6949043,10 L37.3049743,10 C37.6887926,10 38,10.4476673 38,11 C38,11.552158 37.6887926,12 37.3049743,12" id="Fill-8" fill="#EA9628"></path>
                <path d="M32.3327089,12 L18.6672911,12 C18.2987244,12 18,11.552158 18,11 C18,10.4476673 18.2987244,10 18.6672911,10 L32.3327089,10 C32.701159,10 33,10.4476673 33,11 C33,11.552158 32.701159,12 32.3327089,12" id="Fill-10" fill="#EA9628"></path>
                <path d="M20,23 L19.9586868,23.4296334 C16.1517275,26.0854224 14.1241854,29.3661645 12.6758884,32.1782788 C11.8069593,32.7251271 11.1862781,33.467179 10.8138448,32.6079122 C10.3586622,31.4752212 9.36554777,29.3271702 8,28.8975368 C8.57936801,28.2726998 9.11729989,28.1163746 9.77929423,28.1944792 C10.6483462,28.3116941 11.434526,29.8739025 11.7655232,30.5769601 C13.5448174,27.7649618 16.8138448,24.5622084 20,23" id="Fill-12" fill="#4EA4A4"></path>
                <path d="M20,39 L19.9586868,39.4296345 C16.1517275,42.0854302 14.1241854,45.3661806 12.6758884,48.178302 C11.8069593,48.7250357 11.1862781,49.4672055 10.8138448,48.6079365 C10.3586622,47.4753587 9.36554777,45.3271862 8,44.8975517 C8.57936801,44.2725971 9.11729989,44.1163875 9.77929423,44.1944923 C10.6483462,44.3117076 11.434526,45.8739199 11.7655232,46.5770953 C13.5448174,43.7649739 16.8138448,40.5622123 20,39" id="Fill-14" fill="#4EA4A4"></path>
                <path d="M20,55 L19.9586868,55.4295196 C16.1517275,58.0854384 14.1241854,61.3661973 12.6758884,64.1783261 C11.8069593,64.7251773 11.1862781,65.4671169 10.8138448,64.6079617 C10.3586622,63.4752649 9.36554777,61.3272028 8,60.8974511 C8.57936801,60.272727 9.11729989,60.1164009 9.77929423,60.194506 C10.6483462,60.3117215 11.434526,61.8739379 11.7655232,62.5769992 C13.5448174,59.7649864 16.8138448,56.5622164 20,55" id="Fill-16" fill="#4EA4A4"></path>
                <path d="M47,25.0841346 C46.8650432,25.9960401 43.1136598,25.9960401 40.0716382,25.9207821 C38.8909105,25.8913795 37.5974297,25.9428606 36.425491,25.9207821 C32.6992025,25.8524237 29.2495349,26.1701205 26.0215573,25.8653736 C25.8934235,25.1349789 26.3775103,24.6748333 26.3972855,24.0802001 C31.0313813,23.8235376 35.2662732,24.2666996 39.5246409,24.2474871 C42.0794534,24.2355987 46.7702149,23.5990375 47,25.0841346" id="Fill-18" fill="#444444"></path>
                <path d="M47,28.2924952 C46.710189,31.7572284 42.6544431,30.5716573 40.5961422,30.6861603 C37.7542954,30.8441105 35.5822059,30.4756084 33.2417871,30.5832819 C30.7975692,30.6961866 28.998996,31.4616711 26.0013356,30.5832819 C25.935198,27.9418661 28.3391134,28.5386476 30.164555,28.5216465 C35.7893449,28.470498 42.6092032,27.5402337 47,28.2924952" id="Fill-20" fill="#444444"></path>
                <path d="M46.8160996,39.3652288 C46.7855273,39.5499439 46.8558902,39.6468766 47,39.6827739 C46.0758306,41.2358089 43.3179083,40.7205773 41.1868343,40.8009189 C36.2790512,40.9867401 31.2221407,41.255115 26,40.470503 C26.003734,39.9982074 26.0099185,39.0337068 26.5792395,39.0486892 C33.9679275,39.222243 39.9556585,38.6625672 46.8160996,39.3652288" id="Fill-22" fill="#444444"></path>
                <path d="M25,46.3691246 L25,44.5983363 C29.5881798,44.1002802 35.9667283,43.7995088 42.4402078,44.1554637 C44.1962615,44.2520701 45.975681,44.0911531 45.9997242,45.4829582 C46.0298628,47.2500956 43.5818628,46.7834927 42.8020969,46.8030106 C38.0214589,46.9240493 29.8809871,47.3518974 25,46.3691246" id="Fill-24" fill="#444444"></path>
                <path d="M46.8160996,56.3652535 C46.7855273,56.5499658 46.8558902,56.6468971 47,56.6827938 C46.0758306,58.2358053 43.3179083,57.7205816 41.1868343,57.8009219 C36.2790512,57.9867403 31.2221407,58.2551111 26,57.470511 C26.003734,56.9982226 26.0099185,56.0337366 26.5792395,56.0487187 C33.9679275,56.2221693 39.9556585,55.6626025 46.8160996,56.3652535" id="Fill-26" fill="#444444"></path>
                <path d="M25,63.3692283 L25,61.5982452 C29.5881798,61.1001737 35.9667283,60.7995335 42.4402078,61.1554994 C44.1962615,61.2519683 45.975681,61.0911868 45.9997242,62.4828942 C46.0298628,64.2500859 43.5818628,63.7834687 42.8020969,63.8029871 C38.0214589,63.9240296 29.8809871,64.3518908 25,63.3692283" id="Fill-28" fill="#444444"></path>
            </g>
        </g>
    </g>
</svg>