<?xml version="1.0" encoding="UTF-8"?>
<svg width="79px" height="55px" viewBox="0 0 79 55" version="1.1" xmlns="http://www.w3.org/2000/svg" xmlns:xlink="http://www.w3.org/1999/xlink">
    <title>survey-7</title>
    <defs>
        <polygon id="path-1" points="0 0 62.7391304 0 62.7391304 6.28571429 0 6.28571429"></polygon>
        <polygon id="path-3" points="0 0 63.3043478 0 63.3043478 7.42857143 0 7.42857143"></polygon>
    </defs>
    <g id="0.0---DEV" stroke="none" stroke-width="1" fill="none" fill-rule="evenodd">
        <g id="0.6.2-survery_2-desk" transform="translate(-756.000000, -400.000000)">
            <g id="survey-7" transform="translate(756.000000, 400.000000)">
                <g id="Group-11" transform="translate(14.000000, 2.000000)">
                    <g id="Group-3" transform="translate(2.260870, 0.000000)">
                        <mask id="mask-2" fill="white">
                            <use xlink:href="#path-1"></use>
                        </mask>
                        <g id="Clip-2"></g>
                        <path d="M47.7391302,3.40691913 C47.4291485,6.27311668 38.8062791,6.27311668 31.8168292,6.03678421 C29.1034279,5.94438354 26.1310009,6.10608471 23.4374158,6.03678421 C14.8739949,5.82177497 6.94610731,6.82041292 -0.472221383,5.86264449 C-0.766633206,3.56684336 0.345903781,2.12041757 0.391197908,0.251081038 C11.0409795,-0.555647845 20.7735549,0.837469872 30.5599172,0.777054053 C36.4311684,0.7397384 47.2111705,-1.26109138 47.7391302,3.40691913" id="Fill-1" fill="#FFBE4E" mask="url(#mask-2)"></path>
                    </g>
                    <g id="Group-6" transform="translate(1.695652, 13.714286)">
                        <mask id="mask-4" fill="white">
                            <use xlink:href="#path-3"></use>
                        </mask>
                        <g id="Clip-5"></g>
                        <path d="M48.3043478,0.72425674 C47.6321981,9.30374795 38.2277742,6.3679024 33.4546604,6.65152195 C26.8650407,7.04245699 21.828172,6.13027522 16.4013429,6.39664763 C10.7334475,6.67643447 6.56299959,8.57170291 -0.388219639,6.39664763 C-0.541367675,-0.143849027 5.03293726,1.33365549 9.26577883,1.29149583 C22.3088866,1.16501684 38.1228395,-1.13843378 48.3043478,0.72425674" id="Fill-4" fill="#FFBE4E" mask="url(#mask-4)"></path>
                    </g>
                    <path d="M48.2751688,30.3957204 C48.2058189,31.0292643 48.3657482,31.3598089 48.6955141,31.4846814 C46.5909571,36.810123 40.3084228,35.0435455 35.4553456,35.3189993 C24.2786902,35.9543796 12.7637772,36.8743956 0.869562751,34.1841294 C0.879469879,32.5662969 0.892207615,29.259014 2.18862604,29.3104321 C19.0165901,29.9035761 32.6530437,27.9864171 48.2751688,30.3957204" id="Fill-7" fill="#FFBE4E"></path>
                    <path d="M0,50.4394144 L0,46.0537709 C10.8292269,44.8203086 25.884009,44.0739343 41.162981,44.95736 C45.3076576,45.1962738 49.5076722,44.796232 49.5644292,48.2428886 C49.6353754,52.621124 43.8575174,51.4654476 42.0171732,51.5117487 C30.7338907,51.8117801 11.5202428,52.8711501 0,50.4394144" id="Fill-9" fill="#FFBE4E"></path>
                </g>
                <circle id="Oval" fill="#C0222C" cx="4.5" cy="4.5" r="4.5"></circle>
                <circle id="Oval-Copy-2" fill="#C0222C" cx="4.5" cy="35.5" r="4.5"></circle>
                <circle id="Oval-Copy" fill="#C0222C" cx="4.5" cy="19.5" r="4.5"></circle>
                <circle id="Oval-Copy-3" fill="#C0222C" cx="4.5" cy="50.5" r="4.5"></circle>
            </g>
        </g>
    </g>
</svg>