<?xml version="1.0" encoding="UTF-8"?>
<svg width="56px" height="33px" viewBox="0 0 56 33" version="1.1" xmlns="http://www.w3.org/2000/svg" xmlns:xlink="http://www.w3.org/1999/xlink">
    <title>Group 2</title>
    <g id="0.0---DEV" stroke="none" stroke-width="1" fill="none" fill-rule="evenodd">
        <g id="0.6.2-survery_1-mobi" transform="translate(-53.000000, -466.000000)">
            <g id="Group-2" transform="translate(53.000000, 466.000000)">
                <path d="M13.6399721,26.9030542 C11.0746645,27.5388797 4.94023315,33.3910579 4.22168962,32.7110854 C0.329757568,29.0296507 -1.22905291,15.2719172 1.07618488,8.10824796 C4.39810814,-2.21624358 12.254899,-0.216166085 22.4512462,1.03179613 C25.9930224,1.4657295 28.3572451,2.3088308 32.6186372,3.1826197 C32.7371433,3.20738513 32.9650395,3.27037546 33.2492396,3.34251823 C33.924885,3.51479946 34.9190489,3.74091859 35.5206951,3.63539633 C42.7876368,2.36213031 47.3032003,3.51156919 50.3827492,4.06986808 C56.3820514,5.15739339 56.906481,8.4894202 55.0516735,9.51234004 C42.9989101,16.1607807 46.746061,15.801682 33.9779714,19.3700571 C33.5173528,19.4981913 32.1649896,21.8562907 30.0506484,23.2824563 C25.1688422,26.5762582 19.9872854,25.3309879 13.6399721,26.9030542" id="Fill-33-Copy" fill="#96130C"></path>
                <path d="M53.6960413,4.76595745 C53.3853566,5.68269369 52.5003105,6.40027873 51.6855061,6.82581093 C50.3638804,7.51616618 44.5986531,8.21025885 39.7390041,11.9380704 C34.8793551,15.665882 34.0342928,14.2472633 34.0342928,14.2472633 C29.3194499,16.6878 25.7106445,13.7427114 22.5551686,14.0545192 C19.3991524,14.3663269 16.2058541,18.9991286 8.84775983,21.9041734 C4.45602903,23.6378033 1.59070565,23.0552994 0,21.951692 C0.638659672,26.4109705 1.96839017,30.3854519 3.82655482,32.1158783 C4.55112556,32.7896821 10.7318599,26.9859996 13.3172969,26.355977 C19.7119984,24.796938 24.9342029,26.0313552 29.8527469,22.7653822 C31.9832334,21.350501 33.3464639,19.0124765 33.8100595,18.8848702 C46.6761881,15.3460654 42.9004235,15.7021884 55.0446831,9.10937582 C56.4797762,8.33039028 56.5008487,6.20112753 53.6960413,4.76595745" id="Fill-35-Copy" fill="#890A07"></path>
                <path d="M32.9989451,2.9787234 C33.9003615,5.13735584 33.5558585,19.3742563 32.7659574,25.6170213 C33.1721923,25.416988 34.2063652,24.3311959 34.4181118,24.1218085 C34.4181118,24.1218085 33.9574468,16.8062032 34.1320216,13.5617787 C34.633841,4.23144976 35.1489362,3.34928864 35.1489362,3.34928864 C33.9654122,3.11471725 32.9989451,2.9787234 32.9989451,2.9787234" id="Fill-37-Copy-3" fill="#FFFFFF"></path>
            </g>
        </g>
    </g>
</svg>