<?xml version="1.0" encoding="UTF-8"?>
<svg width="45px" height="74px" viewBox="0 0 45 74" version="1.1" xmlns="http://www.w3.org/2000/svg" xmlns:xlink="http://www.w3.org/1999/xlink">
    <title>survey-6</title>
    <defs>
        <polygon id="path-1" points="0 0 45 0 45 15 0 15"></polygon>
    </defs>
    <g id="0.0---DEV" stroke="none" stroke-width="1" fill="none" fill-rule="evenodd">
        <g id="0.6.2-survery_2-desk" transform="translate(-289.000000, -390.000000)">
            <g id="survey-6" transform="translate(289.000000, 390.000000)">
                <path d="M22.5001074,10.660709 C27.4707053,10.660709 31.5000114,14.7500512 31.5000114,19.7944674 C31.5000114,24.8388837 27.4707053,28.9281558 22.5001074,28.9281558 C17.5295785,28.9281558 13.5001344,24.8388837 13.5001344,19.7944674 C13.5001344,14.7500512 17.5295785,10.660709 22.5001074,10.660709 M41.9400133,18.188458 C41.1328959,8.42365723 33.4231097,0.718902607 23.7900872,0.0503857684 C18.4017125,-0.342290824 13.0975419,1.57353106 9.16513963,5.33267745 C5.23446281,9.08523954 3.00388136,14.3176586 3.00011034,19.7944674 C2.99062956,22.6272585 3.59220602,25.4278285 4.76271257,27.999629 L20.4526354,65.6458687 C20.9586195,66.7976314 22.2888378,67.3150595 23.4238682,66.8015539 C23.9308876,66.572084 24.3364478,66.160425 24.5626257,65.6458687 L40.2150018,28.0452288 C41.3927554,25.4589989 42.001855,22.6435792 41.9999958,19.7944674 C41.9999958,19.2387943 41.9999958,18.7135911 41.9400133,18.188458" id="Fill-1" fill="#C0222C"></path>
                <g id="Group-5" transform="translate(0.000000, 59.000000)">
                    <mask id="mask-2" fill="white">
                        <use xlink:href="#path-1"></use>
                    </mask>
                    <g id="Clip-4"></g>
                    <path d="M14.6744726,0.981611069 C14.6171384,0.40026155 14.1044629,-0.0324789995 13.5136991,0.00191551532 C13.4619179,0.00397096441 13.4103449,0.00965770691 13.3593967,0.0188387129 C9.61102093,0.568054711 6.43036424,1.43785225 4.0815385,2.57499521 C2.90716034,3.14353243 1.94046226,3.78572324 1.21760783,4.53863424 C0.494683982,5.29147673 -1.3882359e-05,6.21971754 -1.3882359e-05,7.2301078 C-1.3882359e-05,8.61616564 0.889914744,9.7862643 2.12655529,10.700391 C3.36312642,11.6143807 5.01811185,12.3561923 7.03126215,12.9855708 C11.0575627,14.2443964 16.4959769,15.000048 22.5000278,15.000048 C28.5040786,15.000048 33.9424928,14.2443964 37.968724,12.9855708 C39.9818743,12.3561923 41.6369291,11.6143807 42.8735002,10.700391 C44.1100714,9.7862643 45,8.61616564 45,7.2301078 C45,6.21971754 44.5053021,5.29147673 43.7823783,4.53863424 C43.0595239,3.78572324 42.0928258,3.14353243 40.9184476,2.57499521 C38.5696219,1.43785225 35.3890346,0.568054711 31.6406588,0.0188387129 C31.0392056,-0.0699566881 30.4787054,0.339351742 30.3887477,0.932965441 C30.2987206,1.52664765 30.7133867,2.07990604 31.3148399,2.16870144 C34.9056509,2.69482789 37.9259663,3.53790459 39.958066,4.52171105 C40.9741853,5.01358001 41.7262621,5.54785975 42.1875729,6.0282182 C42.6487448,6.50864517 42.8049214,6.89349376 42.8049214,7.2301078 C42.8049214,7.6918987 42.4996483,8.26968544 41.570155,8.95675356 C40.6406616,9.64382168 39.1598304,10.3388375 37.2999413,10.9203926 C33.5800938,12.0834342 28.3161809,12.833262 22.5000278,12.833262 C16.6838052,12.833262 11.4199617,12.0834342 7.70004479,10.9203926 C5.84015574,10.3388375 4.3593245,9.64382168 3.42983115,8.95675356 C2.50040722,8.26968544 2.19513414,7.6918987 2.19513414,7.2301078 C2.19513414,6.89349376 2.35124127,6.50864517 2.81248265,6.0282182 C3.27372403,5.54785975 4.02587024,5.01358001 5.0419201,4.52171105 C7.07401981,3.53790459 10.0943353,2.69482789 13.6852157,2.16870144 C14.2904865,2.11060074 14.7334032,1.57913012 14.6744726,0.981611069" id="Fill-3" fill="#771838" mask="url(#mask-2)"></path>
                </g>
            </g>
        </g>
    </g>
</svg>