<?xml version="1.0" encoding="UTF-8"?>
<svg width="64px" height="64px" viewBox="0 0 64 64" version="1.1" xmlns="http://www.w3.org/2000/svg" xmlns:xlink="http://www.w3.org/1999/xlink">
    <title>survery-8</title>
    <g id="0.0---DEV" stroke="none" stroke-width="1" fill="none" fill-rule="evenodd">
        <g id="0.6.2-survery_2-desk" transform="translate(-280.000000, -525.000000)">
            <g id="survery-8" transform="translate(280.000000, 525.000000)">
                <path d="M64,32 C64,49.6731039 49.6731039,64 32,64 C14.3268416,64 0,49.6731039 0,32 C0,14.3268961 14.3268416,0 32,0 C49.6731039,0 64,14.3268961 64,32" id="Fill-4" fill="#421B59"></path>
                <path d="M48.4270785,28.2694874 C51.4432261,29.9274883 51.4432261,34.0724907 48.4270785,35.7304916 L37.3431538,41.8234667 L26.2592291,47.91649 C23.2430815,49.5744427 19.472973,47.5019416 19.472973,44.1859397 L19.472973,31.9999895 L19.472973,19.8140393 C19.472973,16.4980374 23.2430815,14.4255362 26.2592291,16.0835372 L37.3431538,22.1765123 L48.4270785,28.2694874 Z" id="Fill-6" fill="#FFFFFF"></path>
            </g>
        </g>
    </g>
</svg>