<?xml version="1.0" encoding="UTF-8"?>
<svg width="56px" height="53px" viewBox="0 0 56 53" version="1.1" xmlns="http://www.w3.org/2000/svg" xmlns:xlink="http://www.w3.org/1999/xlink">
    <title>Group 102</title>
    <defs>
        <polygon id="path-1" points="0 0 39.6097561 0 39.6097561 52.5853659 0 52.5853659"></polygon>
        <polygon id="path-3" points="0 0 19.804878 0 19.804878 42.3414634 0 42.3414634"></polygon>
        <polygon id="path-5" points="0 0 10.9268293 0 10.9268293 10.9268293 0 10.9268293"></polygon>
    </defs>
    <g id="0.0---DEV" stroke="none" stroke-width="1" fill="none" fill-rule="evenodd">
        <g id="0.6.2-survery_1-mobi" transform="translate(-53.000000, -584.000000)">
            <g id="Group-102" transform="translate(53.000000, 584.000000)">
                <g id="Group-3">
                    <mask id="mask-2" fill="white">
                        <use xlink:href="#path-1"></use>
                    </mask>
                    <g id="Clip-2"></g>
                    <path d="M39.3108346,16.2146579 C39.1471687,18.1588108 38.9834515,20.1051027 38.8241398,22.0513436 C38.5032112,25.9802894 38.3438483,30.3267379 37.1529035,34.0929707 C36.681269,35.578879 36.1191189,37.0476757 35.4622526,38.4736424 C32.789555,44.2932164 28.0881686,49.0036939 22.4369565,51.9669546 C21.5733435,52.4208704 20.7657201,52.6307422 19.9409362,52.5772175 C19.3572713,52.5386145 18.767152,52.3694847 18.1383061,52.0633092 C10.9881806,48.5733065 5.51789741,42.0899959 2.64060468,34.7074605 C1.1653576,30.9241161 0.340522413,26.9052325 0.0863920346,22.8585426 C-0.0406987676,20.8266418 -0.0256384307,18.7882733 0.118715411,16.7585115 C0.191916844,15.7436306 0.297441654,14.7308886 0.435238614,13.7224246 C0.540814649,12.9451708 0.525703086,11.9709809 0.743258361,11.2301402 C0.816459795,10.9732116 0.965065364,10.7505571 1.1653576,10.551431 C1.95571793,9.76139449 3.54299548,9.3909487 4.41951733,9.10402382 C7.32262779,8.1555013 10.1159105,6.86871909 12.726164,5.2907341 C14.0635629,4.48134518 15.3536293,3.59495407 16.5898063,2.63573679 C17.1907343,2.16898732 17.7786509,1.68293637 18.3536586,1.18191276 C18.6809904,0.89717776 18.9652927,0.567422949 19.2883728,0.276220168 C19.5037254,0.0835109475 19.719078,0.00217991544 19.9409362,0 C20.8411243,-0.00851483518 21.7628784,1.3253752 22.4585225,1.88206244 C23.9359211,3.06393424 25.4908752,4.14950235 27.1082735,5.13229901 C30.3430187,7.09779046 33.5478993,8.41563837 37.1811288,9.49692859 C37.650663,9.63611313 38.6948975,9.81914615 38.9964116,10.3030581 C39.0007146,10.309475 39.0050175,10.3180308 39.0093205,10.3244986 C40.0387509,12.0031161 39.4658946,14.3604428 39.3108346,16.2146579" id="Fill-1" fill="#FFA72A" mask="url(#mask-2)"></path>
                </g>
                <path d="M19.804878,0 L19.804878,4.1207751 L16.0844839,14.3414634 L4.10268489,13.0444084 L1.36585366,10.6711011 C2.14204882,9.87210125 3.70087851,9.49745255 4.56169096,9.20732386 C7.41277064,8.24803985 10.1559909,6.94660691 12.7194624,5.35071884 C14.0328918,4.53219849 15.2997868,3.63569929 16.5138589,2.66559919 C17.1039664,2.1935542 17.6813461,1.70198874 18.2460484,1.19533226 C18.5675639,0.907315286 18.8467708,0.573819233 19.1640102,0.279312602 C19.3755031,0.0844684985 19.5869961,0.00216321764 19.804878,0" id="Fill-4" fill="#FFBB2A"></path>
                <g id="Group-8" transform="translate(20.487805, 10.243902)">
                    <mask id="mask-4" fill="white">
                        <use xlink:href="#path-3"></use>
                    </mask>
                    <g id="Clip-7"></g>
                    <path d="M19.2024041,11.6934354 C18.8828622,15.6298727 18.3263166,20.0403785 17.1403287,23.8137926 C16.6706573,25.3025852 16.1108469,26.7741825 15.4567146,28.2028682 C12.7951411,34.0334876 8.11332256,38.7529468 2.48563155,41.7219088 C1.62561303,42.17669 0.821351097,42.3869109 0,42.3332842 L0,38.5019573 L4.34299404,32.4825473 L15.9135308,2.43050054 L18.9890191,0 C20.5958085,1.38694768 19.3611037,9.74343244 19.2024041,11.6934354" id="Fill-6" fill="#FFA72A" mask="url(#mask-4)"></path>
                </g>
                <path d="M35.9956883,23.4364526 C35.8990407,24.8529802 35.7444658,26.3431198 35.5038685,27.8635065 C35.0572055,30.7031462 34.3183521,33.6508632 33.1371777,36.4126214 C32.4624325,37.9915478 31.6180432,39.4962966 30.6181596,40.8895729 C29.7446535,42.1067157 28.754118,43.2378493 27.6678543,44.2665641 C26.7426019,45.1427052 25.7484906,45.9450287 24.6994659,46.6658698 C23.8742835,47.2329026 23.0149272,47.7503465 22.1262496,48.2100222 C21.7147311,48.4227817 21.2971339,48.623967 20.8723851,48.8086398 C20.498974,48.9711415 20.0417881,49.230095 19.62179,49.1584892 C19.2837278,49.1008755 18.9762638,48.9145051 18.6653774,48.7778267 C17.9334201,48.4559096 17.2205675,48.0897534 16.5274327,47.6902635 C15.559782,47.1325929 14.6301365,46.5077405 13.7466183,45.822908 C12.6683234,44.9869422 11.6588364,44.0605948 10.7360359,43.0533308 C9.66943892,41.8890693 8.71997349,40.616679 7.90878767,39.2595142 C7.36757143,38.3538974 6.88801145,37.4112432 6.47230425,36.4407595 C5.06401823,33.1527611 4.27249906,29.6143999 3.8342646,26.0704831 C3.46764743,23.1055334 3.34443709,20.1048323 3.45216951,17.119152 C3.48409591,16.234163 3.53553571,15.3489683 3.62467421,14.4677345 C3.6698309,14.0214334 3.57527769,13.2616001 3.96166368,12.9430782 C4.23822288,12.7150922 4.78791877,12.6197722 5.11964678,12.502487 C6.41386618,12.044766 7.71145701,11.5973332 8.99137338,11.0997455 C10.5023347,10.5123935 12.0551834,9.89237655 13.4113145,8.98742852 C16.7593972,6.75335093 19.3946273,4.09756098 19.8048176,4.09756098 C20.2149568,4.09756098 22.8500848,6.65818529 26.1982696,8.89658392 C30.338842,11.6670356 35.3537379,12.4073728 35.7401239,12.8608242 C36.126612,13.3142756 36.3994422,17.4868514 35.9956883,23.4364526" id="Fill-9" fill="#FFA72A"></path>
                <path d="M35.9409613,23.6255786 C35.8482882,24.9586948 35.7001346,26.3609832 35.4694793,27.7918141 C35.041303,30.4641409 34.3331039,33.2382454 33.2008382,35.8372861 C29.7377213,43.79322 22.8957871,46.9468073 20.9487792,47.7053158 C20.6083957,47.8379214 20.2328745,47.8380738 19.8923883,47.7057221 C17.9452776,46.9488388 11.1034461,43.8022093 7.64032924,35.8637463 C5.75414442,31.5404256 4.99709167,26.7795722 4.81590656,22.099166 C4.73920982,20.117953 4.79653973,18.1249065 4.89748352,16.1455218 C4.92167921,15.6710668 4.94947086,15.1965609 4.99036208,14.7232232 C5.01132141,14.4805106 4.97135486,14.2020946 5.06022649,13.9635466 C5.18772903,13.6216464 5.55122942,13.5936118 5.86130408,13.4905136 C6.58152391,13.2510006 7.3026684,13.0141794 8.01980597,12.7657786 C9.89278847,12.1170215 11.7879118,11.4328149 13.5289225,10.481213 C13.7886537,10.3393133 14.0444807,10.189897 14.2919343,10.0277839 C15.8170332,9.0287467 17.2250578,8.00924221 18.6058558,6.82818329 C19.1036397,6.40238247 19.6219719,5.80542841 20.217566,5.52071475 C20.5292845,5.37175556 20.6949556,5.5401155 20.9360392,5.71888684 C21.2050685,5.91843018 21.461923,6.13422547 21.71775,6.3498176 C22.3041486,6.84392736 22.8768826,7.34545206 23.4942579,7.80167447 C23.7059574,8.0109182 24.0022133,8.18227458 24.2448893,8.35637349 C24.4855106,8.52899956 24.7283921,8.69939099 24.9709654,8.86952848 C25.4916607,9.23479082 26.0175445,9.59289216 26.5492845,9.94230886 C30.5184047,12.5495263 35.0986329,13.186907 35.6959735,13.6729924 C36.2933656,14.1591285 36.3279895,18.0264807 35.9409613,23.6255786" id="Fill-11" fill="#FFBB2A"></path>
                <path d="M12.3389956,23.6486508 C12.2435161,23.9483977 12.2937313,24.3330411 12.507676,24.7568212 C14.1714434,28.0532343 15.8353119,31.3495972 17.4991804,34.6460604 C17.906711,35.4535306 18.3703673,36.3171971 19.1929051,36.7026935 C19.5539084,36.8718342 19.9746243,36.9323957 20.3582092,36.8229635 C21.0595538,36.622965 21.482745,35.9332059 21.827734,35.2945754 C24.4409916,30.4566284 26.5004179,25.3011724 29.634569,20.7786771 C30.4033554,19.6693024 30.1467733,18.2593781 28.4868453,18.4578714 C27.5389212,18.5712173 26.711281,19.1879713 26.1357268,19.9445136 C25.560122,20.7011061 25.2001291,21.5938742 24.8467541,22.4747508 C23.3146371,26.2943913 21.7824697,30.114082 20.2503022,33.9337225 C20.2262051,33.9938325 20.2004913,34.0562505 20.1515896,34.0989496 C19.964268,34.2626212 19.701068,34.0113436 19.5856339,33.7916764 C18.8465016,32.3858665 18.2003229,30.818994 17.6504825,29.287495 C17.1159996,27.7988959 16.8108695,26.0872679 16.0019716,24.7185876 C15.507095,23.8813134 14.7032994,23.1621014 13.7345112,23.032549 C12.9716354,22.9305427 12.4850438,23.1903501 12.3389956,23.6486508" id="Fill-13" fill="#FFA72A"></path>
                <path d="M20.3723707,7.51282511 C20.2373079,7.50759228 20.0902158,7.53475318 19.9354595,7.60198263 C19.6922348,7.70753635 19.4958075,7.892978 19.3049126,8.07473174 C17.9970215,9.3198969 16.6010172,10.8045763 14.9459522,11.6170609 C13.1818117,12.751589 11.2032254,13.3272007 9.3596511,14.2882479 C7.83401496,15.0835888 6.72250036,16.2494142 6.40644021,17.9522778 C6.22960488,18.9049525 6.2202657,19.891217 6.19503976,20.8563508 C6.16935702,21.840273 6.07434102,22.9055284 6.25021198,23.8800813 C6.38035141,24.6012654 6.9801399,25.7608613 7.83310135,25.0418202 C8.35726278,24.5999198 8.62941865,23.7706403 8.8769069,23.1568539 C9.24341893,22.2479855 9.58409594,21.3438017 10.093538,20.4993719 C11.9381274,17.4420018 14.9868619,15.3419412 17.5807682,12.9496891 C18.5126558,12.0902586 19.4485533,11.2183688 20.2269028,10.2180505 C20.5853953,9.7572621 21.1220936,9.12089972 21.1676728,8.51234612 C21.2065522,7.99334873 20.8711031,7.53216168 20.3723707,7.51282511" id="Fill-15" fill="#FFE0A1"></path>
                <path d="M34.1336974,25.9018838 C29.62425,24.0410213 26.2800454,21.7901236 26.6641914,20.8744833 C27.0482854,19.9587913 31.0153478,20.7250257 35.5247953,22.5859399 C40.0341907,24.4467507 43.3784473,26.6976484 42.9943533,27.6132887 C42.6102073,28.5290324 38.6431969,27.7627979 34.1336974,25.9018838" id="Fill-17" fill="#FC9C97"></path>
                <path d="M32.8298253,23.2068922 C34.6906807,18.6974569 36.9415699,15.3532614 37.8572584,15.7373543 C38.7728953,16.1214993 38.0066637,20.088551 36.1457567,24.5979863 C34.2849528,29.1073695 32.0340637,32.4516171 31.1183752,32.0675241 C30.2026866,31.6833791 30.9689698,27.7163274 32.8298253,23.2068922" id="Fill-19" fill="#FC9C97"></path>
                <path d="M35.5186453,25.9138643 C31.0089068,27.7715356 27.0444106,28.5297263 26.6636559,27.6073821 C26.2829532,26.6851417 29.6301528,24.4315494 34.1398913,22.573982 C38.6496298,20.7163108 42.614126,19.958068 42.9948807,20.8804123 C43.3755833,21.8027047 40.0283838,24.056245 35.5186453,25.9138643" id="Fill-21" fill="#FC9C97"></path>
                <path d="M32.8178308,24.591816 C30.9602141,20.0820775 30.2019725,16.1175813 31.1243155,15.7368267 C32.0465545,15.356124 34.3001436,18.7033235 36.1577603,23.213062 C38.015377,27.7228005 38.7736186,31.6872447 37.8513276,32.0680514 C36.9289846,32.4487541 34.6754475,29.1015546 32.8178308,24.591816" id="Fill-23" fill="#FC9C97"></path>
                <path d="M34.1336974,25.9018838 C29.62425,24.0410213 26.2800454,21.7901236 26.6641914,20.8744833 C27.0482854,19.9587913 31.0153478,20.7250257 35.5247953,22.5859399 C40.0341907,24.4467507 43.3784473,26.6976484 42.9943533,27.6132887 C42.6102073,28.5290324 38.6431969,27.7627979 34.1336974,25.9018838" id="Fill-25" fill="#2ECBC1"></path>
                <path d="M32.8298253,23.2068922 C34.6906807,18.6974569 36.9415699,15.3532614 37.8572584,15.7373543 C38.7728953,16.1214993 38.0066637,20.088551 36.1457567,24.5979863 C34.2849528,29.1073695 32.0340637,32.4516171 31.1183752,32.0675241 C30.2026866,31.6833791 30.9689698,27.7163274 32.8298253,23.2068922" id="Fill-27" fill="#2ECBC1"></path>
                <path d="M35.5186453,25.9138643 C31.0089068,27.7715356 27.0444106,28.5297263 26.6636559,27.6073821 C26.2829532,26.6851417 29.6301528,24.4315494 34.1398913,22.573982 C38.6496298,20.7163108 42.614126,19.958068 42.9948807,20.8804123 C43.3755833,21.8027047 40.0283838,24.056245 35.5186453,25.9138643" id="Fill-29" fill="#2ECBC1"></path>
                <path d="M32.8178308,24.591816 C30.9602141,20.0820775 30.2019725,16.1175813 31.1243155,15.7368267 C32.0465545,15.356124 34.3001436,18.7033235 36.1577603,23.213062 C38.015377,27.7228005 38.7736186,31.6872447 37.8513276,32.0680514 C36.9289846,32.4487541 34.6754475,29.1015546 32.8178308,24.591816" id="Fill-31" fill="#2ECBC1"></path>
                <path d="M41.1242926,28.6291461 C41.1010354,28.6661516 41.0769603,28.7022883 41.0528852,28.7392428 C42.0560653,30.277428 42.4758205,31.4259812 42.0731888,31.8285447 C41.6706082,32.2312104 40.5220574,31.8121886 38.983807,30.8082843 C38.9424551,30.835783 38.9003364,30.8633327 38.8581667,30.8908313 C38.7455095,30.9631047 38.6301944,31.0319535 38.5131925,31.0981955 C37.9823648,31.3992492 37.4102873,31.6375366 36.8071831,31.8018639 C36.7228948,31.825069 36.6368173,31.8465875 36.550791,31.8664192 C36.5094902,31.8767439 36.4673716,31.8861998 36.4251507,31.8948378 C36.3812942,31.9051115 36.3374376,31.9145673 36.2927121,31.9232054 C35.9150245,33.7211964 35.3988156,34.8292683 34.8292939,34.8292683 C34.26059,34.8292683 33.7443811,33.7211964 33.3666934,31.9232054 C33.3151185,31.9128806 33.2634925,31.9016869 33.2118665,31.8904933 C33.0828526,31.8621257 32.9546054,31.8302825 32.8281473,31.7958837 C32.226781,31.6289496 31.6555214,31.3889245 31.1255626,31.0870018 C31.0102986,31.0207598 30.8967214,30.951911 30.7857511,30.8796377 C30.7487439,30.8564325 30.7117879,30.8323073 30.6755985,30.8082843 C29.1373481,31.8121886 27.9879795,32.2312104 27.5862167,31.8285447 C27.4838337,31.7262171 27.4347634,31.575588 27.4347634,31.3820754 C27.4347634,31.3545256 27.4356324,31.3261581 27.4382392,31.2968705 C27.4382392,31.2891525 27.4390571,31.2805656 27.439926,31.2719275 C27.4416639,31.2469845 27.4450886,31.2212237 27.4485644,31.1953607 C27.4519891,31.1704688 27.4554138,31.1454747 27.4605764,31.1197139 C27.4614454,31.110207 27.4631833,31.1007511 27.465739,31.0912953 C27.4735085,31.0491273 27.4829647,31.0052726 27.4941589,30.9604979 C27.5018772,30.9312615 27.5096467,30.902025 27.518234,30.8719196 C27.5259523,30.844421 27.5337218,30.8176891 27.543178,30.7893215 C27.5474717,30.7764411 27.5517653,30.7626407 27.5561101,30.7497603 C27.5887725,30.6491194 27.6283354,30.5432651 27.6739298,30.4322994 C27.6945802,30.3824134 27.7169685,30.3307896 27.7401747,30.278348 C27.7522378,30.2507983 27.7651698,30.2224307 27.7780508,30.1940121 C27.8046816,30.1372259 27.8322836,30.0787019 27.8615213,30.0202289 C27.890759,29.9608871 27.9217346,29.9006764 27.9535792,29.8395967 C27.9862416,29.7776481 28.0197729,29.7156996 28.0542243,29.6520643 C28.0713989,29.6202211 28.0894936,29.5883779 28.1075371,29.5565858 C28.1428575,29.4937172 28.1798135,29.4300819 28.2176896,29.3647087 C28.2288838,29.345797 28.2400268,29.3259653 28.2520899,29.3061847 C28.3605045,29.1238146 28.4791932,28.9345955 28.6065203,28.7392428 C28.0705811,27.938307 27.6859929,27.0281434 27.491552,26.0482621 C25.6934848,25.6705904 24.5853659,25.1544545 24.5853659,24.5858259 C24.5853659,24.0162772 25.6934848,23.5000902 27.491552,23.1224696 C27.6859929,22.1425883 28.0705811,21.2323736 28.6065203,20.4314378 C27.6025224,18.8932015 27.183585,17.7447505 27.5862167,17.3421359 C27.9879795,16.9395213 29.1373481,17.3593609 30.6755985,18.3624474 C31.4765683,17.8264797 32.3868216,17.4419079 33.3666934,17.2475263 C33.7443811,15.4494842 34.26059,14.3414634 34.8292939,14.3414634 C35.3988156,14.3414634 35.9150245,15.4494842 36.2927121,17.2475263 C36.8777216,17.3636544 37.4377871,17.5477623 37.9651391,17.792132 C38.15958,17.8807103 38.3488583,17.9787444 38.5338429,18.0845477 C38.610413,18.1284535 38.686983,18.1732282 38.7618152,18.2205074 C38.7988223,18.2437126 38.8358295,18.2669689 38.8737056,18.2910429 C38.9106616,18.3142481 38.9476688,18.3383733 38.983807,18.3624474 C40.5220574,17.3593609 41.6706082,16.9395213 42.0731888,17.3421359 C42.4758205,17.7447505 42.0560653,18.8932015 41.0528852,20.4314378 C41.0778292,20.4692612 41.1036422,20.5080046 41.1277173,20.546748 C41.1527125,20.5854403 41.1767365,20.6241837 41.2008627,20.6636939 C41.2498818,20.7419985 41.2972142,20.822041 41.3419397,20.9020323 C41.6439263,21.4328376 41.8814059,22.0048908 42.046558,22.6071515 C42.0809583,22.7344732 42.1128028,22.8626639 42.1403537,22.9925412 C42.1497589,23.035527 42.1592662,23.0794328 42.1678535,23.1224696 C43.9659719,23.5000902 45.0731707,24.0162772 45.0731707,24.5858259 C45.0731707,25.1544545 43.9659719,25.6705904 42.1678535,26.0482621 C42.1575283,26.099937 42.1463342,26.1515097 42.13514,26.2031335 C42.1067713,26.332193 42.0749778,26.4603325 42.0405264,26.5868364 C41.8735853,27.1881772 41.6336011,27.7593615 41.3307455,28.2893489 C41.2653696,28.404608 41.196569,28.5181804 41.1242926,28.6291461" id="Fill-33" fill="#4CE9D2"></path>
                <path d="M41.5463647,26.4796845 C41.5180639,26.6037654 41.4863987,26.7270052 41.4522597,26.8494039 C41.4531008,26.8501955 41.4539419,26.8510861 41.4547336,26.8510861 C42.0685432,27.3881267 42.361644,27.8403193 42.2359234,28.1425562 C42.1101533,28.444892 41.5813448,28.5556149 40.7677477,28.4989671 L40.7660654,28.4989671 C40.7027846,28.6105805 40.6369804,28.7196213 40.5679107,28.8279199 C40.5453987,28.8637391 40.5220952,28.8987173 40.4987421,28.934487 C41.4697745,30.4233585 41.8761278,31.5350894 41.4863987,31.9247469 C41.0966697,32.3145033 39.9849251,31.9089152 38.4960186,30.9371958 C38.4559918,30.9638128 38.4152229,30.9904793 38.3744045,31.0170963 C38.2653576,31.08542 38.1528967,31.1519625 38.0404853,31.2152893 L38.0404853,31.2178125 C38.0945635,32.0313634 37.9821521,32.5600924 37.679057,32.6850143 C37.3767535,32.8090952 36.9245847,32.5143289 36.3891464,31.8989214 C36.3891464,31.8981299 36.3891464,31.8981299 36.3882558,31.8972888 C36.3058274,31.91975 36.2242401,31.9414196 36.1409705,31.9614071 C36.1009438,31.9714009 36.0601749,31.9805536 36.0193565,31.9888652 C35.9769053,31.998859 35.9344047,32.0080117 35.8911125,32.0163728 C35.5255776,33.7567208 35.025911,34.8292683 34.4745906,34.8292683 C33.9241113,34.8292683 33.4244942,33.7567208 33.0589098,32.0163728 C33.0089382,32.006379 32.9590161,31.9955442 32.9090445,31.9847094 C32.7849566,31.9564103 32.6617097,31.9247469 32.539304,31.8914509 C32.5384629,31.8922919 32.5384629,31.8922919 32.5376218,31.893133 C32.0004518,32.5068089 31.5474419,32.7999425 31.246029,32.6741795 C30.9437255,32.548466 30.8321552,32.0205286 30.8895978,31.2069776 L30.8895978,31.2044545 C30.7779781,31.1403361 30.66809,31.0754262 30.5606758,31.0062615 C30.5248545,30.9838003 30.4890333,30.9604485 30.4540532,30.9371958 C28.9650972,31.9089152 27.852561,32.3145033 27.4636236,31.9247469 C27.3645215,31.8256999 27.3170732,31.6798999 27.3170732,31.4925912 C27.3170732,31.4659247 27.3179143,31.4384666 27.3203881,31.410118 C27.3203881,31.4026474 27.3212292,31.3943358 27.3220703,31.3859747 C27.3237525,31.3618314 27.3270675,31.3368964 27.3303824,31.3118626 C27.3337469,31.2877687 27.3370618,31.2635759 27.342059,31.2385916 C27.3429001,31.2294389 27.3445328,31.2202862 27.3470561,31.2111335 C27.3545766,31.1703174 27.3636804,31.1278687 27.3745158,31.0845294 C27.3820363,31.0562303 27.3895073,31.0279311 27.3978688,30.9987909 C27.4053399,30.9721739 27.4128109,30.946299 27.4219641,30.9188409 C27.4261696,30.9063734 27.4303257,30.8930154 27.4344817,30.880548 C27.4661469,30.7830841 27.504442,30.6806729 27.5485753,30.5732648 C27.5685639,30.5249781 27.5902348,30.4750094 27.6126973,30.424249 C27.6243738,30.397533 27.636842,30.3701244 27.6493596,30.3426169 C27.6751371,30.2876512 27.7018051,30.2318445 27.7301058,30.1744051 C27.7584066,30.1169658 27.788439,30.0586854 27.8192136,29.9995639 C27.8508788,29.9396014 27.8833356,29.8796389 27.9166335,29.8180437 C27.9333072,29.7872214 27.9507725,29.7563496 27.9682873,29.7255767 C28.0024263,29.6647732 28.0382476,29.603178 28.0748604,29.5399007 C28.0856959,29.5215458 28.0965313,29.5023994 28.1082078,29.4832529 C29.1274802,30.0020376 30.2808348,30.2951218 31.5025169,30.2951218 C35.637989,30.2951218 38.9897975,26.9426625 38.9897975,22.8074251 C38.9897975,21.1328776 38.4402087,19.5856762 37.5099947,18.3382875 C37.6982046,18.4240754 37.8814173,18.5189666 38.060474,18.6213779 L38.060474,18.62306 C38.1345903,18.6655582 38.207816,18.708848 38.2811407,18.7529788 C38.3169619,18.77544 38.3527337,18.7979012 38.389396,18.821253 C38.4252172,18.8437142 38.4610385,18.8670659 38.4960186,18.8903682 C39.9849251,17.9194403 41.0966697,17.5130606 41.4863987,17.9027676 C41.8761278,18.2924745 41.4697745,19.4041065 40.4987421,20.8930275 C40.5228868,20.9296383 40.5478726,20.9671396 40.5712257,21.0046409 C40.5953704,21.0420927 40.6186739,21.079594 40.642027,21.1178375 C40.6877436,21.1944727 40.7327675,21.271108 40.7769009,21.3485349 L40.7785336,21.3485349 C41.5929719,21.2943608 42.1218298,21.4068153 42.2458682,21.7090521 C42.3707972,22.0121795 42.0760142,22.4635311 41.4606213,22.9989885 C41.4597802,22.9997801 41.4597802,22.9997801 41.4588896,23.0006212 C41.492237,23.123861 41.5239022,23.2471008 41.5514113,23.3720227 C41.5605151,23.4136304 41.5697177,23.4561286 41.5780299,23.4977857 C43.3184766,23.8632999 44.3902439,24.3629381 44.3902439,24.9141778 C44.3902439,25.4645763 43.3184766,25.9642146 41.5780299,26.3297782 C41.5679861,26.379747 41.5572001,26.4297157 41.5463647,26.4796845" id="Fill-35" fill="#2ECBC1"></path>
                <path d="M33.8760026,19.1086918 C34.5295906,20.2905864 33.9573913,22.630515 32.5980213,24.3351367 C31.2386514,26.0397033 29.6068126,26.4634616 28.9532741,25.2815671 C28.2996861,24.0996174 28.8718359,21.7596888 30.2312554,20.0551222 C31.5906253,18.3505005 33.2224145,17.9267972 33.8760026,19.1086918" id="Fill-37" fill="#61F2D9"></path>
                <path d="M33.4634146,26.6341463 C33.4634146,27.3884774 32.8519059,28 32.09753,28 C31.3432161,28 30.7317073,27.3884774 30.7317073,26.6341463 C30.7317073,25.8797533 31.3432161,25.2682927 32.09753,25.2682927 C32.8519059,25.2682927 33.4634146,25.8797533 33.4634146,26.6341463" id="Fill-39" fill="#2ECBC1"></path>
                <path d="M40.9756098,26.6341713 C40.9756098,27.0113282 40.6698261,27.3170732 40.2926829,27.3170732 C39.9154899,27.3170732 39.6097561,27.0113282 39.6097561,26.6341713 C39.6097561,26.2569645 39.9154899,25.9512195 40.2926829,25.9512195 C40.6698261,25.9512195 40.9756098,26.2569645 40.9756098,26.6341713" id="Fill-41" fill="#4CE9D2"></path>
                <path d="M36.8780488,19.804878 C36.8780488,20.182037 36.5722809,20.4878049 36.195122,20.4878049 C35.8178952,20.4878049 35.5121951,20.182037 35.5121951,19.804878 C35.5121951,19.4277191 35.8178952,19.1219512 36.195122,19.1219512 C36.5722809,19.1219512 36.8780488,19.4277191 36.8780488,19.804878" id="Fill-43" fill="#2ECBC1"></path>
                <path d="M45.2924014,41.006296 C42.286054,39.8221048 40.0566463,38.3897733 40.3127082,37.8070315 C40.5688213,37.2243381 43.2134979,37.7119433 46.2197429,38.8961345 C49.2260903,40.0803742 51.4555493,41.5127056 51.1994873,42.095399 C50.9433742,42.6780924 48.2986976,42.1905356 45.2924014,41.006296" id="Fill-45" fill="#FC9C97"></path>
                <path d="M44.359538,39.8289907 C45.5437678,36.8226453 46.9760872,34.5931878 47.5588242,34.8493008 C48.1415128,35.1054137 47.6539116,37.7500886 46.4697303,40.7563316 C45.2855005,43.762677 43.853181,45.9921345 43.270444,45.7360727 C42.6877555,45.4799597 43.1753567,42.8352849 44.359538,39.8289907" id="Fill-47" fill="#FC9C97"></path>
                <path d="M46.2157139,41.0139418 C43.2091742,42.1960572 40.5662068,42.6785951 40.3123556,42.0915837 C40.0585554,41.5046698 42.2900435,40.0706089 45.2964809,38.8884934 C48.3030205,37.706378 50.946039,37.2238888 51.1998392,37.8108027 C51.4536393,38.3977166 49.2222024,39.8318263 46.2157139,41.0139418" id="Fill-49" fill="#FC9C97"></path>
                <path d="M44.3519246,40.7522514 C43.1698134,37.7457648 42.6872773,35.1027992 43.2742378,34.8489481 C43.8611495,34.595097 45.2952539,36.8266347 46.4773651,39.8330701 C47.6594762,42.8396078 48.1419636,45.4826246 47.5550519,45.7364245 C46.9681401,45.9902245 45.5340357,43.7587891 44.3519246,40.7522514" id="Fill-51" fill="#FC9C97"></path>
                <path d="M45.2924014,41.006296 C42.286054,39.8221048 40.0566463,38.3897733 40.3127082,37.8070315 C40.5688213,37.2243381 43.2134979,37.7119433 46.2197429,38.8961345 C49.2260903,40.0803742 51.4555493,41.5127056 51.1994873,42.095399 C50.9433742,42.6780924 48.2986976,42.1905356 45.2924014,41.006296" id="Fill-53" fill="#2ECBC1"></path>
                <path d="M44.359538,39.8289907 C45.5437678,36.8226453 46.9760872,34.5931878 47.5588242,34.8493008 C48.1415128,35.1054137 47.6539116,37.7500886 46.4697303,40.7563316 C45.2855005,43.762677 43.853181,45.9921345 43.270444,45.7360727 C42.6877555,45.4799597 43.1753567,42.8352849 44.359538,39.8289907" id="Fill-55" fill="#2ECBC1"></path>
                <path d="M46.2157139,41.0139418 C43.2091742,42.1960572 40.5662068,42.6785951 40.3123556,42.0915837 C40.0585554,41.5046698 42.2900435,40.0706089 45.2964809,38.8884934 C48.3030205,37.706378 50.946039,37.2238888 51.1998392,37.8108027 C51.4536393,38.3977166 49.2222024,39.8318263 46.2157139,41.0139418" id="Fill-57" fill="#2ECBC1"></path>
                <path d="M44.3519246,40.7522514 C43.1698134,37.7457648 42.6872773,35.1027992 43.2742378,34.8489481 C43.8611495,34.595097 45.2952539,36.8266347 46.4773651,39.8330701 C47.6594762,42.8396078 48.1419636,45.4826246 47.5550519,45.7364245 C46.9681401,45.9902245 45.5340357,43.7587891 44.3519246,40.7522514" id="Fill-59" fill="#2ECBC1"></path>
                <path d="M49.2698945,42.3055973 C49.254361,42.3302285 49.2383249,42.3543571 49.2222887,42.3790387 C49.8909816,43.4044531 50.1709358,44.1701334 49.9024934,44.4385639 C49.6340511,44.7069441 48.8683872,44.4276558 47.8428772,43.758339 C47.8153292,43.7766867 47.7872282,43.7950345 47.7591272,43.8133823 C47.6839734,43.8615892 47.6071607,43.9074335 47.5291415,43.951619 C47.17524,44.1523386 46.7938408,44.3111851 46.3917806,44.4207691 C46.3355786,44.4362516 46.2782204,44.4505779 46.2209125,44.4637984 C46.1933645,44.4706348 46.1652132,44.4769686 46.1371625,44.4826991 C46.1079053,44.4895858 46.0786481,44.4958693 46.0488379,44.5016501 C45.797035,45.7002876 45.4528859,46.4390244 45.0731959,46.4390244 C44.6941091,46.4390244 44.34996,45.7002876 44.098157,44.5016501 C44.0637723,44.4947634 44.0293373,44.4872735 43.9949023,44.4798338 C43.9088901,44.4608828 43.8234309,44.4396698 43.739128,44.4167476 C43.338224,44.3054546 42.9573777,44.1455022 42.6040292,43.9441793 C42.5272165,43.8999939 42.4514594,43.8541495 42.3775121,43.8059427 C42.3528295,43.7904601 42.3281469,43.7744247 42.3041178,43.758339 C41.2785575,44.4276558 40.5123406,44.7069441 40.2444513,44.4385639 C40.1762348,44.3703001 40.1435089,44.2699152 40.1435089,44.1408775 C40.1435089,44.1225297 40.1441122,44.103629 40.1458213,44.0841251 C40.1458213,44.0788972 40.1464246,44.073217 40.1469273,44.0674864 C40.1481338,44.0508478 40.1503959,44.0336561 40.1527084,44.0164143 C40.1550208,43.9997756 40.1573332,43.9831369 40.1607516,43.9659453 C40.1613045,43.9596116 40.1624608,43.9533281 40.1641699,43.9469943 C40.1693478,43.9189448 40.1756315,43.8896889 40.1830715,43.8598298 C40.1882996,43.8403259 40.1934271,43.8208722 40.1992082,43.8007651 C40.2043357,43.7824173 40.2095136,43.7646225 40.2157973,43.7457217 C40.2186627,43.7371259 40.2215281,43.7279269 40.2244438,43.7193311 C40.2462107,43.6522235 40.2726025,43.5816976 40.3029657,43.5077033 C40.3166894,43.474426 40.3316196,43.4399925 40.3471531,43.4050563 C40.355146,43.3867085 40.3637422,43.3677576 40.3723887,43.3488568 C40.390134,43.3110051 40.4085329,43.2719972 40.4279874,43.2329894 C40.4474922,43.1934286 40.4681532,43.1532645 40.4893672,43.1125475 C40.5111844,43.0712273 40.5335546,43.0299574 40.5564778,42.9874811 C40.5679394,42.9663183 40.5800042,42.9451052 40.5920187,42.9238419 C40.6155954,42.882019 40.6402278,42.8395427 40.6654634,42.7959604 C40.6729033,42.7833432 40.6803936,42.7701227 40.6883865,42.7569526 C40.7606247,42.6354048 40.8398503,42.5092325 40.9247063,42.3790387 C40.5673864,41.845043 40.3110089,41.2383097 40.1813623,40.5849781 C38.9826215,40.3332365 38.2439024,39.9891529 38.2439024,39.6100326 C38.2439024,39.2303593 38.9826215,38.8862757 40.1813623,38.6344839 C40.3110089,37.9812528 40.5673864,37.3744189 40.9247063,36.8404735 C40.2554102,35.8150088 39.9760592,35.0493285 40.2444513,34.7809483 C40.5123406,34.5125681 41.2785575,34.7924094 42.3041178,35.461123 C42.8380867,35.1038189 43.4448971,34.8474527 44.098157,34.7178621 C44.34996,33.5191743 44.6941091,32.7804878 45.0731959,32.7804878 C45.4528859,32.7804878 45.797035,33.5191743 46.0488379,34.7178621 C46.4388334,34.7952746 46.8121894,34.9179785 47.1637785,35.0808967 C47.293425,35.1399615 47.4195527,35.20536 47.5429155,35.2758858 C47.5939397,35.3051417 47.6450141,35.3349506 47.694882,35.3665188 C47.7195647,35.3820013 47.744197,35.3974838 47.7694326,35.4135695 C47.7941655,35.4290018 47.8187978,35.4450875 47.8428772,35.461123 C48.8683872,34.7924094 49.6340511,34.5125681 49.9024934,34.7809483 C50.1709358,35.0493285 49.8909816,35.8150088 49.2222887,36.8404735 C49.2389281,36.865708 49.2561205,36.8914954 49.2721567,36.9173331 C49.2887961,36.9431205 49.3048322,36.9689582 49.3209187,36.9952986 C49.3535942,37.0474767 49.3851638,37.1008612 49.414974,37.1541954 C49.6163058,37.5080812 49.7746063,37.8894134 49.8846978,38.2909532 C49.9076712,38.3758054 49.928835,38.4612105 49.9472338,38.5478723 C49.9535678,38.576525 49.9598516,38.6057809 49.9655824,38.6344839 C51.1643232,38.8862757 51.902439,39.2303593 51.902439,39.6100326 C51.902439,39.9891529 51.1643232,40.3332365 49.9655824,40.5849781 C49.9586954,40.6194116 49.9512554,40.6538451 49.9437652,40.6882283 C49.9248636,40.7742869 49.9035994,40.8597423 49.8806762,40.9440415 C49.7694285,41.3449781 49.6094187,41.7257573 49.4074838,42.07904 C49.3639499,42.1558995 49.3180533,42.231603 49.2698945,42.3055973" id="Fill-61" fill="#4CE9D2"></path>
                <path d="M49.8548585,40.4273095 C49.8344683,40.5166429 49.8117133,40.6053982 49.787119,40.6935229 C49.7877497,40.694101 49.7882752,40.6947316 49.7889058,40.6947316 C50.2308149,41.0814399 50.4418634,41.4070338 50.3513165,41.6246393 C50.2608221,41.8422974 49.8800308,41.9220143 49.2942346,41.8812363 L49.2930784,41.8812363 C49.2474634,41.9615837 49.2001141,42.040092 49.1504,42.1180748 C49.1341614,42.1438238 49.1173973,42.1690473 49.1005807,42.1948489 C49.799679,43.2667967 50.0923406,44.0672236 49.8117133,44.3477829 C49.5310861,44.6283948 48.7306152,44.3364323 47.6586085,43.6367419 C47.6298101,43.6558698 47.6004336,43.6751027 47.571057,43.6942831 C47.4924919,43.7434165 47.4115619,43.7914463 47.330632,43.8370063 L47.330632,43.838793 C47.369573,44.4245045 47.288643,44.8052748 47.0703949,44.8951862 C46.8527248,44.9845722 46.5271656,44.7723266 46.1416447,44.3292331 C46.1416447,44.3286025 46.1416447,44.3286025 46.1410141,44.3279719 C46.081683,44.3442096 46.0229299,44.3598167 45.9629682,44.3741626 C45.9342223,44.3813618 45.9047932,44.3879829 45.8754167,44.393921 C45.8448315,44.4011728 45.8142463,44.4077414 45.7831355,44.413732 C45.5199029,45.6668163 45.1601325,46.4390244 44.7631553,46.4390244 C44.3668612,46.4390244 44.0071433,45.6668163 43.7439107,44.413732 C43.7079127,44.4065853 43.6719671,44.3987555 43.6359691,44.3909782 C43.5466308,44.3705892 43.4578706,44.3477829 43.3697936,44.3238206 C43.369163,44.3243986 43.369163,44.3243986 43.3685323,44.3250292 C42.9818553,44.7668615 42.6556655,44.977951 42.4386261,44.887409 C42.2209035,44.796867 42.1406041,44.4167273 42.1819625,43.8309632 L42.1819625,43.8291765 C42.1016632,43.7829859 42.0224674,43.7362698 41.945111,43.6864533 C41.9193605,43.6703208 41.8935575,43.6535576 41.8683852,43.6367419 C40.796326,44.3364323 39.9953296,44.6283948 39.7152804,44.3477829 C39.6439148,44.2764739 39.6097561,44.1715335 39.6097561,44.0366401 C39.6097561,44.0174071 39.6103867,43.9976487 39.6121735,43.9773122 C39.6121735,43.9718471 39.6127516,43.9659091 39.6133296,43.9599185 C39.6145909,43.9425248 39.6169557,43.924553 39.6193205,43.9065287 C39.6217379,43.8891349 39.6241553,43.8717412 39.6277814,43.8537694 C39.6283069,43.8471483 39.6295682,43.8405796 39.6313549,43.8339585 C39.6367678,43.8046361 39.6433368,43.7740526 39.6511145,43.7428384 C39.6565273,43.7224494 39.6619402,43.7020604 39.6679311,43.6810933 C39.6733439,43.6619129 39.6787042,43.6433106 39.6852732,43.6235521 C39.6883212,43.6145137 39.6913167,43.6049498 39.6943121,43.5959639 C39.7171197,43.5258109 39.7446569,43.4520846 39.7764508,43.3747324 C39.7907975,43.339945 39.8064054,43.3039489 39.8226439,43.2674273 C39.8309997,43.2482469 39.8399861,43.2284359 39.849025,43.2086775 C39.8675758,43.169108 39.8867573,43.128908 39.9071474,43.0875519 C39.9275376,43.0461958 39.9491364,43.0042092 39.9713133,42.9616444 C39.9940683,42.9184491 40.0175065,42.8753064 40.0414701,42.8309024 C40.053452,42.8087268 40.0660119,42.7865511 40.0786243,42.7643754 C40.1032186,42.7206546 40.1290216,42.6762506 40.1554027,42.6306906 C40.1631804,42.6175008 40.1710106,42.6036804 40.1793664,42.5899126 C40.913254,42.9634311 41.7436795,43.174468 42.6232935,43.174468 C45.6008329,43.174468 48.0141748,40.7606806 48.0141748,37.7833047 C48.0141748,36.5775671 47.6184063,35.4636326 46.9486846,34.565517 C47.0841635,34.6272622 47.2160688,34.6956285 47.3449787,34.7693548 L47.3449787,34.7705634 C47.3983714,34.8011469 47.4511335,34.8323085 47.5038957,34.8641007 C47.5296987,34.8802332 47.5554491,34.8964709 47.5818302,34.913234 C47.6076332,34.9294191 47.6334362,34.9461823 47.6586085,34.962998 C48.7306152,34.2639381 49.5310861,33.9713976 49.8117133,34.2519044 C50.0923406,34.5325163 49.799679,35.3329432 49.1005807,36.4049435 C49.118028,36.4313231 49.1359482,36.4582808 49.1527648,36.4852384 C49.1701595,36.5122487 49.1869235,36.5392589 49.2036876,36.5667946 C49.2366902,36.621971 49.2691147,36.6771475 49.3008561,36.7328495 L49.3020122,36.7328495 C49.8884917,36.6939107 50.2692304,36.7748362 50.3585161,36.9924943 C50.448485,37.2107304 50.2362278,37.5356937 49.79311,37.921246 C49.7924793,37.9217715 49.7924793,37.9217715 49.7919013,37.922402 C49.8159175,38.0111574 49.8386725,38.0998601 49.858432,38.1898241 C49.8650535,38.219777 49.8716225,38.2503606 49.877666,38.2803661 C51.1307666,38.5435317 51.902439,38.9032824 51.902439,39.3001852 C51.902439,39.6965101 51.1307666,40.0562082 49.877666,40.3193738 C49.8704664,40.3553699 49.8626362,40.3913134 49.8548585,40.4273095" id="Fill-63" fill="#2ECBC1"></path>
                <path d="M44.2212905,35.9383111 C44.629766,36.6904258 44.2721557,38.1794981 43.4225287,39.2642421 C42.5729474,40.3489862 41.5530385,40.6186591 41.1445631,39.8665443 C40.7360877,39.1143779 41.0936979,37.6253056 41.9433249,36.5406133 C42.792952,35.4558692 43.8128151,35.1862481 44.2212905,35.9383111" id="Fill-65" fill="#61F2D9"></path>
                <path d="M44.3902439,41.3170732 C44.3902439,41.8828263 43.93166,42.3414634 43.3658194,42.3414634 C42.8001159,42.3414634 42.3414634,41.8828263 42.3414634,41.3170732 C42.3414634,40.7513201 42.8001159,40.2926829 43.3658194,40.2926829 C43.93166,40.2926829 44.3902439,40.7513201 44.3902439,41.3170732" id="Fill-67" fill="#2ECBC1"></path>
                <path d="M49.8536585,40.975573 C49.8536585,41.3528066 49.5479121,41.6585366 49.1707317,41.6585366 C48.7935513,41.6585366 48.4878049,41.3528066 48.4878049,40.975573 C48.4878049,40.5984129 48.7935513,40.2926829 49.1707317,40.2926829 C49.5479121,40.2926829 49.8536585,40.5984129 49.8536585,40.975573" id="Fill-69" fill="#4CE9D2"></path>
                <path d="M45.7560976,36.5365604 C45.7560976,36.7251316 45.6032304,36.8780488 45.4146591,36.8780488 C45.2260379,36.8780488 45.0731707,36.7251316 45.0731707,36.5365604 C45.0731707,36.3479891 45.2260379,36.195122 45.4146591,36.195122 C45.6032304,36.195122 45.7560976,36.3479891 45.7560976,36.5365604" id="Fill-71" fill="#2ECBC1"></path>
                <path d="M50.1888268,18.8512212 C47.9340883,18.0053538 46.2619934,16.9822083 46.4540436,16.565998 C46.6460938,16.1497877 48.6296489,16.498078 50.8843367,17.3439454 C53.1390753,18.1898128 54.8112209,19.2129126 54.61912,19.6291229 C54.4270697,20.0453332 52.4435146,19.6970429 50.1888268,18.8512212" id="Fill-73" fill="#FC9C97"></path>
                <path d="M50.1244119,17.4083462 C50.9702781,15.1536076 51.9933765,13.481462 52.409632,13.673563 C52.825796,13.8656132 52.4775519,15.8491176 51.6316857,18.1038561 C50.7858194,20.3585946 49.762721,22.0306895 49.3464656,21.8386393 C48.9303016,21.6465891 49.2785456,19.663034 50.1244119,17.4083462" id="Fill-75" fill="#FC9C97"></path>
                <path d="M50.8812714,18.8566498 C48.6264114,19.7010285 46.6441187,20.045672 46.4537776,19.6264041 C46.2634366,19.2071822 47.9370395,18.1828215 50.1918994,17.3384887 C52.4467593,16.49411 54.4290014,16.1494665 54.6193931,16.5686884 C54.8097341,16.9879103 53.1361313,18.012225 50.8812714,18.8566498" id="Fill-77" fill="#FC9C97"></path>
                <path d="M50.1189521,18.1008104 C49.2745804,15.8459406 48.9299398,13.8636393 49.3492042,13.6732974 C49.7683766,13.4829049 50.7927748,15.156515 51.6371006,17.4114354 C52.4815183,19.6662545 52.8261589,21.6485559 52.4068945,21.8388977 C51.9876761,22.0292903 50.9633238,20.3556801 50.1189521,18.1008104" id="Fill-79" fill="#FC9C97"></path>
                <path d="M50.1888268,18.8512212 C47.9340883,18.0053538 46.2619934,16.9822083 46.4540436,16.565998 C46.6460938,16.1497877 48.6296489,16.498078 50.8843367,17.3439454 C53.1390753,18.1898128 54.8112209,19.2129126 54.61912,19.6291229 C54.4270697,20.0453332 52.4435146,19.6970429 50.1888268,18.8512212" id="Fill-81" fill="#2ECBC1"></path>
                <path d="M50.1244119,17.4083462 C50.9702781,15.1536076 51.9933765,13.481462 52.409632,13.673563 C52.825796,13.8656132 52.4775519,15.8491176 51.6316857,18.1038561 C50.7858194,20.3585946 49.762721,22.0306895 49.3464656,21.8386393 C48.9303016,21.6465891 49.2785456,19.663034 50.1244119,17.4083462" id="Fill-83" fill="#2ECBC1"></path>
                <path d="M50.8812714,18.8566498 C48.6264114,19.7010285 46.6441187,20.045672 46.4537776,19.6264041 C46.2634366,19.2071822 47.9370395,18.1828215 50.1918994,17.3384887 C52.4467593,16.49411 54.4290014,16.1494665 54.6193931,16.5686884 C54.8097341,16.9879103 53.1361313,18.012225 50.8812714,18.8566498" id="Fill-85" fill="#2ECBC1"></path>
                <path d="M50.1189521,18.1008104 C49.2745804,15.8459406 48.9299398,13.8636393 49.3492042,13.6732974 C49.7683766,13.4829049 50.7927748,15.156515 51.6371006,17.4114354 C52.4815183,19.6662545 52.8261589,21.6485559 52.4068945,21.8388977 C51.9876761,22.0292903 50.9633238,20.3556801 50.1189521,18.1008104" id="Fill-87" fill="#2ECBC1"></path>
                <g id="Group-91" transform="translate(45.073171, 12.292683)">
                    <mask id="mask-6" fill="white">
                        <use xlink:href="#path-5"></use>
                    </mask>
                    <g id="Clip-90"></g>
                    <path d="M8.82077928,7.62009488 C8.80839913,7.63980661 8.79548764,7.65909328 8.78268242,7.678805 C9.31768568,8.49920582 9.54159111,9.11170375 9.32682468,9.32646057 C9.11211138,9.54116427 8.49958604,9.31774704 7.67920166,8.78228953 C7.65715117,8.79695377 7.63467561,8.81167115 7.61220006,8.8263354 C7.55205271,8.86490874 7.49057701,8.90156935 7.42819804,8.93690169 C7.14510167,9.09751769 6.83995481,9.22460782 6.51828337,9.31227451 C6.47333225,9.32460098 6.42742473,9.33607734 6.38157035,9.34665048 C6.35957299,9.35217614 6.3370443,9.35717048 6.31456875,9.36179291 C6.29118992,9.36731857 6.26775795,9.37231291 6.24390092,9.3768822 C6.04247105,10.3358495 5.7671322,10.9268293 5.46341995,10.9268293 C5.16007963,10.9268293 4.88484705,10.3358495 4.68341718,9.3768822 C4.65584079,9.37140968 4.62831753,9.36545897 4.60079427,9.35945513 C4.53193299,9.34436583 4.46360305,9.32736381 4.39617638,9.3090335 C4.07540821,9.2199854 3.77073955,9.09199203 3.48812138,8.93095098 C3.42659255,8.89561865 3.36607326,8.8589049 3.30688232,8.82038469 C3.28711658,8.80795196 3.26735084,8.79514731 3.24811644,8.78228953 C2.42773205,9.31774704 1.81472852,9.54116427 1.60038715,9.32646057 C1.54581884,9.27184157 1.51967706,9.19156014 1.51967706,9.08832597 C1.51967706,9.07360859 1.52015526,9.05846616 1.52153674,9.04289868 C1.52153674,9.03875444 1.52196181,9.03418515 1.52244001,9.02956272 C1.52334328,9.01627989 1.52514983,9.00257201 1.52706264,8.98875786 C1.52886919,8.97547503 1.53067574,8.96213907 1.53343869,8.94837805 C1.53386376,8.94333058 1.53482016,8.93833623 1.53614851,8.93323563 C1.54034607,8.91076107 1.54534064,8.88738329 1.55134475,8.86347419 C1.55548918,8.84790671 1.55958047,8.8322861 1.5642031,8.81624044 C1.5682944,8.80152307 1.57243883,8.787337 1.57748653,8.77219457 C1.57977128,8.76534063 1.58210916,8.75795538 1.58439391,8.75110144 C1.60182176,8.69738567 1.62291585,8.6409602 1.64719795,8.58182503 C1.65824976,8.55520624 1.67020484,8.52763108 1.68253186,8.499684 C1.68896104,8.48496662 1.69586842,8.46982419 1.70272267,8.45468177 C1.71701563,8.42445004 1.73168054,8.39320882 1.74724871,8.36202073 C1.76287002,8.33035446 1.7793946,8.29826314 1.79634425,8.2656405 C1.81377211,8.23259282 1.83167817,8.19959827 1.85006243,8.16564735 C1.85920143,8.14864532 1.86881863,8.13169643 1.87848896,8.11474754 C1.89729829,8.08122167 1.9170109,8.04727075 1.9372017,8.0124166 C1.94320581,8.00226852 1.94915679,7.99174852 1.95558596,7.98117538 C2.01339543,7.88394505 2.07667767,7.7829424 2.14463568,7.678805 C1.85877636,7.25162913 1.65362713,6.76627446 1.54996327,6.24367473 C0.590953052,6.04225387 0,5.76692734 0,5.46365373 C0,5.15990193 0.590953052,4.88462853 1.54996327,4.68320767 C1.65362713,4.16060794 1.85877636,3.675147 2.14463568,3.24797114 C1.60915422,2.42762345 1.38567386,1.81512552 1.60038715,1.60036869 C1.81472852,1.385665 2.42773205,1.60956041 3.24811644,2.14453974 C3.67531142,1.8586932 4.16074093,1.65360628 4.68341718,1.54989393 C4.88484705,0.590979748 5.16007963,0 5.46341995,0 C5.7671322,0 6.04247105,0.590979748 6.24390092,1.54989393 C6.55590203,1.61184506 6.85461971,1.71003175 7.13590954,1.84030977 C7.23957339,1.88759665 7.34058056,1.93987787 7.43919672,1.99630334 C7.48005654,2.01973426 7.52086322,2.04359022 7.56076663,2.0688276 C7.58047924,2.0812072 7.60024497,2.0935868 7.62043578,2.10644458 C7.64014839,2.11882418 7.65986099,2.13168196 7.67920166,2.14453974 C8.49958604,1.60956041 9.11211138,1.385665 9.32682468,1.60036869 C9.54159111,1.81512552 9.31768568,2.42762345 8.78268242,3.24797114 C8.79596584,3.26816104 8.80972747,3.28882913 8.82258583,3.30949721 C8.83586925,3.33011217 8.84872761,3.35078025 8.8616391,3.37187339 C8.88778088,3.41363461 8.91296626,3.45629907 8.93687642,3.49896352 C9.09792468,3.78204723 9.2245423,4.08718044 9.31263798,4.40835931 C9.33102224,4.47626115 9.34797189,4.54464117 9.36263679,4.61387128 C9.36768449,4.63687715 9.37278533,4.66025493 9.37735483,4.68320767 C10.3363119,4.88462853 10.9268399,5.15990193 10.9268399,5.46365373 C10.9268399,5.76692734 10.3363119,6.04225387 9.37735483,6.24367473 C9.37182892,6.27114363 9.36587795,6.29871879 9.35987384,6.32618768 C9.34473073,6.39504588 9.32778108,6.46337277 9.30939682,6.53084955 C9.22039787,6.85155024 9.09239878,7.1562584 8.93087232,7.43886393 C8.89601661,7.50033687 8.85930122,7.56090659 8.82077928,7.62009488" id="Fill-89" fill="#4CE9D2" mask="url(#mask-6)"></path>
                </g>
                <path d="M54.5212195,18.8776954 C54.5064768,18.9422285 54.4900292,19.0063102 54.4722778,19.0699408 C54.4727291,19.070392 54.4731303,19.0708433 54.4735816,19.0708433 C54.7927053,19.3501356 54.9451466,19.5852526 54.8797573,19.7423984 C54.8144182,19.8995943 54.539372,19.9571576 54.1163475,19.9277241 L54.1154449,19.9277241 C54.0825497,19.9857888 54.0483507,20.0424496 54.0124467,20.0988094 C54.0007128,20.1174122 53.9885777,20.1356138 53.9764927,20.1542166 C54.4813541,20.9284128 54.6927159,21.5065028 54.4900292,21.7091777 C54.2873926,21.9118025 53.7093193,21.7009544 52.935028,21.1956209 C52.9142178,21.2094601 52.8930064,21.2232994 52.871795,21.2371888 C52.8150808,21.2726895 52.7566115,21.3072876 52.6981924,21.3401809 L52.6981924,21.3415348 C52.7262737,21.7645347 52.6678045,22.0395649 52.5101983,22.1044991 C52.3530434,22.1690322 52.1178626,22.0156972 51.8394567,21.6957396 C51.8394567,21.6952883 51.8394567,21.6952883 51.8390054,21.6948872 C51.7961313,21.7065703 51.7537085,21.7178523 51.7103831,21.7282318 C51.689623,21.7333964 51.6683615,21.7381599 51.6472002,21.7425223 C51.6250862,21.7476869 51.6030223,21.7524505 51.580457,21.7567627 C51.3903567,22.66178 51.1305547,23.2195122 50.843925,23.2195122 C50.5576463,23.2195122 50.2978443,22.66178 50.107744,21.7567627 C50.0817688,21.7515479 50.0557435,21.745932 50.0298185,21.740316 C49.9652816,21.7256244 49.9011961,21.7091777 49.8375619,21.6918285 L49.8366593,21.692731 C49.5573508,22.0118363 49.3217689,22.1642186 49.1650653,22.0988331 C49.0078603,22.0334977 48.9498423,21.7589689 48.9796787,21.3358687 L48.9796787,21.3346151 C48.9216607,21.3012706 48.8644953,21.2674747 48.8086336,21.2315227 C48.7900297,21.2198396 48.7713757,21.2077553 48.7532232,21.1956209 C47.9789319,21.7009544 47.4004073,21.9118025 47.1981719,21.7091777 C47.1466728,21.6575813 47.1219512,21.5818665 47.1219512,21.48439 C47.1219512,21.4705508 47.1224025,21.4562602 47.1237564,21.4415686 C47.1237564,21.4376575 47.1241075,21.4333452 47.1245588,21.4289828 C47.1254614,21.4164473 47.1271663,21.4034604 47.1289214,21.3904235 C47.1306263,21.3778879 47.1323313,21.3653022 47.1349388,21.3523655 C47.1353901,21.347602 47.1362927,21.3428385 47.1375464,21.3380248 C47.1414577,21.3168648 47.1462215,21.2947521 47.1518377,21.2722382 C47.1557491,21.2575465 47.1596102,21.2428047 47.1639729,21.2276116 C47.167834,21.2137723 47.1717955,21.2003342 47.1765091,21.1860437 C47.1786654,21.1795753 47.1808718,21.1726557 47.183028,21.1661874 C47.1994756,21.1154935 47.2194334,21.0621923 47.2423497,21.006384 C47.2527799,20.9812628 47.2640124,20.9552891 47.2756963,20.9288641 C47.2817638,20.9150249 47.2882827,20.9007343 47.2947514,20.8864438 C47.3081903,20.8578627 47.3220805,20.8288303 47.3367731,20.7989456 C47.3515157,20.7691109 47.3670607,20.7387749 47.383057,20.7080377 C47.3995548,20.6768492 47.4164036,20.6457109 47.4337538,20.6136198 C47.4424289,20.5976245 47.4515052,20.5815789 47.4605814,20.5655836 C47.478383,20.5339438 47.4969868,20.5019531 47.516042,20.4690096 C47.5216582,20.4594826 47.5272745,20.4495544 47.533342,20.439526 C48.0633763,20.7092912 48.6631625,20.8617237 49.2984013,20.8617237 C51.448826,20.8617237 53.1917712,19.1184784 53.1917712,16.9681284 C53.1917712,16.0973582 52.905994,15.2928259 52.422344,14.6441858 C52.5201772,14.6887623 52.6154529,14.7381524 52.7085725,14.7914035 L52.7085725,14.7922559 C52.747084,14.8143686 52.7851943,14.8368825 52.8233046,14.8598476 C52.8419085,14.8715308 52.8605624,14.8832139 52.8796176,14.8953483 C52.8982215,14.9070315 52.9168253,14.9191659 52.935028,14.9312502 C53.7093193,14.4264181 54.2873926,14.2150685 54.4900292,14.4177435 C54.6927159,14.6203683 54.4813541,15.1984582 53.9764927,15.9726544 C53.989029,15.9917085 54.0020166,16.0112138 54.0141517,16.030669 C54.026688,16.0501743 54.0388231,16.0696797 54.0509582,16.0895861 C54.0747772,16.1293991 54.0980947,16.169212 54.1211113,16.2095264 L54.1219638,16.2095264 C54.5454396,16.1813966 54.8204356,16.2398123 54.8849724,16.3970082 C54.9499104,16.5546053 54.7966166,16.7893211 54.4765903,17.0677109 L54.4757378,17.0686134 C54.4930379,17.1326952 54.5095356,17.196777 54.523827,17.2617112 C54.5285407,17.2833726 54.5333546,17.3054854 54.5376671,17.3270967 C55.4427369,17.5171859 56,17.777023 56,18.0636862 C56,18.3498981 55.4427369,18.6096851 54.5376671,18.7997743 C54.5325021,18.825748 54.5268357,18.8517217 54.5212195,18.8776954" id="Fill-92" fill="#2ECBC1"></path>
                <path d="M50.4014276,15.3287721 C50.7282047,15.8659791 50.4420997,16.929653 49.762413,17.7044145 C49.0827263,18.4792248 48.2668705,18.6718656 47.9400451,18.1346586 C47.613268,17.5974027 47.8993247,16.5337777 48.5790114,15.7589673 C49.2587464,14.984157 50.0746022,14.791565 50.4014276,15.3287721" id="Fill-94" fill="#61F2D9"></path>
                <path d="M50.5365854,19.1219814 C50.5365854,19.4991269 50.2308207,19.804878 49.8535981,19.804878 C49.476436,19.804878 49.1707317,19.4991269 49.1707317,19.1219814 C49.1707317,18.7447756 49.476436,18.4390244 49.8535981,18.4390244 C50.2308207,18.4390244 50.5365854,18.7447756 50.5365854,19.1219814" id="Fill-96" fill="#2ECBC1"></path>
                <path d="M53.9512195,19.4634146 C53.9512195,19.6519825 53.7983349,19.804878 53.6097804,19.804878 C53.4211773,19.804878 53.2682927,19.6519825 53.2682927,19.4634146 C53.2682927,19.2747981 53.4211773,19.1219512 53.6097804,19.1219512 C53.7983349,19.1219512 53.9512195,19.2747981 53.9512195,19.4634146" id="Fill-98" fill="#4CE9D2"></path>
                <path d="M51.902439,16.0487805 C51.902439,16.2373518 51.7496278,16.3902439 51.5610086,16.3902439 C51.3724556,16.3902439 51.2195122,16.2373518 51.2195122,16.0487805 C51.2195122,15.8602092 51.3724556,15.7073171 51.5610086,15.7073171 C51.7496278,15.7073171 51.902439,15.8602092 51.902439,16.0487805" id="Fill-100" fill="#2ECBC1"></path>
            </g>
        </g>
    </g>
</svg>