<svg width="290" height="262" viewBox="0 0 290 262" xmlns="http://www.w3.org/2000/svg" xmlns:xlink="http://www.w3.org/1999/xlink">
    <defs>
        <path id="uhnp34wa1a" d="M0 0h290v261.909H0z"/>
        <path d="M14.725 0C22.857 0 29.45 6.593 29.45 14.725c0 8.133-6.593 14.725-14.725 14.725C6.592 29.45 0 22.858 0 14.725" id="biz21k60cc"/>
        <path id="7qd6uvidoe" d="M0 0h111.98v134.317H0z"/>
        <path d="M28.763 0c.2.473.297.981.257 1.472-.026.372-.133.731-.327 1.062-.447.765-1.274 1.243-2.132 1.469-.859.225-1.756.23-2.64.252A55.705 55.705 0 0 0 0 10.363c.195-.323.624-.681.788-.853a16.08 16.08 0 0 1 2.591-2.181c2.155-1.46 4.605-2.447 7.117-3.083 4.224-1.08 8.617-1.252 12.955-1.708 1.425-.15 2.911-.353 4.097-1.163" id="v2iij3s0tg"/>
        <path d="M25.683 0c.977 1.292 1.468 3.707-1.58 4.866 0 0-3.472.41-7.27 1.07l-.415.072-.417.075c-.21.038-.418.076-.627.116l-.418.08c-1.736.334-3.432.714-4.794 1.126-.938.283-1.998.649-3.071 1.042l-.379.14-.568.213a155.817 155.817 0 0 0-6.123 2.486c-.16-.72.627-1.436 1.246-1.772a47.18 47.18 0 0 1 3.892-1.897 48.05 48.05 0 0 1 8.223-2.703 48.526 48.526 0 0 1 4.834-.858c1.588-.194 3.22-.318 4.685-.968" id="mxotjf6l2i"/>
        <path d="M26.643 0c.686 1.265.5 3.256-.91 3.963-1.15.574-3.923 2.093-6.841 3.544l-.549.27c-2.29 1.125-4.611 2.168-6.26 2.648-.69.202-3.24 1.144-5.92 2.15l-1.186.446c-1.813.684-3.57 1.35-4.73 1.792-.753-.61.42-1.46.835-1.778 1.99-1.526 3.883-2.115 6.215-3.03 3.512-1.388 7.678-2.73 11.07-4.388" id="zqx68ga9uk"/>
        <path d="M14.725 0C22.857 0 29.45 6.592 29.45 14.725c0 8.132-6.593 14.725-14.725 14.725C6.592 29.45 0 22.857 0 14.725" id="f8ebf45w6m"/>
    </defs>
    <g fill="none" fill-rule="evenodd">
        <g>
            <mask id="uv0d8bbq2b" fill="#fff">
                <use xlink:href="#uhnp34wa1a"/>
            </mask>
            <path d="M.34 96.563c.059.66.135 1.33.218 2.001.217 1.802.453 3.603.712 5.404 1.225 8.455 2.932 16.837 5.292 25.108a160.949 160.949 0 0 0 3.074 9.649c1.907 5.398 4.132 10.75 6.104 16.142 2.296 6.252 4.256 12.55 5.016 19.056 2.42 20.775-7.476 42.792 1.878 62.083 4.603 9.484 13.363 16.095 23.883 20.487 8.806 3.667 18.29 5.416 27.821 5.416h139.35c.028 0 .052 0 .082-.006 18.39-.942 38.536-2.55 51.504-13.705 8.443-7.252 12.227-17.254 14.606-27.427.589-2.52 1.09-5.051 1.554-7.553a506.65 506.65 0 0 0 3.05-18.231 506.676 506.676 0 0 0 5.18-56.156c.224-6.064.336-12.127.336-18.19.006-6.953-.136-13.9-.418-20.846a218.58 218.58 0 0 0-.524-8.848c-.695-8.683-2.013-17.484-4.58-25.785-3.762-12.157-10.202-23.265-21.317-31.424-12.827-9.42-29.858-13.281-46.265-16.86-18.768-4.104-37.706-8.218-56.779-11.368a501.49 501.49 0 0 0-4.233-.677c-1.09-.177-2.178-.342-3.262-.506-15.012-2.26-30.1-3.845-45.228-4.28A126.318 126.318 0 0 0 104.079 0C90.074 0 76.217 2.555 63.33 7.282 21.958 22.452-3.256 58.433.34 96.562" fill="#441B5B" mask="url(#uv0d8bbq2b)"/>
        </g>
        <path d="M87.67 227.295s-1.36-17.496 1.5-30.74l6.884 1.881-4.552 27.045-3.831 1.814z" fill="#B0203D"/>
        <g transform="translate(35.39 137.326)">
            <mask id="nvlapt8zld" fill="#fff">
                <use xlink:href="#biz21k60cc"/>
            </mask>
            <path d="M29.45 14.725c0 8.133-6.593 14.725-14.725 14.725C6.592 29.45 0 22.858 0 14.725 0 6.593 6.592 0 14.725 0 22.857 0 29.45 6.593 29.45 14.725" mask="url(#nvlapt8zld)"/>
        </g>
        <path d="M64.84 152.051c0 8.133-6.593 14.725-14.726 14.725-8.132 0-14.724-6.592-14.724-14.725 0-8.132 6.592-14.725 14.724-14.725 8.133 0 14.726 6.593 14.726 14.725M64.84 67.68c0 8.133-6.593 14.726-14.726 14.726-8.132 0-14.724-6.593-14.724-14.725 0-8.133 6.592-14.725 14.724-14.725 8.133 0 14.726 6.592 14.726 14.725" fill="#FF9018"/>
        <path d="m70.709 68.718 46.388-.089 46.152-.088 26.035-.05c.808-.001.81-1.622 0-1.62a551791877.98 551791877.98 0 0 1-92.541.176l-26.034.05c-.81.001-.812 1.622 0 1.62M95.124 110.757l50.323-.074 50.067-.075 28.242-.041c.879-.002.88-1.367 0-1.366l-50.323.075-50.067.074-28.242.042c-.879.002-.88 1.366 0 1.365M70.709 153.088l46.388-.088 46.152-.089 26.035-.049c.808-.002.81-1.623 0-1.621l-46.39.088-46.151.089-26.034.05c-.81 0-.812 1.622 0 1.62" fill="#FFF"/>
        <g transform="translate(97.9 127.591)">
            <mask id="8vzr9nnc4f" fill="#fff">
                <use xlink:href="#7qd6uvidoe"/>
            </mask>
            <path d="M90.99 120.22c.534 4.572 1.269 9.273 2.226 14.098H8.7s.491-2.745 1.102-7.505c.757-5.88 1.69-14.843 2.096-25.514.865-22.791-.692-53.4-11.573-78.503-4.004-9.245 30.36-18.765 30.36-18.765L72.965 0s10.05 2.523 19.98 6.813c9.888 4.329 14.428 5.593 19.036 14.303 0 0-20.36 27.334-22.056 73.153a168.953 168.953 0 0 0 1.065 25.952" fill="#FCF8E8" mask="url(#8vzr9nnc4f)"/>
        </g>
        <path d="M188.889 247.812c-.573-.152-1.146-.302-1.713-.46-15.291-4.139-31.204-6.996-46.954-5.267-11.644 1.28-23.25 5.31-32.521 12.319.757-5.879 1.69-14.843 2.096-25.514 4.587-4.647 11.077-7.235 17.447-9.018a106.377 106.377 0 0 1 43.155-2.891c5.998.838 11.99 2.216 17.425 4.879a168.953 168.953 0 0 0 1.065 25.952" fill="#E6E7E8"/>
        <path d="M131.604 137.187c.169-.195.326-.397.486-.598l-.178.226-.308.372M132.09 136.59l.244-.31c.038-.05.07-.103.108-.152 5.116-6.921 5.295-19.964 4.911-25.665.302 2.1 2.093 16.867-5.263 26.126M170.864 127.591l-.049.772a125.615 125.615 0 0 1-1.529-1.588c.497.276 1.016.551 1.578.816" fill="#250D60"/>
        <path d="M103.455 141.962c-12.427 7.07-14.968 32.808-17.321 55.956 0 0 9.62 3.507 26.714 1.573" fill="#FCF8E8"/>
        <path d="M170.297 133.891c-2.367 20.576-10.018 45.025-18.236 43.772-11.131-1.703-18.749-26.498-21.9-38.968.379-.352.741-.718 1.087-1.102.102-.113.205-.228.302-.34.017-.022.038-.044.054-.066.168-.194.325-.4.487-.6l.242-.307c.04-.05.07-.103.109-.152 5.117-6.921 5.295-19.964 4.91-25.665-.004-.076-.01-.15-.015-.227v-.016l-.032-.41v-2.978h25.486v9.51c0 .546.016 1.059.065 1.572 0 0 .525 9.661 7.44 15.977" fill="#B0203D"/>
        <path d="M170.297 133.891c-2.367 20.576-10.018 45.025-18.236 43.772-11.131-1.703-18.749-26.498-21.9-38.968.379-.352.741-.718 1.087-1.102.102-.113.205-.228.302-.34.017-.022.038-.044.054-.066.168-.194.325-.4.487-.6l.242-.307c.04-.05.07-.103.109-.152 5.117-6.921 5.295-19.964 4.91-25.665-.004-.076-.01-.15-.015-.227v-.016l-.032-.41v-2.978h25.486v9.51c0 .546.016 1.059.065 1.572 0 0 .525 9.661 7.44 15.977" fill="#B0203D"/>
        <path d="M163.964 106.849c-.098.145-.2.275-.297.42-.13.212-.26.396-.373.558-.168.242-.34.486-.503.729-.13.178-.254.362-.378.546 0 .016-.016.016-.038.016-1.14 1.6-2.366 3.133-3.653 4.49 0 0-.016 0-.016.016-1.08 1.124-2.22 2.123-3.414 2.907-.962.632-1.962 1.13-2.994 1.443a8.721 8.721 0 0 1-2.528.383c-3.323 0-8.726-4.047-12.433-8.12a.093.093 0 0 0-.021-.028 28.165 28.165 0 0 1-2.173-2.642c-1.767-2.47-3.074-5.652-4.004-9.018l-.016-.016c-2.707-9.634-2.577-20.77-2.577-20.77 5.474-13.859 16.09-22.45 16.09-22.45 19.836 5.922 24.86 18.857 24.86 18.857.314 10.385-2.203 27.68-5.532 32.679" fill="#D84B5D"/>
        <path d="M212.187 94.616c-.049.027-.097.049-.146.07.016.01.028.016.043.033 2.2 1.426 3.486 4.155 3.167 6.764-.314 2.62-2.226 4.987-4.728 5.84 2.62 2.097 4.052 5.56 3.783 8.911-.271 3.344-2.508 6.095-4.972 8.37-6.04 5.576-13.972 17.533-29.76 14.016-3.95-.881-6.97-2.621-9.277-4.729-6.916-6.316-7.44-15.977-7.44-15.977a16.45 16.45 0 0 1-.066-1.572v-7.786c.163-.243.335-.486.503-.73.113-.162.243-.345.373-.556.097-.146.2-.275.296-.422 1.849-2.782 3.454-9.364 4.453-16.447.438-3.08.762-6.257.94-9.255 0-.017 0-.038.006-.06l.032-.605c0-.032.006-.07.006-.103.016-.19.021-.367.027-.535.08-5.716-6.852-4.549-7.479-6.305-.48-1.34.2-2.777.697-4.106.503-1.335.746-3.048-.319-3.988-.772-.692-1.95-.664-2.944-.383-1 .28-1.94.772-2.966.907a4.396 4.396 0 0 1-3.836-1.475c-.232-.27-.4-.583-.514-.924-.907-2.745-3.225-4.857-6.116-4.744a7.187 7.187 0 0 0-1.675.26c-1.367.378-2.566 1.313-3.21 2.582-1.837 3.636 2.67 5.56 2.367 8.58-.146 1.464-1.442 2.578-2.815 3.113-1.372.54-2.869.66-4.28 1.086-1.41.427-2.825 1.274-3.317 2.663-.832 2.345 1.33 4.923.67 7.321-.48 1.746-2.275 2.756-3.955 3.432-.19.075-.378.151-.573.227.373 3.28.984 6.959 1.961 10.444l.017.016c.459 1.664 1.01 3.29 1.67 4.803.67 1.54 1.441 2.967 2.334 4.215.616.865 1.35 1.745 2.171 2.642 0 0 .016.087.038.254.384 5.7.206 18.744-4.911 25.665-.038.05-.07.103-.109.152l-.242.308c-.162.2-.32.405-.487.6-.016.02-.037.042-.054.064a20.321 20.321 0 0 1-1.388 1.443c-4.226 3.944-10.72 6.305-20.624 5.127-4.02-.48-12.368-6.305-15.167-15.999-1.124-3.89.087-8.817 4.03-9.725-3.08-1.345-6.25-2.75-8.547-5.209-2.302-2.453-3.507-6.257-1.983-9.25 1.292-2.545 4.382-4.458 4.052-7.289-.14-1.237-.923-2.264-1.869-3.21-.016-.015-.033-.032-.054-.048-1.88-1.88-4.372-3.469-3.777-5.873.902-3.62 7.537-2.718 8.689-6.268 1.037-3.21-3.718-6.078-2.875-9.342.545-2.14 3.123-2.945 5.306-3.23 2.188-.293 4.727-.628 5.852-2.525 2.253-3.803-3.718-9.06-1.097-12.62 2.27-3.091 7.699-.368 10.806-2.617 1.686-1.215 2.129-3.506 3.247-5.262 0 0 2.07-8.505 12.395-8.04 4.09.184 5.123 3.847 8.25-1.421 2.275-3.82 6.28-7.17 17.48-3.307 2.053.708 3.582 3.29 2.432 5.133 3.457-.621 11.805-1.723 15.231-.956 8.526 1.907 2.016 5.987 10.93 8.03 2.616.599 3.415 4.505 2.805 7.115 4.111-.265 8.305 1.205 11.346 3.971 3.836 3.496 3.875 10.65 3.091 15.777-.189 1.244-.465 2.594.157 3.691.588 1.032 1.815 1.513 2.977 1.783s2.393.416 3.383 1.08c.988.665 1.55 2.189 1.355 2.718 3.442-.583 7.144 1.724 8.132 5.074.357 1.21.346 2.496.022 3.712-.535 2.102-1.972 3.993-3.95 4.9" fill="#FFB74C"/>
        <path d="M220.33 244.78c-4.577 5.69-60.094-20.51-61.288-22.093-1.837-2.437-2.518-4.7-2.345-6.792 1.021-12.313 31.732-18.581 31.732-18.581l32.063-4.307c.135 1.254 1.588 12.25 2.275 23.894.68 11.73.583 24.12-2.437 27.88" fill="#D84B5D"/>
        <path d="M199.372 138.425c15.79 7.106 19.56 33.518 23.993 55.482 0 0-28.586 7.199-35.004 4.512-7.667-3.21-2.243-65.959 11.01-59.994" fill="#FCF8E8"/>
        <path d="M192.585 210.58s9.913 2.983 15.285 5.966" fill="#B0203D"/>
        <path d="M197.75 162.215v61.256a2.97 2.97 0 0 1-.989 2.226 2.97 2.97 0 0 1-2.032.794h-94.08v-64.276a2.578 2.578 0 0 1 2.583-2.578h91.94a2.573 2.573 0 0 1 2.578 2.578" fill="#444"/>
        <path d="M115.954 171.147h-11.066a.825.825 0 0 1-.825-.825v-6.156c0-.456.37-.826.825-.826h11.066c.456 0 .825.37.825.826v6.156c0 .456-.369.825-.825.825" fill="#8E8E8E"/>
        <path d="M109.947 167.146a2.086 2.086 0 1 1-4.172-.001 2.086 2.086 0 0 1 4.172.001M115.067 167.146a2.086 2.086 0 1 1-4.172-.001 2.086 2.086 0 0 1 4.172.001" fill="#444"/>
        <path d="M100.651 191.769v12.035L94 209.148l-.704.566-2.622 2.273h-.005l-.004.005s.45-1.536 1.062-3.672c.22-.779.464-1.636.712-2.53 1.048-3.737 2.22-8.072 2.45-9.607.615-4.056.455-10.257.455-10.257s5.308 1.009 5.308 5.843" fill="#D84B5D"/>
        <path d="M125.298 232.47a9.075 9.075 0 0 1-.832.385c-3.556 1.433-11.098 3.98-14.44 5.148-2.898 1.013-4.76 2.862-7.105 3.477a5.898 5.898 0 0 1-1.127.19c-.181.005-.363 0-.54-.004-.133-.005-.266-.005-.398-.01a10.568 10.568 0 0 1-.39-.022h-.004c-.128-.013-.252-.021-.38-.034h-.009l-.367-.04a11.738 11.738 0 0 1-.916-.142 1.956 1.956 0 0 1-.225-.04c-.097-.022-.186-.04-.27-.057a12.321 12.321 0 0 1-.756-.19c-.036-.013-.071-.023-.106-.036-.01 0-.018 0-.023-.004h-.009a.087.087 0 0 0-.044-.013 11.353 11.353 0 0 1-.658-.226c-5.516-2.061-7.852-7.714-9.028-13.557.265-1.566.535-2.663.61-3.083.102-.557.248-1.309.411-2.167.752-3.915 1.973-10.054 1.973-10.054l.005-.004h.004c.03-.022.133-.098.301-.208a27.997 27.997 0 0 1 2.69-1.619c.013-.009.03-.013.043-.022 3.23-1.69 8.072-3.348 9.571.862 1.058 2.964 2.673 5.485 4.557 7.652.283.327-.323.863-.032 1.172.668.704 2.257 1.142 2.964 1.77a42.557 42.557 0 0 0 3.636 2.875c2.83 2.004 4.747-3.947 6.971-3.039 1.558.636-11.239 6-14.775 9.001-1.245 1.058 18.132-1.425 18.406.097a30.822 30.822 0 0 1 .292 1.942" fill="#D84B5D"/>
        <path d="M132.771 202.866c-.026.372-.132.73-.327 1.062-.314.54-.822.938-1.398 1.203-.234.11-.482.2-.734.265-.517.137-1.048.19-1.58.217-.353.022-.707.027-1.06.036a55.692 55.692 0 0 0-23.92 6.108c-.098.049-.195.093-.288.146-.005.004-.01.004-.01.004l-12.79.085c1.733-3.928 5.626-6.44 9.513-8.267a56.123 56.123 0 0 1 26.247-5.233c.77.036 1.552.093 2.309.243.828.155 1.615.421 2.313.885.027.013.049.031.076.048a4.03 4.03 0 0 1 1.393 1.726c.199.473.296.982.256 1.472" fill="#D84B5D"/>
        <path d="M131.887 213.403s-.305.035-.841.106c-.557.07-1.357.176-2.313.313-3.091.443-7.767 1.208-10.788 2.12-3.972 1.198-10.88 4.144-10.88 4.144l-.32-.717-3.29-7.461s.005 0 .01-.005c.397-.16 14.197-5.64 25.268-4.768a24.36 24.36 0 0 1 2.313.287c.46.08.916.173 1.358.28.328.078.726.388 1.062.835.977 1.292 1.468 3.707-1.58 4.866" fill="#D84B5D"/>
        <path d="M133.475 219.245c-.606.3-1.668.871-2.969 1.553-.578.305-1.202.632-1.853.969h-.004c-2.985 1.539-6.546 3.277-8.824 3.94-1.256.368-8.705 3.198-11.836 4.388-.854.332-1.39.535-1.39.535l1.203-10.805s13.77-3.455 20.93-4.959a68.44 68.44 0 0 1 2.314-.46c.854-.154 1.46-.238 1.734-.23.721.027 1.27.478 1.606 1.106.686 1.265.5 3.256-.911 3.963" fill="#D84B5D"/>
        <path d="M133.068 226.429s-3.98 3.936-7.36 5.82c-.429.24-.845.447-1.243.607-3.556 1.432-11.098 3.98-14.441 5.148-2.898 1.013-4.76 2.862-7.104 3.476a5.855 5.855 0 0 1-1.128.19l1.88-4.391 2.928-6.848s12.296-2.534 14.96-3.675c3.348-1.442 7.16-3.53 8.111-4.255.907-.695 3.278-.456 4.122.756.496.712.46 1.77-.725 3.172" fill="#D84B5D"/>
        <g transform="translate(103.751 201.394)">
            <mask id="gy7ohjsgyh" fill="#fff">
                <use xlink:href="#v2iij3s0tg"/>
            </mask>
            <path d="M29.02 1.472c-.026.372-.133.731-.327 1.062-.447.765-1.274 1.243-2.132 1.469-.859.225-1.756.23-2.64.252A55.705 55.705 0 0 0 0 10.363c.195-.323.624-.681.788-.853a16.08 16.08 0 0 1 2.591-2.181c2.155-1.46 4.605-2.447 7.117-3.083 4.224-1.08 8.617-1.252 12.955-1.708 1.425-.15 2.911-.353 4.097-1.163A3.76 3.76 0 0 0 28.763 0c.2.473.297.981.257 1.472" mask="url(#gy7ohjsgyh)"/>
        </g>
        <g transform="translate(107.784 208.537)">
            <mask id="uvxbxm6kyj" fill="#fff">
                <use xlink:href="#mxotjf6l2i"/>
            </mask>
            <path d="M.021 11.286c-.16-.72.627-1.436 1.246-1.772a47.18 47.18 0 0 1 3.892-1.897 48.05 48.05 0 0 1 8.223-2.703 48.526 48.526 0 0 1 4.834-.858c1.588-.194 3.22-.318 4.685-.968C24.214 2.5 25.386 1.38 25.683 0c.977 1.292 1.468 3.707-1.58 4.866 0 0-9.093 1.074-13.941 2.539C6.19 8.603.022 11.286.022 11.286" mask="url(#uvxbxm6kyj)"/>
        </g>
        <g transform="translate(107.743 215.282)">
            <mask id="m2ky7hcp5l" fill="#fff">
                <use xlink:href="#zqx68ga9uk"/>
            </mask>
            <path d="M25.732 3.963c-2.118 1.057-9.757 5.33-13.65 6.462-1.256.367-8.704 3.198-11.836 4.388-.752-.61.42-1.46.836-1.778 1.99-1.526 3.883-2.115 6.215-3.03 3.512-1.388 7.678-2.73 11.07-4.388C21.703 3.981 24.862 2.795 26.644 0c.686 1.265.5 3.256-.91 3.963" mask="url(#m2ky7hcp5l)"/>
        </g>
        <g transform="translate(231.075 95.254)">
            <mask id="hixqrnu40n" fill="#fff">
                <use xlink:href="#f8ebf45w6m"/>
            </mask>
            <path d="M29.45 14.725c0 8.132-6.593 14.725-14.725 14.725C6.592 29.45 0 22.857 0 14.725 0 6.592 6.592 0 14.725 0 22.857 0 29.45 6.592 29.45 14.725" mask="url(#hixqrnu40n)"/>
        </g>
        <path d="M260.525 109.98c0 8.131-6.592 14.724-14.725 14.724-8.132 0-14.725-6.593-14.725-14.725s6.593-14.725 14.725-14.725c8.133 0 14.725 6.593 14.725 14.725" fill="#FF9018"/>
        <g fill="#FFF">
            <path d="M39.73 60.284c-.446-7.82 10.38-12.68 16.53-8.039 10.095 7.617-.004 14.544-7.027 18.014-4.515 2.232-8.752 3.625-7.191 9.806-7.397-7.825 5.86-11.004 9.736-14.622 7.662-7.154-1.851-12.643-8.563-7.164-.241.196-.462 2.615-.455 2.89l-3.03-.885zM41.318 81.792c-2.251 6.958 7.673 1.043 1.238-.466l-1.238.466z"/>
        </g>
        <g fill="#FFF">
            <path d="M39.73 144.762c-.446-7.819 10.38-12.68 16.53-8.039 10.095 7.617-.004 14.544-7.027 18.014-4.515 2.232-8.752 3.625-7.191 9.806-7.397-7.825 5.86-11.004 9.736-14.621 7.662-7.155-1.851-12.644-8.563-7.165-.241.196-.462 2.616-.455 2.891l-3.03-.886zM41.318 166.27c-2.251 6.959 7.673 1.044 1.238-.466l-1.238.466z"/>
        </g>
        <g fill="#FFF">
            <path d="M235.166 102.523c-.448-7.819 10.38-12.68 16.53-8.039 10.093 7.617-.006 14.544-7.029 18.014-4.514 2.232-8.751 3.625-7.19 9.806-7.397-7.825 5.86-11.004 9.736-14.622 7.662-7.154-1.852-12.643-8.564-7.164-.24.196-.46 2.615-.455 2.891l-3.028-.886zM236.752 124.031c-2.25 6.959 7.674 1.044 1.239-.466l-1.239.466z"/>
        </g>
    </g>
</svg>
