<?xml version="1.0" encoding="utf-8"?>
<!-- Generator: Adobe Illustrator 24.3.0, SVG Export Plug-In . SVG Version: 6.00 Build 0)  -->
<svg version="1.1" id="Layer_1" xmlns="http://www.w3.org/2000/svg" xmlns:xlink="http://www.w3.org/1999/xlink" x="0px" y="0px"
	 viewBox="0 0 200 54.9" style="enable-background:new 0 0 200 54.9;" xml:space="preserve">
<style type="text/css">
	.st0{fill-rule:evenodd;clip-rule:evenodd;fill:#FFFFFF;}
</style>
<g>
	<path class="st0" d="M76,26v9.7c-0.7,0.2-2.1,0.6-4.7,0.6c-6.4,0-10.5-3.8-10.5-9.6s4.2-9.6,10.8-9.6c2.5,0,4.4,0.3,6.3,1.1
		l0.6,0.2l1.3-3.8l-0.5-0.2c-1.4-0.7-4.1-1.4-7.5-1.4c-10.7,0-15.6,7.1-15.6,13.6c0,3.8,1.4,7.3,3.9,9.6c2.7,2.5,6.3,3.8,11,3.8
		c4.1,0,7.4-1,9.1-1.6l0.3-0.1V26H76L76,26z"/>
	<polygon class="st0" points="88.4,39.9 92.9,39.9 92.9,13.4 88.4,13.4 	"/>
	<polygon class="st0" points="106.1,35.9 106.1,13.4 101.6,13.4 101.6,39.9 118.2,39.9 118.2,35.9 	"/>
	<polygon class="st0" points="128.5,36 128.5,28.1 139.5,28.1 139.5,24.1 128.5,24.1 128.5,17.3 140.1,17.3 140.1,13.4 123.9,13.4 
		123.9,39.9 140.8,39.9 140.8,36 	"/>
	<path class="st0" d="M160.4,13.4h-4.6l-10,26.4h4.6l3-8.1h9.3l3.1,8.1h4.7L160.4,13.4L160.4,13.4z M158,18.7
		c0.2,0.8,2.7,7.5,3.5,9.5h-6.9C154.6,28,157.7,19.5,158,18.7L158,18.7z"/>
	<path class="st0" d="M196.3,17c-2.6-2.5-6.7-3.8-12.1-3.8h-8.5V17h8.7c4,0,6.9,0.9,8.8,2.8c1.5,1.6,2.3,3.6,2.3,6.3
		c0,3-0.9,5.4-2.6,7.1c-2.1,2.1-5.1,3.1-9.1,3.1c-1.1,0-2.5,0-3.4-0.1v-12h-4.6v15.6h0.5c1.9,0.2,4.1,0.3,6.8,0.3
		c5.6,0,10.3-1.5,13-4.1c2.6-2.5,4-6,4-10C200.1,22.3,198.9,19.2,196.3,17L196.3,17z"/>
	<path class="st0" d="M41.2,0.1C41.2,0,41.1,0,41.1,0l0,0l0,0l0,0l0,0C6.8,3.3,2.5,26.9,13.7,34.4c-1.9,8.5-0.1,8.3-0.1,8.3
		c0.3-2.5,0.8-5,1.5-7.5C19.4,18.6,30.2,4.1,41.1,0.3l0,0C41.1,0.3,41.2,0.2,41.2,0.1L41.2,0.1z"/>
	<path class="st0" d="M39.4,5.6c0-0.1-0.1-0.1-0.1-0.1c-0.1,0-0.1,0-0.1,0.1c-2.8,5.6-3.6,13.4-5.8,19.6
		c-2.5,6.9-6.8,11.6-13.6,11.2v16.9c0,0-18.1-8.2-18.1-21.3V7.2l14.8-1.4l0,0c0.1,0,0.1-0.1,0.1-0.1c0-0.1-0.1-0.1-0.1-0.1l0,0H0
		v26.3c0,14.8,19.7,23,19.7,23s19.7-8.4,19.7-23V5.6L39.4,5.6L39.4,5.6z"/>
</g>
</svg>
