<?xml version="1.0" encoding="UTF-8"?>
<svg width="160px" height="71px" viewBox="0 0 160 71" version="1.1" xmlns="http://www.w3.org/2000/svg" xmlns:xlink="http://www.w3.org/1999/xlink">
    <title>logo/full</title>
    <defs>
        <polygon id="path-1" points="0 0 75.8890189 0 75.8890189 47.2993024 0 47.2993024"></polygon>
    </defs>
    <g id="Symbols" stroke="none" stroke-width="1" fill="none" fill-rule="evenodd">
        <g id="header/menu-desk" transform="translate(-40.000000, -40.000000)">
            <g id="logo/full" transform="translate(40.000000, 40.000000)">
                <path d="M23.2427834,6.91635194 L74.9217351,6.91635194 C79.7896084,6.91635194 83.7727403,10.8988852 83.7727403,15.7667585 L83.7727403,18.1276651 L83.7727403,30.7151761 L83.7727403,54.2152952 L71.2618511,43.9575632 C66.5502142,40.0965472 64.9166154,39.8630904 61.2387731,39.5655826 L23.2427834,39.5655826 C18.3749101,39.5655826 14.3917782,35.5830493 14.3917782,30.7151761 L14.3917782,15.7667585 C14.3917782,10.8988852 18.3749101,6.91635194 23.2427834,6.91635194" id="Fill-1" fill="#C0222C"></path>
                <path d="M26.813031,29.4582208 C26.813031,29.8389349 26.813031,30.465078 26.410767,30.465078 L24.4192011,30.532122 C24.1288766,30.5548691 24.0169371,30.263946 23.9498931,30.0179185 L22.1379093,16.0147016 C22.0930137,15.7016301 22.0259697,15.4998995 22.0259697,15.2317235 C22.0259697,15.0299929 22.5180248,15.0078444 22.9657829,15.0078444 C23.457838,15.0078444 24.1288766,15.0527399 24.4868437,15.0527399 L24.6209317,15.2089764 L25.5828934,25.1632145 L26.6567946,15.611839 C26.7238386,15.0078444 27.4619212,14.9856959 27.9761247,14.9856959 C27.9982732,14.9856959 28.2670478,15.0078444 28.7369544,15.0078444 C29.475037,15.2089764 30.2131196,20.4431972 30.8620097,25.5211816 L32.0029549,15.6567345 C32.0478505,15.2089764 32.8080816,15.0078444 33.4120762,15.0078444 C33.9711752,15.0078444 34.5308729,15.1868279 34.5308729,15.4550039 C34.5308729,15.4998995 34.5081258,15.5226465 34.5081258,15.544795 L32.629098,30.1292594 C32.5171585,30.4201825 32.2932794,30.5548691 30.0341361,30.6213145 C29.676169,30.6213145 29.5648281,30.1741549 29.5199325,29.9059789 L28.0659158,20.6898234 L26.813031,29.4582208 Z" id="Fill-3" fill="#FFFFFF"></path>
                <path d="M36.38871,15.6118989 C36.38871,15.0522012 37.0597486,15.1868878 37.4177157,15.1868878 C37.6637432,15.1868878 38.8046884,15.2090362 38.8046884,15.7238384 L38.916628,22.904131 L40.6837163,22.904131 L40.7286118,15.9249704 C40.7507603,15.6567944 40.9291452,15.4999593 41.1757713,15.4999593 C41.3320078,15.4999593 42.674085,15.5670033 42.674085,15.5670033 L42.8087716,15.6567944 C42.7866232,15.6789429 42.8979641,20.8910152 42.8979641,23.1058617 C42.8979641,26.5280987 42.8087716,27.8031319 42.8087716,29.6372642 C42.741129,29.8389948 42.6297881,30.0622752 42.472953,30.2191103 C41.6450793,30.2191103 41.5558869,30.1520663 40.7950572,30.1071708 C40.4376887,29.8162477 40.5041341,29.055418 40.5041341,28.4071265 C40.5041341,27.2440328 40.5717767,26.1030876 40.5717767,24.9399939 C40.0797217,24.8502029 39.45298,24.9399939 38.9387764,24.9399939 L38.9609249,30.0401268 C38.8717324,30.2412588 38.2228423,30.2861543 37.8648752,30.2861543 C37.0148531,30.2861543 36.7017816,30.4202423 36.6347376,29.4361322 L36.38871,15.6118989 Z" id="Fill-5" fill="#FFFFFF"></path>
                <path d="M49.4753396,25.4988536 L48.7594055,18.9225555 L47.7752953,25.4988536 L49.4753396,25.4988536 Z M45.3144214,30.3529589 C45.1581849,30.3529589 44.7553223,30.3978544 44.7553223,30.1290798 C44.7553223,29.8160083 44.7774708,27.6688044 47.3945812,15.0974559 C47.4622238,14.8963239 47.9315318,14.7167417 48.178158,14.7167417 L49.5423836,14.7167417 C50.0571858,14.7167417 50.3475102,15.3213349 50.4594498,15.7684945 C50.5713893,16.1707585 50.9072079,17.2446597 52.1816425,29.6376233 L52.1816425,30.1069313 C52.1816425,30.2188709 51.7123345,30.2410193 51.667439,30.2410193 C51.5782465,30.2637664 51.3094719,30.3086619 51.2645764,30.3086619 L49.8333067,30.3086619 L49.7213672,30.2188709 L49.6315761,28.0267715 C49.6315761,27.847788 49.6094276,27.8699364 49.4974881,27.8699364 L49.3634001,27.8699364 C49.0952241,27.8699364 47.6855043,27.914832 47.3945812,27.914832 C47.3053887,28.6756617 47.2161963,29.5256838 47.1934492,30.3086619 C47.1485537,30.3978544 47.1264052,30.4648984 47.0372127,30.4648984 C46.9474217,30.4648984 46.8803777,30.4427499 46.7911852,30.3978544 C46.5224106,30.3978544 45.583196,30.3529589 45.3144214,30.3529589 L45.3144214,30.3529589 Z" id="Fill-7" fill="#FFFFFF"></path>
                <path d="M54.6658023,24.268656 C54.6658023,22.2106447 54.7998903,19.9066058 54.7998903,17.8042975 C54.7998903,17.4014349 54.6436538,17.4014349 54.4419232,17.4014349 L54.3748792,17.4014349 C54.0839561,17.4014349 53.7930331,17.4463304 53.5248571,17.4463304 C53.099846,17.4463304 52.9208625,17.4235834 52.9208625,17.0213194 C52.9208625,16.4843688 52.9436095,15.9025226 53.0106535,15.298528 C53.0106535,15.1195445 53.4129175,15.097396 54.5538628,15.097396 C56.2988026,15.097396 58.9608085,15.1871871 59.050001,15.1871871 L59.1397921,15.298528 C59.1397921,15.3212751 59.2068361,16.2604897 59.2068361,16.5963083 C59.2068361,17.4906274 59.0948965,17.5133744 58.3789624,17.5133744 C57.9318029,17.5133744 57.4840447,17.4014349 57.0368852,17.4014349 C57.0368852,18.2293086 56.9698412,21.9424687 56.9698412,22.7703424 C57.1266762,24.201612 57.0817807,24.7607111 57.0817807,27.4005686 C57.0817807,27.7806841 57.0596322,29.5699209 57.0596322,29.9727835 C56.9249456,30.419943 56.0078795,30.419943 55.6499124,30.419943 L55.5828684,30.419943 C55.1357089,30.419943 54.8447858,30.419943 54.7106978,29.9727835 C54.7106978,29.1006129 54.6658023,25.1186782 54.6658023,24.268656" id="Fill-9" fill="#FFFFFF"></path>
                <path d="M66.0528066,15.4105274 C66.2090431,15.0525603 68.4238895,15.2536923 68.4238895,15.8127914 C68.378994,20.3765723 68.4238895,24.917606 68.4238895,29.4807883 L68.4238895,29.8836509 C68.4238895,30.0177389 68.378994,30.1069313 68.2227575,30.1518269 C68.177862,30.1518269 68.110818,30.1745739 68.0659224,30.1745739 C67.5960158,30.2637664 67.1710048,30.3757059 66.6340542,30.3757059 C66.4778177,30.3757059 66.4329222,30.3978544 66.3437297,30.3086619 C66.2539386,30.2637664 66.2090431,30.0847829 66.1647462,29.9949918 L66.0528066,15.4105274 Z" id="Fill-11" fill="#FFFFFF"></path>
                <path d="M70.3254848,27.4899406 C70.3027378,27.3109571 70.2805893,27.1990176 70.2805893,27.087078 L70.2805893,26.751858 C70.2805893,26.259803 70.3703804,24.8057862 70.9965234,24.8057862 L72.1374686,24.8057862 C72.3607491,24.8057862 72.6073752,25.1188577 72.6073752,25.3199897 L72.6073752,27.7808637 C72.6073752,28.1609792 72.8976997,28.4070068 73.1664743,28.4070068 C73.8596614,28.4070068 73.8596614,27.8030122 73.8596614,27.3558526 C73.8596614,23.2847255 70.3476333,23.8216761 70.3476333,19.2357468 C70.3476333,16.6635319 71.4215345,15.0077845 74.2176285,15.0077845 C76.2307443,15.0077845 76.4767718,16.8419168 76.4767718,18.4976642 L76.4767718,18.8999282 C76.4767718,18.9897192 76.4546233,21.4727417 75.9625683,21.4727417 L74.6653866,21.4727417 C74.329568,21.4727417 74.2846725,21.069879 74.2846725,19.1687028 C74.2846725,18.9448237 74.2846725,18.6987962 74.3068209,18.4976642 L74.3068209,18.4306202 C74.3068209,17.7368345 74.3068209,17.1106914 73.6585294,17.1106914 C72.9874908,17.1106914 72.4954357,17.915818 72.4954357,19.0118677 C72.4954357,20.0187249 72.8976997,21.271011 73.9716009,22.3449123 C75.0455021,23.4188135 76.1415518,25.2750942 76.1415518,26.818902 C76.1415518,29.1678365 75.9625683,30.5320621 73.3448592,30.5320621 C72.4505402,30.5320621 71.533474,30.0178586 70.9737764,29.3240729 L70.4146773,28.2507703 L70.3254848,27.4899406 Z" id="Fill-13" fill="#FFFFFF"></path>
                <g id="Group-17" transform="translate(83.724587, 23.700698)">
                    <mask id="mask-2" fill="white">
                        <use xlink:href="#path-1"></use>
                    </mask>
                    <g id="Clip-16"></g>
                    <path d="M66.120688,0 L9.59421564,0 C4.26960512,0 -0.0870576569,3.98253331 -0.0870576569,8.85040658 L-0.0870576569,11.2113131 L-0.0870576569,23.7988241 L-0.0870576569,47.2995419 L13.5977002,37.0412113 C18.7511091,33.1801952 20.53855,32.9473371 24.56119,32.6492307 L66.120688,32.6492307 C71.4458971,32.6492307 75.8019613,28.6666974 75.8019613,23.7988241 L75.8019613,8.85040658 C75.8019613,3.98253331 71.4458971,0 66.120688,0" id="Fill-15" fill="#431A5B" mask="url(#mask-2)"></path>
                </g>
                <path d="M89.547239,32.3957057 C89.547239,31.8360081 90.2182776,31.9706947 90.5762447,31.9706947 C90.8222722,31.9706947 91.9626188,31.9928431 91.9626188,32.5076453 L92.075157,39.6879379 L93.8422453,39.6879379 L93.8865422,32.7087773 C93.9086906,32.4406013 94.0876742,32.2837662 94.3337017,32.2837662 C94.4905368,32.2837662 95.832614,32.3508102 95.832614,32.3508102 L95.9673006,32.4406013 C95.9451521,32.4627497 96.0564931,37.6748221 96.0564931,39.8896685 C96.0564931,43.3119056 95.9673006,44.5869388 95.9673006,46.4210711 C95.899658,46.6228017 95.7883171,46.8460821 95.631482,47.0029172 C94.8036083,47.0029172 94.7144159,46.9358732 93.9535862,46.8909777 C93.5962177,46.6000546 93.6626631,45.8392249 93.6626631,45.1909334 C93.6626631,44.0278397 93.7297071,42.8868945 93.7297071,41.7238008 C93.237652,41.6340098 92.611509,41.7238008 92.0973054,41.7238008 L92.1194539,46.8239337 C92.0296628,47.0250657 91.3807727,47.0699612 91.0234042,47.0699612 C90.1733821,47.0699612 89.8603105,47.2040492 89.7932666,46.2199391 L89.547239,32.3957057 Z" id="Fill-18" fill="#FFFFFF"></path>
                <path d="M98.5176065,32.2390503 C98.5176065,32.1049623 98.6067989,31.8810832 98.7863811,31.8810832 C100.44153,31.8810832 104.04275,31.8810832 104.04275,32.2390503 L104.04275,33.8720505 C104.04275,34.0061385 103.908662,34.028287 103.796723,34.028287 L103.685382,34.028287 L101.09042,33.961243 C101.000629,33.961243 100.933585,34.2521661 100.933585,34.8789077 C100.933585,35.9300619 100.866541,37.6522546 101.000629,38.9272878 C101.224508,38.9721834 101.448387,38.9721834 101.649519,38.9721834 C102.119426,38.9721834 102.567184,38.9051394 103.125684,38.9051394 C103.147833,38.9272878 103.327415,39.0841229 103.327415,39.1733154 L103.327415,41.0972387 C103.327415,41.1421343 103.17058,41.2313267 103.125684,41.2540738 L100.866541,41.1642827 L100.800095,41.5671453 L100.800095,44.8331459 L100.866541,45.0791734 L103.729679,45.0791734 C103.931409,45.1234704 103.953558,45.325201 103.953558,45.5041845 C103.953558,46.0632836 104.04275,47.3161683 103.528547,47.3161683 L101.247255,47.3161683 C100.911436,47.4053608 100.553469,47.4053608 100.195502,47.4053608 C99.4574197,47.4053608 98.4733095,47.5173003 98.36137,47.1593332 L98.5176065,32.2390503 Z" id="Fill-20" fill="#FFFFFF"></path>
                <path d="M108.651786,40.0010693 L108.651786,40.0681133 C109.591001,39.7771903 110.306935,38.010102 110.306935,36.4668928 C110.306935,35.2589036 109.881924,34.1850023 108.763725,34.0509143 C108.539846,34.0509143 108.584742,34.520821 108.584742,34.878788 C108.584742,36.5788323 108.651786,38.2561295 108.651786,40.0010693 M106.392643,42.4170478 C106.392643,40.694855 106.347148,37.674882 106.347148,35.9520906 C106.347148,35.5049311 106.369297,35.146964 106.369297,34.9236836 C106.369297,34.5651179 106.347148,32.7309856 106.347148,32.3287216 C106.347148,31.925859 107.063681,31.8809635 107.555736,31.8809635 C111.089913,31.8809635 112.722913,34.1179583 112.722913,36.5339368 C112.722913,39.1737943 110.843885,42.0141851 108.696083,42.4840918 L108.651786,42.5511358 C108.718231,43.2221744 108.740978,43.5801414 108.740978,44.0949436 C108.740978,44.6989382 108.830769,47.0700211 108.450055,47.2711531 L107.197171,47.4279881 C107.152874,47.4501366 107.107978,47.4501366 107.08583,47.4501366 C106.21306,47.4501366 106.392643,44.4750591 106.392643,42.4170478" id="Fill-22" fill="#FFFFFF"></path>
                <path d="M119.993775,44.7656829 C121.738715,45.0787544 121.940445,42.2377649 121.917698,40.0235171 L121.917698,38.9945114 C121.917698,36.712621 122.342709,34.2523456 120.15061,34.4313292 L119.904583,44.7207873 C119.904583,44.7656829 119.949478,44.7656829 119.993775,44.7656829 L119.993775,44.7656829 Z M117.711885,46.7345018 C117.757379,45.2577379 117.846571,38.3683684 117.958511,32.1943343 C117.958511,31.8812628 118.584654,31.8585157 118.741489,31.8363672 L119.479571,31.8363672 C123.684787,31.8363672 124.311528,34.4313292 124.333677,38.5473519 C124.355825,45.0787544 124.244484,47.942491 117.86872,47.0026778 C117.779527,46.9805293 117.711885,46.8685898 117.711885,46.8015458 L117.711885,46.7345018 Z" id="Fill-24" fill="#FFFFFF"></path>
                <path d="M126.816999,32.2390503 C126.816999,32.1049623 126.906191,31.8810832 127.085175,31.8810832 C128.740922,31.8810832 132.342142,31.8810832 132.342142,32.2390503 L132.342142,33.8720505 C132.342142,34.0061385 132.208054,34.028287 132.096115,34.028287 L131.984774,34.028287 L129.389812,33.961243 C129.300021,33.961243 129.232977,34.2521661 129.232977,34.8789077 C129.232977,35.9300619 129.165933,37.6522546 129.300021,38.9272878 C129.523301,38.9721834 129.747779,38.9721834 129.948312,38.9721834 C130.418818,38.9721834 130.865977,38.9051394 131.425076,38.9051394 C131.447225,38.9272878 131.626208,39.0841229 131.626208,39.1733154 L131.626208,41.0972387 C131.626208,41.1421343 131.469373,41.2313267 131.425076,41.2540738 L129.165933,41.1642827 L129.098889,41.5671453 L129.098889,44.8331459 L129.165933,45.0791734 L132.029071,45.0791734 C132.230203,45.1234704 132.25295,45.325201 132.25295,45.5041845 C132.25295,46.0632836 132.342142,47.3161683 131.827939,47.3161683 L129.546647,47.3161683 C129.210828,47.4053608 128.852263,47.4053608 128.494894,47.4053608 C127.756213,47.4053608 126.772702,47.5173003 126.660163,47.1593332 L126.816999,32.2390503 Z" id="Fill-26" fill="#FFFFFF"></path>
                <path d="M134.691795,36.7128006 L134.691795,34.2076297 C134.6469,33.6706791 134.6469,32.9768934 134.6469,32.4626899 L134.6469,31.9706348 C134.669647,31.8808437 134.803735,31.8586953 134.84863,31.8586953 C135.027614,31.8586953 136.16796,31.9484863 136.413988,31.9706348 C136.50318,31.9706348 136.906043,31.9927833 136.973686,31.9927833 C137.062878,32.0155303 137.152071,32.0825743 137.152071,32.1496183 L137.04073,44.8999505 C137.308906,45.1681265 139.411812,44.8101594 139.389664,45.3028131 L139.389664,47.1818409 L139.277126,47.3159289 L134.691795,47.1818409 C134.602603,43.7141097 134.691795,40.2026802 134.691795,36.7128006" id="Fill-28" fill="#FFFFFF"></path>
                <path d="M141.716091,41.0524031 C141.716091,38.9943917 141.850777,36.6903528 141.850777,34.5880445 C141.850777,34.1851819 141.693942,34.1851819 141.492212,34.1851819 L141.425766,34.1851819 C141.134245,34.1851819 140.84392,34.2300775 140.575146,34.2300775 C140.150135,34.2300775 139.971151,34.2073304 139.971151,33.8050664 C139.971151,33.2681158 139.993898,32.6862696 140.060343,32.082275 C140.060343,31.9032915 140.463206,31.881143 141.604151,31.881143 C143.349091,31.881143 146.011097,31.9709341 146.10029,31.9709341 L146.190081,32.082275 C146.190081,32.1050221 146.257125,33.0442367 146.257125,33.3800553 C146.257125,34.2743744 146.145185,34.2971215 145.429251,34.2971215 C144.982091,34.2971215 144.534932,34.1851819 144.087174,34.1851819 C144.087174,35.0130556 144.02013,38.7262157 144.02013,39.5540894 C144.176366,40.9853591 144.132069,41.5444581 144.132069,44.1843156 C144.132069,44.5644312 144.109322,46.3536679 144.109322,46.7565305 C143.975234,47.20369 143.058168,47.20369 142.7008,47.20369 L142.633157,47.20369 C142.185997,47.20369 141.895074,47.20369 141.760986,46.7565305 C141.760986,45.8843599 141.716091,41.9024252 141.716091,41.0524031" id="Fill-30" fill="#FFFFFF"></path>
                <path d="M151.358095,42.2826604 L150.64276,35.7063624 L149.658051,42.2826604 L151.358095,42.2826604 Z M147.197776,47.1367658 C147.040941,47.1367658 146.638078,47.1816613 146.638078,46.9128867 C146.638078,46.5998152 146.660825,44.4526113 149.277936,31.8812628 C149.34498,31.6801308 149.814886,31.5005486 150.060914,31.5005486 L151.425139,31.5005486 C151.939942,31.5005486 152.230865,32.1051418 152.342804,32.5523014 C152.454145,32.9545654 152.789964,34.0284666 154.064398,46.4214302 L154.064398,46.8907382 C154.064398,47.0026778 153.59509,47.0248262 153.550195,47.0248262 C153.461002,47.0475733 153.192228,47.0924688 153.147931,47.0924688 L151.716661,47.0924688 L151.604123,47.0026778 L151.514931,44.8105784 C151.514931,44.6315949 151.492782,44.6537433 151.380843,44.6537433 L151.246156,44.6537433 C150.97798,44.6537433 149.568859,44.6986389 149.277936,44.6986389 C149.188743,45.4594685 149.099551,46.3094907 149.076205,47.0924688 C149.031908,47.1816613 149.009161,47.2487053 148.919969,47.2487053 C148.830178,47.2487053 148.763732,47.2265568 148.673941,47.1816613 C148.405166,47.1816613 147.465952,47.1367658 147.197776,47.1367658 L147.197776,47.1367658 Z" id="Fill-32" fill="#FFFFFF"></path>
                <path d="M2.29438183,16.8196486 C2.30276233,17.5493507 2.90855276,18.1485565 3.6412479,18.1323941 L6.00454889,18.0821111 C6.73006075,18.0665473 7.32028739,17.4685388 7.31190689,16.7412311 C7.304125,16.011529 6.69773596,15.4129218 5.96563943,15.4284856 L3.60233843,15.4787686 C2.87802379,15.4943324 2.28659994,16.0923409 2.29438183,16.8196486" id="Fill-34" fill="#C0222C"></path>
                <path d="M0.0540347439,9.2032108 C-0.15248472,9.90178533 0.2515751,10.6464526 0.94895242,10.8523735 L7.64736633,12.8373548 C8.34534226,13.0438742 9.09060815,12.640413 9.2959304,11.9412399 C9.50304847,11.2438625 9.09839004,10.5003925 8.40101272,10.2926758 L1.7020002,8.30769452 C1.00462288,8.10177366 0.2599556,8.50583348 0.0540347439,9.2032108" id="Fill-36" fill="#C0222C"></path>
                <path d="M0.768651949,0.623913391 C0.381353129,1.24167596 0.573506021,2.0581761 1.18528252,2.44966517 L10.2104824,8.23400598 C10.828245,8.6296853 11.65552,8.43453937 12.0434175,7.81617819 C12.4307163,7.19721841 12.239162,6.38191548 11.6273855,5.9892292 L2.60158702,0.206085607 C1.98442305,-0.190192321 1.15714798,0.00435499999 0.768651949,0.623913391" id="Fill-38" fill="#C0222C"></path>
            </g>
        </g>
    </g>
</svg>