<?xml version="1.0" encoding="UTF-8"?>
<svg width="1979px" height="1147px" viewBox="0 0 1979 1147" version="1.1" xmlns="http://www.w3.org/2000/svg" xmlns:xlink="http://www.w3.org/1999/xlink">
    <title>hero-background</title>
    <defs>
        <polygon id="path-1" points="0 1147 1979 1147 1979 0 0 0"></polygon>
    </defs>
    <g id="404" stroke="none" stroke-width="1" fill="none" fill-rule="evenodd" opacity="0.0511219113">
        <g id="X.X-404-desk" transform="translate(369.000000, 119.000000)">
            <g id="hero-background" transform="translate(0.000000, 4.000000)">
                <g transform="translate(-369.000000, -123.000000)" id="city-background">
                    <path d="M1649,1146 L1973,1146 L1973,946 L1649,946 L1649,1146 Z M1947.43198,976.812853 L1965.49106,976.812853 L1965.49106,962.326679 L1947.43198,962.326679 L1947.43198,976.812853 Z M1926.7209,976.812853 L1944.77998,976.812853 L1944.77998,962.326679 L1926.7209,962.326679 L1926.7209,976.812853 Z M1895.67815,976.812853 L1913.73434,976.812853 L1913.73434,962.326679 L1895.67815,962.326679 L1895.67815,976.812853 Z M1874.96562,976.812853 L1893.02326,976.812853 L1893.02326,962.326679 L1874.96562,962.326679 L1874.96562,976.812853 Z M1843.92288,976.812853 L1861.98051,976.812853 L1861.98051,962.326679 L1843.92288,962.326679 L1843.92288,976.812853 Z M1823.2118,976.812853 L1841.26798,976.812853 L1841.26798,962.326679 L1823.2118,962.326679 L1823.2118,976.812853 Z M1792.1676,976.812853 L1810.22379,976.812853 L1810.22379,962.326679 L1792.1676,962.326679 L1792.1676,976.812853 Z M1771.45652,976.812853 L1789.51415,976.812853 L1789.51415,962.326679 L1771.45652,962.326679 L1771.45652,976.812853 Z M1740.41233,976.812853 L1758.46996,976.812853 L1758.46996,962.326679 L1740.41233,962.326679 L1740.41233,976.812853 Z M1719.70125,976.812853 L1737.75888,976.812853 L1737.75888,962.326679 L1719.70125,962.326679 L1719.70125,976.812853 Z M1688.65705,976.812853 L1706.71468,976.812853 L1706.71468,962.326679 L1688.65705,962.326679 L1688.65705,976.812853 Z M1667.94597,976.812853 L1686.0036,976.812853 L1686.0036,962.326679 L1667.94597,962.326679 L1667.94597,976.812853 Z M1947.43198,1008.73668 L1965.49106,1008.73668 L1965.49106,994.250506 L1947.43198,994.250506 L1947.43198,1008.73668 Z M1926.7209,1008.73668 L1944.77998,1008.73668 L1944.77998,994.250506 L1926.7209,994.250506 L1926.7209,1008.73668 Z M1895.67815,1008.73668 L1913.73434,1008.73668 L1913.73434,994.250506 L1895.67815,994.250506 L1895.67815,1008.73668 Z M1874.96562,1008.73668 L1893.02326,1008.73668 L1893.02326,994.250506 L1874.96562,994.250506 L1874.96562,1008.73668 Z M1843.92288,1008.73668 L1861.98051,1008.73668 L1861.98051,994.250506 L1843.92288,994.250506 L1843.92288,1008.73668 Z M1823.2118,1008.73668 L1841.26798,1008.73668 L1841.26798,994.250506 L1823.2118,994.250506 L1823.2118,1008.73668 Z M1792.1676,1008.73668 L1810.22379,1008.73668 L1810.22379,994.250506 L1792.1676,994.250506 L1792.1676,1008.73668 Z M1771.45652,1008.73668 L1789.51415,1008.73668 L1789.51415,994.250506 L1771.45652,994.250506 L1771.45652,1008.73668 Z M1740.41233,1008.73668 L1758.46996,1008.73668 L1758.46996,994.250506 L1740.41233,994.250506 L1740.41233,1008.73668 Z M1719.70125,1008.73668 L1737.75888,1008.73668 L1737.75888,994.250506 L1719.70125,994.250506 L1719.70125,1008.73668 Z M1688.65705,1008.73668 L1706.71468,1008.73668 L1706.71468,994.250506 L1688.65705,994.250506 L1688.65705,1008.73668 Z M1667.94597,1008.73668 L1686.0036,1008.73668 L1686.0036,994.250506 L1667.94597,994.250506 L1667.94597,1008.73668 Z M1947.43198,1040.66196 L1965.49106,1040.66196 L1965.49106,1026.17723 L1947.43198,1026.17723 L1947.43198,1040.66196 Z M1926.7209,1040.66196 L1944.77998,1040.66196 L1944.77998,1026.17723 L1926.7209,1026.17723 L1926.7209,1040.66196 Z M1895.67815,1040.66196 L1913.73434,1040.66196 L1913.73434,1026.17723 L1895.67815,1026.17723 L1895.67815,1040.66196 Z M1874.96562,1040.66196 L1893.02326,1040.66196 L1893.02326,1026.17723 L1874.96562,1026.17723 L1874.96562,1040.66196 Z M1843.92288,1040.66196 L1861.98051,1040.66196 L1861.98051,1026.17723 L1843.92288,1026.17723 L1843.92288,1040.66196 Z M1823.2118,1040.66196 L1841.26798,1040.66196 L1841.26798,1026.17723 L1823.2118,1026.17723 L1823.2118,1040.66196 Z M1792.1676,1040.66196 L1810.22379,1040.66196 L1810.22379,1026.17723 L1792.1676,1026.17723 L1792.1676,1040.66196 Z M1771.45652,1040.66196 L1789.51415,1040.66196 L1789.51415,1026.17723 L1771.45652,1026.17723 L1771.45652,1040.66196 Z M1740.41233,1040.66196 L1758.46996,1040.66196 L1758.46996,1026.17723 L1740.41233,1026.17723 L1740.41233,1040.66196 Z M1719.70125,1040.66196 L1737.75888,1040.66196 L1737.75888,1026.17723 L1719.70125,1026.17723 L1719.70125,1040.66196 Z M1688.65705,1040.66196 L1706.71468,1040.66196 L1706.71468,1026.17723 L1688.65705,1026.17723 L1688.65705,1040.66196 Z M1667.94597,1040.66196 L1686.0036,1040.66196 L1686.0036,1026.17723 L1667.94597,1026.17723 L1667.94597,1040.66196 Z M1947.43198,1072.58869 L1965.49106,1072.58869 L1965.49106,1058.10251 L1947.43198,1058.10251 L1947.43198,1072.58869 Z M1926.7209,1072.58869 L1944.77998,1072.58869 L1944.77998,1058.10251 L1926.7209,1058.10251 L1926.7209,1072.58869 Z M1895.67815,1072.58869 L1913.73434,1072.58869 L1913.73434,1058.10251 L1895.67815,1058.10251 L1895.67815,1072.58869 Z M1874.96562,1072.58869 L1893.02326,1072.58869 L1893.02326,1058.10251 L1874.96562,1058.10251 L1874.96562,1072.58869 Z M1843.92288,1072.58869 L1861.98051,1072.58869 L1861.98051,1058.10251 L1843.92288,1058.10251 L1843.92288,1072.58869 Z M1823.2118,1072.58869 L1841.26798,1072.58869 L1841.26798,1058.10251 L1823.2118,1058.10251 L1823.2118,1072.58869 Z M1792.1676,1072.58869 L1810.22379,1072.58869 L1810.22379,1058.10251 L1792.1676,1058.10251 L1792.1676,1072.58869 Z M1771.45652,1072.58869 L1789.51415,1072.58869 L1789.51415,1058.10251 L1771.45652,1058.10251 L1771.45652,1072.58869 Z M1740.41233,1072.58869 L1758.46996,1072.58869 L1758.46996,1058.10251 L1740.41233,1058.10251 L1740.41233,1072.58869 Z M1719.70125,1072.58869 L1737.75888,1072.58869 L1737.75888,1058.10251 L1719.70125,1058.10251 L1719.70125,1072.58869 Z M1688.65705,1072.58869 L1706.71468,1072.58869 L1706.71468,1058.10251 L1688.65705,1058.10251 L1688.65705,1072.58869 Z M1667.94597,1072.58869 L1686.0036,1072.58869 L1686.0036,1058.10251 L1667.94597,1058.10251 L1667.94597,1072.58869 Z M1947.43198,1104.51396 L1965.49106,1104.51396 L1965.49106,1090.02779 L1947.43198,1090.02779 L1947.43198,1104.51396 Z M1926.7209,1104.51396 L1944.77998,1104.51396 L1944.77998,1090.02779 L1926.7209,1090.02779 L1926.7209,1104.51396 Z M1895.67815,1104.51396 L1913.73434,1104.51396 L1913.73434,1090.02779 L1895.67815,1090.02779 L1895.67815,1104.51396 Z M1874.96562,1104.51396 L1893.02326,1104.51396 L1893.02326,1090.02779 L1874.96562,1090.02779 L1874.96562,1104.51396 Z M1843.92288,1104.51396 L1861.98051,1104.51396 L1861.98051,1090.02779 L1843.92288,1090.02779 L1843.92288,1104.51396 Z M1823.2118,1104.51396 L1841.26798,1104.51396 L1841.26798,1090.02779 L1823.2118,1090.02779 L1823.2118,1104.51396 Z M1792.1676,1104.51396 L1810.22379,1104.51396 L1810.22379,1090.02779 L1792.1676,1090.02779 L1792.1676,1104.51396 Z M1771.45652,1104.51396 L1789.51415,1104.51396 L1789.51415,1090.02779 L1771.45652,1090.02779 L1771.45652,1104.51396 Z M1740.41233,1104.51396 L1758.46996,1104.51396 L1758.46996,1090.02779 L1740.41233,1090.02779 L1740.41233,1104.51396 Z M1719.70125,1104.51396 L1737.75888,1104.51396 L1737.75888,1090.02779 L1719.70125,1090.02779 L1719.70125,1104.51396 Z M1688.65705,1104.51396 L1706.71468,1104.51396 L1706.71468,1090.02779 L1688.65705,1090.02779 L1688.65705,1104.51396 Z M1667.94597,1104.51396 L1686.0036,1104.51396 L1686.0036,1090.02779 L1667.94597,1090.02779 L1667.94597,1104.51396 Z M1947.43198,1136.43779 L1965.49106,1136.43779 L1965.49106,1121.95307 L1947.43198,1121.95307 L1947.43198,1136.43779 Z M1926.7209,1136.43779 L1944.77998,1136.43779 L1944.77998,1121.95307 L1926.7209,1121.95307 L1926.7209,1136.43779 Z M1895.67815,1136.43779 L1913.73434,1136.43779 L1913.73434,1121.95307 L1895.67815,1121.95307 L1895.67815,1136.43779 Z M1874.96562,1136.43779 L1893.02326,1136.43779 L1893.02326,1121.95307 L1874.96562,1121.95307 L1874.96562,1136.43779 Z M1843.92288,1136.43779 L1861.98051,1136.43779 L1861.98051,1121.95307 L1843.92288,1121.95307 L1843.92288,1136.43779 Z M1823.2118,1136.43779 L1841.26798,1136.43779 L1841.26798,1121.95307 L1823.2118,1121.95307 L1823.2118,1136.43779 Z M1792.1676,1136.43779 L1810.22379,1136.43779 L1810.22379,1121.95307 L1792.1676,1121.95307 L1792.1676,1136.43779 Z M1771.45652,1136.43779 L1789.51415,1136.43779 L1789.51415,1121.95307 L1771.45652,1121.95307 L1771.45652,1136.43779 Z M1740.41233,1136.43779 L1758.46996,1136.43779 L1758.46996,1121.95307 L1740.41233,1121.95307 L1740.41233,1136.43779 Z M1719.70125,1136.43779 L1737.75888,1136.43779 L1737.75888,1121.95307 L1719.70125,1121.95307 L1719.70125,1136.43779 Z M1688.65705,1136.43779 L1706.71468,1136.43779 L1706.71468,1121.95307 L1688.65705,1121.95307 L1688.65705,1136.43779 Z M1667.94597,1136.43779 L1686.0036,1136.43779 L1686.0036,1121.95307 L1667.94597,1121.95307 L1667.94597,1136.43779 Z" id="Fill-1" fill="#421B59"></path>
                    <g id="Group-57">
                        <path d="M1655.57722,657.723978 L1639.45402,657.723978 L1639.45402,625.534118 C1639.45402,622.96061 1637.76622,620.873707 1635.6858,620.873707 L1624.4594,620.873707 L1619.40469,585.355809 C1619.40469,583.825028 1618.40215,582.582444 1617.16202,582.582444 L1608.71722,582.337693 L1603.66251,531.81466 C1603.66251,531.183231 1603.24962,530.672005 1602.73966,530.672005 L1597.10689,530.427254 L1593.52847,474.254666 C1593.52847,474.106947 1593.4314,473.985295 1593.30971,473.985295 L1590.67877,473.985295 C1590.55707,473.985295 1590.46145,474.106947 1590.46145,474.254666 L1586.88158,530.427254 L1580.99818,530.672005 C1580.48822,530.672005 1580.07532,531.183231 1580.07532,531.81466 L1575.02062,582.337693 L1564.36357,582.582444 C1563.12488,582.582444 1562.1209,583.825028 1562.1209,585.355809 L1557.06619,620.873707 L1546.94808,620.873707 C1544.86477,620.873707 1543.17697,622.96061 1543.17697,625.534118 L1543.17697,657.723978 L1528.80966,657.723978 C1525.83537,657.723978 1523.42464,660.705889 1523.42464,664.384399 L1523.42464,1061.37964 L1660.96369,1061.37964 L1660.96369,664.384399 C1660.96369,660.705889 1658.55296,657.723978 1655.57722,657.723978" id="Fill-4" fill="#421B59"></path>
                        <path d="M1506.51389,363.348021 C1504.19878,361.668072 1502.87317,359.866471 1502.87317,357.980872 C1502.87317,349.085829 1530.92253,341.877977 1565.52026,341.877977 C1581.95929,341.877977 1596.87422,343.518824 1608.04992,346.180675 C1611.69644,335.133559 1622.47518,326.639677 1635.91674,324.518016 C1640.84685,296.018252 1677.15701,273.884918 1721.24409,273.884918 C1768.69518,273.884918 1807.16108,299.520078 1807.16108,331.142231 C1807.16108,331.201608 1807.15384,331.260986 1807.15384,331.321812 C1810.09481,331.207401 1813.07925,331.142231 1816.1086,331.142231 C1860.59408,331.142231 1896.6565,343.959087 1896.6565,359.769439 C1896.6565,360.98161 1896.41891,362.174953 1896.00746,363.348021 L1506.51389,363.348021 Z" id="Fill-6" fill="#421B59"></path>
                        <path d="M429.434887,319.431535 L637.200912,319.431535 C635.152372,315.984742 622.897349,313.33158 608.043259,313.33158 C603.982397,313.33158 600.11422,313.529988 596.593744,313.88915 C596.766146,313.370682 596.857418,312.846422 596.857418,312.314921 C596.857418,303.89345 574.545134,297.066483 547.023126,297.066483 C537.575792,297.066483 528.74273,297.870252 521.214996,299.267796 C521.443899,298.216379 521.597467,297.146136 521.597467,296.048376 C521.597467,284.258316 507.940049,274.699983 491.089574,274.699983 C474.239099,274.699983 460.578784,284.258316 460.578784,296.048376 C460.578784,301.059259 463.063399,305.657397 467.192353,309.299701 C445.271233,309.644381 428.03394,313.134621 428.03394,317.398217 C428.03394,318.102057 428.552595,318.781278 429.434887,319.431535" id="Fill-8" fill="#421B59"></path>
                        <path d="M515.343045,525.9079 C517.591514,524.275742 518.87656,522.527726 518.87656,520.69716 C518.87656,512.064247 491.651547,505.066388 458.070843,505.066388 C442.112801,505.066388 427.638285,506.659444 416.791453,509.24309 C413.250695,498.521827 402.789231,490.27704 389.741739,488.219102 C384.9565,460.554968 349.712625,439.07189 306.920734,439.07189 C260.864797,439.07189 223.528919,463.953969 223.528919,494.646357 C223.528919,494.705734 223.534714,494.762215 223.534714,494.821593 C220.679217,494.710079 217.781706,494.646357 214.842181,494.646357 C171.663473,494.646357 136.66154,507.088121 136.66154,522.435039 C136.66154,523.611003 136.890443,524.769589 137.291749,525.9079 L515.343045,525.9079 Z" id="Fill-10" fill="#421B59"></path>
                        <mask id="mask-2" fill="white">
                            <use xlink:href="#path-1"></use>
                        </mask>
                        <g id="Clip-13"></g>
                        <polygon id="Fill-12" fill="#421B59" mask="url(#mask-2)" points="661.085964 902.364596 862.470221 902.364596 862.470221 460.768148 661.085964 460.768148"></polygon>
                        <polygon id="Fill-14" fill="#421B59" mask="url(#mask-2)" points="1365.19997 902.364596 1507.46051 902.364596 1507.46051 442.972269 1365.19997 442.972269"></polygon>
                        <polygon id="Fill-15" fill="#421B59" mask="url(#mask-2)" points="459.933508 1144.24149 596.984329 1144.24149 596.984329 572.241486 459.933508 572.241486"></polygon>
                        <polygon id="Fill-16" fill="#421B59" mask="url(#mask-2)" points="573.707174 905.145202 685.753924 905.145202 685.753924 481.421389 573.707174 481.421389"></polygon>
                        <polygon id="Fill-17" fill="#421B59" mask="url(#mask-2)" points="1241.84858 902.364596 1369.04641 902.364596 1369.04641 529.683731 1241.84858 529.683731"></polygon>
                        <polygon id="Fill-18" fill="#421B59" mask="url(#mask-2)" points="1207.95929 1144.61583 1339.48601 1144.61583 1339.48601 567.615832 1207.95929 567.615832"></polygon>
                        <polygon id="Fill-19" fill="#421B59" mask="url(#mask-2)" points="872.220346 1146.53535 1230.20493 1146.53535 1230.20493 544.535354 872.220346 544.535354"></polygon>
                        <polygon id="Fill-20" fill="#421B59" mask="url(#mask-2)" points="1899.90606 741.312617 1820.01299 741.312617 1820.01299 762.797144 1786.45112 762.797144 1786.45112 1146.09065 1933.46793 1146.09065 1933.46793 762.797144 1899.90606 762.797144"></polygon>
                        <path d="M1637.54977,838.820796 L1637.54977,1146.0908 L1754.96561,1146.0908 L1754.96561,690.675319 C1690.11787,690.675319 1637.54977,773.996469 1637.54977,838.820796" id="Fill-21" fill="#421B59" mask="url(#mask-2)"></path>
                        <polygon id="Fill-22" fill="#421B59" mask="url(#mask-2)" points="1026.73113 708.59169 955.917413 708.59169 955.917413 738.347072 906.243934 738.347072 906.243934 1146.09109 1076.40316 1146.09109 1076.40316 738.347072 1026.73113 738.347072"></polygon>
                        <polygon id="Fill-23" fill="#421B59" mask="url(#mask-2)" points="701.98578 1146.09051 872.143561 1146.09051 872.143561 738.016295 701.98578 738.016295"></polygon>
                        <polygon id="Fill-24" fill="#421B59" mask="url(#mask-2)" points="513.990487 859.046664 513.990487 1146.09065 615.709059 1146.09065 615.709059 735.638443 577.777743 735.638443"></polygon>
                        <polygon id="Fill-25" fill="#421B59" mask="url(#mask-2)" points="390.92262 735.638588 390.92262 1146.0908 492.64264 1146.0908 492.64264 859.046809 428.855385 735.638588"></polygon>
                        <polygon id="Fill-26" fill="#421B59" mask="url(#mask-2)" points="322.640166 765.76573 255.455579 765.76573 255.455579 807.190968 223.746667 807.190968 223.746667 1146.09037 354.349077 1146.09037 354.349077 807.190968 322.640166 807.190968"></polygon>
                        <polygon id="Fill-27" fill="#421B59" mask="url(#mask-2)" points="38.6759766 1146.09051 169.276938 1146.09051 169.276938 787.107027 38.6759766 787.107027"></polygon>
                        <polygon id="Fill-28" fill="#421B59" mask="url(#mask-2)" points="1657.69211 1146.09051 1903.3938 1146.09051 1903.3938 827.941385 1657.69211 827.941385"></polygon>
                        <polygon id="Fill-29" fill="#421B59" mask="url(#mask-2)" points="1567.48752 754.02578 1360.188 754.02578 1360.188 799.025254 1340.98764 799.025254 1340.98764 1146.09123 1586.68788 1146.09123 1586.68788 799.025254 1567.48752 799.025254"></polygon>
                        <polygon id="Fill-30" fill="#421B59" mask="url(#mask-2)" points="1465.92469 1146.09051 1476.75993 1146.09051 1476.75993 817.495285 1465.92469 817.495285"></polygon>
                        <polygon id="Fill-31" fill="#421B59" mask="url(#mask-2)" points="1499.30981 1146.09051 1510.14506 1146.09051 1510.14506 817.495285 1499.30981 817.495285"></polygon>
                        <polygon id="Fill-32" fill="#421B59" mask="url(#mask-2)" points="1482.6158 1146.09051 1493.45249 1146.09051 1493.45249 817.495285 1482.6158 817.495285"></polygon>
                        <polygon id="Fill-33" fill="#421B59" mask="url(#mask-2)" points="1516.00237 1146.09051 1526.83762 1146.09051 1526.83762 817.495285 1516.00237 817.495285"></polygon>
                        <polygon id="Fill-34" fill="#421B59" mask="url(#mask-2)" points="1549.3875 1146.09051 1560.22274 1146.09051 1560.22274 817.495285 1549.3875 817.495285"></polygon>
                        <polygon id="Fill-35" fill="#421B59" mask="url(#mask-2)" points="1532.69493 1146.09051 1543.53018 1146.09051 1543.53018 817.495285 1532.69493 817.495285"></polygon>
                        <polygon id="Fill-36" fill="#421B59" mask="url(#mask-2)" points="1399.15445 1146.09051 1409.98969 1146.09051 1409.98969 817.495285 1399.15445 817.495285"></polygon>
                        <polygon id="Fill-37" fill="#421B59" mask="url(#mask-2)" points="1382.46189 1146.09051 1393.29713 1146.09051 1393.29713 817.495285 1382.46189 817.495285"></polygon>
                        <polygon id="Fill-38" fill="#421B59" mask="url(#mask-2)" points="1365.76933 1146.09051 1376.60457 1146.09051 1376.60457 817.495285 1365.76933 817.495285"></polygon>
                        <polygon id="Fill-39" fill="#421B59" mask="url(#mask-2)" points="1415.84701 1146.09051 1426.68225 1146.09051 1426.68225 817.495285 1415.84701 817.495285"></polygon>
                        <polygon id="Fill-40" fill="#421B59" mask="url(#mask-2)" points="1432.53957 1146.09051 1443.37481 1146.09051 1443.37481 817.495285 1432.53957 817.495285"></polygon>
                        <polygon id="Fill-41" fill="#421B59" mask="url(#mask-2)" points="1449.23213 1146.09051 1460.06882 1146.09051 1460.06882 817.495285 1449.23213 817.495285"></polygon>
                        <polygon id="Fill-42" fill="#421B59" mask="url(#mask-2)" points="1386.21127 788.884008 1541.4657 788.884008 1541.4657 767.552994 1386.21127 767.552994"></polygon>
                        <polygon id="Fill-43" fill="#421B59" mask="url(#mask-2)" points="762.016268 821.316157 762.016268 1146.09094 924.08275 1146.09094 924.08275 940.10162 846.965495 821.316157"></polygon>
                        <polygon id="Fill-44" fill="#421B59" mask="url(#mask-2)" points="585.662739 940.100896 585.662739 1146.09022 747.729221 1146.09022 747.729221 821.315433 662.778545 821.315433"></polygon>
                        <polygon id="Fill-45" fill="#421B59" mask="url(#mask-2)" points="280.906446 1146.09051 493.63301 1146.09051 493.63301 794.830449 280.906446 794.830449"></polygon>
                        <polygon id="Fill-46" fill="#421B59" mask="url(#mask-2)" points="1447.58055 1146.09051 1572.46907 1146.09051 1572.46907 862.790199 1447.58055 862.790199"></polygon>
                        <path d="M1670.8684,958.281715 L1590.10897,958.281715 L1590.10897,934.794283 L1540.85708,934.794283 L1540.85708,958.281715 L1510.18403,958.281715 L1510.18403,1146.09138 L1670.8684,1146.09138 L1670.8684,1132.13766 L1676.03031,1132.13766 C1681.46749,1132.13766 1685.87605,1127.72924 1685.87605,1122.29258 L1685.87605,1103.41777 L1670.8684,1103.41777 L1670.8684,1081.79711 L1676.03031,1081.79711 C1681.46749,1081.79711 1685.87605,1077.39013 1685.87605,1071.95347 L1685.87605,1053.07721 L1670.8684,1053.07721 L1670.8684,1031.458 L1676.03031,1031.458 C1681.46749,1031.458 1685.87605,1027.05103 1685.87605,1021.61436 L1685.87605,1002.7381 L1670.8684,1002.7381 L1670.8684,958.281715 Z" id="Fill-47" fill="#421B59" mask="url(#mask-2)"></path>
                        <polygon id="Fill-48" fill="#421B59" mask="url(#mask-2)" points="1536.7529 1128.57559 1556.62258 1128.57559 1556.62258 1103.34304 1536.7529 1103.34304"></polygon>
                        <polygon id="Fill-49" fill="#421B59" mask="url(#mask-2)" points="1536.7529 1078.23648 1556.62258 1078.23648 1556.62258 1053.00393 1536.7529 1053.00393"></polygon>
                        <polygon id="Fill-50" fill="#421B59" mask="url(#mask-2)" points="1536.7529 1027.89737 1556.62258 1027.89737 1556.62258 1002.66482 1536.7529 1002.66482"></polygon>
                        <path d="M1411.13522,1032.05945 C1412.04794,1032.05945 1412.78825,1032.67929 1412.78825,1033.44251 L1412.78825,1051.84665 C1412.78825,1052.60987 1412.04794,1053.22826 1411.13522,1053.22826 L1409.50537,1053.22826 L1409.50537,1032.05945 L1411.13522,1032.05945 Z M1415.03672,1033.44251 C1415.03672,1032.67929 1415.77703,1032.05945 1416.68975,1032.05945 L1419.65535,1032.05945 C1420.56807,1032.05945 1421.30693,1032.67929 1421.30693,1033.44251 L1421.30693,1051.84665 C1421.30693,1052.60987 1420.56807,1053.22826 1419.65535,1053.22826 L1416.68975,1053.22826 C1415.77703,1053.22826 1415.03672,1052.60987 1415.03672,1051.84665 L1415.03672,1033.44251 Z M1423.55685,1033.44251 C1423.55685,1032.67929 1424.29717,1032.05945 1425.20988,1032.05945 L1428.17404,1032.05945 C1429.08675,1032.05945 1429.82562,1032.67929 1429.82562,1033.44251 L1429.82562,1051.84665 C1429.82562,1052.60987 1429.08675,1053.22826 1428.17404,1053.22826 L1425.20988,1053.22826 C1424.29717,1053.22826 1423.55685,1052.60987 1423.55685,1051.84665 L1423.55685,1033.44251 Z M1411.13522,1101.11551 C1412.04794,1101.11551 1412.78825,1101.73391 1412.78825,1102.49857 L1412.78825,1120.90271 C1412.78825,1121.66593 1412.04794,1122.28577 1411.13522,1122.28577 L1409.50537,1122.28577 L1409.50537,1101.11551 L1411.13522,1101.11551 Z M1415.03672,1102.49857 C1415.03672,1101.73391 1415.77703,1101.11551 1416.68975,1101.11551 L1419.65535,1101.11551 C1420.56807,1101.11551 1421.30693,1101.73391 1421.30693,1102.49857 L1421.30693,1120.90271 C1421.30693,1121.66593 1420.56807,1122.28577 1419.65535,1122.28577 L1416.68975,1122.28577 C1415.77703,1122.28577 1415.03672,1121.66593 1415.03672,1120.90271 L1415.03672,1102.49857 Z M1423.55685,1102.49857 C1423.55685,1101.73391 1424.29717,1101.11551 1425.20988,1101.11551 L1428.17404,1101.11551 C1429.08675,1101.11551 1429.82562,1101.73391 1429.82562,1102.49857 L1429.82562,1120.90271 C1429.82562,1121.66593 1429.08675,1122.28577 1428.17404,1122.28577 L1425.20988,1122.28577 C1424.29717,1122.28577 1423.55685,1121.66593 1423.55685,1120.90271 L1423.55685,1102.49857 Z M1433.01578,998.725485 L1409.50537,998.725485 L1409.50537,983.610284 C1409.50537,980.040392 1406.61076,977.146824 1403.03958,977.146824 L1244.20961,977.146824 C1240.63843,977.146824 1237.74382,980.040392 1237.74382,983.610284 L1237.74382,1026.05218 L1209.73793,1026.05218 L1209.73793,1054.29561 C1209.73793,1057.26448 1212.14576,1059.67 1215.11571,1059.67 L1237.74382,1059.67 L1237.74382,1095.10679 L1209.73793,1095.10679 L1209.73793,1123.35167 C1209.73793,1126.32055 1212.14576,1128.72606 1215.11571,1128.72606 L1237.74382,1128.72606 L1237.74382,1146.09037 L1409.50537,1146.09037 L1409.50537,1128.72606 L1427.4598,1128.72606 C1430.09364,1128.72606 1432.23055,1126.94039 1432.23055,1124.73473 L1432.23055,1100.22919 L1434.76153,1100.22919 L1434.76153,1098.34794 L1409.50537,1098.34794 L1409.50537,1059.67 L1427.4598,1059.67 C1430.09364,1059.67 1432.23055,1057.88433 1432.23055,1055.68012 L1432.23055,1031.17458 L1434.76153,1031.17458 L1434.76153,1029.29188 L1409.50537,1029.29188 L1409.50537,1005.17446 L1433.01578,1005.17446 C1434.7963,1005.17446 1436.23926,1003.72913 1436.23926,1001.9507 C1436.23926,1000.16937 1434.7963,998.725485 1433.01578,998.725485 L1433.01578,998.725485 Z" id="Fill-51" fill="#421B59" mask="url(#mask-2)"></path>
                        <polygon id="Fill-52" fill="#421B59" mask="url(#mask-2)" points="1269.56182 1121.91517 1318.00531 1121.91517 1318.00531 1083.16192 1269.56182 1083.16192"></polygon>
                        <polygon id="Fill-53" fill="#421B59" mask="url(#mask-2)" points="1269.56182 1052.85911 1318.00531 1052.85911 1318.00531 1014.10586 1269.56182 1014.10586"></polygon>
                        <polygon id="Fill-54" fill="#421B59" mask="url(#mask-2)" points="816.272451 1003.17547 614.476747 1003.17547 614.476747 1022.19945 591.52846 1022.19945 591.52846 1146.09138 837.124389 1146.09138 837.124389 1022.19945 816.272451 1022.19945"></polygon>
                        <polygon id="Fill-55" fill="#421B59" mask="url(#mask-2)" points="250.767985 1146.09051 516.450908 1146.09051 516.450908 988.068088 250.767985 988.068088"></polygon>
                        <polygon id="Fill-56" fill="#421B59" mask="url(#mask-2)" points="297.218998 847.839808 95.4232945 847.839808 95.4232945 887.337448 72.4750075 887.337448 72.4750075 1144.57102 318.069487 1144.57102 318.069487 887.337448 297.218998 887.337448"></polygon>
                    </g>
                </g>
            </g>
        </g>
    </g>
</svg>