<svg width="320" height="237" viewBox="0 0 320 237" xmlns="http://www.w3.org/2000/svg" xmlns:xlink="http://www.w3.org/1999/xlink">
    <defs>
        <path id="35zuenkeqa" d="M0 0h320v237H0z"/>
    </defs>
    <g fill="none" fill-rule="evenodd">
        <mask id="5u5e50huyb" fill="#fff">
            <use xlink:href="#35zuenkeqa"/>
        </mask>
        <g mask="url(#5u5e50huyb)">
            <path d="M206.931 56.53c-.31-5.394 7.197-8.748 11.461-5.546 6.999 5.255-.004 10.033-4.873 12.427-3.13 1.54-6.068 2.5-4.986 6.764-5.128-5.398 4.064-7.59 6.75-10.086 5.313-4.935-1.283-8.722-5.937-4.943-.166.136-.32 1.805-.315 1.995l-2.1-.611zM208.101 71.288c-1.632 4.811 5.564.722.898-.322l-.898.322zM82.638 20.512c-4.992-6.99 2.258-17.865 10.71-17.175 13.865 1.13 8.501 13.495 3.984 20.842-2.904 4.724-6.04 8.508-.968 13.325-11.474-2.91-.974-13.655.524-19.29 2.957-11.14-9.123-10.638-12.176-1.61-.109.323 1.101 2.698 1.267 2.95l-3.341.958zM96.727 39.366c1.885 7.854 8.093-3.748.933-1.195l-.933 1.195z" fill="#B6A9C4"/>
            <path d="M240.302 236.686c-3.442-22.523-4.77-43.468-1.37-56.84 10.285-2.944 33.851 21.615 33.851 21.615s2.257 16.898 3.432 35.225h-35.913z" fill="#F2E6CF"/>
            <path d="M294.593 236.686h-35.457c.47-11.827 1.473-25.209 3.52-37.695-9.369-6.164-15.488-16.172-15.292-16.37 1.149-1.148 52.987-22.839 54.441-20.619 7.293 11.141 7.389 33.733 4.604 39.024l-11.816 35.66z" fill="#FBF8EA"/>
            <path d="M291.915 88.768s-11.389 3.58-15.264 2.605c-3.767-.94-4.322-4.662-4.322-4.662l.228-17.83 20.086-1.243-.728 21.13z" fill="#2D153F"/>
            <path d="M288.61 67.587c.593-3.99 2.943-10.03 1.853-13.02-1.27-3.477-4.952-4.615-8.172-5.357-3.22-.743-4.832.515-6.76 3.676-.403.657-3.14 3.158-2.29 7.879-1.113 2.528-3.309 2.872-3.902 3.87-.32.534.59 1.357 1.658 2.075.558.373-.732 1.285-.602 1.818 2.679 2.44-1.06 7.205.613 9.353.916 1.173 13.698-.61 15.035-1.267 4.534-2.22 1.804-3.93 2.567-9.027" fill="#421B59"/>
            <path d="M289.446 63.702c4.53-1.648 1.832 5.257.658 6.715-.43.536-1.967 1.639-2.745 1.606l2.087-8.32z" fill="#421B59"/>
            <path d="M299.367 48.86c6.902 4.124 2.825 15.43-.894 20.387-3.849 3.051-6.179 8.555-6.179 8.555l-.419-.695c-1.526-3.471-1.672-3.955-2.453-6.061 1.186-1.287 4.31-7.78.024-7.344-.754-1.056-5.506-7.058-5.506-7.058s5.629 3.378 1.85-3.053c-2.974-1.28-7.577-.467-10.02-1.086-3.052-.773-.763-5.588 1.79-6.356 3.592-1.081 3.604-1.102 8.754-1.324 3.956-.173 12.285-1.729 13.053 4.034" fill="#F68528"/>
            <path d="M301.278 55.608c1.058 4.2 1.988 10.762-1.128 13.334-5.116 4.224-7.856 8.86-7.856 8.86l-.419-.695c-1.526-3.471-1.672-3.955-2.453-6.061 1.186-1.287 4.31-7.78.024-7.344-.754-1.056-5.506-7.058-5.506-7.058s1.747-1.052 1.85-3.054c3.741-1.137 13.158-1.706 15.488 2.018" fill="#F68528"/>
            <path d="M225.222 105.335c3.194-7.22 14.809-19.604 19.88-26.612.555-1.22 1.141-2.258 1.141-2.258l9.01-6.768s12.698 2.169 13.836 4.043c.862 1.417-3.13 3.264-5.626 1.948-2.231-.124-3.66-.895-3.875-1.017.31.18 3 1.678 2.782 2.543-.97 3.856-6.596 9.261-9.508 8.124-.3-.117-.458-1.208-.458-1.208s-1.018 2.401-3.482 2.276c-.012.01-.021.023-.033.034-4.092 4.282-4.9 11.832-7.504 17.048 4.524-1.631 25.758-9.724 30.206-11.964 8.162-4.107-16.236 27.594-16.89 27.926-5.808 2.953-24.926 12.512-33.297 4.142-2.615-2.616 2.173-14.54 3.818-18.257" fill="#421B59"/>
            <path d="M309.77 129.922s12.47-23.53 12.868-27.537c-2.28-7.525-21.824-18.699-21.824-18.699l-19.248.117s-14.337-.633-18.796.798c-6.847 2.197-13.664 12.437-15.773 18.226-1.377 3.785-1.969 20.816-1.969 20.816s-4.908 50.33-6.095 56.204c4.544 3.31 15.995 7.49 27.935 8.698 11.951 1.108 32.712-1.726 37.807-4.101-.036-5.994 5.095-54.522 5.095-54.522" fill="#6D2138"/>
            <path d="M328.66 136.192c1.847 8.408-.337 19.467-4.528 29.935-5.186 14.079-29.035 41.168-29.035 41.168l-6.746-11.044 16.62-34.646 3.504-19.57s18.03-5.24 20.185-5.843" fill="#421B59"/>
            <path d="M308.475 132.363v9.671s19.825 3.413 22.849-1.952c4.73-8.395-8.686-37.697-8.686-37.697l-14.163 29.978z" fill="#6D2138"/>
            <path d="M95.414 111.262c7.527-.495 30.312-13.729 32.524-18.477-1.83-8.112-25.738-14.716-31.7-17.755-2.137 10.305-.824 36.232-.824 36.232" fill="#9F1F2B"/>
            <path d="m72.724 56.667-2.456-.009s.095-2.783 3.622-2.578c.56.036 2.534.868 2.534.868s-3.953-7.298-4.942-9.608c-1.615-3.752.743-3.55.743-3.55l1.868 2.492-1.732-3.264c-.595-1.123-.35-2.302.552-2.637.684-.256 2.48 1.25 3.114 1.898-.506-1.084-.503-2.632.443-2.982.991-.367 4.532 4.654 4.532 4.654-.387-.764-.109-1.648.626-1.96.73-.316 5.221 7.22 5.221 7.22.074.14.12.283.146.427l2.591 3.07 1.85 5.395-5.684 5.456-6.276.082-6.752-4.974z" fill="#FFA82C"/>
            <path d="m83.658 64.002 9.407-10.942s34.909 21.14 37.988 34.837c-2.962 10.477-18.677 8.054-18.677 8.054L83.658 64.002z" fill="#BA1929"/>
            <path d="m61.163 236.686.74-4.023 1.373 4.023h38.394c-1.306-20.315-3.77-45-8.338-62.442-1.751-6.69-60.97-2.191-64.618 7.405-3.746 9.852-3.517 32.32-2.05 55.037h34.499z" fill="#58595B"/>
            <path fill="#414244" d="m62.247 233.668 11.289-25.117 7.892-8.287-12.036-2.172z"/>
            <path d="M69.317 80.403s-6.589 8.318-11.07 8.235c-4.352-.083-10.223-8.235-10.223-8.235l.083-16.022h21.126l.084 16.022z" fill="#D28622"/>
            <path d="M70.758 63.387c4.714-1.697.995 4.207-.493 5.525-.547.485-1.69 1.408-2.499 1.237l2.992-6.762zM50.75 55.048c-2.114-4.542-3.691 2.254-3.578 4.239.04.73.19 2.193.88 2.645l2.698-6.884z" fill="#FFA82C"/>
            <path d="M69.863 65.73c1.332-4.069 4.867-9.971 4.253-13.292-.71-3.864-4.358-5.711-7.592-7.059-3.24-1.35-7.118-2.64-10.365-.426-2.788 1.904-4.49 8.57-6.445 12.379-2.492 4.866-2.54 8.903 0 13.62.75 1.39 3.142 3.04 4.617 3.68 1.488.594 4.345 1.132 5.86.687 5.139-1.517 7.971-4.393 9.672-9.59" fill="#FFA82C"/>
            <path d="M79.201 53.501c.09-.73-1.74-3.24-2.343-4.404-.573-1.1 1.29-3.297-.49-5.443-2.21-2.665-2.989-.173-7.673-4.616-2.69-2.555-6.415-.431-6.415-.431s-4.013-.524-4.638-.353c-2.062.569-3.533 2.032-5.909 5.42-1.43 2.044-2.23 7.95-2.243 9.862 0 0 .81 1.395 1.26 1.512.637-1.749 2.396-3.814 2.918-5.065.784-.933 5.105-4.057 6.477-3.97 1.807-.744 3.54 1.78 4.747 2.318.661.295 4.69 1.505 5.982 2.48 2.8 2.112 1.13 7.54 1.13 7.54s-.456 3.351-1.246 5.036c1.838-.663 2.222.12 2.222.12.991-1.893 5.774-6.352 6.221-10.006" fill="#F68528"/>
            <path d="M28.908 125.03S18.574 94.226 18.565 90.12c3.052-5.488 18.273-11.114 18.273-11.114l25.22 2.012 18.991-2.012s12.192-6.433 15.245-.946c-.01 4.106-1.087 46.97-1.087 46.97s-.432 49.738.194 55.813c-4.933 2.91-21.111 7.829-33.343 7.88-12.232-.051-28.41-4.97-33.344-7.88.626-6.075.194-55.812.194-55.812" fill="#BA1929"/>
            <path d="M37.853 108.374c3.81 2.312 4.465-.748 8.92-.748 4.456 0 4.456-.507 8.911-.507 4.456 0 4.456.982 8.911.982 4.457 0 4.457-.458 8.912-.458 4.457 0 5.735 4.067 9.544 1.756 2.311-1.403 1.938-5.469-.374-6.87-3.809-2.312-4.712 1.47-9.167 1.47-4.456 0-4.456.233-8.911.233-4.456 0-4.456-.152-8.912-.152s-4.456-1.053-8.912-1.053-4.76-1.7-8.957-.199c-2.81 1.006-2.277 4.143.035 5.546M38.349 120.319c3.81 2.312 3.97.17 8.425.17s4.455-.637 8.91-.637c4.456 0 4.456 1.41 8.911 1.41 4.457 0 4.457-1.18 8.912-1.18 4.457 0 4.8 2.852 8.612.54 2.31-1.402 2.726-3.692.414-5.095-3.809-2.31-4.568-1.089-9.023-1.089-4.457 0-4.457 1.331-8.911 1.331-4.456 0-4.456-1.043-8.912-1.043s-4.456 1.372-8.912 1.372-4.82-2.252-9.09-.979c-2.465.736-1.648 3.797.664 5.2M37.305 134.802c3.809 2.312 5.013-1.543 9.469-1.543 4.455 0 4.455 1.64 8.91 1.64 4.456 0 4.456-.583 8.911-.583 4.457 0 4.457.164 8.912.164 4.457 0 5.035 1.602 8.844-.71 2.312-1.401 2.101-3.43-.21-4.832-3.81-2.311-4.176.365-8.631.365-4.456 0-4.456-.582-8.911-.582-4.456 0-4.456-.608-8.912-.608s-4.456-.94-8.912-.94c-4.457 0-4.466.386-8.578 2.105-3.19 1.332-3.204 4.122-.892 5.524" fill="#F2E6CF"/>
            <path d="M27.5 167.625c4.07 6.267 5.127 11.753 1.808 18.546-1.06 2.164-2.425 6.383-4.868 7.274-2.139.773-7.076-1.361-8.736-2.826-2.603-2.284-2.5-6.374.035-8.76 1.175 1.528 2.361 3.24 3.527 4.816.47-2.852-.6-5.918-.09-8.603.491-2.587 3.229-4.726 4.737-6.827 1.127-1.562 1.99-2.895 3.383-4.247l.204.627z" fill="#FFA82C"/>
            <path d="M18.972 180.685c-.986.528-2.131 1.011-3.233 1.173.599 1.333 1.995 3.642 3.527 4.817.43-1.802.611-4.355-.294-5.99" fill="#DF9B44"/>
            <path d="m18.023 180.839 9.273-13.842-11.293-26.103 12.905-15.863s5.411-9.752 1.362-20.436c-3.1-8.182-10.212-16.364-10.212-16.364s-24.218 30.53-33.64 54.989c5.83 12.95 31.605 37.619 31.605 37.619" fill="#BA1929"/>
            <path d="M173.467 76.265c-2.395 12.75 4.519 12.905 4.519 12.905 0 16.714-29.31 5.755-29.611.396 6.835-.856 9.651-5.16 11.267-12.15-1.794-3.146-2.693-5.859-1.44-11.342l15.265 10.191z" fill="#D36374"/>
            <path d="M171.931 209.235s3.734 12.74 8.14 27.765h28.663c-.931-18.136-3.106-39.288-7.856-57.963-10.48-3.002-28.947 30.198-28.947 30.198M141.138 237h25.812c.258-8.207.544-17.493.854-27.796-10.481-3.002-29.085-35.242-29.085-35.242s-.181 33.083 2.42 63.038" fill="#421B59"/>
            <path d="M194.208 153.014c10.666 18.502 10.95 23.178 8.947 35.231-.815 4.9-11.073 19.122-15.63 19.962-.673.123-1.343-21.041-2.011-20.937-1.328.21-2.645 21.662-3.952 21.804-22.956 2.476-43.368-15.415-43.368-15.415-2.548-5.535-4.355-26.932 6.561-37.847 1.912-1.914 38.935-9.812 49.453-2.798" fill="#FBF8EA"/>
            <path d="M207.579 127.334c1.833-4.781 6.245-9.785 6.59-14.976.825-12.346 9.23-2.984 7.847 2.863-1.651 6.998-3.124 17.013-6.043 23.678-1.432 3.272-6.385 12.616-9.56 13.306-1.665.363-4.738-3.399-6.206-4.63-2.214-1.859-1.443-2.106-2.812-5.467-2.218-5.436 8.556-18.672 10.184-14.774" fill="#F27581"/>
            <path d="M222.91 93.655s2.8-1.386 1.098 3.403c-.225.638-3.716 2.773-2.782 3.325 5.528 3.264 16.18-9.584 17.497-5.96 4.217-2.292 3.718.099 3.515.99 2.744.7-.09 2.546-.584 3.04 2.415 2.416-6.445 8.16-6.445 8.16l-6.368 4.39-6.694 3.398s-6.683-2.382-7.644-4.59c-.941-2.157 1.725-10.3 1.725-10.3l2.949-3.661 3.734-2.195z" fill="#F27581"/>
            <path d="M207.579 127.334c-4.147 3.242-15.816 3.414-15.816 3.414l-3.584-19.077s8.175-17.225 10.13-13.306c5.482 10.995 8.454 27.413 9.27 28.97" fill="#D27026"/>
            <path d="M207.579 127.334c-5.747 4.48-8.551 13.14-10.184 14.774-4.148 3.243-5.205-11.373-5.205-11.373s12.662-13.627 15.389-3.4" fill="#FBF8EA"/>
            <path d="M127.952 110.59c8.996-23.113 24.417-23.259 24.417-23.259l2.553-9.338 19.265 6.281v1.89s15.358-2.04 24.123 12.2c-2.438 6.962 7.03 70.903 5.642 80.968-4.537 3.427-52.853 16.36-67.391 8.81-4.9-13.451 6.165-30.376 6.837-34.955-2.453-9.86-19.215-33.77-15.446-42.596" fill="#F68528"/>
            <path d="M121.654 128.822c-2.44-4.504-7.464-8.89-8.483-13.993-2.42-12.132-9.537-1.759-7.408 3.858 2.55 6.725 5.312 16.463 9.07 22.693 1.846 3.057 7.973 11.676 11.21 11.949 1.696.144 4.255-3.984 5.55-5.398 1.956-2.131 1.157-2.276 2.08-5.785 1.492-5.678-8.983-13.324-12.019-13.324" fill="#F27581"/>
            <path d="M102.074 97.42s-2.955-1.01-.647 3.517c.308.604 4.046 2.267 3.193 2.937-5.057 3.952-17.287-7.402-18.125-3.637-4.477-1.724-3.672.58-3.355 1.437-2.63 1.053.42 2.514.975 2.94-2.083 2.709 7.448 7.253 7.448 7.253l6.887 3.525 7.077 2.498s6.318-3.23 6.985-5.543c.653-2.26-3.05-9.989-3.05-9.989l-3.4-3.246-3.988-1.692z" fill="#F27581"/>
            <path d="M133.605 96.306c-7.163 3.902-5.52 24.592-11.95 32.515 2.085.767 11.245 3.243 11.915 13.731 5.476-8.517 6.425-10.525 5.651-17.471 3.652-3.654 5.976-18.118 2.294-24.797-2.622-4.753-8.001-4.032-7.91-3.978" fill="#F68528"/>
            <path d="M138.408 134.115c-4.77-7.882-14.724-8.727-14.724-8.727l-2.03 3.434 11.916 13.73s6.107-6.342 4.838-8.437" fill="#FBF8EA"/>
            <path d="M163.238 67.18c-.501-3.807 4.595-14.16 7.715-14.572 3.119-.41 4.34-.514 6.522 2.255 2.342 2.97.78 5.392 1.018 7.102.203 1.46 1.733 3.25 2.494 4.43-.226.818-1.582 1.862-1.582 1.862s-.096 1.289.294 1.755c-1.08.797-1.331 1.473-1.505 2.603-.23 1.492-.08 3.437-.85 4.081-1.99 1.668-7.152-.467-8.36-1.208-4.094-2.518-5.107-3.46-5.746-8.308" fill="#F27581"/>
            <path d="M136.106 88.297c3.29-3.612 5.16-7.866 6.043-12.723 1.802-9.917-.475-21.395 14.08-27.752 1.366-.98 2.818-1.695 4.192-1.876 3.118-.41 7.156.12 10.934 1.236 2.843.84 7.306-1.571 5.796 7.283-.725-.784-1.646-1.623-2.316-1.695-2.012.265-.857.866-4.993 4.472-2.162 1.884-3.583 4.059-4.56 6.228 1.736 6.731 3.148 18.125-2.45 23.485-2.904 2.78-11.152-.192-13.98 2.69-2.737 2.785-.93 5.854-2.842 9.103-4.138 7.037-18.317-1.21-9.904-10.45" fill="#FFD18F"/>
        </g>
    </g>
</svg>
