<svg id="Layer_1" data-name="Layer 1" xmlns="http://www.w3.org/2000/svg" xmlns:xlink="http://www.w3.org/1999/xlink" viewBox="0 0 1440 451.08"><defs><mask id="mask" x="1361.17" y="0" width="26.67" height="37.8" maskUnits="userSpaceOnUse"><g transform="translate(0 0)"><g id="mask-2"><polygon id="path-1" points="1361.17 0 1387.84 0 1387.84 37.8 1361.17 37.8 1361.17 0" style="fill:#fff;fill-rule:evenodd"/></g></g></mask><mask id="mask-2-2" x="242.19" y="336.06" width="125.71" height="114.48" maskUnits="userSpaceOnUse"><g transform="translate(0 0)"><g id="mask-4"><polygon id="path-3" points="242.19 336.06 367.9 336.06 367.9 450.54 242.19 450.54 242.19 336.06" style="fill:#fff;fill-rule:evenodd"/></g></g></mask></defs><g id="_0.0---DEV" data-name="0.0---DEV"><g id="_0.0--hero-desk" data-name="0.0--hero-desk"><g id="Group"><g id="hero-illustration-desk"><g id="Group-3"><g style="mask:url(#mask)"><path id="Fill-1" d="M1361.18,12.56c-.57-10,13.31-16.17,21.2-10.25,12.94,9.71,0,18.55-9,23-5.79,2.84-11.23,4.62-9.22,12.51-9.49-10,7.51-14,12.48-18.66,9.82-9.12-2.38-16.12-11-9.13-.31.25-.59,3.33-.59,3.68Z" transform="translate(0 0)" style="fill:#b6a9c4;fill-rule:evenodd"/></g></g><path id="Fill-4" d="M1363.35,39.85c-3,8.9,10.28,1.34,1.66-.59Z" transform="translate(0 0)" style="fill:#b6a9c4;fill-rule:evenodd"/><path id="Fill-6" d="M1242.27,93.33c-.59-10.31,13.76-16.72,21.91-10.6,13.38,10,0,19.18-9.31,23.75-6,2.94-11.6,4.78-9.53,12.93-9.81-10.32,7.76-14.51,12.9-19.28,10.15-9.43-2.45-16.67-11.35-9.45-.32.26-.61,3.45-.6,3.82Z" transform="translate(0 0)" style="fill:#b6a9c4;fill-rule:evenodd"/><path id="Fill-8" d="M1244.51,121.54c-3.12,9.19,10.64,1.38,1.72-.62Z" transform="translate(0 0)" style="fill:#b6a9c4;fill-rule:evenodd"/><path id="Fill-10" d="M155.88,84c-.59-10.31,13.76-16.72,21.91-10.6,13.37,10,0,19.18-9.32,23.75-6,3-11.59,4.78-9.53,12.93-9.8-10.31,7.77-14.51,12.91-19.27,10.15-9.44-2.46-16.68-11.35-9.45-.32.26-.61,3.45-.6,3.81Z" transform="translate(0 0)" style="fill:#b6a9c4;fill-rule:evenodd"/><path id="Fill-12" d="M158.12,112.22c-3.12,9.2,10.63,1.38,1.72-.61Z" transform="translate(0 0)" style="fill:#b6a9c4;fill-rule:evenodd"/><path id="Fill-14" d="M810.28,106.14c-.59-10.31,13.75-16.72,21.9-10.6,13.38,10,0,19.17-9.31,23.75-6,2.94-11.6,4.78-9.53,12.93-9.8-10.32,7.77-14.51,12.9-19.28,10.16-9.43-2.45-16.67-11.34-9.45-.32.26-.62,3.45-.61,3.81Z" transform="translate(0 0)" style="fill:#b6a9c4;fill-rule:evenodd"/><path id="Fill-16" d="M812.52,134.35c-3.12,9.19,10.63,1.37,1.71-.62Z" transform="translate(0 0)" style="fill:#b6a9c4;fill-rule:evenodd"/><path id="Fill-18" d="M572.71,37.29C563.17,23.94,577,3.15,593.18,4.47c26.5,2.16,16.25,25.79,7.62,39.83-5.55,9-11.55,16.27-1.85,25.47-21.93-5.56-1.86-26.1,1-36.87,5.65-21.29-17.44-20.33-23.27-3.08-.21.62,2.1,5.16,2.42,5.64Z" transform="translate(0 0)" style="fill:#b6a9c4;fill-rule:evenodd"/><path id="Fill-20" d="M599.64,73.33c3.6,15,15.47-7.16,1.78-2.28Z" transform="translate(0 0)" style="fill:#b6a9c4;fill-rule:evenodd"/><path id="Fill-22" d="M1063.8,15.92H995.9a7.16,7.16,0,0,0-7.15,7.16v14.6L974.68,56.15l14.07-6.82V60.64a7.15,7.15,0,0,0,7.15,7.15h67.9a7.15,7.15,0,0,0,7.15-7.15V23.08a7.16,7.16,0,0,0-7.15-7.16" transform="translate(0 0)" style="fill:#b6a9c4;fill-rule:evenodd"/><path id="Fill-24" d="M441.28,64.53h-67.9a7.15,7.15,0,0,0-7.15,7.15V86.29l-14.07,18.46,14.07-6.81v11.31a7.15,7.15,0,0,0,7.15,7.15h67.9a7.15,7.15,0,0,0,7.15-7.15V71.68a7.15,7.15,0,0,0-7.15-7.15" transform="translate(0 0)" style="fill:#b6a9c4;fill-rule:evenodd"/><path id="Fill-26" d="M372.76,254.11c3.5-9.14,11.93-18.7,12.59-28.62,1.58-23.6,17.64-5.7,15,5.47-3.16,13.38-6,32.52-11.55,45.26-2.74,6.25-12.2,24.11-18.27,25.43-3.18.69-9.06-6.5-11.86-8.85-4.24-3.55-2.76-4-5.38-10.45-4.24-10.39,16.35-35.69,19.47-28.24" transform="translate(0 0)" style="fill:#775093;fill-rule:evenodd"/><path id="Fill-28" d="M402.06,189.74s5.35-2.65,2.1,6.51c-.43,1.22-7.1,5.3-5.32,6.35,10.57,6.24,30.92-18.32,33.44-11.39,8.06-4.38,7.11.19,6.72,1.89,5.25,1.34-.17,4.87-1.11,5.81,4.61,4.62-12.32,15.6-12.32,15.6l-12.18,8.39-12.79,6.49s-12.77-4.55-14.61-8.77,3.3-19.69,3.3-19.69l5.63-7Z" transform="translate(0 0)" style="fill:#775093;fill-rule:evenodd"/><path id="Fill-30" d="M335.68,224.18,344.35,188A25.24,25.24,0,0,1,355,198.74c9.29,18.64,14.8,45.4,17,53.31a17.69,17.69,0,0,1,.7,2.06c-11,8.56-16.35,25.12-19.47,28.24-7.92,6.19-9.94-21.67-10-21.73l-.81,0Z" transform="translate(0 0)" style="fill:#d5be98;fill-rule:evenodd"/><path id="Fill-32" d="M292.05,141.78c1.92-2.34,4.46-6.42,9.09-6.69,4.63,0,14.5,11.42,16.53,13.67-5.56,15.58,2.13,24.17,2.13,24.17s-7.89,12.32-17.79,12.55-23-17.41-23-17.41,17-10.45,13-26.29" transform="translate(0 0)" style="fill:#421b59;fill-rule:evenodd"/><path id="Fill-34" d="M239.93,180.63c5.1,6.64-3.52,26.58-10.85,30.6-24.66-6.3-47.29-29.64-52.41-54.52,11.68,3,24.67-7,24.67-7s29.39,18.89,38.59,30.88" transform="translate(0 0)" style="fill:#d5be98;fill-rule:evenodd"/><path id="Fill-36" d="M291.7,118.47s10.5-4.72,10.17-6.66-3.15-2.43-5.33-1.89c1.42-.94,4.83-3.7,4.61-5-.3-1.78-2.38-2.66-4.66-2l-6.61,2,5.24-2.56s1.22-4.25-6.26-2.63c-4.6,1-19.42,5.67-19.42,5.67a29,29,0,0,0,2.49-4.34c1.64-6.41-3.45-7.58-3.45-7.58L267.6,98l-11.55,10.64L254,120.14l-.26-.34s-61.11,10.54-74.63,24.77c-4.83,5.07-5.65,16.44,8.86,22,21,3.47,64.78-28.33,64.78-28.33l9.31-5.66,10.51-1.48,6.57-3.67a2.8,2.8,0,0,0,.84-.12s15.44-5.57,15.13-7a2.64,2.64,0,0,0-3.39-1.85" transform="translate(0 0)" style="fill:#775093;fill-rule:evenodd"/><g id="Group-40"><g style="mask:url(#mask-2-2)"><path id="Fill-38" d="M242.19,450.54h51.73c5.64-22.65,9.23-39.66,9.23-39.66s-16-60.6-36.8-61a383.4,383.4,0,0,0-24.16,100.63m68.64,0h54.59c4.21-35.68,4.06-76.76-8.48-114.2-1.64-4.89-37.89,54.46-43.08,55.26-2.41.37-3,27.61-3,58.94" transform="translate(0 0)" style="fill:#f68528;fill-rule:evenodd"/></g></g><path id="Fill-41" d="M228.43,169.41c34.37-7.44,50.5-5,50.5-5s12.18,16.21,20.28,16.51,21.46-15,21.46-15,37.66,17.13,36.71,64.53c-.29,14.09-5.35,46.44-9.74,65.36l-.09.06c20,35.39,34.61,73.77,30.57,87.76-.39,1.37-137.4,14.38-137.4,14.38-22.76-39.23-7.4-215.45-12.29-228.68" transform="translate(0 0)" style="fill:#f2e6cf;fill-rule:evenodd"/><path id="Fill-43" d="M299.3,137.79c-.91-6.91,8.34-25.69,14-26.43s7.87-.94,11.83,4.09c4.25,5.38,1.42,9.78,1.85,12.88.37,2.65,3.14,5.9,4.52,8-.41,1.48-2.87,3.38-2.87,3.38s-.17,2.33.53,3.18a6.1,6.1,0,0,0-2.73,4.72c-.41,2.71-.14,6.24-1.54,7.41-3.61,3-13-.85-15.16-2.2-7.43-4.56-9.27-6.27-10.43-15.07" transform="translate(0 0)" style="fill:#775093;fill-rule:evenodd"/><path id="Fill-45" d="M296.62,152c-1.32.68-3.29.68-4.56,1.44-22.41,0-41.36-40.54-21.79-50.53-19.64-27,30.29-27.42,20.73-10,16.07,0,36.28,5.74,33.54,21.8-1.32-1.42-3-2.94-4.2-3.07-3.65.48-1.56,1.57-9.06,8.11-13.71,12-11.06,30.36-14.66,32.23" transform="translate(0 0)" style="fill:#261235;fill-rule:evenodd"/><path id="Fill-47" d="M302.82,132.67c-6.68-4.43-6.07,6.23-4.29,8.8.65.94,2.05,2.78,3.39,2.84Z" transform="translate(0 0)" style="fill:#775093;fill-rule:evenodd"/><polygon id="Fill-49" points="246.54 419.88 367.89 410.88 378.12 383.71 240.72 398.09 246.54 419.88" style="fill:#d5be98;fill-rule:evenodd"/><path id="Fill-51" d="M874.06,450.48c-6.58-43.05-9.11-83.09-2.61-108.64,19.65-5.63,64.7,41.31,64.7,41.31s4.31,32.3,6.55,67.33Z" transform="translate(0 0)" style="fill:#f2e6cf;fill-rule:evenodd"/><path id="Fill-53" d="M977.83,450.48H910.06c.9-22.61,2.82-48.18,6.73-72.05-17.91-11.78-29.61-30.91-29.23-31.29,2.2-2.19,101.28-43.65,104.06-39.41,13.94,21.29,14.12,64.48,8.8,74.59Z" transform="translate(0 0)" style="fill:#fbf8ea;fill-rule:evenodd"/><path id="Fill-55" d="M972.71,167.75s-21.77,6.85-29.17,5c-7.2-1.8-8.26-8.92-8.26-8.92l.43-34.07,38.4-2.38Z" transform="translate(0 0)" style="fill:#2d153f;fill-rule:evenodd"/><path id="Fill-57" d="M966.4,127.27c1.13-7.62,5.62-19.17,3.54-24.88-2.43-6.65-9.47-8.83-15.62-10.24s-9.24,1-12.92,7c-.77,1.26-6,6-4.38,15.06-2.13,4.83-6.32,5.49-7.46,7.4-.61,1,1.13,2.59,3.17,4,1.07.72-1.4,2.46-1.15,3.48,5.12,4.66-2,13.77,1.17,17.88,1.75,2.24,26.18-1.17,28.74-2.42,8.67-4.25,3.45-7.52,4.91-17.26" transform="translate(0 0)" style="fill:#421b59;fill-rule:evenodd"/><path id="Fill-59" d="M968,119.85c8.66-3.15,3.51,10,1.26,12.83-.82,1-3.76,3.13-5.25,3.07Z" transform="translate(0 0)" style="fill:#421b59;fill-rule:evenodd"/><path id="Fill-61" d="M987,91.48c13.19,7.88,5.4,29.49-1.71,39-7.36,5.84-11.81,16.35-11.81,16.35l-.8-1.32c-2.92-6.64-3.2-7.56-4.69-11.59,2.27-2.46,8.24-14.87,0-14-1.44-2-10.52-13.5-10.52-13.5s10.76,6.46,3.53-5.83c-5.68-2.45-14.48-.89-19.15-2.08C936,97,940.4,87.76,945.28,86.3c6.86-2.07,6.88-2.11,16.73-2.54,7.56-.33,23.48-3.3,25,7.72" transform="translate(0 0)" style="fill:#f68528;fill-rule:evenodd"/><path id="Fill-63" d="M990.61,104.38c2,8,3.8,20.56-2.16,25.48a72.41,72.41,0,0,0-15,16.93l-.8-1.32c-2.92-6.64-3.2-7.56-4.69-11.59,2.27-2.46,8.24-14.87,0-14-1.44-2-10.52-13.5-10.52-13.5a7.8,7.8,0,0,0,3.53-5.83c7.16-2.18,25.15-3.26,29.61,3.86" transform="translate(0 0)" style="fill:#f68528;fill-rule:evenodd"/><path id="Fill-65" d="M845.24,199.42c6.1-13.8,28.3-37.47,38-50.86,1.06-2.33,2.18-4.32,2.18-4.32l17.22-12.94s24.27,4.15,26.44,7.73c1.65,2.71-6,6.24-10.75,3.73a17.79,17.79,0,0,1-7.41-1.95c.6.35,5.74,3.21,5.32,4.86-1.85,7.37-12.6,17.7-18.17,15.53-.58-.23-.88-2.31-.88-2.31s-1.94,4.59-6.65,4.35l-.06.07c-7.83,8.18-9.37,22.61-14.35,32.58,8.65-3.12,49.24-18.59,57.74-22.87,15.6-7.85-31,52.74-32.29,53.38-11.1,5.64-47.64,23.91-63.64,7.92-5-5,4.16-27.79,7.3-34.9" transform="translate(0 0)" style="fill:#421b59;fill-rule:evenodd"/><path id="Fill-67" d="M1006.84,246.41s23.83-45,24.59-52.63C1027.08,179.4,989.72,158,989.72,158l-36.79.22s-27.4-1.2-35.92,1.53c-13.09,4.2-26.12,23.77-30.15,34.84-2.63,7.23-3.76,39.78-3.76,39.78s-9.38,96.2-11.65,107.43c8.68,6.32,30.57,14.31,53.39,16.62,22.84,2.12,62.52-3.3,72.26-7.84-.07-11.45,9.74-104.21,9.74-104.21" transform="translate(0 0)" style="fill:#6d2138;fill-rule:evenodd"/><path id="Fill-69" d="M1042.94,258.4c3.53,16.07-.64,37.21-8.65,57.21-9.91,26.91-55.5,78.69-55.5,78.69L965.9,373.19,997.67,307l6.69-37.4s34.46-10,38.58-11.17" transform="translate(0 0)" style="fill:#421b59;fill-rule:evenodd"/><path id="Fill-71" d="M1004.36,251.08v18.49s37.9,6.52,43.68-3.74c9-16-16.61-72-16.61-72Z" transform="translate(0 0)" style="fill:#6d2138;fill-rule:evenodd"/><path id="Fill-73" d="M1127.75,185.4c-8,1.79-45.12,6.23-53,7,6.24-7.28,10.55-19,18.79-24.21,19.6-12.37-3.32-17.86-11.72-10.37-10,9-25.23,20.32-33.61,31.07-4.11,5.28-15.08,21.77-13.38,27.62.88,3.06,9.82,4.77,13.16,6.09,5,2,4.75.5,11.51-.24a273.35,273.35,0,0,0,31.81-5.87c1.17-.27,51.1-34.41,36.43-31.11" transform="translate(0 0)" style="fill:#fb8a59;fill-rule:evenodd"/><path id="Fill-75" d="M1116.16,149.87s-1.61-4.89-7.74-2.2c-1,.43-5.12-5.48-5.12-5.48l-5.11,1.65-13.61-4.66L1078.93,152l-2.36,10.77,12,8.7,13.85-6.7,9.37-13.25Z" transform="translate(0 0)" style="fill:#fb8a59;fill-rule:evenodd"/><path id="Fill-77" d="M1095.37,135.25a2.91,2.91,0,0,0-1.67,3.57l4.55,10.36a2.6,2.6,0,0,0,3.64.94,2.91,2.91,0,0,0,1.67-3.58L1099,136.18a2.58,2.58,0,0,0-3.64-.93" transform="translate(0 0)" style="fill:#f9916b;fill-rule:evenodd"/><path id="Fill-79" d="M1101.75,137.32c-1.9-.68-3.35-1-2.82,0l5.76,10.88a3.11,3.11,0,0,0,3.49,1.11c1.38-.4,2.08-1.53,1.54-2.53l-4.48-8.33a3.11,3.11,0,0,0-3.49-1.11" transform="translate(0 0)" style="fill:#f9916b;fill-rule:evenodd"/><path id="Fill-81" d="M1104.82,138.63l4.27,5.71a2.84,2.84,0,0,0,3.17.89c1.25-.38,1.84-1.4,1.34-2.27,0,0-.93-3.54-3.68-4.53-2.25-.8-5.61-.67-5.1.2" transform="translate(0 0)" style="fill:#f9916b;fill-rule:evenodd"/><path id="Fill-83" d="M1090.35,136.71c-1.21.64-6.25,1.43-5.77,2.47l8.45,9.14a2.18,2.18,0,0,0,3.07.71,2.44,2.44,0,0,0,1.33-3l-3.45-9.53c-.48-1-2.41-.41-3.63.23" transform="translate(0 0)" style="fill:#f9916b;fill-rule:evenodd"/><path id="Fill-85" d="M1137.61,201.11c1.3,5.94,9.49,10.08,11.15,15.8,1.78,6.1-2.88,14.08-.85,19.47,2.21,5.89,10.94,8.65,13.56,13.92,3,5.95.27,15.11,3.56,19.75,3.88,5.51,12.81,4.81,17.32,8.14,5.28,3.87,8.88,13.14,14.7,13.19s9.4-9.49,14.4-13.93c4.3-3.81,13.3-3.61,16.68-10.26,2.87-5.69-1.08-15.8.62-23.07,1.51-6.47,9.39-11.74,9.89-19.4.44-7.06-6.57-14.84-7.2-22.3-.58-7,5.2-15.2,3.56-22.67s-10.31-12.48-12.73-19.1c-2.55-7,.56-17-2.79-23.27-3.66-6.74-13-8.24-17.11-13.48-4.59-5.89-5.23-16.72-10.22-20.69-5.84-4.63-13.94-.68-19.43-2.34-6.4-1.94-13.62-9.12-18.92-6.62s-4.65,12.41-7.82,18.13c-2.71,4.91-11.11,8-12.33,14.64-1.05,5.59,5.25,12.78,5,19.43-.18,5.89-7,12-6.49,18.31.42,5.75,8,11.05,8.93,17.33.89,5.89-4.83,13.08-3.52,19" transform="translate(0 0)" style="fill:#2d153f;fill-rule:evenodd"/><path id="Fill-87" d="M1130.93,145.64c4.57,24.31-8.61,24.61-8.61,24.61,0,31.86,55.88,11,56.46.75-13-1.63-18.41-9.84-21.49-23.16,3.43-6,5.14-11.17,2.75-21.63Z" transform="translate(0 0)" style="fill:#fb8a59;fill-rule:evenodd"/><path id="Fill-89" d="M1155.05,136.06c1.49-7.41,4.24-19.09,2.29-24.58-2.27-6.39-8.67-8.22-14.26-9.35s-12.21-1.92-16.77,3.09c-3.93,4.31-5.37,14.76-6.39,22.24-1.32,9.55-2.12,15.82,4.73,25.11,1.58,2.14,3.06,7.42,15.36,1.31,8.08-4,13.14-8.39,15-17.82" transform="translate(0 0)" style="fill:#f9916b;fill-rule:evenodd"/><path id="Fill-91" d="M1154.56,132.86c7.55-4.29,3.2,6.61,1.09,9.25-.78,1-2.92,2.77-4.37,2.74Z" transform="translate(0 0)" style="fill:#f9916b;fill-rule:evenodd"/><path id="Fill-93" d="M1155.05,133c1.55-.43-7.22,11.54,2.68,17.38,9.44-6.27,11.77-10.87,13.26-14.46,5.63-13.58-.09-29.6-.09-29.6s-3.57-8.45-16.93-11.14c-6.07-1.23-18.51-.5-24.29,3.34-4.86,3.23-8.9,10-6.52,12.69,1.61-1.79,9.67-5.12,11.52-2.33,16.76-2.8,7.26,18.26,20.37,24.12" transform="translate(0 0)" style="fill:#2d153f;fill-rule:evenodd"/><path id="Fill-95" d="M1194,450.47h-62.94l-4.78-20.17c.24,6.38.45,13.18.65,20.17h-61.37c-3.07-33.53-2.53-66,4.7-93,3.36-21.15,9.78-43.62,20.12-61.56,20-13.37,91.82-.3,93.65,4.52,6.8,18,6.58,93.47,6.58,124.05,1.3,8.76,2.43,17.51,3.39,26" transform="translate(0 0)" style="fill:#f68528;fill-rule:evenodd"/><path id="Fill-97" d="M1216.41,211.09c-17.16-44.07-46.56-44.35-46.56-44.35s-25.35,15-33.43,14.57-8.17-16.79-8.17-16.79-23.78-3.32-49.46,22.36c4.65,13.28-9.28,139-6.64,158.14,7.53,5.68,5.77-63.48,64.76-42.38-3.15,49.37,56.89,73.22,55.44,63.36-6.13-51.38,31.24-138.08,24.06-154.91" transform="translate(0 0)" style="fill:#c0222c;fill-rule:evenodd"/><path id="Fill-99" d="M1179.06,323.75c.8-7.48-.88-14.47,4.53-19.2,9.54-3.2,38.75-25.33,45.7-30.77-13.19-15.29-23-34.95-38.66-39.17-10.57-2.86,10.82-44.52,20.66-33.91s43.63,55.95,48.3,71.09c1.48,4.77,5.86,13.48,2.57,17.92-1.42,1.92-35.21,17.13-48.72,19.56-9.69,1.74-18.1,4-18,14.57.1,10.18,3.49,16.19-3.45,25.57.13-.82.25-1.66.36-2.53-.47-4.22-1.2-19.45-3-23.34-3.89,5.81-9,20.74-18.41,20.52-.64-7.62,7.35-12.58,8.17-20.31" transform="translate(0 0)" style="fill:#f9916b;fill-rule:evenodd"/><path id="Fill-101" d="M597.13,210.75c14.39-.95,57.94-26.24,62.17-35.32-3.5-15.5-49.2-28.12-60.59-33.93-4.09,19.69-1.58,69.25-1.58,69.25" transform="translate(0 0)" style="fill:#9f1f2b;fill-rule:evenodd"/><path id="Fill-103" d="M553.76,106.4l-4.69,0s.18-5.32,6.92-4.93a30.41,30.41,0,0,1,4.84,1.66s-7.55-14-9.44-18.36c-3.09-7.17,1.42-6.79,1.42-6.79l3.57,4.77-3.31-6.24c-1.14-2.15-.67-4.4,1-5,1.31-.49,4.74,2.39,6,3.63-1-2.08-1-5,.84-5.7s8.67,8.89,8.67,8.89a2.66,2.66,0,0,1,1.19-3.74c1.4-.61,10,13.79,10,13.79a3,3,0,0,1,.28.82L586,95l3.54,10.31-10.87,10.43-12,.16Z" transform="translate(0 0)" style="fill:#ffa82c;fill-rule:evenodd"/><path id="Fill-105" d="M574.66,120.42l18-20.92s66.72,40.41,72.61,66.59c-5.66,20-35.7,15.39-35.7,15.39Z" transform="translate(0 0)" style="fill:#ba1929;fill-rule:evenodd"/><path id="Fill-107" d="M531.66,450.48l1.42-7.69,2.62,7.69h73.39c-2.5-38.83-7.21-86-15.94-119.35-3.35-12.79-116.53-4.19-123.51,14.15-7.15,18.83-6.72,61.78-3.92,105.2Z" transform="translate(0 0)" style="fill:#58595b;fill-rule:evenodd"/><polygon id="Fill-109" points="533.74 444.71 555.31 396.7 570.4 380.86 547.39 376.71 533.74 444.71" style="fill:#414244;fill-rule:evenodd"/><path id="Fill-111" d="M547.25,151.77s-12.59,15.89-21.16,15.74c-8.32-.16-19.54-15.74-19.54-15.74l.16-30.63h40.38Z" transform="translate(0 0)" style="fill:#d28622;fill-rule:evenodd"/><path id="Fill-113" d="M550,119.24c9-3.24,1.91,8-.94,10.56-1,.93-3.23,2.7-4.77,2.37Z" transform="translate(0 0)" style="fill:#ffa82c;fill-rule:evenodd"/><path id="Fill-115" d="M511.76,103.31c-4-8.69-7.05,4.3-6.84,8.1.08,1.39.37,4.19,1.69,5Z" transform="translate(0 0)" style="fill:#ffa82c;fill-rule:evenodd"/><path id="Fill-117" d="M548.29,123.72c2.55-7.78,9.31-19.06,8.13-25.4-1.35-7.39-8.33-10.92-14.51-13.5s-13.6-5-19.81-.81c-5.33,3.64-8.58,16.38-12.32,23.66-4.76,9.3-4.85,17,0,26,1.44,2.66,6,5.81,8.83,7s8.3,2.16,11.2,1.31c9.82-2.9,15.23-8.4,18.48-18.33" transform="translate(0 0)" style="fill:#ffa82c;fill-rule:evenodd"/><path id="Fill-119" d="M566.14,100.35c.17-1.4-3.32-6.2-4.48-8.42s2.47-6.3-.93-10.4c-4.23-5.1-5.71-.33-14.67-8.83-5.14-4.88-12.26-.82-12.26-.82s-7.67-1-8.86-.68c-4,1.09-6.76,3.89-11.3,10.36-2.73,3.91-4.26,15.2-4.29,18.86,0,0,1.55,2.66,2.41,2.89,1.22-3.35,4.58-7.3,5.58-9.69,1.5-1.78,9.76-7.75,12.38-7.59,3.45-1.42,6.77,3.41,9.07,4.44,1.27.56,9,2.87,11.44,4.74,5.35,4,2.16,14.41,2.16,14.41s-.88,6.4-2.39,9.62c3.52-1.26,4.25.23,4.25.23,1.9-3.62,11-12.14,11.89-19.12" transform="translate(0 0)" style="fill:#f68528;fill-rule:evenodd"/><path id="Fill-121" d="M470,237.07s-19.76-58.89-19.77-66.73c5.83-10.49,34.92-21.24,34.92-21.24l48.21,3.84,36.3-3.84s23.3-12.3,29.13-1.81c0,7.85-2.07,89.78-2.07,89.78s-.83,95.06.37,106.67c-9.43,5.56-40.35,15-63.73,15.06-23.38-.09-54.3-9.5-63.74-15.06,1.2-11.61.38-106.67.38-106.67" transform="translate(0 0)" style="fill:#ba1929;fill-rule:evenodd"/><path id="Fill-123" d="M487.11,205.23c7.28,4.42,8.54-1.43,17.05-1.43s8.52-1,17-1,8.52,1.88,17,1.88,8.51-.88,17-.88,11,7.78,18.24,3.36c4.42-2.68,3.71-10.45-.71-13.13-7.28-4.42-9,2.81-17.53,2.81s-8.51.44-17,.44-8.51-.29-17-.29-8.52-2-17-2-9.1-3.25-17.12-.38c-5.37,1.92-4.36,7.92.06,10.6" transform="translate(0 0)" style="fill:#f2e6cf;fill-rule:evenodd"/><path id="Fill-125" d="M488.06,228.06c7.28,4.42,7.59.33,16.1.33s8.52-1.22,17-1.22,8.52,2.69,17,2.69,8.51-2.25,17-2.25,9.18,5.45,16.46,1c4.42-2.68,5.21-7.06.79-9.74-7.28-4.42-8.73-2.08-17.25-2.08s-8.51,2.54-17,2.54-8.51-2-17-2-8.52,2.62-17,2.62-9.21-4.3-17.37-1.87c-4.71,1.41-3.15,7.26,1.27,9.94" transform="translate(0 0)" style="fill:#f2e6cf;fill-rule:evenodd"/><path id="Fill-127" d="M486.07,255.74c7.28,4.42,9.58-3,18.09-3s8.52,3.14,17,3.14,8.52-1.12,17-1.12,8.51.32,17,.32,9.62,3.06,16.9-1.36c4.42-2.68,4-6.56-.4-9.24-7.28-4.41-8,.7-16.5.7s-8.51-1.11-17-1.11-8.51-1.16-17-1.16-8.52-1.8-17-1.8-8.53.74-16.39,4c-6.1,2.55-6.12,7.88-1.7,10.56" transform="translate(0 0)" style="fill:#f2e6cf;fill-rule:evenodd"/><path id="Fill-129" d="M467.32,318.48c7.78,12,9.8,22.46,3.46,35.45-2,4.13-4.64,12.2-9.3,13.9-4.09,1.48-13.53-2.6-16.7-5.4-5-4.37-4.78-12.19.07-16.75,2.24,2.92,4.51,6.2,6.74,9.21.89-5.45-1.15-11.31-.17-16.44.93-4.95,6.17-9,9.05-13.05a55,55,0,0,1,6.46-8.12Z" transform="translate(0 0)" style="fill:#ffa82c;fill-rule:evenodd"/><path id="Fill-131" d="M451,343.44a19.73,19.73,0,0,1-6.17,2.24c1.14,2.55,3.81,7,6.74,9.21.82-3.45,1.16-8.32-.57-11.45" transform="translate(0 0)" style="fill:#df9b44;fill-rule:evenodd"/><path id="Fill-133" d="M449.21,343.73l17.72-26.45-21.58-49.89L470,237.07s10.34-18.64,2.6-39.06c-5.92-15.64-19.52-31.28-19.52-31.28s-46.29,58.35-64.3,105.1c11.15,24.75,60.41,71.9,60.41,71.9" transform="translate(0 0)" style="fill:#ba1929;fill-rule:evenodd"/><path id="Fill-135" d="M194.73,238.39c-1.46-16.26-40.39-65.37-67.08-64.25-1.31-.64,11.14,64.19,11.14,80,0,24.66,57.52,1.8,55.94-15.76" transform="translate(0 0)" style="fill:#c55c70;fill-rule:evenodd"/><path id="Fill-137" d="M143.42,450.48c24.15-4,43.31-9.63,45.62-17.7,7.51-26.27-12.91-106.69-50.46-144.24-21-12.46-87.61,3.32-91.31,7C.49,342.34,19.85,422.7,29.53,450.48Z" transform="translate(0 0)" style="fill:#6d2138;fill-rule:evenodd"/><path id="Fill-139" d="M73.8,135.41c1.93-2.37,4.51-6.5,9.19-6.78,4.68.06,14.66,11.56,16.71,13.84-5.63,15.75,2.16,24.44,2.16,24.44s.4,12-9.62,12.19-31.6-12.51-31.6-12.51,17.24-15.17,13.16-31.18" transform="translate(0 0)" style="fill:#c55c70;fill-rule:evenodd"/><path id="Fill-141" d="M12,206.15c17.39-44.68,47.2-45,47.2-45s25.7,15.2,33.89,14.77,8.29-17,8.29-17,28.9-8.11,51,34.47c-2.67,7.64-8.2,67.08-11.89,93.89-17.55,13.25-101.17,18.9-98.58,1.2C37.15,269.43,4.74,223.21,12,206.15" transform="translate(0 0)" style="fill:#ffa82c;fill-rule:evenodd"/><path id="Fill-143" d="M44.87,433.2l-3.12,17.28H34.83c.57-.89,1-1.46,1-1.46l-7.41-1.83L14.2,438.1l7-1.33a61.84,61.84,0,0,0-1.71-6.66c-3.21-7.75-.45-21.66-.45-21.66s-13.76-64.68-7.43-80.34c2.11-5.24,21.12-1.81,21.12-1.81L33,408.16Z" transform="translate(0 0)" style="fill:#dc6c7d;fill-rule:evenodd"/><polygon id="Fill-145" points="19.5 430.11 14.2 438.1 21.21 436.77 19.5 430.11" style="fill:#c55c70;fill-rule:evenodd"/><path id="Fill-147" d="M37.61,277.15,33,408.16s-14.39,13.31-15.12-5.74C-15.51,350.07,7.44,225,11.07,210.11c3.82-15.73,26.54,67,26.54,67" transform="translate(0 0)" style="fill:#dc6c7d;fill-rule:evenodd"/><path id="Fill-149" d="M108.73,157.62s-7.4-8.83-6.25-10.44,3.9-.81,5.62.63c-.87-1.46-2.73-5.43-1.95-6.54,1-1.47,3.3-1.36,5,.27l5.07,4.71-3.6-4.59s.76-4.36,6.77.36c3.71,2.9,15,13.57,15,13.57a29,29,0,0,1-.35-5c1.32-6.48,6.4-5.31,6.4-5.31l-1.17,4.45,5.75,14.61-2.75,11s50.4,36.13,56.36,54.84c2.14,6.67-2.08,17.25-17.58,16-20.44-6-46-53.73-46-53.73l-5.91-9.16-8.81-5.91-4.31-6.17a3.12,3.12,0,0,1-.71-.47S104,159,104.87,157.81a2.63,2.63,0,0,1,3.86-.19" transform="translate(0 0)" style="fill:#dc6c7d;fill-rule:evenodd"/><path id="Fill-151" d="M74.56,131c-1.73,1.22-6.34-1.06-8.2-.05s-1.32,5.45-3.28,6.19c-2.15.82-6.75-2.1-9-1.65-2.51.51-3,4.41-5.4,4.39-2.85,0-6.89-4.06-9.63-5-3.2-1.11-6.64.12-9.36-2.36s-2.6-6.87-4.1-10.35c-1.29-3-5.53-6.79-5.85-10.22-.26-2.94,3.5-4.27,4.08-7.18.51-2.59-2.17-7.54-.95-10,1.13-2.3,5.87-1.62,7.58-3.59s.45-6.78,2.62-8.31,7.19.68,9.57-.26,3-5.35,5.71-5.77c3-.46,7.64,3.11,10.54,3.3,3.26.2,5.61-2.77,8.69-1.81,3.61,1.12,6.65,5.77,9.53,7.63,3.36,2.17,8.09,3.11,10.09,6.14s-.18,5.71.22,8.78c.34,2.63,3.68,7.17,3,9.67-.56,2.12-4.87,1.58-6,3.66-1,1.84,1,6.58-.43,8.27s-5.82-.12-7.45,1.35-.22,6-2,7.21" transform="translate(0 0)" style="fill:#6d2138;fill-rule:evenodd"/><path id="Fill-153" d="M76.53,134.81c-2.52-7.48-6.9-19.22-5.6-25.17,1.51-6.92,7.91-9.65,13.55-11.55s12.4-3.59,17.79,1c4.63,4,7.49,14.59,9.54,22.21,2.61,9.72,4.26,16.12-1.62,26.64-1.36,2.43-2.19,8.09-15.74,3.38-8.9-3.11-14.72-7-17.92-16.51" transform="translate(0 0)" style="fill:#dc6c7d;fill-rule:evenodd"/><path id="Fill-155" d="M76.62,131.44c-8.4-3.46-2.45,7.27.08,9.73.93.91,3.38,2.48,4.89,2.26Z" transform="translate(0 0)" style="fill:#dc6c7d;fill-rule:evenodd"/><path id="Fill-157" d="M76.12,131.6c-1.66-.25,9,11-.5,18.37C65,144.71,62,140.24,60,136.71,52.37,123.39,56.2,106,56.2,106s2.6-9.23,16.08-13.77c6.13-2.07,19.12-3,25.61.28,5.46,2.7,10.54,9.19,8.42,12.29-1.9-1.64-10.68-4-12.24-.9-17.73-.7-5.13,19.88-17.95,27.66" transform="translate(0 0)" style="fill:#6d2138;fill-rule:evenodd"/><path id="Fill-159" d="M746.32,143.86c-4.58,24.37,8.63,24.66,8.63,24.66,0,31.95-56,11-56.59.76,13.06-1.64,18.45-9.86,21.53-23.22-3.42-6-5.14-11.2-2.75-21.68Z" transform="translate(0 0)" style="fill:#d36374;fill-rule:evenodd"/><path id="Fill-161" d="M743.38,398l15.56,53.07h54.79c-1.79-34.67-5.94-75.09-15-110.79-20-5.74-55.33,57.72-55.33,57.72m-58.85,53.07h49.33c.49-15.69,1-33.44,1.63-53.13-20-5.74-55.59-67.36-55.59-67.36s-.34,63.23,4.63,120.49" transform="translate(0 0)" style="fill:#421b59;fill-rule:evenodd"/><path id="Fill-163" d="M786,290.55c20.39,35.37,20.93,44.3,17.1,67.34-1.56,9.36-21.16,36.55-29.87,38.15-1.29.24-2.57-40.21-3.85-40-2.54.4-5.05,41.4-7.55,41.67-43.88,4.73-82.89-29.46-82.89-29.46-4.87-10.58-8.33-51.48,12.54-72.34,3.65-3.66,74.42-18.75,94.52-5.35" transform="translate(0 0)" style="fill:#fbf8ea;fill-rule:evenodd"/><path id="Fill-165" d="M811.52,241.47c3.5-9.14,11.93-18.7,12.59-28.63,1.58-23.59,17.64-5.7,15,5.48-3.15,13.37-6,32.51-11.55,45.25-2.73,6.26-12.2,24.12-18.27,25.44-3.18.69-9.06-6.5-11.86-8.86-4.23-3.55-2.76-4-5.38-10.44-4.24-10.39,16.36-35.69,19.47-28.24" transform="translate(0 0)" style="fill:#f27581;fill-rule:evenodd"/><path id="Fill-167" d="M840.82,177.1s5.35-2.65,2.1,6.5c-.43,1.22-7.1,5.3-5.32,6.36,10.57,6.23,30.93-18.32,33.44-11.4,8.07-4.38,7.11.19,6.72,1.89,5.25,1.34-.17,4.87-1.11,5.81,4.61,4.62-12.32,15.6-12.32,15.6l-12.17,8.4-12.8,6.49s-12.77-4.55-14.61-8.77,3.3-19.69,3.3-19.69l5.64-7Z" transform="translate(0 0)" style="fill:#f27581;fill-rule:evenodd"/><path id="Fill-169" d="M811.52,241.47c-7.93,6.19-30.23,6.52-30.23,6.52l-6.85-36.46s15.62-32.92,19.36-25.43c10.48,21,16.16,52.39,17.72,55.37" transform="translate(0 0)" style="fill:#d27026;fill-rule:evenodd"/><path id="Fill-171" d="M811.52,241.47c-11,8.56-16.35,25.11-19.47,28.24C784.12,275.9,782.1,248,782.1,248s24.21-26.05,29.42-6.5" transform="translate(0 0)" style="fill:#fbf8ea;fill-rule:evenodd"/><path id="Fill-173" d="M659.32,209.47C676.52,165.29,706,165,706,165l4.88-17.85,36.82,12v3.61s29.36-3.9,46.11,23.32c-4.66,13.3,13.44,135.52,10.79,154.75-8.68,6.55-101,31.27-128.81,16.84-9.37-25.71,11.78-58.06,13.06-66.81-4.68-18.85-36.72-64.54-29.52-81.41" transform="translate(0 0)" style="fill:#f68528;fill-rule:evenodd"/><path id="Fill-175" d="M647.29,244.31c-4.67-8.61-14.27-17-16.22-26.74-4.62-23.19-18.23-3.36-14.16,7.37,4.87,12.85,10.15,31.47,17.34,43.38,3.53,5.84,15.24,22.31,21.43,22.83,3.24.28,8.13-7.61,10.6-10.31,3.74-4.08,2.21-4.35,4-11.06,2.85-10.85-17.17-25.47-23-25.47" transform="translate(0 0)" style="fill:#f27581;fill-rule:evenodd"/><path id="Fill-177" d="M609.86,184.29s-5.65-1.93-1.24,6.73c.59,1.15,7.74,4.33,6.11,5.61-9.67,7.55-33-14.15-34.65-6.95-8.55-3.3-7,1.11-6.41,2.74-5,2,.8,4.81,1.86,5.62-4,5.18,14.24,13.86,14.24,13.86l13.16,6.74,13.53,4.78s12.08-6.18,13.35-10.6S624,193.73,624,193.73l-6.5-6.2Z" transform="translate(0 0)" style="fill:#f27581;fill-rule:evenodd"/><path id="Fill-179" d="M670.13,182.16c-13.69,7.46-10.55,47-22.84,62.15,4,1.47,21.49,6.2,22.77,26.25,10.47-16.28,12.28-20.12,10.8-33.4,7-7,11.42-34.63,4.39-47.39-5-9.09-15.3-7.71-15.12-7.61" transform="translate(0 0)" style="fill:#f68528;fill-rule:evenodd"/><path id="Fill-181" d="M679.31,254.43c-9.12-15.07-28.14-16.68-28.14-16.68l-3.88,6.56,22.77,26.25s11.67-12.13,9.25-16.13" transform="translate(0 0)" style="fill:#fbf8ea;fill-rule:evenodd"/><path id="Fill-183" d="M726.77,126.49c-1-7.27,8.78-27.06,14.74-27.85s8.3-1,12.47,4.31c4.47,5.68,1.49,10.31,1.94,13.58.39,2.78,3.32,6.21,4.77,8.46-.43,1.57-3,3.56-3,3.56s-.19,2.46.56,3.36a6.36,6.36,0,0,0-2.88,5c-.44,2.85-.15,6.57-1.62,7.8-3.81,3.19-13.67-.89-16-2.31-7.83-4.81-9.76-6.61-11-15.88" transform="translate(0 0)" style="fill:#f27581;fill-rule:evenodd"/><path id="Fill-185" d="M674.91,166.86c6.29-6.91,9.86-15,11.55-24.32,3.44-19-.91-40.9,26.91-53a18.53,18.53,0,0,1,8-3.58c6-.79,13.68.23,20.9,2.36,5.43,1.61,14-3,11.08,13.92-1.39-1.5-3.15-3.1-4.43-3.24-3.84.51-1.64,1.66-9.54,8.55a34.2,34.2,0,0,0-8.72,11.9c3.32,12.87,6,34.65-4.68,44.89-5.55,5.31-21.31-.37-26.72,5.14-5.23,5.32-1.78,11.19-5.43,17.4-7.91,13.45-35-2.31-18.93-20" transform="translate(0 0)" style="fill:#ffd18f;fill-rule:evenodd"/><path id="Fill-187" d="M1313.35,143.93c0,13,47.71,35.39,59.42,35.39s35.28-17,35.28-30-23.56-17-35.28-17-59.42-1.39-59.42,11.58" transform="translate(0 0)" style="fill:#421b59;fill-rule:evenodd"/><path id="Fill-189" d="M1339.55,450.41l5.77-17.42,2.24,17.42h63.37c1.25-55.36,2.45-109.84,2.45-109.84l-75,13.47c-21.53-13.73-48.73-27.69-52.45-13.47-8.83,33.72-12,76-13,109.84Z" transform="translate(0 0)" style="fill:#ffbe4e;fill-rule:evenodd"/><polygon id="Fill-191" points="1345.92 429.17 1330.67 395.86 1311.27 382.23 1339.01 381.86 1345.92 429.17" style="fill:#e8a442;fill-rule:evenodd"/><polygon id="Fill-193" points="1374.35 148.92 1355.97 159.46 1334.24 150.8 1335.89 127.14 1374.14 118.86 1374.35 148.92" style="fill:#a22f40;fill-rule:evenodd"/><path id="Fill-195" d="M1374.45,116.22c2-7.89,7.89-19.58,6.43-25.76-1.7-7.2-8.58-10.13-14.65-12.18s-13.3-3.9-19,.78c-4.91,4-7.35,16.88-10.53,24.37a33.23,33.23,0,0,0-.47,25.66,11.48,11.48,0,0,0,6.5,4.85c2.6,1.45,14.5,1.12,17.23,0,9.26-3.65,11.94-7.68,14.52-17.76" transform="translate(0 0)" style="fill:#c85560;fill-rule:evenodd"/><path id="Fill-197" d="M1396.18,94.9c3.64-7.57-5.56-14-7.32-17-6.36-11-18.18-8.16-21.23-11-12.82-11.72-19.28-3.08-19.2-.57s.51,2.42.6,3.67c-6.7.09-10.33,2.52-8.67,4.28.82.87-6.77,9.85,1.15,15.06,0,0,7.43-10.21,10-10.22,3.33-1.65,6.79,2.93,6.79,2.93s8.5,2.93,9,3.43c1,.9,4.41-.19,4.41-.19,9.24,8,4.09,25.62,4.09,25.62a169.85,169.85,0,0,0-4.15,25c2.06-3.35,12.79-10.85,16.63-15.92,6.82-9,3.91-17,7.82-25.13" transform="translate(0 0)" style="fill:#fdf7e9;fill-rule:evenodd"/><path id="Fill-199" d="M1375.88,110.93c9.63-4.29,4,9.12,1.32,11.81-1,1-4.17,1.83-5.73,1.61Z" transform="translate(0 0)" style="fill:#c85560;fill-rule:evenodd"/><path id="Fill-201" d="M1290.81,242.59l-37.14,34.93s-20.5-21.49-19.23-30.72c20.23-25.24,20.82-28.86,20.82-28.86Z" transform="translate(0 0)" style="fill:#d56f22;fill-rule:evenodd"/><path id="Fill-203" d="M1290.81,242.59l-8.08,5.87s-27.63-22.67-26.36-31.9a187.32,187.32,0,0,0,29-51.39Z" transform="translate(0 0)" style="fill:#d56f22;fill-rule:evenodd"/><path id="Fill-205" d="M1413,231.89s19.75-58.88,19.77-66.72C1427,151,1387,143.93,1387,143.93l-37.3,3.84-36.3-3.84s-22.15,10.75-28,21.24c0,7.84.92,66.72.92,66.72S1271.78,315.94,1285,342c9.44,5.56,32.43,11.52,55.8,11.61,23.38-.09,63.11-9.5,72.54-15.06,21.33-6.32-.37-106.68-.37-106.68" transform="translate(0 0)" style="fill:#421b59;fill-rule:evenodd"/><path id="Fill-207" d="M1419.5,257.4c-6.58,21.25-14.92,38.88-22.14,43.75-14.14,9.54-113.9-20-113.9-20l26.74-6,56.36-18.57s2.72-7.28,7-17.85c11.46-28.53,58.49-21.77,46,18.68" transform="translate(0 0)" style="fill:#f68528;fill-rule:evenodd"/><path id="Fill-209" d="M1274.08,255c-3.73-.45-4.64.66-7.26,3.54-4-.6.63-7.91,3.74-9.25,2.49-1.07-1.47,2.09-5.76,4.09-1.41-.69-2.68-3.32,1.58-6-5.38-.7,3.17-7.2,4.47-8.42a3.69,3.69,0,0,1-1.87-2.86c3.44-1.91,10.73-1.44,14.71-1.09,4.36.38,3.2,1,7,3.27,3.54,2.11,7.94,3.34,10,7,1.9,3.33,6.37,7.56,7.73,11.19,1,2.76-30.6-.93-34.31-1.37" transform="translate(0 0)" style="fill:#a22f40;fill-rule:evenodd"/><polygon id="Fill-211" points="1371.02 245.01 1366.56 256.57 1326.82 270.9 1324.53 246.97 1351.4 238.76 1371.02 245.01" style="fill:#c85560;fill-rule:evenodd"/><path id="Fill-213" d="M1326.82,270.9s-72.73,19.66-80.6,12.92c-7.38-6.32-17-28.84-11.78-37,2.73-4.26,14.58-4.33,19.58-5.1,18.92-2.88,70.51,5.27,70.51,5.27Z" transform="translate(0 0)" style="fill:#f68528;fill-rule:evenodd"/><polygon id="Fill-215" points="1384.62 262.63 1365.63 262.11 1284.54 280.91 1367.39 256.57 1384.62 262.63" style="fill:#d56f22;fill-rule:evenodd"/><path id="Fill-217" d="M1438.78,207.67s-19.89,51.66-21.43,56.34c-3.87,11.8-45.94-21.62-45.94-21.62l14.8-43.3s22.84-46.74,34.94-44.07c25.78,5.68,17.63,52.65,17.63,52.65" transform="translate(0 0)" style="fill:#f68528;fill-rule:evenodd"/><polygon id="Fill-219" points="1329.14 193.42 1332.91 193.42 1332.91 155.01 1329.14 155.01 1329.14 193.42" style="fill:#f68528;fill-rule:evenodd"/><polygon id="Fill-221" points="1359.99 195.62 1363.76 195.62 1363.76 157.22 1359.99 157.22 1359.99 195.62" style="fill:#f68528;fill-rule:evenodd"/></g></g></g></g></svg>