<svg width="1395" height="379" viewBox="0 0 1395 379" xmlns="http://www.w3.org/2000/svg" xmlns:xlink="http://www.w3.org/1999/xlink">
    <defs>
        <path id="r9o09ujtra" d="M0 379h1395V0H0z"/>
    </defs>
    <g fill="none" fill-rule="evenodd">
        <path d="M1009.358 313.38c-1.575-.953-2.32-2.715-1.857-4.169-1.167 1.223-3.253 1.32-4.914.134-1.382-.986-2.064-2.56-1.847-3.951-1.123 1.419-3.496 1.483-5.419.111-1.994-1.418-2.753-3.846-1.682-5.416l.603-.886c-.957.358-2.16.207-3.174-.518-1.138-.809-1.708-2.096-1.553-3.245l-.005-.001-.51-15.262s3.451-12.529 6.784-14.822c4.085-2.812 15.131-3.12 19.322-.847 3.036 1.647 8.985 10.582 8.985 10.582l17.065 21.576 4.844 4.05s-4.523 5.594-11.168-.636c-1.06-.994-13.239-7.02-13.239-7.02l-2.775 1.515c.412.101.821.256 1.211.493 1.78 1.08 2.506 3.2 1.612 4.73l-7.432 12.761c-.897 1.535-3.06 1.9-4.851.822" fill="#3F1F58"/>
        <path d="m1016.031 271-22.248-1.196s-11.728-80.359 6.116-109.799C1021.17 148.39 1041 174.192 1041 174.192L1016.031 271z" fill="#3F1F58"/>
        <path d="M753.852 186.732c15.745-12.674 28.983-30.232 45.135-31.597 10.93-.923-2.693-45.694-14.298-37.02-11.662 8.715-53.037 47.202-60.363 61.256-2.306 4.426-8.191 12.202-5.74 17.147 1.062 2.146 41.147-3.192 35.266-9.786" fill="#C95560"/>
        <path d="M254 272.832 233.144 289s-34.452-82.183-25.729-114.578c16.79-16.71 46.12 4.471 46.12 4.471l.465 93.939z" fill="#FFA92C"/>
        <path d="M278.249 293.342c-1.49-.145-6.635-2.475-6.635-2.475s9.967 19.3 12.434 25.39c.566 1.397.922 2.574 1.127 3.578l-6.771.794-1.34-1.859.961 1.903L261.631 333c-3.846-5.683-18.095-22.976-18.095-22.976a4.169 4.169 0 0 1-.356-1.128l-6.643-8.206L232 286.523 254.179 273l9.804.211 17.524 13.515 6.493.242s-.443 7.231-9.751 6.374" fill="#FFA92C"/>
        <path d="M135.456 129c8.472 8.634 23.772 30.177 29.544 44-38.611 0-39.692-1.349-37.198-14.974 1.112-6.046 7.654-29.026 7.654-29.026M62.089 70.579c1.927-2.3 4.485-6.313 9.138-6.579 4.658.053 14.589 11.224 16.625 13.43-5.597 15.3 2.146 23.738 2.146 23.738s.394 11.6-9.565 11.829C70.478 113.225 49 100.856 49 100.856s17.15-14.728 13.089-30.277" fill="#C65C70"/>
        <path d="M63.212 66.271c-1.711 1.2-6.27-1.035-8.111-.048-1.957 1.045-1.303 5.354-3.248 6.085-2.121.802-6.674-2.065-8.873-1.621-2.486.5-2.953 4.335-5.34 4.313-2.823-.019-6.822-3.987-9.528-4.906-3.164-1.087-6.569.121-9.263-2.312-2.717-2.453-2.567-6.754-4.05-10.168-1.273-2.932-5.47-6.666-5.786-10.042-.259-2.886 3.459-4.194 4.034-7.047.505-2.542-2.147-7.412-.94-9.872 1.114-2.262 5.81-1.596 7.5-3.525 1.58-1.821.441-6.663 2.594-8.169 2.158-1.507 7.105.675 9.46-.256 2.496-.996 2.93-5.247 5.645-5.664 2.95-.446 7.557 3.058 10.425 3.241 3.225.202 5.55-2.716 8.599-1.78 3.567 1.103 6.57 5.672 9.42 7.502 3.322 2.126 8 3.055 9.979 6.022 1.967 2.946-.174 5.61.223 8.63.33 2.584 3.632 7.037 2.957 9.5-.561 2.083-4.816 1.547-5.963 3.589-1.02 1.807.96 6.469-.426 8.123-1.269 1.512-5.76-.114-7.369 1.332-1.517 1.361-.22 5.879-1.939 7.073" fill="#6D2138"/>
        <path d="M64.764 69.994c-2.49-7.35-6.821-18.892-5.528-24.735 1.49-6.799 7.814-9.484 13.397-11.353 5.59-1.868 12.257-3.527 17.587.987 4.58 3.877 7.407 14.336 9.429 21.825 2.586 9.554 4.218 15.841-1.603 26.179-1.338 2.384-2.162 7.95-15.562 3.315-8.796-3.049-14.549-6.857-17.72-16.218" fill="#DD6C7D"/>
        <path d="M65.19 66.699c-8.118-3.547-2.37 7.441.08 9.96.904.93 3.273 2.543 4.73 2.32L65.19 66.7z" fill="#8D2E2A"/>
        <path d="M65.253 67.114c-1.61-.244 8.718 10.727-.485 17.886-10.279-5.126-13.209-9.476-15.163-12.912-7.38-12.978-3.675-29.877-3.675-29.877s2.524-8.988 15.598-13.41c5.943-2.012 18.541-2.865 24.834.273 5.291 2.637 10.214 8.949 8.162 11.977-1.845-1.606-10.361-3.936-11.87-.884-17.195-.683-4.978 19.364-17.4 26.947M130.025 379c23.545-3.873 42.225-9.415 44.473-17.31 7.318-25.693-12.583-104.354-49.19-141.084-20.494-12.184-85.411 3.251-89.014 6.868C-9.312 273.23 9.557 351.83 19.002 379h111.023z" fill="#6D2138"/>
        <path d="M2.037 139.713C19.01 96.08 48.102 95.806 48.102 95.806s25.087 14.849 33.08 14.423c8-.43 8.084-16.627 8.084-16.627s28.208-7.916 49.734 33.656c-2.612 7.46-8.004 65.509-11.608 91.684-17.124 12.936-98.746 18.462-96.214 1.177-4.626-18.613-36.253-63.746-29.14-80.406" fill="#FFBE4E"/>
        <path d="M124.248 157 115 170.461l9.455 8.757s18.616 24.939 41.298 25.782c16.33-2.75-.043-31.606-.043-31.606L124.248 157z" fill="#DD6C7D"/>
        <path d="m110.494 131.08-.853-5.08s-5.69 1.163-4.056 8.387c.263 1.155 2.645 4.94 2.645 4.94s-16.336-5.666-21.414-6.917c-8.256-2.042-7.028 2.763-7.028 2.763l5.747 3.01-7.291-2.459c-2.51-.846-4.844.069-5.224 2.051-.29 1.5 3.412 4.7 4.962 5.79-2.398-.675-5.574-.132-5.97 1.948-.42 2.172 11.109 7.766 11.109 7.766-1.713-.533-3.418.353-3.818 1.976-.398 1.623 16.607 8.319 16.607 8.319.313.098.626.146.925.153l7.193 4.302L115.732 170 125 156.368l-1.987-13.03-12.519-12.258zM7.152 137.586c-3.345 4-7.884 13.229-7.052 33.834 1.845 45.486 6.708 68.331 14.04 69.563 4.443.9 16.093-34.362 20.477-35.638 3.925-.289-.817-50.014-10.287-62.214-6.742-8.685-17.38-5.623-17.178-5.545" fill="#DD6C7D"/>
        <path d="M97.723 136.974s6.655-11.569 5.018-13.17c-1.568-1.542-4.622-.126-6.299 1.86.695-1.845 2.012-6.756.882-7.86-1.495-1.467-4.045-.87-5.712 1.333l-4.844 6.401 3.19-5.96s-1.764-4.82-7.687 1.792c-3.643 4.063-14.405 18.532-14.405 18.532s-.167-4.63-.621-5.772c-2.834-7.124-8.428-4.756-8.428-4.756l2.251 4.834-3.594 17.837 4.801 9.913-54.764 44.385s-7.423 34.62 10.638 33.636c23.966-6.321 55.208-60.706 55.208-60.706l6.066-8.809 8.934-8.584 3.675-7.909a3.77 3.77 0 0 0 .71-.676s10.73-15.741 9.432-16.89c-1.296-1.144-3.288-.895-4.451.569" fill="#DD6C7D"/>
        <path d="M564 69.002C564 92.747 576.98 112 592.998 112S622 92.747 622 69.002C622 45.252 609.016 26 592.998 26 576.98 26 564 45.252 564 69.002" fill="#3F1F58"/>
        <path d="M585.2 23.4c-20.36-2.933-19.144 10.951-21.995 18.958-2.932 8.245-14.328 11.631-11.857 21.672 1.078 4.382 3.899 8.168 4.926 12.61.95 4.102.299 8.907 2.793 12.563 5.716 8.377 21.574 6.373 30.527 6.795 9.697.457-4.394-72.598-4.394-72.598" fill="#3F1F58"/>
        <path d="M550.252 84.5c1.157-1.05 1.573-2.36 1.577-3.832.005-2.65-1.427-5.74-2.38-8.02-1.738-4.195-3.444-7.93-3.449-11.5-.008-3.162 1.387-6.156 5.183-9.02 3.948-2.983 7.915-4.819 10.793-8.882 2.048-2.87 2.946-6.524 5.548-9.246l.476.466c-2.454 2.54-3.355 6.15-5.486 9.172-3.005 4.226-7.07 6.093-10.933 9.026-3.681 2.798-4.911 5.528-4.918 8.484-.005 3.348 1.647 7.035 3.4 11.24.936 2.268 2.422 5.4 2.43 8.28.003 1.597-.482 3.144-1.798 4.332l-.443-.5z" fill="#3F1F58"/>
        <path d="M653.114 379c5.605-52.647 4.286-105.313-15.181-136.261-21.172-25.286-77.208-27.988-100.047-5.133-22.943 22.957-26.635 84.052-24.269 141.394h139.497z" fill="#FCF9EB"/>
        <path d="M674 138.11c-22.93-49.63-56.841-47.837-56.841-47.837l-.17.21-4.762-1.65-3.269-16.813L577.08 63l-2.551 25.833-5.452 1.89a1.496 1.496 0 0 0-.026-.031s-33.989-7.144-56.05 42.88c6.315 14.987 16.302 84.04 20.728 105.998 10.333 6.847 38.93 10.431 64.677 9.885 26.285-.554 77.132 87.533 47.48-15.498 4.04-22.034 22.058-80.75 28.115-95.847" fill="#C0222C"/>
        <path d="M628 168.5c0 16.293-13.208 29.5-29.5 29.5S569 184.793 569 168.5s13.208-29.5 29.5-29.5 29.5 13.207 29.5 29.5" fill="#6D2138"/>
        <path d="M612 170.491c-.01 3.174-5.851 9.534-13.03 9.509-7.183-.028-12.98-6.43-12.97-9.605.003-1.411 4.95 1.411 12.134 1.438 7.177.027 13.874-2.966 13.866-1.342" fill="#C0222C"/>
        <mask id="r7qfrbfs8b" fill="#fff">
            <use xlink:href="#r9o09ujtra"/>
        </mask>
        <path fill="#6D2138" mask="url(#r7qfrbfs8b)" d="M595 293h6v-95h-6z"/>
        <path d="m685 235-29.01-.824s-7.192-43.11-4.307-57.322c1.745-8.615 14.02-25.081 18.798-29.854C676.903 158.661 685 235 685 235M514.952 141l20.067 53.93-.172 39.04 43.177 43.777c2.395-.2 4.553.015 4.553.015l9.72 2.248 18.14 4.871 5.433-2.09s1.59 6.07-6.34 8.65c-1.267.406-6.155.313-6.155.313l9.953 14.473c.623 1.393-.263 3.29-1.976 4.242-1.493.829-3.126.666-3.92-.318.231 1.46-.81 3.158-2.521 3.96-1.418.671-2.897.533-3.771-.248.403 1.52-.804 3.443-2.784 4.38-2.068.967-4.187.504-4.74-1.04l-.302-.862c-.263.92-.998 1.808-2.049 2.302-1.175.55-2.394.446-3.13-.184v.003l-11.114-6.305-6.53-9.244-3.164-5.494c-7.146-5.003-54.78-38.86-61.132-57.44-5.302-15.516 8.757-98.979 8.757-98.979" fill="#FC8B59" mask="url(#r7qfrbfs8b)"/>
        <path d="m656.011 233.708-31.054 39.977c-2.391-.201-4.548.016-4.548.016l-9.717 2.25-18.13 4.88-5.432-2.097s-1.59 6.079 6.339 8.663c1.266.408 6.15.314 6.15.314l-9.948 14.497c-.618 1.394.265 3.292 1.977 4.244 1.489.834 3.123.669 3.92-.314-.234 1.458.807 3.162 2.518 3.966 1.418.668 2.895.529 3.768-.249-.404 1.519.804 3.446 2.786 4.387 2.063.966 4.182.503 4.738-1.04l.302-.865c.258.92.995 1.809 2.044 2.304 1.175.553 2.394.448 3.13-.183v.002l11.108-6.314 6.529-9.26 3.16-5.504c7.144-5.008 51.929-39.378 49.232-58.852-1.654-11.944-28.872-.822-28.872-.822" fill="#FC8B59" mask="url(#r7qfrbfs8b)"/>
        <path d="M573.631 55.562c-6.758-5.715-4.576 5.866-2.985 8.883.59 1.109 1.875 3.292 3.354 3.555l-.369-12.438zM610.566 55.539c6.473-5.629 4.38 5.776 2.856 8.747-.56 1.092-2.008 3.455-3.422 3.714l.566-12.461z" fill="#F26A3B" mask="url(#r7qfrbfs8b)"/>
        <path d="M572.018 58.234c0-7.393-.418-19.135 2.818-24.023C578.594 28.518 585.744 28 591.894 28c6.149 0 13.299.518 17.056 6.21 3.233 4.89 3.33 16.646 2.82 24.024-.647 9.416-3.86 15.883-11.155 21.718-2.152 1.722-5.907 3.003-8.721 3.048-2.815-.045-6.57-1.326-8.727-3.048-7.29-5.835-11.15-12.302-11.15-21.718" fill="#FC8B59" mask="url(#r7qfrbfs8b)"/>
        <path d="M648.972 74.939c-9.674-5.161-1.432-16.788-9.596-23.51-4.028-3.315-12.464-6.272-13.955-7.127-1.132-.651-4.417-2.711-5.334-5.759-1.363-4.535-8.115-18.826-28.312-16.23-6.132.788-12.246-.484-17.14 4.46-3.249 3.274-9.255 12.155-5.37 27.871 1.471-.634 2.4.407 3.832 1.147-2.052-7.295.818-13.937 5.898-16.97 6.477-3.87 5.818-4.176 11.732-2.085 4.514 1.593 6.46 8.502 9.75 11.985 4.139 4.385 8.01 1.399 9.679 7.066 1.32 4.458 2.319 8.952 2.848 13.55 1.635 14.248-6.299 22.501-6.217 23.04.255 1.678 6.756 2.096 12.985 1.061 0 0 3.638-.685 5.094-1.045 1.166.223 2.359.61 3.456.866 6.36 1.486 12 .083 17.575-3.753 4.69-3.226 8.747-9.251 15.103-6.676-.44-7.073-7.348-5.395-12.028-7.891" fill="#3F1F58" mask="url(#r7qfrbfs8b)"/>
        <path d="M625.605 53.126c-4.947-.526-10.16-.42-15.408-2.231-4.864-1.69-8.037-6.319-11.315-10.455-3.282-4.156-6.612-7.778-11.629-7.771-.382 0-.774.02-1.18.064l-.073-.665c.428-.045.847-.068 1.253-.068 5.402.006 8.885 3.878 12.17 8.03 3.288 4.172 6.432 8.665 11 10.234 5.101 1.764 10.247 1.67 15.254 2.198 5.002.525 9.889 1.702 14.323 6.065l-.483.473c-4.298-4.22-8.96-5.347-13.912-5.874" fill="#E7DFFF" mask="url(#r7qfrbfs8b)"/>
        <path d="M1183.242 173c5.08 16.205 2.726 38.324-3.658 59.633-2.318 8.595-8.254 12.646-15.425 14.108-16.672 3.398-22.159-27.759-22.159-27.759l2.74-30.973s34.387-13.449 38.502-15.009" fill="#3F1F58" mask="url(#r7qfrbfs8b)"/>
        <path d="m1144.432 162.649-.432 23.91s39.488 3.228 44.484-7.786c7.818-17.237-17.151-66.773-17.151-66.773l-26.901 50.649zM1038.573 141.578l.427 23.98s-39.11 3.237-44.058-7.809C987.199 140.462 1029.748 89 1029.748 89l8.825 52.578z" fill="#F78628" mask="url(#r7qfrbfs8b)"/>
        <path d="M1008.652 379c-6.84-44.585-9.476-86.047-2.722-112.515 20.43-5.828 67.251 42.786 67.251 42.786s4.482 33.45 6.819 69.729h-71.348z" fill="#931330" mask="url(#r7qfrbfs8b)"/>
        <path d="M1116.096 379h-70.635c.937-23.54 2.933-50.173 7.014-75.025-18.667-12.269-30.856-32.187-30.466-32.58 2.29-2.287 115.662-26.293 117.673-17.446 4.937 21.725 3.893 46.593-.047 54.075L1116.095 379z" fill="#C0222C" mask="url(#r7qfrbfs8b)"/>
        <path fill="#2D0045" mask="url(#r7qfrbfs8b)" d="M1112.228 81.351 1093.34 92 1071 83.25l1.695-23.905L1113 56z"/>
        <path d="M1146.483 166.937s24.727-46.788 25.517-54.757c-4.521-14.962-43.28-37.18-43.28-37.18l-38.171.23s-37.532-.82-46.377 2.028c-13.577 4.368-22.077 22.46-26.258 33.972-2.732 7.526.175 43.222.175 43.222s-9.735 100.08-12.089 111.76c9.012 6.58 31.721 14.893 55.401 17.296 23.7 2.204 71.34-3.432 81.442-8.155-.072-11.918 3.64-108.416 3.64-108.416" fill="#F78628" mask="url(#r7qfrbfs8b)"/>
        <path d="M1092.972 47.748c-.998 2.914-7.782 6.88-13.676 4.548-8.305-3.283-2.515-5.757-5.201-12.012-.54-1.253 1.157 1.91 7.052 4.242 5.897 2.331 12.332 1.731 11.825 3.222" fill="#FFF" mask="url(#r7qfrbfs8b)"/>
        <path d="M1066.186 29.828c-1.734 18.538 8.866 34.69 23.677 36.077 14.808 1.387 28.22-12.517 29.955-31.056 1.732-18.538-9.086-32.35-23.897-33.737-14.81-1.386-28.002 10.176-29.735 28.716" fill="#C0222C" mask="url(#r7qfrbfs8b)"/>
        <path d="M1071 38.157c-7.574-7.464-6.412 6.541-4.848 10.287.575 1.378 1.872 4.1 3.656 4.556L1071 38.157zM1113.78 42.515c8.418-5.955 4.64 7.34 2.47 10.694-.798 1.232-2.518 3.642-4.25 3.791l1.78-14.485z" fill="#3F1F58" mask="url(#r7qfrbfs8b)"/>
        <path d="M1070.607 43.399c1.443-8.508.745-22.366 4.883-27.697 4.808-6.211 12.86-6.05 19.736-5.393 6.883.659 14.827 2.031 18.43 9.05 3.093 6.022-.105 19.507-.225 28.14-.16 11.028-3.806 18.26-12.585 24.258-2.591 1.768-8.278 2.445-11.439 2.192-3.14-.35-8.604-2.096-10.83-4.323-7.54-7.56-9.814-15.363-7.97-26.227M1095.645 154 1080 170.43s46.718 67.364 80.222 76.57c23.753-6.314 20.644-39.17 20.644-39.17L1095.645 154z" fill="#3F1F58" mask="url(#r7qfrbfs8b)"/>
        <path d="M1306.205 105.915c3.505 8.474 17.537 10.632 31.342 4.824 13.807-5.81 22.159-17.387 18.654-25.86-3.506-8.473-31.602-39.979-45.407-34.17-13.807 5.809-8.096 46.734-4.589 55.206" fill="#FFAC27" mask="url(#r7qfrbfs8b)"/>
        <path d="M1382.433 46.879c1.19 1.7 4.293 1.973 5.098 3.82.83 1.912-.781 5.334-.397 7.522.4 2.246 2.892 3.404 2.866 5.838-.021 2.502-2.634 6.053-3.156 8.755-.53 2.761 1.033 5 .032 7.91-1.009 2.965-4.521 6.183-6.072 9.175-1.559 3.024-1.307 6.327-3.37 9.358-2.073 3.049-6.212 5.278-8.798 8.089-2.563 2.793-3.936 6.751-6.987 9.313-2.984 2.503-7.17 3.085-10.547 5.091-3.38 2.007-6.374 5.806-9.866 7.19-3.572 1.409-7.046.081-10.546.726-3.53.648-7.682 3.414-11.115 3.332-3.413-.094-5.555-3.01-8.702-3.803-3.108-.782-7.69.4-10.493-1.077-2.751-1.459-3.366-5.282-5.733-7.27-2.32-1.952-6.66-2.443-8.537-4.944-1.833-2.448-1.052-6.457-2.468-9.237-1.375-2.708-5.023-4.656-5.915-7.73-.87-2.973.996-6.58.508-9.712-.48-3.122-3.224-6.136-3.235-9.224-.013-3.168 2.604-5.957 2.932-8.931.34-3.037-1.448-6.668-.715-9.496.735-2.873 3.823-4.58 4.846-7.156 1.038-2.614.204-6.391 1.547-8.65 1.352-2.278 4.707-2.81 6.33-4.74 1.634-1.941 1.741-5.42 3.624-6.917 1.882-1.492 5.34-.933 7.504-2.089 2.143-1.14 3.227-3.99 5.597-4.693 2.32-.688 5.667.698 8.268.273 2.604-.422 4.644-2.534 7.267-2.6 2.68-.073 5.636 1.798 8.367 1.931 2.75.135 5.602-1.368 8.32-1.017 2.718.343 4.972 2.478 7.644 2.99 2.646.51 6.017-.577 8.546.062 2.496.624 3.864 2.984 6.214 3.815 2.31.816 5.874.056 7.986.999 2.075.921 2.459 3.596 4.295 4.805 1.797 1.183 5.262.836 6.792 2.203 1.493 1.331.883 4.396 2.069 6.089" fill="#FCF9EB" mask="url(#r7qfrbfs8b)"/>
        <path d="M1316.09 82.301c1.396 7.367 1.098 12.46.025 15.981-2.358 7.745 32.362 2.118 28.6-5.295-1.78-3.512-3.11-7.47-4.078-11.624 3.347-5.817-24.546.938-24.546.938" fill="#172F51" mask="url(#r7qfrbfs8b)"/>
        <path d="M1305.17 83.096c-9.374-1.088-.467 7.385 2.75 9.032 1.186.605 3.632 1.222 5.08.636l-7.83-9.668z" fill="#FFA92C" mask="url(#r7qfrbfs8b)"/>
        <path d="M1303.072 83.04c-2.947-7.04-8.013-18.055-6.92-23.975 1.266-6.886 7.188-11.606 12.973-14.014 5.783-2.405 13.313-3.283 19.114.662 4.987 3.392 9.756 14.547 12.218 21.77 3.144 9.219 1.208 13.169-3.328 21.58-1.34 2.48-5.85 1.703-8.48 2.848-2.664 1.058-5.219 4.774-7.925 3.978-9.185-2.701-13.901-3.882-17.652-12.85" fill="#FFA92C" mask="url(#r7qfrbfs8b)"/>
        <path d="M1293.905 74.234c-4.842-9.131-.239-26.98 11.357-33.467 10.496-5.872 24.485-1.875 31.758 7.07 2.393 2.943 18.054 12.046 25.393 23.637 4.404 6.955-17.33 12.771-19.55 6.583-15.58-43.365-37.896-23.35-40.05-27.258-8.167 8.6 4.676 24.175.098 32.024-4.094 7.016-7.017-4.844-9.006-8.59" fill="#FCF9EB" mask="url(#r7qfrbfs8b)"/>
        <path d="M1265.586 271.42c-8.82 34.661-12.856 73.919-14.586 107.58h53.22c8.178-27.884 15.11-51.532 15.11-51.532s-34.285-61.617-53.744-56.047M1380.995 262s-34.54 59.839-54 65.41c.576 19.124 1.105 36.359 1.584 51.59h47.925c4.829-55.596 4.49-117 4.49-117" fill="#F78628" mask="url(#r7qfrbfs8b)"/>
        <path d="M1277.918 226.301c-15.886 35.37-20.421 43.108-16.686 65.526 1.519 9.11 20.65 35.562 29.15 37.123 1.255.229 2.505-39.132 3.751-38.937 2.477.391 4.933 40.287 7.369 40.55 42.818 4.605 80.89-28.67 80.89-28.67 4.75-10.293 8.12-50.088-12.239-70.389-3.566-3.557-72.62-18.246-92.235-5.203" fill="#FCF9EB" mask="url(#r7qfrbfs8b)"/>
        <path d="M1393.744 147.572c-13.664-44.013-38.556-43.22-38.556-43.22L1350.449 87l-35.775 11.671v3.511s-27.85-7.68-48.986 32.312c-.17.23-.317.499-.434.82-8.134 21.896-25.502 68.229-16.941 76.793 3.873 3.876 10.555 5.181 13.699 4.797 8.18 28.279-3.709 50.434-2.612 58.4 8.426 6.367 98.148 30.4 125.144 16.37 9.1-24.994-11.45-56.445-12.695-64.952 4.552-18.321 28.896-56.601 21.895-79.15" fill="#3F1F58" mask="url(#r7qfrbfs8b)"/>
        <path d="M1355.611 199.145c-8.902 2.194-35.611-2.533-35.611-2.533 4.792 5.143 45.369 28.59 49.498 27.34-1.071.324 15.391-42.128 16.502-44.952 0 0-21.426 17.936-30.389 20.145" fill="#2D0045" mask="url(#r7qfrbfs8b)"/>
        <path d="m1236.417 106.862.509 7.305.517-6.16s3.662-2.882 4.871 5.108c.745 4.914 1.743 21.33 1.743 21.33s2.384-3.504 3.274-4.17c5.588-4.148 8.616.399 8.616.399l-4.034 2.654-6 15.56-3.567 2.271c4.149 8.094 18.708 41.77 23.654 48.177-13.585 42.016-38.204-16.576-42.285-46.795l-4.573-18.887c-.102-.267-.556-18.262.97-18.525 1.528-.262 2.894.9 3.052 2.596 0 0 .662-12.184 2.665-12.635 1.921-.437 3.517 2.138 3.799 4.492.378-1.767 1.788-6.208 3.169-6.52 1.828-.412 3.447 1.283 3.62 3.8" fill="#D38722" mask="url(#r7qfrbfs8b)"/>
        <path d="m1236.749 119.595 4.983 5.33-3.445-5.09s1.126-4.536 7.1.883c3.674 3.331 14.757 15.4 14.757 15.4s-.286-4.213.007-5.289c1.876-6.727 7.147-5.119 7.147-5.119l-1.566 4.595 4.946 15.814-1.433 4.004c8.39 3.646 41.141 20.52 49.114 22.361 15.448 41.054-40.964 11.245-63.162-9.557l-15.491-11.726c-.249-.144-11.885-13.776-10.829-14.94 1.06-1.166 2.88-1.128 4.07.085 0 0-7.104-9.84-5.783-11.451 1.264-1.549 4.155-.561 5.855 1.082-.804-1.605-2.458-5.927-1.548-7.04 1.205-1.47 3.564-1.18 5.278.658" fill="#FFA92C" mask="url(#r7qfrbfs8b)"/>
        <path d="m1063.003 102.877 3.668 7.607-2.141-6.89s2.44-4.941 7.109 3.053c2.872 4.915 10.967 22.083 10.967 22.083s.887-4.968 1.493-6.133c3.834-7.27 8.844-3.898 8.844-3.898l-2.914 4.884.684 19.76-2.61 4.237c7.671 6.628 36.87 35.56 44.615 39.975 4.477 52.047-45.608 1.345-62.769-29.131l-12.759-18.032c-.217-.238-8.447-19.378-7.025-20.427 1.426-1.05 3.302-.486 4.192 1.261 0 0-4.597-13.447-2.776-14.938 1.746-1.436 4.465.536 5.765 2.927-.383-2.092-.884-7.58.372-8.61 1.662-1.362 4.025-.35 5.285 2.272" fill="#3F1F58" mask="url(#r7qfrbfs8b)"/>
        <path d="M835.698 75.535c4.611 24.238-8.698 24.536-8.698 24.536 0 31.778 56.415 10.943 57 .753-13.159-1.63-18.58-9.812-21.69-23.102 3.455-15.99-26.612-2.187-26.612-2.187" fill="#A32F40" mask="url(#r7qfrbfs8b)"/>
        <path d="M899.134 379h-63.249l-4.802-20.138c.242 6.373.455 13.165.647 20.138h-61.66c-14.747-92.133 14.548-136.382 24.937-154.291 20.148-13.348 91.07.338 94.1 4.515 36.21 49.934 9.055 141.328 10.027 149.776" fill="#3F1F58" mask="url(#r7qfrbfs8b)"/>
        <path fill="#2D0045" mask="url(#r7qfrbfs8b)" d="m859 325 10-51.15L859 245zM786 315l1.346-47.61L802 244z"/>
        <path d="M903.675 224.791c8.776-38.069 20.756-73.862 16.402-84.053-17.163-44.094-46.584-44.373-46.584-44.373s-25.366 15.007-33.451 14.577c-8.087-.435-8.173-16.802-8.173-16.802s-23.793-3.317-49.492 22.379c2.796 7.981-4.52 62.246 3.58 98.27-1.99 27.67 111.992 34.837 117.718 10.002" fill="#FCF9EB" mask="url(#r7qfrbfs8b)"/>
        <path d="M883.248 253.884c.805-7.482-.884-14.486 4.548-19.214 9.593-3.206 38.96-25.352 45.951-30.801-13.263-15.304-23.17-34.974-38.87-39.203-10.623-2.861 10.877-44.56 20.772-33.938 9.944 10.672 43.863 55.994 48.567 71.155 1.48 4.774 5.89 13.49 2.581 17.927-1.433 1.925-35.301 17.813-48.98 19.58-13.515 1.743-14.515 3.992-14.411 14.586.099 10.184 9.474 15.38 2.491 24.771.133-.823-.114.862 0 0-.474-4.225-10.497-21.18-12.357-25.069-3.912 5.807-9.054 20.757-18.503 20.532-.644-7.621 7.383-12.593 8.211-20.326" fill="#C95560" mask="url(#r7qfrbfs8b)"/>
        <path d="M859 29c0 12.702 8.73 23 19.5 23 10.768 0 19.5-10.298 19.5-23s-8.732-23-19.5-23C867.73 6 859 16.298 859 29" fill="#FFBB61" mask="url(#r7qfrbfs8b)"/>
        <path d="M861.234 66.994c2.492-7.35 6.824-18.89 5.53-24.735-1.49-6.797-7.815-9.484-13.398-11.352-5.589-1.868-12.258-3.528-17.587.987-4.577 3.877-7.406 14.338-9.428 21.825-2.587 9.553-4.217 15.842 1.604 26.179 1.336 2.382 2.16 7.949 15.56 3.315 8.798-3.05 14.551-6.857 17.72-16.219" fill="#C95560" mask="url(#r7qfrbfs8b)"/>
        <path d="M860.344 64.7c9.021-3.55 2.633 7.441-.089 9.96-1.004.928-3.636 2.542-5.255 2.319l5.344-12.28z" fill="#C95560" mask="url(#r7qfrbfs8b)"/>
        <path d="M861.342 63.746c1.642-.248-8.797 11.98.592 19.254 10.482-5.208 13.378-10.71 15.367-14.202 7.53-13.184 3.75-30.348 3.75-30.348s-2.573-9.129-15.908-13.622c-6.064-2.042-18.912-2.909-25.332.278-5.397 2.679-10.418 9.088-8.325 12.165 1.883-1.629 10.568-3.995 12.106-.897 17.54-.694 5.08 19.67 17.75 27.372" fill="#FFBB61" mask="url(#r7qfrbfs8b)"/>
        <path d="M903 30.66c0-3.096-.666-6.168-2.139-8.912-1.73-3.227-4.476-5.01-7.458-6.678a.56.56 0 0 0-.764.226.58.58 0 0 0 .223.777c2.952 1.651 5.447 3.306 7.013 6.224 1.371 2.555 2.002 5.433 2.002 8.364.002 4.942-1.802 10.024-4.806 13.839-3.009 3.818-7.18 6.357-11.942 6.357a14.463 14.463 0 0 1-4.4-.707.56.56 0 0 0-.703.375c-.093.3.073.622.368.718 1.62.516 3.206.757 4.735.757 10.363-.04 17.862-10.924 17.871-21.34" fill="#FFBB61" mask="url(#r7qfrbfs8b)"/>
        <path d="M879.41 44.998c.338-.01.6-.27.59-.578-.25-5.809-5.54-11.926-9.925-15.409-.96-.752-2.009-1.556-3.257-1.977-.317-.106-.666.044-.781.334-.115.29.048.613.363.719.974.321 1.942 1.031 2.879 1.774 4.243 3.327 9.336 9.397 9.5 14.597.012.304.283.542.61.542l.02-.002" fill="#FFAC27" mask="url(#r7qfrbfs8b)"/>
        <path d="M353 84.383S340.312 100.157 331.684 100C323.302 99.842 312 84.383 312 84.383L312.16 54h40.677L353 84.383z" fill="#D38722" mask="url(#r7qfrbfs8b)"/>
        <path d="M264.428 379H406c-2.645-44.75-5.138-85-5.138-85H259l1.325 58.137L264.428 379z" fill="#BC2631" mask="url(#r7qfrbfs8b)"/>
        <path fill="#931330" mask="url(#r7qfrbfs8b)" d="m328 379-10.19-22.25L296 341.42l25.863-.42z"/>
        <path d="M409.012 100.633v-.001C404.852 93.155 370.142 77 370.142 77l-40.397 4.28L289.348 77s-32.377 11.962-38.87 23.632c0 0-57.149 48.617-49.83 68.477 3.737 10.144 56.935 31.555 58.764 32.136.179 32.225.308 83.557-.594 92.308 10.496 6.189 44.907 13.337 70.927 13.447 26.02-.11 60.43-7.258 70.928-13.447-.902-8.75 5.918-18.746 6.097-50.973 1.829-.58 38.68 3.513 41.835-6.828 20.911-68.531-39.593-135.12-39.593-135.12" fill="#3F1F58" mask="url(#r7qfrbfs8b)"/>
        <path d="M351 40.514c4.483-7.715 6.406 4.466 5.93 7.947-.176 1.279-.652 3.835-1.972 4.539L351 40.514zM312.394 52.782c-8.538-3.88-2.455 7.805.13 10.507.952.994 2.948 2.904 4.476 2.695l-4.606-13.202z" fill="#FFA92C" mask="url(#r7qfrbfs8b)"/>
        <path d="M352.431 44.094c-3.052-7.45-5.25-20.239-10.11-24.214-5.651-4.636-12.962-2.764-19.095-.69-6.14 2.076-13.098 5.03-14.949 12.202-1.587 6.157 4.084 17.77 5.96 25.619 2.4 10.023 7.202 15.84 16.43 19.43 2.724 1.055 8.044.453 10.873-.454 2.79-.993 7.417-3.755 8.99-6.265 5.328-8.511 5.805-16.114 1.901-25.628" fill="#FFA92C" mask="url(#r7qfrbfs8b)"/>
        <path d="M348.992 10.513c-.763-1.13-6.397-2.426-8.663-3.322-2.146-.845-2.204-6.182-7.325-7.029-6.358-1.052-4.414 3.383-16.422 2.844-6.897-.316-9.55 7.177-9.55 7.177s-6.287 4.135-6.957 5.131c-2.207 3.3-3.644 7.985-2.858 15.612.48 4.598 9.267 17.703 11.58 20.397 0 0 2.838.972 3.617.587-1.236-3.22-1.278-8.246-2.07-10.633-.033-2.258 2.24-11.873 4.276-13.416 1.636-3.231 7.149-1.803 9.501-2.511 1.29-.39 8.436-3.58 11.44-3.784 6.513-.438 10.78 9.188 10.78 9.188s3.442 5.247 4.384 8.564c1.78-3.158 3.275-2.527 3.275-2.527-.913-3.853-1.185-20.616-5.008-26.278" fill="#F78628" mask="url(#r7qfrbfs8b)"/>
        <path d="M414.39 328.441 436.768 342s24.038-74.879 11.72-105.921C430.045 221.507 407 242.926 407 242.926l7.39 85.515z" fill="#FFA92C" mask="url(#r7qfrbfs8b)"/>
        <path d="M393.517 351.949c1.474-.317 6.347-3.223 6.347-3.223s-7.687 20.279-9.434 26.598c-.4 1.45-.618 2.658-.703 3.676h6.87l1.122-1.997-.738 1.997h26.46c3.176-6.078 6.8-14.557 6.8-14.557.136-.389.202-.779.222-1.16l5.676-8.901L439 339.82 415.197 329l-9.79 1.348-15.936 15.425-6.471.995s1.302 7.112 10.517 5.18" fill="#FFA92C" mask="url(#r7qfrbfs8b)"/>
        <path d="M800.198 239.605c-.262-7.507 1.91-14.36-3.13-19.455-9.267-3.875-36.758-28.015-43.29-33.938 14.224-14.292-24.283-18.907-30.024-4.147-1.806 4.647-6.796 13.01-3.837 17.664 1.283 2.019 33.676 20.25 47.093 22.982 13.255 2.7 14.085 5.01 13.225 15.55-.826 10.132-10.478 14.638-4.237 24.485-.073-.83.051.866 0 0 .771-4.173 11.906-20.34 14.025-24.079 3.459 6.06 7.48 21.31 16.852 21.76 1.181-7.541-6.41-13.064-6.677-20.822" fill="#C95560" mask="url(#r7qfrbfs8b)"/>
    </g>
</svg>
